<svg style="background:white" xmlns="http://www.w3.org/2000/svg" xmlns:xlink="http://www.w3.org/1999/xlink" xmlns:s="https://github.com/nturley/netlistsvg" width="318" height="183">
  <style>svg {
    stroke:#000;
    fill:none;
  }
  text {
    fill:#000;
    stroke:none;
    font-size:10px;
    font-weight: bold;
    font-family: "Courier New", monospace;
  }
  .nodelabel {
    text-anchor: middle;
  }
  .inputPortLabel {
    text-anchor: end;
  }
  .splitjoinBody {
    fill:#000;
  }</style>
  <g s:type="and" transform="translate(201,135)" s:width="30" s:height="25" id="cell_$and$.yosys_tmp/Arb.sv:10$1">
    <s:alias val="$and"/>
    <s:alias val="$logic_and"/>
    <s:alias val="$_AND_"/>
    <path d="M0,0 L0,25 L15,25 A15 12.5 0 0 0 15,0 Z" class="cell_$and$.yosys_tmp/Arb.sv:10$1"/>
    <g s:x="0" s:y="5" s:pid="A"/>
    <g s:x="0" s:y="20" s:pid="B"/>
    <g s:x="30" s:y="12.5" s:pid="Y"/>
  </g>
  <g s:type="and" transform="translate(201,75)" s:width="30" s:height="25" id="cell_$and$.yosys_tmp/Arb.sv:8$4">
    <s:alias val="$and"/>
    <s:alias val="$logic_and"/>
    <s:alias val="$_AND_"/>
    <path d="M0,0 L0,25 L15,25 A15 12.5 0 0 0 15,0 Z" class="cell_$and$.yosys_tmp/Arb.sv:8$4"/>
    <g s:x="0" s:y="5" s:pid="A"/>
    <g s:x="0" s:y="20" s:pid="B"/>
    <g s:x="30" s:y="12.5" s:pid="Y"/>
  </g>
  <g s:type="not" transform="translate(136,12.5)" s:width="30" s:height="20" id="cell_$not$.yosys_tmp/Arb.sv:8$3">
    <s:alias val="$_NOT_"/>
    <s:alias val="$not"/>
    <s:alias val="$logic_not"/>
    <path d="M0,0 L0,20 L20,10 Z" class="cell_$not$.yosys_tmp/Arb.sv:8$3"/>
    <circle cx="23" cy="10" r="3" class="cell_$not$.yosys_tmp/Arb.sv:8$3"/>
    <g s:x="0" s:y="10" s:pid="A"/>
    <g s:x="25" s:y="10" s:pid="Y"/>
  </g>
  <g s:type="inputExt" transform="translate(12,45)" s:width="30" s:height="20" id="cell_r">
    <text x="15" y="-4" class="nodelabel cell_r" s:attribute="ref">r</text>
    <s:alias val="$_inputExt_"/>
    <path d="M0,0 L0,20 L15,20 L30,10 L15,0 Z" class="cell_r"/>
    <g s:x="28" s:y="10" s:pid="Y"/>
  </g>
  <g s:type="outputExt" transform="translate(266,137.5)" s:width="30" s:height="20" id="cell_g">
    <text x="15" y="-4" class="nodelabel cell_g" s:attribute="ref">g</text>
    <s:alias val="$_outputExt_"/>
    <path d="M30,0 L30,20 L15,20 L0,10 L15,0 Z" class="cell_g"/>
    <g s:x="0" s:y="10" s:pid="A"/>
  </g>
  <g s:type="constant" transform="translate(12,110)" s:width="30" s:height="20" id="cell_1">
    <text x="15" y="-4" class="nodelabel cell_1" s:attribute="ref">1</text>
    <s:alias val="$_constant_"/>
    <rect width="30" height="20" class="cell_1"/>
    <g s:x="30" s:y="10" s:pid="Y"/>
  </g>
  <g s:type="join" transform="translate(155,119.5)" s:width="4" s:height="40" id="cell_$join$,32,18,19,20,21,22,23,24,">
    <rect width="5" height="40" class="splitjoinBody" s:generic="body"/>
    <s:alias val="$_join_"/>
    <g s:x="5" s:y="20" s:pid="out"/>
    <g transform="translate(0,10)" s:x="0" s:y="10" s:pid="in0">
      <text x="-3" y="-4" class="inputPortLabel">0:6</text>
    </g>
  </g>
  <g s:type="join" transform="translate(84,109.5)" s:width="4" s:height="40" id="cell_$join$,32,18,19,20,21,22,23,">
    <rect width="5" height="40" class="splitjoinBody" s:generic="body"/>
    <s:alias val="$_join_"/>
    <g s:x="5" s:y="20" s:pid="out"/>
    <g transform="translate(0,10)" s:x="0" s:y="10" s:pid="in0">
      <text x="-3" y="-4" class="inputPortLabel">0</text>
    </g>
    <g transform="translate(0,30)" s:x="0" s:y="10" s:pid="in0">
      <text x="-3" y="-4" class="inputPortLabel">1:6</text>
    </g>
  </g>
  <g s:type="split" transform="translate(266,54.5)" s:width="5" s:height="40" id="cell_$split$,18,19,20,21,22,23,24,">
    <rect width="5" height="20" class="splitjoinBody" s:generic="body"/>
    <s:alias val="$_split_"/>
    <g s:x="0" s:y="20" s:pid="in"/>
    <g transform="translate(4,10)" s:x="4" s:y="10" s:pid="out0">
      <text x="5" y="-4">0:5</text>
    </g>
  </g>
  <g s:type="split" transform="translate(77,12)" s:width="5" s:height="40" id="cell_$split$,2,3,4,5,6,7,8,9,">
    <rect width="5" height="20" class="splitjoinBody" s:generic="body"/>
    <s:alias val="$_split_"/>
    <g s:x="0" s:y="20" s:pid="in"/>
    <g transform="translate(4,10)" s:x="4" s:y="10" s:pid="out0">
      <text x="5" y="-4">0:6</text>
    </g>
  </g>
  <line x1="161" x2="201" y1="140" y2="140" class="net_32,18,19,20,21,22,23,24"/>
  <line x1="40" x2="176" y1="55" y2="55" class="net_2,3,4,5,6,7,8,9"/>
  <line x1="176" x2="176" y1="55" y2="155" class="net_2,3,4,5,6,7,8,9"/>
  <line x1="176" x2="201" y1="155" y2="155" class="net_2,3,4,5,6,7,8,9"/>
  <line x1="40" x2="52" y1="55" y2="55" class="net_2,3,4,5,6,7,8,9"/>
  <line x1="52" x2="52" y1="55" y2="45" class="net_2,3,4,5,6,7,8,9"/>
  <line x1="52" x2="77.5" y1="45" y2="45" class="net_2,3,4,5,6,7,8,9"/>
  <circle cx="52" cy="55" r="2" style="fill:#000" class="net_2,3,4,5,6,7,8,9"/>
  <line x1="77.5" x2="77.5" y1="45" y2="33" class="net_2,3,4,5,6,7,8,9"/>
  <line x1="161" x2="186" y1="22.5" y2="22.5" class="net_25,26,27,28,29,30,31"/>
  <line x1="186" x2="186" y1="22.5" y2="80" class="net_25,26,27,28,29,30,31"/>
  <line x1="186" x2="201" y1="80" y2="80" class="net_25,26,27,28,29,30,31"/>
  <line x1="90" x2="111" y1="130" y2="130" class="net_32,18,19,20,21,22,23"/>
  <line x1="111" x2="111" y1="130" y2="95" class="net_32,18,19,20,21,22,23"/>
  <circle cx="111" cy="130" r="2" style="fill:#000" class="net_32,18,19,20,21,22,23"/>
  <line x1="111" x2="201" y1="95" y2="95" class="net_32,18,19,20,21,22,23"/>
  <line x1="90" x2="155" y1="130" y2="130" class="net_32,18,19,20,21,22,23"/>
  <line x1="82" x2="136" y1="22.5" y2="22.5" class="net_2,3,4,5,6,7,8"/>
  <line x1="231" x2="266" y1="147.5" y2="147.5" class="net_10,11,12,13,14,15,16,17"/>
  <line x1="42" x2="84" y1="120" y2="120" class="net_32"/>
  <line x1="271" x2="306" y1="65" y2="65" class="net_18,19,20,21,22,23"/>
  <line x1="306" x2="306" y1="65" y2="170" class="net_18,19,20,21,22,23"/>
  <line x1="306" x2="52" y1="170" y2="170" class="net_18,19,20,21,22,23"/>
  <line x1="52" x2="52" y1="170" y2="140" class="net_18,19,20,21,22,23"/>
  <line x1="52" x2="84" y1="140" y2="140" class="net_18,19,20,21,22,23"/>
  <line x1="231" x2="266.5" y1="87.5" y2="87.5" class="net_18,19,20,21,22,23,24"/>
  <line x1="266.5" x2="266.5" y1="87.5" y2="75.5" class="net_18,19,20,21,22,23,24"/>
</svg>
