<svg style="background:white" xmlns="http://www.w3.org/2000/svg" xmlns:xlink="http://www.w3.org/1999/xlink" xmlns:s="https://github.com/nturley/netlistsvg" width="375" height="366.5">
  <style>svg {
    stroke:#000;
    fill:none;
  }
  text {
    fill:#000;
    stroke:none;
    font-size:10px;
    font-weight: bold;
    font-family: "Courier New", monospace;
  }
  .nodelabel {
    text-anchor: middle;
  }
  .inputPortLabel {
    text-anchor: end;
  }
  .splitjoinBody {
    fill:#000;
  }</style>
  <g s:type="mux" transform="translate(278,12)" s:width="20" s:height="40" id="cell_$procmux$35">
    <s:alias val="$pmux"/>
    <s:alias val="$mux"/>
    <s:alias val="$_MUX_"/>
    <path d="M0,0 L20,10 L20,30 L0,40 Z" class="cell_$procmux$35"/>
    <g s:x="0" s:y="10" s:pid="A"/>
    <g s:x="0" s:y="30" s:pid="B"/>
    <g s:x="10" s:y="35" s:pid="S"/>
    <g s:x="20" s:y="20" s:pid="Y"/>
  </g>
  <g s:type="eq" transform="translate(143.66666666666666,49.5)" s:width="25" s:height="25" id="cell_$procmux$36_CMP0">
    <s:alias val="$eq"/>
    <circle r="12.5" cx="12.5" cy="12.5" class="cell_$procmux$36_CMP0"/>
    <line x1="7.5" x2="17.5" y1="10" y2="10" class="cell_$procmux$36_CMP0"/>
    <line x1="7.5" x2="17.5" y1="15" y2="15" class="cell_$procmux$36_CMP0"/>
    <g s:x="3" s:y="5" s:pid="A"/>
    <g s:x="3" s:y="20" s:pid="B"/>
    <g s:x="25" s:y="12.5" s:pid="Y"/>
  </g>
  <g s:type="eq" transform="translate(143.66666666666666,114.5)" s:width="25" s:height="25" id="cell_$procmux$37_CMP0">
    <s:alias val="$eq"/>
    <circle r="12.5" cx="12.5" cy="12.5" class="cell_$procmux$37_CMP0"/>
    <line x1="7.5" x2="17.5" y1="10" y2="10" class="cell_$procmux$37_CMP0"/>
    <line x1="7.5" x2="17.5" y1="15" y2="15" class="cell_$procmux$37_CMP0"/>
    <g s:x="3" s:y="5" s:pid="A"/>
    <g s:x="3" s:y="20" s:pid="B"/>
    <g s:x="25" s:y="12.5" s:pid="Y"/>
  </g>
  <g s:type="eq" transform="translate(143.66666666666666,274.5)" s:width="25" s:height="25" id="cell_$procmux$38_CMP0">
    <s:alias val="$eq"/>
    <circle r="12.5" cx="12.5" cy="12.5" class="cell_$procmux$38_CMP0"/>
    <line x1="7.5" x2="17.5" y1="10" y2="10" class="cell_$procmux$38_CMP0"/>
    <line x1="7.5" x2="17.5" y1="15" y2="15" class="cell_$procmux$38_CMP0"/>
    <g s:x="3" s:y="5" s:pid="A"/>
    <g s:x="3" s:y="20" s:pid="B"/>
    <g s:x="25" s:y="12.5" s:pid="Y"/>
  </g>
  <g s:type="not" transform="translate(142,334.5)" s:width="30" s:height="20" id="cell_$procmux$40_CMP0">
    <s:alias val="$_NOT_"/>
    <s:alias val="$not"/>
    <s:alias val="$logic_not"/>
    <path d="M0,0 L0,20 L20,10 Z" class="cell_$procmux$40_CMP0"/>
    <circle cx="23" cy="10" r="3" class="cell_$procmux$40_CMP0"/>
    <g s:x="0" s:y="10" s:pid="A"/>
    <g s:x="25" s:y="10" s:pid="Y"/>
  </g>
  <g s:type="inputExt" transform="translate(12,334.5)" s:width="30" s:height="20" id="cell_r">
    <text x="15" y="-4" class="nodelabel cell_r" s:attribute="ref">r</text>
    <s:alias val="$_inputExt_"/>
    <path d="M0,0 L0,20 L15,20 L30,10 L15,0 Z" class="cell_r"/>
    <g s:x="28" s:y="10" s:pid="Y"/>
  </g>
  <g s:type="outputExt" transform="translate(333,22)" s:width="30" s:height="20" id="cell_g">
    <text x="15" y="-4" class="nodelabel cell_g" s:attribute="ref">g</text>
    <s:alias val="$_outputExt_"/>
    <path d="M30,0 L30,20 L15,20 L0,10 L15,0 Z" class="cell_g"/>
    <g s:x="0" s:y="10" s:pid="A"/>
  </g>
  <g s:type="constant" transform="translate(207,32)" s:width="30" s:height="20" id="cell_00000001001001001000">
    <text x="15" y="-4" class="nodelabel cell_00000001001001001000" s:attribute="ref">0x1248</text>
    <s:alias val="$_constant_"/>
    <rect width="30" height="20" class="cell_00000001001001001000"/>
    <g s:x="30" s:y="10" s:pid="Y"/>
  </g>
  <g s:type="constant" transform="translate(77,59.5)" s:width="30" s:height="20" id="cell_1000">
    <text x="15" y="-4" class="nodelabel cell_1000" s:attribute="ref">0x8</text>
    <s:alias val="$_constant_"/>
    <rect width="30" height="20" class="cell_1000"/>
    <g s:x="30" s:y="10" s:pid="Y"/>
  </g>
  <g s:type="constant" transform="translate(77,124.5)" s:width="30" s:height="20" id="cell_100">
    <text x="15" y="-4" class="nodelabel cell_100" s:attribute="ref">100</text>
    <s:alias val="$_constant_"/>
    <rect width="30" height="20" class="cell_100"/>
    <g s:x="30" s:y="10" s:pid="Y"/>
  </g>
  <g s:type="constant" transform="translate(77,284.5)" s:width="30" s:height="20" id="cell_10">
    <text x="15" y="-4" class="nodelabel cell_10" s:attribute="ref">10</text>
    <s:alias val="$_constant_"/>
    <rect width="30" height="20" class="cell_10"/>
    <g s:x="30" s:y="10" s:pid="Y"/>
  </g>
  <g s:type="join" transform="translate(215,119.5)" s:width="4" s:height="40" id="cell_$join$,10,11,12,2,13,">
    <rect width="5" height="100" class="splitjoinBody" s:generic="body"/>
    <s:alias val="$_join_"/>
    <g s:x="5" s:y="20" s:pid="out"/>
    <g transform="translate(0,10)" s:x="0" s:y="10" s:pid="in0">
      <text x="-3" y="-4" class="inputPortLabel">0</text>
    </g>
    <g transform="translate(0,30)" s:x="0" s:y="10" s:pid="in0">
      <text x="-3" y="-4" class="inputPortLabel">1</text>
    </g>
    <g transform="translate(0,50)" s:x="0" s:y="10" s:pid="in0">
      <text x="-3" y="-4" class="inputPortLabel">2</text>
    </g>
    <g transform="translate(0,70)" s:x="0" s:y="10" s:pid="in0">
      <text x="-3" y="-4" class="inputPortLabel">3</text>
    </g>
    <g transform="translate(0,90)" s:x="0" s:y="10" s:pid="in0">
      <text x="-3" y="-4" class="inputPortLabel">4</text>
    </g>
  </g>
  <g s:type="split" transform="translate(92.25,179.5)" s:width="5" s:height="40" id="cell_$split$,2,3,4,5,">
    <rect width="5" height="60" class="splitjoinBody" s:generic="body"/>
    <s:alias val="$_split_"/>
    <g s:x="0" s:y="20" s:pid="in"/>
    <g transform="translate(4,10)" s:x="4" s:y="10" s:pid="out0">
      <text x="5" y="-4">0</text>
    </g>
    <g transform="translate(4,30)" s:x="4" s:y="10" s:pid="out0">
      <text x="5" y="-4">0:2</text>
    </g>
    <g transform="translate(4,50)" s:x="4" s:y="10" s:pid="out0">
      <text x="5" y="-4">0:1</text>
    </g>
  </g>
  <line x1="237" x2="278" y1="42" y2="42" class="net_14,15,16,17,18,19,20,21,22,23,24,25,26,27,28,29,30,31,32,33"/>
  <line x1="221" x2="288" y1="140" y2="140" class="net_10,11,12,2,13"/>
  <line x1="288" x2="288" y1="140" y2="47" class="net_10,11,12,2,13"/>
  <line x1="40" x2="52" y1="344.5" y2="344.5" class="net_2,3,4,5"/>
  <line x1="52" x2="52" y1="344.5" y2="38.5" class="net_2,3,4,5"/>
  <line x1="52" x2="117" y1="38.5" y2="38.5" class="net_2,3,4,5"/>
  <line x1="117" x2="117" y1="38.5" y2="54.5" class="net_2,3,4,5"/>
  <circle cx="52" cy="344.5" r="2" style="fill:#000" class="net_2,3,4,5"/>
  <line x1="117" x2="146.66666666666666" y1="54.5" y2="54.5" class="net_2,3,4,5"/>
  <line x1="40" x2="142" y1="344.5" y2="344.5" class="net_2,3,4,5"/>
  <line x1="40" x2="52" y1="344.5" y2="344.5" class="net_2,3,4,5"/>
  <line x1="52" x2="52" y1="344.5" y2="200" class="net_2,3,4,5"/>
  <circle cx="52" cy="200" r="2" style="fill:#000" class="net_2,3,4,5"/>
  <line x1="52" x2="92.25" y1="200" y2="200" class="net_2,3,4,5"/>
  <line x1="107" x2="146.66666666666666" y1="69.5" y2="69.5" class="net_34,35,36,37"/>
  <line x1="97.25" x2="117" y1="210" y2="210" class="net_2,3,4"/>
  <line x1="117" x2="117" y1="210" y2="119.5" class="net_2,3,4"/>
  <line x1="117" x2="146.66666666666666" y1="119.5" y2="119.5" class="net_2,3,4"/>
  <line x1="107" x2="146.66666666666666" y1="134.5" y2="134.5" class="net_38,39,40"/>
  <line x1="97.25" x2="117" y1="230" y2="230" class="net_2,3"/>
  <line x1="117" x2="117" y1="230" y2="279.5" class="net_2,3"/>
  <line x1="117" x2="146.66666666666666" y1="279.5" y2="279.5" class="net_2,3"/>
  <line x1="107" x2="146.66666666666666" y1="294.5" y2="294.5" class="net_41,42"/>
  <line x1="298" x2="333" y1="32" y2="32" class="net_6,7,8,9"/>
  <line x1="168.66666666666666" x2="215.5" y1="62" y2="62" class="net_10"/>
  <line x1="215.5" x2="215.5" y1="62" y2="129.5" class="net_10"/>
  <line x1="168.66666666666666" x2="182" y1="127" y2="127" class="net_11"/>
  <line x1="182" x2="182" y1="127" y2="150" class="net_11"/>
  <line x1="182" x2="215" y1="150" y2="150" class="net_11"/>
  <line x1="168.66666666666666" x2="182" y1="287" y2="287" class="net_12"/>
  <line x1="182" x2="182" y1="287" y2="170" class="net_12"/>
  <line x1="182" x2="215" y1="170" y2="170" class="net_12"/>
  <line x1="97.25" x2="215" y1="190" y2="190" class="net_2"/>
  <line x1="167" x2="215.5" y1="344.5" y2="344.5" class="net_13"/>
  <line x1="215.5" x2="215.5" y1="344.5" y2="210.5" class="net_13"/>
</svg>
