<svg style="background:white" xmlns="http://www.w3.org/2000/svg" xmlns:xlink="http://www.w3.org/1999/xlink" xmlns:s="https://github.com/nturley/netlistsvg" width="489" height="121.5">
  <style>svg {
    stroke:#000;
    fill:none;
  }
  text {
    fill:#000;
    stroke:none;
    font-size:10px;
    font-weight: bold;
    font-family: "Courier New", monospace;
  }
  .nodelabel {
    text-anchor: middle;
  }
  .inputPortLabel {
    text-anchor: end;
  }
  .splitjoinBody {
    fill:#000;
  }</style>
  <g s:type="or" transform="translate(382,19.5)" s:width="30" s:height="25" id="cell_$or$.yosys_tmp/BarrelShift.sv:10$6">
    <s:alias val="$or"/>
    <s:alias val="$logic_or"/>
    <s:alias val="$_OR_"/>
    <path d="M0,25 L0,25 L15,25 A15 12.5 0 0 0 15,0 L0,0" class="cell_$or$.yosys_tmp/BarrelShift.sv:10$6"/>
    <path d="M0,0 A30 25 0 0 1 0,25" class="cell_$or$.yosys_tmp/BarrelShift.sv:10$6"/>
    <g s:x="3" s:y="5" s:pid="A"/>
    <g s:x="3" s:y="20" s:pid="B"/>
    <g s:x="30" s:y="12.5" s:pid="Y"/>
  </g>
  <g s:type="generic" transform="translate(84,24)" s:width="30" s:height="40" id="cell_$shl$.yosys_tmp/BarrelShift.sv:9$8">
    <text x="15" y="-4" class="nodelabel cell_$shl$.yosys_tmp/BarrelShift.sv:9$8" s:attribute="ref">$shl</text>
    <rect width="30" height="40" s:generic="body" class="cell_$shl$.yosys_tmp/BarrelShift.sv:9$8"/>
    <g transform="translate(0,10)" s:x="0" s:y="10" s:pid="in0" id="port_$shl$.yosys_tmp/BarrelShift.sv:9$8~A">
      <text x="-3" y="-4" class="inputPortLabel cell_$shl$.yosys_tmp/BarrelShift.sv:9$8">A</text>
    </g>
    <g transform="translate(0,30)" s:x="0" s:y="10" s:pid="in0" id="port_$shl$.yosys_tmp/BarrelShift.sv:9$8~B">
      <text x="-3" y="-4" class="inputPortLabel cell_$shl$.yosys_tmp/BarrelShift.sv:9$8">B</text>
    </g>
    <g transform="translate(30,10)" s:x="30" s:y="10" s:pid="out0" id="port_$shl$.yosys_tmp/BarrelShift.sv:9$8~Y">
      <text x="5" y="-4" style="fill:#000; stroke:none" class="cell_$shl$.yosys_tmp/BarrelShift.sv:9$8">Y</text>
    </g>
  </g>
  <g s:type="inputExt" transform="translate(12,89.5)" s:width="30" s:height="20" id="cell_n">
    <text x="15" y="-4" class="nodelabel cell_n" s:attribute="ref">n</text>
    <s:alias val="$_inputExt_"/>
    <path d="M0,0 L0,20 L15,20 L30,10 L15,0 Z" class="cell_n"/>
    <g s:x="28" s:y="10" s:pid="Y"/>
  </g>
  <g s:type="inputExt" transform="translate(12,24.5)" s:width="30" s:height="20" id="cell_a">
    <text x="15" y="-4" class="nodelabel cell_a" s:attribute="ref">a</text>
    <s:alias val="$_inputExt_"/>
    <path d="M0,0 L0,20 L15,20 L30,10 L15,0 Z" class="cell_a"/>
    <g s:x="28" s:y="10" s:pid="Y"/>
  </g>
  <g s:type="outputExt" transform="translate(447,22)" s:width="30" s:height="20" id="cell_b">
    <text x="15" y="-4" class="nodelabel cell_b" s:attribute="ref">b</text>
    <s:alias val="$_outputExt_"/>
    <path d="M30,0 L30,20 L15,20 L0,10 L15,0 Z" class="cell_b"/>
    <g s:x="0" s:y="10" s:pid="A"/>
  </g>
  <g s:type="split" transform="translate(323,14)" s:width="5" s:height="40" id="cell_$split$,21,22,23,24,25,26,27,28,29,30,31,32,33,34,35,">
    <rect width="5" height="40" class="splitjoinBody" s:generic="body"/>
    <s:alias val="$_split_"/>
    <g s:x="0" s:y="20" s:pid="in"/>
    <g transform="translate(4,10)" s:x="4" s:y="10" s:pid="out0">
      <text x="5" y="-4">0:7</text>
    </g>
    <g transform="translate(4,30)" s:x="4" s:y="10" s:pid="out0">
      <text x="5" y="-4">8:14</text>
    </g>
  </g>
  <line x1="328" x2="385" y1="24.5" y2="24.5" class="net_21,22,23,24,25,26,27,28"/>
  <line x1="328" x2="357" y1="44.5" y2="44.5" class="net_29,30,31,32,33,34,35"/>
  <line x1="357" x2="357" y1="44.5" y2="39.5" class="net_29,30,31,32,33,34,35"/>
  <line x1="357" x2="385" y1="39.5" y2="39.5" class="net_29,30,31,32,33,34,35"/>
  <line x1="40" x2="84" y1="34.5" y2="34.5" class="net_5,6,7,8,9,10,11,12"/>
  <line x1="40" x2="52" y1="99.5" y2="99.5" class="net_2,3,4"/>
  <line x1="52" x2="52" y1="99.5" y2="54.5" class="net_2,3,4"/>
  <line x1="52" x2="84" y1="54.5" y2="54.5" class="net_2,3,4"/>
  <line x1="412" x2="447" y1="32" y2="32" class="net_13,14,15,16,17,18,19,20"/>
  <line x1="115" x2="323" y1="34.5" y2="34.5" class="net_21,22,23,24,25,26,27,28,29,30,31,32,33,34,35"/>
</svg>
