<svg style="background:white" xmlns="http://www.w3.org/2000/svg" xmlns:xlink="http://www.w3.org/1999/xlink" xmlns:s="https://github.com/nturley/netlistsvg" width="609" height="482">
  <style>svg {
    stroke:#000;
    fill:none;
  }
  text {
    fill:#000;
    stroke:none;
    font-size:10px;
    font-weight: bold;
    font-family: "Courier New", monospace;
  }
  .nodelabel {
    text-anchor: middle;
  }
  .inputPortLabel {
    text-anchor: end;
  }
  .splitjoinBody {
    fill:#000;
  }</style>
  <g s:type="and" transform="translate(442,27.5)" s:width="30" s:height="25" id="cell_$and$.yosys_tmp/dec4to16.sv:11$1">
    <s:alias val="$and"/>
    <s:alias val="$logic_and"/>
    <s:alias val="$_AND_"/>
    <path d="M0,0 L0,25 L15,25 A15 12.5 0 0 0 15,0 Z" class="cell_$and$.yosys_tmp/dec4to16.sv:11$1"/>
    <g s:x="0" s:y="5" s:pid="A"/>
    <g s:x="0" s:y="20" s:pid="B"/>
    <g s:x="30" s:y="12.5" s:pid="Y"/>
  </g>
  <g s:type="and" transform="translate(442,180.5)" s:width="30" s:height="25" id="cell_$and$.yosys_tmp/dec4to16.sv:12$2">
    <s:alias val="$and"/>
    <s:alias val="$logic_and"/>
    <s:alias val="$_AND_"/>
    <path d="M0,0 L0,25 L15,25 A15 12.5 0 0 0 15,0 Z" class="cell_$and$.yosys_tmp/dec4to16.sv:12$2"/>
    <g s:x="0" s:y="5" s:pid="A"/>
    <g s:x="0" s:y="20" s:pid="B"/>
    <g s:x="30" s:y="12.5" s:pid="Y"/>
  </g>
  <g s:type="and" transform="translate(442,280.5)" s:width="30" s:height="25" id="cell_$and$.yosys_tmp/dec4to16.sv:13$3">
    <s:alias val="$and"/>
    <s:alias val="$logic_and"/>
    <s:alias val="$_AND_"/>
    <path d="M0,0 L0,25 L15,25 A15 12.5 0 0 0 15,0 Z" class="cell_$and$.yosys_tmp/dec4to16.sv:13$3"/>
    <g s:x="0" s:y="5" s:pid="A"/>
    <g s:x="0" s:y="20" s:pid="B"/>
    <g s:x="30" s:y="12.5" s:pid="Y"/>
  </g>
  <g s:type="and" transform="translate(442,380.5)" s:width="30" s:height="25" id="cell_$and$.yosys_tmp/dec4to16.sv:14$4">
    <s:alias val="$and"/>
    <s:alias val="$logic_and"/>
    <s:alias val="$_AND_"/>
    <path d="M0,0 L0,25 L15,25 A15 12.5 0 0 0 15,0 Z" class="cell_$and$.yosys_tmp/dec4to16.sv:14$4"/>
    <g s:x="0" s:y="5" s:pid="A"/>
    <g s:x="0" s:y="20" s:pid="B"/>
    <g s:x="30" s:y="12.5" s:pid="Y"/>
  </g>
  <g s:type="generic" transform="translate(345,22)" s:width="30" s:height="40" id="cell_d0">
    <text x="15" y="-4" class="nodelabel cell_d0" s:attribute="ref">decoder</text>
    <rect width="30" height="20" s:generic="body" class="cell_d0"/>
    <g transform="translate(0,10)" s:x="0" s:y="10" s:pid="in0" id="port_d0~d_in">
      <text x="-3" y="-4" class="inputPortLabel cell_d0">d_in</text>
    </g>
    <g transform="translate(30,10)" s:x="30" s:y="10" s:pid="out0" id="port_d0~d_out">
      <text x="5" y="-4" style="fill:#000; stroke:none" class="cell_d0">d_out</text>
    </g>
  </g>
  <g s:type="generic" transform="translate(161,90)" s:width="30" s:height="40" id="cell_d1">
    <text x="15" y="-4" class="nodelabel cell_d1" s:attribute="ref">decoder</text>
    <rect width="30" height="20" s:generic="body" class="cell_d1"/>
    <g transform="translate(0,10)" s:x="0" s:y="10" s:pid="in0" id="port_d1~d_in">
      <text x="-3" y="-4" class="inputPortLabel cell_d1">d_in</text>
    </g>
    <g transform="translate(30,10)" s:x="30" s:y="10" s:pid="out0" id="port_d1~d_out">
      <text x="5" y="-4" style="fill:#000; stroke:none" class="cell_d1">d_out</text>
    </g>
  </g>
  <g s:type="inputExt" transform="translate(12,32.5)" s:width="30" s:height="20" id="cell_a">
    <text x="15" y="-4" class="nodelabel cell_a" s:attribute="ref">a</text>
    <s:alias val="$_inputExt_"/>
    <path d="M0,0 L0,20 L15,20 L30,10 L15,0 Z" class="cell_a"/>
    <g s:x="28" s:y="10" s:pid="Y"/>
  </g>
  <g s:type="outputExt" transform="translate(567,173)" s:width="30" s:height="20" id="cell_b">
    <text x="15" y="-4" class="nodelabel cell_b" s:attribute="ref">b</text>
    <s:alias val="$_outputExt_"/>
    <path d="M30,0 L30,20 L15,20 L0,10 L15,0 Z" class="cell_b"/>
    <g s:x="0" s:y="10" s:pid="A"/>
  </g>
  <g s:type="join" transform="translate(353.25,80)" s:width="4" s:height="40" id="cell_$join$,26,26,26,26,">
    <rect width="5" height="80" class="splitjoinBody" s:generic="body"/>
    <s:alias val="$_join_"/>
    <g s:x="5" s:y="20" s:pid="out"/>
    <g transform="translate(0,10)" s:x="0" s:y="10" s:pid="in0">
      <text x="-3" y="-4" class="inputPortLabel">0</text>
    </g>
    <g transform="translate(0,30)" s:x="0" s:y="10" s:pid="in0">
      <text x="-3" y="-4" class="inputPortLabel">1</text>
    </g>
    <g transform="translate(0,50)" s:x="0" s:y="10" s:pid="in0">
      <text x="-3" y="-4" class="inputPortLabel">2</text>
    </g>
    <g transform="translate(0,70)" s:x="0" s:y="10" s:pid="in0">
      <text x="-3" y="-4" class="inputPortLabel">3</text>
    </g>
  </g>
  <g s:type="join" transform="translate(353.25,180)" s:width="4" s:height="40" id="cell_$join$,27,27,27,27,">
    <rect width="5" height="80" class="splitjoinBody" s:generic="body"/>
    <s:alias val="$_join_"/>
    <g s:x="5" s:y="20" s:pid="out"/>
    <g transform="translate(0,10)" s:x="0" s:y="10" s:pid="in0">
      <text x="-3" y="-4" class="inputPortLabel">0</text>
    </g>
    <g transform="translate(0,30)" s:x="0" s:y="10" s:pid="in0">
      <text x="-3" y="-4" class="inputPortLabel">1</text>
    </g>
    <g transform="translate(0,50)" s:x="0" s:y="10" s:pid="in0">
      <text x="-3" y="-4" class="inputPortLabel">2</text>
    </g>
    <g transform="translate(0,70)" s:x="0" s:y="10" s:pid="in0">
      <text x="-3" y="-4" class="inputPortLabel">3</text>
    </g>
  </g>
  <g s:type="join" transform="translate(353.25,280)" s:width="4" s:height="40" id="cell_$join$,28,28,28,28,">
    <rect width="5" height="80" class="splitjoinBody" s:generic="body"/>
    <s:alias val="$_join_"/>
    <g s:x="5" s:y="20" s:pid="out"/>
    <g transform="translate(0,10)" s:x="0" s:y="10" s:pid="in0">
      <text x="-3" y="-4" class="inputPortLabel">0</text>
    </g>
    <g transform="translate(0,30)" s:x="0" s:y="10" s:pid="in0">
      <text x="-3" y="-4" class="inputPortLabel">1</text>
    </g>
    <g transform="translate(0,50)" s:x="0" s:y="10" s:pid="in0">
      <text x="-3" y="-4" class="inputPortLabel">2</text>
    </g>
    <g transform="translate(0,70)" s:x="0" s:y="10" s:pid="in0">
      <text x="-3" y="-4" class="inputPortLabel">3</text>
    </g>
  </g>
  <g s:type="join" transform="translate(353.25,380)" s:width="4" s:height="40" id="cell_$join$,29,29,29,29,">
    <rect width="5" height="80" class="splitjoinBody" s:generic="body"/>
    <s:alias val="$_join_"/>
    <g s:x="5" s:y="20" s:pid="out"/>
    <g transform="translate(0,10)" s:x="0" s:y="10" s:pid="in0">
      <text x="-3" y="-4" class="inputPortLabel">0</text>
    </g>
    <g transform="translate(0,30)" s:x="0" s:y="10" s:pid="in0">
      <text x="-3" y="-4" class="inputPortLabel">1</text>
    </g>
    <g transform="translate(0,50)" s:x="0" s:y="10" s:pid="in0">
      <text x="-3" y="-4" class="inputPortLabel">2</text>
    </g>
    <g transform="translate(0,70)" s:x="0" s:y="10" s:pid="in0">
      <text x="-3" y="-4" class="inputPortLabel">3</text>
    </g>
  </g>
  <g s:type="join" transform="translate(526,162.5)" s:width="4" s:height="40" id="cell_$join$,6,7,8,9,10,11,12,13,14,15,16,17,18,19,20,21,">
    <rect width="5" height="80" class="splitjoinBody" s:generic="body"/>
    <s:alias val="$_join_"/>
    <g s:x="5" s:y="20" s:pid="out"/>
    <g transform="translate(0,10)" s:x="0" s:y="10" s:pid="in0">
      <text x="-3" y="-4" class="inputPortLabel">0:3</text>
    </g>
    <g transform="translate(0,30)" s:x="0" s:y="10" s:pid="in0">
      <text x="-3" y="-4" class="inputPortLabel">4:7</text>
    </g>
    <g transform="translate(0,50)" s:x="0" s:y="10" s:pid="in0">
      <text x="-3" y="-4" class="inputPortLabel">8:11</text>
    </g>
    <g transform="translate(0,70)" s:x="0" s:y="10" s:pid="in0">
      <text x="-3" y="-4" class="inputPortLabel">12:15</text>
    </g>
  </g>
  <g s:type="split" transform="translate(258,80)" s:width="5" s:height="40" id="cell_$split$,26,27,28,29,">
    <rect width="5" height="80" class="splitjoinBody" s:generic="body"/>
    <s:alias val="$_split_"/>
    <g s:x="0" s:y="20" s:pid="in"/>
    <g transform="translate(4,10)" s:x="4" s:y="10" s:pid="out0">
      <text x="5" y="-4">0</text>
    </g>
    <g transform="translate(4,30)" s:x="4" s:y="10" s:pid="out0">
      <text x="5" y="-4">1</text>
    </g>
    <g transform="translate(4,50)" s:x="4" s:y="10" s:pid="out0">
      <text x="5" y="-4">2</text>
    </g>
    <g transform="translate(4,70)" s:x="4" s:y="10" s:pid="out0">
      <text x="5" y="-4">3</text>
    </g>
  </g>
  <g s:type="split" transform="translate(77,22)" s:width="5" s:height="40" id="cell_$split$,2,3,4,5,">
    <rect width="5" height="40" class="splitjoinBody" s:generic="body"/>
    <s:alias val="$_split_"/>
    <g s:x="0" s:y="20" s:pid="in"/>
    <g transform="translate(4,10)" s:x="4" s:y="10" s:pid="out0">
      <text x="5" y="-4">0:1</text>
    </g>
    <g transform="translate(4,30)" s:x="4" s:y="10" s:pid="out0">
      <text x="5" y="-4">2:3</text>
    </g>
  </g>
  <line x1="376" x2="442" y1="32.5" y2="32.5" class="net_22,23,24,25"/>
  <line x1="376" x2="427" y1="32.5" y2="32.5" class="net_22,23,24,25"/>
  <line x1="427" x2="427" y1="32.5" y2="185.5" class="net_22,23,24,25"/>
  <circle cx="427" cy="32.5" r="2" style="fill:#000" class="net_22,23,24,25"/>
  <circle cx="427" cy="185.5" r="2" style="fill:#000" class="net_22,23,24,25"/>
  <line x1="427" x2="442" y1="185.5" y2="185.5" class="net_22,23,24,25"/>
  <line x1="376" x2="427" y1="32.5" y2="32.5" class="net_22,23,24,25"/>
  <line x1="427" x2="427" y1="32.5" y2="285.5" class="net_22,23,24,25"/>
  <circle cx="427" cy="285.5" r="2" style="fill:#000" class="net_22,23,24,25"/>
  <line x1="427" x2="442" y1="285.5" y2="285.5" class="net_22,23,24,25"/>
  <line x1="376" x2="427" y1="32.5" y2="32.5" class="net_22,23,24,25"/>
  <line x1="427" x2="427" y1="32.5" y2="385.5" class="net_22,23,24,25"/>
  <line x1="427" x2="442" y1="385.5" y2="385.5" class="net_22,23,24,25"/>
  <line x1="359.25" x2="417" y1="100.5" y2="100.5" class="net_26,26,26,26"/>
  <line x1="417" x2="417" y1="100.5" y2="47.5" class="net_26,26,26,26"/>
  <line x1="417" x2="442" y1="47.5" y2="47.5" class="net_26,26,26,26"/>
  <line x1="359.25" x2="442" y1="200.5" y2="200.5" class="net_27,27,27,27"/>
  <line x1="359.25" x2="442" y1="300.5" y2="300.5" class="net_28,28,28,28"/>
  <line x1="359.25" x2="442" y1="400.5" y2="400.5" class="net_29,29,29,29"/>
  <line x1="82" x2="345" y1="32.5" y2="32.5" class="net_2,3"/>
  <line x1="82" x2="111" y1="52.5" y2="52.5" class="net_4,5"/>
  <line x1="111" x2="111" y1="52.5" y2="100.5" class="net_4,5"/>
  <line x1="111" x2="161" y1="100.5" y2="100.5" class="net_4,5"/>
  <line x1="532" x2="567" y1="183" y2="183" class="net_6,7,8,9,10,11,12,13,14,15,16,17,18,19,20,21"/>
  <line x1="263" x2="353.25" y1="90.5" y2="90.5" class="net_26"/>
  <line x1="263" x2="310" y1="90.5" y2="90.5" class="net_26"/>
  <line x1="310" x2="310" y1="90.5" y2="110.5" class="net_26"/>
  <circle cx="310" cy="90.5" r="2" style="fill:#000" class="net_26"/>
  <circle cx="310" cy="110.5" r="2" style="fill:#000" class="net_26"/>
  <line x1="310" x2="353.25" y1="110.5" y2="110.5" class="net_26"/>
  <line x1="263" x2="310" y1="90.5" y2="90.5" class="net_26"/>
  <line x1="310" x2="310" y1="90.5" y2="130.5" class="net_26"/>
  <circle cx="310" cy="130.5" r="2" style="fill:#000" class="net_26"/>
  <line x1="310" x2="353.25" y1="130.5" y2="130.5" class="net_26"/>
  <line x1="263" x2="310" y1="90.5" y2="90.5" class="net_26"/>
  <line x1="310" x2="310" y1="90.5" y2="170" class="net_26"/>
  <line x1="310" x2="353.75" y1="170" y2="170" class="net_26"/>
  <line x1="353.75" x2="353.75" y1="170" y2="151" class="net_26"/>
  <line x1="263" x2="300" y1="110.5" y2="110.5" class="net_27"/>
  <line x1="300" x2="300" y1="110.5" y2="190.5" class="net_27"/>
  <circle cx="300" cy="190.5" r="2" style="fill:#000" class="net_27"/>
  <line x1="300" x2="353.25" y1="190.5" y2="190.5" class="net_27"/>
  <line x1="263" x2="300" y1="110.5" y2="110.5" class="net_27"/>
  <line x1="300" x2="300" y1="110.5" y2="210.5" class="net_27"/>
  <circle cx="300" cy="210.5" r="2" style="fill:#000" class="net_27"/>
  <line x1="300" x2="353.25" y1="210.5" y2="210.5" class="net_27"/>
  <line x1="263" x2="300" y1="110.5" y2="110.5" class="net_27"/>
  <line x1="300" x2="300" y1="110.5" y2="230.5" class="net_27"/>
  <circle cx="300" cy="230.5" r="2" style="fill:#000" class="net_27"/>
  <line x1="300" x2="353.25" y1="230.5" y2="230.5" class="net_27"/>
  <line x1="263" x2="300" y1="110.5" y2="110.5" class="net_27"/>
  <line x1="300" x2="300" y1="110.5" y2="270" class="net_27"/>
  <line x1="300" x2="353.75" y1="270" y2="270" class="net_27"/>
  <line x1="353.75" x2="353.75" y1="270" y2="251" class="net_27"/>
  <line x1="263" x2="290" y1="130.5" y2="130.5" class="net_28"/>
  <line x1="290" x2="290" y1="130.5" y2="290.5" class="net_28"/>
  <circle cx="290" cy="290.5" r="2" style="fill:#000" class="net_28"/>
  <line x1="290" x2="353.25" y1="290.5" y2="290.5" class="net_28"/>
  <line x1="263" x2="290" y1="130.5" y2="130.5" class="net_28"/>
  <line x1="290" x2="290" y1="130.5" y2="310.5" class="net_28"/>
  <circle cx="290" cy="310.5" r="2" style="fill:#000" class="net_28"/>
  <line x1="290" x2="353.25" y1="310.5" y2="310.5" class="net_28"/>
  <line x1="263" x2="290" y1="130.5" y2="130.5" class="net_28"/>
  <line x1="290" x2="290" y1="130.5" y2="330.5" class="net_28"/>
  <circle cx="290" cy="330.5" r="2" style="fill:#000" class="net_28"/>
  <line x1="290" x2="353.25" y1="330.5" y2="330.5" class="net_28"/>
  <line x1="263" x2="290" y1="130.5" y2="130.5" class="net_28"/>
  <line x1="290" x2="290" y1="130.5" y2="370" class="net_28"/>
  <line x1="290" x2="353.75" y1="370" y2="370" class="net_28"/>
  <line x1="353.75" x2="353.75" y1="370" y2="351" class="net_28"/>
  <line x1="263" x2="280" y1="150.5" y2="150.5" class="net_29"/>
  <line x1="280" x2="280" y1="150.5" y2="390.5" class="net_29"/>
  <circle cx="280" cy="390.5" r="2" style="fill:#000" class="net_29"/>
  <line x1="280" x2="353.25" y1="390.5" y2="390.5" class="net_29"/>
  <line x1="263" x2="280" y1="150.5" y2="150.5" class="net_29"/>
  <line x1="280" x2="280" y1="150.5" y2="410.5" class="net_29"/>
  <circle cx="280" cy="410.5" r="2" style="fill:#000" class="net_29"/>
  <line x1="280" x2="353.25" y1="410.5" y2="410.5" class="net_29"/>
  <line x1="263" x2="280" y1="150.5" y2="150.5" class="net_29"/>
  <line x1="280" x2="280" y1="150.5" y2="430.5" class="net_29"/>
  <circle cx="280" cy="430.5" r="2" style="fill:#000" class="net_29"/>
  <line x1="280" x2="353.25" y1="430.5" y2="430.5" class="net_29"/>
  <line x1="263" x2="280" y1="150.5" y2="150.5" class="net_29"/>
  <line x1="280" x2="280" y1="150.5" y2="470" class="net_29"/>
  <line x1="280" x2="353.75" y1="470" y2="470" class="net_29"/>
  <line x1="353.75" x2="353.75" y1="470" y2="451" class="net_29"/>
  <line x1="472" x2="482" y1="40" y2="40" class="net_6,7,8,9"/>
  <line x1="482" x2="482" y1="40" y2="173" class="net_6,7,8,9"/>
  <line x1="482" x2="526" y1="173" y2="173" class="net_6,7,8,9"/>
  <line x1="472" x2="526" y1="193" y2="193" class="net_10,11,12,13"/>
  <line x1="472" x2="482" y1="293" y2="293" class="net_14,15,16,17"/>
  <line x1="482" x2="482" y1="293" y2="213" class="net_14,15,16,17"/>
  <line x1="482" x2="526" y1="213" y2="213" class="net_14,15,16,17"/>
  <line x1="472" x2="526.5" y1="393" y2="393" class="net_18,19,20,21"/>
  <line x1="526.5" x2="526.5" y1="393" y2="233.5" class="net_18,19,20,21"/>
  <line x1="192" x2="258" y1="100.5" y2="100.5" class="net_26,27,28,29"/>
  <line x1="40" x2="77" y1="42.5" y2="42.5" class="net_2,3,4,5"/>
</svg>
