<svg style="background:white" xmlns="http://www.w3.org/2000/svg" xmlns:xlink="http://www.w3.org/1999/xlink" xmlns:s="https://github.com/nturley/netlistsvg" width="626" height="415">
  <style>svg {
    stroke:#000;
    fill:none;
  }
  text {
    fill:#000;
    stroke:none;
    font-size:10px;
    font-weight: bold;
    font-family: "Courier New", monospace;
  }
  .nodelabel {
    text-anchor: middle;
  }
  .inputPortLabel {
    text-anchor: end;
  }
  .splitjoinBody {
    fill:#000;
  }</style>
  <g s:type="or" transform="translate(303.3333333333333,19.5)" s:width="30" s:height="25" id="cell_$or$.yosys_tmp/Enc164.sv:13$1">
    <s:alias val="$or"/>
    <s:alias val="$logic_or"/>
    <s:alias val="$_OR_"/>
    <path d="M0,25 L0,25 L15,25 A15 12.5 0 0 0 15,0 L0,0" class="cell_$or$.yosys_tmp/Enc164.sv:13$1"/>
    <path d="M0,0 A30 25 0 0 1 0,25" class="cell_$or$.yosys_tmp/Enc164.sv:13$1"/>
    <g s:x="3" s:y="5" s:pid="A"/>
    <g s:x="3" s:y="20" s:pid="B"/>
    <g s:x="30" s:y="12.5" s:pid="Y"/>
  </g>
  <g s:type="or" transform="translate(391,27)" s:width="30" s:height="25" id="cell_$or$.yosys_tmp/Enc164.sv:13$2">
    <s:alias val="$or"/>
    <s:alias val="$logic_or"/>
    <s:alias val="$_OR_"/>
    <path d="M0,25 L0,25 L15,25 A15 12.5 0 0 0 15,0 L0,0" class="cell_$or$.yosys_tmp/Enc164.sv:13$2"/>
    <path d="M0,0 A30 25 0 0 1 0,25" class="cell_$or$.yosys_tmp/Enc164.sv:13$2"/>
    <g s:x="3" s:y="5" s:pid="A"/>
    <g s:x="3" s:y="20" s:pid="B"/>
    <g s:x="30" s:y="12.5" s:pid="Y"/>
  </g>
  <g s:type="or" transform="translate(463.3333333333333,34.5)" s:width="30" s:height="25" id="cell_$or$.yosys_tmp/Enc164.sv:13$3">
    <s:alias val="$or"/>
    <s:alias val="$logic_or"/>
    <s:alias val="$_OR_"/>
    <path d="M0,25 L0,25 L15,25 A15 12.5 0 0 0 15,0 L0,0" class="cell_$or$.yosys_tmp/Enc164.sv:13$3"/>
    <path d="M0,0 A30 25 0 0 1 0,25" class="cell_$or$.yosys_tmp/Enc164.sv:13$3"/>
    <g s:x="3" s:y="5" s:pid="A"/>
    <g s:x="3" s:y="20" s:pid="B"/>
    <g s:x="30" s:y="12.5" s:pid="Y"/>
  </g>
  <g s:type="or" transform="translate(303.3333333333333,112.5)" s:width="30" s:height="25" id="cell_$or$.yosys_tmp/Enc164.sv:14$4">
    <s:alias val="$or"/>
    <s:alias val="$logic_or"/>
    <s:alias val="$_OR_"/>
    <path d="M0,25 L0,25 L15,25 A15 12.5 0 0 0 15,0 L0,0" class="cell_$or$.yosys_tmp/Enc164.sv:14$4"/>
    <path d="M0,0 A30 25 0 0 1 0,25" class="cell_$or$.yosys_tmp/Enc164.sv:14$4"/>
    <g s:x="3" s:y="5" s:pid="A"/>
    <g s:x="3" s:y="20" s:pid="B"/>
    <g s:x="30" s:y="12.5" s:pid="Y"/>
  </g>
  <g s:type="or" transform="translate(391,120)" s:width="30" s:height="25" id="cell_$or$.yosys_tmp/Enc164.sv:14$5">
    <s:alias val="$or"/>
    <s:alias val="$logic_or"/>
    <s:alias val="$_OR_"/>
    <path d="M0,25 L0,25 L15,25 A15 12.5 0 0 0 15,0 L0,0" class="cell_$or$.yosys_tmp/Enc164.sv:14$5"/>
    <path d="M0,0 A30 25 0 0 1 0,25" class="cell_$or$.yosys_tmp/Enc164.sv:14$5"/>
    <g s:x="3" s:y="5" s:pid="A"/>
    <g s:x="3" s:y="20" s:pid="B"/>
    <g s:x="30" s:y="12.5" s:pid="Y"/>
  </g>
  <g s:type="or" transform="translate(463.3333333333333,127.5)" s:width="30" s:height="25" id="cell_$or$.yosys_tmp/Enc164.sv:14$6">
    <s:alias val="$or"/>
    <s:alias val="$logic_or"/>
    <s:alias val="$_OR_"/>
    <path d="M0,25 L0,25 L15,25 A15 12.5 0 0 0 15,0 L0,0" class="cell_$or$.yosys_tmp/Enc164.sv:14$6"/>
    <path d="M0,0 A30 25 0 0 1 0,25" class="cell_$or$.yosys_tmp/Enc164.sv:14$6"/>
    <g s:x="3" s:y="5" s:pid="A"/>
    <g s:x="3" s:y="20" s:pid="B"/>
    <g s:x="30" s:y="12.5" s:pid="Y"/>
  </g>
  <g s:type="generic" transform="translate(143,24)" s:width="30" s:height="40" id="cell_e0">
    <text x="15" y="-4" class="nodelabel cell_e0" s:attribute="ref">Enc42a</text>
    <rect width="30" height="40" s:generic="body" class="cell_e0"/>
    <g transform="translate(0,10)" s:x="0" s:y="10" s:pid="in0" id="port_e0~a">
      <text x="-3" y="-4" class="inputPortLabel cell_e0">a</text>
    </g>
    <g transform="translate(30,10)" s:x="30" s:y="10" s:pid="out0" id="port_e0~b">
      <text x="5" y="-4" style="fill:#000; stroke:none" class="cell_e0">b</text>
    </g>
    <g transform="translate(30,30)" s:x="30" s:y="10" s:pid="out0" id="port_e0~c">
      <text x="5" y="-4" style="fill:#000; stroke:none" class="cell_e0">c</text>
    </g>
  </g>
  <g s:type="generic" transform="translate(143,112)" s:width="30" s:height="40" id="cell_e1">
    <text x="15" y="-4" class="nodelabel cell_e1" s:attribute="ref">Enc42a</text>
    <rect width="30" height="40" s:generic="body" class="cell_e1"/>
    <g transform="translate(0,10)" s:x="0" s:y="10" s:pid="in0" id="port_e1~a">
      <text x="-3" y="-4" class="inputPortLabel cell_e1">a</text>
    </g>
    <g transform="translate(30,10)" s:x="30" s:y="10" s:pid="out0" id="port_e1~b">
      <text x="5" y="-4" style="fill:#000; stroke:none" class="cell_e1">b</text>
    </g>
    <g transform="translate(30,30)" s:x="30" s:y="10" s:pid="out0" id="port_e1~c">
      <text x="5" y="-4" style="fill:#000; stroke:none" class="cell_e1">c</text>
    </g>
  </g>
  <g s:type="generic" transform="translate(223,308.5)" s:width="30" s:height="40" id="cell_e2">
    <text x="15" y="-4" class="nodelabel cell_e2" s:attribute="ref">Enc42a</text>
    <rect width="30" height="40" s:generic="body" class="cell_e2"/>
    <g transform="translate(0,10)" s:x="0" s:y="10" s:pid="in0" id="port_e2~a">
      <text x="-3" y="-4" class="inputPortLabel cell_e2">a</text>
    </g>
    <g transform="translate(30,10)" s:x="30" s:y="10" s:pid="out0" id="port_e2~b">
      <text x="5" y="-4" style="fill:#000; stroke:none" class="cell_e2">b</text>
    </g>
    <g transform="translate(30,30)" s:x="30" s:y="10" s:pid="out0" id="port_e2~c">
      <text x="5" y="-4" style="fill:#000; stroke:none" class="cell_e2">c</text>
    </g>
  </g>
  <g s:type="generic" transform="translate(303,360)" s:width="30" s:height="40" id="cell_e3">
    <text x="15" y="-4" class="nodelabel cell_e3" s:attribute="ref">Enc42a</text>
    <rect width="30" height="40" s:generic="body" class="cell_e3"/>
    <g transform="translate(0,10)" s:x="0" s:y="10" s:pid="in0" id="port_e3~a">
      <text x="-3" y="-4" class="inputPortLabel cell_e3">a</text>
    </g>
    <g transform="translate(30,10)" s:x="30" s:y="10" s:pid="out0" id="port_e3~b">
      <text x="5" y="-4" style="fill:#000; stroke:none" class="cell_e3">b</text>
    </g>
    <g transform="translate(30,30)" s:x="30" s:y="10" s:pid="out0" id="port_e3~c">
      <text x="5" y="-4" style="fill:#000; stroke:none" class="cell_e3">c</text>
    </g>
  </g>
  <g s:type="generic" transform="translate(463,267)" s:width="30" s:height="40" id="cell_e4">
    <text x="15" y="-4" class="nodelabel cell_e4" s:attribute="ref">Enc42</text>
    <rect width="30" height="20" s:generic="body" class="cell_e4"/>
    <g transform="translate(0,10)" s:x="0" s:y="10" s:pid="in0" id="port_e4~a">
      <text x="-3" y="-4" class="inputPortLabel cell_e4">a</text>
    </g>
    <g transform="translate(30,10)" s:x="30" s:y="10" s:pid="out0" id="port_e4~b">
      <text x="5" y="-4" style="fill:#000; stroke:none" class="cell_e4">b</text>
    </g>
  </g>
  <g s:type="inputExt" transform="translate(12,102.5)" s:width="30" s:height="20" id="cell_a">
    <text x="15" y="-4" class="nodelabel cell_a" s:attribute="ref">a</text>
    <s:alias val="$_inputExt_"/>
    <path d="M0,0 L0,20 L15,20 L30,10 L15,0 Z" class="cell_a"/>
    <g s:x="28" s:y="10" s:pid="Y"/>
  </g>
  <g s:type="outputExt" transform="translate(584,27)" s:width="30" s:height="20" id="cell_b">
    <text x="15" y="-4" class="nodelabel cell_b" s:attribute="ref">b</text>
    <s:alias val="$_outputExt_"/>
    <path d="M30,0 L30,20 L15,20 L0,10 L15,0 Z" class="cell_b"/>
    <g s:x="0" s:y="10" s:pid="A"/>
  </g>
  <g s:type="join" transform="translate(401,257)" s:width="4" s:height="40" id="cell_$join$,34,35,36,37,">
    <rect width="5" height="80" class="splitjoinBody" s:generic="body"/>
    <s:alias val="$_join_"/>
    <g s:x="5" s:y="20" s:pid="out"/>
    <g transform="translate(0,10)" s:x="0" s:y="10" s:pid="in0">
      <text x="-3" y="-4" class="inputPortLabel">0</text>
    </g>
    <g transform="translate(0,30)" s:x="0" s:y="10" s:pid="in0">
      <text x="-3" y="-4" class="inputPortLabel">1</text>
    </g>
    <g transform="translate(0,50)" s:x="0" s:y="10" s:pid="in0">
      <text x="-3" y="-4" class="inputPortLabel">2</text>
    </g>
    <g transform="translate(0,70)" s:x="0" s:y="10" s:pid="in0">
      <text x="-3" y="-4" class="inputPortLabel">3</text>
    </g>
  </g>
  <g s:type="join" transform="translate(543,16.5)" s:width="4" s:height="40" id="cell_$join$,18,19,20,21,">
    <rect width="5" height="60" class="splitjoinBody" s:generic="body"/>
    <s:alias val="$_join_"/>
    <g s:x="5" s:y="20" s:pid="out"/>
    <g transform="translate(0,10)" s:x="0" s:y="10" s:pid="in0">
      <text x="-3" y="-4" class="inputPortLabel">0</text>
    </g>
    <g transform="translate(0,30)" s:x="0" s:y="10" s:pid="in0">
      <text x="-3" y="-4" class="inputPortLabel">1</text>
    </g>
    <g transform="translate(0,50)" s:x="0" s:y="10" s:pid="in0">
      <text x="-3" y="-4" class="inputPortLabel">2:3</text>
    </g>
  </g>
  <g s:type="split" transform="translate(240,14)" s:width="5" s:height="40" id="cell_$split$,28,22,">
    <rect width="5" height="40" class="splitjoinBody" s:generic="body"/>
    <s:alias val="$_split_"/>
    <g s:x="0" s:y="20" s:pid="in"/>
    <g transform="translate(4,10)" s:x="4" s:y="10" s:pid="out0">
      <text x="5" y="-4">1</text>
    </g>
    <g transform="translate(4,30)" s:x="4" s:y="10" s:pid="out0">
      <text x="5" y="-4">0</text>
    </g>
  </g>
  <g s:type="split" transform="translate(240,102)" s:width="5" s:height="40" id="cell_$split$,29,23,">
    <rect width="5" height="40" class="splitjoinBody" s:generic="body"/>
    <s:alias val="$_split_"/>
    <g s:x="0" s:y="20" s:pid="in"/>
    <g transform="translate(4,10)" s:x="4" s:y="10" s:pid="out0">
      <text x="5" y="-4">1</text>
    </g>
    <g transform="translate(4,30)" s:x="4" s:y="10" s:pid="out0">
      <text x="5" y="-4">0</text>
    </g>
  </g>
  <g s:type="split" transform="translate(320,174.5)" s:width="5" s:height="40" id="cell_$split$,31,25,">
    <rect width="5" height="40" class="splitjoinBody" s:generic="body"/>
    <s:alias val="$_split_"/>
    <g s:x="0" s:y="20" s:pid="in"/>
    <g transform="translate(4,10)" s:x="4" s:y="10" s:pid="out0">
      <text x="5" y="-4">1</text>
    </g>
    <g transform="translate(4,30)" s:x="4" s:y="10" s:pid="out0">
      <text x="5" y="-4">0</text>
    </g>
  </g>
  <g s:type="split" transform="translate(405.3333333333333,182)" s:width="5" s:height="40" id="cell_$split$,33,27,">
    <rect width="5" height="40" class="splitjoinBody" s:generic="body"/>
    <s:alias val="$_split_"/>
    <g s:x="0" s:y="20" s:pid="in"/>
    <g transform="translate(4,10)" s:x="4" s:y="10" s:pid="out0">
      <text x="5" y="-4">1</text>
    </g>
    <g transform="translate(4,30)" s:x="4" s:y="10" s:pid="out0">
      <text x="5" y="-4">0</text>
    </g>
  </g>
  <g s:type="split" transform="translate(77,92)" s:width="5" s:height="40" id="cell_$split$,2,3,4,5,6,7,8,9,10,11,12,13,14,15,16,17,">
    <rect width="5" height="80" class="splitjoinBody" s:generic="body"/>
    <s:alias val="$_split_"/>
    <g s:x="0" s:y="20" s:pid="in"/>
    <g transform="translate(4,10)" s:x="4" s:y="10" s:pid="out0">
      <text x="5" y="-4">0:3</text>
    </g>
    <g transform="translate(4,30)" s:x="4" s:y="10" s:pid="out0">
      <text x="5" y="-4">4:7</text>
    </g>
    <g transform="translate(4,50)" s:x="4" s:y="10" s:pid="out0">
      <text x="5" y="-4">8:11</text>
    </g>
    <g transform="translate(4,70)" s:x="4" s:y="10" s:pid="out0">
      <text x="5" y="-4">12:15</text>
    </g>
  </g>
  <line x1="245" x2="306.3333333333333" y1="24.5" y2="24.5" class="net_22"/>
  <line x1="245" x2="271" y1="112.5" y2="112.5" class="net_23"/>
  <line x1="271" x2="271" y1="112.5" y2="39.5" class="net_23"/>
  <line x1="271" x2="306.3333333333333" y1="39.5" y2="39.5" class="net_23"/>
  <line x1="333.3333333333333" x2="394" y1="32" y2="32" class="net_24"/>
  <line x1="325" x2="351" y1="185" y2="185" class="net_25"/>
  <line x1="351" x2="351" y1="185" y2="47" class="net_25"/>
  <line x1="351" x2="394" y1="47" y2="47" class="net_25"/>
  <line x1="421" x2="466.3333333333333" y1="39.5" y2="39.5" class="net_26"/>
  <line x1="410.3333333333333" x2="431" y1="192.5" y2="192.5" class="net_27"/>
  <line x1="431" x2="431" y1="192.5" y2="54.5" class="net_27"/>
  <line x1="431" x2="466.3333333333333" y1="54.5" y2="54.5" class="net_27"/>
  <line x1="245" x2="281" y1="44.5" y2="44.5" class="net_28"/>
  <line x1="281" x2="281" y1="44.5" y2="117.5" class="net_28"/>
  <line x1="281" x2="306.3333333333333" y1="117.5" y2="117.5" class="net_28"/>
  <line x1="245" x2="306.3333333333333" y1="132.5" y2="132.5" class="net_29"/>
  <line x1="333.3333333333333" x2="394" y1="125" y2="125" class="net_30"/>
  <line x1="325" x2="361" y1="205" y2="205" class="net_31"/>
  <line x1="361" x2="361" y1="205" y2="140" class="net_31"/>
  <line x1="361" x2="394" y1="140" y2="140" class="net_31"/>
  <line x1="421" x2="466.3333333333333" y1="132.5" y2="132.5" class="net_32"/>
  <line x1="410.3333333333333" x2="441" y1="212.5" y2="212.5" class="net_33"/>
  <line x1="441" x2="441" y1="212.5" y2="147.5" class="net_33"/>
  <line x1="441" x2="466.3333333333333" y1="147.5" y2="147.5" class="net_33"/>
  <line x1="82" x2="111" y1="102.5" y2="102.5" class="net_2,3,4,5"/>
  <line x1="111" x2="111" y1="102.5" y2="34.5" class="net_2,3,4,5"/>
  <line x1="111" x2="143" y1="34.5" y2="34.5" class="net_2,3,4,5"/>
  <line x1="82" x2="143" y1="122.5" y2="122.5" class="net_6,7,8,9"/>
  <line x1="82" x2="121" y1="142.5" y2="142.5" class="net_10,11,12,13"/>
  <line x1="121" x2="121" y1="142.5" y2="319" class="net_10,11,12,13"/>
  <line x1="121" x2="223" y1="319" y2="319" class="net_10,11,12,13"/>
  <line x1="82" x2="111" y1="162.5" y2="162.5" class="net_14,15,16,17"/>
  <line x1="111" x2="111" y1="162.5" y2="370.5" class="net_14,15,16,17"/>
  <line x1="111" x2="303" y1="370.5" y2="370.5" class="net_14,15,16,17"/>
  <line x1="407" x2="463" y1="277.5" y2="277.5" class="net_34,35,36,37"/>
  <line x1="549" x2="584" y1="37" y2="37" class="net_18,19,20,21"/>
  <line x1="174" x2="201" y1="54.5" y2="54.5" class="net_34"/>
  <line x1="201" x2="201" y1="54.5" y2="267.5" class="net_34"/>
  <line x1="201" x2="401" y1="267.5" y2="267.5" class="net_34"/>
  <line x1="174" x2="191" y1="142.5" y2="142.5" class="net_35"/>
  <line x1="191" x2="191" y1="142.5" y2="287.5" class="net_35"/>
  <line x1="191" x2="401" y1="287.5" y2="287.5" class="net_35"/>
  <line x1="254" x2="381" y1="339" y2="339" class="net_36"/>
  <line x1="381" x2="381" y1="339" y2="307.5" class="net_36"/>
  <line x1="381" x2="401" y1="307.5" y2="307.5" class="net_36"/>
  <line x1="334" x2="401.5" y1="390.5" y2="390.5" class="net_37"/>
  <line x1="401.5" x2="401.5" y1="390.5" y2="328" class="net_37"/>
  <line x1="493.3333333333333" x2="511" y1="140" y2="140" class="net_18"/>
  <line x1="511" x2="511" y1="140" y2="27" class="net_18"/>
  <line x1="511" x2="543" y1="27" y2="27" class="net_18"/>
  <line x1="493.3333333333333" x2="543" y1="47" y2="47" class="net_19"/>
  <line x1="494" x2="521" y1="277.5" y2="277.5" class="net_20,21"/>
  <line x1="521" x2="521" y1="277.5" y2="67" class="net_20,21"/>
  <line x1="521" x2="543" y1="67" y2="67" class="net_20,21"/>
  <line x1="174" x2="240" y1="34.5" y2="34.5" class="net_28,22"/>
  <line x1="174" x2="240" y1="122.5" y2="122.5" class="net_29,23"/>
  <line x1="254" x2="271" y1="319" y2="319" class="net_31,25"/>
  <line x1="271" x2="271" y1="319" y2="195" class="net_31,25"/>
  <line x1="271" x2="320" y1="195" y2="195" class="net_31,25"/>
  <line x1="334" x2="371" y1="370.5" y2="370.5" class="net_33,27"/>
  <line x1="371" x2="371" y1="370.5" y2="202.5" class="net_33,27"/>
  <line x1="371" x2="405.3333333333333" y1="202.5" y2="202.5" class="net_33,27"/>
  <line x1="40" x2="77" y1="112.5" y2="112.5" class="net_2,3,4,5,6,7,8,9,10,11,12,13,14,15,16,17"/>
</svg>
