<svg style="background:white" xmlns="http://www.w3.org/2000/svg" xmlns:xlink="http://www.w3.org/1999/xlink" xmlns:s="https://github.com/nturley/netlistsvg" width="483" height="139.5">
  <style>svg {
    stroke:#000;
    fill:none;
  }
  text {
    fill:#000;
    stroke:none;
    font-size:10px;
    font-weight: bold;
    font-family: "Courier New", monospace;
  }
  .nodelabel {
    text-anchor: middle;
  }
  .inputPortLabel {
    text-anchor: end;
  }
  .splitjoinBody {
    fill:#000;
  }</style>
  <g s:type="or" transform="translate(124,17.5)" s:width="30" s:height="25" id="cell_$or$.yosys_tmp/Enc42a.sv:7$3">
    <s:alias val="$or"/>
    <s:alias val="$logic_or"/>
    <s:alias val="$_OR_"/>
    <path d="M0,25 L0,25 L15,25 A15 12.5 0 0 0 15,0 L0,0" class="cell_$or$.yosys_tmp/Enc42a.sv:7$3"/>
    <path d="M0,0 A30 25 0 0 1 0,25" class="cell_$or$.yosys_tmp/Enc42a.sv:7$3"/>
    <g s:x="3" s:y="5" s:pid="A"/>
    <g s:x="3" s:y="20" s:pid="B"/>
    <g s:x="30" s:y="12.5" s:pid="Y"/>
  </g>
  <g s:type="or" transform="translate(124,77.5)" s:width="30" s:height="25" id="cell_$or$.yosys_tmp/Enc42a.sv:7$4">
    <s:alias val="$or"/>
    <s:alias val="$logic_or"/>
    <s:alias val="$_OR_"/>
    <path d="M0,25 L0,25 L15,25 A15 12.5 0 0 0 15,0 L0,0" class="cell_$or$.yosys_tmp/Enc42a.sv:7$4"/>
    <path d="M0,0 A30 25 0 0 1 0,25" class="cell_$or$.yosys_tmp/Enc42a.sv:7$4"/>
    <g s:x="3" s:y="5" s:pid="A"/>
    <g s:x="3" s:y="20" s:pid="B"/>
    <g s:x="30" s:y="12.5" s:pid="Y"/>
  </g>
  <g s:type="generic" transform="translate(196,104.5)" s:width="30" s:height="40" id="cell_$reduce_or$.yosys_tmp/Enc42a.sv:8$5">
    <text x="15" y="-4" class="nodelabel cell_$reduce_or$.yosys_tmp/Enc42a.sv:8$5" s:attribute="ref">$reduce_or</text>
    <rect width="30" height="20" s:generic="body" class="cell_$reduce_or$.yosys_tmp/Enc42a.sv:8$5"/>
    <g transform="translate(0,10)" s:x="0" s:y="10" s:pid="in0" id="port_$reduce_or$.yosys_tmp/Enc42a.sv:8$5~A">
      <text x="-3" y="-4" class="inputPortLabel cell_$reduce_or$.yosys_tmp/Enc42a.sv:8$5">A</text>
    </g>
    <g transform="translate(30,10)" s:x="30" s:y="10" s:pid="out0" id="port_$reduce_or$.yosys_tmp/Enc42a.sv:8$5~Y">
      <text x="5" y="-4" style="fill:#000; stroke:none" class="cell_$reduce_or$.yosys_tmp/Enc42a.sv:8$5">Y</text>
    </g>
  </g>
  <g s:type="inputExt" transform="translate(12,22.5)" s:width="30" s:height="20" id="cell_a">
    <text x="15" y="-4" class="nodelabel cell_a" s:attribute="ref">a</text>
    <s:alias val="$_inputExt_"/>
    <path d="M0,0 L0,20 L15,20 L30,10 L15,0 Z" class="cell_a"/>
    <g s:x="28" s:y="10" s:pid="Y"/>
  </g>
  <g s:type="outputExt" transform="translate(441,30)" s:width="30" s:height="20" id="cell_b">
    <text x="15" y="-4" class="nodelabel cell_b" s:attribute="ref">b</text>
    <s:alias val="$_outputExt_"/>
    <path d="M30,0 L30,20 L15,20 L0,10 L15,0 Z" class="cell_b"/>
    <g s:x="0" s:y="10" s:pid="A"/>
  </g>
  <g s:type="outputExt" transform="translate(441,105)" s:width="30" s:height="20" id="cell_c">
    <text x="15" y="-4" class="nodelabel cell_c" s:attribute="ref">c</text>
    <s:alias val="$_outputExt_"/>
    <path d="M30,0 L30,20 L15,20 L0,10 L15,0 Z" class="cell_c"/>
    <g s:x="0" s:y="10" s:pid="A"/>
  </g>
  <g s:type="join" transform="translate(262.3333333333333,19.5)" s:width="4" s:height="40" id="cell_$join$,6,7,">
    <rect width="5" height="40" class="splitjoinBody" s:generic="body"/>
    <s:alias val="$_join_"/>
    <g s:x="5" s:y="20" s:pid="out"/>
    <g transform="translate(0,10)" s:x="0" s:y="10" s:pid="in0">
      <text x="-3" y="-4" class="inputPortLabel">0</text>
    </g>
    <g transform="translate(0,30)" s:x="0" s:y="10" s:pid="in0">
      <text x="-3" y="-4" class="inputPortLabel">1</text>
    </g>
  </g>
  <g s:type="split" transform="translate(77,12)" s:width="5" s:height="40" id="cell_$split$,2,3,4,5,">
    <rect width="5" height="60" class="splitjoinBody" s:generic="body"/>
    <s:alias val="$_split_"/>
    <g s:x="0" s:y="20" s:pid="in"/>
    <g transform="translate(4,10)" s:x="4" s:y="10" s:pid="out0">
      <text x="5" y="-4">3</text>
    </g>
    <g transform="translate(4,30)" s:x="4" s:y="10" s:pid="out0">
      <text x="5" y="-4">1</text>
    </g>
    <g transform="translate(4,50)" s:x="4" s:y="10" s:pid="out0">
      <text x="5" y="-4">2</text>
    </g>
  </g>
  <line x1="82" x2="127" y1="22.5" y2="22.5" class="net_5"/>
  <line x1="82" x2="109" y1="22.5" y2="22.5" class="net_5"/>
  <line x1="109" x2="109" y1="22.5" y2="82.5" class="net_5"/>
  <circle cx="109" cy="22.5" r="2" style="fill:#000" class="net_5"/>
  <line x1="109" x2="127" y1="82.5" y2="82.5" class="net_5"/>
  <line x1="82" x2="99" y1="42.5" y2="42.5" class="net_3"/>
  <line x1="99" x2="99" y1="42.5" y2="37.5" class="net_3"/>
  <line x1="99" x2="127" y1="37.5" y2="37.5" class="net_3"/>
  <line x1="82" x2="99" y1="62.5" y2="62.5" class="net_4"/>
  <line x1="99" x2="99" y1="62.5" y2="97.5" class="net_4"/>
  <line x1="99" x2="127" y1="97.5" y2="97.5" class="net_4"/>
  <line x1="40" x2="52" y1="32.5" y2="32.5" class="net_2,3,4,5"/>
  <line x1="52" x2="52" y1="32.5" y2="115" class="net_2,3,4,5"/>
  <circle cx="52" cy="32.5" r="2" style="fill:#000" class="net_2,3,4,5"/>
  <line x1="52" x2="196" y1="115" y2="115" class="net_2,3,4,5"/>
  <line x1="40" x2="77" y1="32.5" y2="32.5" class="net_2,3,4,5"/>
  <line x1="268.3333333333333" x2="441" y1="40" y2="40" class="net_6,7"/>
  <line x1="227" x2="441" y1="115" y2="115" class="net_8"/>
  <line x1="154" x2="262.3333333333333" y1="30" y2="30" class="net_6"/>
  <line x1="154" x2="164" y1="90" y2="90" class="net_7"/>
  <line x1="164" x2="164" y1="90" y2="50" class="net_7"/>
  <line x1="164" x2="262.3333333333333" y1="50" y2="50" class="net_7"/>
</svg>
