<svg style="background:white" xmlns="http://www.w3.org/2000/svg" xmlns:xlink="http://www.w3.org/1999/xlink" xmlns:s="https://github.com/nturley/netlistsvg" width="418" height="177.5">
  <style>svg {
    stroke:#000;
    fill:none;
  }
  text {
    fill:#000;
    stroke:none;
    font-size:10px;
    font-weight: bold;
    font-family: "Courier New", monospace;
  }
  .nodelabel {
    text-anchor: middle;
  }
  .inputPortLabel {
    text-anchor: end;
  }
  .splitjoinBody {
    fill:#000;
  }</style>
  <g s:type="or" transform="translate(263,30)" s:width="30" s:height="25" id="cell_$or$.yosys_tmp/Enc83.sv:12$18">
    <s:alias val="$or"/>
    <s:alias val="$logic_or"/>
    <s:alias val="$_OR_"/>
    <path d="M0,25 L0,25 L15,25 A15 12.5 0 0 0 15,0 L0,0" class="cell_$or$.yosys_tmp/Enc83.sv:12$18"/>
    <path d="M0,0 A30 25 0 0 1 0,25" class="cell_$or$.yosys_tmp/Enc83.sv:12$18"/>
    <g s:x="3" s:y="5" s:pid="A"/>
    <g s:x="3" s:y="20" s:pid="B"/>
    <g s:x="30" s:y="12.5" s:pid="Y"/>
  </g>
  <g s:type="or" transform="translate(263,123)" s:width="30" s:height="25" id="cell_$or$.yosys_tmp/Enc83.sv:13$19">
    <s:alias val="$or"/>
    <s:alias val="$logic_or"/>
    <s:alias val="$_OR_"/>
    <path d="M0,25 L0,25 L15,25 A15 12.5 0 0 0 15,0 L0,0" class="cell_$or$.yosys_tmp/Enc83.sv:13$19"/>
    <path d="M0,0 A30 25 0 0 1 0,25" class="cell_$or$.yosys_tmp/Enc83.sv:13$19"/>
    <g s:x="3" s:y="5" s:pid="A"/>
    <g s:x="3" s:y="20" s:pid="B"/>
    <g s:x="30" s:y="12.5" s:pid="Y"/>
  </g>
  <g s:type="generic" transform="translate(143,34.5)" s:width="30" s:height="40" id="cell_higher">
    <text x="15" y="-4" class="nodelabel cell_higher" s:attribute="ref">Enc42a</text>
    <rect width="30" height="40" s:generic="body" class="cell_higher"/>
    <g transform="translate(0,10)" s:x="0" s:y="10" s:pid="in0" id="port_higher~a">
      <text x="-3" y="-4" class="inputPortLabel cell_higher">a</text>
    </g>
    <g transform="translate(30,10)" s:x="30" s:y="10" s:pid="out0" id="port_higher~b">
      <text x="5" y="-4" style="fill:#000; stroke:none" class="cell_higher">b</text>
    </g>
    <g transform="translate(30,30)" s:x="30" s:y="10" s:pid="out0" id="port_higher~c">
      <text x="5" y="-4" style="fill:#000; stroke:none" class="cell_higher">c</text>
    </g>
  </g>
  <g s:type="generic" transform="translate(143,122.5)" s:width="30" s:height="40" id="cell_lower">
    <text x="15" y="-4" class="nodelabel cell_lower" s:attribute="ref">Enc42a</text>
    <rect width="30" height="40" s:generic="body" class="cell_lower"/>
    <g transform="translate(0,10)" s:x="0" s:y="10" s:pid="in0" id="port_lower~a">
      <text x="-3" y="-4" class="inputPortLabel cell_lower">a</text>
    </g>
    <g transform="translate(30,10)" s:x="30" s:y="10" s:pid="out0" id="port_lower~b">
      <text x="5" y="-4" style="fill:#000; stroke:none" class="cell_lower">b</text>
    </g>
    <g transform="translate(30,30)" s:x="30" s:y="10" s:pid="out0" id="port_lower~c">
      <text x="5" y="-4" style="fill:#000; stroke:none" class="cell_lower">c</text>
    </g>
  </g>
  <g s:type="inputExt" transform="translate(12,45)" s:width="30" s:height="20" id="cell_a">
    <text x="15" y="-4" class="nodelabel cell_a" s:attribute="ref">a</text>
    <s:alias val="$_inputExt_"/>
    <path d="M0,0 L0,20 L15,20 L30,10 L15,0 Z" class="cell_a"/>
    <g s:x="28" s:y="10" s:pid="Y"/>
  </g>
  <g s:type="outputExt" transform="translate(376,22.5)" s:width="30" s:height="20" id="cell_b">
    <text x="15" y="-4" class="nodelabel cell_b" s:attribute="ref">b</text>
    <s:alias val="$_outputExt_"/>
    <path d="M30,0 L30,20 L15,20 L0,10 L15,0 Z" class="cell_b"/>
    <g s:x="0" s:y="10" s:pid="A"/>
  </g>
  <g s:type="join" transform="translate(335,12)" s:width="4" s:height="40" id="cell_$join$,10,11,12,">
    <rect width="5" height="60" class="splitjoinBody" s:generic="body"/>
    <s:alias val="$_join_"/>
    <g s:x="5" s:y="20" s:pid="out"/>
    <g transform="translate(0,10)" s:x="0" s:y="10" s:pid="in0">
      <text x="-3" y="-4" class="inputPortLabel">0</text>
    </g>
    <g transform="translate(0,30)" s:x="0" s:y="10" s:pid="in0">
      <text x="-3" y="-4" class="inputPortLabel">1</text>
    </g>
    <g transform="translate(0,50)" s:x="0" s:y="10" s:pid="in0">
      <text x="-3" y="-4" class="inputPortLabel">2</text>
    </g>
  </g>
  <g s:type="split" transform="translate(216,24.5)" s:width="5" s:height="40" id="cell_$split$,15,13,">
    <rect width="5" height="40" class="splitjoinBody" s:generic="body"/>
    <s:alias val="$_split_"/>
    <g s:x="0" s:y="20" s:pid="in"/>
    <g transform="translate(4,10)" s:x="4" s:y="10" s:pid="out0">
      <text x="5" y="-4">1</text>
    </g>
    <g transform="translate(4,30)" s:x="4" s:y="10" s:pid="out0">
      <text x="5" y="-4">0</text>
    </g>
  </g>
  <g s:type="split" transform="translate(216,112.5)" s:width="5" s:height="40" id="cell_$split$,16,14,">
    <rect width="5" height="40" class="splitjoinBody" s:generic="body"/>
    <s:alias val="$_split_"/>
    <g s:x="0" s:y="20" s:pid="in"/>
    <g transform="translate(4,10)" s:x="4" s:y="10" s:pid="out0">
      <text x="5" y="-4">1</text>
    </g>
    <g transform="translate(4,30)" s:x="4" s:y="10" s:pid="out0">
      <text x="5" y="-4">0</text>
    </g>
  </g>
  <g s:type="split" transform="translate(77,34.5)" s:width="5" s:height="40" id="cell_$split$,2,3,4,5,6,7,8,9,">
    <rect width="5" height="40" class="splitjoinBody" s:generic="body"/>
    <s:alias val="$_split_"/>
    <g s:x="0" s:y="20" s:pid="in"/>
    <g transform="translate(4,10)" s:x="4" s:y="10" s:pid="out0">
      <text x="5" y="-4">4:7</text>
    </g>
    <g transform="translate(4,30)" s:x="4" s:y="10" s:pid="out0">
      <text x="5" y="-4">0:3</text>
    </g>
  </g>
  <line x1="221" x2="266" y1="35" y2="35" class="net_13"/>
  <line x1="221" x2="238" y1="123" y2="123" class="net_14"/>
  <line x1="238" x2="238" y1="123" y2="50" class="net_14"/>
  <line x1="238" x2="266" y1="50" y2="50" class="net_14"/>
  <line x1="221" x2="248" y1="55" y2="55" class="net_15"/>
  <line x1="248" x2="248" y1="55" y2="128" class="net_15"/>
  <line x1="248" x2="266" y1="128" y2="128" class="net_15"/>
  <line x1="221" x2="266" y1="143" y2="143" class="net_16"/>
  <line x1="82" x2="143" y1="45" y2="45" class="net_6,7,8,9"/>
  <line x1="82" x2="111" y1="65" y2="65" class="net_2,3,4,5"/>
  <line x1="111" x2="111" y1="65" y2="133" class="net_2,3,4,5"/>
  <line x1="111" x2="143" y1="133" y2="133" class="net_2,3,4,5"/>
  <line x1="341" x2="376" y1="32.5" y2="32.5" class="net_10,11,12"/>
  <line x1="293" x2="303" y1="135.5" y2="135.5" class="net_10"/>
  <line x1="303" x2="303" y1="135.5" y2="22.5" class="net_10"/>
  <line x1="303" x2="335" y1="22.5" y2="22.5" class="net_10"/>
  <line x1="293" x2="335" y1="42.5" y2="42.5" class="net_11"/>
  <line x1="174" x2="191" y1="65" y2="65" class="net_12"/>
  <line x1="191" x2="191" y1="65" y2="162.5" class="net_12"/>
  <line x1="191" x2="313" y1="162.5" y2="162.5" class="net_12"/>
  <line x1="313" x2="313" y1="162.5" y2="62.5" class="net_12"/>
  <line x1="313" x2="335" y1="62.5" y2="62.5" class="net_12"/>
  <line x1="174" x2="216" y1="45" y2="45" class="net_15,13"/>
  <line x1="174" x2="216" y1="133" y2="133" class="net_16,14"/>
  <line x1="40" x2="77" y1="55" y2="55" class="net_2,3,4,5,6,7,8,9"/>
</svg>
