<svg style="background:white" xmlns="http://www.w3.org/2000/svg" xmlns:xlink="http://www.w3.org/1999/xlink" xmlns:s="https://github.com/nturley/netlistsvg" width="1209" height="1038">
  <style>svg {
    stroke:#000;
    fill:none;
  }
  text {
    fill:#000;
    stroke:none;
    font-size:10px;
    font-weight: bold;
    font-family: "Courier New", monospace;
  }
  .nodelabel {
    text-anchor: middle;
  }
  .inputPortLabel {
    text-anchor: end;
  }
  .splitjoinBody {
    fill:#000;
  }</style>
  <g s:type="and" transform="translate(307,996)" s:width="30" s:height="25" id="cell_$and$.yosys_tmp/MagComp.sv:10$26">
    <s:alias val="$and"/>
    <s:alias val="$logic_and"/>
    <s:alias val="$_AND_"/>
    <path d="M0,0 L0,25 L15,25 A15 12.5 0 0 0 15,0 Z" class="cell_$and$.yosys_tmp/MagComp.sv:10$26"/>
    <g s:x="0" s:y="5" s:pid="A"/>
    <g s:x="0" s:y="20" s:pid="B"/>
    <g s:x="30" s:y="12.5" s:pid="Y"/>
  </g>
  <g s:type="and" transform="translate(373,876)" s:width="30" s:height="25" id="cell_$and$.yosys_tmp/MagComp.sv:10$32">
    <s:alias val="$and"/>
    <s:alias val="$logic_and"/>
    <s:alias val="$_AND_"/>
    <path d="M0,0 L0,25 L15,25 A15 12.5 0 0 0 15,0 Z" class="cell_$and$.yosys_tmp/MagComp.sv:10$32"/>
    <g s:x="0" s:y="5" s:pid="A"/>
    <g s:x="0" s:y="20" s:pid="B"/>
    <g s:x="30" s:y="12.5" s:pid="Y"/>
  </g>
  <g s:type="and" transform="translate(373,988.5)" s:width="30" s:height="25" id="cell_$and$.yosys_tmp/MagComp.sv:10$35">
    <s:alias val="$and"/>
    <s:alias val="$logic_and"/>
    <s:alias val="$_AND_"/>
    <path d="M0,0 L0,25 L15,25 A15 12.5 0 0 0 15,0 Z" class="cell_$and$.yosys_tmp/MagComp.sv:10$35"/>
    <g s:x="0" s:y="5" s:pid="A"/>
    <g s:x="0" s:y="20" s:pid="B"/>
    <g s:x="30" s:y="12.5" s:pid="Y"/>
  </g>
  <g s:type="and" transform="translate(506,753.5)" s:width="30" s:height="25" id="cell_$and$.yosys_tmp/MagComp.sv:10$38">
    <s:alias val="$and"/>
    <s:alias val="$logic_and"/>
    <s:alias val="$_AND_"/>
    <path d="M0,0 L0,25 L15,25 A15 12.5 0 0 0 15,0 Z" class="cell_$and$.yosys_tmp/MagComp.sv:10$38"/>
    <g s:x="0" s:y="5" s:pid="A"/>
    <g s:x="0" s:y="20" s:pid="B"/>
    <g s:x="30" s:y="12.5" s:pid="Y"/>
  </g>
  <g s:type="and" transform="translate(506,973.5)" s:width="30" s:height="25" id="cell_$and$.yosys_tmp/MagComp.sv:10$41">
    <s:alias val="$and"/>
    <s:alias val="$logic_and"/>
    <s:alias val="$_AND_"/>
    <path d="M0,0 L0,25 L15,25 A15 12.5 0 0 0 15,0 Z" class="cell_$and$.yosys_tmp/MagComp.sv:10$41"/>
    <g s:x="0" s:y="5" s:pid="A"/>
    <g s:x="0" s:y="20" s:pid="B"/>
    <g s:x="30" s:y="12.5" s:pid="Y"/>
  </g>
  <g s:type="and" transform="translate(639,631)" s:width="30" s:height="25" id="cell_$and$.yosys_tmp/MagComp.sv:10$44">
    <s:alias val="$and"/>
    <s:alias val="$logic_and"/>
    <s:alias val="$_AND_"/>
    <path d="M0,0 L0,25 L15,25 A15 12.5 0 0 0 15,0 Z" class="cell_$and$.yosys_tmp/MagComp.sv:10$44"/>
    <g s:x="0" s:y="5" s:pid="A"/>
    <g s:x="0" s:y="20" s:pid="B"/>
    <g s:x="30" s:y="12.5" s:pid="Y"/>
  </g>
  <g s:type="and" transform="translate(639,958.5)" s:width="30" s:height="25" id="cell_$and$.yosys_tmp/MagComp.sv:10$47">
    <s:alias val="$and"/>
    <s:alias val="$logic_and"/>
    <s:alias val="$_AND_"/>
    <path d="M0,0 L0,25 L15,25 A15 12.5 0 0 0 15,0 Z" class="cell_$and$.yosys_tmp/MagComp.sv:10$47"/>
    <g s:x="0" s:y="5" s:pid="A"/>
    <g s:x="0" s:y="20" s:pid="B"/>
    <g s:x="30" s:y="12.5" s:pid="Y"/>
  </g>
  <g s:type="and" transform="translate(772,508.5)" s:width="30" s:height="25" id="cell_$and$.yosys_tmp/MagComp.sv:10$50">
    <s:alias val="$and"/>
    <s:alias val="$logic_and"/>
    <s:alias val="$_AND_"/>
    <path d="M0,0 L0,25 L15,25 A15 12.5 0 0 0 15,0 Z" class="cell_$and$.yosys_tmp/MagComp.sv:10$50"/>
    <g s:x="0" s:y="5" s:pid="A"/>
    <g s:x="0" s:y="20" s:pid="B"/>
    <g s:x="30" s:y="12.5" s:pid="Y"/>
  </g>
  <g s:type="and" transform="translate(772,943.5)" s:width="30" s:height="25" id="cell_$and$.yosys_tmp/MagComp.sv:10$53">
    <s:alias val="$and"/>
    <s:alias val="$logic_and"/>
    <s:alias val="$_AND_"/>
    <path d="M0,0 L0,25 L15,25 A15 12.5 0 0 0 15,0 Z" class="cell_$and$.yosys_tmp/MagComp.sv:10$53"/>
    <g s:x="0" s:y="5" s:pid="A"/>
    <g s:x="0" s:y="20" s:pid="B"/>
    <g s:x="30" s:y="12.5" s:pid="Y"/>
  </g>
  <g s:type="and" transform="translate(905,386)" s:width="30" s:height="25" id="cell_$and$.yosys_tmp/MagComp.sv:10$56">
    <s:alias val="$and"/>
    <s:alias val="$logic_and"/>
    <s:alias val="$_AND_"/>
    <path d="M0,0 L0,25 L15,25 A15 12.5 0 0 0 15,0 Z" class="cell_$and$.yosys_tmp/MagComp.sv:10$56"/>
    <g s:x="0" s:y="5" s:pid="A"/>
    <g s:x="0" s:y="20" s:pid="B"/>
    <g s:x="30" s:y="12.5" s:pid="Y"/>
  </g>
  <g s:type="and" transform="translate(905,928.5)" s:width="30" s:height="25" id="cell_$and$.yosys_tmp/MagComp.sv:10$59">
    <s:alias val="$and"/>
    <s:alias val="$logic_and"/>
    <s:alias val="$_AND_"/>
    <path d="M0,0 L0,25 L15,25 A15 12.5 0 0 0 15,0 Z" class="cell_$and$.yosys_tmp/MagComp.sv:10$59"/>
    <g s:x="0" s:y="5" s:pid="A"/>
    <g s:x="0" s:y="20" s:pid="B"/>
    <g s:x="30" s:y="12.5" s:pid="Y"/>
  </g>
  <g s:type="and" transform="translate(1037,143)" s:width="30" s:height="25" id="cell_$and$.yosys_tmp/MagComp.sv:10$62">
    <s:alias val="$and"/>
    <s:alias val="$logic_and"/>
    <s:alias val="$_AND_"/>
    <path d="M0,0 L0,25 L15,25 A15 12.5 0 0 0 15,0 Z" class="cell_$and$.yosys_tmp/MagComp.sv:10$62"/>
    <g s:x="0" s:y="5" s:pid="A"/>
    <g s:x="0" s:y="20" s:pid="B"/>
    <g s:x="30" s:y="12.5" s:pid="Y"/>
  </g>
  <g s:type="and" transform="translate(1037,913.5)" s:width="30" s:height="25" id="cell_$and$.yosys_tmp/MagComp.sv:10$65">
    <s:alias val="$and"/>
    <s:alias val="$logic_and"/>
    <s:alias val="$_AND_"/>
    <path d="M0,0 L0,25 L15,25 A15 12.5 0 0 0 15,0 Z" class="cell_$and$.yosys_tmp/MagComp.sv:10$65"/>
    <g s:x="0" s:y="5" s:pid="A"/>
    <g s:x="0" s:y="20" s:pid="B"/>
    <g s:x="30" s:y="12.5" s:pid="Y"/>
  </g>
  <g s:type="not" transform="translate(240.5,1006)" s:width="30" s:height="20" id="cell_$not$.yosys_tmp/MagComp.sv:10$25">
    <s:alias val="$_NOT_"/>
    <s:alias val="$not"/>
    <s:alias val="$logic_not"/>
    <path d="M0,0 L0,20 L20,10 Z" class="cell_$not$.yosys_tmp/MagComp.sv:10$25"/>
    <circle cx="23" cy="10" r="3" class="cell_$not$.yosys_tmp/MagComp.sv:10$25"/>
    <g s:x="0" s:y="10" s:pid="A"/>
    <g s:x="25" s:y="10" s:pid="Y"/>
  </g>
  <g s:type="not" transform="translate(307,886)" s:width="30" s:height="20" id="cell_$not$.yosys_tmp/MagComp.sv:10$31">
    <s:alias val="$_NOT_"/>
    <s:alias val="$not"/>
    <s:alias val="$logic_not"/>
    <path d="M0,0 L0,20 L20,10 Z" class="cell_$not$.yosys_tmp/MagComp.sv:10$31"/>
    <circle cx="23" cy="10" r="3" class="cell_$not$.yosys_tmp/MagComp.sv:10$31"/>
    <g s:x="0" s:y="10" s:pid="A"/>
    <g s:x="25" s:y="10" s:pid="Y"/>
  </g>
  <g s:type="not" transform="translate(307,941)" s:width="30" s:height="20" id="cell_$not$.yosys_tmp/MagComp.sv:10$34">
    <s:alias val="$_NOT_"/>
    <s:alias val="$not"/>
    <s:alias val="$logic_not"/>
    <path d="M0,0 L0,20 L20,10 Z" class="cell_$not$.yosys_tmp/MagComp.sv:10$34"/>
    <circle cx="23" cy="10" r="3" class="cell_$not$.yosys_tmp/MagComp.sv:10$34"/>
    <g s:x="0" s:y="10" s:pid="A"/>
    <g s:x="25" s:y="10" s:pid="Y"/>
  </g>
  <g s:type="not" transform="translate(440,763.5)" s:width="30" s:height="20" id="cell_$not$.yosys_tmp/MagComp.sv:10$37">
    <s:alias val="$_NOT_"/>
    <s:alias val="$not"/>
    <s:alias val="$logic_not"/>
    <path d="M0,0 L0,20 L20,10 Z" class="cell_$not$.yosys_tmp/MagComp.sv:10$37"/>
    <circle cx="23" cy="10" r="3" class="cell_$not$.yosys_tmp/MagComp.sv:10$37"/>
    <g s:x="0" s:y="10" s:pid="A"/>
    <g s:x="25" s:y="10" s:pid="Y"/>
  </g>
  <g s:type="not" transform="translate(440,818.5)" s:width="30" s:height="20" id="cell_$not$.yosys_tmp/MagComp.sv:10$40">
    <s:alias val="$_NOT_"/>
    <s:alias val="$not"/>
    <s:alias val="$logic_not"/>
    <path d="M0,0 L0,20 L20,10 Z" class="cell_$not$.yosys_tmp/MagComp.sv:10$40"/>
    <circle cx="23" cy="10" r="3" class="cell_$not$.yosys_tmp/MagComp.sv:10$40"/>
    <g s:x="0" s:y="10" s:pid="A"/>
    <g s:x="25" s:y="10" s:pid="Y"/>
  </g>
  <g s:type="not" transform="translate(573,641)" s:width="30" s:height="20" id="cell_$not$.yosys_tmp/MagComp.sv:10$43">
    <s:alias val="$_NOT_"/>
    <s:alias val="$not"/>
    <s:alias val="$logic_not"/>
    <path d="M0,0 L0,20 L20,10 Z" class="cell_$not$.yosys_tmp/MagComp.sv:10$43"/>
    <circle cx="23" cy="10" r="3" class="cell_$not$.yosys_tmp/MagComp.sv:10$43"/>
    <g s:x="0" s:y="10" s:pid="A"/>
    <g s:x="25" s:y="10" s:pid="Y"/>
  </g>
  <g s:type="not" transform="translate(573,696)" s:width="30" s:height="20" id="cell_$not$.yosys_tmp/MagComp.sv:10$46">
    <s:alias val="$_NOT_"/>
    <s:alias val="$not"/>
    <s:alias val="$logic_not"/>
    <path d="M0,0 L0,20 L20,10 Z" class="cell_$not$.yosys_tmp/MagComp.sv:10$46"/>
    <circle cx="23" cy="10" r="3" class="cell_$not$.yosys_tmp/MagComp.sv:10$46"/>
    <g s:x="0" s:y="10" s:pid="A"/>
    <g s:x="25" s:y="10" s:pid="Y"/>
  </g>
  <g s:type="not" transform="translate(706,518.5)" s:width="30" s:height="20" id="cell_$not$.yosys_tmp/MagComp.sv:10$49">
    <s:alias val="$_NOT_"/>
    <s:alias val="$not"/>
    <s:alias val="$logic_not"/>
    <path d="M0,0 L0,20 L20,10 Z" class="cell_$not$.yosys_tmp/MagComp.sv:10$49"/>
    <circle cx="23" cy="10" r="3" class="cell_$not$.yosys_tmp/MagComp.sv:10$49"/>
    <g s:x="0" s:y="10" s:pid="A"/>
    <g s:x="25" s:y="10" s:pid="Y"/>
  </g>
  <g s:type="not" transform="translate(706,573.5)" s:width="30" s:height="20" id="cell_$not$.yosys_tmp/MagComp.sv:10$52">
    <s:alias val="$_NOT_"/>
    <s:alias val="$not"/>
    <s:alias val="$logic_not"/>
    <path d="M0,0 L0,20 L20,10 Z" class="cell_$not$.yosys_tmp/MagComp.sv:10$52"/>
    <circle cx="23" cy="10" r="3" class="cell_$not$.yosys_tmp/MagComp.sv:10$52"/>
    <g s:x="0" s:y="10" s:pid="A"/>
    <g s:x="25" s:y="10" s:pid="Y"/>
  </g>
  <g s:type="not" transform="translate(839,396)" s:width="30" s:height="20" id="cell_$not$.yosys_tmp/MagComp.sv:10$55">
    <s:alias val="$_NOT_"/>
    <s:alias val="$not"/>
    <s:alias val="$logic_not"/>
    <path d="M0,0 L0,20 L20,10 Z" class="cell_$not$.yosys_tmp/MagComp.sv:10$55"/>
    <circle cx="23" cy="10" r="3" class="cell_$not$.yosys_tmp/MagComp.sv:10$55"/>
    <g s:x="0" s:y="10" s:pid="A"/>
    <g s:x="25" s:y="10" s:pid="Y"/>
  </g>
  <g s:type="not" transform="translate(839,451)" s:width="30" s:height="20" id="cell_$not$.yosys_tmp/MagComp.sv:10$58">
    <s:alias val="$_NOT_"/>
    <s:alias val="$not"/>
    <s:alias val="$logic_not"/>
    <path d="M0,0 L0,20 L20,10 Z" class="cell_$not$.yosys_tmp/MagComp.sv:10$58"/>
    <circle cx="23" cy="10" r="3" class="cell_$not$.yosys_tmp/MagComp.sv:10$58"/>
    <g s:x="0" s:y="10" s:pid="A"/>
    <g s:x="25" s:y="10" s:pid="Y"/>
  </g>
  <g s:type="not" transform="translate(972,153)" s:width="30" s:height="20" id="cell_$not$.yosys_tmp/MagComp.sv:10$61">
    <s:alias val="$_NOT_"/>
    <s:alias val="$not"/>
    <s:alias val="$logic_not"/>
    <path d="M0,0 L0,20 L20,10 Z" class="cell_$not$.yosys_tmp/MagComp.sv:10$61"/>
    <circle cx="23" cy="10" r="3" class="cell_$not$.yosys_tmp/MagComp.sv:10$61"/>
    <g s:x="0" s:y="10" s:pid="A"/>
    <g s:x="25" s:y="10" s:pid="Y"/>
  </g>
  <g s:type="not" transform="translate(972,328.5)" s:width="30" s:height="20" id="cell_$not$.yosys_tmp/MagComp.sv:10$64">
    <s:alias val="$_NOT_"/>
    <s:alias val="$not"/>
    <s:alias val="$logic_not"/>
    <path d="M0,0 L0,20 L20,10 Z" class="cell_$not$.yosys_tmp/MagComp.sv:10$64"/>
    <circle cx="23" cy="10" r="3" class="cell_$not$.yosys_tmp/MagComp.sv:10$64"/>
    <g s:x="0" s:y="10" s:pid="A"/>
    <g s:x="25" s:y="10" s:pid="Y"/>
  </g>
  <g s:type="or" transform="translate(440,981)" s:width="30" s:height="25" id="cell_$or$.yosys_tmp/MagComp.sv:10$36">
    <s:alias val="$or"/>
    <s:alias val="$logic_or"/>
    <s:alias val="$_OR_"/>
    <path d="M0,25 L0,25 L15,25 A15 12.5 0 0 0 15,0 L0,0" class="cell_$or$.yosys_tmp/MagComp.sv:10$36"/>
    <path d="M0,0 A30 25 0 0 1 0,25" class="cell_$or$.yosys_tmp/MagComp.sv:10$36"/>
    <g s:x="3" s:y="5" s:pid="A"/>
    <g s:x="3" s:y="20" s:pid="B"/>
    <g s:x="30" s:y="12.5" s:pid="Y"/>
  </g>
  <g s:type="or" transform="translate(573,966)" s:width="30" s:height="25" id="cell_$or$.yosys_tmp/MagComp.sv:10$42">
    <s:alias val="$or"/>
    <s:alias val="$logic_or"/>
    <s:alias val="$_OR_"/>
    <path d="M0,25 L0,25 L15,25 A15 12.5 0 0 0 15,0 L0,0" class="cell_$or$.yosys_tmp/MagComp.sv:10$42"/>
    <path d="M0,0 A30 25 0 0 1 0,25" class="cell_$or$.yosys_tmp/MagComp.sv:10$42"/>
    <g s:x="3" s:y="5" s:pid="A"/>
    <g s:x="3" s:y="20" s:pid="B"/>
    <g s:x="30" s:y="12.5" s:pid="Y"/>
  </g>
  <g s:type="or" transform="translate(706,951)" s:width="30" s:height="25" id="cell_$or$.yosys_tmp/MagComp.sv:10$48">
    <s:alias val="$or"/>
    <s:alias val="$logic_or"/>
    <s:alias val="$_OR_"/>
    <path d="M0,25 L0,25 L15,25 A15 12.5 0 0 0 15,0 L0,0" class="cell_$or$.yosys_tmp/MagComp.sv:10$48"/>
    <path d="M0,0 A30 25 0 0 1 0,25" class="cell_$or$.yosys_tmp/MagComp.sv:10$48"/>
    <g s:x="3" s:y="5" s:pid="A"/>
    <g s:x="3" s:y="20" s:pid="B"/>
    <g s:x="30" s:y="12.5" s:pid="Y"/>
  </g>
  <g s:type="or" transform="translate(839,936)" s:width="30" s:height="25" id="cell_$or$.yosys_tmp/MagComp.sv:10$54">
    <s:alias val="$or"/>
    <s:alias val="$logic_or"/>
    <s:alias val="$_OR_"/>
    <path d="M0,25 L0,25 L15,25 A15 12.5 0 0 0 15,0 L0,0" class="cell_$or$.yosys_tmp/MagComp.sv:10$54"/>
    <path d="M0,0 A30 25 0 0 1 0,25" class="cell_$or$.yosys_tmp/MagComp.sv:10$54"/>
    <g s:x="3" s:y="5" s:pid="A"/>
    <g s:x="3" s:y="20" s:pid="B"/>
    <g s:x="30" s:y="12.5" s:pid="Y"/>
  </g>
  <g s:type="or" transform="translate(972,921)" s:width="30" s:height="25" id="cell_$or$.yosys_tmp/MagComp.sv:10$60">
    <s:alias val="$or"/>
    <s:alias val="$logic_or"/>
    <s:alias val="$_OR_"/>
    <path d="M0,25 L0,25 L15,25 A15 12.5 0 0 0 15,0 L0,0" class="cell_$or$.yosys_tmp/MagComp.sv:10$60"/>
    <path d="M0,0 A30 25 0 0 1 0,25" class="cell_$or$.yosys_tmp/MagComp.sv:10$60"/>
    <g s:x="3" s:y="5" s:pid="A"/>
    <g s:x="3" s:y="20" s:pid="B"/>
    <g s:x="30" s:y="12.5" s:pid="Y"/>
  </g>
  <g s:type="or" transform="translate(1102,906)" s:width="30" s:height="25" id="cell_$or$.yosys_tmp/MagComp.sv:10$66">
    <s:alias val="$or"/>
    <s:alias val="$logic_or"/>
    <s:alias val="$_OR_"/>
    <path d="M0,25 L0,25 L15,25 A15 12.5 0 0 0 15,0 L0,0" class="cell_$or$.yosys_tmp/MagComp.sv:10$66"/>
    <path d="M0,0 A30 25 0 0 1 0,25" class="cell_$or$.yosys_tmp/MagComp.sv:10$66"/>
    <g s:x="3" s:y="5" s:pid="A"/>
    <g s:x="3" s:y="20" s:pid="B"/>
    <g s:x="30" s:y="12.5" s:pid="Y"/>
  </g>
  <g s:type="reduce_xor" transform="translate(239,938.5)" s:width="33" s:height="25" id="cell_$xor$.yosys_tmp/MagComp.sv:10$33">
    <s:alias val="$xor"/>
    <s:alias val="$reduce_xor"/>
    <s:alias val="$_XOR_"/>
    <path d="M3,0 A30 25 0 0 1 3,25 A30 25 0 0 0 33,12.5 A30 25 0 0 0 3,0" class="cell_$xor$.yosys_tmp/MagComp.sv:10$33"/>
    <path d="M0,0 A30 25 0 0 1 0,25" class="cell_$xor$.yosys_tmp/MagComp.sv:10$33"/>
    <g s:x="3" s:y="5" s:pid="A"/>
    <g s:x="3" s:y="20" s:pid="B"/>
    <g s:x="33" s:y="12.5" s:pid="Y"/>
  </g>
  <g s:type="reduce_xor" transform="translate(372,816)" s:width="33" s:height="25" id="cell_$xor$.yosys_tmp/MagComp.sv:10$39">
    <s:alias val="$xor"/>
    <s:alias val="$reduce_xor"/>
    <s:alias val="$_XOR_"/>
    <path d="M3,0 A30 25 0 0 1 3,25 A30 25 0 0 0 33,12.5 A30 25 0 0 0 3,0" class="cell_$xor$.yosys_tmp/MagComp.sv:10$39"/>
    <path d="M0,0 A30 25 0 0 1 0,25" class="cell_$xor$.yosys_tmp/MagComp.sv:10$39"/>
    <g s:x="3" s:y="5" s:pid="A"/>
    <g s:x="3" s:y="20" s:pid="B"/>
    <g s:x="33" s:y="12.5" s:pid="Y"/>
  </g>
  <g s:type="reduce_xor" transform="translate(505,693.5)" s:width="33" s:height="25" id="cell_$xor$.yosys_tmp/MagComp.sv:10$45">
    <s:alias val="$xor"/>
    <s:alias val="$reduce_xor"/>
    <s:alias val="$_XOR_"/>
    <path d="M3,0 A30 25 0 0 1 3,25 A30 25 0 0 0 33,12.5 A30 25 0 0 0 3,0" class="cell_$xor$.yosys_tmp/MagComp.sv:10$45"/>
    <path d="M0,0 A30 25 0 0 1 0,25" class="cell_$xor$.yosys_tmp/MagComp.sv:10$45"/>
    <g s:x="3" s:y="5" s:pid="A"/>
    <g s:x="3" s:y="20" s:pid="B"/>
    <g s:x="33" s:y="12.5" s:pid="Y"/>
  </g>
  <g s:type="reduce_xor" transform="translate(638,571)" s:width="33" s:height="25" id="cell_$xor$.yosys_tmp/MagComp.sv:10$51">
    <s:alias val="$xor"/>
    <s:alias val="$reduce_xor"/>
    <s:alias val="$_XOR_"/>
    <path d="M3,0 A30 25 0 0 1 3,25 A30 25 0 0 0 33,12.5 A30 25 0 0 0 3,0" class="cell_$xor$.yosys_tmp/MagComp.sv:10$51"/>
    <path d="M0,0 A30 25 0 0 1 0,25" class="cell_$xor$.yosys_tmp/MagComp.sv:10$51"/>
    <g s:x="3" s:y="5" s:pid="A"/>
    <g s:x="3" s:y="20" s:pid="B"/>
    <g s:x="33" s:y="12.5" s:pid="Y"/>
  </g>
  <g s:type="reduce_xor" transform="translate(771,448.5)" s:width="33" s:height="25" id="cell_$xor$.yosys_tmp/MagComp.sv:10$57">
    <s:alias val="$xor"/>
    <s:alias val="$reduce_xor"/>
    <s:alias val="$_XOR_"/>
    <path d="M3,0 A30 25 0 0 1 3,25 A30 25 0 0 0 33,12.5 A30 25 0 0 0 3,0" class="cell_$xor$.yosys_tmp/MagComp.sv:10$57"/>
    <path d="M0,0 A30 25 0 0 1 0,25" class="cell_$xor$.yosys_tmp/MagComp.sv:10$57"/>
    <g s:x="3" s:y="5" s:pid="A"/>
    <g s:x="3" s:y="20" s:pid="B"/>
    <g s:x="33" s:y="12.5" s:pid="Y"/>
  </g>
  <g s:type="reduce_xor" transform="translate(904,326)" s:width="33" s:height="25" id="cell_$xor$.yosys_tmp/MagComp.sv:10$63">
    <s:alias val="$xor"/>
    <s:alias val="$reduce_xor"/>
    <s:alias val="$_XOR_"/>
    <path d="M3,0 A30 25 0 0 1 3,25 A30 25 0 0 0 33,12.5 A30 25 0 0 0 3,0" class="cell_$xor$.yosys_tmp/MagComp.sv:10$63"/>
    <path d="M0,0 A30 25 0 0 1 0,25" class="cell_$xor$.yosys_tmp/MagComp.sv:10$63"/>
    <g s:x="3" s:y="5" s:pid="A"/>
    <g s:x="3" s:y="20" s:pid="B"/>
    <g s:x="33" s:y="12.5" s:pid="Y"/>
  </g>
  <g s:type="inputExt" transform="translate(12,34.5)" s:width="30" s:height="20" id="cell_a">
    <text x="15" y="-4" class="nodelabel cell_a" s:attribute="ref">a</text>
    <s:alias val="$_inputExt_"/>
    <path d="M0,0 L0,20 L15,20 L30,10 L15,0 Z" class="cell_a"/>
    <g s:x="28" s:y="10" s:pid="Y"/>
  </g>
  <g s:type="inputExt" transform="translate(12,206.5)" s:width="30" s:height="20" id="cell_b">
    <text x="15" y="-4" class="nodelabel cell_b" s:attribute="ref">b</text>
    <s:alias val="$_inputExt_"/>
    <path d="M0,0 L0,20 L15,20 L30,10 L15,0 Z" class="cell_b"/>
    <g s:x="28" s:y="10" s:pid="Y"/>
  </g>
  <g s:type="outputExt" transform="translate(1167,908.5)" s:width="30" s:height="20" id="cell_gt">
    <text x="15" y="-4" class="nodelabel cell_gt" s:attribute="ref">gt</text>
    <s:alias val="$_outputExt_"/>
    <path d="M30,0 L30,20 L15,20 L0,10 L15,0 Z" class="cell_gt"/>
    <g s:x="0" s:y="10" s:pid="A"/>
  </g>
  <g s:type="split" transform="translate(77,24)" s:width="5" s:height="40" id="cell_$split$,2,3,4,5,6,7,8,9,">
    <rect width="5" height="140" class="splitjoinBody" s:generic="body"/>
    <s:alias val="$_split_"/>
    <g s:x="0" s:y="20" s:pid="in"/>
    <g transform="translate(4,10)" s:x="4" s:y="10" s:pid="out0">
      <text x="5" y="-4">0</text>
    </g>
    <g transform="translate(4,30)" s:x="4" s:y="10" s:pid="out0">
      <text x="5" y="-4">1</text>
    </g>
    <g transform="translate(4,50)" s:x="4" s:y="10" s:pid="out0">
      <text x="5" y="-4">2</text>
    </g>
    <g transform="translate(4,70)" s:x="4" s:y="10" s:pid="out0">
      <text x="5" y="-4">3</text>
    </g>
    <g transform="translate(4,90)" s:x="4" s:y="10" s:pid="out0">
      <text x="5" y="-4">4</text>
    </g>
    <g transform="translate(4,110)" s:x="4" s:y="10" s:pid="out0">
      <text x="5" y="-4">5</text>
    </g>
    <g transform="translate(4,130)" s:x="4" s:y="10" s:pid="out0">
      <text x="5" y="-4">6</text>
    </g>
  </g>
  <g s:type="split" transform="translate(77,196)" s:width="5" s:height="40" id="cell_$split$,10,11,12,13,14,15,16,17,">
    <rect width="5" height="140" class="splitjoinBody" s:generic="body"/>
    <s:alias val="$_split_"/>
    <g s:x="0" s:y="20" s:pid="in"/>
    <g transform="translate(4,10)" s:x="4" s:y="10" s:pid="out0">
      <text x="5" y="-4">0</text>
    </g>
    <g transform="translate(4,30)" s:x="4" s:y="10" s:pid="out0">
      <text x="5" y="-4">1</text>
    </g>
    <g transform="translate(4,50)" s:x="4" s:y="10" s:pid="out0">
      <text x="5" y="-4">2</text>
    </g>
    <g transform="translate(4,70)" s:x="4" s:y="10" s:pid="out0">
      <text x="5" y="-4">3</text>
    </g>
    <g transform="translate(4,90)" s:x="4" s:y="10" s:pid="out0">
      <text x="5" y="-4">4</text>
    </g>
    <g transform="translate(4,110)" s:x="4" s:y="10" s:pid="out0">
      <text x="5" y="-4">5</text>
    </g>
    <g transform="translate(4,130)" s:x="4" s:y="10" s:pid="out0">
      <text x="5" y="-4">6</text>
    </g>
  </g>
  <line x1="81.5" x2="81.5" y1="34" y2="12" class="net_2"/>
  <line x1="81.5" x2="109" y1="12" y2="12" class="net_2"/>
  <line x1="109" x2="109" y1="12" y2="995" class="net_2"/>
  <line x1="109" x2="282" y1="995" y2="995" class="net_2"/>
  <line x1="282" x2="282" y1="995" y2="1001" class="net_2"/>
  <line x1="282" x2="307" y1="1001" y2="1001" class="net_2"/>
  <line x1="265.5" x2="307" y1="1016" y2="1016" class="net_19"/>
  <line x1="82" x2="129" y1="54.5" y2="54.5" class="net_3"/>
  <line x1="129" x2="129" y1="54.5" y2="875" class="net_3"/>
  <line x1="129" x2="347" y1="875" y2="875" class="net_3"/>
  <line x1="347" x2="347" y1="875" y2="881" class="net_3"/>
  <circle cx="129" cy="875" r="2" style="fill:#000" class="net_3"/>
  <line x1="347" x2="373" y1="881" y2="881" class="net_3"/>
  <line x1="82" x2="129" y1="54.5" y2="54.5" class="net_3"/>
  <line x1="129" x2="129" y1="54.5" y2="943.5" class="net_3"/>
  <line x1="129" x2="242" y1="943.5" y2="943.5" class="net_3"/>
  <line x1="332" x2="373" y1="896" y2="896" class="net_21"/>
  <line x1="332" x2="347" y1="951" y2="951" class="net_23"/>
  <line x1="347" x2="347" y1="951" y2="993.5" class="net_23"/>
  <line x1="347" x2="373" y1="993.5" y2="993.5" class="net_23"/>
  <line x1="337" x2="373" y1="1008.5" y2="1008.5" class="net_20"/>
  <line x1="82" x2="149" y1="74.5" y2="74.5" class="net_4"/>
  <line x1="149" x2="149" y1="74.5" y2="752.5" class="net_4"/>
  <line x1="149" x2="480" y1="752.5" y2="752.5" class="net_4"/>
  <line x1="480" x2="480" y1="752.5" y2="758.5" class="net_4"/>
  <circle cx="149" cy="752.5" r="2" style="fill:#000" class="net_4"/>
  <line x1="480" x2="506" y1="758.5" y2="758.5" class="net_4"/>
  <line x1="82" x2="149" y1="74.5" y2="74.5" class="net_4"/>
  <line x1="149" x2="149" y1="74.5" y2="821" class="net_4"/>
  <line x1="149" x2="375" y1="821" y2="821" class="net_4"/>
  <line x1="465" x2="506" y1="773.5" y2="773.5" class="net_25"/>
  <line x1="465" x2="480" y1="828.5" y2="828.5" class="net_27"/>
  <line x1="480" x2="480" y1="828.5" y2="978.5" class="net_27"/>
  <line x1="480" x2="506" y1="978.5" y2="978.5" class="net_27"/>
  <line x1="470" x2="506" y1="993.5" y2="993.5" class="net_28"/>
  <line x1="82" x2="169" y1="94.5" y2="94.5" class="net_5"/>
  <line x1="169" x2="169" y1="94.5" y2="630" class="net_5"/>
  <line x1="169" x2="613" y1="630" y2="630" class="net_5"/>
  <line x1="613" x2="613" y1="630" y2="636" class="net_5"/>
  <circle cx="169" cy="630" r="2" style="fill:#000" class="net_5"/>
  <line x1="613" x2="639" y1="636" y2="636" class="net_5"/>
  <line x1="82" x2="169" y1="94.5" y2="94.5" class="net_5"/>
  <line x1="169" x2="169" y1="94.5" y2="698.5" class="net_5"/>
  <line x1="169" x2="508" y1="698.5" y2="698.5" class="net_5"/>
  <line x1="598" x2="639" y1="651" y2="651" class="net_30"/>
  <line x1="598" x2="613" y1="706" y2="706" class="net_32"/>
  <line x1="613" x2="613" y1="706" y2="963.5" class="net_32"/>
  <line x1="613" x2="639" y1="963.5" y2="963.5" class="net_32"/>
  <line x1="603" x2="639" y1="978.5" y2="978.5" class="net_33"/>
  <line x1="82" x2="189" y1="114.5" y2="114.5" class="net_6"/>
  <line x1="189" x2="189" y1="114.5" y2="507.5" class="net_6"/>
  <line x1="189" x2="746" y1="507.5" y2="507.5" class="net_6"/>
  <line x1="746" x2="746" y1="507.5" y2="513.5" class="net_6"/>
  <circle cx="189" cy="507.5" r="2" style="fill:#000" class="net_6"/>
  <line x1="746" x2="772" y1="513.5" y2="513.5" class="net_6"/>
  <line x1="82" x2="189" y1="114.5" y2="114.5" class="net_6"/>
  <line x1="189" x2="189" y1="114.5" y2="576" class="net_6"/>
  <line x1="189" x2="641" y1="576" y2="576" class="net_6"/>
  <line x1="731" x2="772" y1="528.5" y2="528.5" class="net_35"/>
  <line x1="731" x2="746" y1="583.5" y2="583.5" class="net_37"/>
  <line x1="746" x2="746" y1="583.5" y2="948.5" class="net_37"/>
  <line x1="746" x2="772" y1="948.5" y2="948.5" class="net_37"/>
  <line x1="736" x2="772" y1="963.5" y2="963.5" class="net_38"/>
  <line x1="82" x2="209" y1="134.5" y2="134.5" class="net_7"/>
  <line x1="209" x2="209" y1="134.5" y2="385" class="net_7"/>
  <line x1="209" x2="879" y1="385" y2="385" class="net_7"/>
  <line x1="879" x2="879" y1="385" y2="391" class="net_7"/>
  <circle cx="209" cy="385" r="2" style="fill:#000" class="net_7"/>
  <line x1="879" x2="905" y1="391" y2="391" class="net_7"/>
  <line x1="82" x2="209" y1="134.5" y2="134.5" class="net_7"/>
  <line x1="209" x2="209" y1="134.5" y2="453.5" class="net_7"/>
  <line x1="209" x2="774" y1="453.5" y2="453.5" class="net_7"/>
  <line x1="864" x2="905" y1="406" y2="406" class="net_40"/>
  <line x1="864" x2="879" y1="461" y2="461" class="net_42"/>
  <line x1="879" x2="879" y1="461" y2="933.5" class="net_42"/>
  <line x1="879" x2="905" y1="933.5" y2="933.5" class="net_42"/>
  <line x1="869" x2="905" y1="948.5" y2="948.5" class="net_43"/>
  <line x1="81.5" x2="81.5" y1="155" y2="174" class="net_8"/>
  <line x1="81.5" x2="219" y1="174" y2="174" class="net_8"/>
  <line x1="219" x2="219" y1="174" y2="142" class="net_8"/>
  <line x1="219" x2="1012" y1="142" y2="142" class="net_8"/>
  <line x1="1012" x2="1012" y1="142" y2="148" class="net_8"/>
  <circle cx="219" cy="174" r="2" style="fill:#000" class="net_8"/>
  <line x1="1012" x2="1037" y1="148" y2="148" class="net_8"/>
  <line x1="81.5" x2="81.5" y1="155" y2="174" class="net_8"/>
  <line x1="81.5" x2="879" y1="174" y2="174" class="net_8"/>
  <line x1="879" x2="879" y1="174" y2="331" class="net_8"/>
  <line x1="879" x2="907" y1="331" y2="331" class="net_8"/>
  <line x1="997" x2="1037" y1="163" y2="163" class="net_45"/>
  <line x1="997" x2="1012" y1="338.5" y2="338.5" class="net_47"/>
  <line x1="1012" x2="1012" y1="338.5" y2="918.5" class="net_47"/>
  <line x1="1012" x2="1037" y1="918.5" y2="918.5" class="net_47"/>
  <line x1="1002" x2="1037" y1="933.5" y2="933.5" class="net_48"/>
  <line x1="81.5" x2="81.5" y1="206" y2="184" class="net_10"/>
  <line x1="81.5" x2="99" y1="184" y2="184" class="net_10"/>
  <line x1="99" x2="99" y1="184" y2="1016" class="net_10"/>
  <line x1="99" x2="240.5" y1="1016" y2="1016" class="net_10"/>
  <line x1="82" x2="119" y1="226.5" y2="226.5" class="net_11"/>
  <line x1="119" x2="119" y1="226.5" y2="896" class="net_11"/>
  <circle cx="119" cy="896" r="2" style="fill:#000" class="net_11"/>
  <line x1="119" x2="307" y1="896" y2="896" class="net_11"/>
  <line x1="82" x2="119" y1="226.5" y2="226.5" class="net_11"/>
  <line x1="119" x2="119" y1="226.5" y2="958.5" class="net_11"/>
  <line x1="119" x2="242" y1="958.5" y2="958.5" class="net_11"/>
  <line x1="272" x2="307" y1="951" y2="951" class="net_50"/>
  <line x1="82" x2="139" y1="246.5" y2="246.5" class="net_12"/>
  <line x1="139" x2="139" y1="246.5" y2="773.5" class="net_12"/>
  <circle cx="139" cy="773.5" r="2" style="fill:#000" class="net_12"/>
  <line x1="139" x2="440" y1="773.5" y2="773.5" class="net_12"/>
  <line x1="82" x2="139" y1="246.5" y2="246.5" class="net_12"/>
  <line x1="139" x2="139" y1="246.5" y2="836" class="net_12"/>
  <line x1="139" x2="375" y1="836" y2="836" class="net_12"/>
  <line x1="405" x2="440" y1="828.5" y2="828.5" class="net_51"/>
  <line x1="82" x2="159" y1="266.5" y2="266.5" class="net_13"/>
  <line x1="159" x2="159" y1="266.5" y2="651" class="net_13"/>
  <circle cx="159" cy="651" r="2" style="fill:#000" class="net_13"/>
  <line x1="159" x2="573" y1="651" y2="651" class="net_13"/>
  <line x1="82" x2="159" y1="266.5" y2="266.5" class="net_13"/>
  <line x1="159" x2="159" y1="266.5" y2="713.5" class="net_13"/>
  <line x1="159" x2="508" y1="713.5" y2="713.5" class="net_13"/>
  <line x1="538" x2="573" y1="706" y2="706" class="net_52"/>
  <line x1="82" x2="179" y1="286.5" y2="286.5" class="net_14"/>
  <line x1="179" x2="179" y1="286.5" y2="528.5" class="net_14"/>
  <circle cx="179" cy="528.5" r="2" style="fill:#000" class="net_14"/>
  <line x1="179" x2="706" y1="528.5" y2="528.5" class="net_14"/>
  <line x1="82" x2="179" y1="286.5" y2="286.5" class="net_14"/>
  <line x1="179" x2="179" y1="286.5" y2="591" class="net_14"/>
  <line x1="179" x2="641" y1="591" y2="591" class="net_14"/>
  <line x1="671" x2="706" y1="583.5" y2="583.5" class="net_53"/>
  <line x1="82" x2="199" y1="306.5" y2="306.5" class="net_15"/>
  <line x1="199" x2="199" y1="306.5" y2="406" class="net_15"/>
  <circle cx="199" cy="406" r="2" style="fill:#000" class="net_15"/>
  <line x1="199" x2="839" y1="406" y2="406" class="net_15"/>
  <line x1="82" x2="199" y1="306.5" y2="306.5" class="net_15"/>
  <line x1="199" x2="199" y1="306.5" y2="468.5" class="net_15"/>
  <line x1="199" x2="774" y1="468.5" y2="468.5" class="net_15"/>
  <line x1="804" x2="839" y1="461" y2="461" class="net_54"/>
  <line x1="81.5" x2="81.5" y1="327" y2="346" class="net_16"/>
  <line x1="81.5" x2="229" y1="346" y2="346" class="net_16"/>
  <line x1="229" x2="229" y1="346" y2="163" class="net_16"/>
  <circle cx="229" cy="346" r="2" style="fill:#000" class="net_16"/>
  <line x1="229" x2="972" y1="163" y2="163" class="net_16"/>
  <line x1="81.5" x2="81.5" y1="327" y2="346" class="net_16"/>
  <line x1="81.5" x2="907" y1="346" y2="346" class="net_16"/>
  <line x1="937" x2="972" y1="338.5" y2="338.5" class="net_55"/>
  <line x1="403" x2="415" y1="888.5" y2="888.5" class="net_22"/>
  <line x1="415" x2="415" y1="888.5" y2="986" class="net_22"/>
  <line x1="415" x2="443" y1="986" y2="986" class="net_22"/>
  <line x1="403" x2="443" y1="1001" y2="1001" class="net_24"/>
  <line x1="536" x2="548" y1="766" y2="766" class="net_26"/>
  <line x1="548" x2="548" y1="766" y2="971" class="net_26"/>
  <line x1="548" x2="576" y1="971" y2="971" class="net_26"/>
  <line x1="536" x2="576" y1="986" y2="986" class="net_29"/>
  <line x1="669" x2="681" y1="643.5" y2="643.5" class="net_31"/>
  <line x1="681" x2="681" y1="643.5" y2="956" class="net_31"/>
  <line x1="681" x2="709" y1="956" y2="956" class="net_31"/>
  <line x1="669" x2="709" y1="971" y2="971" class="net_34"/>
  <line x1="802" x2="814" y1="521" y2="521" class="net_36"/>
  <line x1="814" x2="814" y1="521" y2="941" class="net_36"/>
  <line x1="814" x2="842" y1="941" y2="941" class="net_36"/>
  <line x1="802" x2="842" y1="956" y2="956" class="net_39"/>
  <line x1="935" x2="947" y1="398.5" y2="398.5" class="net_41"/>
  <line x1="947" x2="947" y1="398.5" y2="926" class="net_41"/>
  <line x1="947" x2="975" y1="926" y2="926" class="net_41"/>
  <line x1="935" x2="975" y1="941" y2="941" class="net_44"/>
  <line x1="1067" x2="1077" y1="155.5" y2="155.5" class="net_46"/>
  <line x1="1077" x2="1077" y1="155.5" y2="911" class="net_46"/>
  <line x1="1077" x2="1105" y1="911" y2="911" class="net_46"/>
  <line x1="1067" x2="1105" y1="926" y2="926" class="net_49"/>
  <line x1="1132" x2="1167" y1="918.5" y2="918.5" class="net_18"/>
  <line x1="40" x2="77" y1="44.5" y2="44.5" class="net_2,3,4,5,6,7,8,9"/>
  <line x1="40" x2="77" y1="216.5" y2="216.5" class="net_10,11,12,13,14,15,16,17"/>
</svg>
