<svg style="background:white" xmlns="http://www.w3.org/2000/svg" xmlns:xlink="http://www.w3.org/1999/xlink" xmlns:s="https://github.com/nturley/netlistsvg" width="1214" height="442.5">
  <style>svg {
    stroke:#000;
    fill:none;
  }
  text {
    fill:#000;
    stroke:none;
    font-size:10px;
    font-weight: bold;
    font-family: "Courier New", monospace;
  }
  .nodelabel {
    text-anchor: middle;
  }
  .inputPortLabel {
    text-anchor: end;
  }
  .splitjoinBody {
    fill:#000;
  }</style>
  <g s:type="and" transform="translate(145,248.5)" s:width="30" s:height="25" id="cell_$and$.yosys_tmp/MagComp_msb.sv:12$72">
    <s:alias val="$and"/>
    <s:alias val="$logic_and"/>
    <s:alias val="$_AND_"/>
    <path d="M0,0 L0,25 L15,25 A15 12.5 0 0 0 15,0 Z" class="cell_$and$.yosys_tmp/MagComp_msb.sv:12$72"/>
    <g s:x="0" s:y="5" s:pid="A"/>
    <g s:x="0" s:y="20" s:pid="B"/>
    <g s:x="30" s:y="12.5" s:pid="Y"/>
  </g>
  <g s:type="and" transform="translate(262,164)" s:width="30" s:height="25" id="cell_$and$.yosys_tmp/MagComp_msb.sv:17$77">
    <s:alias val="$and"/>
    <s:alias val="$logic_and"/>
    <s:alias val="$_AND_"/>
    <path d="M0,0 L0,25 L15,25 A15 12.5 0 0 0 15,0 Z" class="cell_$and$.yosys_tmp/MagComp_msb.sv:17$77"/>
    <g s:x="0" s:y="5" s:pid="A"/>
    <g s:x="0" s:y="20" s:pid="B"/>
    <g s:x="30" s:y="12.5" s:pid="Y"/>
  </g>
  <g s:type="and" transform="translate(392,149)" s:width="30" s:height="25" id="cell_$and$.yosys_tmp/MagComp_msb.sv:17$79">
    <s:alias val="$and"/>
    <s:alias val="$logic_and"/>
    <s:alias val="$_AND_"/>
    <path d="M0,0 L0,25 L15,25 A15 12.5 0 0 0 15,0 Z" class="cell_$and$.yosys_tmp/MagComp_msb.sv:17$79"/>
    <g s:x="0" s:y="5" s:pid="A"/>
    <g s:x="0" s:y="20" s:pid="B"/>
    <g s:x="30" s:y="12.5" s:pid="Y"/>
  </g>
  <g s:type="and" transform="translate(522,134)" s:width="30" s:height="25" id="cell_$and$.yosys_tmp/MagComp_msb.sv:17$81">
    <s:alias val="$and"/>
    <s:alias val="$logic_and"/>
    <s:alias val="$_AND_"/>
    <path d="M0,0 L0,25 L15,25 A15 12.5 0 0 0 15,0 Z" class="cell_$and$.yosys_tmp/MagComp_msb.sv:17$81"/>
    <g s:x="0" s:y="5" s:pid="A"/>
    <g s:x="0" s:y="20" s:pid="B"/>
    <g s:x="30" s:y="12.5" s:pid="Y"/>
  </g>
  <g s:type="and" transform="translate(652,119)" s:width="30" s:height="25" id="cell_$and$.yosys_tmp/MagComp_msb.sv:17$83">
    <s:alias val="$and"/>
    <s:alias val="$logic_and"/>
    <s:alias val="$_AND_"/>
    <path d="M0,0 L0,25 L15,25 A15 12.5 0 0 0 15,0 Z" class="cell_$and$.yosys_tmp/MagComp_msb.sv:17$83"/>
    <g s:x="0" s:y="5" s:pid="A"/>
    <g s:x="0" s:y="20" s:pid="B"/>
    <g s:x="30" s:y="12.5" s:pid="Y"/>
  </g>
  <g s:type="and" transform="translate(782,217.5)" s:width="30" s:height="25" id="cell_$and$.yosys_tmp/MagComp_msb.sv:17$85">
    <s:alias val="$and"/>
    <s:alias val="$logic_and"/>
    <s:alias val="$_AND_"/>
    <path d="M0,0 L0,25 L15,25 A15 12.5 0 0 0 15,0 Z" class="cell_$and$.yosys_tmp/MagComp_msb.sv:17$85"/>
    <g s:x="0" s:y="5" s:pid="A"/>
    <g s:x="0" s:y="20" s:pid="B"/>
    <g s:x="30" s:y="12.5" s:pid="Y"/>
  </g>
  <g s:type="and" transform="translate(912,202.5)" s:width="30" s:height="25" id="cell_$and$.yosys_tmp/MagComp_msb.sv:17$87">
    <s:alias val="$and"/>
    <s:alias val="$logic_and"/>
    <s:alias val="$_AND_"/>
    <path d="M0,0 L0,25 L15,25 A15 12.5 0 0 0 15,0 Z" class="cell_$and$.yosys_tmp/MagComp_msb.sv:17$87"/>
    <g s:x="0" s:y="5" s:pid="A"/>
    <g s:x="0" s:y="20" s:pid="B"/>
    <g s:x="30" s:y="12.5" s:pid="Y"/>
  </g>
  <g s:type="and" transform="translate(1042,368)" s:width="30" s:height="25" id="cell_$and$.yosys_tmp/MagComp_msb.sv:17$89">
    <s:alias val="$and"/>
    <s:alias val="$logic_and"/>
    <s:alias val="$_AND_"/>
    <path d="M0,0 L0,25 L15,25 A15 12.5 0 0 0 15,0 Z" class="cell_$and$.yosys_tmp/MagComp_msb.sv:17$89"/>
    <g s:x="0" s:y="5" s:pid="A"/>
    <g s:x="0" s:y="20" s:pid="B"/>
    <g s:x="30" s:y="12.5" s:pid="Y"/>
  </g>
  <g s:type="not" transform="translate(145,34.5)" s:width="30" s:height="20" id="cell_$not$.yosys_tmp/MagComp_msb.sv:11$70">
    <s:alias val="$_NOT_"/>
    <s:alias val="$not"/>
    <s:alias val="$logic_not"/>
    <path d="M0,0 L0,20 L20,10 Z" class="cell_$not$.yosys_tmp/MagComp_msb.sv:11$70"/>
    <circle cx="23" cy="10" r="3" class="cell_$not$.yosys_tmp/MagComp_msb.sv:11$70"/>
    <g s:x="0" s:y="10" s:pid="A"/>
    <g s:x="25" s:y="10" s:pid="Y"/>
  </g>
  <g s:type="not" transform="translate(78.5,258.5)" s:width="30" s:height="20" id="cell_$not$.yosys_tmp/MagComp_msb.sv:12$71">
    <s:alias val="$_NOT_"/>
    <s:alias val="$not"/>
    <s:alias val="$logic_not"/>
    <path d="M0,0 L0,20 L20,10 Z" class="cell_$not$.yosys_tmp/MagComp_msb.sv:12$71"/>
    <circle cx="23" cy="10" r="3" class="cell_$not$.yosys_tmp/MagComp_msb.sv:12$71"/>
    <g s:x="0" s:y="10" s:pid="A"/>
    <g s:x="25" s:y="10" s:pid="Y"/>
  </g>
  <g s:type="or" transform="translate(327,156.5)" s:width="30" s:height="25" id="cell_$or$.yosys_tmp/MagComp_msb.sv:17$78">
    <s:alias val="$or"/>
    <s:alias val="$logic_or"/>
    <s:alias val="$_OR_"/>
    <path d="M0,25 L0,25 L15,25 A15 12.5 0 0 0 15,0 L0,0" class="cell_$or$.yosys_tmp/MagComp_msb.sv:17$78"/>
    <path d="M0,0 A30 25 0 0 1 0,25" class="cell_$or$.yosys_tmp/MagComp_msb.sv:17$78"/>
    <g s:x="3" s:y="5" s:pid="A"/>
    <g s:x="3" s:y="20" s:pid="B"/>
    <g s:x="30" s:y="12.5" s:pid="Y"/>
  </g>
  <g s:type="or" transform="translate(457,141.5)" s:width="30" s:height="25" id="cell_$or$.yosys_tmp/MagComp_msb.sv:17$80">
    <s:alias val="$or"/>
    <s:alias val="$logic_or"/>
    <s:alias val="$_OR_"/>
    <path d="M0,25 L0,25 L15,25 A15 12.5 0 0 0 15,0 L0,0" class="cell_$or$.yosys_tmp/MagComp_msb.sv:17$80"/>
    <path d="M0,0 A30 25 0 0 1 0,25" class="cell_$or$.yosys_tmp/MagComp_msb.sv:17$80"/>
    <g s:x="3" s:y="5" s:pid="A"/>
    <g s:x="3" s:y="20" s:pid="B"/>
    <g s:x="30" s:y="12.5" s:pid="Y"/>
  </g>
  <g s:type="or" transform="translate(587,126.5)" s:width="30" s:height="25" id="cell_$or$.yosys_tmp/MagComp_msb.sv:17$82">
    <s:alias val="$or"/>
    <s:alias val="$logic_or"/>
    <s:alias val="$_OR_"/>
    <path d="M0,25 L0,25 L15,25 A15 12.5 0 0 0 15,0 L0,0" class="cell_$or$.yosys_tmp/MagComp_msb.sv:17$82"/>
    <path d="M0,0 A30 25 0 0 1 0,25" class="cell_$or$.yosys_tmp/MagComp_msb.sv:17$82"/>
    <g s:x="3" s:y="5" s:pid="A"/>
    <g s:x="3" s:y="20" s:pid="B"/>
    <g s:x="30" s:y="12.5" s:pid="Y"/>
  </g>
  <g s:type="or" transform="translate(717,225)" s:width="30" s:height="25" id="cell_$or$.yosys_tmp/MagComp_msb.sv:17$84">
    <s:alias val="$or"/>
    <s:alias val="$logic_or"/>
    <s:alias val="$_OR_"/>
    <path d="M0,25 L0,25 L15,25 A15 12.5 0 0 0 15,0 L0,0" class="cell_$or$.yosys_tmp/MagComp_msb.sv:17$84"/>
    <path d="M0,0 A30 25 0 0 1 0,25" class="cell_$or$.yosys_tmp/MagComp_msb.sv:17$84"/>
    <g s:x="3" s:y="5" s:pid="A"/>
    <g s:x="3" s:y="20" s:pid="B"/>
    <g s:x="30" s:y="12.5" s:pid="Y"/>
  </g>
  <g s:type="or" transform="translate(847,210)" s:width="30" s:height="25" id="cell_$or$.yosys_tmp/MagComp_msb.sv:17$86">
    <s:alias val="$or"/>
    <s:alias val="$logic_or"/>
    <s:alias val="$_OR_"/>
    <path d="M0,25 L0,25 L15,25 A15 12.5 0 0 0 15,0 L0,0" class="cell_$or$.yosys_tmp/MagComp_msb.sv:17$86"/>
    <path d="M0,0 A30 25 0 0 1 0,25" class="cell_$or$.yosys_tmp/MagComp_msb.sv:17$86"/>
    <g s:x="3" s:y="5" s:pid="A"/>
    <g s:x="3" s:y="20" s:pid="B"/>
    <g s:x="30" s:y="12.5" s:pid="Y"/>
  </g>
  <g s:type="or" transform="translate(977,375.5)" s:width="30" s:height="25" id="cell_$or$.yosys_tmp/MagComp_msb.sv:17$88">
    <s:alias val="$or"/>
    <s:alias val="$logic_or"/>
    <s:alias val="$_OR_"/>
    <path d="M0,25 L0,25 L15,25 A15 12.5 0 0 0 15,0 L0,0" class="cell_$or$.yosys_tmp/MagComp_msb.sv:17$88"/>
    <path d="M0,0 A30 25 0 0 1 0,25" class="cell_$or$.yosys_tmp/MagComp_msb.sv:17$88"/>
    <g s:x="3" s:y="5" s:pid="A"/>
    <g s:x="3" s:y="20" s:pid="B"/>
    <g s:x="30" s:y="12.5" s:pid="Y"/>
  </g>
  <g s:type="or" transform="translate(1107,405.5)" s:width="30" s:height="25" id="cell_$or$.yosys_tmp/MagComp_msb.sv:17$90">
    <s:alias val="$or"/>
    <s:alias val="$logic_or"/>
    <s:alias val="$_OR_"/>
    <path d="M0,25 L0,25 L15,25 A15 12.5 0 0 0 15,0 L0,0" class="cell_$or$.yosys_tmp/MagComp_msb.sv:17$90"/>
    <path d="M0,0 A30 25 0 0 1 0,25" class="cell_$or$.yosys_tmp/MagComp_msb.sv:17$90"/>
    <g s:x="3" s:y="5" s:pid="A"/>
    <g s:x="3" s:y="20" s:pid="B"/>
    <g s:x="30" s:y="12.5" s:pid="Y"/>
  </g>
  <g s:type="reduce_xor" transform="translate(77,32)" s:width="33" s:height="25" id="cell_$xor$.yosys_tmp/MagComp_msb.sv:11$69">
    <s:alias val="$xor"/>
    <s:alias val="$reduce_xor"/>
    <s:alias val="$_XOR_"/>
    <path d="M3,0 A30 25 0 0 1 3,25 A30 25 0 0 0 33,12.5 A30 25 0 0 0 3,0" class="cell_$xor$.yosys_tmp/MagComp_msb.sv:11$69"/>
    <path d="M0,0 A30 25 0 0 1 0,25" class="cell_$xor$.yosys_tmp/MagComp_msb.sv:11$69"/>
    <g s:x="3" s:y="5" s:pid="A"/>
    <g s:x="3" s:y="20" s:pid="B"/>
    <g s:x="33" s:y="12.5" s:pid="Y"/>
  </g>
  <g s:type="inputExt" transform="translate(12,27)" s:width="30" s:height="20" id="cell_a">
    <text x="15" y="-4" class="nodelabel cell_a" s:attribute="ref">a</text>
    <s:alias val="$_inputExt_"/>
    <path d="M0,0 L0,20 L15,20 L30,10 L15,0 Z" class="cell_a"/>
    <g s:x="28" s:y="10" s:pid="Y"/>
  </g>
  <g s:type="inputExt" transform="translate(12,258.5)" s:width="30" s:height="20" id="cell_b">
    <text x="15" y="-4" class="nodelabel cell_b" s:attribute="ref">b</text>
    <s:alias val="$_inputExt_"/>
    <path d="M0,0 L0,20 L15,20 L30,10 L15,0 Z" class="cell_b"/>
    <g s:x="28" s:y="10" s:pid="Y"/>
  </g>
  <g s:type="outputExt" transform="translate(1172,408)" s:width="30" s:height="20" id="cell_gt">
    <text x="15" y="-4" class="nodelabel cell_gt" s:attribute="ref">gt</text>
    <s:alias val="$_outputExt_"/>
    <path d="M30,0 L30,20 L15,20 L0,10 L15,0 Z" class="cell_gt"/>
    <g s:x="0" s:y="10" s:pid="A"/>
  </g>
  <g s:type="split" transform="translate(210,24)" s:width="5" s:height="40" id="cell_$split$,63,35,37,40,43,46,49,52,">
    <rect width="5" height="140" class="splitjoinBody" s:generic="body"/>
    <s:alias val="$_split_"/>
    <g s:x="0" s:y="20" s:pid="in"/>
    <g transform="translate(4,10)" s:x="4" s:y="10" s:pid="out0">
      <text x="5" y="-4">1</text>
    </g>
    <g transform="translate(4,30)" s:x="4" s:y="10" s:pid="out0">
      <text x="5" y="-4">2</text>
    </g>
    <g transform="translate(4,50)" s:x="4" s:y="10" s:pid="out0">
      <text x="5" y="-4">3</text>
    </g>
    <g transform="translate(4,70)" s:x="4" s:y="10" s:pid="out0">
      <text x="5" y="-4">4</text>
    </g>
    <g transform="translate(4,90)" s:x="4" s:y="10" s:pid="out0">
      <text x="5" y="-4">5</text>
    </g>
    <g transform="translate(4,110)" s:x="4" s:y="10" s:pid="out0">
      <text x="5" y="-4">6</text>
    </g>
    <g transform="translate(4,130)" s:x="4" s:y="10" s:pid="out0">
      <text x="5" y="-4">7</text>
    </g>
  </g>
  <g s:type="split" transform="translate(210,240.5)" s:width="5" s:height="40" id="cell_$split$,27,28,29,30,31,32,33,34,">
    <rect width="5" height="160" class="splitjoinBody" s:generic="body"/>
    <s:alias val="$_split_"/>
    <g s:x="0" s:y="20" s:pid="in"/>
    <g transform="translate(4,10)" s:x="4" s:y="10" s:pid="out0">
      <text x="5" y="-4">0</text>
    </g>
    <g transform="translate(4,30)" s:x="4" s:y="10" s:pid="out0">
      <text x="5" y="-4">1</text>
    </g>
    <g transform="translate(4,50)" s:x="4" s:y="10" s:pid="out0">
      <text x="5" y="-4">2</text>
    </g>
    <g transform="translate(4,70)" s:x="4" s:y="10" s:pid="out0">
      <text x="5" y="-4">3</text>
    </g>
    <g transform="translate(4,90)" s:x="4" s:y="10" s:pid="out0">
      <text x="5" y="-4">4</text>
    </g>
    <g transform="translate(4,110)" s:x="4" s:y="10" s:pid="out0">
      <text x="5" y="-4">5</text>
    </g>
    <g transform="translate(4,130)" s:x="4" s:y="10" s:pid="out0">
      <text x="5" y="-4">6</text>
    </g>
    <g transform="translate(4,150)" s:x="4" s:y="10" s:pid="out0">
      <text x="5" y="-4">7</text>
    </g>
  </g>
  <line x1="40" x2="52" y1="37" y2="37" class="net_2,3,4,5,6,7,8,9"/>
  <line x1="52" x2="52" y1="37" y2="21" class="net_2,3,4,5,6,7,8,9"/>
  <line x1="52" x2="120" y1="21" y2="21" class="net_2,3,4,5,6,7,8,9"/>
  <line x1="120" x2="120" y1="21" y2="253.5" class="net_2,3,4,5,6,7,8,9"/>
  <circle cx="52" cy="37" r="2" style="fill:#000" class="net_2,3,4,5,6,7,8,9"/>
  <line x1="120" x2="145" y1="253.5" y2="253.5" class="net_2,3,4,5,6,7,8,9"/>
  <line x1="40" x2="80" y1="37" y2="37" class="net_2,3,4,5,6,7,8,9"/>
  <line x1="103.5" x2="145" y1="268.5" y2="268.5" class="net_19,20,21,22,23,24,25,26"/>
  <line x1="214.5" x2="214.5" y1="34" y2="12" class="net_35"/>
  <line x1="214.5" x2="252" y1="12" y2="12" class="net_35"/>
  <line x1="252" x2="252" y1="12" y2="169" class="net_35"/>
  <line x1="252" x2="262" y1="169" y2="169" class="net_35"/>
  <line x1="214.5" x2="214.5" y1="250.5" y2="184" class="net_27"/>
  <line x1="214.5" x2="262" y1="184" y2="184" class="net_27"/>
  <line x1="215" x2="232" y1="54.5" y2="54.5" class="net_37"/>
  <line x1="232" x2="232" y1="54.5" y2="72.5" class="net_37"/>
  <line x1="232" x2="367" y1="72.5" y2="72.5" class="net_37"/>
  <line x1="367" x2="367" y1="72.5" y2="154" class="net_37"/>
  <line x1="367" x2="392" y1="154" y2="154" class="net_37"/>
  <line x1="357" x2="392" y1="169" y2="169" class="net_38"/>
  <line x1="215" x2="232" y1="74.5" y2="74.5" class="net_40"/>
  <line x1="232" x2="232" y1="74.5" y2="83.5" class="net_40"/>
  <line x1="232" x2="497" y1="83.5" y2="83.5" class="net_40"/>
  <line x1="497" x2="497" y1="83.5" y2="139" class="net_40"/>
  <line x1="497" x2="522" y1="139" y2="139" class="net_40"/>
  <line x1="487" x2="522" y1="154" y2="154" class="net_41"/>
  <line x1="215" x2="627" y1="94.5" y2="94.5" class="net_43"/>
  <line x1="627" x2="627" y1="94.5" y2="124" class="net_43"/>
  <line x1="627" x2="652" y1="124" y2="124" class="net_43"/>
  <line x1="617" x2="652" y1="139" y2="139" class="net_44"/>
  <line x1="215" x2="232" y1="114.5" y2="114.5" class="net_46"/>
  <line x1="232" x2="232" y1="114.5" y2="108" class="net_46"/>
  <line x1="232" x2="757" y1="108" y2="108" class="net_46"/>
  <line x1="757" x2="757" y1="108" y2="222.5" class="net_46"/>
  <line x1="757" x2="782" y1="222.5" y2="222.5" class="net_46"/>
  <line x1="747" x2="782" y1="237.5" y2="237.5" class="net_47"/>
  <line x1="215" x2="242" y1="134.5" y2="134.5" class="net_49"/>
  <line x1="242" x2="242" y1="134.5" y2="199" class="net_49"/>
  <line x1="242" x2="887" y1="199" y2="199" class="net_49"/>
  <line x1="887" x2="887" y1="199" y2="207.5" class="net_49"/>
  <line x1="887" x2="912" y1="207.5" y2="207.5" class="net_49"/>
  <line x1="877" x2="912" y1="222.5" y2="222.5" class="net_50"/>
  <line x1="214.5" x2="214.5" y1="155" y2="174" class="net_52"/>
  <line x1="214.5" x2="232" y1="174" y2="174" class="net_52"/>
  <line x1="232" x2="232" y1="174" y2="260" class="net_52"/>
  <line x1="232" x2="1017" y1="260" y2="260" class="net_52"/>
  <line x1="1017" x2="1017" y1="260" y2="373" class="net_52"/>
  <line x1="1017" x2="1042" y1="373" y2="373" class="net_52"/>
  <line x1="1007" x2="1042" y1="388" y2="388" class="net_53"/>
  <line x1="110" x2="145" y1="44.5" y2="44.5" class="net_55,56,57,58,59,60,61,62"/>
  <line x1="40" x2="78.5" y1="268.5" y2="268.5" class="net_10,11,12,13,14,15,16,17"/>
  <line x1="40" x2="52" y1="268.5" y2="268.5" class="net_10,11,12,13,14,15,16,17"/>
  <line x1="52" x2="52" y1="268.5" y2="52" class="net_10,11,12,13,14,15,16,17"/>
  <circle cx="52" cy="268.5" r="2" style="fill:#000" class="net_10,11,12,13,14,15,16,17"/>
  <line x1="52" x2="80" y1="52" y2="52" class="net_10,11,12,13,14,15,16,17"/>
  <line x1="215" x2="302" y1="271" y2="271" class="net_28"/>
  <line x1="302" x2="302" y1="271" y2="161.5" class="net_28"/>
  <line x1="302" x2="330" y1="161.5" y2="161.5" class="net_28"/>
  <line x1="292" x2="330" y1="176.5" y2="176.5" class="net_36"/>
  <line x1="215" x2="432" y1="291" y2="291" class="net_29"/>
  <line x1="432" x2="432" y1="291" y2="146.5" class="net_29"/>
  <line x1="432" x2="460" y1="146.5" y2="146.5" class="net_29"/>
  <line x1="422" x2="460" y1="161.5" y2="161.5" class="net_39"/>
  <line x1="215" x2="562" y1="311" y2="311" class="net_30"/>
  <line x1="562" x2="562" y1="311" y2="131.5" class="net_30"/>
  <line x1="562" x2="590" y1="131.5" y2="131.5" class="net_30"/>
  <line x1="552" x2="590" y1="146.5" y2="146.5" class="net_42"/>
  <line x1="215" x2="692" y1="331" y2="331" class="net_31"/>
  <line x1="692" x2="692" y1="331" y2="230" class="net_31"/>
  <line x1="692" x2="720" y1="230" y2="230" class="net_31"/>
  <line x1="682" x2="702" y1="131.5" y2="131.5" class="net_45"/>
  <line x1="702" x2="702" y1="131.5" y2="245" class="net_45"/>
  <line x1="702" x2="720" y1="245" y2="245" class="net_45"/>
  <line x1="215" x2="822" y1="351" y2="351" class="net_32"/>
  <line x1="822" x2="822" y1="351" y2="215" class="net_32"/>
  <line x1="822" x2="850" y1="215" y2="215" class="net_32"/>
  <line x1="812" x2="850" y1="230" y2="230" class="net_48"/>
  <line x1="215" x2="232" y1="371" y2="371" class="net_33"/>
  <line x1="232" x2="232" y1="371" y2="380.5" class="net_33"/>
  <line x1="232" x2="980" y1="380.5" y2="380.5" class="net_33"/>
  <line x1="942" x2="952" y1="215" y2="215" class="net_51"/>
  <line x1="952" x2="952" y1="215" y2="395.5" class="net_51"/>
  <line x1="952" x2="980" y1="395.5" y2="395.5" class="net_51"/>
  <line x1="214.5" x2="214.5" y1="391.5" y2="410.5" class="net_34"/>
  <line x1="214.5" x2="1110" y1="410.5" y2="410.5" class="net_34"/>
  <line x1="1072" x2="1082" y1="380.5" y2="380.5" class="net_54"/>
  <line x1="1082" x2="1082" y1="380.5" y2="425.5" class="net_54"/>
  <line x1="1082" x2="1110" y1="425.5" y2="425.5" class="net_54"/>
  <line x1="1137" x2="1172" y1="418" y2="418" class="net_18"/>
  <line x1="170" x2="210" y1="44.5" y2="44.5" class="net_63,35,37,40,43,46,49,52"/>
  <line x1="175" x2="210" y1="261" y2="261" class="net_27,28,29,30,31,32,33,34"/>
</svg>
