<svg style="background:white" xmlns="http://www.w3.org/2000/svg" xmlns:xlink="http://www.w3.org/1999/xlink" xmlns:s="https://github.com/nturley/netlistsvg" width="287" height="374">
  <style>svg {
    stroke:#000;
    fill:none;
  }
  text {
    fill:#000;
    stroke:none;
    font-size:10px;
    font-weight: bold;
    font-family: "Courier New", monospace;
  }
  .nodelabel {
    text-anchor: middle;
  }
  .inputPortLabel {
    text-anchor: end;
  }
  .splitjoinBody {
    fill:#000;
  }</style>
  <g s:type="mux" transform="translate(190,57)" s:width="20" s:height="40" id="cell_$procmux$12">
    <s:alias val="$pmux"/>
    <s:alias val="$mux"/>
    <s:alias val="$_MUX_"/>
    <path d="M0,0 L20,10 L20,30 L0,40 Z" class="cell_$procmux$12"/>
    <g s:x="0" s:y="10" s:pid="A"/>
    <g s:x="0" s:y="30" s:pid="B"/>
    <g s:x="10" s:y="35" s:pid="S"/>
    <g s:x="20" s:y="20" s:pid="Y"/>
  </g>
  <g s:type="eq" transform="translate(78.66666666666667,207)" s:width="25" s:height="25" id="cell_$procmux$13_CMP0">
    <s:alias val="$eq"/>
    <circle r="12.5" cx="12.5" cy="12.5" class="cell_$procmux$13_CMP0"/>
    <line x1="7.5" x2="17.5" y1="10" y2="10" class="cell_$procmux$13_CMP0"/>
    <line x1="7.5" x2="17.5" y1="15" y2="15" class="cell_$procmux$13_CMP0"/>
    <g s:x="3" s:y="5" s:pid="A"/>
    <g s:x="3" s:y="20" s:pid="B"/>
    <g s:x="25" s:y="12.5" s:pid="Y"/>
  </g>
  <g s:type="eq" transform="translate(78.66666666666667,267)" s:width="25" s:height="25" id="cell_$procmux$14_CMP0">
    <s:alias val="$eq"/>
    <circle r="12.5" cx="12.5" cy="12.5" class="cell_$procmux$14_CMP0"/>
    <line x1="7.5" x2="17.5" y1="10" y2="10" class="cell_$procmux$14_CMP0"/>
    <line x1="7.5" x2="17.5" y1="15" y2="15" class="cell_$procmux$14_CMP0"/>
    <g s:x="3" s:y="5" s:pid="A"/>
    <g s:x="3" s:y="20" s:pid="B"/>
    <g s:x="25" s:y="12.5" s:pid="Y"/>
  </g>
  <g s:type="eq" transform="translate(78.66666666666667,332)" s:width="25" s:height="25" id="cell_$procmux$15_CMP0">
    <s:alias val="$eq"/>
    <circle r="12.5" cx="12.5" cy="12.5" class="cell_$procmux$15_CMP0"/>
    <line x1="7.5" x2="17.5" y1="10" y2="10" class="cell_$procmux$15_CMP0"/>
    <line x1="7.5" x2="17.5" y1="15" y2="15" class="cell_$procmux$15_CMP0"/>
    <g s:x="3" s:y="5" s:pid="A"/>
    <g s:x="3" s:y="20" s:pid="B"/>
    <g s:x="25" s:y="12.5" s:pid="Y"/>
  </g>
  <g s:type="inputExt" transform="translate(77,152)" s:width="30" s:height="20" id="cell_a0">
    <text x="15" y="-4" class="nodelabel cell_a0" s:attribute="ref">a0</text>
    <s:alias val="$_inputExt_"/>
    <path d="M0,0 L0,20 L15,20 L30,10 L15,0 Z" class="cell_a0"/>
    <g s:x="28" s:y="10" s:pid="Y"/>
  </g>
  <g s:type="inputExt" transform="translate(77,87)" s:width="30" s:height="20" id="cell_a1">
    <text x="15" y="-4" class="nodelabel cell_a1" s:attribute="ref">a1</text>
    <s:alias val="$_inputExt_"/>
    <path d="M0,0 L0,20 L15,20 L30,10 L15,0 Z" class="cell_a1"/>
    <g s:x="28" s:y="10" s:pid="Y"/>
  </g>
  <g s:type="inputExt" transform="translate(77,22)" s:width="30" s:height="20" id="cell_a2">
    <text x="15" y="-4" class="nodelabel cell_a2" s:attribute="ref">a2</text>
    <s:alias val="$_inputExt_"/>
    <path d="M0,0 L0,20 L15,20 L30,10 L15,0 Z" class="cell_a2"/>
    <g s:x="28" s:y="10" s:pid="Y"/>
  </g>
  <g s:type="inputExt" transform="translate(12,202)" s:width="30" s:height="20" id="cell_s">
    <text x="15" y="-4" class="nodelabel cell_s" s:attribute="ref">s</text>
    <s:alias val="$_inputExt_"/>
    <path d="M0,0 L0,20 L15,20 L30,10 L15,0 Z" class="cell_s"/>
    <g s:x="28" s:y="10" s:pid="Y"/>
  </g>
  <g s:type="outputExt" transform="translate(245,67)" s:width="30" s:height="20" id="cell_b">
    <text x="15" y="-4" class="nodelabel cell_b" s:attribute="ref">b</text>
    <s:alias val="$_outputExt_"/>
    <path d="M30,0 L30,20 L15,20 L0,10 L15,0 Z" class="cell_b"/>
    <g s:x="0" s:y="10" s:pid="A"/>
  </g>
  <g s:type="constant" transform="translate(12,137)" s:width="30" s:height="20" id="cell_100">
    <text x="15" y="-4" class="nodelabel cell_100" s:attribute="ref">100</text>
    <s:alias val="$_constant_"/>
    <rect width="30" height="20" class="cell_100"/>
    <g s:x="30" s:y="10" s:pid="Y"/>
  </g>
  <g s:type="constant" transform="translate(12,277)" s:width="30" s:height="20" id="cell_10">
    <text x="15" y="-4" class="nodelabel cell_10" s:attribute="ref">10</text>
    <s:alias val="$_constant_"/>
    <rect width="30" height="20" class="cell_10"/>
    <g s:x="30" s:y="10" s:pid="Y"/>
  </g>
  <g s:type="constant" transform="translate(12,342)" s:width="30" s:height="20" id="cell_1">
    <text x="15" y="-4" class="nodelabel cell_1" s:attribute="ref">1</text>
    <s:alias val="$_constant_"/>
    <rect width="30" height="20" class="cell_1"/>
    <g s:x="30" s:y="10" s:pid="Y"/>
  </g>
  <g s:type="join" transform="translate(149,66.5)" s:width="4" s:height="40" id="cell_$join$,4,3,2,">
    <rect width="5" height="60" class="splitjoinBody" s:generic="body"/>
    <s:alias val="$_join_"/>
    <g s:x="5" s:y="20" s:pid="out"/>
    <g transform="translate(0,10)" s:x="0" s:y="10" s:pid="in0">
      <text x="-3" y="-4" class="inputPortLabel">0</text>
    </g>
    <g transform="translate(0,30)" s:x="0" s:y="10" s:pid="in0">
      <text x="-3" y="-4" class="inputPortLabel">1</text>
    </g>
    <g transform="translate(0,50)" s:x="0" s:y="10" s:pid="in0">
      <text x="-3" y="-4" class="inputPortLabel">2</text>
    </g>
  </g>
  <g s:type="join" transform="translate(149,249)" s:width="4" s:height="40" id="cell_$join$,9,10,11,">
    <rect width="5" height="60" class="splitjoinBody" s:generic="body"/>
    <s:alias val="$_join_"/>
    <g s:x="5" s:y="20" s:pid="out"/>
    <g transform="translate(0,10)" s:x="0" s:y="10" s:pid="in0">
      <text x="-3" y="-4" class="inputPortLabel">0</text>
    </g>
    <g transform="translate(0,30)" s:x="0" s:y="10" s:pid="in0">
      <text x="-3" y="-4" class="inputPortLabel">1</text>
    </g>
    <g transform="translate(0,50)" s:x="0" s:y="10" s:pid="in0">
      <text x="-3" y="-4" class="inputPortLabel">2</text>
    </g>
  </g>
  <line x1="155" x2="190" y1="87" y2="87" class="net_4,3,2"/>
  <line x1="155" x2="200" y1="269.5" y2="269.5" class="net_9,10,11"/>
  <line x1="200" x2="200" y1="269.5" y2="92" class="net_9,10,11"/>
  <line x1="40" x2="81.66666666666667" y1="212" y2="212" class="net_5,6,7"/>
  <line x1="40" x2="52" y1="212" y2="212" class="net_5,6,7"/>
  <line x1="52" x2="52" y1="212" y2="272" class="net_5,6,7"/>
  <circle cx="52" cy="212" r="2" style="fill:#000" class="net_5,6,7"/>
  <circle cx="52" cy="272" r="2" style="fill:#000" class="net_5,6,7"/>
  <line x1="52" x2="81.66666666666667" y1="272" y2="272" class="net_5,6,7"/>
  <line x1="40" x2="52" y1="212" y2="212" class="net_5,6,7"/>
  <line x1="52" x2="52" y1="212" y2="337" class="net_5,6,7"/>
  <line x1="52" x2="81.66666666666667" y1="337" y2="337" class="net_5,6,7"/>
  <line x1="42" x2="62" y1="147" y2="147" class="net_12,13,14"/>
  <line x1="62" x2="62" y1="147" y2="227" class="net_12,13,14"/>
  <line x1="62" x2="81.66666666666667" y1="227" y2="227" class="net_12,13,14"/>
  <line x1="42" x2="81.66666666666667" y1="287" y2="287" class="net_15,16"/>
  <line x1="42" x2="81.66666666666667" y1="352" y2="352" class="net_17"/>
  <line x1="210" x2="245" y1="77" y2="77" class="net_8"/>
  <line x1="105" x2="117" y1="32" y2="32" class="net_4"/>
  <line x1="117" x2="117" y1="32" y2="77" class="net_4"/>
  <line x1="117" x2="149" y1="77" y2="77" class="net_4"/>
  <line x1="105" x2="149" y1="97" y2="97" class="net_3"/>
  <line x1="105" x2="117" y1="162" y2="162" class="net_2"/>
  <line x1="117" x2="117" y1="162" y2="117" class="net_2"/>
  <line x1="117" x2="149" y1="117" y2="117" class="net_2"/>
  <line x1="103.66666666666667" x2="117" y1="219.5" y2="219.5" class="net_9"/>
  <line x1="117" x2="117" y1="219.5" y2="259.5" class="net_9"/>
  <line x1="117" x2="149" y1="259.5" y2="259.5" class="net_9"/>
  <line x1="103.66666666666667" x2="149" y1="279.5" y2="279.5" class="net_10"/>
  <line x1="103.66666666666667" x2="117" y1="344.5" y2="344.5" class="net_11"/>
  <line x1="117" x2="117" y1="344.5" y2="299.5" class="net_11"/>
  <line x1="117" x2="149" y1="299.5" y2="299.5" class="net_11"/>
</svg>
