<svg style="background:white" xmlns="http://www.w3.org/2000/svg" xmlns:xlink="http://www.w3.org/1999/xlink" xmlns:s="https://github.com/nturley/netlistsvg" width="350" height="456">
  <style>svg {
    stroke:#000;
    fill:none;
  }
  text {
    fill:#000;
    stroke:none;
    font-size:10px;
    font-weight: bold;
    font-family: "Courier New", monospace;
  }
  .nodelabel {
    text-anchor: middle;
  }
  .inputPortLabel {
    text-anchor: end;
  }
  .splitjoinBody {
    fill:#000;
  }</style>
  <g s:type="or" transform="translate(243,72)" s:width="30" s:height="25" id="cell_$or$.yosys_tmp/Mux6a.sv:11$2">
    <s:alias val="$or"/>
    <s:alias val="$logic_or"/>
    <s:alias val="$_OR_"/>
    <path d="M0,25 L0,25 L15,25 A15 12.5 0 0 0 15,0 L0,0" class="cell_$or$.yosys_tmp/Mux6a.sv:11$2"/>
    <path d="M0,0 A30 25 0 0 1 0,25" class="cell_$or$.yosys_tmp/Mux6a.sv:11$2"/>
    <g s:x="3" s:y="5" s:pid="A"/>
    <g s:x="3" s:y="20" s:pid="B"/>
    <g s:x="30" s:y="12.5" s:pid="Y"/>
  </g>
  <g s:type="generic" transform="translate(170,66.5)" s:width="30" s:height="40" id="cell_ma">
    <text x="15" y="-4" class="nodelabel cell_ma" s:attribute="ref">$paramod\Mux3a\K=s32'00000000000000000000000000000001</text>
    <rect width="30" height="80" s:generic="body" class="cell_ma"/>
    <g transform="translate(0,10)" s:x="0" s:y="10" s:pid="in0" id="port_ma~a0">
      <text x="-3" y="-4" class="inputPortLabel cell_ma">a0</text>
    </g>
    <g transform="translate(0,30)" s:x="0" s:y="10" s:pid="in0" id="port_ma~a1">
      <text x="-3" y="-4" class="inputPortLabel cell_ma">a1</text>
    </g>
    <g transform="translate(0,50)" s:x="0" s:y="10" s:pid="in0" id="port_ma~a2">
      <text x="-3" y="-4" class="inputPortLabel cell_ma">a2</text>
    </g>
    <g transform="translate(0,70)" s:x="0" s:y="10" s:pid="in0" id="port_ma~s">
      <text x="-3" y="-4" class="inputPortLabel cell_ma">s</text>
    </g>
    <g transform="translate(30,10)" s:x="30" s:y="10" s:pid="out0" id="port_ma~b">
      <text x="5" y="-4" style="fill:#000; stroke:none" class="cell_ma">b</text>
    </g>
  </g>
  <g s:type="generic" transform="translate(170,234)" s:width="30" s:height="40" id="cell_mb">
    <text x="15" y="-4" class="nodelabel cell_mb" s:attribute="ref">$paramod\Mux3a\K=s32'00000000000000000000000000000001</text>
    <rect width="30" height="80" s:generic="body" class="cell_mb"/>
    <g transform="translate(0,10)" s:x="0" s:y="10" s:pid="in0" id="port_mb~a0">
      <text x="-3" y="-4" class="inputPortLabel cell_mb">a0</text>
    </g>
    <g transform="translate(0,30)" s:x="0" s:y="10" s:pid="in0" id="port_mb~a1">
      <text x="-3" y="-4" class="inputPortLabel cell_mb">a1</text>
    </g>
    <g transform="translate(0,50)" s:x="0" s:y="10" s:pid="in0" id="port_mb~a2">
      <text x="-3" y="-4" class="inputPortLabel cell_mb">a2</text>
    </g>
    <g transform="translate(0,70)" s:x="0" s:y="10" s:pid="in0" id="port_mb~s">
      <text x="-3" y="-4" class="inputPortLabel cell_mb">s</text>
    </g>
    <g transform="translate(30,10)" s:x="30" s:y="10" s:pid="out0" id="port_mb~b">
      <text x="5" y="-4" style="fill:#000; stroke:none" class="cell_mb">b</text>
    </g>
  </g>
  <g s:type="inputExt" transform="translate(77,152)" s:width="30" s:height="20" id="cell_a0">
    <text x="15" y="-4" class="nodelabel cell_a0" s:attribute="ref">a0</text>
    <s:alias val="$_inputExt_"/>
    <path d="M0,0 L0,20 L15,20 L30,10 L15,0 Z" class="cell_a0"/>
    <g s:x="28" s:y="10" s:pid="Y"/>
  </g>
  <g s:type="inputExt" transform="translate(77,87)" s:width="30" s:height="20" id="cell_a1">
    <text x="15" y="-4" class="nodelabel cell_a1" s:attribute="ref">a1</text>
    <s:alias val="$_inputExt_"/>
    <path d="M0,0 L0,20 L15,20 L30,10 L15,0 Z" class="cell_a1"/>
    <g s:x="28" s:y="10" s:pid="Y"/>
  </g>
  <g s:type="inputExt" transform="translate(77,22)" s:width="30" s:height="20" id="cell_a2">
    <text x="15" y="-4" class="nodelabel cell_a2" s:attribute="ref">a2</text>
    <s:alias val="$_inputExt_"/>
    <path d="M0,0 L0,20 L15,20 L30,10 L15,0 Z" class="cell_a2"/>
    <g s:x="28" s:y="10" s:pid="Y"/>
  </g>
  <g s:type="inputExt" transform="translate(77,217)" s:width="30" s:height="20" id="cell_a3">
    <text x="15" y="-4" class="nodelabel cell_a3" s:attribute="ref">a3</text>
    <s:alias val="$_inputExt_"/>
    <path d="M0,0 L0,20 L15,20 L30,10 L15,0 Z" class="cell_a3"/>
    <g s:x="28" s:y="10" s:pid="Y"/>
  </g>
  <g s:type="inputExt" transform="translate(77,359)" s:width="30" s:height="20" id="cell_a4">
    <text x="15" y="-4" class="nodelabel cell_a4" s:attribute="ref">a4</text>
    <s:alias val="$_inputExt_"/>
    <path d="M0,0 L0,20 L15,20 L30,10 L15,0 Z" class="cell_a4"/>
    <g s:x="28" s:y="10" s:pid="Y"/>
  </g>
  <g s:type="inputExt" transform="translate(77,424)" s:width="30" s:height="20" id="cell_a5">
    <text x="15" y="-4" class="nodelabel cell_a5" s:attribute="ref">a5</text>
    <s:alias val="$_inputExt_"/>
    <path d="M0,0 L0,20 L15,20 L30,10 L15,0 Z" class="cell_a5"/>
    <g s:x="28" s:y="10" s:pid="Y"/>
  </g>
  <g s:type="inputExt" transform="translate(12,284.5)" s:width="30" s:height="20" id="cell_s">
    <text x="15" y="-4" class="nodelabel cell_s" s:attribute="ref">s</text>
    <s:alias val="$_inputExt_"/>
    <path d="M0,0 L0,20 L15,20 L30,10 L15,0 Z" class="cell_s"/>
    <g s:x="28" s:y="10" s:pid="Y"/>
  </g>
  <g s:type="outputExt" transform="translate(308,74.5)" s:width="30" s:height="20" id="cell_b">
    <text x="15" y="-4" class="nodelabel cell_b" s:attribute="ref">b</text>
    <s:alias val="$_outputExt_"/>
    <path d="M30,0 L30,20 L15,20 L0,10 L15,0 Z" class="cell_b"/>
    <g s:x="0" s:y="10" s:pid="A"/>
  </g>
  <g s:type="split" transform="translate(83,274)" s:width="5" s:height="40" id="cell_$split$,8,9,10,11,12,13,">
    <rect width="5" height="40" class="splitjoinBody" s:generic="body"/>
    <s:alias val="$_split_"/>
    <g s:x="0" s:y="20" s:pid="in"/>
    <g transform="translate(4,10)" s:x="4" s:y="10" s:pid="out0">
      <text x="5" y="-4">0:2</text>
    </g>
    <g transform="translate(4,30)" s:x="4" s:y="10" s:pid="out0">
      <text x="5" y="-4">3:5</text>
    </g>
  </g>
  <line x1="201" x2="246" y1="77" y2="77" class="net_15"/>
  <line x1="201" x2="218" y1="244.5" y2="244.5" class="net_16"/>
  <line x1="218" x2="218" y1="244.5" y2="92" class="net_16"/>
  <line x1="218" x2="246" y1="92" y2="92" class="net_16"/>
  <line x1="105" x2="117" y1="32" y2="32" class="net_4"/>
  <line x1="117" x2="117" y1="32" y2="77" class="net_4"/>
  <line x1="117" x2="170" y1="77" y2="77" class="net_4"/>
  <line x1="105" x2="170" y1="97" y2="97" class="net_3"/>
  <line x1="105" x2="117" y1="162" y2="162" class="net_2"/>
  <line x1="117" x2="117" y1="162" y2="117" class="net_2"/>
  <line x1="117" x2="170" y1="117" y2="117" class="net_2"/>
  <line x1="88" x2="127" y1="284.5" y2="284.5" class="net_8,9,10"/>
  <line x1="127" x2="127" y1="284.5" y2="137" class="net_8,9,10"/>
  <line x1="127" x2="170" y1="137" y2="137" class="net_8,9,10"/>
  <line x1="105" x2="137" y1="227" y2="227" class="net_5"/>
  <line x1="137" x2="137" y1="227" y2="244.5" class="net_5"/>
  <line x1="137" x2="170" y1="244.5" y2="244.5" class="net_5"/>
  <line x1="105" x2="137" y1="369" y2="369" class="net_6"/>
  <line x1="137" x2="137" y1="369" y2="264.5" class="net_6"/>
  <line x1="137" x2="170" y1="264.5" y2="264.5" class="net_6"/>
  <line x1="105" x2="147" y1="434" y2="434" class="net_7"/>
  <line x1="147" x2="147" y1="434" y2="284.5" class="net_7"/>
  <line x1="147" x2="170" y1="284.5" y2="284.5" class="net_7"/>
  <line x1="88" x2="170" y1="304.5" y2="304.5" class="net_11,12,13"/>
  <line x1="273" x2="308" y1="84.5" y2="84.5" class="net_14"/>
  <line x1="40" x2="83" y1="294.5" y2="294.5" class="net_8,9,10,11,12,13"/>
</svg>
