<svg style="background:white" xmlns="http://www.w3.org/2000/svg" xmlns:xlink="http://www.w3.org/1999/xlink" xmlns:s="https://github.com/nturley/netlistsvg" width="304" height="389.5">
  <style>svg {
    stroke:#000;
    fill:none;
  }
  text {
    fill:#000;
    stroke:none;
    font-size:10px;
    font-weight: bold;
    font-family: "Courier New", monospace;
  }
  .nodelabel {
    text-anchor: middle;
  }
  .inputPortLabel {
    text-anchor: end;
  }
  .splitjoinBody {
    fill:#000;
  }</style>
  <g s:type="mux" transform="translate(207,22)" s:width="20" s:height="40" id="cell_$procmux$13">
    <s:alias val="$pmux"/>
    <s:alias val="$mux"/>
    <s:alias val="$_MUX_"/>
    <path d="M0,0 L20,10 L20,30 L0,40 Z" class="cell_$procmux$13"/>
    <g s:x="0" s:y="10" s:pid="A"/>
    <g s:x="0" s:y="30" s:pid="B"/>
    <g s:x="10" s:y="35" s:pid="S"/>
    <g s:x="20" s:y="20" s:pid="Y"/>
  </g>
  <g s:type="eq" transform="translate(78.66666666666667,217.5)" s:width="25" s:height="25" id="cell_$procmux$14_CMP0">
    <s:alias val="$eq"/>
    <circle r="12.5" cx="12.5" cy="12.5" class="cell_$procmux$14_CMP0"/>
    <line x1="7.5" x2="17.5" y1="10" y2="10" class="cell_$procmux$14_CMP0"/>
    <line x1="7.5" x2="17.5" y1="15" y2="15" class="cell_$procmux$14_CMP0"/>
    <g s:x="3" s:y="5" s:pid="A"/>
    <g s:x="3" s:y="20" s:pid="B"/>
    <g s:x="25" s:y="12.5" s:pid="Y"/>
  </g>
  <g s:type="eq" transform="translate(78.66666666666667,297.5)" s:width="25" s:height="25" id="cell_$procmux$15_CMP0">
    <s:alias val="$eq"/>
    <circle r="12.5" cx="12.5" cy="12.5" class="cell_$procmux$15_CMP0"/>
    <line x1="7.5" x2="17.5" y1="10" y2="10" class="cell_$procmux$15_CMP0"/>
    <line x1="7.5" x2="17.5" y1="15" y2="15" class="cell_$procmux$15_CMP0"/>
    <g s:x="3" s:y="5" s:pid="A"/>
    <g s:x="3" s:y="20" s:pid="B"/>
    <g s:x="25" s:y="12.5" s:pid="Y"/>
  </g>
  <g s:type="not" transform="translate(77,357.5)" s:width="30" s:height="20" id="cell_$procmux$16_CMP0">
    <s:alias val="$_NOT_"/>
    <s:alias val="$not"/>
    <s:alias val="$logic_not"/>
    <path d="M0,0 L0,20 L20,10 Z" class="cell_$procmux$16_CMP0"/>
    <circle cx="23" cy="10" r="3" class="cell_$procmux$16_CMP0"/>
    <g s:x="0" s:y="10" s:pid="A"/>
    <g s:x="25" s:y="10" s:pid="Y"/>
  </g>
  <g s:type="inputExt" transform="translate(77,162.5)" s:width="30" s:height="20" id="cell_a0">
    <text x="15" y="-4" class="nodelabel cell_a0" s:attribute="ref">a0</text>
    <s:alias val="$_inputExt_"/>
    <path d="M0,0 L0,20 L15,20 L30,10 L15,0 Z" class="cell_a0"/>
    <g s:x="28" s:y="10" s:pid="Y"/>
  </g>
  <g s:type="inputExt" transform="translate(77,97.5)" s:width="30" s:height="20" id="cell_a1">
    <text x="15" y="-4" class="nodelabel cell_a1" s:attribute="ref">a1</text>
    <s:alias val="$_inputExt_"/>
    <path d="M0,0 L0,20 L15,20 L30,10 L15,0 Z" class="cell_a1"/>
    <g s:x="28" s:y="10" s:pid="Y"/>
  </g>
  <g s:type="inputExt" transform="translate(77,32.5)" s:width="30" s:height="20" id="cell_a2">
    <text x="15" y="-4" class="nodelabel cell_a2" s:attribute="ref">a2</text>
    <s:alias val="$_inputExt_"/>
    <path d="M0,0 L0,20 L15,20 L30,10 L15,0 Z" class="cell_a2"/>
    <g s:x="28" s:y="10" s:pid="Y"/>
  </g>
  <g s:type="inputExt" transform="translate(12,292.5)" s:width="30" s:height="20" id="cell_sb">
    <text x="15" y="-4" class="nodelabel cell_sb" s:attribute="ref">sb</text>
    <s:alias val="$_inputExt_"/>
    <path d="M0,0 L0,20 L15,20 L30,10 L15,0 Z" class="cell_sb"/>
    <g s:x="28" s:y="10" s:pid="Y"/>
  </g>
  <g s:type="outputExt" transform="translate(262,32)" s:width="30" s:height="20" id="cell_b">
    <text x="15" y="-4" class="nodelabel cell_b" s:attribute="ref">b</text>
    <s:alias val="$_outputExt_"/>
    <path d="M30,0 L30,20 L15,20 L0,10 L15,0 Z" class="cell_b"/>
    <g s:x="0" s:y="10" s:pid="A"/>
  </g>
  <g s:type="constant" transform="translate(142,22)" s:width="30" s:height="20" id="cell_0">
    <text x="15" y="-4" class="nodelabel cell_0" s:attribute="ref">0</text>
    <s:alias val="$_constant_"/>
    <rect width="30" height="20" class="cell_0"/>
    <g s:x="30" s:y="10" s:pid="Y"/>
  </g>
  <g s:type="constant" transform="translate(12,227.5)" s:width="30" s:height="20" id="cell_10">
    <text x="15" y="-4" class="nodelabel cell_10" s:attribute="ref">10</text>
    <s:alias val="$_constant_"/>
    <rect width="30" height="20" class="cell_10"/>
    <g s:x="30" s:y="10" s:pid="Y"/>
  </g>
  <g s:type="constant" transform="translate(12,357.5)" s:width="30" s:height="20" id="cell_1">
    <text x="15" y="-4" class="nodelabel cell_1" s:attribute="ref">1</text>
    <s:alias val="$_constant_"/>
    <rect width="30" height="20" class="cell_1"/>
    <g s:x="30" s:y="10" s:pid="Y"/>
  </g>
  <g s:type="join" transform="translate(152,77)" s:width="4" s:height="40" id="cell_$join$,4,3,2,">
    <rect width="5" height="60" class="splitjoinBody" s:generic="body"/>
    <s:alias val="$_join_"/>
    <g s:x="5" s:y="20" s:pid="out"/>
    <g transform="translate(0,10)" s:x="0" s:y="10" s:pid="in0">
      <text x="-3" y="-4" class="inputPortLabel">0</text>
    </g>
    <g transform="translate(0,30)" s:x="0" s:y="10" s:pid="in0">
      <text x="-3" y="-4" class="inputPortLabel">1</text>
    </g>
    <g transform="translate(0,50)" s:x="0" s:y="10" s:pid="in0">
      <text x="-3" y="-4" class="inputPortLabel">2</text>
    </g>
  </g>
  <g s:type="join" transform="translate(152,279.5)" s:width="4" s:height="40" id="cell_$join$,8,9,10,">
    <rect width="5" height="60" class="splitjoinBody" s:generic="body"/>
    <s:alias val="$_join_"/>
    <g s:x="5" s:y="20" s:pid="out"/>
    <g transform="translate(0,10)" s:x="0" s:y="10" s:pid="in0">
      <text x="-3" y="-4" class="inputPortLabel">0</text>
    </g>
    <g transform="translate(0,30)" s:x="0" s:y="10" s:pid="in0">
      <text x="-3" y="-4" class="inputPortLabel">1</text>
    </g>
    <g transform="translate(0,50)" s:x="0" s:y="10" s:pid="in0">
      <text x="-3" y="-4" class="inputPortLabel">2</text>
    </g>
  </g>
  <line x1="172" x2="207" y1="32" y2="32" class="net_11"/>
  <line x1="158" x2="182" y1="97.5" y2="97.5" class="net_4,3,2"/>
  <line x1="182" x2="182" y1="97.5" y2="52" class="net_4,3,2"/>
  <line x1="182" x2="207" y1="52" y2="52" class="net_4,3,2"/>
  <line x1="158" x2="217" y1="300" y2="300" class="net_8,9,10"/>
  <line x1="217" x2="217" y1="300" y2="57" class="net_8,9,10"/>
  <line x1="40" x2="62" y1="302.5" y2="302.5" class="net_5,6"/>
  <line x1="62" x2="62" y1="302.5" y2="222.5" class="net_5,6"/>
  <circle cx="62" cy="302.5" r="2" style="fill:#000" class="net_5,6"/>
  <line x1="62" x2="81.66666666666667" y1="222.5" y2="222.5" class="net_5,6"/>
  <line x1="40" x2="81.66666666666667" y1="302.5" y2="302.5" class="net_5,6"/>
  <line x1="40" x2="62" y1="302.5" y2="302.5" class="net_5,6"/>
  <line x1="62" x2="62" y1="302.5" y2="367.5" class="net_5,6"/>
  <line x1="62" x2="77" y1="367.5" y2="367.5" class="net_5,6"/>
  <line x1="42" x2="81.66666666666667" y1="237.5" y2="237.5" class="net_12,13"/>
  <line x1="42" x2="52" y1="367.5" y2="367.5" class="net_14"/>
  <line x1="52" x2="52" y1="367.5" y2="317.5" class="net_14"/>
  <line x1="52" x2="81.66666666666667" y1="317.5" y2="317.5" class="net_14"/>
  <line x1="227" x2="262" y1="42" y2="42" class="net_7"/>
  <line x1="105" x2="117" y1="42.5" y2="42.5" class="net_4"/>
  <line x1="117" x2="117" y1="42.5" y2="87.5" class="net_4"/>
  <line x1="117" x2="152" y1="87.5" y2="87.5" class="net_4"/>
  <line x1="105" x2="152" y1="107.5" y2="107.5" class="net_3"/>
  <line x1="105" x2="117" y1="172.5" y2="172.5" class="net_2"/>
  <line x1="117" x2="117" y1="172.5" y2="127.5" class="net_2"/>
  <line x1="117" x2="152" y1="127.5" y2="127.5" class="net_2"/>
  <line x1="103.66666666666667" x2="117" y1="230" y2="230" class="net_8"/>
  <line x1="117" x2="117" y1="230" y2="290" class="net_8"/>
  <line x1="117" x2="152" y1="290" y2="290" class="net_8"/>
  <line x1="103.66666666666667" x2="152" y1="310" y2="310" class="net_9"/>
  <line x1="102" x2="117" y1="367.5" y2="367.5" class="net_10"/>
  <line x1="117" x2="117" y1="367.5" y2="330" class="net_10"/>
  <line x1="117" x2="152" y1="330" y2="330" class="net_10"/>
</svg>
