<svg style="background:white" xmlns="http://www.w3.org/2000/svg" xmlns:xlink="http://www.w3.org/1999/xlink" xmlns:s="https://github.com/nturley/netlistsvg" width="327" height="252">
  <style>svg {
    stroke:#000;
    fill:none;
  }
  text {
    fill:#000;
    stroke:none;
    font-size:10px;
    font-weight: bold;
    font-family: "Courier New", monospace;
  }
  .nodelabel {
    text-anchor: middle;
  }
  .inputPortLabel {
    text-anchor: end;
  }
  .splitjoinBody {
    fill:#000;
  }</style>
  <g s:type="generic" transform="translate(102,217)" s:width="30" s:height="40" id="cell_d">
    <text x="15" y="-4" class="nodelabel cell_d" s:attribute="ref">$paramod$b010335f9ba93daabde2137396fd586b39515828\decoder</text>
    <rect width="30" height="20" s:generic="body" class="cell_d"/>
    <g transform="translate(0,10)" s:x="0" s:y="10" s:pid="in0" id="port_d~d_in">
      <text x="-3" y="-4" class="inputPortLabel cell_d">d_in</text>
    </g>
    <g transform="translate(30,10)" s:x="30" s:y="10" s:pid="out0" id="port_d~d_out">
      <text x="5" y="-4" style="fill:#000; stroke:none" class="cell_d">d_out</text>
    </g>
  </g>
  <g s:type="generic" transform="translate(212,66.5)" s:width="30" s:height="40" id="cell_m">
    <text x="15" y="-4" class="nodelabel cell_m" s:attribute="ref">$paramod\Mux3a\K=s32'00000000000000000000000000000001</text>
    <rect width="30" height="80" s:generic="body" class="cell_m"/>
    <g transform="translate(0,10)" s:x="0" s:y="10" s:pid="in0" id="port_m~a0">
      <text x="-3" y="-4" class="inputPortLabel cell_m">a0</text>
    </g>
    <g transform="translate(0,30)" s:x="0" s:y="10" s:pid="in0" id="port_m~a1">
      <text x="-3" y="-4" class="inputPortLabel cell_m">a1</text>
    </g>
    <g transform="translate(0,50)" s:x="0" s:y="10" s:pid="in0" id="port_m~a2">
      <text x="-3" y="-4" class="inputPortLabel cell_m">a2</text>
    </g>
    <g transform="translate(0,70)" s:x="0" s:y="10" s:pid="in0" id="port_m~s">
      <text x="-3" y="-4" class="inputPortLabel cell_m">s</text>
    </g>
    <g transform="translate(30,10)" s:x="30" s:y="10" s:pid="out0" id="port_m~b">
      <text x="5" y="-4" style="fill:#000; stroke:none" class="cell_m">b</text>
    </g>
  </g>
  <g s:type="inputExt" transform="translate(102,22)" s:width="30" s:height="20" id="cell_a0">
    <text x="15" y="-4" class="nodelabel cell_a0" s:attribute="ref">a0</text>
    <s:alias val="$_inputExt_"/>
    <path d="M0,0 L0,20 L15,20 L30,10 L15,0 Z" class="cell_a0"/>
    <g s:x="28" s:y="10" s:pid="Y"/>
  </g>
  <g s:type="inputExt" transform="translate(102,87)" s:width="30" s:height="20" id="cell_a1">
    <text x="15" y="-4" class="nodelabel cell_a1" s:attribute="ref">a1</text>
    <s:alias val="$_inputExt_"/>
    <path d="M0,0 L0,20 L15,20 L30,10 L15,0 Z" class="cell_a1"/>
    <g s:x="28" s:y="10" s:pid="Y"/>
  </g>
  <g s:type="inputExt" transform="translate(102,152)" s:width="30" s:height="20" id="cell_a2">
    <text x="15" y="-4" class="nodelabel cell_a2" s:attribute="ref">a2</text>
    <s:alias val="$_inputExt_"/>
    <path d="M0,0 L0,20 L15,20 L30,10 L15,0 Z" class="cell_a2"/>
    <g s:x="28" s:y="10" s:pid="Y"/>
  </g>
  <g s:type="inputExt" transform="translate(12,217.5)" s:width="30" s:height="20" id="cell_s">
    <text x="15" y="-4" class="nodelabel cell_s" s:attribute="ref">s</text>
    <s:alias val="$_inputExt_"/>
    <path d="M0,0 L0,20 L15,20 L30,10 L15,0 Z" class="cell_s"/>
    <g s:x="28" s:y="10" s:pid="Y"/>
  </g>
  <g s:type="outputExt" transform="translate(285,67)" s:width="30" s:height="20" id="cell_b">
    <text x="15" y="-4" class="nodelabel cell_b" s:attribute="ref">b</text>
    <s:alias val="$_outputExt_"/>
    <path d="M30,0 L30,20 L15,20 L0,10 L15,0 Z" class="cell_b"/>
    <g s:x="0" s:y="10" s:pid="A"/>
  </g>
  <line x1="40" x2="102" y1="227.5" y2="227.5" class="net_5,6"/>
  <line x1="130" x2="174" y1="32" y2="32" class="net_2"/>
  <line x1="174" x2="174" y1="32" y2="77" class="net_2"/>
  <line x1="174" x2="212" y1="77" y2="77" class="net_2"/>
  <line x1="130" x2="212" y1="97" y2="97" class="net_3"/>
  <line x1="130" x2="174" y1="162" y2="162" class="net_4"/>
  <line x1="174" x2="174" y1="162" y2="117" class="net_4"/>
  <line x1="174" x2="212" y1="117" y2="117" class="net_4"/>
  <line x1="133" x2="184" y1="227.5" y2="227.5" class="net_8,9,10"/>
  <line x1="184" x2="184" y1="227.5" y2="137" class="net_8,9,10"/>
  <line x1="184" x2="212" y1="137" y2="137" class="net_8,9,10"/>
  <line x1="243" x2="285" y1="77" y2="77" class="net_7"/>
</svg>
