<svg style="background:white" xmlns="http://www.w3.org/2000/svg" xmlns:xlink="http://www.w3.org/1999/xlink" xmlns:s="https://github.com/nturley/netlistsvg" width="279" height="57">
  <style>svg {
    stroke:#000;
    fill:none;
  }
  text {
    fill:#000;
    stroke:none;
    font-size:10px;
    font-weight: bold;
    font-family: "Courier New", monospace;
  }
  .nodelabel {
    text-anchor: middle;
  }
  .inputPortLabel {
    text-anchor: end;
  }
  .splitjoinBody {
    fill:#000;
  }</style>
  <g s:type="generic" transform="translate(84,22)" s:width="30" s:height="40" id="cell_a">
    <text x="15" y="-4" class="nodelabel cell_a" s:attribute="ref">$paramod\Arb\N=s32'00000000000000000000000000001000</text>
    <rect width="30" height="20" s:generic="body" class="cell_a"/>
    <g transform="translate(0,10)" s:x="0" s:y="10" s:pid="in0" id="port_a~r">
      <text x="-3" y="-4" class="inputPortLabel cell_a">r</text>
    </g>
    <g transform="translate(30,10)" s:x="30" s:y="10" s:pid="out0" id="port_a~g">
      <text x="5" y="-4" style="fill:#000; stroke:none" class="cell_a">g</text>
    </g>
  </g>
  <g s:type="generic" transform="translate(164,22)" s:width="30" s:height="40" id="cell_e">
    <text x="15" y="-4" class="nodelabel cell_e" s:attribute="ref">Enc83</text>
    <rect width="30" height="20" s:generic="body" class="cell_e"/>
    <g transform="translate(0,10)" s:x="0" s:y="10" s:pid="in0" id="port_e~a">
      <text x="-3" y="-4" class="inputPortLabel cell_e">a</text>
    </g>
    <g transform="translate(30,10)" s:x="30" s:y="10" s:pid="out0" id="port_e~b">
      <text x="5" y="-4" style="fill:#000; stroke:none" class="cell_e">b</text>
    </g>
  </g>
  <g s:type="inputExt" transform="translate(12,22.5)" s:width="30" s:height="20" id="cell_r">
    <text x="15" y="-4" class="nodelabel cell_r" s:attribute="ref">r</text>
    <s:alias val="$_inputExt_"/>
    <path d="M0,0 L0,20 L15,20 L30,10 L15,0 Z" class="cell_r"/>
    <g s:x="28" s:y="10" s:pid="Y"/>
  </g>
  <g s:type="outputExt" transform="translate(237,22.5)" s:width="30" s:height="20" id="cell_b">
    <text x="15" y="-4" class="nodelabel cell_b" s:attribute="ref">b</text>
    <s:alias val="$_outputExt_"/>
    <path d="M30,0 L30,20 L15,20 L0,10 L15,0 Z" class="cell_b"/>
    <g s:x="0" s:y="10" s:pid="A"/>
  </g>
  <line x1="40" x2="84" y1="32.5" y2="32.5" class="net_2,3,4,5,6,7,8,9"/>
  <line x1="115" x2="164" y1="32.5" y2="32.5" class="net_13,14,15,16,17,18,19,20"/>
  <line x1="195" x2="237" y1="32.5" y2="32.5" class="net_10,11,12"/>
</svg>
