<svg style="background:white" xmlns="http://www.w3.org/2000/svg" xmlns:xlink="http://www.w3.org/1999/xlink" xmlns:s="https://github.com/nturley/netlistsvg" width="1892" height="836">
  <style>svg {
    stroke:#000;
    fill:none;
  }
  text {
    fill:#000;
    stroke:none;
    font-size:10px;
    font-weight: bold;
    font-family: "Courier New", monospace;
  }
  .nodelabel {
    text-anchor: middle;
  }
  .inputPortLabel {
    text-anchor: end;
  }
  .splitjoinBody {
    fill:#000;
  }</style>
  <g s:type="and" transform="translate(232,227.5)" s:width="30" s:height="25" id="cell_$and$.yosys_tmp/prog_priority_arbiter_noncyclic.sv:17$55">
    <s:alias val="$and"/>
    <s:alias val="$logic_and"/>
    <s:alias val="$_AND_"/>
    <path d="M0,0 L0,25 L15,25 A15 12.5 0 0 0 15,0 Z" class="cell_$and$.yosys_tmp/prog_priority_arbiter_noncyclic.sv:17$55"/>
    <g s:x="0" s:y="5" s:pid="A"/>
    <g s:x="0" s:y="20" s:pid="B"/>
    <g s:x="30" s:y="12.5" s:pid="Y"/>
  </g>
  <g s:type="and" transform="translate(362,197.5)" s:width="30" s:height="25" id="cell_$and$.yosys_tmp/prog_priority_arbiter_noncyclic.sv:17$58">
    <s:alias val="$and"/>
    <s:alias val="$logic_and"/>
    <s:alias val="$_AND_"/>
    <path d="M0,0 L0,25 L15,25 A15 12.5 0 0 0 15,0 Z" class="cell_$and$.yosys_tmp/prog_priority_arbiter_noncyclic.sv:17$58"/>
    <g s:x="0" s:y="5" s:pid="A"/>
    <g s:x="0" s:y="20" s:pid="B"/>
    <g s:x="30" s:y="12.5" s:pid="Y"/>
  </g>
  <g s:type="and" transform="translate(492,243.5)" s:width="30" s:height="25" id="cell_$and$.yosys_tmp/prog_priority_arbiter_noncyclic.sv:17$61">
    <s:alias val="$and"/>
    <s:alias val="$logic_and"/>
    <s:alias val="$_AND_"/>
    <path d="M0,0 L0,25 L15,25 A15 12.5 0 0 0 15,0 Z" class="cell_$and$.yosys_tmp/prog_priority_arbiter_noncyclic.sv:17$61"/>
    <g s:x="0" s:y="5" s:pid="A"/>
    <g s:x="0" s:y="20" s:pid="B"/>
    <g s:x="30" s:y="12.5" s:pid="Y"/>
  </g>
  <g s:type="and" transform="translate(622,344.5)" s:width="30" s:height="25" id="cell_$and$.yosys_tmp/prog_priority_arbiter_noncyclic.sv:17$64">
    <s:alias val="$and"/>
    <s:alias val="$logic_and"/>
    <s:alias val="$_AND_"/>
    <path d="M0,0 L0,25 L15,25 A15 12.5 0 0 0 15,0 Z" class="cell_$and$.yosys_tmp/prog_priority_arbiter_noncyclic.sv:17$64"/>
    <g s:x="0" s:y="5" s:pid="A"/>
    <g s:x="0" s:y="20" s:pid="B"/>
    <g s:x="30" s:y="12.5" s:pid="Y"/>
  </g>
  <g s:type="and" transform="translate(752,390.5)" s:width="30" s:height="25" id="cell_$and$.yosys_tmp/prog_priority_arbiter_noncyclic.sv:17$67">
    <s:alias val="$and"/>
    <s:alias val="$logic_and"/>
    <s:alias val="$_AND_"/>
    <path d="M0,0 L0,25 L15,25 A15 12.5 0 0 0 15,0 Z" class="cell_$and$.yosys_tmp/prog_priority_arbiter_noncyclic.sv:17$67"/>
    <g s:x="0" s:y="5" s:pid="A"/>
    <g s:x="0" s:y="20" s:pid="B"/>
    <g s:x="30" s:y="12.5" s:pid="Y"/>
  </g>
  <g s:type="and" transform="translate(882,447.5)" s:width="30" s:height="25" id="cell_$and$.yosys_tmp/prog_priority_arbiter_noncyclic.sv:17$70">
    <s:alias val="$and"/>
    <s:alias val="$logic_and"/>
    <s:alias val="$_AND_"/>
    <path d="M0,0 L0,25 L15,25 A15 12.5 0 0 0 15,0 Z" class="cell_$and$.yosys_tmp/prog_priority_arbiter_noncyclic.sv:17$70"/>
    <g s:x="0" s:y="5" s:pid="A"/>
    <g s:x="0" s:y="20" s:pid="B"/>
    <g s:x="30" s:y="12.5" s:pid="Y"/>
  </g>
  <g s:type="and" transform="translate(1012,749)" s:width="30" s:height="25" id="cell_$and$.yosys_tmp/prog_priority_arbiter_noncyclic.sv:17$73">
    <s:alias val="$and"/>
    <s:alias val="$logic_and"/>
    <s:alias val="$_AND_"/>
    <path d="M0,0 L0,25 L15,25 A15 12.5 0 0 0 15,0 Z" class="cell_$and$.yosys_tmp/prog_priority_arbiter_noncyclic.sv:17$73"/>
    <g s:x="0" s:y="5" s:pid="A"/>
    <g s:x="0" s:y="20" s:pid="B"/>
    <g s:x="30" s:y="12.5" s:pid="Y"/>
  </g>
  <g s:type="and" transform="translate(1142,243.5)" s:width="30" s:height="25" id="cell_$and$.yosys_tmp/prog_priority_arbiter_noncyclic.sv:17$76">
    <s:alias val="$and"/>
    <s:alias val="$logic_and"/>
    <s:alias val="$_AND_"/>
    <path d="M0,0 L0,25 L15,25 A15 12.5 0 0 0 15,0 Z" class="cell_$and$.yosys_tmp/prog_priority_arbiter_noncyclic.sv:17$76"/>
    <g s:x="0" s:y="5" s:pid="A"/>
    <g s:x="0" s:y="20" s:pid="B"/>
    <g s:x="30" s:y="12.5" s:pid="Y"/>
  </g>
  <g s:type="and" transform="translate(1207,119.5)" s:width="30" s:height="25" id="cell_$and$.yosys_tmp/prog_priority_arbiter_noncyclic.sv:17$79">
    <s:alias val="$and"/>
    <s:alias val="$logic_and"/>
    <s:alias val="$_AND_"/>
    <path d="M0,0 L0,25 L15,25 A15 12.5 0 0 0 15,0 Z" class="cell_$and$.yosys_tmp/prog_priority_arbiter_noncyclic.sv:17$79"/>
    <g s:x="0" s:y="5" s:pid="A"/>
    <g s:x="0" s:y="20" s:pid="B"/>
    <g s:x="30" s:y="12.5" s:pid="Y"/>
  </g>
  <g s:type="and" transform="translate(1272,65)" s:width="30" s:height="25" id="cell_$and$.yosys_tmp/prog_priority_arbiter_noncyclic.sv:17$82">
    <s:alias val="$and"/>
    <s:alias val="$logic_and"/>
    <s:alias val="$_AND_"/>
    <path d="M0,0 L0,25 L15,25 A15 12.5 0 0 0 15,0 Z" class="cell_$and$.yosys_tmp/prog_priority_arbiter_noncyclic.sv:17$82"/>
    <g s:x="0" s:y="5" s:pid="A"/>
    <g s:x="0" s:y="20" s:pid="B"/>
    <g s:x="30" s:y="12.5" s:pid="Y"/>
  </g>
  <g s:type="and" transform="translate(1337,88.5)" s:width="30" s:height="25" id="cell_$and$.yosys_tmp/prog_priority_arbiter_noncyclic.sv:17$85">
    <s:alias val="$and"/>
    <s:alias val="$logic_and"/>
    <s:alias val="$_AND_"/>
    <path d="M0,0 L0,25 L15,25 A15 12.5 0 0 0 15,0 Z" class="cell_$and$.yosys_tmp/prog_priority_arbiter_noncyclic.sv:17$85"/>
    <g s:x="0" s:y="5" s:pid="A"/>
    <g s:x="0" s:y="20" s:pid="B"/>
    <g s:x="30" s:y="12.5" s:pid="Y"/>
  </g>
  <g s:type="and" transform="translate(1402,143)" s:width="30" s:height="25" id="cell_$and$.yosys_tmp/prog_priority_arbiter_noncyclic.sv:17$88">
    <s:alias val="$and"/>
    <s:alias val="$logic_and"/>
    <s:alias val="$_AND_"/>
    <path d="M0,0 L0,25 L15,25 A15 12.5 0 0 0 15,0 Z" class="cell_$and$.yosys_tmp/prog_priority_arbiter_noncyclic.sv:17$88"/>
    <g s:x="0" s:y="5" s:pid="A"/>
    <g s:x="0" s:y="20" s:pid="B"/>
    <g s:x="30" s:y="12.5" s:pid="Y"/>
  </g>
  <g s:type="and" transform="translate(1467,166.5)" s:width="30" s:height="25" id="cell_$and$.yosys_tmp/prog_priority_arbiter_noncyclic.sv:17$91">
    <s:alias val="$and"/>
    <s:alias val="$logic_and"/>
    <s:alias val="$_AND_"/>
    <path d="M0,0 L0,25 L15,25 A15 12.5 0 0 0 15,0 Z" class="cell_$and$.yosys_tmp/prog_priority_arbiter_noncyclic.sv:17$91"/>
    <g s:x="0" s:y="5" s:pid="A"/>
    <g s:x="0" s:y="20" s:pid="B"/>
    <g s:x="30" s:y="12.5" s:pid="Y"/>
  </g>
  <g s:type="and" transform="translate(1532,293)" s:width="30" s:height="25" id="cell_$and$.yosys_tmp/prog_priority_arbiter_noncyclic.sv:17$94">
    <s:alias val="$and"/>
    <s:alias val="$logic_and"/>
    <s:alias val="$_AND_"/>
    <path d="M0,0 L0,25 L15,25 A15 12.5 0 0 0 15,0 Z" class="cell_$and$.yosys_tmp/prog_priority_arbiter_noncyclic.sv:17$94"/>
    <g s:x="0" s:y="5" s:pid="A"/>
    <g s:x="0" s:y="20" s:pid="B"/>
    <g s:x="30" s:y="12.5" s:pid="Y"/>
  </g>
  <g s:type="and" transform="translate(1597,300.5)" s:width="30" s:height="25" id="cell_$and$.yosys_tmp/prog_priority_arbiter_noncyclic.sv:17$97">
    <s:alias val="$and"/>
    <s:alias val="$logic_and"/>
    <s:alias val="$_AND_"/>
    <path d="M0,0 L0,25 L15,25 A15 12.5 0 0 0 15,0 Z" class="cell_$and$.yosys_tmp/prog_priority_arbiter_noncyclic.sv:17$97"/>
    <g s:x="0" s:y="5" s:pid="A"/>
    <g s:x="0" s:y="20" s:pid="B"/>
    <g s:x="30" s:y="12.5" s:pid="Y"/>
  </g>
  <g s:type="and" transform="translate(1785,328)" s:width="30" s:height="25" id="cell_$and$.yosys_tmp/prog_priority_arbiter_noncyclic.sv:20$100">
    <s:alias val="$and"/>
    <s:alias val="$logic_and"/>
    <s:alias val="$_AND_"/>
    <path d="M0,0 L0,25 L15,25 A15 12.5 0 0 0 15,0 Z" class="cell_$and$.yosys_tmp/prog_priority_arbiter_noncyclic.sv:20$100"/>
    <g s:x="0" s:y="5" s:pid="A"/>
    <g s:x="0" s:y="20" s:pid="B"/>
    <g s:x="30" s:y="12.5" s:pid="Y"/>
  </g>
  <g s:type="not" transform="translate(1077,12)" s:width="30" s:height="20" id="cell_$not$.yosys_tmp/prog_priority_arbiter_noncyclic.sv:17$75">
    <s:alias val="$_NOT_"/>
    <s:alias val="$not"/>
    <s:alias val="$logic_not"/>
    <path d="M0,0 L0,20 L20,10 Z" class="cell_$not$.yosys_tmp/prog_priority_arbiter_noncyclic.sv:17$75"/>
    <circle cx="23" cy="10" r="3" class="cell_$not$.yosys_tmp/prog_priority_arbiter_noncyclic.sv:17$75"/>
    <g s:x="0" s:y="10" s:pid="A"/>
    <g s:x="25" s:y="10" s:pid="Y"/>
  </g>
  <g s:type="not" transform="translate(167,54)" s:width="30" s:height="20" id="cell_$not$.yosys_tmp/prog_priority_arbiter_noncyclic.sv:17$78">
    <s:alias val="$_NOT_"/>
    <s:alias val="$not"/>
    <s:alias val="$logic_not"/>
    <path d="M0,0 L0,20 L20,10 Z" class="cell_$not$.yosys_tmp/prog_priority_arbiter_noncyclic.sv:17$78"/>
    <circle cx="23" cy="10" r="3" class="cell_$not$.yosys_tmp/prog_priority_arbiter_noncyclic.sv:17$78"/>
    <g s:x="0" s:y="10" s:pid="A"/>
    <g s:x="25" s:y="10" s:pid="Y"/>
  </g>
  <g s:type="not" transform="translate(297,75)" s:width="30" s:height="20" id="cell_$not$.yosys_tmp/prog_priority_arbiter_noncyclic.sv:17$81">
    <s:alias val="$_NOT_"/>
    <s:alias val="$not"/>
    <s:alias val="$logic_not"/>
    <path d="M0,0 L0,20 L20,10 Z" class="cell_$not$.yosys_tmp/prog_priority_arbiter_noncyclic.sv:17$81"/>
    <circle cx="23" cy="10" r="3" class="cell_$not$.yosys_tmp/prog_priority_arbiter_noncyclic.sv:17$81"/>
    <g s:x="0" s:y="10" s:pid="A"/>
    <g s:x="25" s:y="10" s:pid="Y"/>
  </g>
  <g s:type="not" transform="translate(427,98.5)" s:width="30" s:height="20" id="cell_$not$.yosys_tmp/prog_priority_arbiter_noncyclic.sv:17$84">
    <s:alias val="$_NOT_"/>
    <s:alias val="$not"/>
    <s:alias val="$logic_not"/>
    <path d="M0,0 L0,20 L20,10 Z" class="cell_$not$.yosys_tmp/prog_priority_arbiter_noncyclic.sv:17$84"/>
    <circle cx="23" cy="10" r="3" class="cell_$not$.yosys_tmp/prog_priority_arbiter_noncyclic.sv:17$84"/>
    <g s:x="0" s:y="10" s:pid="A"/>
    <g s:x="25" s:y="10" s:pid="Y"/>
  </g>
  <g s:type="not" transform="translate(557,153)" s:width="30" s:height="20" id="cell_$not$.yosys_tmp/prog_priority_arbiter_noncyclic.sv:17$87">
    <s:alias val="$_NOT_"/>
    <s:alias val="$not"/>
    <s:alias val="$logic_not"/>
    <path d="M0,0 L0,20 L20,10 Z" class="cell_$not$.yosys_tmp/prog_priority_arbiter_noncyclic.sv:17$87"/>
    <circle cx="23" cy="10" r="3" class="cell_$not$.yosys_tmp/prog_priority_arbiter_noncyclic.sv:17$87"/>
    <g s:x="0" s:y="10" s:pid="A"/>
    <g s:x="25" s:y="10" s:pid="Y"/>
  </g>
  <g s:type="not" transform="translate(687,176.5)" s:width="30" s:height="20" id="cell_$not$.yosys_tmp/prog_priority_arbiter_noncyclic.sv:17$90">
    <s:alias val="$_NOT_"/>
    <s:alias val="$not"/>
    <s:alias val="$logic_not"/>
    <path d="M0,0 L0,20 L20,10 Z" class="cell_$not$.yosys_tmp/prog_priority_arbiter_noncyclic.sv:17$90"/>
    <circle cx="23" cy="10" r="3" class="cell_$not$.yosys_tmp/prog_priority_arbiter_noncyclic.sv:17$90"/>
    <g s:x="0" s:y="10" s:pid="A"/>
    <g s:x="25" s:y="10" s:pid="Y"/>
  </g>
  <g s:type="not" transform="translate(817,500)" s:width="30" s:height="20" id="cell_$not$.yosys_tmp/prog_priority_arbiter_noncyclic.sv:17$93">
    <s:alias val="$_NOT_"/>
    <s:alias val="$not"/>
    <s:alias val="$logic_not"/>
    <path d="M0,0 L0,20 L20,10 Z" class="cell_$not$.yosys_tmp/prog_priority_arbiter_noncyclic.sv:17$93"/>
    <circle cx="23" cy="10" r="3" class="cell_$not$.yosys_tmp/prog_priority_arbiter_noncyclic.sv:17$93"/>
    <g s:x="0" s:y="10" s:pid="A"/>
    <g s:x="25" s:y="10" s:pid="Y"/>
  </g>
  <g s:type="not" transform="translate(947,774)" s:width="30" s:height="20" id="cell_$not$.yosys_tmp/prog_priority_arbiter_noncyclic.sv:17$96">
    <s:alias val="$_NOT_"/>
    <s:alias val="$not"/>
    <s:alias val="$logic_not"/>
    <path d="M0,0 L0,20 L20,10 Z" class="cell_$not$.yosys_tmp/prog_priority_arbiter_noncyclic.sv:17$96"/>
    <circle cx="23" cy="10" r="3" class="cell_$not$.yosys_tmp/prog_priority_arbiter_noncyclic.sv:17$96"/>
    <g s:x="0" s:y="10" s:pid="A"/>
    <g s:x="25" s:y="10" s:pid="Y"/>
  </g>
  <g s:type="or" transform="translate(297,220)" s:width="30" s:height="25" id="cell_$or$.yosys_tmp/prog_priority_arbiter_noncyclic.sv:17$56">
    <s:alias val="$or"/>
    <s:alias val="$logic_or"/>
    <s:alias val="$_OR_"/>
    <path d="M0,25 L0,25 L15,25 A15 12.5 0 0 0 15,0 L0,0" class="cell_$or$.yosys_tmp/prog_priority_arbiter_noncyclic.sv:17$56"/>
    <path d="M0,0 A30 25 0 0 1 0,25" class="cell_$or$.yosys_tmp/prog_priority_arbiter_noncyclic.sv:17$56"/>
    <g s:x="3" s:y="5" s:pid="A"/>
    <g s:x="3" s:y="20" s:pid="B"/>
    <g s:x="30" s:y="12.5" s:pid="Y"/>
  </g>
  <g s:type="or" transform="translate(427,266)" s:width="30" s:height="25" id="cell_$or$.yosys_tmp/prog_priority_arbiter_noncyclic.sv:17$59">
    <s:alias val="$or"/>
    <s:alias val="$logic_or"/>
    <s:alias val="$_OR_"/>
    <path d="M0,25 L0,25 L15,25 A15 12.5 0 0 0 15,0 L0,0" class="cell_$or$.yosys_tmp/prog_priority_arbiter_noncyclic.sv:17$59"/>
    <path d="M0,0 A30 25 0 0 1 0,25" class="cell_$or$.yosys_tmp/prog_priority_arbiter_noncyclic.sv:17$59"/>
    <g s:x="3" s:y="5" s:pid="A"/>
    <g s:x="3" s:y="20" s:pid="B"/>
    <g s:x="30" s:y="12.5" s:pid="Y"/>
  </g>
  <g s:type="or" transform="translate(557,367)" s:width="30" s:height="25" id="cell_$or$.yosys_tmp/prog_priority_arbiter_noncyclic.sv:17$62">
    <s:alias val="$or"/>
    <s:alias val="$logic_or"/>
    <s:alias val="$_OR_"/>
    <path d="M0,25 L0,25 L15,25 A15 12.5 0 0 0 15,0 L0,0" class="cell_$or$.yosys_tmp/prog_priority_arbiter_noncyclic.sv:17$62"/>
    <path d="M0,0 A30 25 0 0 1 0,25" class="cell_$or$.yosys_tmp/prog_priority_arbiter_noncyclic.sv:17$62"/>
    <g s:x="3" s:y="5" s:pid="A"/>
    <g s:x="3" s:y="20" s:pid="B"/>
    <g s:x="30" s:y="12.5" s:pid="Y"/>
  </g>
  <g s:type="or" transform="translate(687,413)" s:width="30" s:height="25" id="cell_$or$.yosys_tmp/prog_priority_arbiter_noncyclic.sv:17$65">
    <s:alias val="$or"/>
    <s:alias val="$logic_or"/>
    <s:alias val="$_OR_"/>
    <path d="M0,25 L0,25 L15,25 A15 12.5 0 0 0 15,0 L0,0" class="cell_$or$.yosys_tmp/prog_priority_arbiter_noncyclic.sv:17$65"/>
    <path d="M0,0 A30 25 0 0 1 0,25" class="cell_$or$.yosys_tmp/prog_priority_arbiter_noncyclic.sv:17$65"/>
    <g s:x="3" s:y="5" s:pid="A"/>
    <g s:x="3" s:y="20" s:pid="B"/>
    <g s:x="30" s:y="12.5" s:pid="Y"/>
  </g>
  <g s:type="or" transform="translate(817,440)" s:width="30" s:height="25" id="cell_$or$.yosys_tmp/prog_priority_arbiter_noncyclic.sv:17$68">
    <s:alias val="$or"/>
    <s:alias val="$logic_or"/>
    <s:alias val="$_OR_"/>
    <path d="M0,25 L0,25 L15,25 A15 12.5 0 0 0 15,0 L0,0" class="cell_$or$.yosys_tmp/prog_priority_arbiter_noncyclic.sv:17$68"/>
    <path d="M0,0 A30 25 0 0 1 0,25" class="cell_$or$.yosys_tmp/prog_priority_arbiter_noncyclic.sv:17$68"/>
    <g s:x="3" s:y="5" s:pid="A"/>
    <g s:x="3" s:y="20" s:pid="B"/>
    <g s:x="30" s:y="12.5" s:pid="Y"/>
  </g>
  <g s:type="or" transform="translate(947,521)" s:width="30" s:height="25" id="cell_$or$.yosys_tmp/prog_priority_arbiter_noncyclic.sv:17$71">
    <s:alias val="$or"/>
    <s:alias val="$logic_or"/>
    <s:alias val="$_OR_"/>
    <path d="M0,25 L0,25 L15,25 A15 12.5 0 0 0 15,0 L0,0" class="cell_$or$.yosys_tmp/prog_priority_arbiter_noncyclic.sv:17$71"/>
    <path d="M0,0 A30 25 0 0 1 0,25" class="cell_$or$.yosys_tmp/prog_priority_arbiter_noncyclic.sv:17$71"/>
    <g s:x="3" s:y="5" s:pid="A"/>
    <g s:x="3" s:y="20" s:pid="B"/>
    <g s:x="30" s:y="12.5" s:pid="Y"/>
  </g>
  <g s:type="or" transform="translate(1077,741.5)" s:width="30" s:height="25" id="cell_$or$.yosys_tmp/prog_priority_arbiter_noncyclic.sv:17$74">
    <s:alias val="$or"/>
    <s:alias val="$logic_or"/>
    <s:alias val="$_OR_"/>
    <path d="M0,25 L0,25 L15,25 A15 12.5 0 0 0 15,0 L0,0" class="cell_$or$.yosys_tmp/prog_priority_arbiter_noncyclic.sv:17$74"/>
    <path d="M0,0 A30 25 0 0 1 0,25" class="cell_$or$.yosys_tmp/prog_priority_arbiter_noncyclic.sv:17$74"/>
    <g s:x="3" s:y="5" s:pid="A"/>
    <g s:x="3" s:y="20" s:pid="B"/>
    <g s:x="30" s:y="12.5" s:pid="Y"/>
  </g>
  <g s:type="or" transform="translate(1720,335.5)" s:width="30" s:height="25" id="cell_$or$.yosys_tmp/prog_priority_arbiter_noncyclic.sv:20$99">
    <s:alias val="$or"/>
    <s:alias val="$logic_or"/>
    <s:alias val="$_OR_"/>
    <path d="M0,25 L0,25 L15,25 A15 12.5 0 0 0 15,0 L0,0" class="cell_$or$.yosys_tmp/prog_priority_arbiter_noncyclic.sv:20$99"/>
    <path d="M0,0 A30 25 0 0 1 0,25" class="cell_$or$.yosys_tmp/prog_priority_arbiter_noncyclic.sv:20$99"/>
    <g s:x="3" s:y="5" s:pid="A"/>
    <g s:x="3" s:y="20" s:pid="B"/>
    <g s:x="30" s:y="12.5" s:pid="Y"/>
  </g>
  <g s:type="inputExt" transform="translate(12,390)" s:width="30" s:height="20" id="cell_r">
    <text x="15" y="-4" class="nodelabel cell_r" s:attribute="ref">r</text>
    <s:alias val="$_inputExt_"/>
    <path d="M0,0 L0,20 L15,20 L30,10 L15,0 Z" class="cell_r"/>
    <g s:x="28" s:y="10" s:pid="Y"/>
  </g>
  <g s:type="inputExt" transform="translate(77,804)" s:width="30" s:height="20" id="cell_p">
    <text x="15" y="-4" class="nodelabel cell_p" s:attribute="ref">p</text>
    <s:alias val="$_inputExt_"/>
    <path d="M0,0 L0,20 L15,20 L30,10 L15,0 Z" class="cell_p"/>
    <g s:x="28" s:y="10" s:pid="Y"/>
  </g>
  <g s:type="outputExt" transform="translate(1850,330.5)" s:width="30" s:height="20" id="cell_g">
    <text x="15" y="-4" class="nodelabel cell_g" s:attribute="ref">g</text>
    <s:alias val="$_outputExt_"/>
    <path d="M30,0 L30,20 L15,20 L0,10 L15,0 Z" class="cell_g"/>
    <g s:x="0" s:y="10" s:pid="A"/>
  </g>
  <g s:type="join" transform="translate(1677,65)" s:width="4" s:height="40" id="cell_$join$,48,49,50,51,52,53,54,55,">
    <rect width="5" height="160" class="splitjoinBody" s:generic="body"/>
    <s:alias val="$_join_"/>
    <g s:x="5" s:y="20" s:pid="out"/>
    <g transform="translate(0,10)" s:x="0" s:y="10" s:pid="in0">
      <text x="-3" y="-4" class="inputPortLabel">0</text>
    </g>
    <g transform="translate(0,30)" s:x="0" s:y="10" s:pid="in0">
      <text x="-3" y="-4" class="inputPortLabel">1</text>
    </g>
    <g transform="translate(0,50)" s:x="0" s:y="10" s:pid="in0">
      <text x="-3" y="-4" class="inputPortLabel">2</text>
    </g>
    <g transform="translate(0,70)" s:x="0" s:y="10" s:pid="in0">
      <text x="-3" y="-4" class="inputPortLabel">3</text>
    </g>
    <g transform="translate(0,90)" s:x="0" s:y="10" s:pid="in0">
      <text x="-3" y="-4" class="inputPortLabel">4</text>
    </g>
    <g transform="translate(0,110)" s:x="0" s:y="10" s:pid="in0">
      <text x="-3" y="-4" class="inputPortLabel">5</text>
    </g>
    <g transform="translate(0,130)" s:x="0" s:y="10" s:pid="in0">
      <text x="-3" y="-4" class="inputPortLabel">6</text>
    </g>
    <g transform="translate(0,150)" s:x="0" s:y="10" s:pid="in0">
      <text x="-3" y="-4" class="inputPortLabel">7</text>
    </g>
  </g>
  <g s:type="join" transform="translate(1677,335)" s:width="4" s:height="40" id="cell_$join$,10,28,31,34,37,40,43,46,">
    <rect width="5" height="160" class="splitjoinBody" s:generic="body"/>
    <s:alias val="$_join_"/>
    <g s:x="5" s:y="20" s:pid="out"/>
    <g transform="translate(0,10)" s:x="0" s:y="10" s:pid="in0">
      <text x="-3" y="-4" class="inputPortLabel">0</text>
    </g>
    <g transform="translate(0,30)" s:x="0" s:y="10" s:pid="in0">
      <text x="-3" y="-4" class="inputPortLabel">1</text>
    </g>
    <g transform="translate(0,50)" s:x="0" s:y="10" s:pid="in0">
      <text x="-3" y="-4" class="inputPortLabel">2</text>
    </g>
    <g transform="translate(0,70)" s:x="0" s:y="10" s:pid="in0">
      <text x="-3" y="-4" class="inputPortLabel">3</text>
    </g>
    <g transform="translate(0,90)" s:x="0" s:y="10" s:pid="in0">
      <text x="-3" y="-4" class="inputPortLabel">4</text>
    </g>
    <g transform="translate(0,110)" s:x="0" s:y="10" s:pid="in0">
      <text x="-3" y="-4" class="inputPortLabel">5</text>
    </g>
    <g transform="translate(0,130)" s:x="0" s:y="10" s:pid="in0">
      <text x="-3" y="-4" class="inputPortLabel">6</text>
    </g>
    <g transform="translate(0,150)" s:x="0" s:y="10" s:pid="in0">
      <text x="-3" y="-4" class="inputPortLabel">7</text>
    </g>
  </g>
  <g s:type="split" transform="translate(183.42857142857142,568)" s:width="5" s:height="40" id="cell_$split$,10,11,12,13,14,15,16,17,">
    <rect width="5" height="160" class="splitjoinBody" s:generic="body"/>
    <s:alias val="$_split_"/>
    <g s:x="0" s:y="20" s:pid="in"/>
    <g transform="translate(4,10)" s:x="4" s:y="10" s:pid="out0">
      <text x="5" y="-4">0</text>
    </g>
    <g transform="translate(4,30)" s:x="4" s:y="10" s:pid="out0">
      <text x="5" y="-4">1</text>
    </g>
    <g transform="translate(4,50)" s:x="4" s:y="10" s:pid="out0">
      <text x="5" y="-4">2</text>
    </g>
    <g transform="translate(4,70)" s:x="4" s:y="10" s:pid="out0">
      <text x="5" y="-4">3</text>
    </g>
    <g transform="translate(4,90)" s:x="4" s:y="10" s:pid="out0">
      <text x="5" y="-4">4</text>
    </g>
    <g transform="translate(4,110)" s:x="4" s:y="10" s:pid="out0">
      <text x="5" y="-4">5</text>
    </g>
    <g transform="translate(4,130)" s:x="4" s:y="10" s:pid="out0">
      <text x="5" y="-4">6</text>
    </g>
    <g transform="translate(4,150)" s:x="4" s:y="10" s:pid="out0">
      <text x="5" y="-4">7</text>
    </g>
  </g>
  <g s:type="split" transform="translate(93.42857142857143,379.5)" s:width="5" s:height="40" id="cell_$split$,2,3,4,5,6,7,8,9,">
    <rect width="5" height="160" class="splitjoinBody" s:generic="body"/>
    <s:alias val="$_split_"/>
    <g s:x="0" s:y="20" s:pid="in"/>
    <g transform="translate(4,10)" s:x="4" s:y="10" s:pid="out0">
      <text x="5" y="-4">7</text>
    </g>
    <g transform="translate(4,30)" s:x="4" s:y="10" s:pid="out0">
      <text x="5" y="-4">0</text>
    </g>
    <g transform="translate(4,50)" s:x="4" s:y="10" s:pid="out0">
      <text x="5" y="-4">1</text>
    </g>
    <g transform="translate(4,70)" s:x="4" s:y="10" s:pid="out0">
      <text x="5" y="-4">2</text>
    </g>
    <g transform="translate(4,90)" s:x="4" s:y="10" s:pid="out0">
      <text x="5" y="-4">3</text>
    </g>
    <g transform="translate(4,110)" s:x="4" s:y="10" s:pid="out0">
      <text x="5" y="-4">4</text>
    </g>
    <g transform="translate(4,130)" s:x="4" s:y="10" s:pid="out0">
      <text x="5" y="-4">5</text>
    </g>
    <g transform="translate(4,150)" s:x="4" s:y="10" s:pid="out0">
      <text x="5" y="-4">6</text>
    </g>
  </g>
  <line x1="187.92857142857142" x2="187.92857142857142" y1="578" y2="556" class="net_10"/>
  <line x1="187.92857142857142" x2="207" y1="556" y2="556" class="net_10"/>
  <line x1="207" x2="207" y1="556" y2="232.5" class="net_10"/>
  <circle cx="207" cy="556" r="2" style="fill:#000" class="net_10"/>
  <line x1="207" x2="232" y1="232.5" y2="232.5" class="net_10"/>
  <line x1="187.92857142857142" x2="187.92857142857142" y1="578" y2="556" class="net_10"/>
  <line x1="187.92857142857142" x2="1657" y1="556" y2="556" class="net_10"/>
  <line x1="1657" x2="1657" y1="556" y2="323" class="net_10"/>
  <line x1="1657" x2="1677.5" y1="323" y2="323" class="net_10"/>
  <line x1="1677.5" x2="1677.5" y1="323" y2="345" class="net_10"/>
  <line x1="192" x2="217" y1="64" y2="64" class="net_26"/>
  <line x1="217" x2="217" y1="64" y2="247.5" class="net_26"/>
  <circle cx="217" cy="64" r="2" style="fill:#000" class="net_26"/>
  <line x1="217" x2="232" y1="247.5" y2="247.5" class="net_26"/>
  <line x1="192" x2="1192" y1="64" y2="64" class="net_26"/>
  <line x1="1192" x2="1192" y1="64" y2="139.5" class="net_26"/>
  <line x1="1192" x2="1207" y1="139.5" y2="139.5" class="net_26"/>
  <line x1="327" x2="337" y1="232.5" y2="232.5" class="net_28"/>
  <line x1="337" x2="337" y1="232.5" y2="202.5" class="net_28"/>
  <circle cx="337" cy="232.5" r="2" style="fill:#000" class="net_28"/>
  <line x1="337" x2="362" y1="202.5" y2="202.5" class="net_28"/>
  <line x1="327" x2="1667" y1="232.5" y2="232.5" class="net_28"/>
  <line x1="1667" x2="1667" y1="232.5" y2="365.5" class="net_28"/>
  <line x1="1667" x2="1677" y1="365.5" y2="365.5" class="net_28"/>
  <line x1="322" x2="347" y1="85" y2="85" class="net_29"/>
  <line x1="347" x2="347" y1="85" y2="217.5" class="net_29"/>
  <circle cx="347" cy="85" r="2" style="fill:#000" class="net_29"/>
  <line x1="347" x2="362" y1="217.5" y2="217.5" class="net_29"/>
  <line x1="322" x2="1272" y1="85" y2="85" class="net_29"/>
  <line x1="457" x2="467" y1="278.5" y2="278.5" class="net_31"/>
  <line x1="467" x2="467" y1="278.5" y2="248.5" class="net_31"/>
  <circle cx="467" cy="278.5" r="2" style="fill:#000" class="net_31"/>
  <line x1="467" x2="492" y1="248.5" y2="248.5" class="net_31"/>
  <line x1="457" x2="1647" y1="278.5" y2="278.5" class="net_31"/>
  <line x1="1647" x2="1647" y1="278.5" y2="385.5" class="net_31"/>
  <line x1="1647" x2="1677" y1="385.5" y2="385.5" class="net_31"/>
  <line x1="452" x2="477" y1="108.5" y2="108.5" class="net_32"/>
  <line x1="477" x2="477" y1="108.5" y2="263.5" class="net_32"/>
  <circle cx="477" cy="108.5" r="2" style="fill:#000" class="net_32"/>
  <line x1="477" x2="492" y1="263.5" y2="263.5" class="net_32"/>
  <line x1="452" x2="1337" y1="108.5" y2="108.5" class="net_32"/>
  <line x1="587" x2="597" y1="379.5" y2="379.5" class="net_34"/>
  <line x1="597" x2="597" y1="379.5" y2="349.5" class="net_34"/>
  <circle cx="597" cy="379.5" r="2" style="fill:#000" class="net_34"/>
  <line x1="597" x2="622" y1="349.5" y2="349.5" class="net_34"/>
  <line x1="587" x2="1637" y1="379.5" y2="379.5" class="net_34"/>
  <line x1="1637" x2="1637" y1="379.5" y2="405.5" class="net_34"/>
  <line x1="1637" x2="1677" y1="405.5" y2="405.5" class="net_34"/>
  <line x1="582" x2="607" y1="163" y2="163" class="net_35"/>
  <line x1="607" x2="607" y1="163" y2="364.5" class="net_35"/>
  <circle cx="607" cy="163" r="2" style="fill:#000" class="net_35"/>
  <line x1="607" x2="622" y1="364.5" y2="364.5" class="net_35"/>
  <line x1="582" x2="1402" y1="163" y2="163" class="net_35"/>
  <line x1="717" x2="727" y1="425.5" y2="425.5" class="net_37"/>
  <line x1="727" x2="727" y1="425.5" y2="395.5" class="net_37"/>
  <circle cx="727" cy="425.5" r="2" style="fill:#000" class="net_37"/>
  <line x1="727" x2="752" y1="395.5" y2="395.5" class="net_37"/>
  <line x1="717" x2="1677" y1="425.5" y2="425.5" class="net_37"/>
  <line x1="712" x2="737" y1="186.5" y2="186.5" class="net_38"/>
  <line x1="737" x2="737" y1="186.5" y2="410.5" class="net_38"/>
  <circle cx="737" cy="186.5" r="2" style="fill:#000" class="net_38"/>
  <line x1="737" x2="752" y1="410.5" y2="410.5" class="net_38"/>
  <line x1="712" x2="1467" y1="186.5" y2="186.5" class="net_38"/>
  <line x1="847" x2="882" y1="452.5" y2="452.5" class="net_40"/>
  <line x1="847" x2="857" y1="452.5" y2="452.5" class="net_40"/>
  <line x1="857" x2="857" y1="452.5" y2="436.5" class="net_40"/>
  <line x1="857" x2="1667" y1="436.5" y2="436.5" class="net_40"/>
  <line x1="1667" x2="1667" y1="436.5" y2="445.5" class="net_40"/>
  <circle cx="857" cy="452.5" r="2" style="fill:#000" class="net_40"/>
  <line x1="1667" x2="1677" y1="445.5" y2="445.5" class="net_40"/>
  <line x1="842" x2="857" y1="510" y2="510" class="net_41"/>
  <line x1="857" x2="857" y1="510" y2="467.5" class="net_41"/>
  <circle cx="857" cy="510" r="2" style="fill:#000" class="net_41"/>
  <line x1="857" x2="882" y1="467.5" y2="467.5" class="net_41"/>
  <line x1="842" x2="1507" y1="510" y2="510" class="net_41"/>
  <line x1="1507" x2="1507" y1="510" y2="313" class="net_41"/>
  <line x1="1507" x2="1532" y1="313" y2="313" class="net_41"/>
  <line x1="977" x2="987" y1="533.5" y2="533.5" class="net_43"/>
  <line x1="987" x2="987" y1="533.5" y2="754" class="net_43"/>
  <circle cx="987" cy="533.5" r="2" style="fill:#000" class="net_43"/>
  <line x1="987" x2="1012" y1="754" y2="754" class="net_43"/>
  <line x1="977" x2="1667" y1="533.5" y2="533.5" class="net_43"/>
  <line x1="1667" x2="1667" y1="533.5" y2="465.5" class="net_43"/>
  <line x1="1667" x2="1677" y1="465.5" y2="465.5" class="net_43"/>
  <line x1="972" x2="987" y1="784" y2="784" class="net_44"/>
  <line x1="987" x2="987" y1="784" y2="769" class="net_44"/>
  <circle cx="987" cy="784" r="2" style="fill:#000" class="net_44"/>
  <line x1="987" x2="1012" y1="769" y2="769" class="net_44"/>
  <line x1="972" x2="1572" y1="784" y2="784" class="net_44"/>
  <line x1="1572" x2="1572" y1="784" y2="320.5" class="net_44"/>
  <line x1="1572" x2="1597" y1="320.5" y2="320.5" class="net_44"/>
  <line x1="1107" x2="1117" y1="754" y2="754" class="net_46"/>
  <line x1="1117" x2="1117" y1="754" y2="248.5" class="net_46"/>
  <circle cx="1117" cy="754" r="2" style="fill:#000" class="net_46"/>
  <line x1="1117" x2="1142" y1="248.5" y2="248.5" class="net_46"/>
  <line x1="1107" x2="1677.5" y1="754" y2="754" class="net_46"/>
  <line x1="1677.5" x2="1677.5" y1="754" y2="486" class="net_46"/>
  <line x1="1102" x2="1127" y1="22" y2="22" class="net_47"/>
  <line x1="1127" x2="1127" y1="22" y2="263.5" class="net_47"/>
  <line x1="1127" x2="1142" y1="263.5" y2="263.5" class="net_47"/>
  <line x1="1172" x2="1182" y1="256" y2="256" class="net_48"/>
  <line x1="1182" x2="1182" y1="256" y2="124.5" class="net_48"/>
  <circle cx="1182" cy="256" r="2" style="fill:#000" class="net_48"/>
  <line x1="1182" x2="1207" y1="124.5" y2="124.5" class="net_48"/>
  <line x1="1172" x2="1647" y1="256" y2="256" class="net_48"/>
  <line x1="1647" x2="1647" y1="256" y2="53" class="net_48"/>
  <line x1="1647" x2="1677.5" y1="53" y2="53" class="net_48"/>
  <line x1="1677.5" x2="1677.5" y1="53" y2="75" class="net_48"/>
  <line x1="1237" x2="1247" y1="132" y2="132" class="net_49"/>
  <line x1="1247" x2="1247" y1="132" y2="70" class="net_49"/>
  <circle cx="1247" cy="132" r="2" style="fill:#000" class="net_49"/>
  <line x1="1247" x2="1272" y1="70" y2="70" class="net_49"/>
  <line x1="1237" x2="1657" y1="132" y2="132" class="net_49"/>
  <line x1="1657" x2="1657" y1="132" y2="95.5" class="net_49"/>
  <line x1="1657" x2="1677" y1="95.5" y2="95.5" class="net_49"/>
  <line x1="1302" x2="1312" y1="77.5" y2="77.5" class="net_50"/>
  <line x1="1312" x2="1312" y1="77.5" y2="93.5" class="net_50"/>
  <circle cx="1312" cy="77.5" r="2" style="fill:#000" class="net_50"/>
  <line x1="1312" x2="1337" y1="93.5" y2="93.5" class="net_50"/>
  <line x1="1302" x2="1667" y1="77.5" y2="77.5" class="net_50"/>
  <line x1="1667" x2="1667" y1="77.5" y2="115.5" class="net_50"/>
  <line x1="1667" x2="1677" y1="115.5" y2="115.5" class="net_50"/>
  <line x1="1367" x2="1377" y1="101" y2="101" class="net_51"/>
  <line x1="1377" x2="1377" y1="101" y2="148" class="net_51"/>
  <circle cx="1377" cy="101" r="2" style="fill:#000" class="net_51"/>
  <line x1="1377" x2="1402" y1="148" y2="148" class="net_51"/>
  <line x1="1367" x2="1637" y1="101" y2="101" class="net_51"/>
  <line x1="1637" x2="1637" y1="101" y2="135.5" class="net_51"/>
  <line x1="1637" x2="1677" y1="135.5" y2="135.5" class="net_51"/>
  <line x1="1432" x2="1442" y1="155.5" y2="155.5" class="net_52"/>
  <line x1="1442" x2="1442" y1="155.5" y2="171.5" class="net_52"/>
  <circle cx="1442" cy="155.5" r="2" style="fill:#000" class="net_52"/>
  <line x1="1442" x2="1467" y1="171.5" y2="171.5" class="net_52"/>
  <line x1="1432" x2="1677" y1="155.5" y2="155.5" class="net_52"/>
  <line x1="1497" x2="1507" y1="179" y2="179" class="net_53"/>
  <line x1="1507" x2="1507" y1="179" y2="298" class="net_53"/>
  <circle cx="1507" cy="179" r="2" style="fill:#000" class="net_53"/>
  <line x1="1507" x2="1532" y1="298" y2="298" class="net_53"/>
  <line x1="1497" x2="1657" y1="179" y2="179" class="net_53"/>
  <line x1="1657" x2="1657" y1="179" y2="175.5" class="net_53"/>
  <line x1="1657" x2="1677" y1="175.5" y2="175.5" class="net_53"/>
  <line x1="1562" x2="1597" y1="305.5" y2="305.5" class="net_54"/>
  <line x1="1562" x2="1572" y1="305.5" y2="305.5" class="net_54"/>
  <line x1="1572" x2="1572" y1="305.5" y2="289.5" class="net_54"/>
  <line x1="1572" x2="1657" y1="289.5" y2="289.5" class="net_54"/>
  <line x1="1657" x2="1657" y1="289.5" y2="195.5" class="net_54"/>
  <circle cx="1572" cy="305.5" r="2" style="fill:#000" class="net_54"/>
  <line x1="1657" x2="1677" y1="195.5" y2="195.5" class="net_54"/>
  <line x1="40" x2="52" y1="400" y2="400" class="net_2,3,4,5,6,7,8,9"/>
  <line x1="52" x2="52" y1="400" y2="42" class="net_2,3,4,5,6,7,8,9"/>
  <line x1="52" x2="1760" y1="42" y2="42" class="net_2,3,4,5,6,7,8,9"/>
  <line x1="1760" x2="1760" y1="42" y2="333" class="net_2,3,4,5,6,7,8,9"/>
  <circle cx="52" cy="400" r="2" style="fill:#000" class="net_2,3,4,5,6,7,8,9"/>
  <line x1="1760" x2="1785" y1="333" y2="333" class="net_2,3,4,5,6,7,8,9"/>
  <line x1="40" x2="93.42857142857143" y1="400" y2="400" class="net_2,3,4,5,6,7,8,9"/>
  <line x1="1750" x2="1785" y1="348" y2="348" class="net_56,57,58,59,60,61,62,63"/>
  <line x1="97.92857142857143" x2="97.92857142857143" y1="389.5" y2="22" class="net_9"/>
  <line x1="97.92857142857143" x2="1077" y1="22" y2="22" class="net_9"/>
  <line x1="98.42857142857143" x2="117" y1="410" y2="410" class="net_2"/>
  <line x1="117" x2="117" y1="410" y2="64" class="net_2"/>
  <line x1="117" x2="167" y1="64" y2="64" class="net_2"/>
  <line x1="98.42857142857143" x2="127" y1="430" y2="430" class="net_3"/>
  <line x1="127" x2="127" y1="430" y2="85" class="net_3"/>
  <line x1="127" x2="297" y1="85" y2="85" class="net_3"/>
  <line x1="98.42857142857143" x2="137" y1="450" y2="450" class="net_4"/>
  <line x1="137" x2="137" y1="450" y2="108.5" class="net_4"/>
  <line x1="137" x2="427" y1="108.5" y2="108.5" class="net_4"/>
  <line x1="98.42857142857143" x2="147" y1="470" y2="470" class="net_5"/>
  <line x1="147" x2="147" y1="470" y2="163" class="net_5"/>
  <line x1="147" x2="557" y1="163" y2="163" class="net_5"/>
  <line x1="98.42857142857143" x2="157" y1="490" y2="490" class="net_6"/>
  <line x1="157" x2="157" y1="490" y2="186.5" class="net_6"/>
  <line x1="157" x2="687" y1="186.5" y2="186.5" class="net_6"/>
  <line x1="98.42857142857143" x2="817" y1="510" y2="510" class="net_7"/>
  <line x1="97.92857142857143" x2="97.92857142857143" y1="530.5" y2="784" class="net_8"/>
  <line x1="97.92857142857143" x2="947" y1="784" y2="784" class="net_8"/>
  <line x1="188.42857142857142" x2="272" y1="598.5" y2="598.5" class="net_11"/>
  <line x1="272" x2="272" y1="598.5" y2="225" class="net_11"/>
  <line x1="272" x2="300" y1="225" y2="225" class="net_11"/>
  <line x1="262" x2="300" y1="240" y2="240" class="net_27"/>
  <line x1="188.42857142857142" x2="402" y1="618.5" y2="618.5" class="net_12"/>
  <line x1="402" x2="402" y1="618.5" y2="271" class="net_12"/>
  <line x1="402" x2="430" y1="271" y2="271" class="net_12"/>
  <line x1="392" x2="412" y1="210" y2="210" class="net_30"/>
  <line x1="412" x2="412" y1="210" y2="286" class="net_30"/>
  <line x1="412" x2="430" y1="286" y2="286" class="net_30"/>
  <line x1="188.42857142857142" x2="532" y1="638.5" y2="638.5" class="net_13"/>
  <line x1="532" x2="532" y1="638.5" y2="372" class="net_13"/>
  <line x1="532" x2="560" y1="372" y2="372" class="net_13"/>
  <line x1="522" x2="542" y1="256" y2="256" class="net_33"/>
  <line x1="542" x2="542" y1="256" y2="387" class="net_33"/>
  <line x1="542" x2="560" y1="387" y2="387" class="net_33"/>
  <line x1="188.42857142857142" x2="662" y1="658.5" y2="658.5" class="net_14"/>
  <line x1="662" x2="662" y1="658.5" y2="418" class="net_14"/>
  <line x1="662" x2="690" y1="418" y2="418" class="net_14"/>
  <line x1="652" x2="672" y1="357" y2="357" class="net_36"/>
  <line x1="672" x2="672" y1="357" y2="433" class="net_36"/>
  <line x1="672" x2="690" y1="433" y2="433" class="net_36"/>
  <line x1="188.42857142857142" x2="792" y1="678.5" y2="678.5" class="net_15"/>
  <line x1="792" x2="792" y1="678.5" y2="445" class="net_15"/>
  <line x1="792" x2="820" y1="445" y2="445" class="net_15"/>
  <line x1="782" x2="802" y1="403" y2="403" class="net_39"/>
  <line x1="802" x2="802" y1="403" y2="460" class="net_39"/>
  <line x1="802" x2="820" y1="460" y2="460" class="net_39"/>
  <line x1="188.42857142857142" x2="922" y1="698.5" y2="698.5" class="net_16"/>
  <line x1="922" x2="922" y1="698.5" y2="526" class="net_16"/>
  <line x1="922" x2="950" y1="526" y2="526" class="net_16"/>
  <line x1="912" x2="932" y1="460" y2="460" class="net_42"/>
  <line x1="932" x2="932" y1="460" y2="541" class="net_42"/>
  <line x1="932" x2="950" y1="541" y2="541" class="net_42"/>
  <line x1="187.92857142857142" x2="187.92857142857142" y1="719" y2="738" class="net_17"/>
  <line x1="187.92857142857142" x2="1052" y1="738" y2="738" class="net_17"/>
  <line x1="1052" x2="1052" y1="738" y2="746.5" class="net_17"/>
  <line x1="1052" x2="1080" y1="746.5" y2="746.5" class="net_17"/>
  <line x1="1042" x2="1080" y1="761.5" y2="761.5" class="net_45"/>
  <line x1="1683" x2="1695" y1="85.5" y2="85.5" class="net_48,49,50,51,52,53,54,55"/>
  <line x1="1695" x2="1695" y1="85.5" y2="340.5" class="net_48,49,50,51,52,53,54,55"/>
  <line x1="1695" x2="1723" y1="340.5" y2="340.5" class="net_48,49,50,51,52,53,54,55"/>
  <line x1="1683" x2="1723" y1="355.5" y2="355.5" class="net_10,28,31,34,37,40,43,46"/>
  <line x1="1815" x2="1850" y1="340.5" y2="340.5" class="net_18,19,20,21,22,23,24,25"/>
  <line x1="1627" x2="1677.5" y1="313" y2="313" class="net_55"/>
  <line x1="1677.5" x2="1677.5" y1="313" y2="216" class="net_55"/>
  <line x1="105" x2="117" y1="814" y2="814" class="net_10,11,12,13,14,15,16,17"/>
  <line x1="117" x2="117" y1="814" y2="588.5" class="net_10,11,12,13,14,15,16,17"/>
  <line x1="117" x2="183.42857142857142" y1="588.5" y2="588.5" class="net_10,11,12,13,14,15,16,17"/>
</svg>
