<svg style="background:white" xmlns="http://www.w3.org/2000/svg" xmlns:xlink="http://www.w3.org/1999/xlink" xmlns:s="https://github.com/nturley/netlistsvg" width="864" height="315.5">
  <style>svg {
    stroke:#000;
    fill:none;
  }
  text {
    fill:#000;
    stroke:none;
    font-size:10px;
    font-weight: bold;
    font-family: "Courier New", monospace;
  }
  .nodelabel {
    text-anchor: middle;
  }
  .inputPortLabel {
    text-anchor: end;
  }
  .splitjoinBody {
    fill:#000;
  }</style>
  <g s:type="and" transform="translate(449,105.5)" s:width="30" s:height="25" id="cell_$and$.yosys_tmp/prog_priority_arbiter_cyclic.sv:16$38">
    <s:alias val="$and"/>
    <s:alias val="$logic_and"/>
    <s:alias val="$_AND_"/>
    <path d="M0,0 L0,25 L15,25 A15 12.5 0 0 0 15,0 Z" class="cell_$and$.yosys_tmp/prog_priority_arbiter_cyclic.sv:16$38"/>
    <g s:x="0" s:y="5" s:pid="A"/>
    <g s:x="0" s:y="20" s:pid="B"/>
    <g s:x="30" s:y="12.5" s:pid="Y"/>
  </g>
  <g s:type="and" transform="translate(579,33)" s:width="30" s:height="25" id="cell_$and$.yosys_tmp/prog_priority_arbiter_cyclic.sv:21$42">
    <s:alias val="$and"/>
    <s:alias val="$logic_and"/>
    <s:alias val="$_AND_"/>
    <path d="M0,0 L0,25 L15,25 A15 12.5 0 0 0 15,0 Z" class="cell_$and$.yosys_tmp/prog_priority_arbiter_cyclic.sv:21$42"/>
    <g s:x="0" s:y="5" s:pid="A"/>
    <g s:x="0" s:y="20" s:pid="B"/>
    <g s:x="30" s:y="12.5" s:pid="Y"/>
  </g>
  <g s:type="and" transform="translate(189,237.5)" s:width="30" s:height="25" id="cell_$and$.yosys_tmp/prog_priority_arbiter_cyclic.sv:21$45">
    <s:alias val="$and"/>
    <s:alias val="$logic_and"/>
    <s:alias val="$_AND_"/>
    <path d="M0,0 L0,25 L15,25 A15 12.5 0 0 0 15,0 Z" class="cell_$and$.yosys_tmp/prog_priority_arbiter_cyclic.sv:21$45"/>
    <g s:x="0" s:y="5" s:pid="A"/>
    <g s:x="0" s:y="20" s:pid="B"/>
    <g s:x="30" s:y="12.5" s:pid="Y"/>
  </g>
  <g s:type="and" transform="translate(319,237.5)" s:width="30" s:height="25" id="cell_$and$.yosys_tmp/prog_priority_arbiter_cyclic.sv:21$48">
    <s:alias val="$and"/>
    <s:alias val="$logic_and"/>
    <s:alias val="$_AND_"/>
    <path d="M0,0 L0,25 L15,25 A15 12.5 0 0 0 15,0 Z" class="cell_$and$.yosys_tmp/prog_priority_arbiter_cyclic.sv:21$48"/>
    <g s:x="0" s:y="5" s:pid="A"/>
    <g s:x="0" s:y="20" s:pid="B"/>
    <g s:x="30" s:y="12.5" s:pid="Y"/>
  </g>
  <g s:type="and" transform="translate(757,118)" s:width="30" s:height="25" id="cell_$and$.yosys_tmp/prog_priority_arbiter_cyclic.sv:25$40">
    <s:alias val="$and"/>
    <s:alias val="$logic_and"/>
    <s:alias val="$_AND_"/>
    <path d="M0,0 L0,25 L15,25 A15 12.5 0 0 0 15,0 Z" class="cell_$and$.yosys_tmp/prog_priority_arbiter_cyclic.sv:25$40"/>
    <g s:x="0" s:y="5" s:pid="A"/>
    <g s:x="0" s:y="20" s:pid="B"/>
    <g s:x="30" s:y="12.5" s:pid="Y"/>
  </g>
  <g s:type="not" transform="translate(384,23)" s:width="30" s:height="20" id="cell_$not$.yosys_tmp/prog_priority_arbiter_cyclic.sv:16$37">
    <s:alias val="$_NOT_"/>
    <s:alias val="$not"/>
    <s:alias val="$logic_not"/>
    <path d="M0,0 L0,20 L20,10 Z" class="cell_$not$.yosys_tmp/prog_priority_arbiter_cyclic.sv:16$37"/>
    <circle cx="23" cy="10" r="3" class="cell_$not$.yosys_tmp/prog_priority_arbiter_cyclic.sv:16$37"/>
    <g s:x="0" s:y="10" s:pid="A"/>
    <g s:x="25" s:y="10" s:pid="Y"/>
  </g>
  <g s:type="not" transform="translate(514,43)" s:width="30" s:height="20" id="cell_$not$.yosys_tmp/prog_priority_arbiter_cyclic.sv:21$41">
    <s:alias val="$_NOT_"/>
    <s:alias val="$not"/>
    <s:alias val="$logic_not"/>
    <path d="M0,0 L0,20 L20,10 Z" class="cell_$not$.yosys_tmp/prog_priority_arbiter_cyclic.sv:21$41"/>
    <circle cx="23" cy="10" r="3" class="cell_$not$.yosys_tmp/prog_priority_arbiter_cyclic.sv:21$41"/>
    <g s:x="0" s:y="10" s:pid="A"/>
    <g s:x="25" s:y="10" s:pid="Y"/>
  </g>
  <g s:type="not" transform="translate(124,247.5)" s:width="30" s:height="20" id="cell_$not$.yosys_tmp/prog_priority_arbiter_cyclic.sv:21$44">
    <s:alias val="$_NOT_"/>
    <s:alias val="$not"/>
    <s:alias val="$logic_not"/>
    <path d="M0,0 L0,20 L20,10 Z" class="cell_$not$.yosys_tmp/prog_priority_arbiter_cyclic.sv:21$44"/>
    <circle cx="23" cy="10" r="3" class="cell_$not$.yosys_tmp/prog_priority_arbiter_cyclic.sv:21$44"/>
    <g s:x="0" s:y="10" s:pid="A"/>
    <g s:x="25" s:y="10" s:pid="Y"/>
  </g>
  <g s:type="not" transform="translate(254,283.5)" s:width="30" s:height="20" id="cell_$not$.yosys_tmp/prog_priority_arbiter_cyclic.sv:21$47">
    <s:alias val="$_NOT_"/>
    <s:alias val="$not"/>
    <s:alias val="$logic_not"/>
    <path d="M0,0 L0,20 L20,10 Z" class="cell_$not$.yosys_tmp/prog_priority_arbiter_cyclic.sv:21$47"/>
    <circle cx="23" cy="10" r="3" class="cell_$not$.yosys_tmp/prog_priority_arbiter_cyclic.sv:21$47"/>
    <g s:x="0" s:y="10" s:pid="A"/>
    <g s:x="25" s:y="10" s:pid="Y"/>
  </g>
  <g s:type="or" transform="translate(514,98)" s:width="30" s:height="25" id="cell_$or$.yosys_tmp/prog_priority_arbiter_cyclic.sv:16$39">
    <s:alias val="$or"/>
    <s:alias val="$logic_or"/>
    <s:alias val="$_OR_"/>
    <path d="M0,25 L0,25 L15,25 A15 12.5 0 0 0 15,0 L0,0" class="cell_$or$.yosys_tmp/prog_priority_arbiter_cyclic.sv:16$39"/>
    <path d="M0,0 A30 25 0 0 1 0,25" class="cell_$or$.yosys_tmp/prog_priority_arbiter_cyclic.sv:16$39"/>
    <g s:x="3" s:y="5" s:pid="A"/>
    <g s:x="3" s:y="20" s:pid="B"/>
    <g s:x="30" s:y="12.5" s:pid="Y"/>
  </g>
  <g s:type="or" transform="translate(644,135.5)" s:width="30" s:height="25" id="cell_$or$.yosys_tmp/prog_priority_arbiter_cyclic.sv:21$43">
    <s:alias val="$or"/>
    <s:alias val="$logic_or"/>
    <s:alias val="$_OR_"/>
    <path d="M0,25 L0,25 L15,25 A15 12.5 0 0 0 15,0 L0,0" class="cell_$or$.yosys_tmp/prog_priority_arbiter_cyclic.sv:21$43"/>
    <path d="M0,0 A30 25 0 0 1 0,25" class="cell_$or$.yosys_tmp/prog_priority_arbiter_cyclic.sv:21$43"/>
    <g s:x="3" s:y="5" s:pid="A"/>
    <g s:x="3" s:y="20" s:pid="B"/>
    <g s:x="30" s:y="12.5" s:pid="Y"/>
  </g>
  <g s:type="or" transform="translate(254,158)" s:width="30" s:height="25" id="cell_$or$.yosys_tmp/prog_priority_arbiter_cyclic.sv:21$46">
    <s:alias val="$or"/>
    <s:alias val="$logic_or"/>
    <s:alias val="$_OR_"/>
    <path d="M0,25 L0,25 L15,25 A15 12.5 0 0 0 15,0 L0,0" class="cell_$or$.yosys_tmp/prog_priority_arbiter_cyclic.sv:21$46"/>
    <path d="M0,0 A30 25 0 0 1 0,25" class="cell_$or$.yosys_tmp/prog_priority_arbiter_cyclic.sv:21$46"/>
    <g s:x="3" s:y="5" s:pid="A"/>
    <g s:x="3" s:y="20" s:pid="B"/>
    <g s:x="30" s:y="12.5" s:pid="Y"/>
  </g>
  <g s:type="or" transform="translate(384,230)" s:width="30" s:height="25" id="cell_$or$.yosys_tmp/prog_priority_arbiter_cyclic.sv:21$49">
    <s:alias val="$or"/>
    <s:alias val="$logic_or"/>
    <s:alias val="$_OR_"/>
    <path d="M0,25 L0,25 L15,25 A15 12.5 0 0 0 15,0 L0,0" class="cell_$or$.yosys_tmp/prog_priority_arbiter_cyclic.sv:21$49"/>
    <path d="M0,0 A30 25 0 0 1 0,25" class="cell_$or$.yosys_tmp/prog_priority_arbiter_cyclic.sv:21$49"/>
    <g s:x="3" s:y="5" s:pid="A"/>
    <g s:x="3" s:y="20" s:pid="B"/>
    <g s:x="30" s:y="12.5" s:pid="Y"/>
  </g>
  <g s:type="inputExt" transform="translate(12,233.5)" s:width="30" s:height="20" id="cell_r">
    <text x="15" y="-4" class="nodelabel cell_r" s:attribute="ref">r</text>
    <s:alias val="$_inputExt_"/>
    <path d="M0,0 L0,20 L15,20 L30,10 L15,0 Z" class="cell_r"/>
    <g s:x="28" s:y="10" s:pid="Y"/>
  </g>
  <g s:type="inputExt" transform="translate(124,133)" s:width="30" s:height="20" id="cell_p">
    <text x="15" y="-4" class="nodelabel cell_p" s:attribute="ref">p</text>
    <s:alias val="$_inputExt_"/>
    <path d="M0,0 L0,20 L15,20 L30,10 L15,0 Z" class="cell_p"/>
    <g s:x="28" s:y="10" s:pid="Y"/>
  </g>
  <g s:type="outputExt" transform="translate(822,120.5)" s:width="30" s:height="20" id="cell_g">
    <text x="15" y="-4" class="nodelabel cell_g" s:attribute="ref">g</text>
    <s:alias val="$_outputExt_"/>
    <path d="M30,0 L30,20 L15,20 L0,10 L15,0 Z" class="cell_g"/>
    <g s:x="0" s:y="10" s:pid="A"/>
  </g>
  <g s:type="join" transform="translate(716,117.5)" s:width="4" s:height="40" id="cell_$join$,17,20,23,14,">
    <rect width="5" height="80" class="splitjoinBody" s:generic="body"/>
    <s:alias val="$_join_"/>
    <g s:x="5" s:y="20" s:pid="out"/>
    <g transform="translate(0,10)" s:x="0" s:y="10" s:pid="in0">
      <text x="-3" y="-4" class="inputPortLabel">0</text>
    </g>
    <g transform="translate(0,30)" s:x="0" s:y="10" s:pid="in0">
      <text x="-3" y="-4" class="inputPortLabel">1</text>
    </g>
    <g transform="translate(0,50)" s:x="0" s:y="10" s:pid="in0">
      <text x="-3" y="-4" class="inputPortLabel">2</text>
    </g>
    <g transform="translate(0,70)" s:x="0" s:y="10" s:pid="in0">
      <text x="-3" y="-4" class="inputPortLabel">3</text>
    </g>
  </g>
  <g s:type="split" transform="translate(77,223)" s:width="5" s:height="40" id="cell_$split$,2,3,4,5,">
    <rect width="5" height="80" class="splitjoinBody" s:generic="body"/>
    <s:alias val="$_split_"/>
    <g s:x="0" s:y="20" s:pid="in"/>
    <g transform="translate(4,10)" s:x="4" s:y="10" s:pid="out0">
      <text x="5" y="-4">3</text>
    </g>
    <g transform="translate(4,30)" s:x="4" s:y="10" s:pid="out0">
      <text x="5" y="-4">0</text>
    </g>
    <g transform="translate(4,50)" s:x="4" s:y="10" s:pid="out0">
      <text x="5" y="-4">1</text>
    </g>
    <g transform="translate(4,70)" s:x="4" s:y="10" s:pid="out0">
      <text x="5" y="-4">2</text>
    </g>
  </g>
  <g s:type="split" transform="translate(204.8,122.5)" s:width="5" s:height="40" id="cell_$split$,6,7,8,9,">
    <rect width="5" height="80" class="splitjoinBody" s:generic="body"/>
    <s:alias val="$_split_"/>
    <g s:x="0" s:y="20" s:pid="in"/>
    <g transform="translate(4,10)" s:x="4" s:y="10" s:pid="out0">
      <text x="5" y="-4">0</text>
    </g>
    <g transform="translate(4,30)" s:x="4" s:y="10" s:pid="out0">
      <text x="5" y="-4">1</text>
    </g>
    <g transform="translate(4,50)" s:x="4" s:y="10" s:pid="out0">
      <text x="5" y="-4">2</text>
    </g>
    <g transform="translate(4,70)" s:x="4" s:y="10" s:pid="out0">
      <text x="5" y="-4">3</text>
    </g>
  </g>
  <line x1="414" x2="424" y1="242.5" y2="242.5" class="net_14"/>
  <line x1="424" x2="424" y1="242.5" y2="110.5" class="net_14"/>
  <circle cx="424" cy="242.5" r="2" style="fill:#000" class="net_14"/>
  <line x1="424" x2="449" y1="110.5" y2="110.5" class="net_14"/>
  <line x1="414" x2="716.5" y1="242.5" y2="242.5" class="net_14"/>
  <line x1="716.5" x2="716.5" y1="242.5" y2="188.5" class="net_14"/>
  <line x1="409" x2="434" y1="33" y2="33" class="net_15"/>
  <line x1="434" x2="434" y1="33" y2="125.5" class="net_15"/>
  <line x1="434" x2="449" y1="125.5" y2="125.5" class="net_15"/>
  <line x1="544" x2="554" y1="110.5" y2="110.5" class="net_17"/>
  <line x1="554" x2="554" y1="110.5" y2="38" class="net_17"/>
  <circle cx="554" cy="110.5" r="2" style="fill:#000" class="net_17"/>
  <line x1="554" x2="579" y1="38" y2="38" class="net_17"/>
  <line x1="544" x2="684" y1="110.5" y2="110.5" class="net_17"/>
  <line x1="684" x2="684" y1="110.5" y2="128" class="net_17"/>
  <line x1="684" x2="716" y1="128" y2="128" class="net_17"/>
  <line x1="539" x2="579" y1="53" y2="53" class="net_18"/>
  <line x1="674" x2="694" y1="148" y2="148" class="net_20"/>
  <line x1="694" x2="694" y1="148" y2="272.5" class="net_20"/>
  <line x1="694" x2="164" y1="272.5" y2="272.5" class="net_20"/>
  <line x1="164" x2="164" y1="272.5" y2="242.5" class="net_20"/>
  <circle cx="694" cy="148" r="2" style="fill:#000" class="net_20"/>
  <line x1="164" x2="189" y1="242.5" y2="242.5" class="net_20"/>
  <line x1="674" x2="716" y1="148" y2="148" class="net_20"/>
  <line x1="149" x2="189" y1="257.5" y2="257.5" class="net_21"/>
  <line x1="284" x2="294" y1="170.5" y2="170.5" class="net_23"/>
  <line x1="294" x2="294" y1="170.5" y2="242.5" class="net_23"/>
  <circle cx="294" cy="170.5" r="2" style="fill:#000" class="net_23"/>
  <line x1="294" x2="319" y1="242.5" y2="242.5" class="net_23"/>
  <line x1="284" x2="684" y1="170.5" y2="170.5" class="net_23"/>
  <line x1="684" x2="684" y1="170.5" y2="168" class="net_23"/>
  <line x1="684" x2="716" y1="168" y2="168" class="net_23"/>
  <line x1="279" x2="294" y1="293.5" y2="293.5" class="net_24"/>
  <line x1="294" x2="294" y1="293.5" y2="257.5" class="net_24"/>
  <line x1="294" x2="319" y1="257.5" y2="257.5" class="net_24"/>
  <line x1="40" x2="52" y1="243.5" y2="243.5" class="net_2,3,4,5"/>
  <line x1="52" x2="52" y1="243.5" y2="12" class="net_2,3,4,5"/>
  <line x1="52" x2="732" y1="12" y2="12" class="net_2,3,4,5"/>
  <line x1="732" x2="732" y1="12" y2="123" class="net_2,3,4,5"/>
  <circle cx="52" cy="243.5" r="2" style="fill:#000" class="net_2,3,4,5"/>
  <line x1="732" x2="757" y1="123" y2="123" class="net_2,3,4,5"/>
  <line x1="40" x2="77" y1="243.5" y2="243.5" class="net_2,3,4,5"/>
  <line x1="722" x2="757" y1="138" y2="138" class="net_17,20,23,14"/>
  <line x1="82" x2="99" y1="233.5" y2="233.5" class="net_5"/>
  <line x1="99" x2="99" y1="233.5" y2="33" class="net_5"/>
  <line x1="99" x2="384" y1="33" y2="33" class="net_5"/>
  <line x1="82" x2="109" y1="253.5" y2="253.5" class="net_2"/>
  <line x1="109" x2="109" y1="253.5" y2="53" class="net_2"/>
  <line x1="109" x2="514" y1="53" y2="53" class="net_2"/>
  <line x1="82" x2="99" y1="273.5" y2="273.5" class="net_3"/>
  <line x1="99" x2="99" y1="273.5" y2="257.5" class="net_3"/>
  <line x1="99" x2="124" y1="257.5" y2="257.5" class="net_3"/>
  <line x1="82" x2="254" y1="293.5" y2="293.5" class="net_4"/>
  <line x1="209.8" x2="229" y1="133" y2="133" class="net_6"/>
  <line x1="229" x2="229" y1="133" y2="94.5" class="net_6"/>
  <line x1="229" x2="489" y1="94.5" y2="94.5" class="net_6"/>
  <line x1="489" x2="489" y1="94.5" y2="103" class="net_6"/>
  <line x1="489" x2="517" y1="103" y2="103" class="net_6"/>
  <line x1="479" x2="517" y1="118" y2="118" class="net_16"/>
  <line x1="209.8" x2="229" y1="153" y2="153" class="net_7"/>
  <line x1="229" x2="229" y1="153" y2="140.5" class="net_7"/>
  <line x1="229" x2="647" y1="140.5" y2="140.5" class="net_7"/>
  <line x1="609" x2="619" y1="45.5" y2="45.5" class="net_19"/>
  <line x1="619" x2="619" y1="45.5" y2="155.5" class="net_19"/>
  <line x1="619" x2="647" y1="155.5" y2="155.5" class="net_19"/>
  <line x1="209.8" x2="229" y1="173" y2="173" class="net_8"/>
  <line x1="229" x2="229" y1="173" y2="163" class="net_8"/>
  <line x1="229" x2="257" y1="163" y2="163" class="net_8"/>
  <line x1="219" x2="229" y1="250" y2="250" class="net_22"/>
  <line x1="229" x2="229" y1="250" y2="178" class="net_22"/>
  <line x1="229" x2="257" y1="178" y2="178" class="net_22"/>
  <line x1="209.8" x2="359" y1="193" y2="193" class="net_9"/>
  <line x1="359" x2="359" y1="193" y2="235" class="net_9"/>
  <line x1="359" x2="387" y1="235" y2="235" class="net_9"/>
  <line x1="349" x2="387" y1="250" y2="250" class="net_25"/>
  <line x1="787" x2="822" y1="130.5" y2="130.5" class="net_10,11,12,13"/>
  <line x1="152" x2="204.8" y1="143" y2="143" class="net_6,7,8,9"/>
</svg>
