<svg style="background:white" xmlns="http://www.w3.org/2000/svg" xmlns:xlink="http://www.w3.org/1999/xlink" xmlns:s="https://github.com/nturley/netlistsvg" width="443" height="192.5">
  <style>svg {
    stroke:#000;
    fill:none;
  }
  text {
    fill:#000;
    stroke:none;
    font-size:10px;
    font-weight: bold;
    font-family: "Courier New", monospace;
  }
  .nodelabel {
    text-anchor: middle;
  }
  .inputPortLabel {
    text-anchor: end;
  }
  .splitjoinBody {
    fill:#000;
  }</style>
  <g s:type="and" transform="translate(201,143)" s:width="30" s:height="25" id="cell_$and$.yosys_tmp/RArb.sv:8$23">
    <s:alias val="$and"/>
    <s:alias val="$logic_and"/>
    <s:alias val="$_AND_"/>
    <path d="M0,0 L0,25 L15,25 A15 12.5 0 0 0 15,0 Z" class="cell_$and$.yosys_tmp/RArb.sv:8$23"/>
    <g s:x="0" s:y="5" s:pid="A"/>
    <g s:x="0" s:y="20" s:pid="B"/>
    <g s:x="30" s:y="12.5" s:pid="Y"/>
  </g>
  <g s:type="and" transform="translate(326,19.5)" s:width="30" s:height="25" id="cell_$and$.yosys_tmp/RArb.sv:9$20">
    <s:alias val="$and"/>
    <s:alias val="$logic_and"/>
    <s:alias val="$_AND_"/>
    <path d="M0,0 L0,25 L15,25 A15 12.5 0 0 0 15,0 Z" class="cell_$and$.yosys_tmp/RArb.sv:9$20"/>
    <g s:x="0" s:y="5" s:pid="A"/>
    <g s:x="0" s:y="20" s:pid="B"/>
    <g s:x="30" s:y="12.5" s:pid="Y"/>
  </g>
  <g s:type="not" transform="translate(136,138)" s:width="30" s:height="20" id="cell_$not$.yosys_tmp/RArb.sv:8$22">
    <s:alias val="$_NOT_"/>
    <s:alias val="$not"/>
    <s:alias val="$logic_not"/>
    <path d="M0,0 L0,20 L20,10 Z" class="cell_$not$.yosys_tmp/RArb.sv:8$22"/>
    <circle cx="23" cy="10" r="3" class="cell_$not$.yosys_tmp/RArb.sv:8$22"/>
    <g s:x="0" s:y="10" s:pid="A"/>
    <g s:x="25" s:y="10" s:pid="Y"/>
  </g>
  <g s:type="inputExt" transform="translate(12,160.5)" s:width="30" s:height="20" id="cell_r">
    <text x="15" y="-4" class="nodelabel cell_r" s:attribute="ref">r</text>
    <s:alias val="$_inputExt_"/>
    <path d="M0,0 L0,20 L15,20 L30,10 L15,0 Z" class="cell_r"/>
    <g s:x="28" s:y="10" s:pid="Y"/>
  </g>
  <g s:type="outputExt" transform="translate(391,22)" s:width="30" s:height="20" id="cell_g">
    <text x="15" y="-4" class="nodelabel cell_g" s:attribute="ref">g</text>
    <s:alias val="$_outputExt_"/>
    <path d="M30,0 L30,20 L15,20 L0,10 L15,0 Z" class="cell_g"/>
    <g s:x="0" s:y="10" s:pid="A"/>
  </g>
  <g s:type="constant" transform="translate(201,88)" s:width="30" s:height="20" id="cell_1">
    <text x="15" y="-4" class="nodelabel cell_1" s:attribute="ref">1</text>
    <s:alias val="$_constant_"/>
    <rect width="30" height="20" class="cell_1"/>
    <g s:x="30" s:y="10" s:pid="Y"/>
  </g>
  <g s:type="join" transform="translate(410,122.5)" s:width="4" s:height="40" id="cell_$join$,25,26,27,28,29,30,32,">
    <rect width="5" height="40" class="splitjoinBody" s:generic="body"/>
    <s:alias val="$_join_"/>
    <g s:x="5" s:y="20" s:pid="out"/>
    <g transform="translate(0,10)" s:x="0" s:y="10" s:pid="in0">
      <text x="-3" y="-4" class="inputPortLabel">0:5</text>
    </g>
    <g transform="translate(0,30)" s:x="0" s:y="10" s:pid="in0">
      <text x="-3" y="-4" class="inputPortLabel">6</text>
    </g>
  </g>
  <g s:type="join" transform="translate(285,67.5)" s:width="4" s:height="40" id="cell_$join$,31,25,26,27,28,29,30,32,">
    <rect width="5" height="40" class="splitjoinBody" s:generic="body"/>
    <s:alias val="$_join_"/>
    <g s:x="5" s:y="20" s:pid="out"/>
    <g transform="translate(0,10)" s:x="0" s:y="10" s:pid="in0">
      <text x="-3" y="-4" class="inputPortLabel">0:6</text>
    </g>
    <g transform="translate(0,30)" s:x="0" s:y="10" s:pid="in0">
      <text x="-3" y="-4" class="inputPortLabel">7</text>
    </g>
  </g>
  <g s:type="split" transform="translate(332,122.5)" s:width="5" s:height="40" id="cell_$split$,31,25,26,27,28,29,30,">
    <rect width="5" height="20" class="splitjoinBody" s:generic="body"/>
    <s:alias val="$_split_"/>
    <g s:x="0" s:y="20" s:pid="in"/>
    <g transform="translate(4,10)" s:x="4" s:y="10" s:pid="out0">
      <text x="5" y="-4">1:6</text>
    </g>
  </g>
  <g s:type="split" transform="translate(77,137.5)" s:width="5" s:height="40" id="cell_$split$,2,3,4,5,6,7,8,9,">
    <rect width="5" height="20" class="splitjoinBody" s:generic="body"/>
    <s:alias val="$_split_"/>
    <g s:x="0" s:y="20" s:pid="in"/>
    <g transform="translate(4,10)" s:x="4" s:y="10" s:pid="out0">
      <text x="5" y="-4">1:7</text>
    </g>
  </g>
  <line x1="161" x2="201" y1="148" y2="148" class="net_18,19,20,21,22,23,24"/>
  <line x1="416" x2="431" y1="143" y2="143" class="net_25,26,27,28,29,30,32"/>
  <line x1="431" x2="431" y1="143" y2="178" class="net_25,26,27,28,29,30,32"/>
  <line x1="431" x2="176" y1="178" y2="178" class="net_25,26,27,28,29,30,32"/>
  <line x1="176" x2="176" y1="178" y2="163" class="net_25,26,27,28,29,30,32"/>
  <line x1="176" x2="201" y1="163" y2="163" class="net_25,26,27,28,29,30,32"/>
  <line x1="40" x2="52" y1="170.5" y2="170.5" class="net_2,3,4,5,6,7,8,9"/>
  <line x1="52" x2="52" y1="170.5" y2="24.5" class="net_2,3,4,5,6,7,8,9"/>
  <circle cx="52" cy="170.5" r="2" style="fill:#000" class="net_2,3,4,5,6,7,8,9"/>
  <line x1="52" x2="326" y1="24.5" y2="24.5" class="net_2,3,4,5,6,7,8,9"/>
  <line x1="40" x2="77.5" y1="170.5" y2="170.5" class="net_2,3,4,5,6,7,8,9"/>
  <line x1="77.5" x2="77.5" y1="170.5" y2="158.5" class="net_2,3,4,5,6,7,8,9"/>
  <line x1="291" x2="301" y1="88" y2="88" class="net_31,25,26,27,28,29,30,32"/>
  <line x1="301" x2="301" y1="88" y2="39.5" class="net_31,25,26,27,28,29,30,32"/>
  <line x1="301" x2="326" y1="39.5" y2="39.5" class="net_31,25,26,27,28,29,30,32"/>
  <line x1="82" x2="136" y1="148" y2="148" class="net_3,4,5,6,7,8,9"/>
  <line x1="356" x2="391" y1="32" y2="32" class="net_10,11,12,13,14,15,16,17"/>
  <line x1="337" x2="410" y1="133" y2="133" class="net_25,26,27,28,29,30"/>
  <line x1="231" x2="241" y1="98" y2="98" class="net_32"/>
  <line x1="241" x2="241" y1="98" y2="54.5" class="net_32"/>
  <line x1="241" x2="366" y1="54.5" y2="54.5" class="net_32"/>
  <line x1="366" x2="366" y1="54.5" y2="153" class="net_32"/>
  <circle cx="241" cy="98" r="2" style="fill:#000" class="net_32"/>
  <line x1="366" x2="410" y1="153" y2="153" class="net_32"/>
  <line x1="231" x2="285" y1="98" y2="98" class="net_32"/>
  <line x1="231" x2="251" y1="155.5" y2="155.5" class="net_31,25,26,27,28,29,30"/>
  <line x1="251" x2="251" y1="155.5" y2="78" class="net_31,25,26,27,28,29,30"/>
  <circle cx="251" cy="155.5" r="2" style="fill:#000" class="net_31,25,26,27,28,29,30"/>
  <line x1="251" x2="285" y1="78" y2="78" class="net_31,25,26,27,28,29,30"/>
  <line x1="231" x2="332.5" y1="155.5" y2="155.5" class="net_31,25,26,27,28,29,30"/>
  <line x1="332.5" x2="332.5" y1="155.5" y2="143.5" class="net_31,25,26,27,28,29,30"/>
</svg>
