<svg style="background:white" xmlns="http://www.w3.org/2000/svg" xmlns:xlink="http://www.w3.org/1999/xlink" xmlns:s="https://github.com/nturley/netlistsvg" width="276" height="219.5">
  <style>svg {
    stroke:#000;
    fill:none;
  }
  text {
    fill:#000;
    stroke:none;
    font-size:10px;
    font-weight: bold;
    font-family: "Courier New", monospace;
  }
  .nodelabel {
    text-anchor: middle;
  }
  .inputPortLabel {
    text-anchor: end;
  }
  .splitjoinBody {
    fill:#000;
  }</style>
  <g s:type="generic" transform="translate(125,22)" s:width="30" s:height="40" id="cell_rom">
    <text x="15" y="-4" class="nodelabel cell_rom" s:attribute="ref">$mem_v2</text>
    <rect width="30" height="180" s:generic="body" class="cell_rom"/>
    <g transform="translate(0,10)" s:x="0" s:y="10" s:pid="in0" id="port_rom~RD_ADDR">
      <text x="-3" y="-4" class="inputPortLabel cell_rom">RD_ADDR</text>
    </g>
    <g transform="translate(0,30)" s:x="0" s:y="10" s:pid="in0" id="port_rom~RD_ARST">
      <text x="-3" y="-4" class="inputPortLabel cell_rom">RD_ARST</text>
    </g>
    <g transform="translate(0,50)" s:x="0" s:y="10" s:pid="in0" id="port_rom~RD_CLK">
      <text x="-3" y="-4" class="inputPortLabel cell_rom">RD_CLK</text>
    </g>
    <g transform="translate(0,70)" s:x="0" s:y="10" s:pid="in0" id="port_rom~RD_EN">
      <text x="-3" y="-4" class="inputPortLabel cell_rom">RD_EN</text>
    </g>
    <g transform="translate(0,90)" s:x="0" s:y="10" s:pid="in0" id="port_rom~RD_SRST">
      <text x="-3" y="-4" class="inputPortLabel cell_rom">RD_SRST</text>
    </g>
    <g transform="translate(0,110)" s:x="0" s:y="10" s:pid="in0" id="port_rom~WR_ADDR">
      <text x="-3" y="-4" class="inputPortLabel cell_rom">WR_ADDR</text>
    </g>
    <g transform="translate(0,130)" s:x="0" s:y="10" s:pid="in0" id="port_rom~WR_CLK">
      <text x="-3" y="-4" class="inputPortLabel cell_rom">WR_CLK</text>
    </g>
    <g transform="translate(0,150)" s:x="0" s:y="10" s:pid="in0" id="port_rom~WR_DATA">
      <text x="-3" y="-4" class="inputPortLabel cell_rom">WR_DATA</text>
    </g>
    <g transform="translate(0,170)" s:x="0" s:y="10" s:pid="in0" id="port_rom~WR_EN">
      <text x="-3" y="-4" class="inputPortLabel cell_rom">WR_EN</text>
    </g>
    <g transform="translate(30,10)" s:x="30" s:y="10" s:pid="out0" id="port_rom~RD_DATA">
      <text x="5" y="-4" style="fill:#000; stroke:none" class="cell_rom">RD_DATA</text>
    </g>
  </g>
  <g s:type="inputExt" transform="translate(12,22.5)" s:width="30" s:height="20" id="cell_a">
    <text x="15" y="-4" class="nodelabel cell_a" s:attribute="ref">a</text>
    <s:alias val="$_inputExt_"/>
    <path d="M0,0 L0,20 L15,20 L30,10 L15,0 Z" class="cell_a"/>
    <g s:x="28" s:y="10" s:pid="Y"/>
  </g>
  <g s:type="outputExt" transform="translate(234,22.5)" s:width="30" s:height="20" id="cell_d">
    <text x="15" y="-4" class="nodelabel cell_d" s:attribute="ref">d</text>
    <s:alias val="$_outputExt_"/>
    <path d="M30,0 L30,20 L15,20 L0,10 L15,0 Z" class="cell_d"/>
    <g s:x="0" s:y="10" s:pid="A"/>
  </g>
  <g s:type="constant" transform="translate(12,87.5)" s:width="30" s:height="20" id="cell_0">
    <text x="15" y="-4" class="nodelabel cell_0" s:attribute="ref">0</text>
    <s:alias val="$_constant_"/>
    <rect width="30" height="20" class="cell_0"/>
    <g s:x="30" s:y="10" s:pid="Y"/>
  </g>
  <g s:type="constant" transform="translate(12,152.5)" s:width="30" s:height="20" id="cell_1">
    <text x="15" y="-4" class="nodelabel cell_1" s:attribute="ref">1</text>
    <s:alias val="$_constant_"/>
    <rect width="30" height="20" class="cell_1"/>
    <g s:x="30" s:y="10" s:pid="Y"/>
  </g>
  <line x1="40" x2="125" y1="32.5" y2="32.5" class="net_2,3,4,5"/>
  <line x1="42" x2="52" y1="97.5" y2="97.5" class="net_38"/>
  <line x1="52" x2="52" y1="97.5" y2="52.5" class="net_38"/>
  <circle cx="52" cy="97.5" r="2" style="fill:#000" class="net_38"/>
  <line x1="52" x2="125" y1="52.5" y2="52.5" class="net_38"/>
  <line x1="42" x2="52" y1="97.5" y2="97.5" class="net_38"/>
  <line x1="52" x2="52" y1="97.5" y2="112.5" class="net_38"/>
  <line x1="52" x2="125" y1="112.5" y2="112.5" class="net_38"/>
  <line x1="42" x2="62" y1="162.5" y2="162.5" class="net_39"/>
  <line x1="62" x2="62" y1="162.5" y2="92.5" class="net_39"/>
  <line x1="62" x2="125" y1="92.5" y2="92.5" class="net_39"/>
  <line x1="72" x2="72" y1="207.5" y2="132.5" class="net_"/>
  <line x1="72" x2="125" y1="132.5" y2="132.5" class="net_"/>
  <line x1="72" x2="72" y1="207.5" y2="152.5" class="net_"/>
  <circle cx="72" cy="152.5" r="2" style="fill:#000" class="net_"/>
  <line x1="72" x2="125" y1="152.5" y2="152.5" class="net_"/>
  <line x1="72" x2="72" y1="207.5" y2="172.5" class="net_"/>
  <circle cx="72" cy="172.5" r="2" style="fill:#000" class="net_"/>
  <line x1="72" x2="125" y1="172.5" y2="172.5" class="net_"/>
  <line x1="72" x2="72" y1="207.5" y2="192.5" class="net_"/>
  <circle cx="72" cy="192.5" r="2" style="fill:#000" class="net_"/>
  <line x1="72" x2="125" y1="192.5" y2="192.5" class="net_"/>
  <line x1="156" x2="234" y1="32.5" y2="32.5" class="net_6,7,8,9,10,11,12,13,14,15,16,17,18,19,20,21,22,23,24,25,26,27,28,29,30,31,32,33,34,35,36,37"/>
</svg>
