<svg style="background:white" xmlns="http://www.w3.org/2000/svg" xmlns:xlink="http://www.w3.org/1999/xlink" xmlns:s="https://github.com/nturley/netlistsvg" width="365" height="119.5">
  <style>svg {
    stroke:#000;
    fill:none;
  }
  text {
    fill:#000;
    stroke:none;
    font-size:10px;
    font-weight: bold;
    font-family: "Courier New", monospace;
  }
  .nodelabel {
    text-anchor: middle;
  }
  .inputPortLabel {
    text-anchor: end;
  }
  .splitjoinBody {
    fill:#000;
  }</style>
  <g s:type="generic" transform="translate(84,22)" s:width="30" s:height="40" id="cell_$shl$.yosys_tmp/ShiftLeft.sv:9$101">
    <text x="15" y="-4" class="nodelabel cell_$shl$.yosys_tmp/ShiftLeft.sv:9$101" s:attribute="ref">$shl</text>
    <rect width="30" height="40" s:generic="body" class="cell_$shl$.yosys_tmp/ShiftLeft.sv:9$101"/>
    <g transform="translate(0,10)" s:x="0" s:y="10" s:pid="in0" id="port_$shl$.yosys_tmp/ShiftLeft.sv:9$101~A">
      <text x="-3" y="-4" class="inputPortLabel cell_$shl$.yosys_tmp/ShiftLeft.sv:9$101">A</text>
    </g>
    <g transform="translate(0,30)" s:x="0" s:y="10" s:pid="in0" id="port_$shl$.yosys_tmp/ShiftLeft.sv:9$101~B">
      <text x="-3" y="-4" class="inputPortLabel cell_$shl$.yosys_tmp/ShiftLeft.sv:9$101">B</text>
    </g>
    <g transform="translate(30,10)" s:x="30" s:y="10" s:pid="out0" id="port_$shl$.yosys_tmp/ShiftLeft.sv:9$101~Y">
      <text x="5" y="-4" style="fill:#000; stroke:none" class="cell_$shl$.yosys_tmp/ShiftLeft.sv:9$101">Y</text>
    </g>
  </g>
  <g s:type="inputExt" transform="translate(12,87.5)" s:width="30" s:height="20" id="cell_n">
    <text x="15" y="-4" class="nodelabel cell_n" s:attribute="ref">n</text>
    <s:alias val="$_inputExt_"/>
    <path d="M0,0 L0,20 L15,20 L30,10 L15,0 Z" class="cell_n"/>
    <g s:x="28" s:y="10" s:pid="Y"/>
  </g>
  <g s:type="inputExt" transform="translate(12,22.5)" s:width="30" s:height="20" id="cell_a">
    <text x="15" y="-4" class="nodelabel cell_a" s:attribute="ref">a</text>
    <s:alias val="$_inputExt_"/>
    <path d="M0,0 L0,20 L15,20 L30,10 L15,0 Z" class="cell_a"/>
    <g s:x="28" s:y="10" s:pid="Y"/>
  </g>
  <g s:type="outputExt" transform="translate(323,22.5)" s:width="30" s:height="20" id="cell_b">
    <text x="15" y="-4" class="nodelabel cell_b" s:attribute="ref">b</text>
    <s:alias val="$_outputExt_"/>
    <path d="M30,0 L30,20 L15,20 L0,10 L15,0 Z" class="cell_b"/>
    <g s:x="0" s:y="10" s:pid="A"/>
  </g>
  <line x1="40" x2="84" y1="32.5" y2="32.5" class="net_5,6,7,8,9,10,11,12"/>
  <line x1="40" x2="52" y1="97.5" y2="97.5" class="net_2,3,4"/>
  <line x1="52" x2="52" y1="97.5" y2="52.5" class="net_2,3,4"/>
  <line x1="52" x2="84" y1="52.5" y2="52.5" class="net_2,3,4"/>
  <line x1="115" x2="323" y1="32.5" y2="32.5" class="net_13,14,15,16,17,18,19,20,21,22,23,24,25,26,27,28"/>
</svg>
