<svg style="background:white" xmlns="http://www.w3.org/2000/svg" xmlns:xlink="http://www.w3.org/1999/xlink" xmlns:s="https://github.com/nturley/netlistsvg" width="304" height="401.5">
  <style>svg {
    stroke:#000;
    fill:none;
  }
  text {
    fill:#000;
    stroke:none;
    font-size:10px;
    font-weight: bold;
    font-family: "Courier New", monospace;
  }
  .nodelabel {
    text-anchor: middle;
  }
  .inputPortLabel {
    text-anchor: end;
  }
  .splitjoinBody {
    fill:#000;
  }</style>
  <g s:type="mux" transform="translate(207,12)" s:width="20" s:height="40" id="cell_$procmux$27">
    <s:alias val="$pmux"/>
    <s:alias val="$mux"/>
    <s:alias val="$_MUX_"/>
    <path d="M0,0 L20,10 L20,30 L0,40 Z" class="cell_$procmux$27"/>
    <g s:x="0" s:y="10" s:pid="A"/>
    <g s:x="0" s:y="30" s:pid="B"/>
    <g s:x="10" s:y="35" s:pid="S"/>
    <g s:x="20" s:y="20" s:pid="Y"/>
  </g>
  <g s:type="eq" transform="translate(78.66666666666667,49.5)" s:width="25" s:height="25" id="cell_$procmux$28_CMP0">
    <s:alias val="$eq"/>
    <circle r="12.5" cx="12.5" cy="12.5" class="cell_$procmux$28_CMP0"/>
    <line x1="7.5" x2="17.5" y1="10" y2="10" class="cell_$procmux$28_CMP0"/>
    <line x1="7.5" x2="17.5" y1="15" y2="15" class="cell_$procmux$28_CMP0"/>
    <g s:x="3" s:y="5" s:pid="A"/>
    <g s:x="3" s:y="20" s:pid="B"/>
    <g s:x="25" s:y="12.5" s:pid="Y"/>
  </g>
  <g s:type="eq" transform="translate(78.66666666666667,114.5)" s:width="25" s:height="25" id="cell_$procmux$29_CMP0">
    <s:alias val="$eq"/>
    <circle r="12.5" cx="12.5" cy="12.5" class="cell_$procmux$29_CMP0"/>
    <line x1="7.5" x2="17.5" y1="10" y2="10" class="cell_$procmux$29_CMP0"/>
    <line x1="7.5" x2="17.5" y1="15" y2="15" class="cell_$procmux$29_CMP0"/>
    <g s:x="3" s:y="5" s:pid="A"/>
    <g s:x="3" s:y="20" s:pid="B"/>
    <g s:x="25" s:y="12.5" s:pid="Y"/>
  </g>
  <g s:type="eq" transform="translate(78.66666666666667,194.5)" s:width="25" s:height="25" id="cell_$procmux$30_CMP0">
    <s:alias val="$eq"/>
    <circle r="12.5" cx="12.5" cy="12.5" class="cell_$procmux$30_CMP0"/>
    <line x1="7.5" x2="17.5" y1="10" y2="10" class="cell_$procmux$30_CMP0"/>
    <line x1="7.5" x2="17.5" y1="15" y2="15" class="cell_$procmux$30_CMP0"/>
    <g s:x="3" s:y="5" s:pid="A"/>
    <g s:x="3" s:y="20" s:pid="B"/>
    <g s:x="25" s:y="12.5" s:pid="Y"/>
  </g>
  <g s:type="eq" transform="translate(78.66666666666667,309.5)" s:width="25" s:height="25" id="cell_$procmux$31_CMP0">
    <s:alias val="$eq"/>
    <circle r="12.5" cx="12.5" cy="12.5" class="cell_$procmux$31_CMP0"/>
    <line x1="7.5" x2="17.5" y1="10" y2="10" class="cell_$procmux$31_CMP0"/>
    <line x1="7.5" x2="17.5" y1="15" y2="15" class="cell_$procmux$31_CMP0"/>
    <g s:x="3" s:y="5" s:pid="A"/>
    <g s:x="3" s:y="20" s:pid="B"/>
    <g s:x="25" s:y="12.5" s:pid="Y"/>
  </g>
  <g s:type="not" transform="translate(77,369.5)" s:width="30" s:height="20" id="cell_$procmux$32_CMP0">
    <s:alias val="$_NOT_"/>
    <s:alias val="$not"/>
    <s:alias val="$logic_not"/>
    <path d="M0,0 L0,20 L20,10 Z" class="cell_$procmux$32_CMP0"/>
    <circle cx="23" cy="10" r="3" class="cell_$procmux$32_CMP0"/>
    <g s:x="0" s:y="10" s:pid="A"/>
    <g s:x="25" s:y="10" s:pid="Y"/>
  </g>
  <g s:type="inputExt" transform="translate(12,189.5)" s:width="30" s:height="20" id="cell_code">
    <text x="15" y="-4" class="nodelabel cell_code" s:attribute="ref">code</text>
    <s:alias val="$_inputExt_"/>
    <path d="M0,0 L0,20 L15,20 L30,10 L15,0 Z" class="cell_code"/>
    <g s:x="28" s:y="10" s:pid="Y"/>
  </g>
  <g s:type="outputExt" transform="translate(262,22)" s:width="30" s:height="20" id="cell_num">
    <text x="15" y="-4" class="nodelabel cell_num" s:attribute="ref">num</text>
    <s:alias val="$_outputExt_"/>
    <path d="M30,0 L30,20 L15,20 L0,10 L15,0 Z" class="cell_num"/>
    <g s:x="0" s:y="10" s:pid="A"/>
  </g>
  <g s:type="constant" transform="translate(142,32)" s:width="30" s:height="20" id="cell_000001010011100">
    <text x="15" y="-4" class="nodelabel cell_000001010011100" s:attribute="ref">0x29c</text>
    <s:alias val="$_constant_"/>
    <rect width="30" height="20" class="cell_000001010011100"/>
    <g s:x="30" s:y="10" s:pid="Y"/>
  </g>
  <g s:type="constant" transform="translate(12,59.5)" s:width="30" s:height="20" id="cell_1111">
    <text x="15" y="-4" class="nodelabel cell_1111" s:attribute="ref">0xf</text>
    <s:alias val="$_constant_"/>
    <rect width="30" height="20" class="cell_1111"/>
    <g s:x="30" s:y="10" s:pid="Y"/>
  </g>
  <g s:type="constant" transform="translate(12,124.5)" s:width="30" s:height="20" id="cell_111">
    <text x="15" y="-4" class="nodelabel cell_111" s:attribute="ref">111</text>
    <s:alias val="$_constant_"/>
    <rect width="30" height="20" class="cell_111"/>
    <g s:x="30" s:y="10" s:pid="Y"/>
  </g>
  <g s:type="constant" transform="translate(12,254.5)" s:width="30" s:height="20" id="cell_11">
    <text x="15" y="-4" class="nodelabel cell_11" s:attribute="ref">11</text>
    <s:alias val="$_constant_"/>
    <rect width="30" height="20" class="cell_11"/>
    <g s:x="30" s:y="10" s:pid="Y"/>
  </g>
  <g s:type="constant" transform="translate(12,319.5)" s:width="30" s:height="20" id="cell_1">
    <text x="15" y="-4" class="nodelabel cell_1" s:attribute="ref">1</text>
    <s:alias val="$_constant_"/>
    <rect width="30" height="20" class="cell_1"/>
    <g s:x="30" s:y="10" s:pid="Y"/>
  </g>
  <g s:type="join" transform="translate(148.5,156.5)" s:width="4" s:height="40" id="cell_$join$,9,10,11,12,13,">
    <rect width="5" height="100" class="splitjoinBody" s:generic="body"/>
    <s:alias val="$_join_"/>
    <g s:x="5" s:y="20" s:pid="out"/>
    <g transform="translate(0,10)" s:x="0" s:y="10" s:pid="in0">
      <text x="-3" y="-4" class="inputPortLabel">0</text>
    </g>
    <g transform="translate(0,30)" s:x="0" s:y="10" s:pid="in0">
      <text x="-3" y="-4" class="inputPortLabel">1</text>
    </g>
    <g transform="translate(0,50)" s:x="0" s:y="10" s:pid="in0">
      <text x="-3" y="-4" class="inputPortLabel">2</text>
    </g>
    <g transform="translate(0,70)" s:x="0" s:y="10" s:pid="in0">
      <text x="-3" y="-4" class="inputPortLabel">3</text>
    </g>
    <g transform="translate(0,90)" s:x="0" s:y="10" s:pid="in0">
      <text x="-3" y="-4" class="inputPortLabel">4</text>
    </g>
  </g>
  <line x1="172" x2="207" y1="42" y2="42" class="net_14,15,16,17,18,19,20,21,22,23,24,25,26,27,28"/>
  <line x1="154.5" x2="217" y1="177" y2="177" class="net_9,10,11,12,13"/>
  <line x1="217" x2="217" y1="177" y2="47" class="net_9,10,11,12,13"/>
  <line x1="40" x2="62" y1="199.5" y2="199.5" class="net_2,3,4,5"/>
  <line x1="62" x2="62" y1="199.5" y2="54.5" class="net_2,3,4,5"/>
  <circle cx="62" cy="199.5" r="2" style="fill:#000" class="net_2,3,4,5"/>
  <line x1="62" x2="81.66666666666667" y1="54.5" y2="54.5" class="net_2,3,4,5"/>
  <line x1="40" x2="62" y1="199.5" y2="199.5" class="net_2,3,4,5"/>
  <line x1="62" x2="62" y1="199.5" y2="119.5" class="net_2,3,4,5"/>
  <circle cx="62" cy="119.5" r="2" style="fill:#000" class="net_2,3,4,5"/>
  <line x1="62" x2="81.66666666666667" y1="119.5" y2="119.5" class="net_2,3,4,5"/>
  <line x1="40" x2="81.66666666666667" y1="199.5" y2="199.5" class="net_2,3,4,5"/>
  <line x1="40" x2="62" y1="199.5" y2="199.5" class="net_2,3,4,5"/>
  <line x1="62" x2="62" y1="199.5" y2="314.5" class="net_2,3,4,5"/>
  <circle cx="62" cy="314.5" r="2" style="fill:#000" class="net_2,3,4,5"/>
  <line x1="62" x2="81.66666666666667" y1="314.5" y2="314.5" class="net_2,3,4,5"/>
  <line x1="40" x2="62" y1="199.5" y2="199.5" class="net_2,3,4,5"/>
  <line x1="62" x2="62" y1="199.5" y2="379.5" class="net_2,3,4,5"/>
  <line x1="62" x2="77" y1="379.5" y2="379.5" class="net_2,3,4,5"/>
  <line x1="42" x2="81.66666666666667" y1="69.5" y2="69.5" class="net_29,30,31,32"/>
  <line x1="42" x2="81.66666666666667" y1="134.5" y2="134.5" class="net_33,34,35"/>
  <line x1="42" x2="52" y1="264.5" y2="264.5" class="net_36,37"/>
  <line x1="52" x2="52" y1="264.5" y2="214.5" class="net_36,37"/>
  <line x1="52" x2="81.66666666666667" y1="214.5" y2="214.5" class="net_36,37"/>
  <line x1="42" x2="81.66666666666667" y1="329.5" y2="329.5" class="net_38"/>
  <line x1="227" x2="262" y1="32" y2="32" class="net_6,7,8"/>
  <line x1="103.66666666666667" x2="149" y1="62" y2="62" class="net_9"/>
  <line x1="149" x2="149" y1="62" y2="166.5" class="net_9"/>
  <line x1="103.66666666666667" x2="117" y1="127" y2="127" class="net_10"/>
  <line x1="117" x2="117" y1="127" y2="187" class="net_10"/>
  <line x1="117" x2="148.5" y1="187" y2="187" class="net_10"/>
  <line x1="103.66666666666667" x2="148.5" y1="207" y2="207" class="net_11"/>
  <line x1="103.66666666666667" x2="117" y1="322" y2="322" class="net_12"/>
  <line x1="117" x2="117" y1="322" y2="227" class="net_12"/>
  <line x1="117" x2="148.5" y1="227" y2="227" class="net_12"/>
  <line x1="102" x2="149" y1="379.5" y2="379.5" class="net_13"/>
  <line x1="149" x2="149" y1="379.5" y2="247.5" class="net_13"/>
</svg>
