<svg style="background:white" xmlns="http://www.w3.org/2000/svg" xmlns:xlink="http://www.w3.org/1999/xlink" xmlns:s="https://github.com/nturley/netlistsvg" width="994" height="1131.5">
  <style>svg {
    stroke:#000;
    fill:none;
  }
  text {
    fill:#000;
    stroke:none;
    font-size:10px;
    font-weight: bold;
    font-family: "Courier New", monospace;
  }
  .nodelabel {
    text-anchor: middle;
  }
  .inputPortLabel {
    text-anchor: end;
  }
  .splitjoinBody {
    fill:#000;
  }</style>
  <g s:type="generic" transform="translate(474,792)" s:width="30" s:height="40" id="cell_$auto$opt_reduce.cc:131:opt_pmux$116">
    <text x="15" y="-4" class="nodelabel cell_$auto$opt_reduce.cc:131:opt_pmux$116" s:attribute="ref">$reduce_or</text>
    <rect width="30" height="20" s:generic="body" class="cell_$auto$opt_reduce.cc:131:opt_pmux$116"/>
    <g transform="translate(0,10)" s:x="0" s:y="10" s:pid="in0" id="port_$auto$opt_reduce.cc:131:opt_pmux$116~A">
      <text x="-3" y="-4" class="inputPortLabel cell_$auto$opt_reduce.cc:131:opt_pmux$116">A</text>
    </g>
    <g transform="translate(30,10)" s:x="30" s:y="10" s:pid="out0" id="port_$auto$opt_reduce.cc:131:opt_pmux$116~Y">
      <text x="5" y="-4" style="fill:#000; stroke:none" class="cell_$auto$opt_reduce.cc:131:opt_pmux$116">Y</text>
    </g>
  </g>
  <g s:type="generic" transform="translate(474,1004)" s:width="30" s:height="40" id="cell_$auto$opt_reduce.cc:131:opt_pmux$118">
    <text x="15" y="-4" class="nodelabel cell_$auto$opt_reduce.cc:131:opt_pmux$118" s:attribute="ref">$reduce_or</text>
    <rect width="30" height="20" s:generic="body" class="cell_$auto$opt_reduce.cc:131:opt_pmux$118"/>
    <g transform="translate(0,10)" s:x="0" s:y="10" s:pid="in0" id="port_$auto$opt_reduce.cc:131:opt_pmux$118~A">
      <text x="-3" y="-4" class="inputPortLabel cell_$auto$opt_reduce.cc:131:opt_pmux$118">A</text>
    </g>
    <g transform="translate(30,10)" s:x="30" s:y="10" s:pid="out0" id="port_$auto$opt_reduce.cc:131:opt_pmux$118~Y">
      <text x="5" y="-4" style="fill:#000; stroke:none" class="cell_$auto$opt_reduce.cc:131:opt_pmux$118">Y</text>
    </g>
  </g>
  <g s:type="gt" transform="translate(379.6666666666667,309)" s:width="25" s:height="25" id="cell_$gt$.yosys_tmp/traffic_light_fsm.sv:75$10">
    <s:alias val="$gt"/>
    <circle r="12.5" cx="12.5" cy="12.5" class="cell_$gt$.yosys_tmp/traffic_light_fsm.sv:75$10"/>
    <line x1="7.5" x2="17.5" y1="7.5" y2="12.5" class="cell_$gt$.yosys_tmp/traffic_light_fsm.sv:75$10"/>
    <line x1="7.5" x2="17.5" y1="17.5" y2="12.5" class="cell_$gt$.yosys_tmp/traffic_light_fsm.sv:75$10"/>
    <g s:x="3" s:y="5" s:pid="A"/>
    <g s:x="3" s:y="20" s:pid="B"/>
    <g s:x="25" s:y="12.5" s:pid="Y"/>
  </g>
  <g s:type="generic" transform="translate(179,570.5)" s:width="30" s:height="40" id="cell_$procdff$110">
    <text x="15" y="-4" class="nodelabel cell_$procdff$110" s:attribute="ref">$adff</text>
    <rect width="30" height="60" s:generic="body" class="cell_$procdff$110"/>
    <g transform="translate(0,10)" s:x="0" s:y="10" s:pid="in0" id="port_$procdff$110~ARST">
      <text x="-3" y="-4" class="inputPortLabel cell_$procdff$110">ARST</text>
    </g>
    <g transform="translate(0,30)" s:x="0" s:y="10" s:pid="in0" id="port_$procdff$110~CLK">
      <text x="-3" y="-4" class="inputPortLabel cell_$procdff$110">CLK</text>
    </g>
    <g transform="translate(0,50)" s:x="0" s:y="10" s:pid="in0" id="port_$procdff$110~D">
      <text x="-3" y="-4" class="inputPortLabel cell_$procdff$110">D</text>
    </g>
    <g transform="translate(30,10)" s:x="30" s:y="10" s:pid="out0" id="port_$procdff$110~Q">
      <text x="5" y="-4" style="fill:#000; stroke:none" class="cell_$procdff$110">Q</text>
    </g>
  </g>
  <g s:type="generic" transform="translate(890,141)" s:width="30" s:height="40" id="cell_$procdff$115">
    <text x="15" y="-4" class="nodelabel cell_$procdff$115" s:attribute="ref">$adff</text>
    <rect width="30" height="60" s:generic="body" class="cell_$procdff$115"/>
    <g transform="translate(0,10)" s:x="0" s:y="10" s:pid="in0" id="port_$procdff$115~ARST">
      <text x="-3" y="-4" class="inputPortLabel cell_$procdff$115">ARST</text>
    </g>
    <g transform="translate(0,30)" s:x="0" s:y="10" s:pid="in0" id="port_$procdff$115~CLK">
      <text x="-3" y="-4" class="inputPortLabel cell_$procdff$115">CLK</text>
    </g>
    <g transform="translate(0,50)" s:x="0" s:y="10" s:pid="in0" id="port_$procdff$115~D">
      <text x="-3" y="-4" class="inputPortLabel cell_$procdff$115">D</text>
    </g>
    <g transform="translate(30,10)" s:x="30" s:y="10" s:pid="out0" id="port_$procdff$115~Q">
      <text x="5" y="-4" style="fill:#000; stroke:none" class="cell_$procdff$115">Q</text>
    </g>
  </g>
  <g s:type="mux" transform="translate(810,795)" s:width="20" s:height="40" id="cell_$procmux$101">
    <s:alias val="$pmux"/>
    <s:alias val="$mux"/>
    <s:alias val="$_MUX_"/>
    <path d="M0,0 L20,10 L20,30 L0,40 Z" class="cell_$procmux$101"/>
    <g s:x="0" s:y="10" s:pid="A"/>
    <g s:x="0" s:y="30" s:pid="B"/>
    <g s:x="10" s:y="35" s:pid="S"/>
    <g s:x="20" s:y="20" s:pid="Y"/>
  </g>
  <g s:type="eq" transform="translate(304.66666666666663,740)" s:width="25" s:height="25" id="cell_$procmux$102_CMP0">
    <s:alias val="$eq"/>
    <circle r="12.5" cx="12.5" cy="12.5" class="cell_$procmux$102_CMP0"/>
    <line x1="7.5" x2="17.5" y1="10" y2="10" class="cell_$procmux$102_CMP0"/>
    <line x1="7.5" x2="17.5" y1="15" y2="15" class="cell_$procmux$102_CMP0"/>
    <g s:x="3" s:y="5" s:pid="A"/>
    <g s:x="3" s:y="20" s:pid="B"/>
    <g s:x="25" s:y="12.5" s:pid="Y"/>
  </g>
  <g s:type="eq" transform="translate(304.66666666666663,800)" s:width="25" s:height="25" id="cell_$procmux$103_CMP0">
    <s:alias val="$eq"/>
    <circle r="12.5" cx="12.5" cy="12.5" class="cell_$procmux$103_CMP0"/>
    <line x1="7.5" x2="17.5" y1="10" y2="10" class="cell_$procmux$103_CMP0"/>
    <line x1="7.5" x2="17.5" y1="15" y2="15" class="cell_$procmux$103_CMP0"/>
    <g s:x="3" s:y="5" s:pid="A"/>
    <g s:x="3" s:y="20" s:pid="B"/>
    <g s:x="25" s:y="12.5" s:pid="Y"/>
  </g>
  <g s:type="eq" transform="translate(304.66666666666663,1012)" s:width="25" s:height="25" id="cell_$procmux$104_CMP0">
    <s:alias val="$eq"/>
    <circle r="12.5" cx="12.5" cy="12.5" class="cell_$procmux$104_CMP0"/>
    <line x1="7.5" x2="17.5" y1="10" y2="10" class="cell_$procmux$104_CMP0"/>
    <line x1="7.5" x2="17.5" y1="15" y2="15" class="cell_$procmux$104_CMP0"/>
    <g s:x="3" s:y="5" s:pid="A"/>
    <g s:x="3" s:y="20" s:pid="B"/>
    <g s:x="25" s:y="12.5" s:pid="Y"/>
  </g>
  <g s:type="not" transform="translate(304,872.5)" s:width="30" s:height="20" id="cell_$procmux$105_CMP0">
    <s:alias val="$_NOT_"/>
    <s:alias val="$not"/>
    <s:alias val="$logic_not"/>
    <path d="M0,0 L0,20 L20,10 Z" class="cell_$procmux$105_CMP0"/>
    <circle cx="23" cy="10" r="3" class="cell_$procmux$105_CMP0"/>
    <g s:x="0" s:y="10" s:pid="A"/>
    <g s:x="25" s:y="10" s:pid="Y"/>
  </g>
  <g s:type="mux" transform="translate(537,64)" s:width="20" s:height="40" id="cell_$procmux$13">
    <s:alias val="$pmux"/>
    <s:alias val="$mux"/>
    <s:alias val="$_MUX_"/>
    <path d="M0,0 L20,10 L20,30 L0,40 Z" class="cell_$procmux$13"/>
    <g s:x="0" s:y="10" s:pid="A"/>
    <g s:x="0" s:y="30" s:pid="B"/>
    <g s:x="10" s:y="35" s:pid="S"/>
    <g s:x="20" s:y="20" s:pid="Y"/>
  </g>
  <g s:type="mux" transform="translate(734.6666666666666,369)" s:width="20" s:height="40" id="cell_$procmux$18">
    <s:alias val="$pmux"/>
    <s:alias val="$mux"/>
    <s:alias val="$_MUX_"/>
    <path d="M0,0 L20,10 L20,30 L0,40 Z" class="cell_$procmux$18"/>
    <g s:x="0" s:y="10" s:pid="A"/>
    <g s:x="0" s:y="30" s:pid="B"/>
    <g s:x="10" s:y="35" s:pid="S"/>
    <g s:x="20" s:y="20" s:pid="Y"/>
  </g>
  <g s:type="mux" transform="translate(537,124)" s:width="20" s:height="40" id="cell_$procmux$24">
    <s:alias val="$pmux"/>
    <s:alias val="$mux"/>
    <s:alias val="$_MUX_"/>
    <path d="M0,0 L20,10 L20,30 L0,40 Z" class="cell_$procmux$24"/>
    <g s:x="0" s:y="10" s:pid="A"/>
    <g s:x="0" s:y="30" s:pid="B"/>
    <g s:x="10" s:y="35" s:pid="S"/>
    <g s:x="20" s:y="20" s:pid="Y"/>
  </g>
  <g s:type="mux" transform="translate(734.6666666666666,429)" s:width="20" s:height="40" id="cell_$procmux$30">
    <s:alias val="$pmux"/>
    <s:alias val="$mux"/>
    <s:alias val="$_MUX_"/>
    <path d="M0,0 L20,10 L20,30 L0,40 Z" class="cell_$procmux$30"/>
    <g s:x="0" s:y="10" s:pid="A"/>
    <g s:x="0" s:y="30" s:pid="B"/>
    <g s:x="10" s:y="35" s:pid="S"/>
    <g s:x="20" s:y="20" s:pid="Y"/>
  </g>
  <g s:type="mux" transform="translate(537,211.5)" s:width="20" s:height="40" id="cell_$procmux$37">
    <s:alias val="$pmux"/>
    <s:alias val="$mux"/>
    <s:alias val="$_MUX_"/>
    <path d="M0,0 L20,10 L20,30 L0,40 Z" class="cell_$procmux$37"/>
    <g s:x="0" s:y="10" s:pid="A"/>
    <g s:x="0" s:y="30" s:pid="B"/>
    <g s:x="10" s:y="35" s:pid="S"/>
    <g s:x="20" s:y="20" s:pid="Y"/>
  </g>
  <g s:type="mux" transform="translate(734.6666666666666,510)" s:width="20" s:height="40" id="cell_$procmux$44">
    <s:alias val="$pmux"/>
    <s:alias val="$mux"/>
    <s:alias val="$_MUX_"/>
    <path d="M0,0 L20,10 L20,30 L0,40 Z" class="cell_$procmux$44"/>
    <g s:x="0" s:y="10" s:pid="A"/>
    <g s:x="0" s:y="30" s:pid="B"/>
    <g s:x="10" s:y="35" s:pid="S"/>
    <g s:x="20" s:y="20" s:pid="Y"/>
  </g>
  <g s:type="mux" transform="translate(383,470)" s:width="20" s:height="40" id="cell_$procmux$52">
    <s:alias val="$pmux"/>
    <s:alias val="$mux"/>
    <s:alias val="$_MUX_"/>
    <path d="M0,0 L20,10 L20,30 L0,40 Z" class="cell_$procmux$52"/>
    <g s:x="0" s:y="10" s:pid="A"/>
    <g s:x="0" s:y="30" s:pid="B"/>
    <g s:x="10" s:y="35" s:pid="S"/>
    <g s:x="20" s:y="20" s:pid="Y"/>
  </g>
  <g s:type="mux" transform="translate(537,571)" s:width="20" s:height="40" id="cell_$procmux$63">
    <s:alias val="$pmux"/>
    <s:alias val="$mux"/>
    <s:alias val="$_MUX_"/>
    <path d="M0,0 L20,10 L20,30 L0,40 Z" class="cell_$procmux$63"/>
    <g s:x="0" s:y="10" s:pid="A"/>
    <g s:x="0" s:y="30" s:pid="B"/>
    <g s:x="10" s:y="35" s:pid="S"/>
    <g s:x="20" s:y="20" s:pid="Y"/>
  </g>
  <g s:type="mux" transform="translate(537,271.5)" s:width="20" s:height="40" id="cell_$procmux$74">
    <s:alias val="$pmux"/>
    <s:alias val="$mux"/>
    <s:alias val="$_MUX_"/>
    <path d="M0,0 L20,10 L20,30 L0,40 Z" class="cell_$procmux$74"/>
    <g s:x="0" s:y="10" s:pid="A"/>
    <g s:x="0" s:y="30" s:pid="B"/>
    <g s:x="10" s:y="35" s:pid="S"/>
    <g s:x="20" s:y="20" s:pid="Y"/>
  </g>
  <g s:type="mux" transform="translate(734.6666666666666,591)" s:width="20" s:height="40" id="cell_$procmux$82">
    <s:alias val="$pmux"/>
    <s:alias val="$mux"/>
    <s:alias val="$_MUX_"/>
    <path d="M0,0 L20,10 L20,30 L0,40 Z" class="cell_$procmux$82"/>
    <g s:x="0" s:y="10" s:pid="A"/>
    <g s:x="0" s:y="30" s:pid="B"/>
    <g s:x="10" s:y="35" s:pid="S"/>
    <g s:x="20" s:y="20" s:pid="Y"/>
  </g>
  <g s:type="mux" transform="translate(807.5,171.5)" s:width="20" s:height="40" id="cell_$procmux$86">
    <s:alias val="$pmux"/>
    <s:alias val="$mux"/>
    <s:alias val="$_MUX_"/>
    <path d="M0,0 L20,10 L20,30 L0,40 Z" class="cell_$procmux$86"/>
    <g s:x="0" s:y="10" s:pid="A"/>
    <g s:x="0" s:y="30" s:pid="B"/>
    <g s:x="10" s:y="35" s:pid="S"/>
    <g s:x="20" s:y="20" s:pid="Y"/>
  </g>
  <g s:type="mux" transform="translate(890,470)" s:width="20" s:height="40" id="cell_$procmux$91">
    <s:alias val="$pmux"/>
    <s:alias val="$mux"/>
    <s:alias val="$_MUX_"/>
    <path d="M0,0 L20,10 L20,30 L0,40 Z" class="cell_$procmux$91"/>
    <g s:x="0" s:y="10" s:pid="A"/>
    <g s:x="0" s:y="30" s:pid="B"/>
    <g s:x="10" s:y="35" s:pid="S"/>
    <g s:x="20" s:y="20" s:pid="Y"/>
  </g>
  <g s:type="mux" transform="translate(810,907)" s:width="20" s:height="40" id="cell_$procmux$96">
    <s:alias val="$pmux"/>
    <s:alias val="$mux"/>
    <s:alias val="$_MUX_"/>
    <path d="M0,0 L20,10 L20,30 L0,40 Z" class="cell_$procmux$96"/>
    <g s:x="0" s:y="10" s:pid="A"/>
    <g s:x="0" s:y="30" s:pid="B"/>
    <g s:x="10" s:y="35" s:pid="S"/>
    <g s:x="20" s:y="20" s:pid="Y"/>
  </g>
  <g s:type="sub" transform="translate(379.6666666666667,141.5)" s:width="25" s:height="25" id="cell_$sub$.yosys_tmp/traffic_light_fsm.sv:75$11">
    <s:alias val="$sub"/>
    <circle r="12.5" cx="12.5" cy="12.5" class="cell_$sub$.yosys_tmp/traffic_light_fsm.sv:75$11"/>
    <line x1="7.5" x2="17.5" y1="12.5" y2="12.5" class="cell_$sub$.yosys_tmp/traffic_light_fsm.sv:75$11"/>
    <g s:x="3" s:y="5" s:pid="A"/>
    <g s:x="3" s:y="20" s:pid="B"/>
    <g s:x="25" s:y="12.5" s:pid="Y"/>
  </g>
  <g s:type="inputExt" transform="translate(84,591)" s:width="30" s:height="20" id="cell_clk">
    <text x="15" y="-4" class="nodelabel cell_clk" s:attribute="ref">clk</text>
    <s:alias val="$_inputExt_"/>
    <path d="M0,0 L0,20 L15,20 L30,10 L15,0 Z" class="cell_clk"/>
    <g s:x="28" s:y="10" s:pid="Y"/>
  </g>
  <g s:type="inputExt" transform="translate(84,22)" s:width="30" s:height="20" id="cell_rst_n">
    <text x="15" y="-4" class="nodelabel cell_rst_n" s:attribute="ref">rst_n</text>
    <s:alias val="$_inputExt_"/>
    <path d="M0,0 L0,20 L15,20 L30,10 L15,0 Z" class="cell_rst_n"/>
    <g s:x="28" s:y="10" s:pid="Y"/>
  </g>
  <g s:type="inputExt" transform="translate(301,685)" s:width="30" s:height="20" id="cell_sensor">
    <text x="15" y="-4" class="nodelabel cell_sensor" s:attribute="ref">sensor</text>
    <s:alias val="$_inputExt_"/>
    <path d="M0,0 L0,20 L15,20 L30,10 L15,0 Z" class="cell_sensor"/>
    <g s:x="28" s:y="10" s:pid="Y"/>
  </g>
  <g s:type="outputExt" transform="translate(890,1034.5)" s:width="30" s:height="20" id="cell_main_light">
    <text x="15" y="-4" class="nodelabel cell_main_light" s:attribute="ref">main_light</text>
    <s:alias val="$_outputExt_"/>
    <path d="M30,0 L30,20 L15,20 L0,10 L15,0 Z" class="cell_main_light"/>
    <g s:x="0" s:y="10" s:pid="A"/>
  </g>
  <g s:type="outputExt" transform="translate(890,1099.5)" s:width="30" s:height="20" id="cell_side_light">
    <text x="15" y="-4" class="nodelabel cell_side_light" s:attribute="ref">side_light</text>
    <s:alias val="$_outputExt_"/>
    <path d="M30,0 L30,20 L15,20 L0,10 L15,0 Z" class="cell_side_light"/>
    <g s:x="0" s:y="10" s:pid="A"/>
  </g>
  <g s:type="constant" transform="translate(179,364)" s:width="30" s:height="20" id="cell_1">
    <text x="15" y="-4" class="nodelabel cell_1" s:attribute="ref">1</text>
    <s:alias val="$_constant_"/>
    <rect width="30" height="20" class="cell_1"/>
    <g s:x="30" s:y="10" s:pid="Y"/>
  </g>
  <g s:type="constant" transform="translate(725,750)" s:width="30" s:height="20" id="cell_010100001">
    <text x="15" y="-4" class="nodelabel cell_010100001" s:attribute="ref">0xa1</text>
    <s:alias val="$_constant_"/>
    <rect width="30" height="20" class="cell_010100001"/>
    <g s:x="30" s:y="10" s:pid="Y"/>
  </g>
  <g s:type="constant" transform="translate(179,429)" s:width="30" s:height="20" id="cell_10">
    <text x="15" y="-4" class="nodelabel cell_10" s:attribute="ref">10</text>
    <s:alias val="$_constant_"/>
    <rect width="30" height="20" class="cell_10"/>
    <g s:x="30" s:y="10" s:pid="Y"/>
  </g>
  <g s:type="constant" transform="translate(179,810)" s:width="30" s:height="20" id="cell_11">
    <text x="15" y="-4" class="nodelabel cell_11" s:attribute="ref">11</text>
    <s:alias val="$_constant_"/>
    <rect width="30" height="20" class="cell_11"/>
    <g s:x="30" s:y="10" s:pid="Y"/>
  </g>
  <g s:type="constant" transform="translate(377,64)" s:width="30" s:height="20" id="cell_110010">
    <text x="15" y="-4" class="nodelabel cell_110010" s:attribute="ref">0x32</text>
    <s:alias val="$_constant_"/>
    <rect width="30" height="20" class="cell_110010"/>
    <g s:x="30" s:y="10" s:pid="Y"/>
  </g>
  <g s:type="constant" transform="translate(474,369)" s:width="30" s:height="20" id="cell_00">
    <text x="15" y="-4" class="nodelabel cell_00" s:attribute="ref">00</text>
    <s:alias val="$_constant_"/>
    <rect width="30" height="20" class="cell_00"/>
    <g s:x="30" s:y="10" s:pid="Y"/>
  </g>
  <g s:type="constant" transform="translate(301,369)" s:width="30" s:height="20" id="cell_001010">
    <text x="15" y="-4" class="nodelabel cell_001010" s:attribute="ref">0xa</text>
    <s:alias val="$_constant_"/>
    <rect width="30" height="20" class="cell_001010"/>
    <g s:x="30" s:y="10" s:pid="Y"/>
  </g>
  <g s:type="constant" transform="translate(377,211.5)" s:width="30" s:height="20" id="cell_011110">
    <text x="15" y="-4" class="nodelabel cell_011110" s:attribute="ref">0x1e</text>
    <s:alias val="$_constant_"/>
    <rect width="30" height="20" class="cell_011110"/>
    <g s:x="30" s:y="10" s:pid="Y"/>
  </g>
  <g s:type="constant" transform="translate(377,622)" s:width="30" s:height="20" id="cell_01">
    <text x="15" y="-4" class="nodelabel cell_01" s:attribute="ref">01</text>
    <s:alias val="$_constant_"/>
    <rect width="30" height="20" class="cell_01"/>
    <g s:x="30" s:y="10" s:pid="Y"/>
  </g>
  <g s:type="constant" transform="translate(725,927)" s:width="30" s:height="20" id="cell_001010100">
    <text x="15" y="-4" class="nodelabel cell_001010100" s:attribute="ref">0x54</text>
    <s:alias val="$_constant_"/>
    <rect width="30" height="20" class="cell_001010100"/>
    <g s:x="30" s:y="10" s:pid="Y"/>
  </g>
  <g s:type="join" transform="translate(388,782)" s:width="4" s:height="40" id="cell_$join$,11,12,">
    <rect width="5" height="40" class="splitjoinBody" s:generic="body"/>
    <s:alias val="$_join_"/>
    <g s:x="5" s:y="20" s:pid="out"/>
    <g transform="translate(0,10)" s:x="0" s:y="10" s:pid="in0">
      <text x="-3" y="-4" class="inputPortLabel">0</text>
    </g>
    <g transform="translate(0,30)" s:x="0" s:y="10" s:pid="in0">
      <text x="-3" y="-4" class="inputPortLabel">1</text>
    </g>
  </g>
  <g s:type="join" transform="translate(388,994)" s:width="4" s:height="40" id="cell_$join$,14,15,">
    <rect width="5" height="40" class="splitjoinBody" s:generic="body"/>
    <s:alias val="$_join_"/>
    <g s:x="5" s:y="20" s:pid="out"/>
    <g transform="translate(0,10)" s:x="0" s:y="10" s:pid="in0">
      <text x="-3" y="-4" class="inputPortLabel">0</text>
    </g>
    <g transform="translate(0,30)" s:x="0" s:y="10" s:pid="in0">
      <text x="-3" y="-4" class="inputPortLabel">1</text>
    </g>
  </g>
  <g s:type="join" transform="translate(740,842)" s:width="4" s:height="40" id="cell_$join$,13,15,14,">
    <rect width="5" height="40" class="splitjoinBody" s:generic="body"/>
    <s:alias val="$_join_"/>
    <g s:x="5" s:y="20" s:pid="out"/>
    <g transform="translate(0,10)" s:x="0" s:y="10" s:pid="in0">
      <text x="-3" y="-4" class="inputPortLabel">0</text>
    </g>
    <g transform="translate(0,30)" s:x="0" s:y="10" s:pid="in0">
      <text x="-3" y="-4" class="inputPortLabel">1:2</text>
    </g>
  </g>
  <g s:type="join" transform="translate(542.3333333333333,852)" s:width="4" s:height="40" id="cell_$join$,15,14,">
    <rect width="5" height="40" class="splitjoinBody" s:generic="body"/>
    <s:alias val="$_join_"/>
    <g s:x="5" s:y="20" s:pid="out"/>
    <g transform="translate(0,10)" s:x="0" s:y="10" s:pid="in0">
      <text x="-3" y="-4" class="inputPortLabel">0</text>
    </g>
    <g transform="translate(0,30)" s:x="0" s:y="10" s:pid="in0">
      <text x="-3" y="-4" class="inputPortLabel">1</text>
    </g>
  </g>
  <g s:type="join" transform="translate(66,57)" s:width="4" s:height="40" id="cell_$join$,x,x,x,x,x,x,">
    <rect width="5" height="40" class="splitjoinBody" s:generic="body"/>
    <s:alias val="$_join_"/>
    <g s:x="5" s:y="20" s:pid="out"/>
    <g transform="translate(0,10)" s:x="0" s:y="10" s:pid="in0">
      <text x="-3" y="-4" class="inputPortLabel">0:2</text>
    </g>
    <g transform="translate(0,30)" s:x="0" s:y="10" s:pid="in0">
      <text x="-3" y="-4" class="inputPortLabel">3:5</text>
    </g>
  </g>
  <g s:type="join" transform="translate(744,181)" s:width="4" s:height="40" id="cell_$join$,40,41,42,43,44,45,48,49,50,51,52,53,56,57,58,59,60,61,72,73,74,75,76,77,">
    <rect width="5" height="80" class="splitjoinBody" s:generic="body"/>
    <s:alias val="$_join_"/>
    <g s:x="5" s:y="20" s:pid="out"/>
    <g transform="translate(0,10)" s:x="0" s:y="10" s:pid="in0">
      <text x="-3" y="-4" class="inputPortLabel">0:5</text>
    </g>
    <g transform="translate(0,30)" s:x="0" s:y="10" s:pid="in0">
      <text x="-3" y="-4" class="inputPortLabel">6:11</text>
    </g>
    <g transform="translate(0,50)" s:x="0" s:y="10" s:pid="in0">
      <text x="-3" y="-4" class="inputPortLabel">12:17</text>
    </g>
    <g transform="translate(0,70)" s:x="0" s:y="10" s:pid="in0">
      <text x="-3" y="-4" class="inputPortLabel">18:23</text>
    </g>
  </g>
  <g s:type="join" transform="translate(744,665)" s:width="4" s:height="40" id="cell_$join$,11,12,15,14,">
    <rect width="5" height="40" class="splitjoinBody" s:generic="body"/>
    <s:alias val="$_join_"/>
    <g s:x="5" s:y="20" s:pid="out"/>
    <g transform="translate(0,10)" s:x="0" s:y="10" s:pid="in0">
      <text x="-3" y="-4" class="inputPortLabel">0:1</text>
    </g>
    <g transform="translate(0,30)" s:x="0" s:y="10" s:pid="in0">
      <text x="-3" y="-4" class="inputPortLabel">2:3</text>
    </g>
  </g>
  <g s:type="join" transform="translate(824,479.5)" s:width="4" s:height="40" id="cell_$join$,46,47,54,55,62,63,78,79,">
    <rect width="5" height="80" class="splitjoinBody" s:generic="body"/>
    <s:alias val="$_join_"/>
    <g s:x="5" s:y="20" s:pid="out"/>
    <g transform="translate(0,10)" s:x="0" s:y="10" s:pid="in0">
      <text x="-3" y="-4" class="inputPortLabel">0:1</text>
    </g>
    <g transform="translate(0,30)" s:x="0" s:y="10" s:pid="in0">
      <text x="-3" y="-4" class="inputPortLabel">2:3</text>
    </g>
    <g transform="translate(0,50)" s:x="0" s:y="10" s:pid="in0">
      <text x="-3" y="-4" class="inputPortLabel">4:5</text>
    </g>
    <g transform="translate(0,70)" s:x="0" s:y="10" s:pid="in0">
      <text x="-3" y="-4" class="inputPortLabel">6:7</text>
    </g>
  </g>
  <g s:type="join" transform="translate(744,984)" s:width="4" s:height="40" id="cell_$join$,11,12,16,">
    <rect width="5" height="40" class="splitjoinBody" s:generic="body"/>
    <s:alias val="$_join_"/>
    <g s:x="5" s:y="20" s:pid="out"/>
    <g transform="translate(0,10)" s:x="0" s:y="10" s:pid="in0">
      <text x="-3" y="-4" class="inputPortLabel">0:1</text>
    </g>
    <g transform="translate(0,30)" s:x="0" s:y="10" s:pid="in0">
      <text x="-3" y="-4" class="inputPortLabel">2</text>
    </g>
  </g>
  <g s:type="split" transform="translate(48,12)" s:width="5" s:height="40" id="cell_$split$,x,x,x,">
    <rect width="5" height="20" class="splitjoinBody" s:generic="body"/>
    <s:alias val="$_split_"/>
    <g s:x="0" s:y="20" s:pid="in"/>
    <g transform="translate(4,10)" s:x="4" s:y="10" s:pid="out0">
      <text x="5" y="-4">0:1</text>
    </g>
  </g>
  <line x1="394" x2="474" y1="802.5" y2="802.5" class="net_11,12"/>
  <line x1="394" x2="417" y1="802.5" y2="802.5" class="net_11,12"/>
  <line x1="417" x2="417" y1="802.5" y2="675.5" class="net_11,12"/>
  <circle cx="417" cy="802.5" r="2" style="fill:#000" class="net_11,12"/>
  <line x1="417" x2="744" y1="675.5" y2="675.5" class="net_11,12"/>
  <line x1="394" x2="417" y1="802.5" y2="802.5" class="net_11,12"/>
  <line x1="417" x2="417" y1="802.5" y2="983" class="net_11,12"/>
  <line x1="417" x2="700" y1="983" y2="983" class="net_11,12"/>
  <line x1="700" x2="700" y1="983" y2="994.5" class="net_11,12"/>
  <line x1="700" x2="744" y1="994.5" y2="994.5" class="net_11,12"/>
  <line x1="394" x2="474" y1="1014.5" y2="1014.5" class="net_14,15"/>
  <line x1="921" x2="982" y1="151.5" y2="151.5" class="net_17,18,19,20,21,22"/>
  <line x1="982" x2="982" y1="151.5" y2="21" class="net_17,18,19,20,21,22"/>
  <line x1="982" x2="357" y1="21" y2="21" class="net_17,18,19,20,21,22"/>
  <line x1="357" x2="357" y1="21" y2="314" class="net_17,18,19,20,21,22"/>
  <line x1="357" x2="382.6666666666667" y1="314" y2="314" class="net_17,18,19,20,21,22"/>
  <line x1="921" x2="982" y1="151.5" y2="151.5" class="net_17,18,19,20,21,22"/>
  <line x1="982" x2="982" y1="151.5" y2="652" class="net_17,18,19,20,21,22"/>
  <line x1="982" x2="357" y1="652" y2="652" class="net_17,18,19,20,21,22"/>
  <line x1="357" x2="357" y1="652" y2="480" class="net_17,18,19,20,21,22"/>
  <line x1="357" x2="383" y1="480" y2="480" class="net_17,18,19,20,21,22"/>
  <line x1="921" x2="982" y1="151.5" y2="151.5" class="net_17,18,19,20,21,22"/>
  <line x1="982" x2="982" y1="151.5" y2="21" class="net_17,18,19,20,21,22"/>
  <line x1="982" x2="357" y1="21" y2="21" class="net_17,18,19,20,21,22"/>
  <line x1="357" x2="357" y1="21" y2="146.5" class="net_17,18,19,20,21,22"/>
  <circle cx="357" cy="146.5" r="2" style="fill:#000" class="net_17,18,19,20,21,22"/>
  <circle cx="982" cy="151.5" r="2" style="fill:#000" class="net_17,18,19,20,21,22"/>
  <line x1="357" x2="382.6666666666667" y1="146.5" y2="146.5" class="net_17,18,19,20,21,22"/>
  <line x1="209" x2="261" y1="374" y2="374" class="net_80"/>
  <line x1="261" x2="261" y1="374" y2="329" class="net_80"/>
  <circle cx="261" cy="374" r="2" style="fill:#000" class="net_80"/>
  <line x1="261" x2="382.6666666666667" y1="329" y2="329" class="net_80"/>
  <line x1="209" x2="261" y1="374" y2="374" class="net_80"/>
  <line x1="261" x2="261" y1="374" y2="1032" class="net_80"/>
  <line x1="261" x2="307.66666666666663" y1="1032" y2="1032" class="net_80"/>
  <line x1="209" x2="261" y1="374" y2="374" class="net_80"/>
  <line x1="261" x2="261" y1="374" y2="329" class="net_80"/>
  <line x1="261" x2="367" y1="329" y2="329" class="net_80"/>
  <line x1="367" x2="367" y1="329" y2="161.5" class="net_80"/>
  <circle cx="367" cy="329" r="2" style="fill:#000" class="net_80"/>
  <line x1="367" x2="382.6666666666667" y1="161.5" y2="161.5" class="net_80"/>
  <line x1="112" x2="144" y1="32" y2="32" class="net_3"/>
  <line x1="144" x2="144" y1="32" y2="581" class="net_3"/>
  <circle cx="144" cy="32" r="2" style="fill:#000" class="net_3"/>
  <line x1="144" x2="179" y1="581" y2="581" class="net_3"/>
  <line x1="112" x2="850" y1="32" y2="32" class="net_3"/>
  <line x1="850" x2="850" y1="32" y2="151.5" class="net_3"/>
  <line x1="850" x2="890" y1="151.5" y2="151.5" class="net_3"/>
  <line x1="112" x2="179" y1="601" y2="601" class="net_2"/>
  <line x1="112" x2="124" y1="601" y2="601" class="net_2"/>
  <line x1="124" x2="124" y1="601" y2="43" class="net_2"/>
  <line x1="124" x2="840" y1="43" y2="43" class="net_2"/>
  <line x1="840" x2="840" y1="43" y2="171.5" class="net_2"/>
  <circle cx="124" cy="601" r="2" style="fill:#000" class="net_2"/>
  <line x1="840" x2="890" y1="171.5" y2="171.5" class="net_2"/>
  <line x1="910" x2="972" y1="490" y2="490" class="net_24,25"/>
  <line x1="972" x2="972" y1="490" y2="344" class="net_24,25"/>
  <line x1="972" x2="134" y1="344" y2="344" class="net_24,25"/>
  <line x1="134" x2="134" y1="344" y2="621" class="net_24,25"/>
  <line x1="134" x2="179" y1="621" y2="621" class="net_24,25"/>
  <line x1="827.5" x2="890" y1="191.5" y2="191.5" class="net_28,29,30,31,32,33"/>
  <line x1="785" x2="810" y1="805" y2="805" class="net_x,x,x"/>
  <line x1="785" x2="785" y1="805" y2="917" class="net_x,x,x"/>
  <line x1="785" x2="810" y1="917" y2="917" class="net_x,x,x"/>
  <line x1="755" x2="795" y1="760" y2="760" class="net_81,82,83,84,85,86,87,88,89"/>
  <line x1="795" x2="795" y1="760" y2="825" class="net_81,82,83,84,85,86,87,88,89"/>
  <line x1="795" x2="810" y1="825" y2="825" class="net_81,82,83,84,85,86,87,88,89"/>
  <line x1="746" x2="820" y1="862.5" y2="862.5" class="net_13,15,14"/>
  <line x1="820" x2="820" y1="862.5" y2="830" class="net_13,15,14"/>
  <line x1="210" x2="291" y1="581" y2="581" class="net_26,27"/>
  <line x1="291" x2="291" y1="581" y2="745" class="net_26,27"/>
  <circle cx="291" cy="581" r="2" style="fill:#000" class="net_26,27"/>
  <circle cx="291" cy="745" r="2" style="fill:#000" class="net_26,27"/>
  <line x1="291" x2="307.66666666666663" y1="745" y2="745" class="net_26,27"/>
  <line x1="210" x2="291" y1="581" y2="581" class="net_26,27"/>
  <line x1="291" x2="291" y1="581" y2="805" class="net_26,27"/>
  <circle cx="291" cy="805" r="2" style="fill:#000" class="net_26,27"/>
  <line x1="291" x2="307.66666666666663" y1="805" y2="805" class="net_26,27"/>
  <line x1="210" x2="291" y1="581" y2="581" class="net_26,27"/>
  <line x1="291" x2="291" y1="581" y2="1017" class="net_26,27"/>
  <line x1="291" x2="307.66666666666663" y1="1017" y2="1017" class="net_26,27"/>
  <line x1="210" x2="291" y1="581" y2="581" class="net_26,27"/>
  <line x1="291" x2="291" y1="581" y2="882.5" class="net_26,27"/>
  <circle cx="291" cy="882.5" r="2" style="fill:#000" class="net_26,27"/>
  <line x1="291" x2="304" y1="882.5" y2="882.5" class="net_26,27"/>
  <line x1="210" x2="291" y1="581" y2="581" class="net_26,27"/>
  <line x1="291" x2="291" y1="581" y2="399" class="net_26,27"/>
  <line x1="291" x2="734.6666666666666" y1="399" y2="399" class="net_26,27"/>
  <line x1="210" x2="291" y1="581" y2="581" class="net_26,27"/>
  <line x1="291" x2="291" y1="581" y2="459" class="net_26,27"/>
  <circle cx="291" cy="459" r="2" style="fill:#000" class="net_26,27"/>
  <line x1="291" x2="734.6666666666666" y1="459" y2="459" class="net_26,27"/>
  <line x1="210" x2="457" y1="581" y2="581" class="net_26,27"/>
  <line x1="457" x2="457" y1="581" y2="540" class="net_26,27"/>
  <circle cx="457" cy="581" r="2" style="fill:#000" class="net_26,27"/>
  <line x1="457" x2="734.6666666666666" y1="540" y2="540" class="net_26,27"/>
  <line x1="210" x2="537" y1="581" y2="581" class="net_26,27"/>
  <line x1="210" x2="457" y1="581" y2="581" class="net_26,27"/>
  <line x1="457" x2="457" y1="581" y2="621" class="net_26,27"/>
  <line x1="457" x2="734.6666666666666" y1="621" y2="621" class="net_26,27"/>
  <line x1="209" x2="281" y1="439" y2="439" class="net_90,91"/>
  <line x1="281" x2="281" y1="439" y2="760" class="net_90,91"/>
  <circle cx="281" cy="439" r="2" style="fill:#000" class="net_90,91"/>
  <line x1="281" x2="307.66666666666663" y1="760" y2="760" class="net_90,91"/>
  <line x1="209" x2="734.6666666666666" y1="439" y2="439" class="net_90,91"/>
  <line x1="209" x2="307.66666666666663" y1="820" y2="820" class="net_92,93"/>
  <line x1="209" x2="271" y1="820" y2="820" class="net_92,93"/>
  <line x1="271" x2="271" y1="820" y2="520" class="net_92,93"/>
  <circle cx="271" cy="820" r="2" style="fill:#000" class="net_92,93"/>
  <line x1="271" x2="734.6666666666666" y1="520" y2="520" class="net_92,93"/>
  <line x1="407" x2="537" y1="74" y2="74" class="net_95,96,97,98,99,100"/>
  <line x1="404.6666666666667" x2="417" y1="154" y2="154" class="net_34,35,36,37,38,39"/>
  <line x1="417" x2="417" y1="154" y2="94" class="net_34,35,36,37,38,39"/>
  <circle cx="417" cy="154" r="2" style="fill:#000" class="net_34,35,36,37,38,39"/>
  <line x1="417" x2="537" y1="94" y2="94" class="net_34,35,36,37,38,39"/>
  <line x1="404.6666666666667" x2="537" y1="154" y2="154" class="net_34,35,36,37,38,39"/>
  <line x1="404.6666666666667" x2="417" y1="154" y2="154" class="net_34,35,36,37,38,39"/>
  <line x1="417" x2="417" y1="154" y2="241.5" class="net_34,35,36,37,38,39"/>
  <circle cx="417" cy="241.5" r="2" style="fill:#000" class="net_34,35,36,37,38,39"/>
  <line x1="417" x2="537" y1="241.5" y2="241.5" class="net_34,35,36,37,38,39"/>
  <line x1="404.6666666666667" x2="417" y1="154" y2="154" class="net_34,35,36,37,38,39"/>
  <line x1="417" x2="417" y1="154" y2="301.5" class="net_34,35,36,37,38,39"/>
  <line x1="417" x2="537" y1="301.5" y2="301.5" class="net_34,35,36,37,38,39"/>
  <line x1="404.6666666666667" x2="437" y1="321.5" y2="321.5" class="net_23"/>
  <line x1="437" x2="437" y1="321.5" y2="114" class="net_23"/>
  <line x1="437" x2="547" y1="114" y2="114" class="net_23"/>
  <circle cx="437" cy="321.5" r="2" style="fill:#000" class="net_23"/>
  <line x1="547" x2="547" y1="114" y2="99" class="net_23"/>
  <line x1="404.6666666666667" x2="437" y1="321.5" y2="321.5" class="net_23"/>
  <line x1="437" x2="437" y1="321.5" y2="419" class="net_23"/>
  <line x1="437" x2="744.6666666666666" y1="419" y2="419" class="net_23"/>
  <circle cx="437" cy="419" r="2" style="fill:#000" class="net_23"/>
  <line x1="744.6666666666666" x2="744.6666666666666" y1="419" y2="404" class="net_23"/>
  <line x1="404.6666666666667" x2="437" y1="321.5" y2="321.5" class="net_23"/>
  <line x1="437" x2="437" y1="321.5" y2="201.5" class="net_23"/>
  <line x1="437" x2="547" y1="201.5" y2="201.5" class="net_23"/>
  <circle cx="437" cy="201.5" r="2" style="fill:#000" class="net_23"/>
  <line x1="547" x2="547" y1="201.5" y2="159" class="net_23"/>
  <line x1="404.6666666666667" x2="437" y1="321.5" y2="321.5" class="net_23"/>
  <line x1="437" x2="437" y1="321.5" y2="479" class="net_23"/>
  <line x1="437" x2="744.6666666666666" y1="479" y2="479" class="net_23"/>
  <circle cx="437" cy="479" r="2" style="fill:#000" class="net_23"/>
  <line x1="744.6666666666666" x2="744.6666666666666" y1="479" y2="464" class="net_23"/>
  <line x1="404.6666666666667" x2="437" y1="321.5" y2="321.5" class="net_23"/>
  <line x1="437" x2="437" y1="321.5" y2="261.5" class="net_23"/>
  <line x1="437" x2="547" y1="261.5" y2="261.5" class="net_23"/>
  <circle cx="437" cy="261.5" r="2" style="fill:#000" class="net_23"/>
  <line x1="547" x2="547" y1="261.5" y2="246.5" class="net_23"/>
  <line x1="404.6666666666667" x2="437" y1="321.5" y2="321.5" class="net_23"/>
  <line x1="437" x2="437" y1="321.5" y2="560" class="net_23"/>
  <line x1="437" x2="744.6666666666666" y1="560" y2="560" class="net_23"/>
  <circle cx="437" cy="560" r="2" style="fill:#000" class="net_23"/>
  <line x1="744.6666666666666" x2="744.6666666666666" y1="560" y2="545" class="net_23"/>
  <line x1="404.6666666666667" x2="547" y1="321.5" y2="321.5" class="net_23"/>
  <line x1="547" x2="547" y1="321.5" y2="306.5" class="net_23"/>
  <line x1="404.6666666666667" x2="437" y1="321.5" y2="321.5" class="net_23"/>
  <line x1="437" x2="437" y1="321.5" y2="641" class="net_23"/>
  <line x1="437" x2="744.6666666666666" y1="641" y2="641" class="net_23"/>
  <line x1="744.6666666666666" x2="744.6666666666666" y1="641" y2="626" class="net_23"/>
  <line x1="504" x2="734.6666666666666" y1="379" y2="379" class="net_101,102"/>
  <line x1="331" x2="347" y1="379" y2="379" class="net_103,104,105,106,107,108"/>
  <line x1="347" x2="347" y1="379" y2="130.5" class="net_103,104,105,106,107,108"/>
  <line x1="347" x2="447" y1="130.5" y2="130.5" class="net_103,104,105,106,107,108"/>
  <line x1="447" x2="447" y1="130.5" y2="134" class="net_103,104,105,106,107,108"/>
  <circle cx="347" cy="379" r="2" style="fill:#000" class="net_103,104,105,106,107,108"/>
  <line x1="447" x2="537" y1="134" y2="134" class="net_103,104,105,106,107,108"/>
  <line x1="331" x2="347" y1="379" y2="379" class="net_103,104,105,106,107,108"/>
  <line x1="347" x2="347" y1="379" y2="500" class="net_103,104,105,106,107,108"/>
  <line x1="347" x2="383" y1="500" y2="500" class="net_103,104,105,106,107,108"/>
  <line x1="407" x2="537" y1="221.5" y2="221.5" class="net_111,112,113,114,115,116"/>
  <line x1="329" x2="367" y1="695" y2="695" class="net_4"/>
  <line x1="367" x2="367" y1="695" y2="602" class="net_4"/>
  <line x1="367" x2="393" y1="602" y2="602" class="net_4"/>
  <circle cx="367" cy="695" r="2" style="fill:#000" class="net_4"/>
  <line x1="393" x2="393" y1="602" y2="505" class="net_4"/>
  <line x1="329" x2="547" y1="695" y2="695" class="net_4"/>
  <line x1="547" x2="547" y1="695" y2="606" class="net_4"/>
  <line x1="407" x2="447" y1="632" y2="632" class="net_125,126"/>
  <line x1="447" x2="447" y1="632" y2="601" class="net_125,126"/>
  <line x1="447" x2="537" y1="601" y2="601" class="net_125,126"/>
  <line x1="403" x2="427" y1="490" y2="490" class="net_64,65,66,67,68,69"/>
  <line x1="427" x2="427" y1="490" y2="281.5" class="net_64,65,66,67,68,69"/>
  <line x1="427" x2="537" y1="281.5" y2="281.5" class="net_64,65,66,67,68,69"/>
  <line x1="557" x2="700" y1="591" y2="591" class="net_70,71"/>
  <line x1="700" x2="700" y1="591" y2="601" class="net_70,71"/>
  <line x1="700" x2="734.6666666666666" y1="601" y2="601" class="net_70,71"/>
  <line x1="750" x2="807.5" y1="201.5" y2="201.5" class="net_40,41,42,43,44,45,48,49,50,51,52,53,56,57,58,59,60,61,72,73,74,75,76,77"/>
  <line x1="750" x2="775" y1="685.5" y2="685.5" class="net_11,12,15,14"/>
  <line x1="775" x2="775" y1="685.5" y2="469.5" class="net_11,12,15,14"/>
  <line x1="775" x2="817.5" y1="469.5" y2="469.5" class="net_11,12,15,14"/>
  <circle cx="775" cy="685.5" r="2" style="fill:#000" class="net_11,12,15,14"/>
  <line x1="817.5" x2="817.5" y1="469.5" y2="206.5" class="net_11,12,15,14"/>
  <line x1="750" x2="775" y1="685.5" y2="685.5" class="net_11,12,15,14"/>
  <line x1="775" x2="775" y1="685.5" y2="1014.5" class="net_11,12,15,14"/>
  <line x1="775" x2="900" y1="1014.5" y2="1014.5" class="net_11,12,15,14"/>
  <line x1="900" x2="900" y1="1014.5" y2="505" class="net_11,12,15,14"/>
  <line x1="830" x2="890" y1="500" y2="500" class="net_46,47,54,55,62,63,78,79"/>
  <line x1="755" x2="810" y1="937" y2="937" class="net_127,128,129,130,131,132,133,134,135"/>
  <line x1="750" x2="820" y1="1004.5" y2="1004.5" class="net_11,12,16"/>
  <line x1="820" x2="820" y1="1004.5" y2="942" class="net_11,12,16"/>
  <line x1="830" x2="850" y1="815" y2="815" class="net_5,6,7"/>
  <line x1="850" x2="850" y1="815" y2="1044.5" class="net_5,6,7"/>
  <line x1="850" x2="890" y1="1044.5" y2="1044.5" class="net_5,6,7"/>
  <line x1="830" x2="840" y1="927" y2="927" class="net_8,9,10"/>
  <line x1="840" x2="840" y1="927" y2="1109.5" class="net_8,9,10"/>
  <line x1="840" x2="890" y1="1109.5" y2="1109.5" class="net_8,9,10"/>
  <line x1="329.66666666666663" x2="347" y1="752.5" y2="752.5" class="net_11"/>
  <line x1="347" x2="347" y1="752.5" y2="792.5" class="net_11"/>
  <line x1="347" x2="388" y1="792.5" y2="792.5" class="net_11"/>
  <line x1="329.66666666666663" x2="388" y1="812.5" y2="812.5" class="net_12"/>
  <line x1="329" x2="357" y1="882.5" y2="882.5" class="net_14"/>
  <line x1="357" x2="357" y1="882.5" y2="1004.5" class="net_14"/>
  <circle cx="357" cy="882.5" r="2" style="fill:#000" class="net_14"/>
  <line x1="357" x2="388" y1="1004.5" y2="1004.5" class="net_14"/>
  <line x1="329" x2="542.3333333333333" y1="882.5" y2="882.5" class="net_14"/>
  <line x1="329.66666666666663" x2="388" y1="1024.5" y2="1024.5" class="net_15"/>
  <line x1="329.66666666666663" x2="347" y1="1024.5" y2="1024.5" class="net_15"/>
  <line x1="347" x2="347" y1="1024.5" y2="862.5" class="net_15"/>
  <circle cx="347" cy="1024.5" r="2" style="fill:#000" class="net_15"/>
  <line x1="347" x2="542.3333333333333" y1="862.5" y2="862.5" class="net_15"/>
  <line x1="505" x2="710" y1="802.5" y2="802.5" class="net_13"/>
  <line x1="710" x2="710" y1="802.5" y2="852.5" class="net_13"/>
  <line x1="710" x2="740" y1="852.5" y2="852.5" class="net_13"/>
  <line x1="548.3333333333333" x2="740" y1="872.5" y2="872.5" class="net_15,14"/>
  <line x1="548.3333333333333" x2="700" y1="872.5" y2="872.5" class="net_15,14"/>
  <line x1="700" x2="700" y1="872.5" y2="695.5" class="net_15,14"/>
  <circle cx="700" cy="872.5" r="2" style="fill:#000" class="net_15,14"/>
  <line x1="700" x2="744" y1="695.5" y2="695.5" class="net_15,14"/>
  <line x1="22" x2="22" y1="45" y2="67.5" class="net_NaN,NaN,NaN"/>
  <circle cx="22" cy="67.5" r="2" style="fill:#000" class="net_NaN,NaN,NaN"/>
  <line x1="22" x2="66" y1="67.5" y2="67.5" class="net_NaN,NaN,NaN"/>
  <line x1="22" x2="22" y1="45" y2="87.5" class="net_NaN,NaN,NaN"/>
  <line x1="22" x2="66" y1="87.5" y2="87.5" class="net_NaN,NaN,NaN"/>
  <line x1="22" x2="48.5" y1="45" y2="33" class="net_NaN,NaN,NaN"/>
  <line x1="557" x2="710" y1="84" y2="84" class="net_40,41,42,43,44,45"/>
  <line x1="710" x2="710" y1="84" y2="191.5" class="net_40,41,42,43,44,45"/>
  <line x1="710" x2="744" y1="191.5" y2="191.5" class="net_40,41,42,43,44,45"/>
  <line x1="557" x2="700" y1="144" y2="144" class="net_48,49,50,51,52,53"/>
  <line x1="700" x2="700" y1="144" y2="211.5" class="net_48,49,50,51,52,53"/>
  <line x1="700" x2="744" y1="211.5" y2="211.5" class="net_48,49,50,51,52,53"/>
  <line x1="557" x2="744" y1="231.5" y2="231.5" class="net_56,57,58,59,60,61"/>
  <line x1="557" x2="700" y1="291.5" y2="291.5" class="net_72,73,74,75,76,77"/>
  <line x1="700" x2="700" y1="291.5" y2="359" class="net_72,73,74,75,76,77"/>
  <line x1="700" x2="744.5" y1="359" y2="359" class="net_72,73,74,75,76,77"/>
  <line x1="744.5" x2="744.5" y1="359" y2="252" class="net_72,73,74,75,76,77"/>
  <line x1="754.6666666666666" x2="785" y1="389" y2="389" class="net_46,47"/>
  <line x1="785" x2="785" y1="389" y2="490" class="net_46,47"/>
  <line x1="785" x2="824" y1="490" y2="490" class="net_46,47"/>
  <line x1="754.6666666666666" x2="765" y1="449" y2="449" class="net_54,55"/>
  <line x1="765" x2="765" y1="449" y2="510" class="net_54,55"/>
  <line x1="765" x2="824" y1="510" y2="510" class="net_54,55"/>
  <line x1="754.6666666666666" x2="824" y1="530" y2="530" class="net_62,63"/>
  <line x1="754.6666666666666" x2="824.5" y1="611" y2="611" class="net_78,79"/>
  <line x1="824.5" x2="824.5" y1="611" y2="550.5" class="net_78,79"/>
  <line x1="505" x2="744" y1="1014.5" y2="1014.5" class="net_16"/>
</svg>
