<svg style="background:white" xmlns="http://www.w3.org/2000/svg" xmlns:xlink="http://www.w3.org/1999/xlink" xmlns:s="https://github.com/nturley/netlistsvg" width="1008" height="199">
  <style>svg {
    stroke:#000;
    fill:none;
  }
  text {
    fill:#000;
    stroke:none;
    font-size:10px;
    font-weight: bold;
    font-family: "Courier New", monospace;
  }
  .nodelabel {
    text-anchor: middle;
  }
  .inputPortLabel {
    text-anchor: end;
  }
  .splitjoinBody {
    fill:#000;
  }</style>
  <g s:type="and" transform="translate(266,137)" s:width="30" s:height="25" id="cell_$and$.yosys_tmp/fixed_priority_arbiter.sv:22$10">
    <s:alias val="$and"/>
    <s:alias val="$logic_and"/>
    <s:alias val="$_AND_"/>
    <path d="M0,0 L0,25 L15,25 A15 12.5 0 0 0 15,0 Z" class="cell_$and$.yosys_tmp/fixed_priority_arbiter.sv:22$10"/>
    <g s:x="0" s:y="5" s:pid="A"/>
    <g s:x="0" s:y="20" s:pid="B"/>
    <g s:x="30" s:y="12.5" s:pid="Y"/>
  </g>
  <g s:type="and" transform="translate(201,87)" s:width="30" s:height="25" id="cell_$and$.yosys_tmp/fixed_priority_arbiter.sv:22$8">
    <s:alias val="$and"/>
    <s:alias val="$logic_and"/>
    <s:alias val="$_AND_"/>
    <path d="M0,0 L0,25 L15,25 A15 12.5 0 0 0 15,0 Z" class="cell_$and$.yosys_tmp/fixed_priority_arbiter.sv:22$8"/>
    <g s:x="0" s:y="5" s:pid="A"/>
    <g s:x="0" s:y="20" s:pid="B"/>
    <g s:x="30" s:y="12.5" s:pid="Y"/>
  </g>
  <g s:type="and" transform="translate(379,157)" s:width="30" s:height="25" id="cell_$and$.yosys_tmp/fixed_priority_arbiter.sv:29$13">
    <s:alias val="$and"/>
    <s:alias val="$logic_and"/>
    <s:alias val="$_AND_"/>
    <path d="M0,0 L0,25 L15,25 A15 12.5 0 0 0 15,0 Z" class="cell_$and$.yosys_tmp/fixed_priority_arbiter.sv:29$13"/>
    <g s:x="0" s:y="5" s:pid="A"/>
    <g s:x="0" s:y="20" s:pid="B"/>
    <g s:x="30" s:y="12.5" s:pid="Y"/>
  </g>
  <g s:type="not" transform="translate(136,42)" s:width="30" s:height="20" id="cell_$not$.yosys_tmp/fixed_priority_arbiter.sv:22$5">
    <s:alias val="$_NOT_"/>
    <s:alias val="$not"/>
    <s:alias val="$logic_not"/>
    <path d="M0,0 L0,20 L20,10 Z" class="cell_$not$.yosys_tmp/fixed_priority_arbiter.sv:22$5"/>
    <circle cx="23" cy="10" r="3" class="cell_$not$.yosys_tmp/fixed_priority_arbiter.sv:22$5"/>
    <g s:x="0" s:y="10" s:pid="A"/>
    <g s:x="25" s:y="10" s:pid="Y"/>
  </g>
  <g s:type="not" transform="translate(136,97)" s:width="30" s:height="20" id="cell_$not$.yosys_tmp/fixed_priority_arbiter.sv:22$7">
    <s:alias val="$_NOT_"/>
    <s:alias val="$not"/>
    <s:alias val="$logic_not"/>
    <path d="M0,0 L0,20 L20,10 Z" class="cell_$not$.yosys_tmp/fixed_priority_arbiter.sv:22$7"/>
    <circle cx="23" cy="10" r="3" class="cell_$not$.yosys_tmp/fixed_priority_arbiter.sv:22$7"/>
    <g s:x="0" s:y="10" s:pid="A"/>
    <g s:x="25" s:y="10" s:pid="Y"/>
  </g>
  <g s:type="not" transform="translate(201,147)" s:width="30" s:height="20" id="cell_$not$.yosys_tmp/fixed_priority_arbiter.sv:22$9">
    <s:alias val="$_NOT_"/>
    <s:alias val="$not"/>
    <s:alias val="$logic_not"/>
    <path d="M0,0 L0,20 L20,10 Z" class="cell_$not$.yosys_tmp/fixed_priority_arbiter.sv:22$9"/>
    <circle cx="23" cy="10" r="3" class="cell_$not$.yosys_tmp/fixed_priority_arbiter.sv:22$9"/>
    <g s:x="0" s:y="10" s:pid="A"/>
    <g s:x="25" s:y="10" s:pid="Y"/>
  </g>
  <g s:type="generic" transform="translate(469,119)" s:width="30" s:height="40" id="cell_$procdff$19">
    <text x="15" y="-4" class="nodelabel cell_$procdff$19" s:attribute="ref">$adff</text>
    <rect width="30" height="60" s:generic="body" class="cell_$procdff$19"/>
    <g transform="translate(0,10)" s:x="0" s:y="10" s:pid="in0" id="port_$procdff$19~ARST">
      <text x="-3" y="-4" class="inputPortLabel cell_$procdff$19">ARST</text>
    </g>
    <g transform="translate(0,30)" s:x="0" s:y="10" s:pid="in0" id="port_$procdff$19~CLK">
      <text x="-3" y="-4" class="inputPortLabel cell_$procdff$19">CLK</text>
    </g>
    <g transform="translate(0,50)" s:x="0" s:y="10" s:pid="in0" id="port_$procdff$19~D">
      <text x="-3" y="-4" class="inputPortLabel cell_$procdff$19">D</text>
    </g>
    <g transform="translate(30,10)" s:x="30" s:y="10" s:pid="out0" id="port_$procdff$19~Q">
      <text x="5" y="-4" style="fill:#000; stroke:none" class="cell_$procdff$19">Q</text>
    </g>
  </g>
  <g s:type="generic" transform="translate(577,54)" s:width="30" s:height="40" id="cell_$reduce_or$.yosys_tmp/fixed_priority_arbiter.sv:33$14">
    <text x="15" y="-4" class="nodelabel cell_$reduce_or$.yosys_tmp/fixed_priority_arbiter.sv:33$14" s:attribute="ref">$reduce_or</text>
    <rect width="30" height="20" s:generic="body" class="cell_$reduce_or$.yosys_tmp/fixed_priority_arbiter.sv:33$14"/>
    <g transform="translate(0,10)" s:x="0" s:y="10" s:pid="in0" id="port_$reduce_or$.yosys_tmp/fixed_priority_arbiter.sv:33$14~A">
      <text x="-3" y="-4" class="inputPortLabel cell_$reduce_or$.yosys_tmp/fixed_priority_arbiter.sv:33$14">A</text>
    </g>
    <g transform="translate(30,10)" s:x="30" s:y="10" s:pid="out0" id="port_$reduce_or$.yosys_tmp/fixed_priority_arbiter.sv:33$14~Y">
      <text x="5" y="-4" style="fill:#000; stroke:none" class="cell_$reduce_or$.yosys_tmp/fixed_priority_arbiter.sv:33$14">Y</text>
    </g>
  </g>
  <g s:type="inputExt" transform="translate(379,102)" s:width="30" s:height="20" id="cell_clk">
    <text x="15" y="-4" class="nodelabel cell_clk" s:attribute="ref">clk</text>
    <s:alias val="$_inputExt_"/>
    <path d="M0,0 L0,20 L15,20 L30,10 L15,0 Z" class="cell_clk"/>
    <g s:x="28" s:y="10" s:pid="Y"/>
  </g>
  <g s:type="inputExt" transform="translate(379,37)" s:width="30" s:height="20" id="cell_rst_n">
    <text x="15" y="-4" class="nodelabel cell_rst_n" s:attribute="ref">rst_n</text>
    <s:alias val="$_inputExt_"/>
    <path d="M0,0 L0,20 L15,20 L30,10 L15,0 Z" class="cell_rst_n"/>
    <g s:x="28" s:y="10" s:pid="Y"/>
  </g>
  <g s:type="inputExt" transform="translate(12,167)" s:width="30" s:height="20" id="cell_request">
    <text x="15" y="-4" class="nodelabel cell_request" s:attribute="ref">request</text>
    <s:alias val="$_inputExt_"/>
    <path d="M0,0 L0,20 L15,20 L30,10 L15,0 Z" class="cell_request"/>
    <g s:x="28" s:y="10" s:pid="Y"/>
  </g>
  <g s:type="outputExt" transform="translate(930,119.5)" s:width="30" s:height="20" id="cell_grant">
    <text x="15" y="-4" class="nodelabel cell_grant" s:attribute="ref">grant</text>
    <s:alias val="$_outputExt_"/>
    <path d="M30,0 L30,20 L15,20 L0,10 L15,0 Z" class="cell_grant"/>
    <g s:x="0" s:y="10" s:pid="A"/>
  </g>
  <g s:type="outputExt" transform="translate(930,54.5)" s:width="30" s:height="20" id="cell_grant_valid">
    <text x="15" y="-4" class="nodelabel cell_grant_valid" s:attribute="ref">grant_valid</text>
    <s:alias val="$_outputExt_"/>
    <path d="M30,0 L30,20 L15,20 L0,10 L15,0 Z" class="cell_grant_valid"/>
    <g s:x="0" s:y="10" s:pid="A"/>
  </g>
  <g s:type="constant" transform="translate(266,22)" s:width="30" s:height="20" id="cell_1">
    <text x="15" y="-4" class="nodelabel cell_1" s:attribute="ref">1</text>
    <s:alias val="$_constant_"/>
    <rect width="30" height="20" class="cell_1"/>
    <g s:x="30" s:y="10" s:pid="Y"/>
  </g>
  <g s:type="join" transform="translate(338,49)" s:width="4" s:height="40" id="cell_$join$,22,16,13,15,">
    <rect width="5" height="80" class="splitjoinBody" s:generic="body"/>
    <s:alias val="$_join_"/>
    <g s:x="5" s:y="20" s:pid="out"/>
    <g transform="translate(0,10)" s:x="0" s:y="10" s:pid="in0">
      <text x="-3" y="-4" class="inputPortLabel">0</text>
    </g>
    <g transform="translate(0,30)" s:x="0" s:y="10" s:pid="in0">
      <text x="-3" y="-4" class="inputPortLabel">1</text>
    </g>
    <g transform="translate(0,50)" s:x="0" s:y="10" s:pid="in0">
      <text x="-3" y="-4" class="inputPortLabel">2</text>
    </g>
    <g transform="translate(0,70)" s:x="0" s:y="10" s:pid="in0">
      <text x="-3" y="-4" class="inputPortLabel">3</text>
    </g>
  </g>
  <g s:type="split" transform="translate(89,76.5)" s:width="5" s:height="40" id="cell_$split$,4,5,6,7,">
    <rect width="5" height="60" class="splitjoinBody" s:generic="body"/>
    <s:alias val="$_split_"/>
    <g s:x="0" s:y="20" s:pid="in"/>
    <g transform="translate(4,10)" s:x="4" s:y="10" s:pid="out0">
      <text x="5" y="-4">0</text>
    </g>
    <g transform="translate(4,30)" s:x="4" s:y="10" s:pid="out0">
      <text x="5" y="-4">1</text>
    </g>
    <g transform="translate(4,50)" s:x="4" s:y="10" s:pid="out0">
      <text x="5" y="-4">2</text>
    </g>
  </g>
  <line x1="231" x2="241" y1="99.5" y2="99.5" class="net_13"/>
  <line x1="241" x2="241" y1="99.5" y2="142" class="net_13"/>
  <circle cx="241" cy="99.5" r="2" style="fill:#000" class="net_13"/>
  <line x1="241" x2="266" y1="142" y2="142" class="net_13"/>
  <line x1="231" x2="338" y1="99.5" y2="99.5" class="net_13"/>
  <line x1="226" x2="266" y1="157" y2="157" class="net_14"/>
  <line x1="161" x2="176" y1="52" y2="52" class="net_16"/>
  <line x1="176" x2="176" y1="52" y2="92" class="net_16"/>
  <circle cx="176" cy="52" r="2" style="fill:#000" class="net_16"/>
  <line x1="176" x2="201" y1="92" y2="92" class="net_16"/>
  <line x1="161" x2="306" y1="52" y2="52" class="net_16"/>
  <line x1="306" x2="306" y1="52" y2="79.5" class="net_16"/>
  <line x1="306" x2="338" y1="79.5" y2="79.5" class="net_16"/>
  <line x1="161" x2="201" y1="107" y2="107" class="net_17"/>
  <line x1="344" x2="354" y1="69.5" y2="69.5" class="net_22,16,13,15"/>
  <line x1="354" x2="354" y1="69.5" y2="162" class="net_22,16,13,15"/>
  <line x1="354" x2="379" y1="162" y2="162" class="net_22,16,13,15"/>
  <line x1="40" x2="379" y1="177" y2="177" class="net_4,5,6,7"/>
  <line x1="40" x2="64" y1="177" y2="177" class="net_4,5,6,7"/>
  <line x1="64" x2="64" y1="177" y2="97" class="net_4,5,6,7"/>
  <circle cx="64" cy="177" r="2" style="fill:#000" class="net_4,5,6,7"/>
  <line x1="64" x2="89" y1="97" y2="97" class="net_4,5,6,7"/>
  <line x1="94" x2="111" y1="87" y2="87" class="net_4"/>
  <line x1="111" x2="111" y1="87" y2="52" class="net_4"/>
  <line x1="111" x2="136" y1="52" y2="52" class="net_4"/>
  <line x1="94" x2="136" y1="107" y2="107" class="net_5"/>
  <line x1="94" x2="111" y1="127" y2="127" class="net_6"/>
  <line x1="111" x2="111" y1="127" y2="157" class="net_6"/>
  <line x1="111" x2="201" y1="157" y2="157" class="net_6"/>
  <line x1="407" x2="429" y1="47" y2="47" class="net_3"/>
  <line x1="429" x2="429" y1="47" y2="129.5" class="net_3"/>
  <line x1="429" x2="469" y1="129.5" y2="129.5" class="net_3"/>
  <line x1="407" x2="419" y1="112" y2="112" class="net_2"/>
  <line x1="419" x2="419" y1="112" y2="149.5" class="net_2"/>
  <line x1="419" x2="469" y1="149.5" y2="149.5" class="net_2"/>
  <line x1="409" x2="469" y1="169.5" y2="169.5" class="net_18,19,20,21"/>
  <line x1="500" x2="545" y1="129.5" y2="129.5" class="net_8,9,10,11"/>
  <line x1="545" x2="545" y1="129.5" y2="64.5" class="net_8,9,10,11"/>
  <circle cx="545" cy="129.5" r="2" style="fill:#000" class="net_8,9,10,11"/>
  <line x1="545" x2="577" y1="64.5" y2="64.5" class="net_8,9,10,11"/>
  <line x1="500" x2="930" y1="129.5" y2="129.5" class="net_8,9,10,11"/>
  <line x1="608" x2="930" y1="64.5" y2="64.5" class="net_12"/>
  <line x1="296" x2="316" y1="32" y2="32" class="net_22"/>
  <line x1="316" x2="316" y1="32" y2="59.5" class="net_22"/>
  <line x1="316" x2="338" y1="59.5" y2="59.5" class="net_22"/>
  <line x1="296" x2="338.5" y1="149.5" y2="149.5" class="net_15"/>
  <line x1="338.5" x2="338.5" y1="149.5" y2="120" class="net_15"/>
</svg>
