<svg style="background:white" xmlns="http://www.w3.org/2000/svg" xmlns:xlink="http://www.w3.org/1999/xlink" xmlns:s="https://github.com/nturley/netlistsvg" width="532" height="131.5">
  <style>svg {
    stroke:#000;
    fill:none;
  }
  text {
    fill:#000;
    stroke:none;
    font-size:10px;
    font-weight: bold;
    font-family: "Courier New", monospace;
  }
  .nodelabel {
    text-anchor: middle;
  }
  .inputPortLabel {
    text-anchor: end;
  }
  .splitjoinBody {
    fill:#000;
  }</style>
  <g s:type="add" transform="translate(77,39.5)" s:width="25" s:height="25" id="cell_$add$.yosys_tmp/funnel_shifter.sv:11$1">
    <s:alias val="$add"/>
    <circle r="12.5" cx="12.5" cy="12.5" class="cell_$add$.yosys_tmp/funnel_shifter.sv:11$1"/>
    <line x1="7.5" x2="17.5" y1="12.5" y2="12.5" class="cell_$add$.yosys_tmp/funnel_shifter.sv:11$1"/>
    <line x1="12.5" x2="12.5" y1="7.5" y2="17.5" class="cell_$add$.yosys_tmp/funnel_shifter.sv:11$1"/>
    <g s:x="3" s:y="5" s:pid="A"/>
    <g s:x="3" s:y="20" s:pid="B"/>
    <g s:x="25" s:y="12.5" s:pid="Y"/>
  </g>
  <g s:type="generic" transform="translate(209,69)" s:width="30" s:height="40" id="cell_$shiftx$.yosys_tmp/funnel_shifter.sv:11$2">
    <text x="15" y="-4" class="nodelabel cell_$shiftx$.yosys_tmp/funnel_shifter.sv:11$2" s:attribute="ref">$shiftx</text>
    <rect width="30" height="40" s:generic="body" class="cell_$shiftx$.yosys_tmp/funnel_shifter.sv:11$2"/>
    <g transform="translate(0,10)" s:x="0" s:y="10" s:pid="in0" id="port_$shiftx$.yosys_tmp/funnel_shifter.sv:11$2~A">
      <text x="-3" y="-4" class="inputPortLabel cell_$shiftx$.yosys_tmp/funnel_shifter.sv:11$2">A</text>
    </g>
    <g transform="translate(0,30)" s:x="0" s:y="10" s:pid="in0" id="port_$shiftx$.yosys_tmp/funnel_shifter.sv:11$2~B">
      <text x="-3" y="-4" class="inputPortLabel cell_$shiftx$.yosys_tmp/funnel_shifter.sv:11$2">B</text>
    </g>
    <g transform="translate(30,10)" s:x="30" s:y="10" s:pid="out0" id="port_$shiftx$.yosys_tmp/funnel_shifter.sv:11$2~Y">
      <text x="5" y="-4" style="fill:#000; stroke:none" class="cell_$shiftx$.yosys_tmp/funnel_shifter.sv:11$2">Y</text>
    </g>
  </g>
  <g s:type="inputExt" transform="translate(137,22)" s:width="30" s:height="20" id="cell_a">
    <text x="15" y="-4" class="nodelabel cell_a" s:attribute="ref">a</text>
    <s:alias val="$_inputExt_"/>
    <path d="M0,0 L0,20 L15,20 L30,10 L15,0 Z" class="cell_a"/>
    <g s:x="28" s:y="10" s:pid="Y"/>
  </g>
  <g s:type="inputExt" transform="translate(12,34.5)" s:width="30" s:height="20" id="cell_n">
    <text x="15" y="-4" class="nodelabel cell_n" s:attribute="ref">n</text>
    <s:alias val="$_inputExt_"/>
    <path d="M0,0 L0,20 L15,20 L30,10 L15,0 Z" class="cell_n"/>
    <g s:x="28" s:y="10" s:pid="Y"/>
  </g>
  <g s:type="outputExt" transform="translate(490,69.5)" s:width="30" s:height="20" id="cell_b">
    <text x="15" y="-4" class="nodelabel cell_b" s:attribute="ref">b</text>
    <s:alias val="$_outputExt_"/>
    <path d="M30,0 L30,20 L15,20 L0,10 L15,0 Z" class="cell_b"/>
    <g s:x="0" s:y="10" s:pid="A"/>
  </g>
  <g s:type="constant" transform="translate(12,99.5)" s:width="30" s:height="20" id="cell_0">
    <text x="15" y="-4" class="nodelabel cell_0" s:attribute="ref">0</text>
    <s:alias val="$_constant_"/>
    <rect width="30" height="20" class="cell_0"/>
    <g s:x="30" s:y="10" s:pid="Y"/>
  </g>
  <g s:type="join" transform="translate(156,79)" s:width="4" s:height="40" id="cell_$join$,29,30,31,32,33,">
    <rect width="5" height="40" class="splitjoinBody" s:generic="body"/>
    <s:alias val="$_join_"/>
    <g s:x="5" s:y="20" s:pid="out"/>
    <g transform="translate(0,10)" s:x="0" s:y="10" s:pid="in0">
      <text x="-3" y="-4" class="inputPortLabel">0:3</text>
    </g>
    <g transform="translate(0,30)" s:x="0" s:y="10" s:pid="in0">
      <text x="-3" y="-4" class="inputPortLabel">4</text>
    </g>
  </g>
  <line x1="40" x2="80" y1="44.5" y2="44.5" class="net_18,19,20"/>
  <line x1="42" x2="52" y1="109.5" y2="109.5" class="net_33"/>
  <line x1="52" x2="52" y1="109.5" y2="59.5" class="net_33"/>
  <circle cx="52" cy="109.5" r="2" style="fill:#000" class="net_33"/>
  <line x1="52" x2="80" y1="59.5" y2="59.5" class="net_33"/>
  <line x1="42" x2="156" y1="109.5" y2="109.5" class="net_33"/>
  <line x1="165" x2="177" y1="32" y2="32" class="net_2,3,4,5,6,7,8,9,10,11,12,13,14,15,16,17"/>
  <line x1="177" x2="177" y1="32" y2="79.5" class="net_2,3,4,5,6,7,8,9,10,11,12,13,14,15,16,17"/>
  <line x1="177" x2="209" y1="79.5" y2="79.5" class="net_2,3,4,5,6,7,8,9,10,11,12,13,14,15,16,17"/>
  <line x1="162" x2="209" y1="99.5" y2="99.5" class="net_29,30,31,32,33"/>
  <line x1="240" x2="490" y1="79.5" y2="79.5" class="net_21,22,23,24,25,26,27,28"/>
  <line x1="102" x2="112" y1="52" y2="52" class="net_29,30,31,32"/>
  <line x1="112" x2="112" y1="52" y2="89.5" class="net_29,30,31,32"/>
  <line x1="112" x2="156" y1="89.5" y2="89.5" class="net_29,30,31,32"/>
</svg>
