<svg style="background:white" xmlns="http://www.w3.org/2000/svg" xmlns:xlink="http://www.w3.org/1999/xlink" xmlns:s="https://github.com/nturley/netlistsvg" width="1729" height="604.5">
  <style>svg {
    stroke:#000;
    fill:none;
  }
  text {
    fill:#000;
    stroke:none;
    font-size:10px;
    font-weight: bold;
    font-family: "Courier New", monospace;
  }
  .nodelabel {
    text-anchor: middle;
  }
  .inputPortLabel {
    text-anchor: end;
  }
  .splitjoinBody {
    fill:#000;
  }</style>
  <g s:type="and" transform="translate(859,314)" s:width="30" s:height="25" id="cell_$and$.yosys_tmp/prog_priority_encoder.sv:12$6">
    <s:alias val="$and"/>
    <s:alias val="$logic_and"/>
    <s:alias val="$_AND_"/>
    <path d="M0,0 L0,25 L15,25 A15 12.5 0 0 0 15,0 Z" class="cell_$and$.yosys_tmp/prog_priority_encoder.sv:12$6"/>
    <g s:x="0" s:y="5" s:pid="A"/>
    <g s:x="0" s:y="20" s:pid="B"/>
    <g s:x="30" s:y="12.5" s:pid="Y"/>
  </g>
  <g s:type="and" transform="translate(1119,244.5)" s:width="30" s:height="25" id="cell_$and$.yosys_tmp/prog_priority_encoder.sv:14$12">
    <s:alias val="$and"/>
    <s:alias val="$logic_and"/>
    <s:alias val="$_AND_"/>
    <path d="M0,0 L0,25 L15,25 A15 12.5 0 0 0 15,0 Z" class="cell_$and$.yosys_tmp/prog_priority_encoder.sv:14$12"/>
    <g s:x="0" s:y="5" s:pid="A"/>
    <g s:x="0" s:y="20" s:pid="B"/>
    <g s:x="30" s:y="12.5" s:pid="Y"/>
  </g>
  <g s:type="and" transform="translate(194,221)" s:width="30" s:height="25" id="cell_$and$.yosys_tmp/prog_priority_encoder.sv:14$15">
    <s:alias val="$and"/>
    <s:alias val="$logic_and"/>
    <s:alias val="$_AND_"/>
    <path d="M0,0 L0,25 L15,25 A15 12.5 0 0 0 15,0 Z" class="cell_$and$.yosys_tmp/prog_priority_encoder.sv:14$15"/>
    <g s:x="0" s:y="5" s:pid="A"/>
    <g s:x="0" s:y="20" s:pid="B"/>
    <g s:x="30" s:y="12.5" s:pid="Y"/>
  </g>
  <g s:type="and" transform="translate(339,148.5)" s:width="30" s:height="25" id="cell_$and$.yosys_tmp/prog_priority_encoder.sv:14$18">
    <s:alias val="$and"/>
    <s:alias val="$logic_and"/>
    <s:alias val="$_AND_"/>
    <path d="M0,0 L0,25 L15,25 A15 12.5 0 0 0 15,0 Z" class="cell_$and$.yosys_tmp/prog_priority_encoder.sv:14$18"/>
    <g s:x="0" s:y="5" s:pid="A"/>
    <g s:x="0" s:y="20" s:pid="B"/>
    <g s:x="30" s:y="12.5" s:pid="Y"/>
  </g>
  <g s:type="and" transform="translate(469,409.5)" s:width="30" s:height="25" id="cell_$and$.yosys_tmp/prog_priority_encoder.sv:14$21">
    <s:alias val="$and"/>
    <s:alias val="$logic_and"/>
    <s:alias val="$_AND_"/>
    <path d="M0,0 L0,25 L15,25 A15 12.5 0 0 0 15,0 Z" class="cell_$and$.yosys_tmp/prog_priority_encoder.sv:14$21"/>
    <g s:x="0" s:y="5" s:pid="A"/>
    <g s:x="0" s:y="20" s:pid="B"/>
    <g s:x="30" s:y="12.5" s:pid="Y"/>
  </g>
  <g s:type="and" transform="translate(599,455.5)" s:width="30" s:height="25" id="cell_$and$.yosys_tmp/prog_priority_encoder.sv:14$24">
    <s:alias val="$and"/>
    <s:alias val="$logic_and"/>
    <s:alias val="$_AND_"/>
    <path d="M0,0 L0,25 L15,25 A15 12.5 0 0 0 15,0 Z" class="cell_$and$.yosys_tmp/prog_priority_encoder.sv:14$24"/>
    <g s:x="0" s:y="5" s:pid="A"/>
    <g s:x="0" s:y="20" s:pid="B"/>
    <g s:x="30" s:y="12.5" s:pid="Y"/>
  </g>
  <g s:type="and" transform="translate(729,531.5)" s:width="30" s:height="25" id="cell_$and$.yosys_tmp/prog_priority_encoder.sv:14$27">
    <s:alias val="$and"/>
    <s:alias val="$logic_and"/>
    <s:alias val="$_AND_"/>
    <path d="M0,0 L0,25 L15,25 A15 12.5 0 0 0 15,0 Z" class="cell_$and$.yosys_tmp/prog_priority_encoder.sv:14$27"/>
    <g s:x="0" s:y="5" s:pid="A"/>
    <g s:x="0" s:y="20" s:pid="B"/>
    <g s:x="30" s:y="12.5" s:pid="Y"/>
  </g>
  <g s:type="and" transform="translate(989,417)" s:width="30" s:height="25" id="cell_$and$.yosys_tmp/prog_priority_encoder.sv:14$9">
    <s:alias val="$and"/>
    <s:alias val="$logic_and"/>
    <s:alias val="$_AND_"/>
    <path d="M0,0 L0,25 L15,25 A15 12.5 0 0 0 15,0 Z" class="cell_$and$.yosys_tmp/prog_priority_encoder.sv:14$9"/>
    <g s:x="0" s:y="5" s:pid="A"/>
    <g s:x="0" s:y="20" s:pid="B"/>
    <g s:x="30" s:y="12.5" s:pid="Y"/>
  </g>
  <g s:type="and" transform="translate(1327,151)" s:width="30" s:height="25" id="cell_$and$.yosys_tmp/prog_priority_encoder.sv:16$29">
    <s:alias val="$and"/>
    <s:alias val="$logic_and"/>
    <s:alias val="$_AND_"/>
    <path d="M0,0 L0,25 L15,25 A15 12.5 0 0 0 15,0 Z" class="cell_$and$.yosys_tmp/prog_priority_encoder.sv:16$29"/>
    <g s:x="0" s:y="5" s:pid="A"/>
    <g s:x="0" s:y="20" s:pid="B"/>
    <g s:x="30" s:y="12.5" s:pid="Y"/>
  </g>
  <g s:type="not" transform="translate(794,87.5)" s:width="30" s:height="20" id="cell_$not$.yosys_tmp/prog_priority_encoder.sv:12$5">
    <s:alias val="$_NOT_"/>
    <s:alias val="$not"/>
    <s:alias val="$logic_not"/>
    <path d="M0,0 L0,20 L20,10 Z" class="cell_$not$.yosys_tmp/prog_priority_encoder.sv:12$5"/>
    <circle cx="23" cy="10" r="3" class="cell_$not$.yosys_tmp/prog_priority_encoder.sv:12$5"/>
    <g s:x="0" s:y="10" s:pid="A"/>
    <g s:x="25" s:y="10" s:pid="Y"/>
  </g>
  <g s:type="not" transform="translate(1054,107.5)" s:width="30" s:height="20" id="cell_$not$.yosys_tmp/prog_priority_encoder.sv:14$11">
    <s:alias val="$_NOT_"/>
    <s:alias val="$not"/>
    <s:alias val="$logic_not"/>
    <path d="M0,0 L0,20 L20,10 Z" class="cell_$not$.yosys_tmp/prog_priority_encoder.sv:14$11"/>
    <circle cx="23" cy="10" r="3" class="cell_$not$.yosys_tmp/prog_priority_encoder.sv:14$11"/>
    <g s:x="0" s:y="10" s:pid="A"/>
    <g s:x="25" s:y="10" s:pid="Y"/>
  </g>
  <g s:type="not" transform="translate(129,231)" s:width="30" s:height="20" id="cell_$not$.yosys_tmp/prog_priority_encoder.sv:14$14">
    <s:alias val="$_NOT_"/>
    <s:alias val="$not"/>
    <s:alias val="$logic_not"/>
    <path d="M0,0 L0,20 L20,10 Z" class="cell_$not$.yosys_tmp/prog_priority_encoder.sv:14$14"/>
    <circle cx="23" cy="10" r="3" class="cell_$not$.yosys_tmp/prog_priority_encoder.sv:14$14"/>
    <g s:x="0" s:y="10" s:pid="A"/>
    <g s:x="25" s:y="10" s:pid="Y"/>
  </g>
  <g s:type="not" transform="translate(274,158.5)" s:width="30" s:height="20" id="cell_$not$.yosys_tmp/prog_priority_encoder.sv:14$17">
    <s:alias val="$_NOT_"/>
    <s:alias val="$not"/>
    <s:alias val="$logic_not"/>
    <path d="M0,0 L0,20 L20,10 Z" class="cell_$not$.yosys_tmp/prog_priority_encoder.sv:14$17"/>
    <circle cx="23" cy="10" r="3" class="cell_$not$.yosys_tmp/prog_priority_encoder.sv:14$17"/>
    <g s:x="0" s:y="10" s:pid="A"/>
    <g s:x="25" s:y="10" s:pid="Y"/>
  </g>
  <g s:type="not" transform="translate(404,501.5)" s:width="30" s:height="20" id="cell_$not$.yosys_tmp/prog_priority_encoder.sv:14$20">
    <s:alias val="$_NOT_"/>
    <s:alias val="$not"/>
    <s:alias val="$logic_not"/>
    <path d="M0,0 L0,20 L20,10 Z" class="cell_$not$.yosys_tmp/prog_priority_encoder.sv:14$20"/>
    <circle cx="23" cy="10" r="3" class="cell_$not$.yosys_tmp/prog_priority_encoder.sv:14$20"/>
    <g s:x="0" s:y="10" s:pid="A"/>
    <g s:x="25" s:y="10" s:pid="Y"/>
  </g>
  <g s:type="not" transform="translate(534,521.5)" s:width="30" s:height="20" id="cell_$not$.yosys_tmp/prog_priority_encoder.sv:14$23">
    <s:alias val="$_NOT_"/>
    <s:alias val="$not"/>
    <s:alias val="$logic_not"/>
    <path d="M0,0 L0,20 L20,10 Z" class="cell_$not$.yosys_tmp/prog_priority_encoder.sv:14$23"/>
    <circle cx="23" cy="10" r="3" class="cell_$not$.yosys_tmp/prog_priority_encoder.sv:14$23"/>
    <g s:x="0" s:y="10" s:pid="A"/>
    <g s:x="25" s:y="10" s:pid="Y"/>
  </g>
  <g s:type="not" transform="translate(664,541.5)" s:width="30" s:height="20" id="cell_$not$.yosys_tmp/prog_priority_encoder.sv:14$26">
    <s:alias val="$_NOT_"/>
    <s:alias val="$not"/>
    <s:alias val="$logic_not"/>
    <path d="M0,0 L0,20 L20,10 Z" class="cell_$not$.yosys_tmp/prog_priority_encoder.sv:14$26"/>
    <circle cx="23" cy="10" r="3" class="cell_$not$.yosys_tmp/prog_priority_encoder.sv:14$26"/>
    <g s:x="0" s:y="10" s:pid="A"/>
    <g s:x="25" s:y="10" s:pid="Y"/>
  </g>
  <g s:type="not" transform="translate(924,561.5)" s:width="30" s:height="20" id="cell_$not$.yosys_tmp/prog_priority_encoder.sv:14$8">
    <s:alias val="$_NOT_"/>
    <s:alias val="$not"/>
    <s:alias val="$logic_not"/>
    <path d="M0,0 L0,20 L20,10 Z" class="cell_$not$.yosys_tmp/prog_priority_encoder.sv:14$8"/>
    <circle cx="23" cy="10" r="3" class="cell_$not$.yosys_tmp/prog_priority_encoder.sv:14$8"/>
    <g s:x="0" s:y="10" s:pid="A"/>
    <g s:x="25" s:y="10" s:pid="Y"/>
  </g>
  <g s:type="or" transform="translate(924,306.5)" s:width="30" s:height="25" id="cell_$or$.yosys_tmp/prog_priority_encoder.sv:12$7">
    <s:alias val="$or"/>
    <s:alias val="$logic_or"/>
    <s:alias val="$_OR_"/>
    <path d="M0,25 L0,25 L15,25 A15 12.5 0 0 0 15,0 L0,0" class="cell_$or$.yosys_tmp/prog_priority_encoder.sv:12$7"/>
    <path d="M0,0 A30 25 0 0 1 0,25" class="cell_$or$.yosys_tmp/prog_priority_encoder.sv:12$7"/>
    <g s:x="3" s:y="5" s:pid="A"/>
    <g s:x="3" s:y="20" s:pid="B"/>
    <g s:x="30" s:y="12.5" s:pid="Y"/>
  </g>
  <g s:type="or" transform="translate(1054,371)" s:width="30" s:height="25" id="cell_$or$.yosys_tmp/prog_priority_encoder.sv:14$10">
    <s:alias val="$or"/>
    <s:alias val="$logic_or"/>
    <s:alias val="$_OR_"/>
    <path d="M0,25 L0,25 L15,25 A15 12.5 0 0 0 15,0 L0,0" class="cell_$or$.yosys_tmp/prog_priority_encoder.sv:14$10"/>
    <path d="M0,0 A30 25 0 0 1 0,25" class="cell_$or$.yosys_tmp/prog_priority_encoder.sv:14$10"/>
    <g s:x="3" s:y="5" s:pid="A"/>
    <g s:x="3" s:y="20" s:pid="B"/>
    <g s:x="30" s:y="12.5" s:pid="Y"/>
  </g>
  <g s:type="or" transform="translate(1184,237)" s:width="30" s:height="25" id="cell_$or$.yosys_tmp/prog_priority_encoder.sv:14$13">
    <s:alias val="$or"/>
    <s:alias val="$logic_or"/>
    <s:alias val="$_OR_"/>
    <path d="M0,25 L0,25 L15,25 A15 12.5 0 0 0 15,0 L0,0" class="cell_$or$.yosys_tmp/prog_priority_encoder.sv:14$13"/>
    <path d="M0,0 A30 25 0 0 1 0,25" class="cell_$or$.yosys_tmp/prog_priority_encoder.sv:14$13"/>
    <g s:x="3" s:y="5" s:pid="A"/>
    <g s:x="3" s:y="20" s:pid="B"/>
    <g s:x="30" s:y="12.5" s:pid="Y"/>
  </g>
  <g s:type="or" transform="translate(274,213.5)" s:width="30" s:height="25" id="cell_$or$.yosys_tmp/prog_priority_encoder.sv:14$16">
    <s:alias val="$or"/>
    <s:alias val="$logic_or"/>
    <s:alias val="$_OR_"/>
    <path d="M0,25 L0,25 L15,25 A15 12.5 0 0 0 15,0 L0,0" class="cell_$or$.yosys_tmp/prog_priority_encoder.sv:14$16"/>
    <path d="M0,0 A30 25 0 0 1 0,25" class="cell_$or$.yosys_tmp/prog_priority_encoder.sv:14$16"/>
    <g s:x="3" s:y="5" s:pid="A"/>
    <g s:x="3" s:y="20" s:pid="B"/>
    <g s:x="30" s:y="12.5" s:pid="Y"/>
  </g>
  <g s:type="or" transform="translate(404,283)" s:width="30" s:height="25" id="cell_$or$.yosys_tmp/prog_priority_encoder.sv:14$19">
    <s:alias val="$or"/>
    <s:alias val="$logic_or"/>
    <s:alias val="$_OR_"/>
    <path d="M0,25 L0,25 L15,25 A15 12.5 0 0 0 15,0 L0,0" class="cell_$or$.yosys_tmp/prog_priority_encoder.sv:14$19"/>
    <path d="M0,0 A30 25 0 0 1 0,25" class="cell_$or$.yosys_tmp/prog_priority_encoder.sv:14$19"/>
    <g s:x="3" s:y="5" s:pid="A"/>
    <g s:x="3" s:y="20" s:pid="B"/>
    <g s:x="30" s:y="12.5" s:pid="Y"/>
  </g>
  <g s:type="or" transform="translate(534,393.5)" s:width="30" s:height="25" id="cell_$or$.yosys_tmp/prog_priority_encoder.sv:14$22">
    <s:alias val="$or"/>
    <s:alias val="$logic_or"/>
    <s:alias val="$_OR_"/>
    <path d="M0,25 L0,25 L15,25 A15 12.5 0 0 0 15,0 L0,0" class="cell_$or$.yosys_tmp/prog_priority_encoder.sv:14$22"/>
    <path d="M0,0 A30 25 0 0 1 0,25" class="cell_$or$.yosys_tmp/prog_priority_encoder.sv:14$22"/>
    <g s:x="3" s:y="5" s:pid="A"/>
    <g s:x="3" s:y="20" s:pid="B"/>
    <g s:x="30" s:y="12.5" s:pid="Y"/>
  </g>
  <g s:type="or" transform="translate(664,439.5)" s:width="30" s:height="25" id="cell_$or$.yosys_tmp/prog_priority_encoder.sv:14$25">
    <s:alias val="$or"/>
    <s:alias val="$logic_or"/>
    <s:alias val="$_OR_"/>
    <path d="M0,25 L0,25 L15,25 A15 12.5 0 0 0 15,0 L0,0" class="cell_$or$.yosys_tmp/prog_priority_encoder.sv:14$25"/>
    <path d="M0,0 A30 25 0 0 1 0,25" class="cell_$or$.yosys_tmp/prog_priority_encoder.sv:14$25"/>
    <g s:x="3" s:y="5" s:pid="A"/>
    <g s:x="3" s:y="20" s:pid="B"/>
    <g s:x="30" s:y="12.5" s:pid="Y"/>
  </g>
  <g s:type="or" transform="translate(794,485.5)" s:width="30" s:height="25" id="cell_$or$.yosys_tmp/prog_priority_encoder.sv:14$28">
    <s:alias val="$or"/>
    <s:alias val="$logic_or"/>
    <s:alias val="$_OR_"/>
    <path d="M0,25 L0,25 L15,25 A15 12.5 0 0 0 15,0 L0,0" class="cell_$or$.yosys_tmp/prog_priority_encoder.sv:14$28"/>
    <path d="M0,0 A30 25 0 0 1 0,25" class="cell_$or$.yosys_tmp/prog_priority_encoder.sv:14$28"/>
    <g s:x="3" s:y="5" s:pid="A"/>
    <g s:x="3" s:y="20" s:pid="B"/>
    <g s:x="30" s:y="12.5" s:pid="Y"/>
  </g>
  <g s:type="or" transform="translate(1509,81)" s:width="30" s:height="25" id="cell_$or$.yosys_tmp/prog_priority_encoder.sv:19$31">
    <s:alias val="$or"/>
    <s:alias val="$logic_or"/>
    <s:alias val="$_OR_"/>
    <path d="M0,25 L0,25 L15,25 A15 12.5 0 0 0 15,0 L0,0" class="cell_$or$.yosys_tmp/prog_priority_encoder.sv:19$31"/>
    <path d="M0,0 A30 25 0 0 1 0,25" class="cell_$or$.yosys_tmp/prog_priority_encoder.sv:19$31"/>
    <g s:x="3" s:y="5" s:pid="A"/>
    <g s:x="3" s:y="20" s:pid="B"/>
    <g s:x="30" s:y="12.5" s:pid="Y"/>
  </g>
  <g s:type="or" transform="translate(1574,50)" s:width="30" s:height="25" id="cell_$or$.yosys_tmp/prog_priority_encoder.sv:19$32">
    <s:alias val="$or"/>
    <s:alias val="$logic_or"/>
    <s:alias val="$_OR_"/>
    <path d="M0,25 L0,25 L15,25 A15 12.5 0 0 0 15,0 L0,0" class="cell_$or$.yosys_tmp/prog_priority_encoder.sv:19$32"/>
    <path d="M0,0 A30 25 0 0 1 0,25" class="cell_$or$.yosys_tmp/prog_priority_encoder.sv:19$32"/>
    <g s:x="3" s:y="5" s:pid="A"/>
    <g s:x="3" s:y="20" s:pid="B"/>
    <g s:x="30" s:y="12.5" s:pid="Y"/>
  </g>
  <g s:type="or" transform="translate(1444,193.5)" s:width="30" s:height="25" id="cell_$or$.yosys_tmp/prog_priority_encoder.sv:20$33">
    <s:alias val="$or"/>
    <s:alias val="$logic_or"/>
    <s:alias val="$_OR_"/>
    <path d="M0,25 L0,25 L15,25 A15 12.5 0 0 0 15,0 L0,0" class="cell_$or$.yosys_tmp/prog_priority_encoder.sv:20$33"/>
    <path d="M0,0 A30 25 0 0 1 0,25" class="cell_$or$.yosys_tmp/prog_priority_encoder.sv:20$33"/>
    <g s:x="3" s:y="5" s:pid="A"/>
    <g s:x="3" s:y="20" s:pid="B"/>
    <g s:x="30" s:y="12.5" s:pid="Y"/>
  </g>
  <g s:type="or" transform="translate(1509,201)" s:width="30" s:height="25" id="cell_$or$.yosys_tmp/prog_priority_encoder.sv:20$34">
    <s:alias val="$or"/>
    <s:alias val="$logic_or"/>
    <s:alias val="$_OR_"/>
    <path d="M0,25 L0,25 L15,25 A15 12.5 0 0 0 15,0 L0,0" class="cell_$or$.yosys_tmp/prog_priority_encoder.sv:20$34"/>
    <path d="M0,0 A30 25 0 0 1 0,25" class="cell_$or$.yosys_tmp/prog_priority_encoder.sv:20$34"/>
    <g s:x="3" s:y="5" s:pid="A"/>
    <g s:x="3" s:y="20" s:pid="B"/>
    <g s:x="30" s:y="12.5" s:pid="Y"/>
  </g>
  <g s:type="or" transform="translate(1574,208.5)" s:width="30" s:height="25" id="cell_$or$.yosys_tmp/prog_priority_encoder.sv:20$35">
    <s:alias val="$or"/>
    <s:alias val="$logic_or"/>
    <s:alias val="$_OR_"/>
    <path d="M0,25 L0,25 L15,25 A15 12.5 0 0 0 15,0 L0,0" class="cell_$or$.yosys_tmp/prog_priority_encoder.sv:20$35"/>
    <path d="M0,0 A30 25 0 0 1 0,25" class="cell_$or$.yosys_tmp/prog_priority_encoder.sv:20$35"/>
    <g s:x="3" s:y="5" s:pid="A"/>
    <g s:x="3" s:y="20" s:pid="B"/>
    <g s:x="30" s:y="12.5" s:pid="Y"/>
  </g>
  <g s:type="or" transform="translate(1444,133.5)" s:width="30" s:height="25" id="cell_$or$.yosys_tmp/prog_priority_encoder.sv:21$36">
    <s:alias val="$or"/>
    <s:alias val="$logic_or"/>
    <s:alias val="$_OR_"/>
    <path d="M0,25 L0,25 L15,25 A15 12.5 0 0 0 15,0 L0,0" class="cell_$or$.yosys_tmp/prog_priority_encoder.sv:21$36"/>
    <path d="M0,0 A30 25 0 0 1 0,25" class="cell_$or$.yosys_tmp/prog_priority_encoder.sv:21$36"/>
    <g s:x="3" s:y="5" s:pid="A"/>
    <g s:x="3" s:y="20" s:pid="B"/>
    <g s:x="30" s:y="12.5" s:pid="Y"/>
  </g>
  <g s:type="or" transform="translate(1509,141)" s:width="30" s:height="25" id="cell_$or$.yosys_tmp/prog_priority_encoder.sv:21$37">
    <s:alias val="$or"/>
    <s:alias val="$logic_or"/>
    <s:alias val="$_OR_"/>
    <path d="M0,25 L0,25 L15,25 A15 12.5 0 0 0 15,0 L0,0" class="cell_$or$.yosys_tmp/prog_priority_encoder.sv:21$37"/>
    <path d="M0,0 A30 25 0 0 1 0,25" class="cell_$or$.yosys_tmp/prog_priority_encoder.sv:21$37"/>
    <g s:x="3" s:y="5" s:pid="A"/>
    <g s:x="3" s:y="20" s:pid="B"/>
    <g s:x="30" s:y="12.5" s:pid="Y"/>
  </g>
  <g s:type="or" transform="translate(1574,148.5)" s:width="30" s:height="25" id="cell_$or$.yosys_tmp/prog_priority_encoder.sv:21$38">
    <s:alias val="$or"/>
    <s:alias val="$logic_or"/>
    <s:alias val="$_OR_"/>
    <path d="M0,25 L0,25 L15,25 A15 12.5 0 0 0 15,0 L0,0" class="cell_$or$.yosys_tmp/prog_priority_encoder.sv:21$38"/>
    <path d="M0,0 A30 25 0 0 1 0,25" class="cell_$or$.yosys_tmp/prog_priority_encoder.sv:21$38"/>
    <g s:x="3" s:y="5" s:pid="A"/>
    <g s:x="3" s:y="20" s:pid="B"/>
    <g s:x="30" s:y="12.5" s:pid="Y"/>
  </g>
  <g s:type="inputExt" transform="translate(129,320)" s:width="30" s:height="20" id="cell_p">
    <text x="15" y="-4" class="nodelabel cell_p" s:attribute="ref">p</text>
    <s:alias val="$_inputExt_"/>
    <path d="M0,0 L0,20 L15,20 L30,10 L15,0 Z" class="cell_p"/>
    <g s:x="28" s:y="10" s:pid="Y"/>
  </g>
  <g s:type="inputExt" transform="translate(12,201)" s:width="30" s:height="20" id="cell_a">
    <text x="15" y="-4" class="nodelabel cell_a" s:attribute="ref">a</text>
    <s:alias val="$_inputExt_"/>
    <path d="M0,0 L0,20 L15,20 L30,10 L15,0 Z" class="cell_a"/>
    <g s:x="28" s:y="10" s:pid="Y"/>
  </g>
  <g s:type="outputExt" transform="translate(1687,22.5)" s:width="30" s:height="20" id="cell_b">
    <text x="15" y="-4" class="nodelabel cell_b" s:attribute="ref">b</text>
    <s:alias val="$_outputExt_"/>
    <path d="M30,0 L30,20 L15,20 L0,10 L15,0 Z" class="cell_b"/>
    <g s:x="0" s:y="10" s:pid="A"/>
  </g>
  <g s:type="join" transform="translate(1284,135.5)" s:width="4" s:height="40" id="cell_$join$,21,39,36,33,30,27,24,42,">
    <rect width="5" height="160" class="splitjoinBody" s:generic="body"/>
    <s:alias val="$_join_"/>
    <g s:x="5" s:y="20" s:pid="out"/>
    <g transform="translate(0,10)" s:x="0" s:y="10" s:pid="in0">
      <text x="-3" y="-4" class="inputPortLabel">0</text>
    </g>
    <g transform="translate(0,30)" s:x="0" s:y="10" s:pid="in0">
      <text x="-3" y="-4" class="inputPortLabel">1</text>
    </g>
    <g transform="translate(0,50)" s:x="0" s:y="10" s:pid="in0">
      <text x="-3" y="-4" class="inputPortLabel">2</text>
    </g>
    <g transform="translate(0,70)" s:x="0" s:y="10" s:pid="in0">
      <text x="-3" y="-4" class="inputPortLabel">3</text>
    </g>
    <g transform="translate(0,90)" s:x="0" s:y="10" s:pid="in0">
      <text x="-3" y="-4" class="inputPortLabel">4</text>
    </g>
    <g transform="translate(0,110)" s:x="0" s:y="10" s:pid="in0">
      <text x="-3" y="-4" class="inputPortLabel">5</text>
    </g>
    <g transform="translate(0,130)" s:x="0" s:y="10" s:pid="in0">
      <text x="-3" y="-4" class="inputPortLabel">6</text>
    </g>
    <g transform="translate(0,150)" s:x="0" s:y="10" s:pid="in0">
      <text x="-3" y="-4" class="inputPortLabel">7</text>
    </g>
  </g>
  <g s:type="join" transform="translate(1646,12)" s:width="4" s:height="40" id="cell_$join$,18,19,20,">
    <rect width="5" height="60" class="splitjoinBody" s:generic="body"/>
    <s:alias val="$_join_"/>
    <g s:x="5" s:y="20" s:pid="out"/>
    <g transform="translate(0,10)" s:x="0" s:y="10" s:pid="in0">
      <text x="-3" y="-4" class="inputPortLabel">0</text>
    </g>
    <g transform="translate(0,30)" s:x="0" s:y="10" s:pid="in0">
      <text x="-3" y="-4" class="inputPortLabel">1</text>
    </g>
    <g transform="translate(0,50)" s:x="0" s:y="10" s:pid="in0">
      <text x="-3" y="-4" class="inputPortLabel">2</text>
    </g>
  </g>
  <g s:type="split" transform="translate(77,190.5)" s:width="5" s:height="40" id="cell_$split$,10,11,12,13,14,15,16,17,">
    <rect width="5" height="160" class="splitjoinBody" s:generic="body"/>
    <s:alias val="$_split_"/>
    <g s:x="0" s:y="20" s:pid="in"/>
    <g transform="translate(4,10)" s:x="4" s:y="10" s:pid="out0">
      <text x="5" y="-4">0</text>
    </g>
    <g transform="translate(4,30)" s:x="4" s:y="10" s:pid="out0">
      <text x="5" y="-4">6</text>
    </g>
    <g transform="translate(4,50)" s:x="4" s:y="10" s:pid="out0">
      <text x="5" y="-4">5</text>
    </g>
    <g transform="translate(4,70)" s:x="4" s:y="10" s:pid="out0">
      <text x="5" y="-4">4</text>
    </g>
    <g transform="translate(4,90)" s:x="4" s:y="10" s:pid="out0">
      <text x="5" y="-4">3</text>
    </g>
    <g transform="translate(4,110)" s:x="4" s:y="10" s:pid="out0">
      <text x="5" y="-4">2</text>
    </g>
    <g transform="translate(4,130)" s:x="4" s:y="10" s:pid="out0">
      <text x="5" y="-4">1</text>
    </g>
    <g transform="translate(4,150)" s:x="4" s:y="10" s:pid="out0">
      <text x="5" y="-4">7</text>
    </g>
  </g>
  <g s:type="split" transform="translate(210.42857142857142,309.5)" s:width="5" s:height="40" id="cell_$split$,2,3,4,5,6,7,8,9,">
    <rect width="5" height="160" class="splitjoinBody" s:generic="body"/>
    <s:alias val="$_split_"/>
    <g s:x="0" s:y="20" s:pid="in"/>
    <g transform="translate(4,10)" s:x="4" s:y="10" s:pid="out0">
      <text x="5" y="-4">7</text>
    </g>
    <g transform="translate(4,30)" s:x="4" s:y="10" s:pid="out0">
      <text x="5" y="-4">6</text>
    </g>
    <g transform="translate(4,50)" s:x="4" s:y="10" s:pid="out0">
      <text x="5" y="-4">5</text>
    </g>
    <g transform="translate(4,70)" s:x="4" s:y="10" s:pid="out0">
      <text x="5" y="-4">4</text>
    </g>
    <g transform="translate(4,90)" s:x="4" s:y="10" s:pid="out0">
      <text x="5" y="-4">3</text>
    </g>
    <g transform="translate(4,110)" s:x="4" s:y="10" s:pid="out0">
      <text x="5" y="-4">2</text>
    </g>
    <g transform="translate(4,130)" s:x="4" s:y="10" s:pid="out0">
      <text x="5" y="-4">1</text>
    </g>
    <g transform="translate(4,150)" s:x="4" s:y="10" s:pid="out0">
      <text x="5" y="-4">0</text>
    </g>
  </g>
  <g s:type="split" transform="translate(1392,143)" s:width="5" s:height="40" id="cell_$split$,45,46,47,48,49,50,51,52,">
    <rect width="5" height="140" class="splitjoinBody" s:generic="body"/>
    <s:alias val="$_split_"/>
    <g s:x="0" s:y="20" s:pid="in"/>
    <g transform="translate(4,10)" s:x="4" s:y="10" s:pid="out0">
      <text x="5" y="-4">5</text>
    </g>
    <g transform="translate(4,30)" s:x="4" s:y="10" s:pid="out0">
      <text x="5" y="-4">4</text>
    </g>
    <g transform="translate(4,50)" s:x="4" s:y="10" s:pid="out0">
      <text x="5" y="-4">7</text>
    </g>
    <g transform="translate(4,70)" s:x="4" s:y="10" s:pid="out0">
      <text x="5" y="-4">6</text>
    </g>
    <g transform="translate(4,90)" s:x="4" s:y="10" s:pid="out0">
      <text x="5" y="-4">3</text>
    </g>
    <g transform="translate(4,110)" s:x="4" s:y="10" s:pid="out0">
      <text x="5" y="-4">2</text>
    </g>
    <g transform="translate(4,130)" s:x="4" s:y="10" s:pid="out0">
      <text x="5" y="-4">1</text>
    </g>
  </g>
  <line x1="824" x2="834" y1="498" y2="498" class="net_21"/>
  <line x1="834" x2="834" y1="498" y2="319" class="net_21"/>
  <circle cx="834" cy="498" r="2" style="fill:#000" class="net_21"/>
  <line x1="834" x2="859" y1="319" y2="319" class="net_21"/>
  <line x1="824" x2="1244" y1="498" y2="498" class="net_21"/>
  <line x1="1244" x2="1244" y1="498" y2="98.5" class="net_21"/>
  <line x1="1244" x2="1284.5" y1="98.5" y2="98.5" class="net_21"/>
  <line x1="1284.5" x2="1284.5" y1="98.5" y2="145.5" class="net_21"/>
  <line x1="819" x2="844" y1="97.5" y2="97.5" class="net_22"/>
  <line x1="844" x2="844" y1="97.5" y2="334" class="net_22"/>
  <line x1="844" x2="859" y1="334" y2="334" class="net_22"/>
  <line x1="1084" x2="1094" y1="383.5" y2="383.5" class="net_24"/>
  <line x1="1094" x2="1094" y1="383.5" y2="249.5" class="net_24"/>
  <circle cx="1094" cy="383.5" r="2" style="fill:#000" class="net_24"/>
  <line x1="1094" x2="1119" y1="249.5" y2="249.5" class="net_24"/>
  <line x1="1084" x2="1274" y1="383.5" y2="383.5" class="net_24"/>
  <line x1="1274" x2="1274" y1="383.5" y2="266" class="net_24"/>
  <line x1="1274" x2="1284" y1="266" y2="266" class="net_24"/>
  <line x1="1079" x2="1104" y1="117.5" y2="117.5" class="net_25"/>
  <line x1="1104" x2="1104" y1="117.5" y2="264.5" class="net_25"/>
  <line x1="1104" x2="1119" y1="264.5" y2="264.5" class="net_25"/>
  <line x1="1214" x2="1224" y1="249.5" y2="249.5" class="net_27"/>
  <line x1="1224" x2="1224" y1="249.5" y2="137.5" class="net_27"/>
  <line x1="1224" x2="169" y1="137.5" y2="137.5" class="net_27"/>
  <line x1="169" x2="169" y1="137.5" y2="226" class="net_27"/>
  <line x1="169" x2="194" y1="226" y2="226" class="net_27"/>
  <line x1="1214" x2="1224" y1="249.5" y2="249.5" class="net_27"/>
  <line x1="1224" x2="1224" y1="249.5" y2="246" class="net_27"/>
  <circle cx="1224" cy="246" r="2" style="fill:#000" class="net_27"/>
  <line x1="1224" x2="1284" y1="246" y2="246" class="net_27"/>
  <line x1="154" x2="194" y1="241" y2="241" class="net_28"/>
  <line x1="304" x2="314" y1="226" y2="226" class="net_30"/>
  <line x1="314" x2="314" y1="226" y2="153.5" class="net_30"/>
  <circle cx="314" cy="226" r="2" style="fill:#000" class="net_30"/>
  <line x1="314" x2="339" y1="153.5" y2="153.5" class="net_30"/>
  <line x1="304" x2="1284" y1="226" y2="226" class="net_30"/>
  <line x1="299" x2="339" y1="168.5" y2="168.5" class="net_31"/>
  <line x1="434" x2="444" y1="295.5" y2="295.5" class="net_33"/>
  <line x1="444" x2="444" y1="295.5" y2="414.5" class="net_33"/>
  <circle cx="444" cy="295.5" r="2" style="fill:#000" class="net_33"/>
  <line x1="444" x2="469" y1="414.5" y2="414.5" class="net_33"/>
  <line x1="434" x2="1234" y1="295.5" y2="295.5" class="net_33"/>
  <line x1="1234" x2="1234" y1="295.5" y2="206" class="net_33"/>
  <line x1="1234" x2="1284" y1="206" y2="206" class="net_33"/>
  <line x1="429" x2="444" y1="511.5" y2="511.5" class="net_34"/>
  <line x1="444" x2="444" y1="511.5" y2="429.5" class="net_34"/>
  <line x1="444" x2="469" y1="429.5" y2="429.5" class="net_34"/>
  <line x1="564" x2="574" y1="406" y2="406" class="net_36"/>
  <line x1="574" x2="574" y1="406" y2="460.5" class="net_36"/>
  <circle cx="574" cy="406" r="2" style="fill:#000" class="net_36"/>
  <line x1="574" x2="599" y1="460.5" y2="460.5" class="net_36"/>
  <line x1="564" x2="1264" y1="406" y2="406" class="net_36"/>
  <line x1="1264" x2="1264" y1="406" y2="186" class="net_36"/>
  <line x1="1264" x2="1284" y1="186" y2="186" class="net_36"/>
  <line x1="559" x2="574" y1="531.5" y2="531.5" class="net_37"/>
  <line x1="574" x2="574" y1="531.5" y2="475.5" class="net_37"/>
  <line x1="574" x2="599" y1="475.5" y2="475.5" class="net_37"/>
  <line x1="694" x2="704" y1="452" y2="452" class="net_39"/>
  <line x1="704" x2="704" y1="452" y2="536.5" class="net_39"/>
  <circle cx="704" cy="452" r="2" style="fill:#000" class="net_39"/>
  <line x1="704" x2="729" y1="536.5" y2="536.5" class="net_39"/>
  <line x1="694" x2="1254" y1="452" y2="452" class="net_39"/>
  <line x1="1254" x2="1254" y1="452" y2="166" class="net_39"/>
  <line x1="1254" x2="1284" y1="166" y2="166" class="net_39"/>
  <line x1="689" x2="729" y1="551.5" y2="551.5" class="net_40"/>
  <line x1="954" x2="964" y1="319" y2="319" class="net_42"/>
  <line x1="964" x2="964" y1="319" y2="422" class="net_42"/>
  <circle cx="964" cy="319" r="2" style="fill:#000" class="net_42"/>
  <line x1="964" x2="989" y1="422" y2="422" class="net_42"/>
  <line x1="954" x2="1284.5" y1="319" y2="319" class="net_42"/>
  <line x1="1284.5" x2="1284.5" y1="319" y2="286.5" class="net_42"/>
  <line x1="949" x2="964" y1="571.5" y2="571.5" class="net_43"/>
  <line x1="964" x2="964" y1="571.5" y2="437" class="net_43"/>
  <line x1="964" x2="989" y1="437" y2="437" class="net_43"/>
  <line x1="1290" x2="1327" y1="156" y2="156" class="net_21,39,36,33,30,27,24,42"/>
  <line x1="40" x2="52" y1="211" y2="211" class="net_10,11,12,13,14,15,16,17"/>
  <line x1="52" x2="52" y1="211" y2="591.5" class="net_10,11,12,13,14,15,16,17"/>
  <line x1="52" x2="1302" y1="591.5" y2="591.5" class="net_10,11,12,13,14,15,16,17"/>
  <line x1="1302" x2="1302" y1="591.5" y2="171" class="net_10,11,12,13,14,15,16,17"/>
  <circle cx="52" cy="211" r="2" style="fill:#000" class="net_10,11,12,13,14,15,16,17"/>
  <line x1="1302" x2="1327" y1="171" y2="171" class="net_10,11,12,13,14,15,16,17"/>
  <line x1="40" x2="77" y1="211" y2="211" class="net_10,11,12,13,14,15,16,17"/>
  <line x1="81.5" x2="81.5" y1="200.5" y2="97.5" class="net_10"/>
  <line x1="81.5" x2="794" y1="97.5" y2="97.5" class="net_10"/>
  <line x1="82" x2="99" y1="221" y2="221" class="net_16"/>
  <line x1="99" x2="99" y1="221" y2="117.5" class="net_16"/>
  <line x1="99" x2="1054" y1="117.5" y2="117.5" class="net_16"/>
  <line x1="82" x2="129" y1="241" y2="241" class="net_15"/>
  <line x1="82" x2="234" y1="261" y2="261" class="net_14"/>
  <line x1="234" x2="234" y1="261" y2="168.5" class="net_14"/>
  <line x1="234" x2="274" y1="168.5" y2="168.5" class="net_14"/>
  <line x1="82" x2="119" y1="281" y2="281" class="net_13"/>
  <line x1="119" x2="119" y1="281" y2="511.5" class="net_13"/>
  <line x1="119" x2="404" y1="511.5" y2="511.5" class="net_13"/>
  <line x1="82" x2="109" y1="301" y2="301" class="net_12"/>
  <line x1="109" x2="109" y1="301" y2="531.5" class="net_12"/>
  <line x1="109" x2="534" y1="531.5" y2="531.5" class="net_12"/>
  <line x1="82" x2="99" y1="321" y2="321" class="net_11"/>
  <line x1="99" x2="99" y1="321" y2="551.5" class="net_11"/>
  <line x1="99" x2="664" y1="551.5" y2="551.5" class="net_11"/>
  <line x1="81.5" x2="81.5" y1="341.5" y2="571.5" class="net_17"/>
  <line x1="81.5" x2="924" y1="571.5" y2="571.5" class="net_17"/>
  <line x1="214.92857142857142" x2="214.92857142857142" y1="319.5" y2="272" class="net_9"/>
  <line x1="214.92857142857142" x2="899" y1="272" y2="272" class="net_9"/>
  <line x1="899" x2="899" y1="272" y2="311.5" class="net_9"/>
  <line x1="899" x2="927" y1="311.5" y2="311.5" class="net_9"/>
  <line x1="889" x2="927" y1="326.5" y2="326.5" class="net_23"/>
  <line x1="215.42857142857142" x2="254" y1="340" y2="340" class="net_8"/>
  <line x1="254" x2="254" y1="340" y2="349" class="net_8"/>
  <line x1="254" x2="1029" y1="349" y2="349" class="net_8"/>
  <line x1="1029" x2="1029" y1="349" y2="376" class="net_8"/>
  <line x1="1029" x2="1057" y1="376" y2="376" class="net_8"/>
  <line x1="1019" x2="1029" y1="429.5" y2="429.5" class="net_44"/>
  <line x1="1029" x2="1029" y1="429.5" y2="391" class="net_44"/>
  <line x1="1029" x2="1057" y1="391" y2="391" class="net_44"/>
  <line x1="215.42857142857142" x2="1159" y1="360" y2="360" class="net_7"/>
  <line x1="1159" x2="1159" y1="360" y2="242" class="net_7"/>
  <line x1="1159" x2="1187" y1="242" y2="242" class="net_7"/>
  <line x1="1149" x2="1187" y1="257" y2="257" class="net_26"/>
  <line x1="215.42857142857142" x2="244" y1="380" y2="380" class="net_6"/>
  <line x1="244" x2="244" y1="380" y2="218.5" class="net_6"/>
  <line x1="244" x2="277" y1="218.5" y2="218.5" class="net_6"/>
  <line x1="224" x2="277" y1="233.5" y2="233.5" class="net_29"/>
  <line x1="215.42857142857142" x2="254" y1="400" y2="400" class="net_5"/>
  <line x1="254" x2="254" y1="400" y2="371" class="net_5"/>
  <line x1="254" x2="379" y1="371" y2="371" class="net_5"/>
  <line x1="379" x2="379" y1="371" y2="288" class="net_5"/>
  <line x1="379" x2="407" y1="288" y2="288" class="net_5"/>
  <line x1="369" x2="389" y1="161" y2="161" class="net_32"/>
  <line x1="389" x2="389" y1="161" y2="303" class="net_32"/>
  <line x1="389" x2="407" y1="303" y2="303" class="net_32"/>
  <line x1="215.42857142857142" x2="264" y1="420" y2="420" class="net_4"/>
  <line x1="264" x2="264" y1="420" y2="398.5" class="net_4"/>
  <line x1="264" x2="537" y1="398.5" y2="398.5" class="net_4"/>
  <line x1="499" x2="509" y1="422" y2="422" class="net_35"/>
  <line x1="509" x2="509" y1="422" y2="413.5" class="net_35"/>
  <line x1="509" x2="537" y1="413.5" y2="413.5" class="net_35"/>
  <line x1="215.42857142857142" x2="234" y1="440" y2="440" class="net_3"/>
  <line x1="234" x2="234" y1="440" y2="444.5" class="net_3"/>
  <line x1="234" x2="667" y1="444.5" y2="444.5" class="net_3"/>
  <line x1="629" x2="639" y1="468" y2="468" class="net_38"/>
  <line x1="639" x2="639" y1="468" y2="459.5" class="net_38"/>
  <line x1="639" x2="667" y1="459.5" y2="459.5" class="net_38"/>
  <line x1="214.92857142857142" x2="214.92857142857142" y1="460.5" y2="490.5" class="net_2"/>
  <line x1="214.92857142857142" x2="797" y1="490.5" y2="490.5" class="net_2"/>
  <line x1="759" x2="769" y1="544" y2="544" class="net_41"/>
  <line x1="769" x2="769" y1="544" y2="505.5" class="net_41"/>
  <line x1="769" x2="797" y1="505.5" y2="505.5" class="net_41"/>
  <line x1="1474" x2="1484" y1="206" y2="206" class="net_53"/>
  <line x1="1484" x2="1484" y1="206" y2="86" class="net_53"/>
  <circle cx="1484" cy="206" r="2" style="fill:#000" class="net_53"/>
  <line x1="1484" x2="1512" y1="86" y2="86" class="net_53"/>
  <line x1="1474" x2="1512" y1="206" y2="206" class="net_53"/>
  <line x1="1396.5" x2="1396.5" y1="153" y2="59" class="net_50"/>
  <line x1="1396.5" x2="1494" y1="59" y2="59" class="net_50"/>
  <line x1="1494" x2="1494" y1="59" y2="101" class="net_50"/>
  <line x1="1494" x2="1512" y1="101" y2="101" class="net_50"/>
  <line x1="1396.5" x2="1396.5" y1="153" y2="59" class="net_50"/>
  <line x1="1396.5" x2="1434" y1="59" y2="59" class="net_50"/>
  <line x1="1434" x2="1434" y1="59" y2="153.5" class="net_50"/>
  <circle cx="1434" cy="59" r="2" style="fill:#000" class="net_50"/>
  <line x1="1434" x2="1447" y1="153.5" y2="153.5" class="net_50"/>
  <line x1="1539" x2="1549" y1="93.5" y2="93.5" class="net_54"/>
  <line x1="1549" x2="1549" y1="93.5" y2="55" class="net_54"/>
  <line x1="1549" x2="1577" y1="55" y2="55" class="net_54"/>
  <line x1="1397" x2="1414" y1="173.5" y2="173.5" class="net_49"/>
  <line x1="1414" x2="1414" y1="173.5" y2="70" class="net_49"/>
  <line x1="1414" x2="1577" y1="70" y2="70" class="net_49"/>
  <line x1="1397" x2="1424" y1="193.5" y2="193.5" class="net_52"/>
  <line x1="1424" x2="1424" y1="193.5" y2="198.5" class="net_52"/>
  <circle cx="1424" cy="193.5" r="2" style="fill:#000" class="net_52"/>
  <line x1="1424" x2="1447" y1="198.5" y2="198.5" class="net_52"/>
  <line x1="1397" x2="1424" y1="193.5" y2="193.5" class="net_52"/>
  <line x1="1424" x2="1424" y1="193.5" y2="138.5" class="net_52"/>
  <line x1="1424" x2="1447" y1="138.5" y2="138.5" class="net_52"/>
  <line x1="1397" x2="1447" y1="213.5" y2="213.5" class="net_51"/>
  <line x1="1397" x2="1414" y1="233.5" y2="233.5" class="net_48"/>
  <line x1="1414" x2="1414" y1="233.5" y2="228.5" class="net_48"/>
  <line x1="1414" x2="1494" y1="228.5" y2="228.5" class="net_48"/>
  <line x1="1494" x2="1494" y1="228.5" y2="221" class="net_48"/>
  <circle cx="1494" cy="221" r="2" style="fill:#000" class="net_48"/>
  <line x1="1494" x2="1512" y1="221" y2="221" class="net_48"/>
  <line x1="1397" x2="1414" y1="233.5" y2="233.5" class="net_48"/>
  <line x1="1414" x2="1414" y1="233.5" y2="228.5" class="net_48"/>
  <line x1="1414" x2="1494" y1="228.5" y2="228.5" class="net_48"/>
  <line x1="1494" x2="1494" y1="228.5" y2="161" class="net_48"/>
  <line x1="1494" x2="1512" y1="161" y2="161" class="net_48"/>
  <line x1="1539" x2="1577" y1="213.5" y2="213.5" class="net_55"/>
  <line x1="1397" x2="1414" y1="253.5" y2="253.5" class="net_47"/>
  <line x1="1414" x2="1414" y1="253.5" y2="239.5" class="net_47"/>
  <line x1="1414" x2="1559" y1="239.5" y2="239.5" class="net_47"/>
  <line x1="1559" x2="1559" y1="239.5" y2="228.5" class="net_47"/>
  <line x1="1559" x2="1577" y1="228.5" y2="228.5" class="net_47"/>
  <line x1="1474" x2="1512" y1="146" y2="146" class="net_56"/>
  <line x1="1539" x2="1577" y1="153.5" y2="153.5" class="net_57"/>
  <line x1="1396.5" x2="1396.5" y1="274" y2="293" class="net_46"/>
  <line x1="1396.5" x2="1549" y1="293" y2="293" class="net_46"/>
  <line x1="1549" x2="1549" y1="293" y2="168.5" class="net_46"/>
  <line x1="1549" x2="1577" y1="168.5" y2="168.5" class="net_46"/>
  <line x1="1652" x2="1687" y1="32.5" y2="32.5" class="net_18,19,20"/>
  <line x1="1604" x2="1614" y1="161" y2="161" class="net_18"/>
  <line x1="1614" x2="1614" y1="161" y2="22.5" class="net_18"/>
  <line x1="1614" x2="1646" y1="22.5" y2="22.5" class="net_18"/>
  <line x1="1604" x2="1624" y1="221" y2="221" class="net_19"/>
  <line x1="1624" x2="1624" y1="221" y2="42.5" class="net_19"/>
  <line x1="1624" x2="1646" y1="42.5" y2="42.5" class="net_19"/>
  <line x1="1604" x2="1646" y1="62.5" y2="62.5" class="net_20"/>
  <line x1="157" x2="210.42857142857142" y1="330" y2="330" class="net_2,3,4,5,6,7,8,9"/>
  <line x1="1357" x2="1392" y1="163.5" y2="163.5" class="net_45,46,47,48,49,50,51,52"/>
</svg>
