<svg style="background:white" xmlns="http://www.w3.org/2000/svg" xmlns:xlink="http://www.w3.org/1999/xlink" xmlns:s="https://github.com/nturley/netlistsvg" width="1429" height="591">
  <style>svg {
    stroke:#000;
    fill:none;
  }
  text {
    fill:#000;
    stroke:none;
    font-size:10px;
    font-weight: bold;
    font-family: "Courier New", monospace;
  }
  .nodelabel {
    text-anchor: middle;
  }
  .inputPortLabel {
    text-anchor: end;
  }
  .splitjoinBody {
    fill:#000;
  }</style>
  <g s:type="and" transform="translate(854,241)" s:width="30" s:height="25" id="cell_$and$.yosys_tmp/round_robin_arbiter.sv:14$44">
    <s:alias val="$and"/>
    <s:alias val="$logic_and"/>
    <s:alias val="$_AND_"/>
    <path d="M0,0 L0,25 L15,25 A15 12.5 0 0 0 15,0 Z" class="cell_$and$.yosys_tmp/round_robin_arbiter.sv:14$44"/>
    <g s:x="0" s:y="5" s:pid="A"/>
    <g s:x="0" s:y="20" s:pid="B"/>
    <g s:x="30" s:y="12.5" s:pid="Y"/>
  </g>
  <g s:type="and" transform="translate(984,149.5)" s:width="30" s:height="25" id="cell_$and$.yosys_tmp/round_robin_arbiter.sv:16$47">
    <s:alias val="$and"/>
    <s:alias val="$logic_and"/>
    <s:alias val="$_AND_"/>
    <path d="M0,0 L0,25 L15,25 A15 12.5 0 0 0 15,0 Z" class="cell_$and$.yosys_tmp/round_robin_arbiter.sv:16$47"/>
    <g s:x="0" s:y="5" s:pid="A"/>
    <g s:x="0" s:y="20" s:pid="B"/>
    <g s:x="30" s:y="12.5" s:pid="Y"/>
  </g>
  <g s:type="and" transform="translate(1114,77)" s:width="30" s:height="25" id="cell_$and$.yosys_tmp/round_robin_arbiter.sv:16$50">
    <s:alias val="$and"/>
    <s:alias val="$logic_and"/>
    <s:alias val="$_AND_"/>
    <path d="M0,0 L0,25 L15,25 A15 12.5 0 0 0 15,0 Z" class="cell_$and$.yosys_tmp/round_robin_arbiter.sv:16$50"/>
    <g s:x="0" s:y="5" s:pid="A"/>
    <g s:x="0" s:y="20" s:pid="B"/>
    <g s:x="30" s:y="12.5" s:pid="Y"/>
  </g>
  <g s:type="and" transform="translate(189,429.5)" s:width="30" s:height="25" id="cell_$and$.yosys_tmp/round_robin_arbiter.sv:16$53">
    <s:alias val="$and"/>
    <s:alias val="$logic_and"/>
    <s:alias val="$_AND_"/>
    <path d="M0,0 L0,25 L15,25 A15 12.5 0 0 0 15,0 Z" class="cell_$and$.yosys_tmp/round_robin_arbiter.sv:16$53"/>
    <g s:x="0" s:y="5" s:pid="A"/>
    <g s:x="0" s:y="20" s:pid="B"/>
    <g s:x="30" s:y="12.5" s:pid="Y"/>
  </g>
  <g s:type="and" transform="translate(334,338.5)" s:width="30" s:height="25" id="cell_$and$.yosys_tmp/round_robin_arbiter.sv:16$56">
    <s:alias val="$and"/>
    <s:alias val="$logic_and"/>
    <s:alias val="$_AND_"/>
    <path d="M0,0 L0,25 L15,25 A15 12.5 0 0 0 15,0 Z" class="cell_$and$.yosys_tmp/round_robin_arbiter.sv:16$56"/>
    <g s:x="0" s:y="5" s:pid="A"/>
    <g s:x="0" s:y="20" s:pid="B"/>
    <g s:x="30" s:y="12.5" s:pid="Y"/>
  </g>
  <g s:type="and" transform="translate(464,338.5)" s:width="30" s:height="25" id="cell_$and$.yosys_tmp/round_robin_arbiter.sv:16$59">
    <s:alias val="$and"/>
    <s:alias val="$logic_and"/>
    <s:alias val="$_AND_"/>
    <path d="M0,0 L0,25 L15,25 A15 12.5 0 0 0 15,0 Z" class="cell_$and$.yosys_tmp/round_robin_arbiter.sv:16$59"/>
    <g s:x="0" s:y="5" s:pid="A"/>
    <g s:x="0" s:y="20" s:pid="B"/>
    <g s:x="30" s:y="12.5" s:pid="Y"/>
  </g>
  <g s:type="and" transform="translate(594,384.5)" s:width="30" s:height="25" id="cell_$and$.yosys_tmp/round_robin_arbiter.sv:16$62">
    <s:alias val="$and"/>
    <s:alias val="$logic_and"/>
    <s:alias val="$_AND_"/>
    <path d="M0,0 L0,25 L15,25 A15 12.5 0 0 0 15,0 Z" class="cell_$and$.yosys_tmp/round_robin_arbiter.sv:16$62"/>
    <g s:x="0" s:y="5" s:pid="A"/>
    <g s:x="0" s:y="20" s:pid="B"/>
    <g s:x="30" s:y="12.5" s:pid="Y"/>
  </g>
  <g s:type="and" transform="translate(724,529)" s:width="30" s:height="25" id="cell_$and$.yosys_tmp/round_robin_arbiter.sv:16$65">
    <s:alias val="$and"/>
    <s:alias val="$logic_and"/>
    <s:alias val="$_AND_"/>
    <path d="M0,0 L0,25 L15,25 A15 12.5 0 0 0 15,0 Z" class="cell_$and$.yosys_tmp/round_robin_arbiter.sv:16$65"/>
    <g s:x="0" s:y="5" s:pid="A"/>
    <g s:x="0" s:y="20" s:pid="B"/>
    <g s:x="30" s:y="12.5" s:pid="Y"/>
  </g>
  <g s:type="and" transform="translate(1322,549)" s:width="30" s:height="25" id="cell_$and$.yosys_tmp/round_robin_arbiter.sv:20$67">
    <s:alias val="$and"/>
    <s:alias val="$logic_and"/>
    <s:alias val="$_AND_"/>
    <path d="M0,0 L0,25 L15,25 A15 12.5 0 0 0 15,0 Z" class="cell_$and$.yosys_tmp/round_robin_arbiter.sv:20$67"/>
    <g s:x="0" s:y="5" s:pid="A"/>
    <g s:x="0" s:y="20" s:pid="B"/>
    <g s:x="30" s:y="12.5" s:pid="Y"/>
  </g>
  <g s:type="not" transform="translate(789,47)" s:width="30" s:height="20" id="cell_$not$.yosys_tmp/round_robin_arbiter.sv:14$43">
    <s:alias val="$_NOT_"/>
    <s:alias val="$not"/>
    <s:alias val="$logic_not"/>
    <path d="M0,0 L0,20 L20,10 Z" class="cell_$not$.yosys_tmp/round_robin_arbiter.sv:14$43"/>
    <circle cx="23" cy="10" r="3" class="cell_$not$.yosys_tmp/round_robin_arbiter.sv:14$43"/>
    <g s:x="0" s:y="10" s:pid="A"/>
    <g s:x="25" s:y="10" s:pid="Y"/>
  </g>
  <g s:type="not" transform="translate(919,67)" s:width="30" s:height="20" id="cell_$not$.yosys_tmp/round_robin_arbiter.sv:16$46">
    <s:alias val="$_NOT_"/>
    <s:alias val="$not"/>
    <s:alias val="$logic_not"/>
    <path d="M0,0 L0,20 L20,10 Z" class="cell_$not$.yosys_tmp/round_robin_arbiter.sv:16$46"/>
    <circle cx="23" cy="10" r="3" class="cell_$not$.yosys_tmp/round_robin_arbiter.sv:16$46"/>
    <g s:x="0" s:y="10" s:pid="A"/>
    <g s:x="25" s:y="10" s:pid="Y"/>
  </g>
  <g s:type="not" transform="translate(1049,87)" s:width="30" s:height="20" id="cell_$not$.yosys_tmp/round_robin_arbiter.sv:16$49">
    <s:alias val="$_NOT_"/>
    <s:alias val="$not"/>
    <s:alias val="$logic_not"/>
    <path d="M0,0 L0,20 L20,10 Z" class="cell_$not$.yosys_tmp/round_robin_arbiter.sv:16$49"/>
    <circle cx="23" cy="10" r="3" class="cell_$not$.yosys_tmp/round_robin_arbiter.sv:16$49"/>
    <g s:x="0" s:y="10" s:pid="A"/>
    <g s:x="25" s:y="10" s:pid="Y"/>
  </g>
  <g s:type="not" transform="translate(124,439.5)" s:width="30" s:height="20" id="cell_$not$.yosys_tmp/round_robin_arbiter.sv:16$52">
    <s:alias val="$_NOT_"/>
    <s:alias val="$not"/>
    <s:alias val="$logic_not"/>
    <path d="M0,0 L0,20 L20,10 Z" class="cell_$not$.yosys_tmp/round_robin_arbiter.sv:16$52"/>
    <circle cx="23" cy="10" r="3" class="cell_$not$.yosys_tmp/round_robin_arbiter.sv:16$52"/>
    <g s:x="0" s:y="10" s:pid="A"/>
    <g s:x="25" s:y="10" s:pid="Y"/>
  </g>
  <g s:type="not" transform="translate(269,459.5)" s:width="30" s:height="20" id="cell_$not$.yosys_tmp/round_robin_arbiter.sv:16$55">
    <s:alias val="$_NOT_"/>
    <s:alias val="$not"/>
    <s:alias val="$logic_not"/>
    <path d="M0,0 L0,20 L20,10 Z" class="cell_$not$.yosys_tmp/round_robin_arbiter.sv:16$55"/>
    <circle cx="23" cy="10" r="3" class="cell_$not$.yosys_tmp/round_robin_arbiter.sv:16$55"/>
    <g s:x="0" s:y="10" s:pid="A"/>
    <g s:x="25" s:y="10" s:pid="Y"/>
  </g>
  <g s:type="not" transform="translate(399,479.5)" s:width="30" s:height="20" id="cell_$not$.yosys_tmp/round_robin_arbiter.sv:16$58">
    <s:alias val="$_NOT_"/>
    <s:alias val="$not"/>
    <s:alias val="$logic_not"/>
    <path d="M0,0 L0,20 L20,10 Z" class="cell_$not$.yosys_tmp/round_robin_arbiter.sv:16$58"/>
    <circle cx="23" cy="10" r="3" class="cell_$not$.yosys_tmp/round_robin_arbiter.sv:16$58"/>
    <g s:x="0" s:y="10" s:pid="A"/>
    <g s:x="25" s:y="10" s:pid="Y"/>
  </g>
  <g s:type="not" transform="translate(529,499.5)" s:width="30" s:height="20" id="cell_$not$.yosys_tmp/round_robin_arbiter.sv:16$61">
    <s:alias val="$_NOT_"/>
    <s:alias val="$not"/>
    <s:alias val="$logic_not"/>
    <path d="M0,0 L0,20 L20,10 Z" class="cell_$not$.yosys_tmp/round_robin_arbiter.sv:16$61"/>
    <circle cx="23" cy="10" r="3" class="cell_$not$.yosys_tmp/round_robin_arbiter.sv:16$61"/>
    <g s:x="0" s:y="10" s:pid="A"/>
    <g s:x="25" s:y="10" s:pid="Y"/>
  </g>
  <g s:type="not" transform="translate(659,539)" s:width="30" s:height="20" id="cell_$not$.yosys_tmp/round_robin_arbiter.sv:16$64">
    <s:alias val="$_NOT_"/>
    <s:alias val="$not"/>
    <s:alias val="$logic_not"/>
    <path d="M0,0 L0,20 L20,10 Z" class="cell_$not$.yosys_tmp/round_robin_arbiter.sv:16$64"/>
    <circle cx="23" cy="10" r="3" class="cell_$not$.yosys_tmp/round_robin_arbiter.sv:16$64"/>
    <g s:x="0" s:y="10" s:pid="A"/>
    <g s:x="25" s:y="10" s:pid="Y"/>
  </g>
  <g s:type="or" transform="translate(919,233.5)" s:width="30" s:height="25" id="cell_$or$.yosys_tmp/round_robin_arbiter.sv:14$45">
    <s:alias val="$or"/>
    <s:alias val="$logic_or"/>
    <s:alias val="$_OR_"/>
    <path d="M0,25 L0,25 L15,25 A15 12.5 0 0 0 15,0 L0,0" class="cell_$or$.yosys_tmp/round_robin_arbiter.sv:14$45"/>
    <path d="M0,0 A30 25 0 0 1 0,25" class="cell_$or$.yosys_tmp/round_robin_arbiter.sv:14$45"/>
    <g s:x="3" s:y="5" s:pid="A"/>
    <g s:x="3" s:y="20" s:pid="B"/>
    <g s:x="30" s:y="12.5" s:pid="Y"/>
  </g>
  <g s:type="or" transform="translate(1049,142)" s:width="30" s:height="25" id="cell_$or$.yosys_tmp/round_robin_arbiter.sv:16$48">
    <s:alias val="$or"/>
    <s:alias val="$logic_or"/>
    <s:alias val="$_OR_"/>
    <path d="M0,25 L0,25 L15,25 A15 12.5 0 0 0 15,0 L0,0" class="cell_$or$.yosys_tmp/round_robin_arbiter.sv:16$48"/>
    <path d="M0,0 A30 25 0 0 1 0,25" class="cell_$or$.yosys_tmp/round_robin_arbiter.sv:16$48"/>
    <g s:x="3" s:y="5" s:pid="A"/>
    <g s:x="3" s:y="20" s:pid="B"/>
    <g s:x="30" s:y="12.5" s:pid="Y"/>
  </g>
  <g s:type="or" transform="translate(1179,165.5)" s:width="30" s:height="25" id="cell_$or$.yosys_tmp/round_robin_arbiter.sv:16$51">
    <s:alias val="$or"/>
    <s:alias val="$logic_or"/>
    <s:alias val="$_OR_"/>
    <path d="M0,25 L0,25 L15,25 A15 12.5 0 0 0 15,0 L0,0" class="cell_$or$.yosys_tmp/round_robin_arbiter.sv:16$51"/>
    <path d="M0,0 A30 25 0 0 1 0,25" class="cell_$or$.yosys_tmp/round_robin_arbiter.sv:16$51"/>
    <g s:x="3" s:y="5" s:pid="A"/>
    <g s:x="3" s:y="20" s:pid="B"/>
    <g s:x="30" s:y="12.5" s:pid="Y"/>
  </g>
  <g s:type="or" transform="translate(269,331)" s:width="30" s:height="25" id="cell_$or$.yosys_tmp/round_robin_arbiter.sv:16$54">
    <s:alias val="$or"/>
    <s:alias val="$logic_or"/>
    <s:alias val="$_OR_"/>
    <path d="M0,25 L0,25 L15,25 A15 12.5 0 0 0 15,0 L0,0" class="cell_$or$.yosys_tmp/round_robin_arbiter.sv:16$54"/>
    <path d="M0,0 A30 25 0 0 1 0,25" class="cell_$or$.yosys_tmp/round_robin_arbiter.sv:16$54"/>
    <g s:x="3" s:y="5" s:pid="A"/>
    <g s:x="3" s:y="20" s:pid="B"/>
    <g s:x="30" s:y="12.5" s:pid="Y"/>
  </g>
  <g s:type="or" transform="translate(399,331)" s:width="30" s:height="25" id="cell_$or$.yosys_tmp/round_robin_arbiter.sv:16$57">
    <s:alias val="$or"/>
    <s:alias val="$logic_or"/>
    <s:alias val="$_OR_"/>
    <path d="M0,25 L0,25 L15,25 A15 12.5 0 0 0 15,0 L0,0" class="cell_$or$.yosys_tmp/round_robin_arbiter.sv:16$57"/>
    <path d="M0,0 A30 25 0 0 1 0,25" class="cell_$or$.yosys_tmp/round_robin_arbiter.sv:16$57"/>
    <g s:x="3" s:y="5" s:pid="A"/>
    <g s:x="3" s:y="20" s:pid="B"/>
    <g s:x="30" s:y="12.5" s:pid="Y"/>
  </g>
  <g s:type="or" transform="translate(529,331)" s:width="30" s:height="25" id="cell_$or$.yosys_tmp/round_robin_arbiter.sv:16$60">
    <s:alias val="$or"/>
    <s:alias val="$logic_or"/>
    <s:alias val="$_OR_"/>
    <path d="M0,25 L0,25 L15,25 A15 12.5 0 0 0 15,0 L0,0" class="cell_$or$.yosys_tmp/round_robin_arbiter.sv:16$60"/>
    <path d="M0,0 A30 25 0 0 1 0,25" class="cell_$or$.yosys_tmp/round_robin_arbiter.sv:16$60"/>
    <g s:x="3" s:y="5" s:pid="A"/>
    <g s:x="3" s:y="20" s:pid="B"/>
    <g s:x="30" s:y="12.5" s:pid="Y"/>
  </g>
  <g s:type="or" transform="translate(659,377)" s:width="30" s:height="25" id="cell_$or$.yosys_tmp/round_robin_arbiter.sv:16$63">
    <s:alias val="$or"/>
    <s:alias val="$logic_or"/>
    <s:alias val="$_OR_"/>
    <path d="M0,25 L0,25 L15,25 A15 12.5 0 0 0 15,0 L0,0" class="cell_$or$.yosys_tmp/round_robin_arbiter.sv:16$63"/>
    <path d="M0,0 A30 25 0 0 1 0,25" class="cell_$or$.yosys_tmp/round_robin_arbiter.sv:16$63"/>
    <g s:x="3" s:y="5" s:pid="A"/>
    <g s:x="3" s:y="20" s:pid="B"/>
    <g s:x="30" s:y="12.5" s:pid="Y"/>
  </g>
  <g s:type="or" transform="translate(789,521.5)" s:width="30" s:height="25" id="cell_$or$.yosys_tmp/round_robin_arbiter.sv:16$66">
    <s:alias val="$or"/>
    <s:alias val="$logic_or"/>
    <s:alias val="$_OR_"/>
    <path d="M0,25 L0,25 L15,25 A15 12.5 0 0 0 15,0 L0,0" class="cell_$or$.yosys_tmp/round_robin_arbiter.sv:16$66"/>
    <path d="M0,0 A30 25 0 0 1 0,25" class="cell_$or$.yosys_tmp/round_robin_arbiter.sv:16$66"/>
    <g s:x="3" s:y="5" s:pid="A"/>
    <g s:x="3" s:y="20" s:pid="B"/>
    <g s:x="30" s:y="12.5" s:pid="Y"/>
  </g>
  <g s:type="inputExt" transform="translate(12,559)" s:width="30" s:height="20" id="cell_a">
    <text x="15" y="-4" class="nodelabel cell_a" s:attribute="ref">a</text>
    <s:alias val="$_inputExt_"/>
    <path d="M0,0 L0,20 L15,20 L30,10 L15,0 Z" class="cell_a"/>
    <g s:x="28" s:y="10" s:pid="Y"/>
  </g>
  <g s:type="inputExt" transform="translate(124,253.5)" s:width="30" s:height="20" id="cell_p">
    <text x="15" y="-4" class="nodelabel cell_p" s:attribute="ref">p</text>
    <s:alias val="$_inputExt_"/>
    <path d="M0,0 L0,20 L15,20 L30,10 L15,0 Z" class="cell_p"/>
    <g s:x="28" s:y="10" s:pid="Y"/>
  </g>
  <g s:type="outputExt" transform="translate(1387,551.5)" s:width="30" s:height="20" id="cell_b">
    <text x="15" y="-4" class="nodelabel cell_b" s:attribute="ref">b</text>
    <s:alias val="$_outputExt_"/>
    <path d="M30,0 L30,20 L15,20 L0,10 L15,0 Z" class="cell_b"/>
    <g s:x="0" s:y="10" s:pid="A"/>
  </g>
  <g s:type="join" transform="translate(1279,24)" s:width="4" s:height="40" id="cell_$join$,26,47,44,41,38,35,32,29,">
    <rect width="5" height="160" class="splitjoinBody" s:generic="body"/>
    <s:alias val="$_join_"/>
    <g s:x="5" s:y="20" s:pid="out"/>
    <g transform="translate(0,10)" s:x="0" s:y="10" s:pid="in0">
      <text x="-3" y="-4" class="inputPortLabel">0</text>
    </g>
    <g transform="translate(0,30)" s:x="0" s:y="10" s:pid="in0">
      <text x="-3" y="-4" class="inputPortLabel">1</text>
    </g>
    <g transform="translate(0,50)" s:x="0" s:y="10" s:pid="in0">
      <text x="-3" y="-4" class="inputPortLabel">2</text>
    </g>
    <g transform="translate(0,70)" s:x="0" s:y="10" s:pid="in0">
      <text x="-3" y="-4" class="inputPortLabel">3</text>
    </g>
    <g transform="translate(0,90)" s:x="0" s:y="10" s:pid="in0">
      <text x="-3" y="-4" class="inputPortLabel">4</text>
    </g>
    <g transform="translate(0,110)" s:x="0" s:y="10" s:pid="in0">
      <text x="-3" y="-4" class="inputPortLabel">5</text>
    </g>
    <g transform="translate(0,130)" s:x="0" s:y="10" s:pid="in0">
      <text x="-3" y="-4" class="inputPortLabel">6</text>
    </g>
    <g transform="translate(0,150)" s:x="0" s:y="10" s:pid="in0">
      <text x="-3" y="-4" class="inputPortLabel">7</text>
    </g>
  </g>
  <g s:type="split" transform="translate(77,379)" s:width="5" s:height="40" id="cell_$split$,2,3,4,5,6,7,8,9,">
    <rect width="5" height="160" class="splitjoinBody" s:generic="body"/>
    <s:alias val="$_split_"/>
    <g s:x="0" s:y="20" s:pid="in"/>
    <g transform="translate(4,10)" s:x="4" s:y="10" s:pid="out0">
      <text x="5" y="-4">0</text>
    </g>
    <g transform="translate(4,30)" s:x="4" s:y="10" s:pid="out0">
      <text x="5" y="-4">7</text>
    </g>
    <g transform="translate(4,50)" s:x="4" s:y="10" s:pid="out0">
      <text x="5" y="-4">6</text>
    </g>
    <g transform="translate(4,70)" s:x="4" s:y="10" s:pid="out0">
      <text x="5" y="-4">5</text>
    </g>
    <g transform="translate(4,90)" s:x="4" s:y="10" s:pid="out0">
      <text x="5" y="-4">4</text>
    </g>
    <g transform="translate(4,110)" s:x="4" s:y="10" s:pid="out0">
      <text x="5" y="-4">3</text>
    </g>
    <g transform="translate(4,130)" s:x="4" s:y="10" s:pid="out0">
      <text x="5" y="-4">2</text>
    </g>
    <g transform="translate(4,150)" s:x="4" s:y="10" s:pid="out0">
      <text x="5" y="-4">1</text>
    </g>
  </g>
  <g s:type="split" transform="translate(205.42857142857142,243)" s:width="5" s:height="40" id="cell_$split$,10,11,12,13,14,15,16,17,">
    <rect width="5" height="160" class="splitjoinBody" s:generic="body"/>
    <s:alias val="$_split_"/>
    <g s:x="0" s:y="20" s:pid="in"/>
    <g transform="translate(4,10)" s:x="4" s:y="10" s:pid="out0">
      <text x="5" y="-4">0</text>
    </g>
    <g transform="translate(4,30)" s:x="4" s:y="10" s:pid="out0">
      <text x="5" y="-4">7</text>
    </g>
    <g transform="translate(4,50)" s:x="4" s:y="10" s:pid="out0">
      <text x="5" y="-4">6</text>
    </g>
    <g transform="translate(4,70)" s:x="4" s:y="10" s:pid="out0">
      <text x="5" y="-4">5</text>
    </g>
    <g transform="translate(4,90)" s:x="4" s:y="10" s:pid="out0">
      <text x="5" y="-4">4</text>
    </g>
    <g transform="translate(4,110)" s:x="4" s:y="10" s:pid="out0">
      <text x="5" y="-4">3</text>
    </g>
    <g transform="translate(4,130)" s:x="4" s:y="10" s:pid="out0">
      <text x="5" y="-4">2</text>
    </g>
    <g transform="translate(4,150)" s:x="4" s:y="10" s:pid="out0">
      <text x="5" y="-4">1</text>
    </g>
  </g>
  <line x1="819" x2="829" y1="534" y2="534" class="net_26"/>
  <line x1="829" x2="829" y1="534" y2="246" class="net_26"/>
  <circle cx="829" cy="534" r="2" style="fill:#000" class="net_26"/>
  <line x1="829" x2="854" y1="246" y2="246" class="net_26"/>
  <line x1="819" x2="1229" y1="534" y2="534" class="net_26"/>
  <line x1="1229" x2="1229" y1="534" y2="12" class="net_26"/>
  <line x1="1229" x2="1279.5" y1="12" y2="12" class="net_26"/>
  <line x1="1279.5" x2="1279.5" y1="12" y2="34" class="net_26"/>
  <line x1="814" x2="839" y1="57" y2="57" class="net_27"/>
  <line x1="839" x2="839" y1="57" y2="261" class="net_27"/>
  <line x1="839" x2="854" y1="261" y2="261" class="net_27"/>
  <line x1="949" x2="959" y1="246" y2="246" class="net_29"/>
  <line x1="959" x2="959" y1="246" y2="154.5" class="net_29"/>
  <circle cx="959" cy="246" r="2" style="fill:#000" class="net_29"/>
  <line x1="959" x2="984" y1="154.5" y2="154.5" class="net_29"/>
  <line x1="949" x2="1279.5" y1="246" y2="246" class="net_29"/>
  <line x1="1279.5" x2="1279.5" y1="246" y2="175" class="net_29"/>
  <line x1="944" x2="969" y1="77" y2="77" class="net_30"/>
  <line x1="969" x2="969" y1="77" y2="169.5" class="net_30"/>
  <line x1="969" x2="984" y1="169.5" y2="169.5" class="net_30"/>
  <line x1="1079" x2="1089" y1="154.5" y2="154.5" class="net_32"/>
  <line x1="1089" x2="1089" y1="154.5" y2="82" class="net_32"/>
  <circle cx="1089" cy="154.5" r="2" style="fill:#000" class="net_32"/>
  <line x1="1089" x2="1114" y1="82" y2="82" class="net_32"/>
  <line x1="1079" x2="1279" y1="154.5" y2="154.5" class="net_32"/>
  <line x1="1074" x2="1114" y1="97" y2="97" class="net_33"/>
  <line x1="1209" x2="1219" y1="178" y2="178" class="net_35"/>
  <line x1="1219" x2="1219" y1="178" y2="200.5" class="net_35"/>
  <line x1="1219" x2="164" y1="200.5" y2="200.5" class="net_35"/>
  <line x1="164" x2="164" y1="200.5" y2="434.5" class="net_35"/>
  <line x1="164" x2="189" y1="434.5" y2="434.5" class="net_35"/>
  <line x1="1209" x2="1219" y1="178" y2="178" class="net_35"/>
  <line x1="1219" x2="1219" y1="178" y2="134.5" class="net_35"/>
  <circle cx="1219" cy="178" r="2" style="fill:#000" class="net_35"/>
  <line x1="1219" x2="1279" y1="134.5" y2="134.5" class="net_35"/>
  <line x1="149" x2="189" y1="449.5" y2="449.5" class="net_36"/>
  <line x1="299" x2="334" y1="343.5" y2="343.5" class="net_38"/>
  <line x1="299" x2="309" y1="343.5" y2="343.5" class="net_38"/>
  <line x1="309" x2="309" y1="343.5" y2="309" class="net_38"/>
  <line x1="309" x2="1269" y1="309" y2="309" class="net_38"/>
  <line x1="1269" x2="1269" y1="309" y2="114.5" class="net_38"/>
  <circle cx="309" cy="343.5" r="2" style="fill:#000" class="net_38"/>
  <line x1="1269" x2="1279" y1="114.5" y2="114.5" class="net_38"/>
  <line x1="294" x2="309" y1="469.5" y2="469.5" class="net_39"/>
  <line x1="309" x2="309" y1="469.5" y2="358.5" class="net_39"/>
  <line x1="309" x2="334" y1="358.5" y2="358.5" class="net_39"/>
  <line x1="429" x2="464" y1="343.5" y2="343.5" class="net_41"/>
  <line x1="429" x2="439" y1="343.5" y2="343.5" class="net_41"/>
  <line x1="439" x2="439" y1="343.5" y2="320" class="net_41"/>
  <line x1="439" x2="1259" y1="320" y2="320" class="net_41"/>
  <line x1="1259" x2="1259" y1="320" y2="94.5" class="net_41"/>
  <circle cx="439" cy="343.5" r="2" style="fill:#000" class="net_41"/>
  <line x1="1259" x2="1279" y1="94.5" y2="94.5" class="net_41"/>
  <line x1="424" x2="439" y1="489.5" y2="489.5" class="net_42"/>
  <line x1="439" x2="439" y1="489.5" y2="358.5" class="net_42"/>
  <line x1="439" x2="464" y1="358.5" y2="358.5" class="net_42"/>
  <line x1="559" x2="569" y1="343.5" y2="343.5" class="net_44"/>
  <line x1="569" x2="569" y1="343.5" y2="389.5" class="net_44"/>
  <circle cx="569" cy="343.5" r="2" style="fill:#000" class="net_44"/>
  <line x1="569" x2="594" y1="389.5" y2="389.5" class="net_44"/>
  <line x1="559" x2="1249" y1="343.5" y2="343.5" class="net_44"/>
  <line x1="1249" x2="1249" y1="343.5" y2="74.5" class="net_44"/>
  <line x1="1249" x2="1279" y1="74.5" y2="74.5" class="net_44"/>
  <line x1="554" x2="569" y1="509.5" y2="509.5" class="net_45"/>
  <line x1="569" x2="569" y1="509.5" y2="404.5" class="net_45"/>
  <line x1="569" x2="594" y1="404.5" y2="404.5" class="net_45"/>
  <line x1="689" x2="699" y1="389.5" y2="389.5" class="net_47"/>
  <line x1="699" x2="699" y1="389.5" y2="534" class="net_47"/>
  <circle cx="699" cy="389.5" r="2" style="fill:#000" class="net_47"/>
  <line x1="699" x2="724" y1="534" y2="534" class="net_47"/>
  <line x1="689" x2="1239" y1="389.5" y2="389.5" class="net_47"/>
  <line x1="1239" x2="1239" y1="389.5" y2="54.5" class="net_47"/>
  <line x1="1239" x2="1279" y1="54.5" y2="54.5" class="net_47"/>
  <line x1="684" x2="724" y1="549" y2="549" class="net_48"/>
  <line x1="1285" x2="1297" y1="44.5" y2="44.5" class="net_26,47,44,41,38,35,32,29"/>
  <line x1="1297" x2="1297" y1="44.5" y2="554" class="net_26,47,44,41,38,35,32,29"/>
  <line x1="1297" x2="1322" y1="554" y2="554" class="net_26,47,44,41,38,35,32,29"/>
  <line x1="40" x2="1322" y1="569" y2="569" class="net_2,3,4,5,6,7,8,9"/>
  <line x1="40" x2="52" y1="569" y2="569" class="net_2,3,4,5,6,7,8,9"/>
  <line x1="52" x2="52" y1="569" y2="399.5" class="net_2,3,4,5,6,7,8,9"/>
  <circle cx="52" cy="569" r="2" style="fill:#000" class="net_2,3,4,5,6,7,8,9"/>
  <line x1="52" x2="77" y1="399.5" y2="399.5" class="net_2,3,4,5,6,7,8,9"/>
  <line x1="81.5" x2="81.5" y1="389" y2="57" class="net_2"/>
  <line x1="81.5" x2="789" y1="57" y2="57" class="net_2"/>
  <line x1="82" x2="99" y1="409.5" y2="409.5" class="net_9"/>
  <line x1="99" x2="99" y1="409.5" y2="77" class="net_9"/>
  <line x1="99" x2="919" y1="77" y2="77" class="net_9"/>
  <line x1="82" x2="109" y1="429.5" y2="429.5" class="net_8"/>
  <line x1="109" x2="109" y1="429.5" y2="97" class="net_8"/>
  <line x1="109" x2="1049" y1="97" y2="97" class="net_8"/>
  <line x1="82" x2="124" y1="449.5" y2="449.5" class="net_7"/>
  <line x1="82" x2="269" y1="469.5" y2="469.5" class="net_6"/>
  <line x1="82" x2="399" y1="489.5" y2="489.5" class="net_5"/>
  <line x1="82" x2="529" y1="509.5" y2="509.5" class="net_4"/>
  <line x1="81.5" x2="81.5" y1="530" y2="549" class="net_3"/>
  <line x1="81.5" x2="659" y1="549" y2="549" class="net_3"/>
  <line x1="209.92857142857142" x2="209.92857142857142" y1="253" y2="211.5" class="net_10"/>
  <line x1="209.92857142857142" x2="894" y1="211.5" y2="211.5" class="net_10"/>
  <line x1="894" x2="894" y1="211.5" y2="238.5" class="net_10"/>
  <line x1="894" x2="922" y1="238.5" y2="238.5" class="net_10"/>
  <line x1="884" x2="922" y1="253.5" y2="253.5" class="net_28"/>
  <line x1="210.42857142857142" x2="229" y1="273.5" y2="273.5" class="net_17"/>
  <line x1="229" x2="229" y1="273.5" y2="222.5" class="net_17"/>
  <line x1="229" x2="1024" y1="222.5" y2="222.5" class="net_17"/>
  <line x1="1024" x2="1024" y1="222.5" y2="147" class="net_17"/>
  <line x1="1024" x2="1052" y1="147" y2="147" class="net_17"/>
  <line x1="1014" x2="1052" y1="162" y2="162" class="net_31"/>
  <line x1="210.42857142857142" x2="229" y1="293.5" y2="293.5" class="net_16"/>
  <line x1="229" x2="229" y1="293.5" y2="276" class="net_16"/>
  <line x1="229" x2="1154" y1="276" y2="276" class="net_16"/>
  <line x1="1154" x2="1154" y1="276" y2="170.5" class="net_16"/>
  <line x1="1154" x2="1182" y1="170.5" y2="170.5" class="net_16"/>
  <line x1="1144" x2="1164" y1="89.5" y2="89.5" class="net_34"/>
  <line x1="1164" x2="1164" y1="89.5" y2="185.5" class="net_34"/>
  <line x1="1164" x2="1182" y1="185.5" y2="185.5" class="net_34"/>
  <line x1="210.42857142857142" x2="259" y1="313.5" y2="313.5" class="net_15"/>
  <line x1="259" x2="259" y1="313.5" y2="336" class="net_15"/>
  <line x1="259" x2="272" y1="336" y2="336" class="net_15"/>
  <line x1="219" x2="259" y1="442" y2="442" class="net_37"/>
  <line x1="259" x2="259" y1="442" y2="351" class="net_37"/>
  <line x1="259" x2="272" y1="351" y2="351" class="net_37"/>
  <line x1="210.42857142857142" x2="239" y1="333.5" y2="333.5" class="net_14"/>
  <line x1="239" x2="239" y1="333.5" y2="287" class="net_14"/>
  <line x1="239" x2="374" y1="287" y2="287" class="net_14"/>
  <line x1="374" x2="374" y1="287" y2="336" class="net_14"/>
  <line x1="374" x2="402" y1="336" y2="336" class="net_14"/>
  <line x1="364" x2="402" y1="351" y2="351" class="net_40"/>
  <line x1="210.42857142857142" x2="249" y1="353.5" y2="353.5" class="net_13"/>
  <line x1="249" x2="249" y1="353.5" y2="298" class="net_13"/>
  <line x1="249" x2="504" y1="298" y2="298" class="net_13"/>
  <line x1="504" x2="504" y1="298" y2="336" class="net_13"/>
  <line x1="504" x2="532" y1="336" y2="336" class="net_13"/>
  <line x1="494" x2="532" y1="351" y2="351" class="net_43"/>
  <line x1="210.42857142857142" x2="634" y1="373.5" y2="373.5" class="net_12"/>
  <line x1="634" x2="634" y1="373.5" y2="382" class="net_12"/>
  <line x1="634" x2="662" y1="382" y2="382" class="net_12"/>
  <line x1="624" x2="662" y1="397" y2="397" class="net_46"/>
  <line x1="209.92857142857142" x2="209.92857142857142" y1="394" y2="419.5" class="net_11"/>
  <line x1="209.92857142857142" x2="764" y1="419.5" y2="419.5" class="net_11"/>
  <line x1="764" x2="764" y1="419.5" y2="526.5" class="net_11"/>
  <line x1="764" x2="792" y1="526.5" y2="526.5" class="net_11"/>
  <line x1="754" x2="792" y1="541.5" y2="541.5" class="net_49"/>
  <line x1="1352" x2="1387" y1="561.5" y2="561.5" class="net_18,19,20,21,22,23,24,25"/>
  <line x1="152" x2="205.42857142857142" y1="263.5" y2="263.5" class="net_10,11,12,13,14,15,16,17"/>
</svg>
