<svg style="background:white" xmlns="http://www.w3.org/2000/svg" xmlns:xlink="http://www.w3.org/1999/xlink" xmlns:s="https://github.com/nturley/netlistsvg" width="519" height="735">
  <style>svg {
    stroke:#000;
    fill:none;
  }
  text {
    fill:#000;
    stroke:none;
    font-size:10px;
    font-weight: bold;
    font-family: "Courier New", monospace;
  }
  .nodelabel {
    text-anchor: middle;
  }
  .inputPortLabel {
    text-anchor: end;
  }
  .splitjoinBody {
    fill:#000;
  }</style>
  <g s:type="and" transform="translate(341.6666666666667,375.5)" s:width="30" s:height="25" id="cell_$logic_and$.yosys_tmp/handshake_sender.sv:35$4">
    <s:alias val="$and"/>
    <s:alias val="$logic_and"/>
    <s:alias val="$_AND_"/>
    <path d="M0,0 L0,25 L15,25 A15 12.5 0 0 0 15,0 Z" class="cell_$logic_and$.yosys_tmp/handshake_sender.sv:35$4"/>
    <g s:x="0" s:y="5" s:pid="A"/>
    <g s:x="0" s:y="20" s:pid="B"/>
    <g s:x="30" s:y="12.5" s:pid="Y"/>
  </g>
  <g s:type="generic" transform="translate(338,43)" s:width="30" s:height="40" id="cell_$procdff$47">
    <text x="15" y="-4" class="nodelabel cell_$procdff$47" s:attribute="ref">$adff</text>
    <rect width="30" height="60" s:generic="body" class="cell_$procdff$47"/>
    <g transform="translate(0,10)" s:x="0" s:y="10" s:pid="in0" id="port_$procdff$47~ARST">
      <text x="-3" y="-4" class="inputPortLabel cell_$procdff$47">ARST</text>
    </g>
    <g transform="translate(0,30)" s:x="0" s:y="10" s:pid="in0" id="port_$procdff$47~CLK">
      <text x="-3" y="-4" class="inputPortLabel cell_$procdff$47">CLK</text>
    </g>
    <g transform="translate(0,50)" s:x="0" s:y="10" s:pid="in0" id="port_$procdff$47~D">
      <text x="-3" y="-4" class="inputPortLabel cell_$procdff$47">D</text>
    </g>
    <g transform="translate(30,10)" s:x="30" s:y="10" s:pid="out0" id="port_$procdff$47~Q">
      <text x="5" y="-4" style="fill:#000; stroke:none" class="cell_$procdff$47">Q</text>
    </g>
  </g>
  <g s:type="generic" transform="translate(107,370)" s:width="30" s:height="40" id="cell_$procdff$52">
    <text x="15" y="-4" class="nodelabel cell_$procdff$52" s:attribute="ref">$adff</text>
    <rect width="30" height="60" s:generic="body" class="cell_$procdff$52"/>
    <g transform="translate(0,10)" s:x="0" s:y="10" s:pid="in0" id="port_$procdff$52~ARST">
      <text x="-3" y="-4" class="inputPortLabel cell_$procdff$52">ARST</text>
    </g>
    <g transform="translate(0,30)" s:x="0" s:y="10" s:pid="in0" id="port_$procdff$52~CLK">
      <text x="-3" y="-4" class="inputPortLabel cell_$procdff$52">CLK</text>
    </g>
    <g transform="translate(0,50)" s:x="0" s:y="10" s:pid="in0" id="port_$procdff$52~D">
      <text x="-3" y="-4" class="inputPortLabel cell_$procdff$52">D</text>
    </g>
    <g transform="translate(30,10)" s:x="30" s:y="10" s:pid="out0" id="port_$procdff$52~Q">
      <text x="5" y="-4" style="fill:#000; stroke:none" class="cell_$procdff$52">Q</text>
    </g>
  </g>
  <g s:type="mux" transform="translate(236.33333333333334,310.5)" s:width="20" s:height="40" id="cell_$procmux$20">
    <s:alias val="$pmux"/>
    <s:alias val="$mux"/>
    <s:alias val="$_MUX_"/>
    <path d="M0,0 L20,10 L20,30 L0,40 Z" class="cell_$procmux$20"/>
    <g s:x="0" s:y="10" s:pid="A"/>
    <g s:x="0" s:y="30" s:pid="B"/>
    <g s:x="10" s:y="35" s:pid="S"/>
    <g s:x="20" s:y="20" s:pid="Y"/>
  </g>
  <g s:type="mux" transform="translate(236.33333333333334,491)" s:width="20" s:height="40" id="cell_$procmux$28">
    <s:alias val="$pmux"/>
    <s:alias val="$mux"/>
    <s:alias val="$_MUX_"/>
    <path d="M0,0 L20,10 L20,30 L0,40 Z" class="cell_$procmux$28"/>
    <g s:x="0" s:y="10" s:pid="A"/>
    <g s:x="0" s:y="30" s:pid="B"/>
    <g s:x="10" s:y="35" s:pid="S"/>
    <g s:x="20" s:y="20" s:pid="Y"/>
  </g>
  <g s:type="mux" transform="translate(439,491)" s:width="20" s:height="40" id="cell_$procmux$34">
    <s:alias val="$pmux"/>
    <s:alias val="$mux"/>
    <s:alias val="$_MUX_"/>
    <path d="M0,0 L20,10 L20,30 L0,40 Z" class="cell_$procmux$34"/>
    <g s:x="0" s:y="10" s:pid="A"/>
    <g s:x="0" s:y="30" s:pid="B"/>
    <g s:x="10" s:y="35" s:pid="S"/>
    <g s:x="20" s:y="20" s:pid="Y"/>
  </g>
  <g s:type="not" transform="translate(233,370.5)" s:width="30" s:height="20" id="cell_$procmux$36_CMP0">
    <s:alias val="$_NOT_"/>
    <s:alias val="$not"/>
    <s:alias val="$logic_not"/>
    <path d="M0,0 L0,20 L20,10 Z" class="cell_$procmux$36_CMP0"/>
    <circle cx="23" cy="10" r="3" class="cell_$procmux$36_CMP0"/>
    <g s:x="0" s:y="10" s:pid="A"/>
    <g s:x="25" s:y="10" s:pid="Y"/>
  </g>
  <g s:type="mux" transform="translate(345,673)" s:width="20" s:height="40" id="cell_$procmux$39">
    <s:alias val="$pmux"/>
    <s:alias val="$mux"/>
    <s:alias val="$_MUX_"/>
    <path d="M0,0 L20,10 L20,30 L0,40 Z" class="cell_$procmux$39"/>
    <g s:x="0" s:y="10" s:pid="A"/>
    <g s:x="0" s:y="30" s:pid="B"/>
    <g s:x="10" s:y="35" s:pid="S"/>
    <g s:x="20" s:y="20" s:pid="Y"/>
  </g>
  <g s:type="eq" transform="translate(234.66666666666666,596)" s:width="25" s:height="25" id="cell_$procmux$40_CMP0">
    <s:alias val="$eq"/>
    <circle r="12.5" cx="12.5" cy="12.5" class="cell_$procmux$40_CMP0"/>
    <line x1="7.5" x2="17.5" y1="10" y2="10" class="cell_$procmux$40_CMP0"/>
    <line x1="7.5" x2="17.5" y1="15" y2="15" class="cell_$procmux$40_CMP0"/>
    <g s:x="3" s:y="5" s:pid="A"/>
    <g s:x="3" s:y="20" s:pid="B"/>
    <g s:x="25" s:y="12.5" s:pid="Y"/>
  </g>
  <g s:type="mux" transform="translate(439,300.5)" s:width="20" s:height="40" id="cell_$procmux$41">
    <s:alias val="$pmux"/>
    <s:alias val="$mux"/>
    <s:alias val="$_MUX_"/>
    <path d="M0,0 L20,10 L20,30 L0,40 Z" class="cell_$procmux$41"/>
    <g s:x="0" s:y="10" s:pid="A"/>
    <g s:x="0" s:y="30" s:pid="B"/>
    <g s:x="10" s:y="35" s:pid="S"/>
    <g s:x="20" s:y="20" s:pid="Y"/>
  </g>
  <g s:type="inputExt" transform="translate(12,390.5)" s:width="30" s:height="20" id="cell_clk">
    <text x="15" y="-4" class="nodelabel cell_clk" s:attribute="ref">clk</text>
    <s:alias val="$_inputExt_"/>
    <path d="M0,0 L0,20 L15,20 L30,10 L15,0 Z" class="cell_clk"/>
    <g s:x="28" s:y="10" s:pid="Y"/>
  </g>
  <g s:type="inputExt" transform="translate(12,43.5)" s:width="30" s:height="20" id="cell_rst_n">
    <text x="15" y="-4" class="nodelabel cell_rst_n" s:attribute="ref">rst_n</text>
    <s:alias val="$_inputExt_"/>
    <path d="M0,0 L0,20 L15,20 L30,10 L15,0 Z" class="cell_rst_n"/>
    <g s:x="28" s:y="10" s:pid="Y"/>
  </g>
  <g s:type="inputExt" transform="translate(107,289.5)" s:width="30" s:height="20" id="cell_send">
    <text x="15" y="-4" class="nodelabel cell_send" s:attribute="ref">send</text>
    <s:alias val="$_inputExt_"/>
    <path d="M0,0 L0,20 L15,20 L30,10 L15,0 Z" class="cell_send"/>
    <g s:x="28" s:y="10" s:pid="Y"/>
  </g>
  <g s:type="inputExt" transform="translate(107,224.5)" s:width="30" s:height="20" id="cell_ready">
    <text x="15" y="-4" class="nodelabel cell_ready" s:attribute="ref">ready</text>
    <s:alias val="$_inputExt_"/>
    <path d="M0,0 L0,20 L15,20 L30,10 L15,0 Z" class="cell_ready"/>
    <g s:x="28" s:y="10" s:pid="Y"/>
  </g>
  <g s:type="inputExt" transform="translate(338,320.5)" s:width="30" s:height="20" id="cell_data_in">
    <text x="15" y="-4" class="nodelabel cell_data_in" s:attribute="ref">data_in</text>
    <s:alias val="$_inputExt_"/>
    <path d="M0,0 L0,20 L15,20 L30,10 L15,0 Z" class="cell_data_in"/>
    <g s:x="28" s:y="10" s:pid="Y"/>
  </g>
  <g s:type="outputExt" transform="translate(439,43.5)" s:width="30" s:height="20" id="cell_data_out">
    <text x="15" y="-4" class="nodelabel cell_data_out" s:attribute="ref">data_out</text>
    <s:alias val="$_outputExt_"/>
    <path d="M30,0 L30,20 L15,20 L0,10 L15,0 Z" class="cell_data_out"/>
    <g s:x="0" s:y="10" s:pid="A"/>
  </g>
  <g s:type="outputExt" transform="translate(439,683)" s:width="30" s:height="20" id="cell_valid">
    <text x="15" y="-4" class="nodelabel cell_valid" s:attribute="ref">valid</text>
    <s:alias val="$_outputExt_"/>
    <path d="M30,0 L30,20 L15,20 L0,10 L15,0 Z" class="cell_valid"/>
    <g s:x="0" s:y="10" s:pid="A"/>
  </g>
  <g s:type="constant" transform="translate(107,94.5)" s:width="30" s:height="20" id="cell_01">
    <text x="15" y="-4" class="nodelabel cell_01" s:attribute="ref">01</text>
    <s:alias val="$_constant_"/>
    <rect width="30" height="20" class="cell_01"/>
    <g s:x="30" s:y="10" s:pid="Y"/>
  </g>
  <g s:type="constant" transform="translate(107,159.5)" s:width="30" s:height="20" id="cell_10">
    <text x="15" y="-4" class="nodelabel cell_10" s:attribute="ref">10</text>
    <s:alias val="$_constant_"/>
    <rect width="30" height="20" class="cell_10"/>
    <g s:x="30" s:y="10" s:pid="Y"/>
  </g>
  <g s:type="constant" transform="translate(107,541)" s:width="30" s:height="20" id="cell_0">
    <text x="15" y="-4" class="nodelabel cell_0" s:attribute="ref">0</text>
    <s:alias val="$_constant_"/>
    <rect width="30" height="20" class="cell_0"/>
    <g s:x="30" s:y="10" s:pid="Y"/>
  </g>
  <g s:type="constant" transform="translate(107,606)" s:width="30" s:height="20" id="cell_1">
    <text x="15" y="-4" class="nodelabel cell_1" s:attribute="ref">1</text>
    <s:alias val="$_constant_"/>
    <rect width="30" height="20" class="cell_1"/>
    <g s:x="30" s:y="10" s:pid="Y"/>
  </g>
  <g s:type="constant" transform="translate(338,445.5)" s:width="30" s:height="20" id="cell_00">
    <text x="15" y="-4" class="nodelabel cell_00" s:attribute="ref">00</text>
    <s:alias val="$_constant_"/>
    <rect width="30" height="20" class="cell_00"/>
    <g s:x="30" s:y="10" s:pid="Y"/>
  </g>
  <g s:type="join" transform="translate(347.25,500.5)" s:width="4" s:height="40" id="cell_$join$,37,38,39,45,">
    <rect width="5" height="60" class="splitjoinBody" s:generic="body"/>
    <s:alias val="$_join_"/>
    <g s:x="5" s:y="20" s:pid="out"/>
    <g transform="translate(0,10)" s:x="0" s:y="10" s:pid="in0">
      <text x="-3" y="-4" class="inputPortLabel">0:1</text>
    </g>
    <g transform="translate(0,30)" s:x="0" s:y="10" s:pid="in0">
      <text x="-3" y="-4" class="inputPortLabel">2</text>
    </g>
    <g transform="translate(0,50)" s:x="0" s:y="10" s:pid="in0">
      <text x="-3" y="-4" class="inputPortLabel">3</text>
    </g>
  </g>
  <g s:type="join" transform="translate(350.3333333333333,598)" s:width="4" s:height="40" id="cell_$join$,40,23,">
    <rect width="5" height="40" class="splitjoinBody" s:generic="body"/>
    <s:alias val="$_join_"/>
    <g s:x="5" s:y="20" s:pid="out"/>
    <g transform="translate(0,10)" s:x="0" s:y="10" s:pid="in0">
      <text x="-3" y="-4" class="inputPortLabel">0</text>
    </g>
    <g transform="translate(0,30)" s:x="0" s:y="10" s:pid="in0">
      <text x="-3" y="-4" class="inputPortLabel">1</text>
    </g>
  </g>
  <line x1="258" x2="341.6666666666667" y1="380.5" y2="380.5" class="net_23"/>
  <line x1="258" x2="283" y1="380.5" y2="380.5" class="net_23"/>
  <line x1="283" x2="283" y1="380.5" y2="628.5" class="net_23"/>
  <circle cx="283" cy="380.5" r="2" style="fill:#000" class="net_23"/>
  <line x1="283" x2="350.3333333333333" y1="628.5" y2="628.5" class="net_23"/>
  <line x1="135" x2="303" y1="299.5" y2="299.5" class="net_4"/>
  <line x1="303" x2="303" y1="299.5" y2="395.5" class="net_4"/>
  <line x1="303" x2="341.6666666666667" y1="395.5" y2="395.5" class="net_4"/>
  <line x1="135" x2="193" y1="299.5" y2="299.5" class="net_4"/>
  <line x1="193" x2="193" y1="299.5" y2="541" class="net_4"/>
  <line x1="193" x2="246.33333333333334" y1="541" y2="541" class="net_4"/>
  <circle cx="193" cy="299.5" r="2" style="fill:#000" class="net_4"/>
  <line x1="246.33333333333334" x2="246.33333333333334" y1="541" y2="526" class="net_4"/>
  <line x1="40" x2="338" y1="53.5" y2="53.5" class="net_3"/>
  <line x1="40" x2="72" y1="53.5" y2="53.5" class="net_3"/>
  <line x1="72" x2="72" y1="53.5" y2="380.5" class="net_3"/>
  <circle cx="72" cy="53.5" r="2" style="fill:#000" class="net_3"/>
  <line x1="72" x2="107" y1="380.5" y2="380.5" class="net_3"/>
  <line x1="40" x2="62" y1="400.5" y2="400.5" class="net_2"/>
  <line x1="62" x2="62" y1="400.5" y2="73.5" class="net_2"/>
  <circle cx="62" cy="400.5" r="2" style="fill:#000" class="net_2"/>
  <line x1="62" x2="338" y1="73.5" y2="73.5" class="net_2"/>
  <line x1="40" x2="107" y1="400.5" y2="400.5" class="net_2"/>
  <line x1="459" x2="497" y1="320.5" y2="320.5" class="net_25,26,27,28,29,30,31,32"/>
  <line x1="497" x2="497" y1="320.5" y2="23" class="net_25,26,27,28,29,30,31,32"/>
  <line x1="497" x2="303" y1="23" y2="23" class="net_25,26,27,28,29,30,31,32"/>
  <line x1="303" x2="303" y1="23" y2="93.5" class="net_25,26,27,28,29,30,31,32"/>
  <line x1="303" x2="338" y1="93.5" y2="93.5" class="net_25,26,27,28,29,30,31,32"/>
  <line x1="459" x2="507" y1="511" y2="511" class="net_33,34"/>
  <line x1="507" x2="507" y1="511" y2="12" class="net_33,34"/>
  <line x1="507" x2="52" y1="12" y2="12" class="net_33,34"/>
  <line x1="52" x2="52" y1="12" y2="420.5" class="net_33,34"/>
  <line x1="52" x2="107" y1="420.5" y2="420.5" class="net_33,34"/>
  <line x1="137" x2="223" y1="104.5" y2="104.5" class="net_41,42"/>
  <line x1="223" x2="223" y1="104.5" y2="320.5" class="net_41,42"/>
  <line x1="223" x2="236.33333333333334" y1="320.5" y2="320.5" class="net_41,42"/>
  <line x1="137" x2="213" y1="169.5" y2="169.5" class="net_43,44"/>
  <line x1="213" x2="213" y1="169.5" y2="340.5" class="net_43,44"/>
  <line x1="213" x2="236.33333333333334" y1="340.5" y2="340.5" class="net_43,44"/>
  <line x1="135" x2="203" y1="234.5" y2="234.5" class="net_5"/>
  <line x1="203" x2="203" y1="234.5" y2="360.5" class="net_5"/>
  <line x1="203" x2="246.33333333333334" y1="360.5" y2="360.5" class="net_5"/>
  <line x1="246.33333333333334" x2="246.33333333333334" y1="360.5" y2="345.5" class="net_5"/>
  <line x1="137" x2="213" y1="551" y2="551" class="net_45"/>
  <line x1="213" x2="213" y1="551" y2="501" class="net_45"/>
  <circle cx="213" cy="551" r="2" style="fill:#000" class="net_45"/>
  <line x1="213" x2="236.33333333333334" y1="501" y2="501" class="net_45"/>
  <line x1="137" x2="213" y1="551" y2="551" class="net_45"/>
  <line x1="213" x2="213" y1="551" y2="683" class="net_45"/>
  <line x1="213" x2="345" y1="683" y2="683" class="net_45"/>
  <line x1="137" x2="347.25" y1="551" y2="551" class="net_45"/>
  <line x1="137" x2="203" y1="616" y2="616" class="net_46"/>
  <line x1="203" x2="203" y1="616" y2="521" class="net_46"/>
  <circle cx="203" cy="616" r="2" style="fill:#000" class="net_46"/>
  <line x1="203" x2="236.33333333333334" y1="521" y2="521" class="net_46"/>
  <line x1="137" x2="203" y1="616" y2="616" class="net_46"/>
  <line x1="203" x2="203" y1="616" y2="703" class="net_46"/>
  <line x1="203" x2="345" y1="703" y2="703" class="net_46"/>
  <line x1="137" x2="237.66666666666666" y1="616" y2="616" class="net_46"/>
  <line x1="368" x2="414" y1="455.5" y2="455.5" class="net_47,48"/>
  <line x1="414" x2="414" y1="455.5" y2="501" class="net_47,48"/>
  <line x1="414" x2="439" y1="501" y2="501" class="net_47,48"/>
  <line x1="353.25" x2="439" y1="521" y2="521" class="net_37,38,39,45"/>
  <line x1="356.3333333333333" x2="449" y1="618.5" y2="618.5" class="net_40,23"/>
  <line x1="449" x2="449" y1="618.5" y2="526" class="net_40,23"/>
  <line x1="138" x2="233" y1="380.5" y2="380.5" class="net_35,36"/>
  <line x1="138" x2="183" y1="380.5" y2="380.5" class="net_35,36"/>
  <line x1="183" x2="183" y1="380.5" y2="601" class="net_35,36"/>
  <circle cx="183" cy="380.5" r="2" style="fill:#000" class="net_35,36"/>
  <line x1="183" x2="237.66666666666666" y1="601" y2="601" class="net_35,36"/>
  <line x1="259.66666666666663" x2="273" y1="608.5" y2="608.5" class="net_40"/>
  <line x1="273" x2="273" y1="608.5" y2="723" class="net_40"/>
  <line x1="273" x2="355" y1="723" y2="723" class="net_40"/>
  <circle cx="273" cy="608.5" r="2" style="fill:#000" class="net_40"/>
  <line x1="355" x2="355" y1="723" y2="708" class="net_40"/>
  <line x1="259.66666666666663" x2="350.3333333333333" y1="608.5" y2="608.5" class="net_40"/>
  <line x1="369" x2="414" y1="53.5" y2="53.5" class="net_14,15,16,17,18,19,20,21"/>
  <line x1="414" x2="414" y1="53.5" y2="310.5" class="net_14,15,16,17,18,19,20,21"/>
  <circle cx="414" cy="53.5" r="2" style="fill:#000" class="net_14,15,16,17,18,19,20,21"/>
  <line x1="414" x2="439" y1="310.5" y2="310.5" class="net_14,15,16,17,18,19,20,21"/>
  <line x1="369" x2="439" y1="53.5" y2="53.5" class="net_14,15,16,17,18,19,20,21"/>
  <line x1="366" x2="439" y1="330.5" y2="330.5" class="net_6,7,8,9,10,11,12,13"/>
  <line x1="371.6666666666667" x2="449" y1="388" y2="388" class="net_24"/>
  <line x1="449" x2="449" y1="388" y2="335.5" class="net_24"/>
  <line x1="365" x2="439" y1="693" y2="693" class="net_22"/>
  <line x1="256.33333333333337" x2="293" y1="330.5" y2="330.5" class="net_37,38"/>
  <line x1="293" x2="293" y1="330.5" y2="511" class="net_37,38"/>
  <line x1="293" x2="347.25" y1="511" y2="511" class="net_37,38"/>
  <line x1="256.33333333333337" x2="273" y1="511" y2="511" class="net_39"/>
  <line x1="273" x2="273" y1="511" y2="531" class="net_39"/>
  <line x1="273" x2="347.25" y1="531" y2="531" class="net_39"/>
</svg>
