<svg style="background:white" xmlns="http://www.w3.org/2000/svg" xmlns:xlink="http://www.w3.org/1999/xlink" xmlns:s="https://github.com/nturley/netlistsvg" width="333" height="315">
  <style>svg {
    stroke:#000;
    fill:none;
  }
  text {
    fill:#000;
    stroke:none;
    font-size:10px;
    font-weight: bold;
    font-family: "Courier New", monospace;
  }
  .nodelabel {
    text-anchor: middle;
  }
  .inputPortLabel {
    text-anchor: end;
  }
  .splitjoinBody {
    fill:#000;
  }</style>
  <g s:type="not" transform="translate(83,218)" s:width="30" s:height="20" id="cell_$logic_not$.yosys_tmp/dff.sv:11$2">
    <s:alias val="$_NOT_"/>
    <s:alias val="$not"/>
    <s:alias val="$logic_not"/>
    <path d="M0,0 L0,20 L20,10 Z" class="cell_$logic_not$.yosys_tmp/dff.sv:11$2"/>
    <circle cx="23" cy="10" r="3" class="cell_$logic_not$.yosys_tmp/dff.sv:11$2"/>
    <g s:x="0" s:y="10" s:pid="A"/>
    <g s:x="25" s:y="10" s:pid="Y"/>
  </g>
  <g s:type="generic" transform="translate(190,37.5)" s:width="30" s:height="40" id="cell_$procdff$23">
    <text x="15" y="-4" class="nodelabel cell_$procdff$23" s:attribute="ref">$aldff</text>
    <rect width="30" height="80" s:generic="body" class="cell_$procdff$23"/>
    <g transform="translate(0,10)" s:x="0" s:y="10" s:pid="in0" id="port_$procdff$23~AD">
      <text x="-3" y="-4" class="inputPortLabel cell_$procdff$23">AD</text>
    </g>
    <g transform="translate(0,30)" s:x="0" s:y="10" s:pid="in0" id="port_$procdff$23~ALOAD">
      <text x="-3" y="-4" class="inputPortLabel cell_$procdff$23">ALOAD</text>
    </g>
    <g transform="translate(0,50)" s:x="0" s:y="10" s:pid="in0" id="port_$procdff$23~CLK">
      <text x="-3" y="-4" class="inputPortLabel cell_$procdff$23">CLK</text>
    </g>
    <g transform="translate(0,70)" s:x="0" s:y="10" s:pid="in0" id="port_$procdff$23~D">
      <text x="-3" y="-4" class="inputPortLabel cell_$procdff$23">D</text>
    </g>
    <g transform="translate(30,10)" s:x="30" s:y="10" s:pid="out0" id="port_$procdff$23~Q">
      <text x="5" y="-4" style="fill:#000; stroke:none" class="cell_$procdff$23">Q</text>
    </g>
  </g>
  <g s:type="generic" transform="translate(190,217.5)" s:width="30" s:height="40" id="cell_$procdff$28">
    <text x="15" y="-4" class="nodelabel cell_$procdff$28" s:attribute="ref">$aldff</text>
    <rect width="30" height="80" s:generic="body" class="cell_$procdff$28"/>
    <g transform="translate(0,10)" s:x="0" s:y="10" s:pid="in0" id="port_$procdff$28~AD">
      <text x="-3" y="-4" class="inputPortLabel cell_$procdff$28">AD</text>
    </g>
    <g transform="translate(0,30)" s:x="0" s:y="10" s:pid="in0" id="port_$procdff$28~ALOAD">
      <text x="-3" y="-4" class="inputPortLabel cell_$procdff$28">ALOAD</text>
    </g>
    <g transform="translate(0,50)" s:x="0" s:y="10" s:pid="in0" id="port_$procdff$28~CLK">
      <text x="-3" y="-4" class="inputPortLabel cell_$procdff$28">CLK</text>
    </g>
    <g transform="translate(0,70)" s:x="0" s:y="10" s:pid="in0" id="port_$procdff$28~D">
      <text x="-3" y="-4" class="inputPortLabel cell_$procdff$28">D</text>
    </g>
    <g transform="translate(30,10)" s:x="30" s:y="10" s:pid="out0" id="port_$procdff$28~Q">
      <text x="5" y="-4" style="fill:#000; stroke:none" class="cell_$procdff$28">Q</text>
    </g>
  </g>
  <g s:type="outputExt" transform="translate(291,38)" s:width="30" s:height="20" id="cell_q">
    <text x="15" y="-4" class="nodelabel cell_q" s:attribute="ref">q</text>
    <s:alias val="$_outputExt_"/>
    <path d="M30,0 L30,20 L15,20 L0,10 L15,0 Z" class="cell_q"/>
    <g s:x="0" s:y="10" s:pid="A"/>
  </g>
  <g s:type="outputExt" transform="translate(291,218)" s:width="30" s:height="20" id="cell_q_l">
    <text x="15" y="-4" class="nodelabel cell_q_l" s:attribute="ref">q_l</text>
    <s:alias val="$_outputExt_"/>
    <path d="M30,0 L30,20 L15,20 L0,10 L15,0 Z" class="cell_q_l"/>
    <g s:x="0" s:y="10" s:pid="A"/>
  </g>
  <g s:type="inputExt" transform="translate(77,163)" s:width="30" s:height="20" id="cell_clk">
    <text x="15" y="-4" class="nodelabel cell_clk" s:attribute="ref">clk</text>
    <s:alias val="$_inputExt_"/>
    <path d="M0,0 L0,20 L15,20 L30,10 L15,0 Z" class="cell_clk"/>
    <g s:x="28" s:y="10" s:pid="Y"/>
  </g>
  <g s:type="inputExt" transform="translate(12,218)" s:width="30" s:height="20" id="cell_d">
    <text x="15" y="-4" class="nodelabel cell_d" s:attribute="ref">d</text>
    <s:alias val="$_inputExt_"/>
    <path d="M0,0 L0,20 L15,20 L30,10 L15,0 Z" class="cell_d"/>
    <g s:x="28" s:y="10" s:pid="Y"/>
  </g>
  <g s:type="inputExt" transform="translate(77,33)" s:width="30" s:height="20" id="cell_reset_l">
    <text x="15" y="-4" class="nodelabel cell_reset_l" s:attribute="ref">reset_l</text>
    <s:alias val="$_inputExt_"/>
    <path d="M0,0 L0,20 L15,20 L30,10 L15,0 Z" class="cell_reset_l"/>
    <g s:x="28" s:y="10" s:pid="Y"/>
  </g>
  <g s:type="constant" transform="translate(77,98)" s:width="30" s:height="20" id="cell_0">
    <text x="15" y="-4" class="nodelabel cell_0" s:attribute="ref">0</text>
    <s:alias val="$_constant_"/>
    <rect width="30" height="20" class="cell_0"/>
    <g s:x="30" s:y="10" s:pid="Y"/>
  </g>
  <g s:type="constant" transform="translate(77,283)" s:width="30" s:height="20" id="cell_1">
    <text x="15" y="-4" class="nodelabel cell_1" s:attribute="ref">1</text>
    <s:alias val="$_constant_"/>
    <rect width="30" height="20" class="cell_1"/>
    <g s:x="30" s:y="10" s:pid="Y"/>
  </g>
  <line x1="40" x2="83" y1="228" y2="228" class="net_5"/>
  <line x1="40" x2="52" y1="228" y2="228" class="net_5"/>
  <line x1="52" x2="52" y1="228" y2="12" class="net_5"/>
  <line x1="52" x2="149" y1="12" y2="12" class="net_5"/>
  <line x1="149" x2="149" y1="12" y2="48" class="net_5"/>
  <circle cx="52" cy="228" r="2" style="fill:#000" class="net_5"/>
  <line x1="149" x2="190" y1="48" y2="48" class="net_5"/>
  <line x1="105" x2="139" y1="43" y2="43" class="net_6"/>
  <line x1="139" x2="139" y1="43" y2="68" class="net_6"/>
  <circle cx="139" cy="68" r="2" style="fill:#000" class="net_6"/>
  <line x1="139" x2="190" y1="68" y2="68" class="net_6"/>
  <line x1="105" x2="139" y1="43" y2="43" class="net_6"/>
  <line x1="139" x2="139" y1="43" y2="248" class="net_6"/>
  <line x1="139" x2="190" y1="248" y2="248" class="net_6"/>
  <line x1="105" x2="129" y1="173" y2="173" class="net_4"/>
  <line x1="129" x2="129" y1="173" y2="88" class="net_4"/>
  <circle cx="129" cy="173" r="2" style="fill:#000" class="net_4"/>
  <line x1="129" x2="190" y1="88" y2="88" class="net_4"/>
  <line x1="105" x2="129" y1="173" y2="173" class="net_4"/>
  <line x1="129" x2="129" y1="173" y2="268" class="net_4"/>
  <line x1="129" x2="190" y1="268" y2="268" class="net_4"/>
  <line x1="107" x2="190" y1="108" y2="108" class="net_8"/>
  <line x1="108" x2="190" y1="228" y2="228" class="net_7"/>
  <line x1="107" x2="129" y1="293" y2="293" class="net_9"/>
  <line x1="129" x2="129" y1="293" y2="288" class="net_9"/>
  <line x1="129" x2="190" y1="288" y2="288" class="net_9"/>
  <line x1="221" x2="291" y1="48" y2="48" class="net_2"/>
  <line x1="221" x2="291" y1="228" y2="228" class="net_3"/>
</svg>
