<svg style="background:white" xmlns="http://www.w3.org/2000/svg" xmlns:xlink="http://www.w3.org/1999/xlink" xmlns:s="https://github.com/nturley/netlistsvg" width="486" height="366">
  <style>svg {
    stroke:#000;
    fill:none;
  }
  text {
    fill:#000;
    stroke:none;
    font-size:10px;
    font-weight: bold;
    font-family: "Courier New", monospace;
  }
  .nodelabel {
    text-anchor: middle;
  }
  .inputPortLabel {
    text-anchor: end;
  }
  .splitjoinBody {
    fill:#000;
  }</style>
  <g s:type="add" transform="translate(269.6666666666667,128)" s:width="25" s:height="25" id="cell_$add$.yosys_tmp/up_down_counter.sv:15$3">
    <s:alias val="$add"/>
    <circle r="12.5" cx="12.5" cy="12.5" class="cell_$add$.yosys_tmp/up_down_counter.sv:15$3"/>
    <line x1="7.5" x2="17.5" y1="12.5" y2="12.5" class="cell_$add$.yosys_tmp/up_down_counter.sv:15$3"/>
    <line x1="12.5" x2="12.5" y1="7.5" y2="17.5" class="cell_$add$.yosys_tmp/up_down_counter.sv:15$3"/>
    <g s:x="3" s:y="5" s:pid="A"/>
    <g s:x="3" s:y="20" s:pid="B"/>
    <g s:x="25" s:y="12.5" s:pid="Y"/>
  </g>
  <g s:type="generic" transform="translate(102,27.5)" s:width="30" s:height="40" id="cell_$procdff$17">
    <text x="15" y="-4" class="nodelabel cell_$procdff$17" s:attribute="ref">$adff</text>
    <rect width="30" height="60" s:generic="body" class="cell_$procdff$17"/>
    <g transform="translate(0,10)" s:x="0" s:y="10" s:pid="in0" id="port_$procdff$17~ARST">
      <text x="-3" y="-4" class="inputPortLabel cell_$procdff$17">ARST</text>
    </g>
    <g transform="translate(0,30)" s:x="0" s:y="10" s:pid="in0" id="port_$procdff$17~CLK">
      <text x="-3" y="-4" class="inputPortLabel cell_$procdff$17">CLK</text>
    </g>
    <g transform="translate(0,50)" s:x="0" s:y="10" s:pid="in0" id="port_$procdff$17~D">
      <text x="-3" y="-4" class="inputPortLabel cell_$procdff$17">D</text>
    </g>
    <g transform="translate(30,10)" s:x="30" s:y="10" s:pid="out0" id="port_$procdff$17~Q">
      <text x="5" y="-4" style="fill:#000; stroke:none" class="cell_$procdff$17">Q</text>
    </g>
  </g>
  <g s:type="mux" transform="translate(410,32)" s:width="20" s:height="40" id="cell_$procmux$11">
    <s:alias val="$pmux"/>
    <s:alias val="$mux"/>
    <s:alias val="$_MUX_"/>
    <path d="M0,0 L20,10 L20,30 L0,40 Z" class="cell_$procmux$11"/>
    <g s:x="0" s:y="10" s:pid="A"/>
    <g s:x="0" s:y="30" s:pid="B"/>
    <g s:x="10" s:y="35" s:pid="S"/>
    <g s:x="20" s:y="20" s:pid="Y"/>
  </g>
  <g s:type="mux" transform="translate(271.3333333333333,12)" s:width="20" s:height="40" id="cell_$procmux$5">
    <s:alias val="$pmux"/>
    <s:alias val="$mux"/>
    <s:alias val="$_MUX_"/>
    <path d="M0,0 L20,10 L20,30 L0,40 Z" class="cell_$procmux$5"/>
    <g s:x="0" s:y="10" s:pid="A"/>
    <g s:x="0" s:y="30" s:pid="B"/>
    <g s:x="10" s:y="35" s:pid="S"/>
    <g s:x="20" s:y="20" s:pid="Y"/>
  </g>
  <g s:type="mux" transform="translate(340.3333333333333,22)" s:width="20" s:height="40" id="cell_$procmux$8">
    <s:alias val="$pmux"/>
    <s:alias val="$mux"/>
    <s:alias val="$_MUX_"/>
    <path d="M0,0 L20,10 L20,30 L0,40 Z" class="cell_$procmux$8"/>
    <g s:x="0" s:y="10" s:pid="A"/>
    <g s:x="0" s:y="30" s:pid="B"/>
    <g s:x="10" s:y="35" s:pid="S"/>
    <g s:x="20" s:y="20" s:pid="Y"/>
  </g>
  <g s:type="sub" transform="translate(204.66666666666666,33)" s:width="25" s:height="25" id="cell_$sub$.yosys_tmp/up_down_counter.sv:16$4">
    <s:alias val="$sub"/>
    <circle r="12.5" cx="12.5" cy="12.5" class="cell_$sub$.yosys_tmp/up_down_counter.sv:16$4"/>
    <line x1="7.5" x2="17.5" y1="12.5" y2="12.5" class="cell_$sub$.yosys_tmp/up_down_counter.sv:16$4"/>
    <g s:x="3" s:y="5" s:pid="A"/>
    <g s:x="3" s:y="20" s:pid="B"/>
    <g s:x="25" s:y="12.5" s:pid="Y"/>
  </g>
  <g s:type="inputExt" transform="translate(12,93)" s:width="30" s:height="20" id="cell_clk">
    <text x="15" y="-4" class="nodelabel cell_clk" s:attribute="ref">clk</text>
    <s:alias val="$_inputExt_"/>
    <path d="M0,0 L0,20 L15,20 L30,10 L15,0 Z" class="cell_clk"/>
    <g s:x="28" s:y="10" s:pid="Y"/>
  </g>
  <g s:type="inputExt" transform="translate(12,28)" s:width="30" s:height="20" id="cell_rst_n">
    <text x="15" y="-4" class="nodelabel cell_rst_n" s:attribute="ref">rst_n</text>
    <s:alias val="$_inputExt_"/>
    <path d="M0,0 L0,20 L15,20 L30,10 L15,0 Z" class="cell_rst_n"/>
    <g s:x="28" s:y="10" s:pid="Y"/>
  </g>
  <g s:type="inputExt" transform="translate(268,198)" s:width="30" s:height="20" id="cell_up">
    <text x="15" y="-4" class="nodelabel cell_up" s:attribute="ref">up</text>
    <s:alias val="$_inputExt_"/>
    <path d="M0,0 L0,20 L15,20 L30,10 L15,0 Z" class="cell_up"/>
    <g s:x="28" s:y="10" s:pid="Y"/>
  </g>
  <g s:type="inputExt" transform="translate(203,103)" s:width="30" s:height="20" id="cell_down">
    <text x="15" y="-4" class="nodelabel cell_down" s:attribute="ref">down</text>
    <s:alias val="$_inputExt_"/>
    <path d="M0,0 L0,20 L15,20 L30,10 L15,0 Z" class="cell_down"/>
    <g s:x="28" s:y="10" s:pid="Y"/>
  </g>
  <g s:type="inputExt" transform="translate(333,293)" s:width="30" s:height="20" id="cell_load">
    <text x="15" y="-4" class="nodelabel cell_load" s:attribute="ref">load</text>
    <s:alias val="$_inputExt_"/>
    <path d="M0,0 L0,20 L15,20 L30,10 L15,0 Z" class="cell_load"/>
    <g s:x="28" s:y="10" s:pid="Y"/>
  </g>
  <g s:type="inputExt" transform="translate(333,228)" s:width="30" s:height="20" id="cell_data_in">
    <text x="15" y="-4" class="nodelabel cell_data_in" s:attribute="ref">data_in</text>
    <s:alias val="$_inputExt_"/>
    <path d="M0,0 L0,20 L15,20 L30,10 L15,0 Z" class="cell_data_in"/>
    <g s:x="28" s:y="10" s:pid="Y"/>
  </g>
  <g s:type="outputExt" transform="translate(410,323)" s:width="30" s:height="20" id="cell_count_out">
    <text x="15" y="-4" class="nodelabel cell_count_out" s:attribute="ref">count_out</text>
    <s:alias val="$_outputExt_"/>
    <path d="M30,0 L30,20 L15,20 L0,10 L15,0 Z" class="cell_count_out"/>
    <g s:x="0" s:y="10" s:pid="A"/>
  </g>
  <g s:type="constant" transform="translate(102,138)" s:width="30" s:height="20" id="cell_1">
    <text x="15" y="-4" class="nodelabel cell_1" s:attribute="ref">1</text>
    <s:alias val="$_constant_"/>
    <rect width="30" height="20" class="cell_1"/>
    <g s:x="30" s:y="10" s:pid="Y"/>
  </g>
  <line x1="133" x2="188" y1="38" y2="38" class="net_11,12,13,14"/>
  <line x1="188" x2="188" y1="38" y2="133" class="net_11,12,13,14"/>
  <circle cx="188" cy="38" r="2" style="fill:#000" class="net_11,12,13,14"/>
  <circle cx="188" cy="133" r="2" style="fill:#000" class="net_11,12,13,14"/>
  <line x1="188" x2="272.6666666666667" y1="133" y2="133" class="net_11,12,13,14"/>
  <line x1="133" x2="188" y1="38" y2="38" class="net_11,12,13,14"/>
  <line x1="188" x2="188" y1="38" y2="22" class="net_11,12,13,14"/>
  <line x1="188" x2="271.3333333333333" y1="22" y2="22" class="net_11,12,13,14"/>
  <line x1="133" x2="207.66666666666666" y1="38" y2="38" class="net_11,12,13,14"/>
  <line x1="133" x2="188" y1="38" y2="38" class="net_11,12,13,14"/>
  <line x1="188" x2="188" y1="38" y2="333" class="net_11,12,13,14"/>
  <line x1="188" x2="410" y1="333" y2="333" class="net_11,12,13,14"/>
  <line x1="132" x2="272.6666666666667" y1="148" y2="148" class="net_35"/>
  <line x1="132" x2="178" y1="148" y2="148" class="net_35"/>
  <line x1="178" x2="178" y1="148" y2="53" class="net_35"/>
  <circle cx="178" cy="148" r="2" style="fill:#000" class="net_35"/>
  <line x1="178" x2="207.66666666666666" y1="53" y2="53" class="net_35"/>
  <line x1="40" x2="102" y1="38" y2="38" class="net_3"/>
  <line x1="40" x2="52" y1="103" y2="103" class="net_2"/>
  <line x1="52" x2="52" y1="103" y2="58" class="net_2"/>
  <line x1="52" x2="102" y1="58" y2="58" class="net_2"/>
  <line x1="430" x2="474" y1="52" y2="52" class="net_19,20,21,22"/>
  <line x1="474" x2="474" y1="52" y2="353" class="net_19,20,21,22"/>
  <line x1="474" x2="62" y1="353" y2="353" class="net_19,20,21,22"/>
  <line x1="62" x2="62" y1="353" y2="78" class="net_19,20,21,22"/>
  <line x1="62" x2="102" y1="78" y2="78" class="net_19,20,21,22"/>
  <line x1="360.3333333333333" x2="410" y1="42" y2="42" class="net_23,24,25,26"/>
  <line x1="361" x2="385" y1="238" y2="238" class="net_7,8,9,10"/>
  <line x1="385" x2="385" y1="238" y2="62" class="net_7,8,9,10"/>
  <line x1="385" x2="410" y1="62" y2="62" class="net_7,8,9,10"/>
  <line x1="361" x2="420" y1="303" y2="303" class="net_6"/>
  <line x1="420" x2="420" y1="303" y2="67" class="net_6"/>
  <line x1="229.66666666666666" x2="243" y1="45.5" y2="45.5" class="net_27,28,29,30"/>
  <line x1="243" x2="243" y1="45.5" y2="42" class="net_27,28,29,30"/>
  <line x1="243" x2="271.3333333333333" y1="42" y2="42" class="net_27,28,29,30"/>
  <line x1="231" x2="281.3333333333333" y1="113" y2="113" class="net_5"/>
  <line x1="281.3333333333333" x2="281.3333333333333" y1="113" y2="47" class="net_5"/>
  <line x1="291.3333333333333" x2="340.3333333333333" y1="32" y2="32" class="net_31,32,33,34"/>
  <line x1="294.6666666666667" x2="308" y1="140.5" y2="140.5" class="net_15,16,17,18"/>
  <line x1="308" x2="308" y1="140.5" y2="52" class="net_15,16,17,18"/>
  <line x1="308" x2="340.3333333333333" y1="52" y2="52" class="net_15,16,17,18"/>
  <line x1="296" x2="350.3333333333333" y1="208" y2="208" class="net_4"/>
  <line x1="350.3333333333333" x2="350.3333333333333" y1="208" y2="57" class="net_4"/>
</svg>
