<svg style="background:white" xmlns="http://www.w3.org/2000/svg" xmlns:xlink="http://www.w3.org/1999/xlink" xmlns:s="https://github.com/nturley/netlistsvg" width="534" height="350.5">
  <style>svg {
    stroke:#000;
    fill:none;
  }
  text {
    fill:#000;
    stroke:none;
    font-size:10px;
    font-weight: bold;
    font-family: "Courier New", monospace;
  }
  .nodelabel {
    text-anchor: middle;
  }
  .inputPortLabel {
    text-anchor: end;
  }
  .splitjoinBody {
    fill:#000;
  }</style>
  <g s:type="generic" transform="translate(102,243)" s:width="30" s:height="40" id="cell_$procdff$12">
    <text x="15" y="-4" class="nodelabel cell_$procdff$12" s:attribute="ref">$adff</text>
    <rect width="30" height="60" s:generic="body" class="cell_$procdff$12"/>
    <g transform="translate(0,10)" s:x="0" s:y="10" s:pid="in0" id="port_$procdff$12~ARST">
      <text x="-3" y="-4" class="inputPortLabel cell_$procdff$12">ARST</text>
    </g>
    <g transform="translate(0,30)" s:x="0" s:y="10" s:pid="in0" id="port_$procdff$12~CLK">
      <text x="-3" y="-4" class="inputPortLabel cell_$procdff$12">CLK</text>
    </g>
    <g transform="translate(0,50)" s:x="0" s:y="10" s:pid="in0" id="port_$procdff$12~D">
      <text x="-3" y="-4" class="inputPortLabel cell_$procdff$12">D</text>
    </g>
    <g transform="translate(30,10)" s:x="30" s:y="10" s:pid="out0" id="port_$procdff$12~Q">
      <text x="5" y="-4" style="fill:#000; stroke:none" class="cell_$procdff$12">Q</text>
    </g>
  </g>
  <g s:type="mux" transform="translate(382.3333333333333,34)" s:width="20" s:height="40" id="cell_$procmux$3">
    <s:alias val="$pmux"/>
    <s:alias val="$mux"/>
    <s:alias val="$_MUX_"/>
    <path d="M0,0 L20,10 L20,30 L0,40 Z" class="cell_$procmux$3"/>
    <g s:x="0" s:y="10" s:pid="A"/>
    <g s:x="0" s:y="30" s:pid="B"/>
    <g s:x="10" s:y="35" s:pid="S"/>
    <g s:x="20" s:y="20" s:pid="Y"/>
  </g>
  <g s:type="mux" transform="translate(452,138.5)" s:width="20" s:height="40" id="cell_$procmux$6">
    <s:alias val="$pmux"/>
    <s:alias val="$mux"/>
    <s:alias val="$_MUX_"/>
    <path d="M0,0 L20,10 L20,30 L0,40 Z" class="cell_$procmux$6"/>
    <g s:x="0" s:y="10" s:pid="A"/>
    <g s:x="0" s:y="30" s:pid="B"/>
    <g s:x="10" s:y="35" s:pid="S"/>
    <g s:x="20" s:y="20" s:pid="Y"/>
  </g>
  <g s:type="inputExt" transform="translate(12,263.5)" s:width="30" s:height="20" id="cell_clk">
    <text x="15" y="-4" class="nodelabel cell_clk" s:attribute="ref">clk</text>
    <s:alias val="$_inputExt_"/>
    <path d="M0,0 L0,20 L15,20 L30,10 L15,0 Z" class="cell_clk"/>
    <g s:x="28" s:y="10" s:pid="Y"/>
  </g>
  <g s:type="inputExt" transform="translate(12,198.5)" s:width="30" s:height="20" id="cell_rst_n">
    <text x="15" y="-4" class="nodelabel cell_rst_n" s:attribute="ref">rst_n</text>
    <s:alias val="$_inputExt_"/>
    <path d="M0,0 L0,20 L15,20 L30,10 L15,0 Z" class="cell_rst_n"/>
    <g s:x="28" s:y="10" s:pid="Y"/>
  </g>
  <g s:type="inputExt" transform="translate(292,128.5)" s:width="30" s:height="20" id="cell_shift_en">
    <text x="15" y="-4" class="nodelabel cell_shift_en" s:attribute="ref">shift_en</text>
    <s:alias val="$_inputExt_"/>
    <path d="M0,0 L0,20 L15,20 L30,10 L15,0 Z" class="cell_shift_en"/>
    <g s:x="28" s:y="10" s:pid="Y"/>
  </g>
  <g s:type="inputExt" transform="translate(375,223.5)" s:width="30" s:height="20" id="cell_load">
    <text x="15" y="-4" class="nodelabel cell_load" s:attribute="ref">load</text>
    <s:alias val="$_inputExt_"/>
    <path d="M0,0 L0,20 L15,20 L30,10 L15,0 Z" class="cell_load"/>
    <g s:x="28" s:y="10" s:pid="Y"/>
  </g>
  <g s:type="inputExt" transform="translate(375,158.5)" s:width="30" s:height="20" id="cell_data_in">
    <text x="15" y="-4" class="nodelabel cell_data_in" s:attribute="ref">data_in</text>
    <s:alias val="$_inputExt_"/>
    <path d="M0,0 L0,20 L15,20 L30,10 L15,0 Z" class="cell_data_in"/>
    <g s:x="28" s:y="10" s:pid="Y"/>
  </g>
  <g s:type="inputExt" transform="translate(203,44)" s:width="30" s:height="20" id="cell_serial_in">
    <text x="15" y="-4" class="nodelabel cell_serial_in" s:attribute="ref">serial_in</text>
    <s:alias val="$_inputExt_"/>
    <path d="M0,0 L0,20 L15,20 L30,10 L15,0 Z" class="cell_serial_in"/>
    <g s:x="28" s:y="10" s:pid="Y"/>
  </g>
  <g s:type="outputExt" transform="translate(452,318.5)" s:width="30" s:height="20" id="cell_data_out">
    <text x="15" y="-4" class="nodelabel cell_data_out" s:attribute="ref">data_out</text>
    <s:alias val="$_outputExt_"/>
    <path d="M30,0 L30,20 L15,20 L0,10 L15,0 Z" class="cell_data_out"/>
    <g s:x="0" s:y="10" s:pid="A"/>
  </g>
  <g s:type="outputExt" transform="translate(452,253.5)" s:width="30" s:height="20" id="cell_serial_out">
    <text x="15" y="-4" class="nodelabel cell_serial_out" s:attribute="ref">serial_out</text>
    <s:alias val="$_outputExt_"/>
    <path d="M30,0 L30,20 L15,20 L0,10 L15,0 Z" class="cell_serial_out"/>
    <g s:x="0" s:y="10" s:pid="A"/>
  </g>
  <g s:type="join" transform="translate(309,43.5)" s:width="4" s:height="40" id="cell_$join$,14,15,16,17,18,19,20,21,">
    <rect width="5" height="40" class="splitjoinBody" s:generic="body"/>
    <s:alias val="$_join_"/>
    <g s:x="5" s:y="20" s:pid="out"/>
    <g transform="translate(0,10)" s:x="0" s:y="10" s:pid="in0">
      <text x="-3" y="-4" class="inputPortLabel">0</text>
    </g>
    <g transform="translate(0,30)" s:x="0" s:y="10" s:pid="in0">
      <text x="-3" y="-4" class="inputPortLabel">1:7</text>
    </g>
  </g>
  <g s:type="split" transform="translate(227.66666666666666,233)" s:width="5" s:height="40" id="cell_$split$,15,16,17,18,19,20,21,22,">
    <rect width="5" height="40" class="splitjoinBody" s:generic="body"/>
    <s:alias val="$_split_"/>
    <g s:x="0" s:y="20" s:pid="in"/>
    <g transform="translate(4,10)" s:x="4" s:y="10" s:pid="out0">
      <text x="5" y="-4">0:6</text>
    </g>
    <g transform="translate(4,30)" s:x="4" s:y="10" s:pid="out0">
      <text x="5" y="-4">7</text>
    </g>
  </g>
  <line x1="40" x2="62" y1="208.5" y2="208.5" class="net_3"/>
  <line x1="62" x2="62" y1="208.5" y2="253.5" class="net_3"/>
  <line x1="62" x2="102" y1="253.5" y2="253.5" class="net_3"/>
  <line x1="40" x2="102" y1="273.5" y2="273.5" class="net_2"/>
  <line x1="472" x2="522" y1="158.5" y2="158.5" class="net_23,24,25,26,27,28,29,30"/>
  <line x1="522" x2="522" y1="158.5" y2="12" class="net_23,24,25,26,27,28,29,30"/>
  <line x1="522" x2="52" y1="12" y2="12" class="net_23,24,25,26,27,28,29,30"/>
  <line x1="52" x2="52" y1="12" y2="293.5" class="net_23,24,25,26,27,28,29,30"/>
  <line x1="52" x2="102" y1="293.5" y2="293.5" class="net_23,24,25,26,27,28,29,30"/>
  <line x1="133" x2="178" y1="253.5" y2="253.5" class="net_15,16,17,18,19,20,21,22"/>
  <line x1="178" x2="178" y1="253.5" y2="23" class="net_15,16,17,18,19,20,21,22"/>
  <line x1="178" x2="350" y1="23" y2="23" class="net_15,16,17,18,19,20,21,22"/>
  <line x1="350" x2="350" y1="23" y2="44" class="net_15,16,17,18,19,20,21,22"/>
  <circle cx="178" cy="253.5" r="2" style="fill:#000" class="net_15,16,17,18,19,20,21,22"/>
  <line x1="350" x2="382.3333333333333" y1="44" y2="44" class="net_15,16,17,18,19,20,21,22"/>
  <line x1="133" x2="178" y1="253.5" y2="253.5" class="net_15,16,17,18,19,20,21,22"/>
  <line x1="178" x2="178" y1="253.5" y2="328.5" class="net_15,16,17,18,19,20,21,22"/>
  <line x1="178" x2="452" y1="328.5" y2="328.5" class="net_15,16,17,18,19,20,21,22"/>
  <line x1="133" x2="227.66666666666666" y1="253.5" y2="253.5" class="net_15,16,17,18,19,20,21,22"/>
  <line x1="315" x2="382.3333333333333" y1="64" y2="64" class="net_14,15,16,17,18,19,20,21"/>
  <line x1="320" x2="392.3333333333333" y1="138.5" y2="138.5" class="net_4"/>
  <line x1="392.3333333333333" x2="392.3333333333333" y1="138.5" y2="69" class="net_4"/>
  <line x1="402.3333333333333" x2="427" y1="54" y2="54" class="net_31,32,33,34,35,36,37,38"/>
  <line x1="427" x2="427" y1="54" y2="148.5" class="net_31,32,33,34,35,36,37,38"/>
  <line x1="427" x2="452" y1="148.5" y2="148.5" class="net_31,32,33,34,35,36,37,38"/>
  <line x1="403" x2="452" y1="168.5" y2="168.5" class="net_6,7,8,9,10,11,12,13"/>
  <line x1="403" x2="462" y1="233.5" y2="233.5" class="net_5"/>
  <line x1="462" x2="462" y1="233.5" y2="173.5" class="net_5"/>
  <line x1="232.66666666666666" x2="452" y1="263.5" y2="263.5" class="net_22"/>
  <line x1="231" x2="309" y1="54" y2="54" class="net_14"/>
  <line x1="232.66666666666666" x2="267" y1="243.5" y2="243.5" class="net_15,16,17,18,19,20,21"/>
  <line x1="267" x2="267" y1="243.5" y2="74" class="net_15,16,17,18,19,20,21"/>
  <line x1="267" x2="309" y1="74" y2="74" class="net_15,16,17,18,19,20,21"/>
</svg>
