<?xml version="1.0" encoding="UTF-8" standalone="no"?>
<!DOCTYPE svg PUBLIC "-//W3C//DTD SVG 1.1//EN"
 "http://www.w3.org/Graphics/SVG/1.1/DTD/svg11.dtd">
<!-- Generated by graphviz version 14.1.4 (20260321.0153)
 -->
<!-- Title: adder1 Pages: 1 -->
<svg width="514pt" height="157pt"
 viewBox="0.00 0.00 514.00 157.00" xmlns="http://www.w3.org/2000/svg" xmlns:xlink="http://www.w3.org/1999/xlink">
<g id="graph0" class="graph" transform="scale(1 1) rotate(0) translate(4 152.5)">
<title>adder1</title>
<polygon fill="white" stroke="none" points="-4,4 -4,-152.5 509.98,-152.5 509.98,4 -4,4"/>
<text xml:space="preserve" text-anchor="middle" x="252.99" y="-7.2" font-family="Times,serif" font-size="14.00">adder1</text>
<!-- n2 -->
<g id="node1" class="node">
<title>n2</title>
<polygon fill="none" stroke="black" points="505.98,-92.04 505.98,-106.96 489,-117.5 464.98,-117.5 448,-106.96 448,-92.04 464.98,-81.5 489,-81.5 505.98,-92.04"/>
<text xml:space="preserve" text-anchor="middle" x="476.99" y="-94.45" font-family="Times,serif" font-size="14.00">cout</text>
</g>
<!-- n3 -->
<g id="node2" class="node">
<title>n3</title>
<polygon fill="none" stroke="black" points="503.99,-38.04 503.99,-52.96 488.18,-63.5 465.81,-63.5 449.99,-52.96 449.99,-38.04 465.81,-27.5 488.18,-27.5 503.99,-38.04"/>
<text xml:space="preserve" text-anchor="middle" x="476.99" y="-40.45" font-family="Times,serif" font-size="14.00">s</text>
</g>
<!-- n4 -->
<g id="node3" class="node">
<title>n4</title>
<polygon fill="none" stroke="black" points="163.88,-35.04 163.88,-49.96 148.06,-60.5 125.69,-60.5 109.88,-49.96 109.88,-35.04 125.69,-24.5 148.06,-24.5 163.88,-35.04"/>
<text xml:space="preserve" text-anchor="middle" x="136.88" y="-37.45" font-family="Times,serif" font-size="14.00">cin</text>
</g>
<!-- c10 -->
<g id="node6" class="node">
<title>c10</title>
<polygon fill="none" stroke="black" points="219.75,-48 219.75,-97 313.5,-97 313.5,-48 219.75,-48"/>
<text xml:space="preserve" text-anchor="middle" x="232.62" y="-79.7" font-family="Times,serif" font-size="14.00">A</text>
<polyline fill="none" stroke="black" points="219.75,-72.5 245.5,-72.5"/>
<text xml:space="preserve" text-anchor="middle" x="232.62" y="-55.2" font-family="Times,serif" font-size="14.00">B</text>
<polyline fill="none" stroke="black" points="245.5,-48 245.5,-97"/>
<text xml:space="preserve" text-anchor="middle" x="266.62" y="-75.7" font-family="Times,serif" font-size="14.00">$2</text>
<text xml:space="preserve" text-anchor="middle" x="266.62" y="-59.2" font-family="Times,serif" font-size="14.00">$add</text>
<polyline fill="none" stroke="black" points="287.75,-48 287.75,-97"/>
<text xml:space="preserve" text-anchor="middle" x="300.62" y="-67.7" font-family="Times,serif" font-size="14.00">Y</text>
</g>
<!-- n4&#45;&gt;c10 -->
<g id="edge5" class="edge">
<title>n4:e&#45;&gt;c10:w</title>
<path fill="none" stroke="#e7298a" d="M165.13,-42.5C186.47,-42.5 192.46,-54.9 208.77,-58.97"/>
<polygon fill="#e7298a" stroke="#e7298a" points="207.91,-62.4 218.25,-60.08 208.72,-55.44 207.91,-62.4"/>
</g>
<!-- n5 -->
<g id="node4" class="node">
<title>n5</title>
<polygon fill="none" stroke="black" points="54,-69.04 54,-83.96 38.18,-94.5 15.82,-94.5 0,-83.96 0,-69.04 15.82,-58.5 38.18,-58.5 54,-69.04"/>
<text xml:space="preserve" text-anchor="middle" x="27" y="-71.45" font-family="Times,serif" font-size="14.00">b</text>
</g>
<!-- c11 -->
<g id="node8" class="node">
<title>c11</title>
<polygon fill="none" stroke="black" points="90,-79 90,-128 183.75,-128 183.75,-79 90,-79"/>
<text xml:space="preserve" text-anchor="middle" x="102.88" y="-110.7" font-family="Times,serif" font-size="14.00">A</text>
<polyline fill="none" stroke="black" points="90,-103.5 115.75,-103.5"/>
<text xml:space="preserve" text-anchor="middle" x="102.88" y="-86.2" font-family="Times,serif" font-size="14.00">B</text>
<polyline fill="none" stroke="black" points="115.75,-79 115.75,-128"/>
<text xml:space="preserve" text-anchor="middle" x="136.88" y="-106.7" font-family="Times,serif" font-size="14.00">$1</text>
<text xml:space="preserve" text-anchor="middle" x="136.88" y="-90.2" font-family="Times,serif" font-size="14.00">$add</text>
<polyline fill="none" stroke="black" points="158,-79 158,-128"/>
<text xml:space="preserve" text-anchor="middle" x="170.88" y="-98.7" font-family="Times,serif" font-size="14.00">Y</text>
</g>
<!-- n5&#45;&gt;c11 -->
<g id="edge6" class="edge">
<title>n5:e&#45;&gt;c11:w</title>
<path fill="none" stroke="#e7298a" stroke-width="3" d="M54,-76.5C66.7,-76.5 70.84,-84.45 78.99,-88.68"/>
<polygon fill="#e7298a" stroke="#e7298a" stroke-width="3" points="75.04,-91.36 85.58,-90.22 76.63,-84.54 75.04,-91.36"/>
</g>
<!-- n6 -->
<g id="node5" class="node">
<title>n6</title>
<polygon fill="none" stroke="black" points="54,-123.04 54,-137.96 38.18,-148.5 15.82,-148.5 0,-137.96 0,-123.04 15.82,-112.5 38.18,-112.5 54,-123.04"/>
<text xml:space="preserve" text-anchor="middle" x="27" y="-125.45" font-family="Times,serif" font-size="14.00">a</text>
</g>
<!-- n6&#45;&gt;c11 -->
<g id="edge7" class="edge">
<title>n6:e&#45;&gt;c11:w</title>
<path fill="none" stroke="#7570b3" stroke-width="3" d="M54,-130.5C66.7,-130.5 70.84,-122.55 78.99,-118.32"/>
<polygon fill="#7570b3" stroke="#7570b3" stroke-width="3" points="76.63,-122.46 85.58,-116.78 75.04,-115.64 76.63,-122.46"/>
</g>
<!-- x0 -->
<g id="node7" class="node">
<title>x0</title>
<path fill="none" stroke="#666666" d="M361.5,-48C361.5,-48 400,-48 400,-48 406,-48 412,-54 412,-60 412,-60 412,-85 412,-85 412,-91 406,-97 400,-97 400,-97 361.5,-97 361.5,-97 355.5,-97 349.5,-91 349.5,-85 349.5,-85 349.5,-60 349.5,-60 349.5,-54 355.5,-48 361.5,-48"/>
<text xml:space="preserve" text-anchor="middle" x="380.75" y="-79.7" font-family="Times,serif" font-size="14.00" fill="#666666">8:8 &#45; 0:0</text>
<polyline fill="none" stroke="#666666" points="349.5,-72.5 412,-72.5"/>
<text xml:space="preserve" text-anchor="middle" x="380.75" y="-55.2" font-family="Times,serif" font-size="14.00" fill="#666666">7:0 &#45; 7:0</text>
</g>
<!-- c10&#45;&gt;x0 -->
<g id="edge1" class="edge">
<title>c10:e&#45;&gt;x0:w</title>
<path fill="none" stroke="#66a61e" stroke-width="3" d="M326.22,-72.69C329.82,-72.65 332.95,-72.6 336.53,-72.57"/>
<polygon fill="none" stroke="#66a61e" stroke-width="3" points="328.2,-72.68 322.22,-76.71 316.2,-72.74 322.18,-68.71 328.2,-72.68"/>
<polygon fill="none" stroke="#66a61e" stroke-width="3" points="334.8,-72.57 340.78,-68.54 346.8,-72.51 340.82,-76.54 334.8,-72.57"/>
</g>
<!-- x0&#45;&gt;n2 -->
<g id="edge3" class="edge">
<title>x0:e&#45;&gt;n2:w</title>
<path fill="none" stroke="#1b9e77" d="M412,-84.75C424.7,-84.75 428.84,-92.7 436.99,-96.93"/>
<polygon fill="#1b9e77" stroke="#1b9e77" points="435.99,-100.29 446.53,-99.16 437.58,-93.48 435.99,-100.29"/>
</g>
<!-- x0&#45;&gt;n3 -->
<g id="edge4" class="edge">
<title>x0:e&#45;&gt;n3:w</title>
<path fill="none" stroke="#7570b3" stroke-width="3" d="M412,-60.25C425.06,-60.25 429.28,-52.13 437.78,-47.94"/>
<polygon fill="#7570b3" stroke="#7570b3" stroke-width="3" points="435.3,-52.07 444.31,-46.49 433.78,-45.24 435.3,-52.07"/>
</g>
<!-- c11&#45;&gt;c10 -->
<g id="edge2" class="edge">
<title>c11:e&#45;&gt;c10:w</title>
<path fill="none" stroke="#1b9e77" stroke-width="3" d="M183.75,-103.75C197.18,-103.75 200.54,-93.28 208.77,-87.89"/>
<polygon fill="#1b9e77" stroke="#1b9e77" stroke-width="3" points="206.73,-92.11 215.38,-86 204.81,-85.38 206.73,-92.11"/>
</g>
</g>
</svg>
