<?xml version="1.0" encoding="UTF-8" standalone="no"?>
<!DOCTYPE svg PUBLIC "-//W3C//DTD SVG 1.1//EN"
 "http://www.w3.org/Graphics/SVG/1.1/DTD/svg11.dtd">
<!-- Generated by graphviz version 14.1.4 (20260321.0153)
 -->
<!-- Title: adder2 Pages: 1 -->
<svg width="1444pt" height="1856pt"
 viewBox="0.00 0.00 1444.00 1856.00" xmlns="http://www.w3.org/2000/svg" xmlns:xlink="http://www.w3.org/1999/xlink">
<g id="graph0" class="graph" transform="scale(1 1) rotate(0) translate(4 1851.5)">
<title>adder2</title>
<polygon fill="white" stroke="none" points="-4,4 -4,-1851.5 1440.14,-1851.5 1440.14,4 -4,4"/>
<text xml:space="preserve" text-anchor="middle" x="718.07" y="-7.2" font-family="Times,serif" font-size="14.00">adder2</text>
<!-- n18 -->
<g id="node1" class="node">
<title>n18</title>
<polygon fill="none" stroke="black" points="690.75,-925 663.75,-907 690.75,-889 717.75,-907 690.75,-925"/>
<text xml:space="preserve" text-anchor="middle" x="690.75" y="-901.95" font-family="Times,serif" font-size="14.00">c</text>
</g>
<!-- x2 -->
<g id="node13" class="node">
<title>x2</title>
<path fill="none" stroke="#1b9e77" d="M770,-1203C770,-1203 808.5,-1203 808.5,-1203 814.5,-1203 820.5,-1209 820.5,-1215 820.5,-1215 820.5,-1227 820.5,-1227 820.5,-1233 814.5,-1239 808.5,-1239 808.5,-1239 770,-1239 770,-1239 764,-1239 758,-1233 758,-1227 758,-1227 758,-1215 758,-1215 758,-1209 764,-1203 770,-1203"/>
<text xml:space="preserve" text-anchor="middle" x="789.25" y="-1216.2" font-family="Times,serif" font-size="14.00" fill="#1b9e77">7:7 &#45; 0:0</text>
</g>
<!-- n18&#45;&gt;x2 -->
<g id="edge65" class="edge">
<title>n18:e&#45;&gt;x2:w</title>
<path fill="none" stroke="#e7298a" d="M719.56,-907C785.66,-907 699.4,-1184.35 747.04,-1217.93"/>
<polygon fill="#e7298a" stroke="#e7298a" points="745.97,-1221.26 756.55,-1220.81 747.99,-1214.56 745.97,-1221.26"/>
</g>
<!-- x5 -->
<g id="node18" class="node">
<title>x5</title>
<path fill="none" stroke="#e7298a" d="M770,-492C770,-492 808.5,-492 808.5,-492 814.5,-492 820.5,-498 820.5,-504 820.5,-504 820.5,-516 820.5,-516 820.5,-522 814.5,-528 808.5,-528 808.5,-528 770,-528 770,-528 764,-528 758,-522 758,-516 758,-516 758,-504 758,-504 758,-498 764,-492 770,-492"/>
<text xml:space="preserve" text-anchor="middle" x="789.25" y="-505.2" font-family="Times,serif" font-size="14.00" fill="#e7298a">6:6 &#45; 0:0</text>
</g>
<!-- n18&#45;&gt;x5 -->
<g id="edge72" class="edge">
<title>n18:e&#45;&gt;x5:w</title>
<path fill="none" stroke="#e7298a" d="M719.56,-907C803.99,-907 681.93,-546.57 747,-512.78"/>
<polygon fill="#e7298a" stroke="#e7298a" points="747.57,-516.24 756.53,-510.59 745.99,-509.42 747.57,-516.24"/>
</g>
<!-- x8 -->
<g id="node23" class="node">
<title>x8</title>
<path fill="none" stroke="#d95f02" d="M770,-960C770,-960 808.5,-960 808.5,-960 814.5,-960 820.5,-966 820.5,-972 820.5,-972 820.5,-984 820.5,-984 820.5,-990 814.5,-996 808.5,-996 808.5,-996 770,-996 770,-996 764,-996 758,-990 758,-984 758,-984 758,-972 758,-972 758,-966 764,-960 770,-960"/>
<text xml:space="preserve" text-anchor="middle" x="789.25" y="-973.2" font-family="Times,serif" font-size="14.00" fill="#d95f02">5:5 &#45; 0:0</text>
</g>
<!-- n18&#45;&gt;x8 -->
<g id="edge73" class="edge">
<title>n18:e&#45;&gt;x8:w</title>
<path fill="none" stroke="#e7298a" d="M719.56,-907C750.76,-907 729.7,-960.58 747.02,-974.81"/>
<polygon fill="#e7298a" stroke="#e7298a" points="745.97,-978.15 756.56,-977.8 748.06,-971.47 745.97,-978.15"/>
</g>
<!-- x11 -->
<g id="node28" class="node">
<title>x11</title>
<path fill="none" stroke="#e6ab02" d="M770,-662C770,-662 808.5,-662 808.5,-662 814.5,-662 820.5,-668 820.5,-674 820.5,-674 820.5,-686 820.5,-686 820.5,-692 814.5,-698 808.5,-698 808.5,-698 770,-698 770,-698 764,-698 758,-692 758,-686 758,-686 758,-674 758,-674 758,-668 764,-662 770,-662"/>
<text xml:space="preserve" text-anchor="middle" x="789.25" y="-675.2" font-family="Times,serif" font-size="14.00" fill="#e6ab02">4:4 &#45; 0:0</text>
</g>
<!-- n18&#45;&gt;x11 -->
<g id="edge57" class="edge">
<title>n18:e&#45;&gt;x11:w</title>
<path fill="none" stroke="#e7298a" d="M719.56,-907C817.59,-907 668.95,-698.47 746.74,-681.36"/>
<polygon fill="#e7298a" stroke="#e7298a" points="746.89,-684.87 756.49,-680.4 746.2,-677.9 746.89,-684.87"/>
</g>
<!-- x14 -->
<g id="node33" class="node">
<title>x14</title>
<path fill="none" stroke="#d95f02" d="M770,-174C770,-174 808.5,-174 808.5,-174 814.5,-174 820.5,-180 820.5,-186 820.5,-186 820.5,-198 820.5,-198 820.5,-204 814.5,-210 808.5,-210 808.5,-210 770,-210 770,-210 764,-210 758,-204 758,-198 758,-198 758,-186 758,-186 758,-180 764,-174 770,-174"/>
<text xml:space="preserve" text-anchor="middle" x="789.25" y="-187.2" font-family="Times,serif" font-size="14.00" fill="#d95f02">3:3 &#45; 0:0</text>
</g>
<!-- n18&#45;&gt;x14 -->
<g id="edge58" class="edge">
<title>n18:e&#45;&gt;x14:w</title>
<path fill="none" stroke="#e7298a" d="M719.56,-907C795.21,-907 689.77,-260.35 747.73,-197.2"/>
<polygon fill="#e7298a" stroke="#e7298a" points="749.15,-200.4 756.64,-192.91 746.11,-194.09 749.15,-200.4"/>
</g>
<!-- x17 -->
<g id="node38" class="node">
<title>x17</title>
<path fill="none" stroke="#1b9e77" d="M770,-1390C770,-1390 808.5,-1390 808.5,-1390 814.5,-1390 820.5,-1396 820.5,-1402 820.5,-1402 820.5,-1414 820.5,-1414 820.5,-1420 814.5,-1426 808.5,-1426 808.5,-1426 770,-1426 770,-1426 764,-1426 758,-1420 758,-1414 758,-1414 758,-1402 758,-1402 758,-1396 764,-1390 770,-1390"/>
<text xml:space="preserve" text-anchor="middle" x="789.25" y="-1403.2" font-family="Times,serif" font-size="14.00" fill="#1b9e77">2:2 &#45; 0:0</text>
</g>
<!-- n18&#45;&gt;x17 -->
<g id="edge59" class="edge">
<title>n18:e&#45;&gt;x17:w</title>
<path fill="none" stroke="#e7298a" d="M719.56,-907C827.13,-907 659.61,-1371.74 746.76,-1406.23"/>
<polygon fill="#e7298a" stroke="#e7298a" points="746.05,-1409.66 756.51,-1407.98 747.29,-1402.77 746.05,-1409.66"/>
</g>
<!-- x20 -->
<g id="node43" class="node">
<title>x20</title>
<path fill="none" stroke="#a6761d" d="M770,-1484C770,-1484 808.5,-1484 808.5,-1484 814.5,-1484 820.5,-1490 820.5,-1496 820.5,-1496 820.5,-1508 820.5,-1508 820.5,-1514 814.5,-1520 808.5,-1520 808.5,-1520 770,-1520 770,-1520 764,-1520 758,-1514 758,-1508 758,-1508 758,-1496 758,-1496 758,-1490 764,-1484 770,-1484"/>
<text xml:space="preserve" text-anchor="middle" x="789.25" y="-1497.2" font-family="Times,serif" font-size="14.00" fill="#a6761d">1:1 &#45; 0:0</text>
</g>
<!-- n18&#45;&gt;x20 -->
<g id="edge60" class="edge">
<title>n18:e&#45;&gt;x20:w</title>
<path fill="none" stroke="#e7298a" d="M719.56,-907C782.09,-907 701.87,-1436.73 748.22,-1496.74"/>
<polygon fill="#e7298a" stroke="#e7298a" points="746.25,-1499.64 756.68,-1501.51 749.69,-1493.55 746.25,-1499.64"/>
</g>
<!-- x24 -->
<g id="node50" class="node">
<title>x24</title>
<path fill="none" stroke="#1b9e77" d="M770,-67.5C770,-67.5 808.5,-67.5 808.5,-67.5 814.5,-67.5 820.5,-73.5 820.5,-79.5 820.5,-79.5 820.5,-104.5 820.5,-104.5 820.5,-110.5 814.5,-116.5 808.5,-116.5 808.5,-116.5 770,-116.5 770,-116.5 764,-116.5 758,-110.5 758,-104.5 758,-104.5 758,-79.5 758,-79.5 758,-73.5 764,-67.5 770,-67.5"/>
<text xml:space="preserve" text-anchor="middle" x="789.25" y="-99.2" font-family="Times,serif" font-size="14.00" fill="#1b9e77">8:1 &#45; 8:1</text>
<polyline fill="none" stroke="#1b9e77" points="758,-92 820.5,-92"/>
<text xml:space="preserve" text-anchor="middle" x="789.25" y="-74.7" font-family="Times,serif" font-size="14.00" fill="#1b9e77">0:0 &#45; 0:0</text>
</g>
<!-- n18&#45;&gt;x24 -->
<g id="edge61" class="edge">
<title>n18:e&#45;&gt;x24:w</title>
<path fill="none" stroke="#e7298a" stroke-width="3" d="M719.56,-907C805.02,-907 680.32,-171.75 747.72,-108.57"/>
<polygon fill="#e7298a" stroke="#e7298a" stroke-width="3" points="745.95,-113.11 753.81,-106.01 743.24,-106.66 745.95,-113.11"/>
</g>
<!-- x25 -->
<g id="node53" class="node">
<title>x25</title>
<path fill="none" stroke="#66a61e" d="M770,-437C770,-437 808.5,-437 808.5,-437 814.5,-437 820.5,-443 820.5,-449 820.5,-449 820.5,-461 820.5,-461 820.5,-467 814.5,-473 808.5,-473 808.5,-473 770,-473 770,-473 764,-473 758,-467 758,-461 758,-461 758,-449 758,-449 758,-443 764,-437 770,-437"/>
<text xml:space="preserve" text-anchor="middle" x="789.25" y="-450.2" font-family="Times,serif" font-size="14.00" fill="#66a61e">7:7 &#45; 0:0</text>
</g>
<!-- n18&#45;&gt;x25 -->
<g id="edge62" class="edge">
<title>n18:e&#45;&gt;x25:w</title>
<path fill="none" stroke="#e7298a" d="M719.56,-907C816.18,-907 670.18,-491.55 746.9,-457.47"/>
<polygon fill="#e7298a" stroke="#e7298a" points="747.4,-460.94 756.52,-455.55 746.02,-454.07 747.4,-460.94"/>
</g>
<!-- x27 -->
<g id="node55" class="node">
<title>x27</title>
<path fill="none" stroke="#a6761d" d="M770,-866C770,-866 808.5,-866 808.5,-866 814.5,-866 820.5,-872 820.5,-878 820.5,-878 820.5,-890 820.5,-890 820.5,-896 814.5,-902 808.5,-902 808.5,-902 770,-902 770,-902 764,-902 758,-896 758,-890 758,-890 758,-878 758,-878 758,-872 764,-866 770,-866"/>
<text xml:space="preserve" text-anchor="middle" x="789.25" y="-879.2" font-family="Times,serif" font-size="14.00" fill="#a6761d">6:6 &#45; 0:0</text>
</g>
<!-- n18&#45;&gt;x27 -->
<g id="edge63" class="edge">
<title>n18:e&#45;&gt;x27:w</title>
<path fill="none" stroke="#e7298a" d="M719.56,-907C734.76,-907 737.58,-893.66 746.98,-887.41"/>
<polygon fill="#e7298a" stroke="#e7298a" points="747.9,-890.79 756.55,-884.67 745.97,-884.06 747.9,-890.79"/>
</g>
<!-- x29 -->
<g id="node57" class="node">
<title>x29</title>
<path fill="none" stroke="#7570b3" d="M770,-811C770,-811 808.5,-811 808.5,-811 814.5,-811 820.5,-817 820.5,-823 820.5,-823 820.5,-835 820.5,-835 820.5,-841 814.5,-847 808.5,-847 808.5,-847 770,-847 770,-847 764,-847 758,-841 758,-835 758,-835 758,-823 758,-823 758,-817 764,-811 770,-811"/>
<text xml:space="preserve" text-anchor="middle" x="789.25" y="-824.2" font-family="Times,serif" font-size="14.00" fill="#7570b3">5:5 &#45; 0:0</text>
</g>
<!-- n18&#45;&gt;x29 -->
<g id="edge64" class="edge">
<title>n18:e&#45;&gt;x29:w</title>
<path fill="none" stroke="#e7298a" d="M719.56,-907C753.44,-907 727.68,-846.94 747.12,-832.39"/>
<polygon fill="#e7298a" stroke="#e7298a" points="747.91,-835.81 756.55,-829.67 745.97,-829.08 747.91,-835.81"/>
</g>
<!-- x31 -->
<g id="node59" class="node">
<title>x31</title>
<path fill="none" stroke="#e6ab02" d="M770,-382C770,-382 808.5,-382 808.5,-382 814.5,-382 820.5,-388 820.5,-394 820.5,-394 820.5,-406 820.5,-406 820.5,-412 814.5,-418 808.5,-418 808.5,-418 770,-418 770,-418 764,-418 758,-412 758,-406 758,-406 758,-394 758,-394 758,-388 764,-382 770,-382"/>
<text xml:space="preserve" text-anchor="middle" x="789.25" y="-395.2" font-family="Times,serif" font-size="14.00" fill="#e6ab02">4:4 &#45; 0:0</text>
</g>
<!-- n18&#45;&gt;x31 -->
<g id="edge66" class="edge">
<title>n18:e&#45;&gt;x31:w</title>
<path fill="none" stroke="#e7298a" d="M719.56,-907C828.42,-907 658.22,-436.21 746.91,-402.19"/>
<polygon fill="#e7298a" stroke="#e7298a" points="747.26,-405.68 756.51,-400.51 746.06,-398.78 747.26,-405.68"/>
</g>
<!-- x33 -->
<g id="node61" class="node">
<title>x33</title>
<path fill="none" stroke="#7570b3" d="M770,-1258C770,-1258 808.5,-1258 808.5,-1258 814.5,-1258 820.5,-1264 820.5,-1270 820.5,-1270 820.5,-1282 820.5,-1282 820.5,-1288 814.5,-1294 808.5,-1294 808.5,-1294 770,-1294 770,-1294 764,-1294 758,-1288 758,-1282 758,-1282 758,-1270 758,-1270 758,-1264 764,-1258 770,-1258"/>
<text xml:space="preserve" text-anchor="middle" x="789.25" y="-1271.2" font-family="Times,serif" font-size="14.00" fill="#7570b3">3:3 &#45; 0:0</text>
</g>
<!-- n18&#45;&gt;x33 -->
<g id="edge67" class="edge">
<title>n18:e&#45;&gt;x33:w</title>
<path fill="none" stroke="#e7298a" d="M719.56,-907C797.87,-907 687.82,-1239.7 746.99,-1273.49"/>
<polygon fill="#e7298a" stroke="#e7298a" points="745.98,-1276.84 756.53,-1275.88 747.68,-1270.05 745.98,-1276.84"/>
</g>
<!-- x35 -->
<g id="node63" class="node">
<title>x35</title>
<path fill="none" stroke="#d95f02" d="M770,-1730C770,-1730 808.5,-1730 808.5,-1730 814.5,-1730 820.5,-1736 820.5,-1742 820.5,-1742 820.5,-1754 820.5,-1754 820.5,-1760 814.5,-1766 808.5,-1766 808.5,-1766 770,-1766 770,-1766 764,-1766 758,-1760 758,-1754 758,-1754 758,-1742 758,-1742 758,-1736 764,-1730 770,-1730"/>
<text xml:space="preserve" text-anchor="middle" x="789.25" y="-1743.2" font-family="Times,serif" font-size="14.00" fill="#d95f02">2:2 &#45; 0:0</text>
</g>
<!-- n18&#45;&gt;x35 -->
<g id="edge68" class="edge">
<title>n18:e&#45;&gt;x35:w</title>
<path fill="none" stroke="#e7298a" d="M719.56,-907C809.29,-907 676.22,-1680.66 747.68,-1744.12"/>
<polygon fill="#e7298a" stroke="#e7298a" points="746.01,-1747.22 756.59,-1747.69 748.61,-1740.72 746.01,-1747.22"/>
</g>
<!-- x37 -->
<g id="node65" class="node">
<title>x37</title>
<path fill="none" stroke="#d95f02" d="M770,-1109C770,-1109 808.5,-1109 808.5,-1109 814.5,-1109 820.5,-1115 820.5,-1121 820.5,-1121 820.5,-1133 820.5,-1133 820.5,-1139 814.5,-1145 808.5,-1145 808.5,-1145 770,-1145 770,-1145 764,-1145 758,-1139 758,-1133 758,-1133 758,-1121 758,-1121 758,-1115 764,-1109 770,-1109"/>
<text xml:space="preserve" text-anchor="middle" x="789.25" y="-1122.2" font-family="Times,serif" font-size="14.00" fill="#d95f02">1:1 &#45; 0:0</text>
</g>
<!-- n18&#45;&gt;x37 -->
<g id="edge69" class="edge">
<title>n18:e&#45;&gt;x37:w</title>
<path fill="none" stroke="#e7298a" d="M719.56,-907C814.66,-907 671.93,-1108.73 746.59,-1126.06"/>
<polygon fill="#e7298a" stroke="#e7298a" points="746.19,-1129.54 756.49,-1127.09 746.91,-1122.58 746.19,-1129.54"/>
</g>
<!-- x40 -->
<g id="node68" class="node">
<title>x40</title>
<path fill="none" stroke="#e6ab02" d="M770,-1015C770,-1015 808.5,-1015 808.5,-1015 814.5,-1015 820.5,-1021 820.5,-1027 820.5,-1027 820.5,-1039 820.5,-1039 820.5,-1045 814.5,-1051 808.5,-1051 808.5,-1051 770,-1051 770,-1051 764,-1051 758,-1045 758,-1039 758,-1039 758,-1027 758,-1027 758,-1021 764,-1015 770,-1015"/>
<text xml:space="preserve" text-anchor="middle" x="789.25" y="-1028.2" font-family="Times,serif" font-size="14.00" fill="#e6ab02">8:8 &#45; 0:0</text>
</g>
<!-- n18&#45;&gt;x40 -->
<g id="edge70" class="edge">
<title>n18:e&#45;&gt;x40:w</title>
<path fill="none" stroke="#e7298a" d="M719.56,-907C773.86,-907 710.3,-1015.21 747.1,-1031.27"/>
<polygon fill="#e7298a" stroke="#e7298a" points="746.05,-1034.63 756.51,-1032.98 747.3,-1027.75 746.05,-1034.63"/>
</g>
<!-- x43 -->
<g id="node71" class="node">
<title>x43</title>
<path fill="none" stroke="#1b9e77" d="M770,-756C770,-756 808.5,-756 808.5,-756 814.5,-756 820.5,-762 820.5,-768 820.5,-768 820.5,-780 820.5,-780 820.5,-786 814.5,-792 808.5,-792 808.5,-792 770,-792 770,-792 764,-792 758,-786 758,-780 758,-780 758,-768 758,-768 758,-762 764,-756 770,-756"/>
<text xml:space="preserve" text-anchor="middle" x="789.25" y="-769.2" font-family="Times,serif" font-size="14.00" fill="#1b9e77">8:8 &#45; 0:0</text>
</g>
<!-- n18&#45;&gt;x43 -->
<g id="edge71" class="edge">
<title>n18:e&#45;&gt;x43:w</title>
<path fill="none" stroke="#e7298a" d="M719.56,-907C776.67,-907 707.73,-792.26 747.11,-776.13"/>
<polygon fill="#e7298a" stroke="#e7298a" points="747.25,-779.65 756.51,-774.51 746.06,-772.76 747.25,-779.65"/>
</g>
<!-- n19 -->
<g id="node2" class="node">
<title>n19</title>
<polygon fill="none" stroke="black" points="246.75,-1672 219.75,-1654 246.75,-1636 273.75,-1654 246.75,-1672"/>
<text xml:space="preserve" text-anchor="middle" x="246.75" y="-1648.95" font-family="Times,serif" font-size="14.00">g</text>
</g>
<!-- x1 -->
<g id="node11" class="node">
<title>x1</title>
<path fill="none" stroke="#66a61e" d="M573,-1730C573,-1730 611.5,-1730 611.5,-1730 617.5,-1730 623.5,-1736 623.5,-1742 623.5,-1742 623.5,-1754 623.5,-1754 623.5,-1760 617.5,-1766 611.5,-1766 611.5,-1766 573,-1766 573,-1766 567,-1766 561,-1760 561,-1754 561,-1754 561,-1742 561,-1742 561,-1736 567,-1730 573,-1730"/>
<text xml:space="preserve" text-anchor="middle" x="592.25" y="-1743.2" font-family="Times,serif" font-size="14.00" fill="#66a61e">7:7 &#45; 0:0</text>
</g>
<!-- n19&#45;&gt;x1 -->
<g id="edge79" class="edge">
<title>n19:e&#45;&gt;x1:w</title>
<path fill="none" stroke="#a6761d" d="M273.75,-1654C305.23,-1654 283.5,-1697.63 309.75,-1715 353.87,-1744.2 487.13,-1747.88 549.8,-1748.22"/>
<polygon fill="#a6761d" stroke="#a6761d" points="549.48,-1751.72 559.49,-1748.25 549.5,-1744.72 549.48,-1751.72"/>
</g>
<!-- x4 -->
<g id="node16" class="node">
<title>x4</title>
<path fill="none" stroke="#7570b3" d="M573,-586C573,-586 611.5,-586 611.5,-586 617.5,-586 623.5,-592 623.5,-598 623.5,-598 623.5,-610 623.5,-610 623.5,-616 617.5,-622 611.5,-622 611.5,-622 573,-622 573,-622 567,-622 561,-616 561,-610 561,-610 561,-598 561,-598 561,-592 567,-586 573,-586"/>
<text xml:space="preserve" text-anchor="middle" x="592.25" y="-599.2" font-family="Times,serif" font-size="14.00" fill="#7570b3">6:6 &#45; 0:0</text>
</g>
<!-- n19&#45;&gt;x4 -->
<g id="edge81" class="edge">
<title>n19:e&#45;&gt;x4:w</title>
<path fill="none" stroke="#a6761d" d="M273.75,-1654C333.84,-1654 296.5,-1444.61 309.75,-1386 389.35,-1033.77 200.1,-613.18 549.69,-604.39"/>
<polygon fill="#a6761d" stroke="#a6761d" points="549.53,-607.89 559.49,-604.27 549.44,-600.89 549.53,-607.89"/>
</g>
<!-- x7 -->
<g id="node21" class="node">
<title>x7</title>
<path fill="none" stroke="#7570b3" d="M671.5,-1636C671.5,-1636 710,-1636 710,-1636 716,-1636 722,-1642 722,-1648 722,-1648 722,-1660 722,-1660 722,-1666 716,-1672 710,-1672 710,-1672 671.5,-1672 671.5,-1672 665.5,-1672 659.5,-1666 659.5,-1660 659.5,-1660 659.5,-1648 659.5,-1648 659.5,-1642 665.5,-1636 671.5,-1636"/>
<text xml:space="preserve" text-anchor="middle" x="690.75" y="-1649.2" font-family="Times,serif" font-size="14.00" fill="#7570b3">5:5 &#45; 0:0</text>
</g>
<!-- n19&#45;&gt;x7 -->
<g id="edge82" class="edge">
<title>n19:e&#45;&gt;x7:w</title>
<path fill="none" stroke="#a6761d" d="M273.75,-1654C294.02,-1654 290.58,-1675.42 309.75,-1682 349.16,-1695.52 361.89,-1684.25 403.5,-1682 513.87,-1676.04 543.09,-1655.71 648.06,-1654.32"/>
<polygon fill="#a6761d" stroke="#a6761d" points="648.01,-1657.82 657.99,-1654.26 647.96,-1650.82 648.01,-1657.82"/>
</g>
<!-- x10 -->
<g id="node26" class="node">
<title>x10</title>
<path fill="none" stroke="#1b9e77" d="M463,-1236C463,-1236 501.5,-1236 501.5,-1236 507.5,-1236 513.5,-1242 513.5,-1248 513.5,-1248 513.5,-1260 513.5,-1260 513.5,-1266 507.5,-1272 501.5,-1272 501.5,-1272 463,-1272 463,-1272 457,-1272 451,-1266 451,-1260 451,-1260 451,-1248 451,-1248 451,-1242 457,-1236 463,-1236"/>
<text xml:space="preserve" text-anchor="middle" x="482.25" y="-1249.2" font-family="Times,serif" font-size="14.00" fill="#1b9e77">4:4 &#45; 0:0</text>
</g>
<!-- n19&#45;&gt;x10 -->
<g id="edge75" class="edge">
<title>n19:e&#45;&gt;x10:w</title>
<path fill="none" stroke="#a6761d" d="M273.75,-1654C306.83,-1654 390.77,-1416.54 403.5,-1386 425.77,-1332.61 393.01,-1264.35 438.64,-1255.26"/>
<polygon fill="#a6761d" stroke="#a6761d" points="438.84,-1258.76 448.49,-1254.38 438.22,-1251.79 438.84,-1258.76"/>
</g>
<!-- x13 -->
<g id="node31" class="node">
<title>x13</title>
<path fill="none" stroke="#d95f02" d="M671.5,-306C671.5,-306 710,-306 710,-306 716,-306 722,-312 722,-318 722,-318 722,-330 722,-330 722,-336 716,-342 710,-342 710,-342 671.5,-342 671.5,-342 665.5,-342 659.5,-336 659.5,-330 659.5,-330 659.5,-318 659.5,-318 659.5,-312 665.5,-306 671.5,-306"/>
<text xml:space="preserve" text-anchor="middle" x="690.75" y="-319.2" font-family="Times,serif" font-size="14.00" fill="#d95f02">3:3 &#45; 0:0</text>
</g>
<!-- n19&#45;&gt;x13 -->
<g id="edge76" class="edge">
<title>n19:e&#45;&gt;x13:w</title>
<path fill="none" stroke="#a6761d" d="M273.75,-1654C329.73,-1654 286.38,-697.87 309.75,-647 396.45,-458.27 446.17,-328.99 648.19,-324.38"/>
<polygon fill="#a6761d" stroke="#a6761d" points="648.03,-327.88 657.99,-324.27 647.95,-320.88 648.03,-327.88"/>
</g>
<!-- x16 -->
<g id="node36" class="node">
<title>x16</title>
<path fill="none" stroke="#1b9e77" d="M463,-1768C463,-1768 501.5,-1768 501.5,-1768 507.5,-1768 513.5,-1774 513.5,-1780 513.5,-1780 513.5,-1792 513.5,-1792 513.5,-1798 507.5,-1804 501.5,-1804 501.5,-1804 463,-1804 463,-1804 457,-1804 451,-1798 451,-1792 451,-1792 451,-1780 451,-1780 451,-1774 457,-1768 463,-1768"/>
<text xml:space="preserve" text-anchor="middle" x="482.25" y="-1781.2" font-family="Times,serif" font-size="14.00" fill="#1b9e77">2:2 &#45; 0:0</text>
</g>
<!-- n19&#45;&gt;x16 -->
<g id="edge77" class="edge">
<title>n19:e&#45;&gt;x16:w</title>
<path fill="none" stroke="#a6761d" d="M273.75,-1654C320.57,-1654 274.78,-1721.87 309.75,-1753 354.7,-1793.02 382.44,-1787.19 438.74,-1786.34"/>
<polygon fill="#a6761d" stroke="#a6761d" points="438.51,-1789.84 448.49,-1786.26 438.46,-1782.84 438.51,-1789.84"/>
</g>
<!-- x19 -->
<g id="node41" class="node">
<title>x19</title>
<path fill="none" stroke="#666666" d="M337.38,-1811C337.38,-1811 375.88,-1811 375.88,-1811 381.88,-1811 387.88,-1817 387.88,-1823 387.88,-1823 387.88,-1835 387.88,-1835 387.88,-1841 381.88,-1847 375.88,-1847 375.88,-1847 337.38,-1847 337.38,-1847 331.38,-1847 325.38,-1841 325.38,-1835 325.38,-1835 325.38,-1823 325.38,-1823 325.38,-1817 331.38,-1811 337.38,-1811"/>
<text xml:space="preserve" text-anchor="middle" x="356.62" y="-1824.2" font-family="Times,serif" font-size="14.00" fill="#666666">1:1 &#45; 0:0</text>
</g>
<!-- n19&#45;&gt;x19 -->
<g id="edge78" class="edge">
<title>n19:e&#45;&gt;x19:w</title>
<path fill="none" stroke="#a6761d" d="M273.75,-1654C350.55,-1654 254.53,-1811.25 313.1,-1827.84"/>
<polygon fill="#a6761d" stroke="#a6761d" points="312.52,-1831.29 322.87,-1829.06 313.39,-1824.35 312.52,-1831.29"/>
</g>
<!-- x22 -->
<g id="node46" class="node">
<title>x22</title>
<path fill="none" stroke="#a6761d" d="M337.38,-1636C337.38,-1636 375.88,-1636 375.88,-1636 381.88,-1636 387.88,-1642 387.88,-1648 387.88,-1648 387.88,-1660 387.88,-1660 387.88,-1666 381.88,-1672 375.88,-1672 375.88,-1672 337.38,-1672 337.38,-1672 331.38,-1672 325.38,-1666 325.38,-1660 325.38,-1660 325.38,-1648 325.38,-1648 325.38,-1642 331.38,-1636 337.38,-1636"/>
<text xml:space="preserve" text-anchor="middle" x="356.62" y="-1649.2" font-family="Times,serif" font-size="14.00" fill="#a6761d">0:0 &#45; 0:0</text>
</g>
<!-- n19&#45;&gt;x22 -->
<g id="edge80" class="edge">
<title>n19:e&#45;&gt;x22:w</title>
<path fill="none" stroke="#a6761d" d="M273.75,-1654C291.86,-1654 299.03,-1654.16 312.87,-1654.23"/>
<polygon fill="#a6761d" stroke="#a6761d" points="312.85,-1657.72 322.86,-1654.25 312.87,-1650.73 312.85,-1657.72"/>
</g>
<!-- n20 -->
<g id="node3" class="node">
<title>n20</title>
<polygon fill="none" stroke="black" points="246.75,-883 219.75,-865 246.75,-847 273.75,-865 246.75,-883"/>
<text xml:space="preserve" text-anchor="middle" x="246.75" y="-859.95" font-family="Times,serif" font-size="14.00">p</text>
</g>
<!-- c30 -->
<g id="node12" class="node">
<title>c30</title>
<polygon fill="none" stroke="black" points="856.5,-1208.5 856.5,-1257.5 950.25,-1257.5 950.25,-1208.5 856.5,-1208.5"/>
<text xml:space="preserve" text-anchor="middle" x="869.37" y="-1240.2" font-family="Times,serif" font-size="14.00">A</text>
<polyline fill="none" stroke="black" points="856.5,-1233 882.25,-1233"/>
<text xml:space="preserve" text-anchor="middle" x="869.37" y="-1215.7" font-family="Times,serif" font-size="14.00">B</text>
<polyline fill="none" stroke="black" points="882.25,-1208.5 882.25,-1257.5"/>
<text xml:space="preserve" text-anchor="middle" x="903.37" y="-1236.2" font-family="Times,serif" font-size="14.00">$20</text>
<text xml:space="preserve" text-anchor="middle" x="903.37" y="-1219.7" font-family="Times,serif" font-size="14.00">$and</text>
<polyline fill="none" stroke="black" points="924.5,-1208.5 924.5,-1257.5"/>
<text xml:space="preserve" text-anchor="middle" x="937.37" y="-1228.2" font-family="Times,serif" font-size="14.00">Y</text>
</g>
<!-- n20&#45;&gt;c30 -->
<g id="edge85" class="edge">
<title>n20:e&#45;&gt;c30:w</title>
<path fill="none" stroke="#e6ab02" stroke-width="3" d="M273.75,-865C307.38,-865 299.95,-979.83 309.75,-1012 358.59,-1172.29 328.59,-1240.39 439.5,-1366 544.88,-1485.35 603.26,-1492.5 758,-1530 785,-1536.54 799.66,-1548.37 820.5,-1530 865.17,-1490.62 802.22,-1276.58 845.56,-1248.33"/>
<polygon fill="#e6ab02" stroke="#e6ab02" stroke-width="3" points="843.45,-1252.56 852.13,-1246.48 841.55,-1245.82 843.45,-1252.56"/>
</g>
<!-- c32 -->
<g id="node17" class="node">
<title>c32</title>
<polygon fill="none" stroke="black" points="856.5,-457.5 856.5,-506.5 950.25,-506.5 950.25,-457.5 856.5,-457.5"/>
<text xml:space="preserve" text-anchor="middle" x="869.37" y="-489.2" font-family="Times,serif" font-size="14.00">A</text>
<polyline fill="none" stroke="black" points="856.5,-482 882.25,-482"/>
<text xml:space="preserve" text-anchor="middle" x="869.37" y="-464.7" font-family="Times,serif" font-size="14.00">B</text>
<polyline fill="none" stroke="black" points="882.25,-457.5 882.25,-506.5"/>
<text xml:space="preserve" text-anchor="middle" x="903.37" y="-485.2" font-family="Times,serif" font-size="14.00">$18</text>
<text xml:space="preserve" text-anchor="middle" x="903.37" y="-468.7" font-family="Times,serif" font-size="14.00">$and</text>
<polyline fill="none" stroke="black" points="924.5,-457.5 924.5,-506.5"/>
<text xml:space="preserve" text-anchor="middle" x="937.37" y="-477.2" font-family="Times,serif" font-size="14.00">Y</text>
</g>
<!-- n20&#45;&gt;c32 -->
<g id="edge86" class="edge">
<title>n20:e&#45;&gt;c32:w</title>
<path fill="none" stroke="#e6ab02" stroke-width="3" d="M273.75,-865C318.93,-865 291.29,-501.24 309.75,-460 355.28,-358.26 369.78,-277 481.25,-277 481.25,-277 481.25,-277 691.75,-277 759.12,-277 780.5,-302.79 820.5,-357 855.38,-404.28 801.78,-482.59 845.28,-493.08"/>
<polygon fill="#e6ab02" stroke="#e6ab02" stroke-width="3" points="841.67,-496.22 851.98,-493.78 842.4,-489.26 841.67,-496.22"/>
</g>
<!-- c34 -->
<g id="node22" class="node">
<title>c34</title>
<polygon fill="none" stroke="black" points="856.5,-964.5 856.5,-1013.5 950.25,-1013.5 950.25,-964.5 856.5,-964.5"/>
<text xml:space="preserve" text-anchor="middle" x="869.37" y="-996.2" font-family="Times,serif" font-size="14.00">A</text>
<polyline fill="none" stroke="black" points="856.5,-989 882.25,-989"/>
<text xml:space="preserve" text-anchor="middle" x="869.37" y="-971.7" font-family="Times,serif" font-size="14.00">B</text>
<polyline fill="none" stroke="black" points="882.25,-964.5 882.25,-1013.5"/>
<text xml:space="preserve" text-anchor="middle" x="903.37" y="-992.2" font-family="Times,serif" font-size="14.00">$16</text>
<text xml:space="preserve" text-anchor="middle" x="903.37" y="-975.7" font-family="Times,serif" font-size="14.00">$and</text>
<polyline fill="none" stroke="black" points="924.5,-964.5 924.5,-1013.5"/>
<text xml:space="preserve" text-anchor="middle" x="937.37" y="-984.2" font-family="Times,serif" font-size="14.00">Y</text>
</g>
<!-- n20&#45;&gt;c34 -->
<g id="edge87" class="edge">
<title>n20:e&#45;&gt;c34:w</title>
<path fill="none" stroke="#e6ab02" stroke-width="3" d="M273.75,-865C439.17,-865 315.83,-1174 481.25,-1174 481.25,-1174 481.25,-1174 691.75,-1174 749.59,-1174 777.93,-1194.16 820.5,-1155 868.93,-1110.46 796.51,-1014.3 845.1,-1002.45"/>
<polygon fill="#e6ab02" stroke="#e6ab02" stroke-width="3" points="842.41,-1006.26 851.98,-1001.73 841.67,-999.3 842.41,-1006.26"/>
</g>
<!-- c36 -->
<g id="node27" class="node">
<title>c36</title>
<polygon fill="none" stroke="black" points="856.5,-606.5 856.5,-655.5 950.25,-655.5 950.25,-606.5 856.5,-606.5"/>
<text xml:space="preserve" text-anchor="middle" x="869.37" y="-638.2" font-family="Times,serif" font-size="14.00">A</text>
<polyline fill="none" stroke="black" points="856.5,-631 882.25,-631"/>
<text xml:space="preserve" text-anchor="middle" x="869.37" y="-613.7" font-family="Times,serif" font-size="14.00">B</text>
<polyline fill="none" stroke="black" points="882.25,-606.5 882.25,-655.5"/>
<text xml:space="preserve" text-anchor="middle" x="903.37" y="-634.2" font-family="Times,serif" font-size="14.00">$14</text>
<text xml:space="preserve" text-anchor="middle" x="903.37" y="-617.7" font-family="Times,serif" font-size="14.00">$and</text>
<polyline fill="none" stroke="black" points="924.5,-606.5 924.5,-655.5"/>
<text xml:space="preserve" text-anchor="middle" x="937.37" y="-626.2" font-family="Times,serif" font-size="14.00">Y</text>
</g>
<!-- n20&#45;&gt;c36 -->
<g id="edge88" class="edge">
<title>n20:e&#45;&gt;c36:w</title>
<path fill="none" stroke="#e6ab02" stroke-width="3" d="M273.75,-865C438.81,-865 316.19,-557 481.25,-557 481.25,-557 481.25,-557 691.75,-557 770.53,-557 773.72,-635.35 845.41,-642.7"/>
<polygon fill="#e6ab02" stroke="#e6ab02" stroke-width="3" points="841.8,-646.02 851.96,-643.02 842.15,-639.03 841.8,-646.02"/>
</g>
<!-- c38 -->
<g id="node32" class="node">
<title>c38</title>
<polygon fill="none" stroke="black" points="856.5,-161.5 856.5,-210.5 950.25,-210.5 950.25,-161.5 856.5,-161.5"/>
<text xml:space="preserve" text-anchor="middle" x="869.37" y="-193.2" font-family="Times,serif" font-size="14.00">A</text>
<polyline fill="none" stroke="black" points="856.5,-186 882.25,-186"/>
<text xml:space="preserve" text-anchor="middle" x="869.37" y="-168.7" font-family="Times,serif" font-size="14.00">B</text>
<polyline fill="none" stroke="black" points="882.25,-161.5 882.25,-210.5"/>
<text xml:space="preserve" text-anchor="middle" x="903.37" y="-189.2" font-family="Times,serif" font-size="14.00">$12</text>
<text xml:space="preserve" text-anchor="middle" x="903.37" y="-172.7" font-family="Times,serif" font-size="14.00">$and</text>
<polyline fill="none" stroke="black" points="924.5,-161.5 924.5,-210.5"/>
<text xml:space="preserve" text-anchor="middle" x="937.37" y="-181.2" font-family="Times,serif" font-size="14.00">Y</text>
</g>
<!-- n20&#45;&gt;c38 -->
<g id="edge89" class="edge">
<title>n20:e&#45;&gt;c38:w</title>
<path fill="none" stroke="#e6ab02" stroke-width="3" d="M273.75,-865C337.1,-865 270.22,-345.5 309.75,-296 342.15,-255.43 706.61,-171.41 758,-164 785.49,-160.04 794.71,-153.69 820.5,-164 836.52,-170.4 836,-187.71 845.54,-194.97"/>
<polygon fill="#e6ab02" stroke="#e6ab02" stroke-width="3" points="841.57,-197.43 852.15,-196.95 843.57,-190.73 841.57,-197.43"/>
</g>
<!-- c40 -->
<g id="node37" class="node">
<title>c40</title>
<polygon fill="none" stroke="black" points="856.5,-1377.5 856.5,-1426.5 950.25,-1426.5 950.25,-1377.5 856.5,-1377.5"/>
<text xml:space="preserve" text-anchor="middle" x="869.37" y="-1409.2" font-family="Times,serif" font-size="14.00">A</text>
<polyline fill="none" stroke="black" points="856.5,-1402 882.25,-1402"/>
<text xml:space="preserve" text-anchor="middle" x="869.37" y="-1384.7" font-family="Times,serif" font-size="14.00">B</text>
<polyline fill="none" stroke="black" points="882.25,-1377.5 882.25,-1426.5"/>
<text xml:space="preserve" text-anchor="middle" x="903.37" y="-1405.2" font-family="Times,serif" font-size="14.00">$10</text>
<text xml:space="preserve" text-anchor="middle" x="903.37" y="-1388.7" font-family="Times,serif" font-size="14.00">$and</text>
<polyline fill="none" stroke="black" points="924.5,-1377.5 924.5,-1426.5"/>
<text xml:space="preserve" text-anchor="middle" x="937.37" y="-1397.2" font-family="Times,serif" font-size="14.00">Y</text>
</g>
<!-- n20&#45;&gt;c40 -->
<g id="edge90" class="edge">
<title>n20:e&#45;&gt;c40:w</title>
<path fill="none" stroke="#e6ab02" stroke-width="3" d="M273.75,-865C308.98,-865 299.18,-1146.39 309.75,-1180 346.13,-1295.67 356.52,-1331.59 439.5,-1420 500.67,-1485.18 749.6,-1603.44 820.5,-1549 866.11,-1513.97 804.72,-1427.96 845.11,-1415.71"/>
<polygon fill="#e6ab02" stroke="#e6ab02" stroke-width="3" points="842.52,-1419.57 852,-1414.83 841.63,-1412.63 842.52,-1419.57"/>
</g>
<!-- c42 -->
<g id="node42" class="node">
<title>c42</title>
<polygon fill="none" stroke="black" points="856.5,-1585.5 856.5,-1634.5 950.25,-1634.5 950.25,-1585.5 856.5,-1585.5"/>
<text xml:space="preserve" text-anchor="middle" x="869.37" y="-1617.2" font-family="Times,serif" font-size="14.00">A</text>
<polyline fill="none" stroke="black" points="856.5,-1610 882.25,-1610"/>
<text xml:space="preserve" text-anchor="middle" x="869.37" y="-1592.7" font-family="Times,serif" font-size="14.00">B</text>
<polyline fill="none" stroke="black" points="882.25,-1585.5 882.25,-1634.5"/>
<text xml:space="preserve" text-anchor="middle" x="903.37" y="-1613.2" font-family="Times,serif" font-size="14.00">$8</text>
<text xml:space="preserve" text-anchor="middle" x="903.37" y="-1596.7" font-family="Times,serif" font-size="14.00">$and</text>
<polyline fill="none" stroke="black" points="924.5,-1585.5 924.5,-1634.5"/>
<text xml:space="preserve" text-anchor="middle" x="937.37" y="-1605.2" font-family="Times,serif" font-size="14.00">Y</text>
</g>
<!-- n20&#45;&gt;c42 -->
<g id="edge91" class="edge">
<title>n20:e&#45;&gt;c42:w</title>
<path fill="none" stroke="#e6ab02" stroke-width="3" d="M273.75,-865C321.47,-865 296.02,-1247.3 309.75,-1293 355.51,-1445.29 322.24,-1607 481.25,-1607 481.25,-1607 481.25,-1607 593.25,-1607 706.55,-1607 737.29,-1621.25 845.11,-1622.2"/>
<polygon fill="#e6ab02" stroke="#e6ab02" stroke-width="3" points="841.94,-1625.69 851.96,-1622.23 841.97,-1618.69 841.94,-1625.69"/>
</g>
<!-- c44 -->
<g id="node47" class="node">
<title>c44</title>
<polygon fill="none" stroke="black" points="309.75,-123.5 309.75,-172.5 403.5,-172.5 403.5,-123.5 309.75,-123.5"/>
<text xml:space="preserve" text-anchor="middle" x="322.62" y="-155.2" font-family="Times,serif" font-size="14.00">A</text>
<polyline fill="none" stroke="black" points="309.75,-148 335.5,-148"/>
<text xml:space="preserve" text-anchor="middle" x="322.62" y="-130.7" font-family="Times,serif" font-size="14.00">B</text>
<polyline fill="none" stroke="black" points="335.5,-123.5 335.5,-172.5"/>
<text xml:space="preserve" text-anchor="middle" x="356.62" y="-151.2" font-family="Times,serif" font-size="14.00">$6</text>
<text xml:space="preserve" text-anchor="middle" x="356.62" y="-134.7" font-family="Times,serif" font-size="14.00">$and</text>
<polyline fill="none" stroke="black" points="377.75,-123.5 377.75,-172.5"/>
<text xml:space="preserve" text-anchor="middle" x="390.62" y="-143.2" font-family="Times,serif" font-size="14.00">Y</text>
</g>
<!-- n20&#45;&gt;c44 -->
<g id="edge92" class="edge">
<title>n20:e&#45;&gt;c44:w</title>
<path fill="none" stroke="#e6ab02" stroke-width="3" d="M273.75,-865C348.33,-865 242.67,-227.39 299.64,-165.13"/>
<polygon fill="#e6ab02" stroke="#e6ab02" stroke-width="3" points="298.18,-169.72 305.66,-162.22 295.13,-163.42 298.18,-169.72"/>
</g>
<!-- c45 -->
<g id="node48" class="node">
<title>c45</title>
<polygon fill="none" stroke="black" points="857.25,-41.5 857.25,-90.5 949.5,-90.5 949.5,-41.5 857.25,-41.5"/>
<text xml:space="preserve" text-anchor="middle" x="870.12" y="-73.2" font-family="Times,serif" font-size="14.00">A</text>
<polyline fill="none" stroke="black" points="857.25,-66 883,-66"/>
<text xml:space="preserve" text-anchor="middle" x="870.12" y="-48.7" font-family="Times,serif" font-size="14.00">B</text>
<polyline fill="none" stroke="black" points="883,-41.5 883,-90.5"/>
<text xml:space="preserve" text-anchor="middle" x="903.37" y="-69.2" font-family="Times,serif" font-size="14.00">$5</text>
<text xml:space="preserve" text-anchor="middle" x="903.37" y="-52.7" font-family="Times,serif" font-size="14.00">$xor</text>
<polyline fill="none" stroke="black" points="923.75,-41.5 923.75,-90.5"/>
<text xml:space="preserve" text-anchor="middle" x="936.62" y="-61.2" font-family="Times,serif" font-size="14.00">Y</text>
</g>
<!-- n20&#45;&gt;c45 -->
<g id="edge93" class="edge">
<title>n20:e&#45;&gt;c45:w</title>
<path fill="none" stroke="#e6ab02" stroke-width="3" d="M273.75,-865C342.2,-865 276.88,-310.04 309.75,-250 334.47,-204.85 363.63,-214.56 403.5,-182 420.31,-168.27 420.56,-159.6 439.5,-149 602.08,-58.03 663.91,-53.88 845.24,-53.75"/>
<polygon fill="#e6ab02" stroke="#e6ab02" stroke-width="3" points="841.96,-57.25 851.96,-53.75 841.96,-50.25 841.96,-57.25"/>
</g>
<!-- n21 -->
<g id="node4" class="node">
<title>n21</title>
<polygon fill="none" stroke="black" points="932.37,-766.54 932.37,-781.46 915.38,-792 891.37,-792 874.38,-781.46 874.38,-766.54 891.37,-756 915.38,-756 932.37,-766.54"/>
<text xml:space="preserve" text-anchor="middle" x="903.37" y="-768.95" font-family="Times,serif" font-size="14.00">cout</text>
</g>
<!-- n22 -->
<g id="node5" class="node">
<title>n22</title>
<polygon fill="none" stroke="black" points="1169.29,-35.54 1169.29,-50.46 1153.47,-61 1131.1,-61 1115.29,-50.46 1115.29,-35.54 1131.1,-25 1153.47,-25 1169.29,-35.54"/>
<text xml:space="preserve" text-anchor="middle" x="1142.29" y="-37.95" font-family="Times,serif" font-size="14.00">s</text>
</g>
<!-- x39 -->
<g id="node67" class="node">
<title>x39</title>
<path fill="none" stroke="#e6ab02" d="M1241.19,-25C1241.19,-25 1279.69,-25 1279.69,-25 1285.69,-25 1291.69,-31 1291.69,-37 1291.69,-37 1291.69,-49 1291.69,-49 1291.69,-55 1285.69,-61 1279.69,-61 1279.69,-61 1241.19,-61 1241.19,-61 1235.19,-61 1229.19,-55 1229.19,-49 1229.19,-49 1229.19,-37 1229.19,-37 1229.19,-31 1235.19,-25 1241.19,-25"/>
<text xml:space="preserve" text-anchor="middle" x="1260.44" y="-38.2" font-family="Times,serif" font-size="14.00" fill="#e6ab02">7:0 &#45; 7:0</text>
</g>
<!-- n22&#45;&gt;x39 -->
<g id="edge96" class="edge">
<title>n22:e&#45;&gt;x39:w</title>
<path fill="none" stroke="#7570b3" stroke-width="3" d="M1170.54,-43C1191.96,-43 1199.95,-43 1216.96,-43"/>
<polygon fill="#7570b3" stroke="#7570b3" stroke-width="3" points="1213.65,-46.5 1223.65,-43 1213.65,-39.5 1213.65,-46.5"/>
</g>
<!-- n23 -->
<g id="node6" class="node">
<title>n23</title>
<polygon fill="none" stroke="black" points="273.75,-87.54 273.75,-102.46 257.93,-113 235.57,-113 219.75,-102.46 219.75,-87.54 235.57,-77 257.93,-77 273.75,-87.54"/>
<text xml:space="preserve" text-anchor="middle" x="246.75" y="-89.95" font-family="Times,serif" font-size="14.00">cin</text>
</g>
<!-- n23&#45;&gt;c44 -->
<g id="edge97" class="edge">
<title>n23:e&#45;&gt;c44:w</title>
<path fill="none" stroke="#d95f02" d="M273.75,-95C293.2,-95 289.01,-121.39 299.22,-131.69"/>
<polygon fill="#d95f02" stroke="#d95f02" points="297.75,-134.88 308.34,-135.21 300.26,-128.34 297.75,-134.88"/>
</g>
<!-- n23&#45;&gt;x24 -->
<g id="edge98" class="edge">
<title>n23:e&#45;&gt;x24:w</title>
<path fill="none" stroke="#d95f02" d="M273.75,-95C289.97,-95 293.6,-90.5 309.75,-89 504.28,-70.88 556.7,-79.4 746.49,-79.74"/>
<polygon fill="#d95f02" stroke="#d95f02" points="746.48,-83.24 756.49,-79.75 746.49,-76.24 746.48,-83.24"/>
</g>
<!-- x42 -->
<g id="node70" class="node">
<title>x42</title>
<path fill="none" stroke="#1b9e77" d="M463,-159C463,-159 501.5,-159 501.5,-159 507.5,-159 513.5,-165 513.5,-171 513.5,-171 513.5,-183 513.5,-183 513.5,-189 507.5,-195 501.5,-195 501.5,-195 463,-195 463,-195 457,-195 451,-189 451,-183 451,-183 451,-171 451,-171 451,-165 457,-159 463,-159"/>
<text xml:space="preserve" text-anchor="middle" x="482.25" y="-172.2" font-family="Times,serif" font-size="14.00" fill="#1b9e77">0:0 &#45; 0:0</text>
</g>
<!-- n23&#45;&gt;x42 -->
<g id="edge99" class="edge">
<title>n23:e&#45;&gt;x42:w</title>
<path fill="none" stroke="#d95f02" d="M273.75,-95C332.03,-95 353.52,-84.03 403.5,-114 429.5,-129.59 419.08,-165.82 438.97,-174.91"/>
<polygon fill="#d95f02" stroke="#d95f02" points="438.04,-178.29 448.51,-176.72 439.34,-171.42 438.04,-178.29"/>
</g>
<!-- n24 -->
<g id="node7" class="node">
<title>n24</title>
<polygon fill="none" stroke="black" points="54,-1225.54 54,-1240.46 38.18,-1251 15.82,-1251 0,-1240.46 0,-1225.54 15.82,-1215 38.18,-1215 54,-1225.54"/>
<text xml:space="preserve" text-anchor="middle" x="27" y="-1227.95" font-family="Times,serif" font-size="14.00">b</text>
</g>
<!-- c46 -->
<g id="node51" class="node">
<title>c46</title>
<polygon fill="none" stroke="black" points="90,-1269.5 90,-1318.5 183.75,-1318.5 183.75,-1269.5 90,-1269.5"/>
<text xml:space="preserve" text-anchor="middle" x="102.88" y="-1301.2" font-family="Times,serif" font-size="14.00">A</text>
<polyline fill="none" stroke="black" points="90,-1294 115.75,-1294"/>
<text xml:space="preserve" text-anchor="middle" x="102.88" y="-1276.7" font-family="Times,serif" font-size="14.00">B</text>
<polyline fill="none" stroke="black" points="115.75,-1269.5 115.75,-1318.5"/>
<text xml:space="preserve" text-anchor="middle" x="136.88" y="-1297.2" font-family="Times,serif" font-size="14.00">$4</text>
<text xml:space="preserve" text-anchor="middle" x="136.88" y="-1280.7" font-family="Times,serif" font-size="14.00">$and</text>
<polyline fill="none" stroke="black" points="158,-1269.5 158,-1318.5"/>
<text xml:space="preserve" text-anchor="middle" x="170.88" y="-1289.2" font-family="Times,serif" font-size="14.00">Y</text>
</g>
<!-- n24&#45;&gt;c46 -->
<g id="edge100" class="edge">
<title>n24:e&#45;&gt;c46:w</title>
<path fill="none" stroke="#e6ab02" stroke-width="3" d="M54,-1233C76.09,-1233 68.04,-1265.8 79.3,-1277.59"/>
<polygon fill="#e6ab02" stroke="#e6ab02" stroke-width="3" points="75.18,-1279.75 85.77,-1280.11 77.71,-1273.22 75.18,-1279.75"/>
</g>
<!-- c47 -->
<g id="node52" class="node">
<title>c47</title>
<polygon fill="none" stroke="black" points="90.75,-1201.5 90.75,-1250.5 183,-1250.5 183,-1201.5 90.75,-1201.5"/>
<text xml:space="preserve" text-anchor="middle" x="103.62" y="-1233.2" font-family="Times,serif" font-size="14.00">A</text>
<polyline fill="none" stroke="black" points="90.75,-1226 116.5,-1226"/>
<text xml:space="preserve" text-anchor="middle" x="103.62" y="-1208.7" font-family="Times,serif" font-size="14.00">B</text>
<polyline fill="none" stroke="black" points="116.5,-1201.5 116.5,-1250.5"/>
<text xml:space="preserve" text-anchor="middle" x="136.88" y="-1229.2" font-family="Times,serif" font-size="14.00">$3</text>
<text xml:space="preserve" text-anchor="middle" x="136.88" y="-1212.7" font-family="Times,serif" font-size="14.00">$xor</text>
<polyline fill="none" stroke="black" points="157.25,-1201.5 157.25,-1250.5"/>
<text xml:space="preserve" text-anchor="middle" x="170.12" y="-1221.2" font-family="Times,serif" font-size="14.00">Y</text>
</g>
<!-- n24&#45;&gt;c47 -->
<g id="edge101" class="edge">
<title>n24:e&#45;&gt;c47:w</title>
<path fill="none" stroke="#e6ab02" stroke-width="3" d="M54,-1233C67.47,-1233 70.78,-1222.4 79.01,-1216.93"/>
<polygon fill="#e6ab02" stroke="#e6ab02" stroke-width="3" points="77,-1221.15 85.64,-1215.01 75.06,-1214.43 77,-1221.15"/>
</g>
<!-- n25 -->
<g id="node8" class="node">
<title>n25</title>
<polygon fill="none" stroke="black" points="54,-1288.54 54,-1303.46 38.18,-1314 15.82,-1314 0,-1303.46 0,-1288.54 15.82,-1278 38.18,-1278 54,-1288.54"/>
<text xml:space="preserve" text-anchor="middle" x="27" y="-1290.95" font-family="Times,serif" font-size="14.00">a</text>
</g>
<!-- n25&#45;&gt;c46 -->
<g id="edge102" class="edge">
<title>n25:e&#45;&gt;c46:w</title>
<path fill="none" stroke="#a6761d" stroke-width="3" d="M54,-1296C66.09,-1296 70.83,-1301.41 78.9,-1304.37"/>
<polygon fill="#a6761d" stroke="#a6761d" stroke-width="3" points="75.08,-1307.27 85.52,-1305.49 76.25,-1300.37 75.08,-1307.27"/>
</g>
<!-- n25&#45;&gt;c47 -->
<g id="edge103" class="edge">
<title>n25:e&#45;&gt;c47:w</title>
<path fill="none" stroke="#a6761d" stroke-width="3" d="M54,-1296C79.52,-1296 66.07,-1254.89 79.41,-1242.04"/>
<polygon fill="#a6761d" stroke="#a6761d" stroke-width="3" points="77.49,-1246.45 85.72,-1239.78 75.13,-1239.85 77.49,-1246.45"/>
</g>
<!-- c29 -->
<g id="node9" class="node">
<title>c29</title>
<polygon fill="none" stroke="black" points="986.77,-1190.5 986.77,-1239.5 1074.52,-1239.5 1074.52,-1190.5 986.77,-1190.5"/>
<text xml:space="preserve" text-anchor="middle" x="999.64" y="-1222.2" font-family="Times,serif" font-size="14.00">A</text>
<polyline fill="none" stroke="black" points="986.77,-1215 1012.52,-1215"/>
<text xml:space="preserve" text-anchor="middle" x="999.64" y="-1197.7" font-family="Times,serif" font-size="14.00">B</text>
<polyline fill="none" stroke="black" points="1012.52,-1190.5 1012.52,-1239.5"/>
<text xml:space="preserve" text-anchor="middle" x="1030.64" y="-1218.2" font-family="Times,serif" font-size="14.00">$21</text>
<text xml:space="preserve" text-anchor="middle" x="1030.64" y="-1201.7" font-family="Times,serif" font-size="14.00">$or</text>
<polyline fill="none" stroke="black" points="1048.77,-1190.5 1048.77,-1239.5"/>
<text xml:space="preserve" text-anchor="middle" x="1061.64" y="-1210.2" font-family="Times,serif" font-size="14.00">Y</text>
</g>
<!-- x0 -->
<g id="node10" class="node">
<title>x0</title>
<path fill="none" stroke="#666666" d="M1123.04,-1079.5C1123.04,-1079.5 1161.54,-1079.5 1161.54,-1079.5 1167.54,-1079.5 1173.54,-1085.5 1173.54,-1091.5 1173.54,-1091.5 1173.54,-1116.5 1173.54,-1116.5 1173.54,-1122.5 1167.54,-1128.5 1161.54,-1128.5 1161.54,-1128.5 1123.04,-1128.5 1123.04,-1128.5 1117.04,-1128.5 1111.04,-1122.5 1111.04,-1116.5 1111.04,-1116.5 1111.04,-1091.5 1111.04,-1091.5 1111.04,-1085.5 1117.04,-1079.5 1123.04,-1079.5"/>
<text xml:space="preserve" text-anchor="middle" x="1142.29" y="-1111.2" font-family="Times,serif" font-size="14.00" fill="#666666">7:1 &#45; 7:1</text>
<polyline fill="none" stroke="#666666" points="1111.04,-1104 1173.54,-1104"/>
<text xml:space="preserve" text-anchor="middle" x="1142.29" y="-1086.7" font-family="Times,serif" font-size="14.00" fill="#666666">0:0 &#45; 8:8</text>
</g>
<!-- c29&#45;&gt;x0 -->
<g id="edge1" class="edge">
<title>c29:e&#45;&gt;x0:w</title>
<path fill="none" stroke="#66a61e" stroke-width="3" d="M1087.41,-1212.04C1111.38,-1195.87 1074.71,-1123.43 1098.64,-1107.22"/>
<polygon fill="none" stroke="#66a61e" stroke-width="3" points="1089.27,-1211.56 1084.47,-1216.94 1077.65,-1214.57 1082.46,-1209.19 1089.27,-1211.56"/>
<polygon fill="none" stroke="#66a61e" stroke-width="3" points="1096.81,-1107.7 1101.61,-1102.32 1108.42,-1104.68 1103.62,-1110.06 1096.81,-1107.7"/>
</g>
<!-- x0&#45;&gt;n18 -->
<g id="edge48" class="edge">
<title>x0:e&#45;&gt;n18:w</title>
<path fill="none" stroke="#e7298a" d="M1174.54,-1091.75C1180.22,-1091.75 1177.63,-1082.95 1173.54,-1079 1156.91,-1062.95 778.26,-1072.12 758,-1061 692.88,-1025.26 664.31,-947.32 660.5,-918.24"/>
<polygon fill="#e7298a" stroke="#e7298a" points="663.95,-918.86 661.75,-908.5 657.01,-917.98 663.95,-918.86"/>
</g>
<!-- n17 -->
<g id="node76" class="node">
<title>n17</title>
<polygon fill="none" stroke="black" points="1260.44,-1097 1209.54,-1079 1260.44,-1061 1311.35,-1079 1260.44,-1097"/>
<text xml:space="preserve" text-anchor="middle" x="1260.44" y="-1073.95" font-family="Times,serif" font-size="14.00">$21_Y</text>
</g>
<!-- x0&#45;&gt;n17 -->
<g id="edge46" class="edge">
<title>x0:e&#45;&gt;n17:w</title>
<path fill="none" stroke="#a6761d" stroke-width="3" d="M1173.54,-1116.25C1191.88,-1116.25 1189.23,-1092.6 1199.05,-1082.99"/>
<polygon fill="#a6761d" stroke="#a6761d" stroke-width="3" points="1197.19,-1087.44 1205.29,-1080.61 1194.7,-1080.89 1197.19,-1087.44"/>
</g>
<!-- x1&#45;&gt;c29 -->
<g id="edge2" class="edge">
<title>x1:e&#45;&gt;c29:w</title>
<path fill="none" stroke="#1b9e77" d="M636.2,-1745.87C696.17,-1734.5 944.8,-1681.26 950.25,-1675 980.31,-1640.42 943.46,-1292.02 975.82,-1235.1"/>
<polygon fill="none" stroke="#1b9e77" points="636.22,-1745.87 630.97,-1750.8 624.39,-1747.85 629.64,-1742.91 636.22,-1745.87"/>
<polygon fill="none" stroke="#1b9e77" points="975.94,-1235.01 978.33,-1228.2 985.53,-1227.79 983.14,-1234.6 975.94,-1235.01"/>
</g>
<!-- c30&#45;&gt;c29 -->
<g id="edge45" class="edge">
<title>c30:e&#45;&gt;c29:w</title>
<path fill="none" stroke="#66a61e" stroke-width="3" d="M950.25,-1233.25C966.47,-1233.25 966.59,-1215 975.51,-1206.74"/>
<polygon fill="#66a61e" stroke="#66a61e" stroke-width="3" points="973.84,-1211.09 981.99,-1204.33 971.4,-1204.53 973.84,-1211.09"/>
</g>
<!-- x2&#45;&gt;c30 -->
<g id="edge3" class="edge">
<title>x2:e&#45;&gt;c30:w</title>
<path fill="none" stroke="#1b9e77" d="M833.22,-1220.94C836.82,-1220.9 839.95,-1220.85 843.53,-1220.82"/>
<polygon fill="none" stroke="#1b9e77" points="833.4,-1220.94 827.42,-1224.97 821.4,-1221 827.38,-1216.97 833.4,-1220.94"/>
<polygon fill="none" stroke="#1b9e77" points="843.6,-1220.82 849.58,-1216.79 855.6,-1220.75 849.62,-1224.78 843.6,-1220.82"/>
</g>
<!-- c31 -->
<g id="node14" class="node">
<title>c31</title>
<polygon fill="none" stroke="black" points="986.77,-493.5 986.77,-542.5 1074.52,-542.5 1074.52,-493.5 986.77,-493.5"/>
<text xml:space="preserve" text-anchor="middle" x="999.64" y="-525.2" font-family="Times,serif" font-size="14.00">A</text>
<polyline fill="none" stroke="black" points="986.77,-518 1012.52,-518"/>
<text xml:space="preserve" text-anchor="middle" x="999.64" y="-500.7" font-family="Times,serif" font-size="14.00">B</text>
<polyline fill="none" stroke="black" points="1012.52,-493.5 1012.52,-542.5"/>
<text xml:space="preserve" text-anchor="middle" x="1030.64" y="-521.2" font-family="Times,serif" font-size="14.00">$19</text>
<text xml:space="preserve" text-anchor="middle" x="1030.64" y="-504.7" font-family="Times,serif" font-size="14.00">$or</text>
<polyline fill="none" stroke="black" points="1048.77,-493.5 1048.77,-542.5"/>
<text xml:space="preserve" text-anchor="middle" x="1061.64" y="-513.2" font-family="Times,serif" font-size="14.00">Y</text>
</g>
<!-- x3 -->
<g id="node15" class="node">
<title>x3</title>
<path fill="none" stroke="#1b9e77" d="M1123.04,-493.5C1123.04,-493.5 1161.54,-493.5 1161.54,-493.5 1167.54,-493.5 1173.54,-499.5 1173.54,-505.5 1173.54,-505.5 1173.54,-530.5 1173.54,-530.5 1173.54,-536.5 1167.54,-542.5 1161.54,-542.5 1161.54,-542.5 1123.04,-542.5 1123.04,-542.5 1117.04,-542.5 1111.04,-536.5 1111.04,-530.5 1111.04,-530.5 1111.04,-505.5 1111.04,-505.5 1111.04,-499.5 1117.04,-493.5 1123.04,-493.5"/>
<text xml:space="preserve" text-anchor="middle" x="1142.29" y="-525.2" font-family="Times,serif" font-size="14.00" fill="#1b9e77">7:1 &#45; 7:1</text>
<polyline fill="none" stroke="#1b9e77" points="1111.04,-518 1173.54,-518"/>
<text xml:space="preserve" text-anchor="middle" x="1142.29" y="-500.7" font-family="Times,serif" font-size="14.00" fill="#1b9e77">0:0 &#45; 7:7</text>
</g>
<!-- c31&#45;&gt;x3 -->
<g id="edge4" class="edge">
<title>c31:e&#45;&gt;x3:w</title>
<path fill="none" stroke="#7570b3" stroke-width="3" d="M1087.76,-518.19C1091.36,-518.15 1094.49,-518.1 1098.06,-518.07"/>
<polygon fill="none" stroke="#7570b3" stroke-width="3" points="1089.74,-518.18 1083.76,-522.21 1077.74,-518.24 1083.72,-514.21 1089.74,-518.18"/>
<polygon fill="none" stroke="#7570b3" stroke-width="3" points="1096.33,-518.07 1102.31,-514.04 1108.33,-518.01 1102.35,-522.04 1096.33,-518.07"/>
</g>
<!-- x3&#45;&gt;n18 -->
<g id="edge53" class="edge">
<title>x3:e&#45;&gt;n18:w</title>
<path fill="none" stroke="#e7298a" d="M1174.54,-505.75C1180.22,-505.75 1177.71,-496.86 1173.54,-493 1163.34,-483.57 1123.15,-486.2 1111.04,-493 1084.25,-508.04 1100.16,-534.33 1075.04,-552 954.08,-637.08 841.55,-530.98 758,-653 688.96,-753.83 810.27,-845.16 717.75,-925 699.31,-940.92 680.63,-941.74 662.94,-925 660.94,-923.11 659.25,-920.39 658.22,-917.64"/>
<polygon fill="#e7298a" stroke="#e7298a" points="661.44,-919.02 661.44,-908.43 654.83,-916.71 661.44,-919.02"/>
</g>
<!-- n1 -->
<g id="node72" class="node">
<title>n1</title>
<polygon fill="none" stroke="black" points="1260.44,-510 1209.54,-492 1260.44,-474 1311.35,-492 1260.44,-510"/>
<text xml:space="preserve" text-anchor="middle" x="1260.44" y="-486.95" font-family="Times,serif" font-size="14.00">$19_Y</text>
</g>
<!-- x3&#45;&gt;n1 -->
<g id="edge35" class="edge">
<title>x3:e&#45;&gt;n1:w</title>
<path fill="none" stroke="#66a61e" stroke-width="3" d="M1173.54,-530.25C1192.14,-530.25 1189.13,-505.96 1198.95,-496.09"/>
<polygon fill="#66a61e" stroke="#66a61e" stroke-width="3" points="1197.24,-500.51 1205.3,-493.64 1194.71,-493.98 1197.24,-500.51"/>
</g>
<!-- x4&#45;&gt;c31 -->
<g id="edge5" class="edge">
<title>x4:e&#45;&gt;c31:w</title>
<path fill="none" stroke="#e7298a" d="M636.5,-603.23C735.77,-590.75 659.03,-429.9 758,-373 782.08,-359.16 798.59,-355.92 820.5,-373 872.19,-413.29 807.09,-472.94 856.5,-516 896.91,-551.21 923.88,-533.53 973.5,-530.63"/>
<polygon fill="none" stroke="#e7298a" points="636.38,-603.24 630.63,-607.59 624.4,-603.95 630.15,-599.6 636.38,-603.24"/>
<polygon fill="none" stroke="#e7298a" points="973.35,-530.63 979.23,-526.46 985.35,-530.28 979.47,-534.45 973.35,-530.63"/>
</g>
<!-- c32&#45;&gt;c31 -->
<g id="edge83" class="edge">
<title>c32:e&#45;&gt;c31:w</title>
<path fill="none" stroke="#a6761d" stroke-width="3" d="M950.25,-482.25C964.73,-482.25 966.96,-495.75 975.51,-502.28"/>
<polygon fill="#a6761d" stroke="#a6761d" stroke-width="3" points="971.34,-504.61 981.93,-504.35 973.49,-497.95 971.34,-504.61"/>
</g>
<!-- x5&#45;&gt;c32 -->
<g id="edge6" class="edge">
<title>x5:e&#45;&gt;c32:w</title>
<path fill="none" stroke="#e7298a" d="M832.11,-504.74C838.3,-497.07 838.66,-482.89 844.79,-475.14"/>
<polygon fill="none" stroke="#e7298a" points="832.25,-504.67 828.44,-510.79 821.32,-509.63 825.13,-503.51 832.25,-504.67"/>
<polygon fill="none" stroke="#e7298a" points="844.78,-475.15 848.56,-469 855.68,-470.13 851.9,-476.27 844.78,-475.15"/>
</g>
<!-- c33 -->
<g id="node19" class="node">
<title>c33</title>
<polygon fill="none" stroke="black" points="986.77,-964.5 986.77,-1013.5 1074.52,-1013.5 1074.52,-964.5 986.77,-964.5"/>
<text xml:space="preserve" text-anchor="middle" x="999.64" y="-996.2" font-family="Times,serif" font-size="14.00">A</text>
<polyline fill="none" stroke="black" points="986.77,-989 1012.52,-989"/>
<text xml:space="preserve" text-anchor="middle" x="999.64" y="-971.7" font-family="Times,serif" font-size="14.00">B</text>
<polyline fill="none" stroke="black" points="1012.52,-964.5 1012.52,-1013.5"/>
<text xml:space="preserve" text-anchor="middle" x="1030.64" y="-992.2" font-family="Times,serif" font-size="14.00">$17</text>
<text xml:space="preserve" text-anchor="middle" x="1030.64" y="-975.7" font-family="Times,serif" font-size="14.00">$or</text>
<polyline fill="none" stroke="black" points="1048.77,-964.5 1048.77,-1013.5"/>
<text xml:space="preserve" text-anchor="middle" x="1061.64" y="-984.2" font-family="Times,serif" font-size="14.00">Y</text>
</g>
<!-- x6 -->
<g id="node20" class="node">
<title>x6</title>
<path fill="none" stroke="#e7298a" d="M1123.04,-921.5C1123.04,-921.5 1161.54,-921.5 1161.54,-921.5 1167.54,-921.5 1173.54,-927.5 1173.54,-933.5 1173.54,-933.5 1173.54,-958.5 1173.54,-958.5 1173.54,-964.5 1167.54,-970.5 1161.54,-970.5 1161.54,-970.5 1123.04,-970.5 1123.04,-970.5 1117.04,-970.5 1111.04,-964.5 1111.04,-958.5 1111.04,-958.5 1111.04,-933.5 1111.04,-933.5 1111.04,-927.5 1117.04,-921.5 1123.04,-921.5"/>
<text xml:space="preserve" text-anchor="middle" x="1142.29" y="-953.2" font-family="Times,serif" font-size="14.00" fill="#e7298a">7:1 &#45; 7:1</text>
<polyline fill="none" stroke="#e7298a" points="1111.04,-946 1173.54,-946"/>
<text xml:space="preserve" text-anchor="middle" x="1142.29" y="-928.7" font-family="Times,serif" font-size="14.00" fill="#e7298a">0:0 &#45; 6:6</text>
</g>
<!-- c33&#45;&gt;x6 -->
<g id="edge7" class="edge">
<title>c33:e&#45;&gt;x6:w</title>
<path fill="none" stroke="#7570b3" stroke-width="3" d="M1086.66,-983.95C1093.22,-975.65 1092.85,-959.67 1099.38,-951.35"/>
<polygon fill="none" stroke="#7570b3" stroke-width="3" points="1088.42,-983.15 1084.62,-989.28 1077.5,-988.13 1081.3,-982 1088.42,-983.15"/>
<polygon fill="none" stroke="#7570b3" stroke-width="3" points="1097.67,-952.13 1101.46,-945.99 1108.58,-947.13 1104.79,-953.26 1097.67,-952.13"/>
</g>
<!-- x6&#45;&gt;n18 -->
<g id="edge55" class="edge">
<title>x6:e&#45;&gt;n18:w</title>
<path fill="none" stroke="#e7298a" d="M1174.54,-933.75C1180.22,-933.75 1177.71,-924.86 1173.54,-921 1153.14,-902.14 1138.81,-920.86 1111.04,-921 936.24,-921.89 892.55,-924.11 717.75,-925 693.39,-925.12 680.63,-941.74 662.94,-925 660.94,-923.11 659.25,-920.39 658.22,-917.64"/>
<polygon fill="#e7298a" stroke="#e7298a" points="661.44,-919.02 661.44,-908.43 654.83,-916.71 661.44,-919.02"/>
</g>
<!-- n3 -->
<g id="node77" class="node">
<title>n3</title>
<polygon fill="none" stroke="black" points="1260.44,-939 1209.54,-921 1260.44,-903 1311.35,-921 1260.44,-939"/>
<text xml:space="preserve" text-anchor="middle" x="1260.44" y="-915.95" font-family="Times,serif" font-size="14.00">$17_Y</text>
</g>
<!-- x6&#45;&gt;n3 -->
<g id="edge105" class="edge">
<title>x6:e&#45;&gt;n3:w</title>
<path fill="none" stroke="#e6ab02" stroke-width="3" d="M1173.54,-958.25C1191.88,-958.25 1189.23,-934.6 1199.05,-924.99"/>
<polygon fill="#e6ab02" stroke="#e6ab02" stroke-width="3" points="1197.19,-929.44 1205.29,-922.61 1194.7,-922.89 1197.19,-929.44"/>
</g>
<!-- x7&#45;&gt;c33 -->
<g id="edge8" class="edge">
<title>x7:e&#45;&gt;c33:w</title>
<path fill="none" stroke="#d95f02" d="M734.83,-1654.32C828.26,-1659.03 881.12,-1712.3 950.25,-1644 998.05,-1596.77 924.68,-1071.01 974.93,-1007.51"/>
<polygon fill="none" stroke="#d95f02" points="734.9,-1654.33 728.8,-1658.17 722.9,-1654.02 729,-1650.18 734.9,-1654.33"/>
<polygon fill="none" stroke="#d95f02" points="974.96,-1007.5 978.27,-1001.09 985.46,-1001.69 982.15,-1008.09 974.96,-1007.5"/>
</g>
<!-- c34&#45;&gt;c33 -->
<g id="edge106" class="edge">
<title>c34:e&#45;&gt;c33:w</title>
<path fill="none" stroke="#1b9e77" stroke-width="3" d="M950.25,-989.25C962.56,-989.25 967.04,-982.65 975.07,-979.04"/>
<polygon fill="#1b9e77" stroke="#1b9e77" stroke-width="3" points="972.71,-983.1 981.8,-977.66 971.3,-976.24 972.71,-983.1"/>
</g>
<!-- x8&#45;&gt;c34 -->
<g id="edge9" class="edge">
<title>x8:e&#45;&gt;c34:w</title>
<path fill="none" stroke="#1b9e77" d="M833.22,-977.68C836.82,-977.5 839.95,-977.27 843.53,-977.08"/>
<polygon fill="none" stroke="#1b9e77" points="833.4,-977.68 827.5,-981.83 821.4,-977.98 827.3,-973.83 833.4,-977.68"/>
<polygon fill="none" stroke="#1b9e77" points="843.6,-977.08 849.5,-972.93 855.6,-976.77 849.7,-980.92 843.6,-977.08"/>
</g>
<!-- c35 -->
<g id="node24" class="node">
<title>c35</title>
<polygon fill="none" stroke="black" points="986.77,-647.5 986.77,-696.5 1074.52,-696.5 1074.52,-647.5 986.77,-647.5"/>
<text xml:space="preserve" text-anchor="middle" x="999.64" y="-679.2" font-family="Times,serif" font-size="14.00">A</text>
<polyline fill="none" stroke="black" points="986.77,-672 1012.52,-672"/>
<text xml:space="preserve" text-anchor="middle" x="999.64" y="-654.7" font-family="Times,serif" font-size="14.00">B</text>
<polyline fill="none" stroke="black" points="1012.52,-647.5 1012.52,-696.5"/>
<text xml:space="preserve" text-anchor="middle" x="1030.64" y="-675.2" font-family="Times,serif" font-size="14.00">$15</text>
<text xml:space="preserve" text-anchor="middle" x="1030.64" y="-658.7" font-family="Times,serif" font-size="14.00">$or</text>
<polyline fill="none" stroke="black" points="1048.77,-647.5 1048.77,-696.5"/>
<text xml:space="preserve" text-anchor="middle" x="1061.64" y="-667.2" font-family="Times,serif" font-size="14.00">Y</text>
</g>
<!-- x9 -->
<g id="node25" class="node">
<title>x9</title>
<path fill="none" stroke="#1b9e77" d="M1123.04,-714.5C1123.04,-714.5 1161.54,-714.5 1161.54,-714.5 1167.54,-714.5 1173.54,-720.5 1173.54,-726.5 1173.54,-726.5 1173.54,-751.5 1173.54,-751.5 1173.54,-757.5 1167.54,-763.5 1161.54,-763.5 1161.54,-763.5 1123.04,-763.5 1123.04,-763.5 1117.04,-763.5 1111.04,-757.5 1111.04,-751.5 1111.04,-751.5 1111.04,-726.5 1111.04,-726.5 1111.04,-720.5 1117.04,-714.5 1123.04,-714.5"/>
<text xml:space="preserve" text-anchor="middle" x="1142.29" y="-746.2" font-family="Times,serif" font-size="14.00" fill="#1b9e77">7:1 &#45; 7:1</text>
<polyline fill="none" stroke="#1b9e77" points="1111.04,-739 1173.54,-739"/>
<text xml:space="preserve" text-anchor="middle" x="1142.29" y="-721.7" font-family="Times,serif" font-size="14.00" fill="#1b9e77">0:0 &#45; 5:5</text>
</g>
<!-- c35&#45;&gt;x9 -->
<g id="edge10" class="edge">
<title>c35:e&#45;&gt;x9:w</title>
<path fill="none" stroke="#1b9e77" stroke-width="3" d="M1086.94,-677.05C1097.6,-689.37 1088.46,-721.98 1099.17,-734.24"/>
<polygon fill="none" stroke="#1b9e77" stroke-width="3" points="1088.67,-677.75 1081.61,-679.21 1077.54,-673.26 1084.61,-671.79 1088.67,-677.75"/>
<polygon fill="none" stroke="#1b9e77" stroke-width="3" points="1097.39,-733.53 1104.45,-732.05 1108.53,-737.99 1101.47,-739.47 1097.39,-733.53"/>
</g>
<!-- x9&#45;&gt;n18 -->
<g id="edge56" class="edge">
<title>x9:e&#45;&gt;n18:w</title>
<path fill="none" stroke="#e7298a" d="M1174.54,-726.75C1180.22,-726.75 1177.71,-717.86 1173.54,-714 1153.14,-695.14 1138.78,-712.71 1111.04,-714 1032.33,-717.67 817.2,-695 758,-747 697.07,-800.53 781.11,-874.37 717.75,-925 698.72,-940.21 680.63,-941.74 662.94,-925 660.94,-923.11 659.25,-920.39 658.22,-917.64"/>
<polygon fill="#e7298a" stroke="#e7298a" points="661.44,-919.02 661.44,-908.43 654.83,-916.71 661.44,-919.02"/>
</g>
<!-- n5 -->
<g id="node78" class="node">
<title>n5</title>
<polygon fill="none" stroke="black" points="1260.44,-794 1209.54,-776 1260.44,-758 1311.35,-776 1260.44,-794"/>
<text xml:space="preserve" text-anchor="middle" x="1260.44" y="-770.95" font-family="Times,serif" font-size="14.00">$15_Y</text>
</g>
<!-- x9&#45;&gt;n5 -->
<g id="edge108" class="edge">
<title>x9:e&#45;&gt;n5:w</title>
<path fill="none" stroke="#d95f02" stroke-width="3" d="M1173.54,-751.25C1188.25,-751.25 1190.19,-765.46 1198.71,-772.35"/>
<polygon fill="#d95f02" stroke="#d95f02" stroke-width="3" points="1194.64,-774.67 1205.23,-774.55 1196.88,-768.04 1194.64,-774.67"/>
</g>
<!-- x10&#45;&gt;c35 -->
<g id="edge11" class="edge">
<title>x10:e&#45;&gt;c35:w</title>
<path fill="none" stroke="#e6ab02" d="M527.2,-1253.7C794.17,-1240.66 520.69,-808.72 758,-653 781.22,-637.76 793.08,-648.55 820.5,-653 837.15,-655.7 840.1,-661.08 856.5,-665 908.77,-677.49 925.39,-683.31 973.34,-684.14"/>
<polygon fill="none" stroke="#e6ab02" points="527.4,-1253.69 521.49,-1257.83 515.4,-1253.98 521.3,-1249.84 527.4,-1253.69"/>
<polygon fill="none" stroke="#e6ab02" points="973.35,-684.14 979.38,-680.19 985.35,-684.24 979.32,-688.19 973.35,-684.14"/>
</g>
<!-- c36&#45;&gt;c35 -->
<g id="edge109" class="edge">
<title>c36:e&#45;&gt;c35:w</title>
<path fill="none" stroke="#1b9e77" stroke-width="3" d="M950.25,-631.25C966.03,-631.25 966.73,-648.3 975.68,-656.02"/>
<polygon fill="#1b9e77" stroke="#1b9e77" stroke-width="3" points="971.37,-658.22 981.97,-658.24 973.7,-651.62 971.37,-658.22"/>
</g>
<!-- x11&#45;&gt;c36 -->
<g id="edge12" class="edge">
<title>x11:e&#45;&gt;c36:w</title>
<path fill="none" stroke="#e6ab02" d="M832.17,-675.19C841.88,-663.8 835.13,-635.24 844.7,-623.7"/>
<polygon fill="none" stroke="#e6ab02" points="832.43,-675.09 828.4,-681.07 821.33,-679.66 825.36,-673.67 832.43,-675.09"/>
<polygon fill="none" stroke="#e6ab02" points="844.6,-623.75 848.59,-617.73 855.67,-619.1 851.69,-625.11 844.6,-623.75"/>
</g>
<!-- c37 -->
<g id="node29" class="node">
<title>c37</title>
<polygon fill="none" stroke="black" points="986.77,-202.5 986.77,-251.5 1074.52,-251.5 1074.52,-202.5 986.77,-202.5"/>
<text xml:space="preserve" text-anchor="middle" x="999.64" y="-234.2" font-family="Times,serif" font-size="14.00">A</text>
<polyline fill="none" stroke="black" points="986.77,-227 1012.52,-227"/>
<text xml:space="preserve" text-anchor="middle" x="999.64" y="-209.7" font-family="Times,serif" font-size="14.00">B</text>
<polyline fill="none" stroke="black" points="1012.52,-202.5 1012.52,-251.5"/>
<text xml:space="preserve" text-anchor="middle" x="1030.64" y="-230.2" font-family="Times,serif" font-size="14.00">$13</text>
<text xml:space="preserve" text-anchor="middle" x="1030.64" y="-213.7" font-family="Times,serif" font-size="14.00">$or</text>
<polyline fill="none" stroke="black" points="1048.77,-202.5 1048.77,-251.5"/>
<text xml:space="preserve" text-anchor="middle" x="1061.64" y="-222.2" font-family="Times,serif" font-size="14.00">Y</text>
</g>
<!-- x12 -->
<g id="node30" class="node">
<title>x12</title>
<path fill="none" stroke="#e6ab02" d="M1123.04,-304.5C1123.04,-304.5 1161.54,-304.5 1161.54,-304.5 1167.54,-304.5 1173.54,-310.5 1173.54,-316.5 1173.54,-316.5 1173.54,-341.5 1173.54,-341.5 1173.54,-347.5 1167.54,-353.5 1161.54,-353.5 1161.54,-353.5 1123.04,-353.5 1123.04,-353.5 1117.04,-353.5 1111.04,-347.5 1111.04,-341.5 1111.04,-341.5 1111.04,-316.5 1111.04,-316.5 1111.04,-310.5 1117.04,-304.5 1123.04,-304.5"/>
<text xml:space="preserve" text-anchor="middle" x="1142.29" y="-336.2" font-family="Times,serif" font-size="14.00" fill="#e6ab02">7:1 &#45; 7:1</text>
<polyline fill="none" stroke="#e6ab02" points="1111.04,-329 1173.54,-329"/>
<text xml:space="preserve" text-anchor="middle" x="1142.29" y="-311.7" font-family="Times,serif" font-size="14.00" fill="#e6ab02">0:0 &#45; 4:4</text>
</g>
<!-- c37&#45;&gt;x12 -->
<g id="edge13" class="edge">
<title>c37:e&#45;&gt;x12:w</title>
<path fill="none" stroke="#d95f02" stroke-width="3" d="M1087.5,-230.87C1107.9,-246.73 1078.05,-309.97 1098.77,-325.53"/>
<polygon fill="none" stroke="#d95f02" stroke-width="3" points="1089.16,-231.35 1082.28,-233.52 1077.63,-228 1084.51,-225.84 1089.16,-231.35"/>
<polygon fill="none" stroke="#d95f02" stroke-width="3" points="1096.89,-324.99 1103.75,-322.78 1108.43,-328.26 1101.57,-330.48 1096.89,-324.99"/>
</g>
<!-- x12&#45;&gt;n18 -->
<g id="edge49" class="edge">
<title>x12:e&#45;&gt;n18:w</title>
<path fill="none" stroke="#e7298a" d="M1174.54,-316.75C1180.22,-316.75 1177.71,-307.86 1173.54,-304 1153.14,-285.14 1138.69,-301.32 1111.04,-304 951.91,-319.41 864.05,-253.36 758,-373 676.41,-465.04 807.83,-841.25 717.75,-925 699.91,-941.59 680.63,-941.74 662.94,-925 660.94,-923.11 659.25,-920.39 658.22,-917.64"/>
<polygon fill="#e7298a" stroke="#e7298a" points="661.44,-919.02 661.44,-908.43 654.83,-916.71 661.44,-919.02"/>
</g>
<!-- n7 -->
<g id="node79" class="node">
<title>n7</title>
<polygon fill="none" stroke="black" points="1260.44,-384 1209.54,-366 1260.44,-348 1311.35,-366 1260.44,-384"/>
<text xml:space="preserve" text-anchor="middle" x="1260.44" y="-360.95" font-family="Times,serif" font-size="14.00">$13_Y</text>
</g>
<!-- x12&#45;&gt;n7 -->
<g id="edge110" class="edge">
<title>x12:e&#45;&gt;n7:w</title>
<path fill="none" stroke="#66a61e" stroke-width="3" d="M1173.54,-341.25C1188.25,-341.25 1190.19,-355.46 1198.71,-362.35"/>
<polygon fill="#66a61e" stroke="#66a61e" stroke-width="3" points="1194.64,-364.67 1205.23,-364.55 1196.88,-358.04 1194.64,-364.67"/>
</g>
<!-- x13&#45;&gt;c37 -->
<g id="edge14" class="edge">
<title>x13:e&#45;&gt;c37:w</title>
<path fill="none" stroke="#d95f02" d="M734.51,-320.71C742.26,-315.78 745.65,-306.46 758,-301 850.08,-260.28 878.77,-240.91 973.41,-239.35"/>
<polygon fill="none" stroke="#d95f02" points="734.48,-320.72 729.69,-326.12 722.87,-323.77 727.66,-318.38 734.48,-320.72"/>
<polygon fill="none" stroke="#d95f02" points="973.35,-239.35 979.32,-235.31 985.35,-239.26 979.38,-243.3 973.35,-239.35"/>
</g>
<!-- c38&#45;&gt;c37 -->
<g id="edge112" class="edge">
<title>c38:e&#45;&gt;c37:w</title>
<path fill="none" stroke="#666666" stroke-width="3" d="M950.25,-186.25C966.03,-186.25 966.73,-203.3 975.68,-211.02"/>
<polygon fill="#666666" stroke="#666666" stroke-width="3" points="971.37,-213.22 981.97,-213.24 973.7,-206.62 971.37,-213.22"/>
</g>
<!-- x14&#45;&gt;c38 -->
<g id="edge15" class="edge">
<title>x14:e&#45;&gt;c38:w</title>
<path fill="none" stroke="#d95f02" d="M832.7,-188.13C836.97,-185.03 840.04,-180.71 844.31,-177.61"/>
<polygon fill="none" stroke="#d95f02" points="832.8,-188.1 828.29,-193.73 821.36,-191.73 825.87,-186.1 832.8,-188.1"/>
<polygon fill="none" stroke="#d95f02" points="844.2,-177.65 848.71,-172.02 855.64,-174.02 851.13,-179.65 844.2,-177.65"/>
</g>
<!-- c39 -->
<g id="node34" class="node">
<title>c39</title>
<polygon fill="none" stroke="black" points="986.77,-1377.5 986.77,-1426.5 1074.52,-1426.5 1074.52,-1377.5 986.77,-1377.5"/>
<text xml:space="preserve" text-anchor="middle" x="999.64" y="-1409.2" font-family="Times,serif" font-size="14.00">A</text>
<polyline fill="none" stroke="black" points="986.77,-1402 1012.52,-1402"/>
<text xml:space="preserve" text-anchor="middle" x="999.64" y="-1384.7" font-family="Times,serif" font-size="14.00">B</text>
<polyline fill="none" stroke="black" points="1012.52,-1377.5 1012.52,-1426.5"/>
<text xml:space="preserve" text-anchor="middle" x="1030.64" y="-1405.2" font-family="Times,serif" font-size="14.00">$11</text>
<text xml:space="preserve" text-anchor="middle" x="1030.64" y="-1388.7" font-family="Times,serif" font-size="14.00">$or</text>
<polyline fill="none" stroke="black" points="1048.77,-1377.5 1048.77,-1426.5"/>
<text xml:space="preserve" text-anchor="middle" x="1061.64" y="-1397.2" font-family="Times,serif" font-size="14.00">Y</text>
</g>
<!-- x15 -->
<g id="node35" class="node">
<title>x15</title>
<path fill="none" stroke="#d95f02" d="M1123.04,-1311.5C1123.04,-1311.5 1161.54,-1311.5 1161.54,-1311.5 1167.54,-1311.5 1173.54,-1317.5 1173.54,-1323.5 1173.54,-1323.5 1173.54,-1348.5 1173.54,-1348.5 1173.54,-1354.5 1167.54,-1360.5 1161.54,-1360.5 1161.54,-1360.5 1123.04,-1360.5 1123.04,-1360.5 1117.04,-1360.5 1111.04,-1354.5 1111.04,-1348.5 1111.04,-1348.5 1111.04,-1323.5 1111.04,-1323.5 1111.04,-1317.5 1117.04,-1311.5 1123.04,-1311.5"/>
<text xml:space="preserve" text-anchor="middle" x="1142.29" y="-1343.2" font-family="Times,serif" font-size="14.00" fill="#d95f02">7:1 &#45; 7:1</text>
<polyline fill="none" stroke="#d95f02" points="1111.04,-1336 1173.54,-1336"/>
<text xml:space="preserve" text-anchor="middle" x="1142.29" y="-1318.7" font-family="Times,serif" font-size="14.00" fill="#d95f02">0:0 &#45; 3:3</text>
</g>
<!-- c39&#45;&gt;x15 -->
<g id="edge16" class="edge">
<title>c39:e&#45;&gt;x15:w</title>
<path fill="none" stroke="#1b9e77" stroke-width="3" d="M1086.89,-1397.49C1097.52,-1385.26 1088.54,-1352.9 1099.22,-1340.72"/>
<polygon fill="none" stroke="#1b9e77" stroke-width="3" points="1088.68,-1396.77 1084.6,-1402.71 1077.55,-1401.24 1081.62,-1395.29 1088.68,-1396.77"/>
<polygon fill="none" stroke="#1b9e77" stroke-width="3" points="1097.38,-1341.46 1101.47,-1335.52 1108.53,-1337 1104.44,-1342.94 1097.38,-1341.46"/>
</g>
<!-- x15&#45;&gt;n18 -->
<g id="edge50" class="edge">
<title>x15:e&#45;&gt;n18:w</title>
<path fill="none" stroke="#e7298a" d="M1174.54,-1323.75C1180.22,-1323.75 1177.68,-1314.89 1173.54,-1311 1156.72,-1295.18 776.08,-1318.35 758,-1304 725.51,-1278.21 634.24,-967.87 653.45,-914.72"/>
<polygon fill="#e7298a" stroke="#e7298a" points="655.77,-917.34 660.82,-908.02 651.06,-912.16 655.77,-917.34"/>
</g>
<!-- n9 -->
<g id="node80" class="node">
<title>n9</title>
<polygon fill="none" stroke="black" points="1260.44,-1332 1209.54,-1314 1260.44,-1296 1311.35,-1314 1260.44,-1332"/>
<text xml:space="preserve" text-anchor="middle" x="1260.44" y="-1308.95" font-family="Times,serif" font-size="14.00">$11_Y</text>
</g>
<!-- x15&#45;&gt;n9 -->
<g id="edge113" class="edge">
<title>x15:e&#45;&gt;n9:w</title>
<path fill="none" stroke="#666666" stroke-width="3" d="M1173.54,-1348.25C1190.96,-1348.25 1189.55,-1326.93 1199.03,-1317.93"/>
<polygon fill="#666666" stroke="#666666" stroke-width="3" points="1197.14,-1322.37 1205.28,-1315.59 1194.69,-1315.82 1197.14,-1322.37"/>
</g>
<!-- x16&#45;&gt;c39 -->
<g id="edge17" class="edge">
<title>x16:e&#45;&gt;c39:w</title>
<path fill="none" stroke="#1b9e77" d="M527.21,-1786.08C594.86,-1786.99 616.18,-1795 689.75,-1795 689.75,-1795 689.75,-1795 790.25,-1795 861.86,-1795 900.1,-1827.12 950.25,-1776 1003.51,-1721.71 916.8,-1449.04 973.86,-1417.27"/>
<polygon fill="none" stroke="#1b9e77" points="527.4,-1786.08 521.37,-1790.05 515.4,-1786.01 521.43,-1782.05 527.4,-1786.08"/>
<polygon fill="none" stroke="#1b9e77" points="973.72,-1417.31 978.6,-1412 985.37,-1414.46 980.49,-1419.77 973.72,-1417.31"/>
</g>
<!-- c40&#45;&gt;c39 -->
<g id="edge36" class="edge">
<title>c40:e&#45;&gt;c39:w</title>
<path fill="none" stroke="#1b9e77" stroke-width="3" d="M950.25,-1402.25C962.56,-1402.25 967.04,-1395.65 975.07,-1392.04"/>
<polygon fill="#1b9e77" stroke="#1b9e77" stroke-width="3" points="972.71,-1396.1 981.8,-1390.66 971.3,-1389.24 972.71,-1396.1"/>
</g>
<!-- x17&#45;&gt;c40 -->
<g id="edge18" class="edge">
<title>x17:e&#45;&gt;c40:w</title>
<path fill="none" stroke="#7570b3" d="M832.7,-1404.13C836.97,-1401.03 840.04,-1396.71 844.31,-1393.61"/>
<polygon fill="none" stroke="#7570b3" points="832.8,-1404.1 828.29,-1409.73 821.36,-1407.73 825.87,-1402.1 832.8,-1404.1"/>
<polygon fill="none" stroke="#7570b3" points="844.2,-1393.65 848.71,-1388.02 855.64,-1390.02 851.13,-1395.65 844.2,-1393.65"/>
</g>
<!-- c41 -->
<g id="node39" class="node">
<title>c41</title>
<polygon fill="none" stroke="black" points="987.89,-1633.5 987.89,-1682.5 1073.39,-1682.5 1073.39,-1633.5 987.89,-1633.5"/>
<text xml:space="preserve" text-anchor="middle" x="1000.77" y="-1665.2" font-family="Times,serif" font-size="14.00">A</text>
<polyline fill="none" stroke="black" points="987.89,-1658 1013.64,-1658"/>
<text xml:space="preserve" text-anchor="middle" x="1000.77" y="-1640.7" font-family="Times,serif" font-size="14.00">B</text>
<polyline fill="none" stroke="black" points="1013.64,-1633.5 1013.64,-1682.5"/>
<text xml:space="preserve" text-anchor="middle" x="1030.64" y="-1661.2" font-family="Times,serif" font-size="14.00">$9</text>
<text xml:space="preserve" text-anchor="middle" x="1030.64" y="-1644.7" font-family="Times,serif" font-size="14.00">$or</text>
<polyline fill="none" stroke="black" points="1047.64,-1633.5 1047.64,-1682.5"/>
<text xml:space="preserve" text-anchor="middle" x="1060.52" y="-1653.2" font-family="Times,serif" font-size="14.00">Y</text>
</g>
<!-- x18 -->
<g id="node40" class="node">
<title>x18</title>
<path fill="none" stroke="#7570b3" d="M1123.04,-1633.5C1123.04,-1633.5 1161.54,-1633.5 1161.54,-1633.5 1167.54,-1633.5 1173.54,-1639.5 1173.54,-1645.5 1173.54,-1645.5 1173.54,-1670.5 1173.54,-1670.5 1173.54,-1676.5 1167.54,-1682.5 1161.54,-1682.5 1161.54,-1682.5 1123.04,-1682.5 1123.04,-1682.5 1117.04,-1682.5 1111.04,-1676.5 1111.04,-1670.5 1111.04,-1670.5 1111.04,-1645.5 1111.04,-1645.5 1111.04,-1639.5 1117.04,-1633.5 1123.04,-1633.5"/>
<text xml:space="preserve" text-anchor="middle" x="1142.29" y="-1665.2" font-family="Times,serif" font-size="14.00" fill="#7570b3">7:1 &#45; 7:1</text>
<polyline fill="none" stroke="#7570b3" points="1111.04,-1658 1173.54,-1658"/>
<text xml:space="preserve" text-anchor="middle" x="1142.29" y="-1640.7" font-family="Times,serif" font-size="14.00" fill="#7570b3">0:0 &#45; 2:2</text>
</g>
<!-- c41&#45;&gt;x18 -->
<g id="edge19" class="edge">
<title>c41:e&#45;&gt;x18:w</title>
<path fill="none" stroke="#666666" stroke-width="3" d="M1087.34,-1658.19C1091.12,-1658.15 1094.39,-1658.1 1098.18,-1658.06"/>
<polygon fill="none" stroke="#666666" stroke-width="3" points="1089.1,-1658.18 1083.12,-1662.21 1077.1,-1658.24 1083.08,-1654.21 1089.1,-1658.18"/>
<polygon fill="none" stroke="#666666" stroke-width="3" points="1096.33,-1658.07 1102.31,-1654.04 1108.33,-1658.01 1102.35,-1662.04 1096.33,-1658.07"/>
</g>
<!-- x18&#45;&gt;n18 -->
<g id="edge51" class="edge">
<title>x18:e&#45;&gt;n18:w</title>
<path fill="none" stroke="#e7298a" d="M1174.54,-1645.75C1180.22,-1645.75 1176.76,-1637.68 1173.54,-1633 1144.55,-1590.92 789.17,-1476.49 758,-1436 741.31,-1414.32 649.53,-988.48 657.19,-917.11"/>
<polygon fill="#e7298a" stroke="#e7298a" points="660.21,-918.91 661.29,-908.37 653.87,-915.93 660.21,-918.91"/>
</g>
<!-- n11 -->
<g id="node73" class="node">
<title>n11</title>
<polygon fill="none" stroke="black" points="1260.44,-1708 1216.05,-1690 1260.44,-1672 1304.84,-1690 1260.44,-1708"/>
<text xml:space="preserve" text-anchor="middle" x="1260.44" y="-1684.95" font-family="Times,serif" font-size="14.00">$9_Y</text>
</g>
<!-- x18&#45;&gt;n11 -->
<g id="edge37" class="edge">
<title>x18:e&#45;&gt;n11:w</title>
<path fill="none" stroke="#e7298a" stroke-width="3" d="M1173.54,-1670.25C1189.07,-1670.25 1192.87,-1682.06 1203.09,-1687.42"/>
<polygon fill="#e7298a" stroke="#e7298a" stroke-width="3" points="1199.22,-1690.11 1209.75,-1688.97 1200.81,-1683.29 1199.22,-1690.11"/>
</g>
<!-- x19&#45;&gt;c41 -->
<g id="edge20" class="edge">
<title>x19:e&#45;&gt;c41:w</title>
<path fill="none" stroke="#a6761d" d="M401.59,-1829.03C481.19,-1829.38 505.68,-1833 591.25,-1833 591.25,-1833 591.25,-1833 790.25,-1833 862.52,-1833 896.95,-1852.8 950.25,-1804 991.98,-1765.79 936.04,-1685.03 974.26,-1672.03"/>
<polygon fill="none" stroke="#a6761d" points="401.78,-1829.03 395.77,-1833.02 389.78,-1829 395.79,-1825.02 401.78,-1829.03"/>
<polygon fill="none" stroke="#a6761d" points="974.12,-1672.05 979.5,-1667.25 986,-1670.38 980.62,-1675.17 974.12,-1672.05"/>
</g>
<!-- c42&#45;&gt;c41 -->
<g id="edge39" class="edge">
<title>c42:e&#45;&gt;c41:w</title>
<path fill="none" stroke="#666666" stroke-width="3" d="M950.25,-1610.25C968.14,-1610.25 966.5,-1632.35 976.14,-1641.68"/>
<polygon fill="#666666" stroke="#666666" stroke-width="3" points="972.06,-1643.87 982.65,-1644.14 974.54,-1637.33 972.06,-1643.87"/>
</g>
<!-- x20&#45;&gt;c42 -->
<g id="edge21" class="edge">
<title>x20:e&#45;&gt;c42:w</title>
<path fill="none" stroke="#7570b3" d="M832.96,-1505.87C851.32,-1521.41 825.49,-1579.09 844.36,-1594.14"/>
<polygon fill="none" stroke="#7570b3" points="832.82,-1505.83 825.9,-1507.87 821.36,-1502.27 828.28,-1500.23 832.82,-1505.83"/>
<polygon fill="none" stroke="#7570b3" points="844.13,-1594.07 851.03,-1591.95 855.64,-1597.49 848.74,-1599.62 844.13,-1594.07"/>
</g>
<!-- c43 -->
<g id="node44" class="node">
<title>c43</title>
<polygon fill="none" stroke="black" points="439.5,-1307.5 439.5,-1356.5 525,-1356.5 525,-1307.5 439.5,-1307.5"/>
<text xml:space="preserve" text-anchor="middle" x="452.37" y="-1339.2" font-family="Times,serif" font-size="14.00">A</text>
<polyline fill="none" stroke="black" points="439.5,-1332 465.25,-1332"/>
<text xml:space="preserve" text-anchor="middle" x="452.37" y="-1314.7" font-family="Times,serif" font-size="14.00">B</text>
<polyline fill="none" stroke="black" points="465.25,-1307.5 465.25,-1356.5"/>
<text xml:space="preserve" text-anchor="middle" x="482.25" y="-1335.2" font-family="Times,serif" font-size="14.00">$7</text>
<text xml:space="preserve" text-anchor="middle" x="482.25" y="-1318.7" font-family="Times,serif" font-size="14.00">$or</text>
<polyline fill="none" stroke="black" points="499.25,-1307.5 499.25,-1356.5"/>
<text xml:space="preserve" text-anchor="middle" x="512.12" y="-1327.2" font-family="Times,serif" font-size="14.00">Y</text>
</g>
<!-- x21 -->
<g id="node45" class="node">
<title>x21</title>
<path fill="none" stroke="#7570b3" d="M573,-1307.5C573,-1307.5 611.5,-1307.5 611.5,-1307.5 617.5,-1307.5 623.5,-1313.5 623.5,-1319.5 623.5,-1319.5 623.5,-1344.5 623.5,-1344.5 623.5,-1350.5 617.5,-1356.5 611.5,-1356.5 611.5,-1356.5 573,-1356.5 573,-1356.5 567,-1356.5 561,-1350.5 561,-1344.5 561,-1344.5 561,-1319.5 561,-1319.5 561,-1313.5 567,-1307.5 573,-1307.5"/>
<text xml:space="preserve" text-anchor="middle" x="592.25" y="-1339.2" font-family="Times,serif" font-size="14.00" fill="#7570b3">7:1 &#45; 7:1</text>
<polyline fill="none" stroke="#7570b3" points="561,-1332 623.5,-1332"/>
<text xml:space="preserve" text-anchor="middle" x="592.25" y="-1314.7" font-family="Times,serif" font-size="14.00" fill="#7570b3">0:0 &#45; 1:1</text>
</g>
<!-- c43&#45;&gt;x21 -->
<g id="edge22" class="edge">
<title>c43:e&#45;&gt;x21:w</title>
<path fill="none" stroke="#a6761d" stroke-width="3" d="M537.72,-1332.19C541.32,-1332.15 544.45,-1332.1 548.03,-1332.07"/>
<polygon fill="none" stroke="#a6761d" stroke-width="3" points="539.7,-1332.18 533.72,-1336.21 527.7,-1332.24 533.68,-1328.21 539.7,-1332.18"/>
<polygon fill="none" stroke="#a6761d" stroke-width="3" points="546.3,-1332.07 552.28,-1328.04 558.3,-1332.01 552.32,-1336.04 546.3,-1332.07"/>
</g>
<!-- x21&#45;&gt;n18 -->
<g id="edge52" class="edge">
<title>x21:e&#45;&gt;n18:w</title>
<path fill="none" stroke="#e7298a" d="M623.5,-1319.75C803.78,-1319.75 491.64,-924.54 650.76,-907.56"/>
<polygon fill="#e7298a" stroke="#e7298a" points="650.61,-911.08 660.43,-907.08 650.26,-904.08 650.61,-911.08"/>
</g>
<!-- n13 -->
<g id="node74" class="node">
<title>n13</title>
<polygon fill="none" stroke="black" points="1030.64,-1159 986.25,-1141 1030.64,-1123 1075.04,-1141 1030.64,-1159"/>
<text xml:space="preserve" text-anchor="middle" x="1030.64" y="-1135.95" font-family="Times,serif" font-size="14.00">$7_Y</text>
</g>
<!-- x21&#45;&gt;n13 -->
<g id="edge40" class="edge">
<title>x21:e&#45;&gt;n13:w</title>
<path fill="none" stroke="#a6761d" stroke-width="3" d="M623.5,-1344.25C712.86,-1344.25 753.38,-1362.99 820.5,-1304 857.56,-1271.43 823.07,-1235.28 856.5,-1199 887.31,-1165.55 908.85,-1176.82 950.25,-1158 962.2,-1152.56 966.5,-1145.83 975.15,-1142.72"/>
<polygon fill="#a6761d" stroke="#a6761d" stroke-width="3" points="972.42,-1146.69 981.76,-1141.7 971.34,-1139.77 972.42,-1146.69"/>
</g>
<!-- x22&#45;&gt;c43 -->
<g id="edge23" class="edge">
<title>x22:e&#45;&gt;c43:w</title>
<path fill="none" stroke="#e6ab02" d="M401.06,-1649.86C443.79,-1615.83 384.66,-1382.88 427.2,-1348.49"/>
<polygon fill="none" stroke="#e6ab02" points="401.09,-1649.84 396.7,-1655.56 389.73,-1653.71 394.12,-1647.99 401.09,-1649.84"/>
<polygon fill="none" stroke="#e6ab02" points="427.3,-1348.45 431.67,-1342.72 438.65,-1344.54 434.28,-1350.28 427.3,-1348.45"/>
</g>
<!-- c44&#45;&gt;c43 -->
<g id="edge42" class="edge">
<title>c44:e&#45;&gt;c43:w</title>
<path fill="none" stroke="#7570b3" stroke-width="3" d="M403.5,-148.25C465.5,-148.25 383.04,-1210.32 431.21,-1311.96"/>
<polygon fill="#7570b3" stroke="#7570b3" stroke-width="3" points="426.51,-1312.34 436.19,-1316.64 431.3,-1307.24 426.51,-1312.34"/>
</g>
<!-- x23 -->
<g id="node49" class="node">
<title>x23</title>
<path fill="none" stroke="#e6ab02" d="M1011.39,-41.5C1011.39,-41.5 1049.89,-41.5 1049.89,-41.5 1055.89,-41.5 1061.89,-47.5 1061.89,-53.5 1061.89,-53.5 1061.89,-78.5 1061.89,-78.5 1061.89,-84.5 1055.89,-90.5 1049.89,-90.5 1049.89,-90.5 1011.39,-90.5 1011.39,-90.5 1005.39,-90.5 999.39,-84.5 999.39,-78.5 999.39,-78.5 999.39,-53.5 999.39,-53.5 999.39,-47.5 1005.39,-41.5 1011.39,-41.5"/>
<text xml:space="preserve" text-anchor="middle" x="1030.64" y="-73.2" font-family="Times,serif" font-size="14.00" fill="#e6ab02">8:8 &#45; 8:8</text>
<polyline fill="none" stroke="#e6ab02" points="999.39,-66 1061.89,-66"/>
<text xml:space="preserve" text-anchor="middle" x="1030.64" y="-48.7" font-family="Times,serif" font-size="14.00" fill="#e6ab02">7:0 &#45; 7:0</text>
</g>
<!-- c45&#45;&gt;x23 -->
<g id="edge24" class="edge">
<title>c45:e&#45;&gt;x23:w</title>
<path fill="none" stroke="#1b9e77" stroke-width="3" d="M963.06,-66.22C971.29,-66.17 977.16,-66.08 985.35,-66.04"/>
<polygon fill="none" stroke="#1b9e77" stroke-width="3" points="964.95,-66.21 958.97,-70.23 952.95,-66.24 958.94,-62.23 964.95,-66.21"/>
<polygon fill="none" stroke="#1b9e77" stroke-width="3" points="983.69,-66.04 989.68,-62.02 995.69,-66.01 989.7,-70.02 983.69,-66.04"/>
</g>
<!-- x23&#45;&gt;n22 -->
<g id="edge95" class="edge">
<title>x23:e&#45;&gt;n22:w</title>
<path fill="none" stroke="#7570b3" stroke-width="3" d="M1062.89,-53.75C1081.76,-53.75 1088.4,-46.65 1102.68,-43.99"/>
<polygon fill="#7570b3" stroke="#7570b3" stroke-width="3" points="1099.85,-47.75 1109.51,-43.4 1099.24,-40.78 1099.85,-47.75"/>
</g>
<!-- n15 -->
<g id="node75" class="node">
<title>n15</title>
<polygon fill="none" stroke="black" points="1391.75,-84 1347.35,-66 1391.75,-48 1436.14,-66 1391.75,-84"/>
<text xml:space="preserve" text-anchor="middle" x="1391.75" y="-60.95" font-family="Times,serif" font-size="14.00">$5_Y</text>
</g>
<!-- x23&#45;&gt;n15 -->
<g id="edge43" class="edge">
<title>x23:e&#45;&gt;n15:w</title>
<path fill="none" stroke="#66a61e" d="M1062.89,-78.25C1173.38,-78.25 1201.15,-77.94 1311.35,-70 1322.77,-69.18 1328.01,-67.5 1335.87,-66.6"/>
<polygon fill="#66a61e" stroke="#66a61e" points="1336.04,-70.1 1345.84,-66.08 1335.67,-63.11 1336.04,-70.1"/>
</g>
<!-- x24&#45;&gt;c45 -->
<g id="edge25" class="edge">
<title>x24:e&#45;&gt;c45:w</title>
<path fill="none" stroke="#66a61e" stroke-width="3" d="M832.99,-88.81C836.94,-86.59 840.08,-83.64 844.04,-81.42"/>
<polygon fill="none" stroke="#66a61e" stroke-width="3" points="834.75,-88.36 829.92,-93.72 823.12,-91.33 827.94,-85.97 834.75,-88.36"/>
<polygon fill="none" stroke="#66a61e" stroke-width="3" points="842.25,-81.88 847.08,-76.52 853.88,-78.92 849.05,-84.27 842.25,-81.88"/>
</g>
<!-- c46&#45;&gt;n19 -->
<g id="edge74" class="edge">
<title>c46:e&#45;&gt;n19:w</title>
<path fill="none" stroke="#a6761d" stroke-width="3" d="M183.75,-1294.25C340.36,-1294.25 73.27,-1635.96 208.36,-1653.32"/>
<polygon fill="#a6761d" stroke="#a6761d" stroke-width="3" points="205.03,-1656.62 215.22,-1653.73 205.45,-1649.63 205.03,-1656.62"/>
</g>
<!-- c47&#45;&gt;n20 -->
<g id="edge84" class="edge">
<title>c47:e&#45;&gt;n20:w</title>
<path fill="none" stroke="#e6ab02" stroke-width="3" d="M183.75,-1226.25C341,-1226.25 72.67,-883.11 208.31,-865.69"/>
<polygon fill="#e6ab02" stroke="#e6ab02" stroke-width="3" points="205.45,-869.37 215.22,-865.27 205.03,-862.38 205.45,-869.37"/>
</g>
<!-- x26 -->
<g id="node54" class="node">
<title>x26</title>
<path fill="none" stroke="#66a61e" d="M1011.39,-431C1011.39,-431 1049.89,-431 1049.89,-431 1055.89,-431 1061.89,-437 1061.89,-443 1061.89,-443 1061.89,-455 1061.89,-455 1061.89,-461 1055.89,-467 1049.89,-467 1049.89,-467 1011.39,-467 1011.39,-467 1005.39,-467 999.39,-461 999.39,-455 999.39,-455 999.39,-443 999.39,-443 999.39,-437 1005.39,-431 1011.39,-431"/>
<text xml:space="preserve" text-anchor="middle" x="1030.64" y="-444.2" font-family="Times,serif" font-size="14.00" fill="#66a61e">0:0 &#45; 0:0</text>
</g>
<!-- x25&#45;&gt;x26 -->
<g id="edge26" class="edge">
<title>x25:e&#45;&gt;x26:w</title>
<path fill="none" stroke="#a6761d" d="M833.31,-453.57C840.45,-451.85 845.6,-449.05 856.5,-448 914.74,-442.39 932.76,-448.05 985.42,-448.9"/>
<polygon fill="none" stroke="#a6761d" points="833.32,-453.57 827.8,-458.21 821.4,-454.9 826.92,-450.26 833.32,-453.57"/>
<polygon fill="none" stroke="#a6761d" points="985.49,-448.9 991.52,-444.95 997.49,-448.99 991.46,-452.95 985.49,-448.9"/>
</g>
<!-- x26&#45;&gt;n1 -->
<g id="edge34" class="edge">
<title>x26:e&#45;&gt;n1:w</title>
<path fill="none" stroke="#66a61e" d="M1062.89,-449.25C1077.68,-449.25 1165.1,-481.69 1198.61,-490.05"/>
<polygon fill="#66a61e" stroke="#66a61e" points="1197.59,-493.42 1208.05,-491.73 1198.82,-486.53 1197.59,-493.42"/>
</g>
<!-- x28 -->
<g id="node56" class="node">
<title>x28</title>
<path fill="none" stroke="#a6761d" d="M1123.04,-866C1123.04,-866 1161.54,-866 1161.54,-866 1167.54,-866 1173.54,-872 1173.54,-878 1173.54,-878 1173.54,-890 1173.54,-890 1173.54,-896 1167.54,-902 1161.54,-902 1161.54,-902 1123.04,-902 1123.04,-902 1117.04,-902 1111.04,-896 1111.04,-890 1111.04,-890 1111.04,-878 1111.04,-878 1111.04,-872 1117.04,-866 1123.04,-866"/>
<text xml:space="preserve" text-anchor="middle" x="1142.29" y="-879.2" font-family="Times,serif" font-size="14.00" fill="#a6761d">0:0 &#45; 0:0</text>
</g>
<!-- x27&#45;&gt;x28 -->
<g id="edge27" class="edge">
<title>x27:e&#45;&gt;x28:w</title>
<path fill="none" stroke="#7570b3" d="M833.41,-884C947.78,-884 983.8,-884 1098.21,-884"/>
<polygon fill="none" stroke="#7570b3" points="833.4,-884 827.4,-888 821.4,-884 827.4,-880 833.4,-884"/>
<polygon fill="none" stroke="#7570b3" points="1098.14,-884 1104.14,-880 1110.14,-884 1104.14,-888 1098.14,-884"/>
</g>
<!-- x28&#45;&gt;n3 -->
<g id="edge104" class="edge">
<title>x28:e&#45;&gt;n3:w</title>
<path fill="none" stroke="#e6ab02" d="M1173.54,-884.25C1191.76,-884.25 1189.28,-907.59 1199.09,-917.07"/>
<polygon fill="#e6ab02" stroke="#e6ab02" points="1197.53,-920.22 1208.12,-920.47 1200,-913.67 1197.53,-920.22"/>
</g>
<!-- x30 -->
<g id="node58" class="node">
<title>x30</title>
<path fill="none" stroke="#7570b3" d="M1011.39,-798C1011.39,-798 1049.89,-798 1049.89,-798 1055.89,-798 1061.89,-804 1061.89,-810 1061.89,-810 1061.89,-822 1061.89,-822 1061.89,-828 1055.89,-834 1049.89,-834 1049.89,-834 1011.39,-834 1011.39,-834 1005.39,-834 999.39,-828 999.39,-822 999.39,-822 999.39,-810 999.39,-810 999.39,-804 1005.39,-798 1011.39,-798"/>
<text xml:space="preserve" text-anchor="middle" x="1030.64" y="-811.2" font-family="Times,serif" font-size="14.00" fill="#7570b3">0:0 &#45; 0:0</text>
</g>
<!-- x29&#45;&gt;x30 -->
<g id="edge28" class="edge">
<title>x29:e&#45;&gt;x30:w</title>
<path fill="none" stroke="#e6ab02" d="M833.42,-828.88C898,-827.65 920.84,-817.36 985.37,-816.12"/>
<polygon fill="none" stroke="#e6ab02" points="833.4,-828.88 827.44,-832.94 821.4,-828.99 827.36,-824.94 833.4,-828.88"/>
<polygon fill="none" stroke="#e6ab02" points="985.49,-816.12 991.45,-812.07 997.49,-816.01 991.53,-820.06 985.49,-816.12"/>
</g>
<!-- x30&#45;&gt;n5 -->
<g id="edge107" class="edge">
<title>x30:e&#45;&gt;n5:w</title>
<path fill="none" stroke="#d95f02" d="M1062.89,-816.25C1126.52,-816.25 1140.41,-780.58 1198.21,-776.4"/>
<polygon fill="#d95f02" stroke="#d95f02" points="1198.15,-779.9 1208.02,-776.05 1197.91,-772.91 1198.15,-779.9"/>
</g>
<!-- x32 -->
<g id="node60" class="node">
<title>x32</title>
<path fill="none" stroke="#e6ab02" d="M1123.04,-373C1123.04,-373 1161.54,-373 1161.54,-373 1167.54,-373 1173.54,-379 1173.54,-385 1173.54,-385 1173.54,-397 1173.54,-397 1173.54,-403 1167.54,-409 1161.54,-409 1161.54,-409 1123.04,-409 1123.04,-409 1117.04,-409 1111.04,-403 1111.04,-397 1111.04,-397 1111.04,-385 1111.04,-385 1111.04,-379 1117.04,-373 1123.04,-373"/>
<text xml:space="preserve" text-anchor="middle" x="1142.29" y="-386.2" font-family="Times,serif" font-size="14.00" fill="#e6ab02">0:0 &#45; 0:0</text>
</g>
<!-- x31&#45;&gt;x32 -->
<g id="edge29" class="edge">
<title>x31:e&#45;&gt;x32:w</title>
<path fill="none" stroke="#7570b3" d="M833.41,-399.97C947.83,-399.42 983.75,-391.58 1098.21,-391.03"/>
<polygon fill="none" stroke="#7570b3" points="833.4,-399.97 827.41,-403.98 821.4,-400 827.39,-395.98 833.4,-399.97"/>
<polygon fill="none" stroke="#7570b3" points="1098.14,-391.03 1104.13,-387.02 1110.14,-391 1104.15,-395.02 1098.14,-391.03"/>
</g>
<!-- x32&#45;&gt;n7 -->
<g id="edge111" class="edge">
<title>x32:e&#45;&gt;n7:w</title>
<path fill="none" stroke="#66a61e" d="M1173.54,-391.25C1188.35,-391.25 1190.16,-376.75 1198.68,-369.73"/>
<polygon fill="#66a61e" stroke="#66a61e" points="1199.78,-373.05 1208.11,-366.49 1197.51,-366.43 1199.78,-373.05"/>
</g>
<!-- x34 -->
<g id="node62" class="node">
<title>x34</title>
<path fill="none" stroke="#7570b3" d="M1011.39,-1259C1011.39,-1259 1049.89,-1259 1049.89,-1259 1055.89,-1259 1061.89,-1265 1061.89,-1271 1061.89,-1271 1061.89,-1283 1061.89,-1283 1061.89,-1289 1055.89,-1295 1049.89,-1295 1049.89,-1295 1011.39,-1295 1011.39,-1295 1005.39,-1295 999.39,-1289 999.39,-1283 999.39,-1283 999.39,-1271 999.39,-1271 999.39,-1265 1005.39,-1259 1011.39,-1259"/>
<text xml:space="preserve" text-anchor="middle" x="1030.64" y="-1272.2" font-family="Times,serif" font-size="14.00" fill="#7570b3">0:0 &#45; 0:0</text>
</g>
<!-- x33&#45;&gt;x34 -->
<g id="edge30" class="edge">
<title>x33:e&#45;&gt;x34:w</title>
<path fill="none" stroke="#d95f02" d="M833.39,-1276.01C897.84,-1276.1 920.99,-1276.9 985.4,-1276.99"/>
<polygon fill="none" stroke="#d95f02" points="833.4,-1276.01 827.4,-1280.01 821.4,-1276 827.4,-1272.01 833.4,-1276.01"/>
<polygon fill="none" stroke="#d95f02" points="985.49,-1276.99 991.49,-1272.99 997.49,-1277 991.49,-1280.99 985.49,-1276.99"/>
</g>
<!-- x34&#45;&gt;n9 -->
<g id="edge114" class="edge">
<title>x34:e&#45;&gt;n9:w</title>
<path fill="none" stroke="#666666" d="M1062.89,-1277.25C1113.28,-1277.25 1124.98,-1288.52 1173.54,-1302 1185.34,-1305.28 1190.09,-1310.13 1198.28,-1312.53"/>
<polygon fill="#666666" stroke="#666666" points="1197.67,-1315.98 1208.04,-1313.8 1198.57,-1309.04 1197.67,-1315.98"/>
</g>
<!-- x36 -->
<g id="node64" class="node">
<title>x36</title>
<path fill="none" stroke="#d95f02" d="M884.12,-1730C884.12,-1730 922.62,-1730 922.62,-1730 928.62,-1730 934.62,-1736 934.62,-1742 934.62,-1742 934.62,-1754 934.62,-1754 934.62,-1760 928.62,-1766 922.62,-1766 922.62,-1766 884.12,-1766 884.12,-1766 878.12,-1766 872.12,-1760 872.12,-1754 872.12,-1754 872.12,-1742 872.12,-1742 872.12,-1736 878.12,-1730 884.12,-1730"/>
<text xml:space="preserve" text-anchor="middle" x="903.37" y="-1743.2" font-family="Times,serif" font-size="14.00" fill="#d95f02">0:0 &#45; 0:0</text>
</g>
<!-- x35&#45;&gt;x36 -->
<g id="edge31" class="edge">
<title>x35:e&#45;&gt;x36:w</title>
<path fill="none" stroke="#d95f02" d="M833.2,-1748C842.49,-1748 848.85,-1748 858.07,-1748"/>
<polygon fill="none" stroke="#d95f02" points="833.4,-1748 827.4,-1752 821.4,-1748 827.4,-1744 833.4,-1748"/>
<polygon fill="none" stroke="#d95f02" points="858.22,-1748 864.22,-1744 870.22,-1748 864.22,-1752 858.22,-1748"/>
</g>
<!-- x36&#45;&gt;n11 -->
<g id="edge38" class="edge">
<title>x36:e&#45;&gt;n11:w</title>
<path fill="none" stroke="#e7298a" d="M935.62,-1748.25C1058.27,-1748.25 1086.06,-1693.47 1202.96,-1690.16"/>
<polygon fill="#e7298a" stroke="#e7298a" points="1202.71,-1693.66 1212.66,-1690.02 1202.61,-1686.66 1202.71,-1693.66"/>
</g>
<!-- x38 -->
<g id="node66" class="node">
<title>x38</title>
<path fill="none" stroke="#d95f02" d="M884.12,-1112C884.12,-1112 922.62,-1112 922.62,-1112 928.62,-1112 934.62,-1118 934.62,-1124 934.62,-1124 934.62,-1136 934.62,-1136 934.62,-1142 928.62,-1148 922.62,-1148 922.62,-1148 884.12,-1148 884.12,-1148 878.12,-1148 872.12,-1142 872.12,-1136 872.12,-1136 872.12,-1124 872.12,-1124 872.12,-1118 878.12,-1112 884.12,-1112"/>
<text xml:space="preserve" text-anchor="middle" x="903.37" y="-1125.2" font-family="Times,serif" font-size="14.00" fill="#d95f02">0:0 &#45; 0:0</text>
</g>
<!-- x37&#45;&gt;x38 -->
<g id="edge32" class="edge">
<title>x37:e&#45;&gt;x38:w</title>
<path fill="none" stroke="#e6ab02" d="M833.21,-1127.37C842.6,-1127.94 848.98,-1129.05 858.37,-1129.63"/>
<polygon fill="none" stroke="#e6ab02" points="833.4,-1127.37 827.28,-1131.2 821.4,-1127.03 827.51,-1123.2 833.4,-1127.37"/>
<polygon fill="none" stroke="#e6ab02" points="858.23,-1129.62 864.34,-1125.8 870.22,-1129.97 864.11,-1133.8 858.23,-1129.62"/>
</g>
<!-- x38&#45;&gt;n13 -->
<g id="edge41" class="edge">
<title>x38:e&#45;&gt;n13:w</title>
<path fill="none" stroke="#a6761d" d="M935.62,-1130.25C954.31,-1130.25 960.87,-1137.35 975.01,-1140.01"/>
<polygon fill="#a6761d" stroke="#a6761d" points="974.47,-1143.47 984.74,-1140.87 975.09,-1136.5 974.47,-1143.47"/>
</g>
<!-- x39&#45;&gt;n15 -->
<g id="edge44" class="edge">
<title>x39:e&#45;&gt;n15:w</title>
<path fill="none" stroke="#66a61e" stroke-width="3" d="M1292.69,-43.25C1314.69,-43.25 1319.72,-59.15 1336.15,-64.36"/>
<polygon fill="#66a61e" stroke="#66a61e" stroke-width="3" points="1332.46,-67.36 1342.86,-65.34 1333.47,-60.44 1332.46,-67.36"/>
</g>
<!-- x41 -->
<g id="node69" class="node">
<title>x41</title>
<path fill="none" stroke="#e6ab02" d="M1123.04,-1024C1123.04,-1024 1161.54,-1024 1161.54,-1024 1167.54,-1024 1173.54,-1030 1173.54,-1036 1173.54,-1036 1173.54,-1048 1173.54,-1048 1173.54,-1054 1167.54,-1060 1161.54,-1060 1161.54,-1060 1123.04,-1060 1123.04,-1060 1117.04,-1060 1111.04,-1054 1111.04,-1048 1111.04,-1048 1111.04,-1036 1111.04,-1036 1111.04,-1030 1117.04,-1024 1123.04,-1024"/>
<text xml:space="preserve" text-anchor="middle" x="1142.29" y="-1037.2" font-family="Times,serif" font-size="14.00" fill="#e6ab02">0:0 &#45; 0:0</text>
</g>
<!-- x40&#45;&gt;x41 -->
<g id="edge33" class="edge">
<title>x40:e&#45;&gt;x41:w</title>
<path fill="none" stroke="#1b9e77" d="M833.41,-1033.03C947.83,-1033.58 983.75,-1041.42 1098.21,-1041.97"/>
<polygon fill="none" stroke="#1b9e77" points="833.4,-1033.03 827.39,-1037.02 821.4,-1033 827.41,-1029.02 833.4,-1033.03"/>
<polygon fill="none" stroke="#1b9e77" points="1098.14,-1041.97 1104.15,-1037.98 1110.14,-1042 1104.13,-1045.98 1098.14,-1041.97"/>
</g>
<!-- x41&#45;&gt;n17 -->
<g id="edge47" class="edge">
<title>x41:e&#45;&gt;n17:w</title>
<path fill="none" stroke="#a6761d" d="M1173.54,-1042.25C1191.76,-1042.25 1189.28,-1065.59 1199.09,-1075.07"/>
<polygon fill="#a6761d" stroke="#a6761d" points="1197.53,-1078.22 1208.12,-1078.47 1200,-1071.67 1197.53,-1078.22"/>
</g>
<!-- x42&#45;&gt;n18 -->
<g id="edge54" class="edge">
<title>x42:e&#45;&gt;n18:w</title>
<path fill="none" stroke="#e7298a" d="M514.5,-177.25C565.29,-177.25 549.58,-582.51 561,-632 589.39,-755.02 535.21,-898.05 650.62,-906.6"/>
<polygon fill="#e7298a" stroke="#e7298a" points="650.31,-910.09 660.42,-906.95 650.56,-903.09 650.31,-910.09"/>
</g>
<!-- x43&#45;&gt;n21 -->
<g id="edge94" class="edge">
<title>x43:e&#45;&gt;n21:w</title>
<path fill="none" stroke="#7570b3" d="M820.5,-774C839.68,-774 847.06,-774 862,-774"/>
<polygon fill="#7570b3" stroke="#7570b3" points="861.6,-777.5 871.6,-774 861.6,-770.5 861.6,-777.5"/>
</g>
</g>
</svg>
