<svg xmlns="http://www.w3.org/2000/svg" xmlns:xlink="http://www.w3.org/1999/xlink" xmlns:s="https://github.com/nturley/netlistsvg" width="1430" height="1289">
  <style>svg {
    stroke:#000;
    fill:none;
  }
  text {
    fill:#000;
    stroke:none;
    font-size:10px;
    font-weight: bold;
    font-family: "Courier New", monospace;
  }
  .nodelabel {
    text-anchor: middle;
  }
  .inputPortLabel {
    text-anchor: end;
  }
  .splitjoinBody {
    fill:#000;
  }</style>
  <g s:type="reduce_xor" transform="translate(259,834.5)" s:width="33" s:height="25" id="cell_$auto$simplemap.cc:106:simplemap_bitop$100">
    <s:alias val="$xor"/>
    <s:alias val="$reduce_xor"/>
    <s:alias val="$_XOR_"/>
    <path d="M3,0 A30 25 0 0 1 3,25 A30 25 0 0 0 33,12.5 A30 25 0 0 0 3,0" class="cell_$auto$simplemap.cc:106:simplemap_bitop$100"/>
    <path d="M0,0 A30 25 0 0 1 0,25" class="cell_$auto$simplemap.cc:106:simplemap_bitop$100"/>
    <g s:x="3" s:y="5" s:pid="A"/>
    <g s:x="3" s:y="20" s:pid="B"/>
    <g s:x="33" s:y="12.5" s:pid="Y"/>
  </g>
  <g s:type="reduce_xor" transform="translate(1177,113)" s:width="33" s:height="25" id="cell_$auto$simplemap.cc:106:simplemap_bitop$101">
    <s:alias val="$xor"/>
    <s:alias val="$reduce_xor"/>
    <s:alias val="$_XOR_"/>
    <path d="M3,0 A30 25 0 0 1 3,25 A30 25 0 0 0 33,12.5 A30 25 0 0 0 3,0" class="cell_$auto$simplemap.cc:106:simplemap_bitop$101"/>
    <path d="M0,0 A30 25 0 0 1 0,25" class="cell_$auto$simplemap.cc:106:simplemap_bitop$101"/>
    <g s:x="3" s:y="5" s:pid="A"/>
    <g s:x="3" s:y="20" s:pid="B"/>
    <g s:x="33" s:y="12.5" s:pid="Y"/>
  </g>
  <g s:type="reduce_xor" transform="translate(1177,332)" s:width="33" s:height="25" id="cell_$auto$simplemap.cc:106:simplemap_bitop$102">
    <s:alias val="$xor"/>
    <s:alias val="$reduce_xor"/>
    <s:alias val="$_XOR_"/>
    <path d="M3,0 A30 25 0 0 1 3,25 A30 25 0 0 0 33,12.5 A30 25 0 0 0 3,0" class="cell_$auto$simplemap.cc:106:simplemap_bitop$102"/>
    <path d="M0,0 A30 25 0 0 1 0,25" class="cell_$auto$simplemap.cc:106:simplemap_bitop$102"/>
    <g s:x="3" s:y="5" s:pid="A"/>
    <g s:x="3" s:y="20" s:pid="B"/>
    <g s:x="33" s:y="12.5" s:pid="Y"/>
  </g>
  <g s:type="reduce_xor" transform="translate(1177,394)" s:width="33" s:height="25" id="cell_$auto$simplemap.cc:106:simplemap_bitop$103">
    <s:alias val="$xor"/>
    <s:alias val="$reduce_xor"/>
    <s:alias val="$_XOR_"/>
    <path d="M3,0 A30 25 0 0 1 3,25 A30 25 0 0 0 33,12.5 A30 25 0 0 0 3,0" class="cell_$auto$simplemap.cc:106:simplemap_bitop$103"/>
    <path d="M0,0 A30 25 0 0 1 0,25" class="cell_$auto$simplemap.cc:106:simplemap_bitop$103"/>
    <g s:x="3" s:y="5" s:pid="A"/>
    <g s:x="3" s:y="20" s:pid="B"/>
    <g s:x="33" s:y="12.5" s:pid="Y"/>
  </g>
  <g s:type="reduce_xor" transform="translate(1177,527)" s:width="33" s:height="25" id="cell_$auto$simplemap.cc:106:simplemap_bitop$104">
    <s:alias val="$xor"/>
    <s:alias val="$reduce_xor"/>
    <s:alias val="$_XOR_"/>
    <path d="M3,0 A30 25 0 0 1 3,25 A30 25 0 0 0 33,12.5 A30 25 0 0 0 3,0" class="cell_$auto$simplemap.cc:106:simplemap_bitop$104"/>
    <path d="M0,0 A30 25 0 0 1 0,25" class="cell_$auto$simplemap.cc:106:simplemap_bitop$104"/>
    <g s:x="3" s:y="5" s:pid="A"/>
    <g s:x="3" s:y="20" s:pid="B"/>
    <g s:x="33" s:y="12.5" s:pid="Y"/>
  </g>
  <g s:type="reduce_xor" transform="translate(1177,660)" s:width="33" s:height="25" id="cell_$auto$simplemap.cc:106:simplemap_bitop$105">
    <s:alias val="$xor"/>
    <s:alias val="$reduce_xor"/>
    <s:alias val="$_XOR_"/>
    <path d="M3,0 A30 25 0 0 1 3,25 A30 25 0 0 0 33,12.5 A30 25 0 0 0 3,0" class="cell_$auto$simplemap.cc:106:simplemap_bitop$105"/>
    <path d="M0,0 A30 25 0 0 1 0,25" class="cell_$auto$simplemap.cc:106:simplemap_bitop$105"/>
    <g s:x="3" s:y="5" s:pid="A"/>
    <g s:x="3" s:y="20" s:pid="B"/>
    <g s:x="33" s:y="12.5" s:pid="Y"/>
  </g>
  <g s:type="reduce_xor" transform="translate(1177,872)" s:width="33" s:height="25" id="cell_$auto$simplemap.cc:106:simplemap_bitop$106">
    <s:alias val="$xor"/>
    <s:alias val="$reduce_xor"/>
    <s:alias val="$_XOR_"/>
    <path d="M3,0 A30 25 0 0 1 3,25 A30 25 0 0 0 33,12.5 A30 25 0 0 0 3,0" class="cell_$auto$simplemap.cc:106:simplemap_bitop$106"/>
    <path d="M0,0 A30 25 0 0 1 0,25" class="cell_$auto$simplemap.cc:106:simplemap_bitop$106"/>
    <g s:x="3" s:y="5" s:pid="A"/>
    <g s:x="3" s:y="20" s:pid="B"/>
    <g s:x="33" s:y="12.5" s:pid="Y"/>
  </g>
  <g s:type="reduce_xor" transform="translate(1177,989)" s:width="33" s:height="25" id="cell_$auto$simplemap.cc:106:simplemap_bitop$107">
    <s:alias val="$xor"/>
    <s:alias val="$reduce_xor"/>
    <s:alias val="$_XOR_"/>
    <path d="M3,0 A30 25 0 0 1 3,25 A30 25 0 0 0 33,12.5 A30 25 0 0 0 3,0" class="cell_$auto$simplemap.cc:106:simplemap_bitop$107"/>
    <path d="M0,0 A30 25 0 0 1 0,25" class="cell_$auto$simplemap.cc:106:simplemap_bitop$107"/>
    <g s:x="3" s:y="5" s:pid="A"/>
    <g s:x="3" s:y="20" s:pid="B"/>
    <g s:x="33" s:y="12.5" s:pid="Y"/>
  </g>
  <g s:type="and" transform="translate(332,410)" s:width="30" s:height="25" id="cell_$auto$simplemap.cc:106:simplemap_bitop$108">
    <s:alias val="$and"/>
    <s:alias val="$logic_and"/>
    <s:alias val="$_AND_"/>
    <path d="M0,0 L0,25 L15,25 A15 12.5 0 0 0 15,0 Z" class="cell_$auto$simplemap.cc:106:simplemap_bitop$108"/>
    <g s:x="0" s:y="5" s:pid="A"/>
    <g s:x="0" s:y="20" s:pid="B"/>
    <g s:x="30" s:y="12.5" s:pid="Y"/>
  </g>
  <g s:type="and" transform="translate(462,543)" s:width="30" s:height="25" id="cell_$auto$simplemap.cc:106:simplemap_bitop$109">
    <s:alias val="$and"/>
    <s:alias val="$logic_and"/>
    <s:alias val="$_AND_"/>
    <path d="M0,0 L0,25 L15,25 A15 12.5 0 0 0 15,0 Z" class="cell_$auto$simplemap.cc:106:simplemap_bitop$109"/>
    <g s:x="0" s:y="5" s:pid="A"/>
    <g s:x="0" s:y="20" s:pid="B"/>
    <g s:x="30" s:y="12.5" s:pid="Y"/>
  </g>
  <g s:type="and" transform="translate(592,676)" s:width="30" s:height="25" id="cell_$auto$simplemap.cc:106:simplemap_bitop$110">
    <s:alias val="$and"/>
    <s:alias val="$logic_and"/>
    <s:alias val="$_AND_"/>
    <path d="M0,0 L0,25 L15,25 A15 12.5 0 0 0 15,0 Z" class="cell_$auto$simplemap.cc:106:simplemap_bitop$110"/>
    <g s:x="0" s:y="5" s:pid="A"/>
    <g s:x="0" s:y="20" s:pid="B"/>
    <g s:x="30" s:y="12.5" s:pid="Y"/>
  </g>
  <g s:type="and" transform="translate(722,782)" s:width="30" s:height="25" id="cell_$auto$simplemap.cc:106:simplemap_bitop$111">
    <s:alias val="$and"/>
    <s:alias val="$logic_and"/>
    <s:alias val="$_AND_"/>
    <path d="M0,0 L0,25 L15,25 A15 12.5 0 0 0 15,0 Z" class="cell_$auto$simplemap.cc:106:simplemap_bitop$111"/>
    <g s:x="0" s:y="5" s:pid="A"/>
    <g s:x="0" s:y="20" s:pid="B"/>
    <g s:x="30" s:y="12.5" s:pid="Y"/>
  </g>
  <g s:type="and" transform="translate(852,899)" s:width="30" s:height="25" id="cell_$auto$simplemap.cc:106:simplemap_bitop$112">
    <s:alias val="$and"/>
    <s:alias val="$logic_and"/>
    <s:alias val="$_AND_"/>
    <path d="M0,0 L0,25 L15,25 A15 12.5 0 0 0 15,0 Z" class="cell_$auto$simplemap.cc:106:simplemap_bitop$112"/>
    <g s:x="0" s:y="5" s:pid="A"/>
    <g s:x="0" s:y="20" s:pid="B"/>
    <g s:x="30" s:y="12.5" s:pid="Y"/>
  </g>
  <g s:type="and" transform="translate(982,1020)" s:width="30" s:height="25" id="cell_$auto$simplemap.cc:106:simplemap_bitop$113">
    <s:alias val="$and"/>
    <s:alias val="$logic_and"/>
    <s:alias val="$_AND_"/>
    <path d="M0,0 L0,25 L15,25 A15 12.5 0 0 0 15,0 Z" class="cell_$auto$simplemap.cc:106:simplemap_bitop$113"/>
    <g s:x="0" s:y="5" s:pid="A"/>
    <g s:x="0" s:y="20" s:pid="B"/>
    <g s:x="30" s:y="12.5" s:pid="Y"/>
  </g>
  <g s:type="and" transform="translate(1112,1170)" s:width="30" s:height="25" id="cell_$auto$simplemap.cc:106:simplemap_bitop$114">
    <s:alias val="$and"/>
    <s:alias val="$logic_and"/>
    <s:alias val="$_AND_"/>
    <path d="M0,0 L0,25 L15,25 A15 12.5 0 0 0 15,0 Z" class="cell_$auto$simplemap.cc:106:simplemap_bitop$114"/>
    <g s:x="0" s:y="5" s:pid="A"/>
    <g s:x="0" s:y="20" s:pid="B"/>
    <g s:x="30" s:y="12.5" s:pid="Y"/>
  </g>
  <g s:type="and" transform="translate(1251,1110)" s:width="30" s:height="25" id="cell_$auto$simplemap.cc:106:simplemap_bitop$115">
    <s:alias val="$and"/>
    <s:alias val="$logic_and"/>
    <s:alias val="$_AND_"/>
    <path d="M0,0 L0,25 L15,25 A15 12.5 0 0 0 15,0 Z" class="cell_$auto$simplemap.cc:106:simplemap_bitop$115"/>
    <g s:x="0" s:y="5" s:pid="A"/>
    <g s:x="0" s:y="20" s:pid="B"/>
    <g s:x="30" s:y="12.5" s:pid="Y"/>
  </g>
  <g s:type="reduce_xor" transform="translate(1250,12)" s:width="33" s:height="25" id="cell_$auto$simplemap.cc:106:simplemap_bitop$116">
    <s:alias val="$xor"/>
    <s:alias val="$reduce_xor"/>
    <s:alias val="$_XOR_"/>
    <path d="M3,0 A30 25 0 0 1 3,25 A30 25 0 0 0 33,12.5 A30 25 0 0 0 3,0" class="cell_$auto$simplemap.cc:106:simplemap_bitop$116"/>
    <path d="M0,0 A30 25 0 0 1 0,25" class="cell_$auto$simplemap.cc:106:simplemap_bitop$116"/>
    <g s:x="3" s:y="5" s:pid="A"/>
    <g s:x="3" s:y="20" s:pid="B"/>
    <g s:x="33" s:y="12.5" s:pid="Y"/>
  </g>
  <g s:type="reduce_xor" transform="translate(1250,72)" s:width="33" s:height="25" id="cell_$auto$simplemap.cc:106:simplemap_bitop$117">
    <s:alias val="$xor"/>
    <s:alias val="$reduce_xor"/>
    <s:alias val="$_XOR_"/>
    <path d="M3,0 A30 25 0 0 1 3,25 A30 25 0 0 0 33,12.5 A30 25 0 0 0 3,0" class="cell_$auto$simplemap.cc:106:simplemap_bitop$117"/>
    <path d="M0,0 A30 25 0 0 1 0,25" class="cell_$auto$simplemap.cc:106:simplemap_bitop$117"/>
    <g s:x="3" s:y="5" s:pid="A"/>
    <g s:x="3" s:y="20" s:pid="B"/>
    <g s:x="33" s:y="12.5" s:pid="Y"/>
  </g>
  <g s:type="reduce_xor" transform="translate(1250,316)" s:width="33" s:height="25" id="cell_$auto$simplemap.cc:106:simplemap_bitop$118">
    <s:alias val="$xor"/>
    <s:alias val="$reduce_xor"/>
    <s:alias val="$_XOR_"/>
    <path d="M3,0 A30 25 0 0 1 3,25 A30 25 0 0 0 33,12.5 A30 25 0 0 0 3,0" class="cell_$auto$simplemap.cc:106:simplemap_bitop$118"/>
    <path d="M0,0 A30 25 0 0 1 0,25" class="cell_$auto$simplemap.cc:106:simplemap_bitop$118"/>
    <g s:x="3" s:y="5" s:pid="A"/>
    <g s:x="3" s:y="20" s:pid="B"/>
    <g s:x="33" s:y="12.5" s:pid="Y"/>
  </g>
  <g s:type="reduce_xor" transform="translate(1250,376)" s:width="33" s:height="25" id="cell_$auto$simplemap.cc:106:simplemap_bitop$119">
    <s:alias val="$xor"/>
    <s:alias val="$reduce_xor"/>
    <s:alias val="$_XOR_"/>
    <path d="M3,0 A30 25 0 0 1 3,25 A30 25 0 0 0 33,12.5 A30 25 0 0 0 3,0" class="cell_$auto$simplemap.cc:106:simplemap_bitop$119"/>
    <path d="M0,0 A30 25 0 0 1 0,25" class="cell_$auto$simplemap.cc:106:simplemap_bitop$119"/>
    <g s:x="3" s:y="5" s:pid="A"/>
    <g s:x="3" s:y="20" s:pid="B"/>
    <g s:x="33" s:y="12.5" s:pid="Y"/>
  </g>
  <g s:type="reduce_xor" transform="translate(1250,511)" s:width="33" s:height="25" id="cell_$auto$simplemap.cc:106:simplemap_bitop$120">
    <s:alias val="$xor"/>
    <s:alias val="$reduce_xor"/>
    <s:alias val="$_XOR_"/>
    <path d="M3,0 A30 25 0 0 1 3,25 A30 25 0 0 0 33,12.5 A30 25 0 0 0 3,0" class="cell_$auto$simplemap.cc:106:simplemap_bitop$120"/>
    <path d="M0,0 A30 25 0 0 1 0,25" class="cell_$auto$simplemap.cc:106:simplemap_bitop$120"/>
    <g s:x="3" s:y="5" s:pid="A"/>
    <g s:x="3" s:y="20" s:pid="B"/>
    <g s:x="33" s:y="12.5" s:pid="Y"/>
  </g>
  <g s:type="reduce_xor" transform="translate(1250,644)" s:width="33" s:height="25" id="cell_$auto$simplemap.cc:106:simplemap_bitop$121">
    <s:alias val="$xor"/>
    <s:alias val="$reduce_xor"/>
    <s:alias val="$_XOR_"/>
    <path d="M3,0 A30 25 0 0 1 3,25 A30 25 0 0 0 33,12.5 A30 25 0 0 0 3,0" class="cell_$auto$simplemap.cc:106:simplemap_bitop$121"/>
    <path d="M0,0 A30 25 0 0 1 0,25" class="cell_$auto$simplemap.cc:106:simplemap_bitop$121"/>
    <g s:x="3" s:y="5" s:pid="A"/>
    <g s:x="3" s:y="20" s:pid="B"/>
    <g s:x="33" s:y="12.5" s:pid="Y"/>
  </g>
  <g s:type="reduce_xor" transform="translate(1250,777)" s:width="33" s:height="25" id="cell_$auto$simplemap.cc:106:simplemap_bitop$122">
    <s:alias val="$xor"/>
    <s:alias val="$reduce_xor"/>
    <s:alias val="$_XOR_"/>
    <path d="M3,0 A30 25 0 0 1 3,25 A30 25 0 0 0 33,12.5 A30 25 0 0 0 3,0" class="cell_$auto$simplemap.cc:106:simplemap_bitop$122"/>
    <path d="M0,0 A30 25 0 0 1 0,25" class="cell_$auto$simplemap.cc:106:simplemap_bitop$122"/>
    <g s:x="3" s:y="5" s:pid="A"/>
    <g s:x="3" s:y="20" s:pid="B"/>
    <g s:x="33" s:y="12.5" s:pid="Y"/>
  </g>
  <g s:type="reduce_xor" transform="translate(1250,981.5)" s:width="33" s:height="25" id="cell_$auto$simplemap.cc:106:simplemap_bitop$123">
    <s:alias val="$xor"/>
    <s:alias val="$reduce_xor"/>
    <s:alias val="$_XOR_"/>
    <path d="M3,0 A30 25 0 0 1 3,25 A30 25 0 0 0 33,12.5 A30 25 0 0 0 3,0" class="cell_$auto$simplemap.cc:106:simplemap_bitop$123"/>
    <path d="M0,0 A30 25 0 0 1 0,25" class="cell_$auto$simplemap.cc:106:simplemap_bitop$123"/>
    <g s:x="3" s:y="5" s:pid="A"/>
    <g s:x="3" s:y="20" s:pid="B"/>
    <g s:x="33" s:y="12.5" s:pid="Y"/>
  </g>
  <g s:type="and" transform="translate(332,470)" s:width="30" s:height="25" id="cell_$auto$simplemap.cc:106:simplemap_bitop$125">
    <s:alias val="$and"/>
    <s:alias val="$logic_and"/>
    <s:alias val="$_AND_"/>
    <path d="M0,0 L0,25 L15,25 A15 12.5 0 0 0 15,0 Z" class="cell_$auto$simplemap.cc:106:simplemap_bitop$125"/>
    <g s:x="0" s:y="5" s:pid="A"/>
    <g s:x="0" s:y="20" s:pid="B"/>
    <g s:x="30" s:y="12.5" s:pid="Y"/>
  </g>
  <g s:type="or" transform="translate(397,417.5)" s:width="30" s:height="25" id="cell_$auto$simplemap.cc:106:simplemap_bitop$133">
    <s:alias val="$or"/>
    <s:alias val="$logic_or"/>
    <s:alias val="$_OR_"/>
    <path d="M0,25 L0,25 L15,25 A15 12.5 0 0 0 15,0 L0,0" class="cell_$auto$simplemap.cc:106:simplemap_bitop$133"/>
    <path d="M0,0 A30 25 0 0 1 0,25" class="cell_$auto$simplemap.cc:106:simplemap_bitop$133"/>
    <g s:x="3" s:y="5" s:pid="A"/>
    <g s:x="3" s:y="20" s:pid="B"/>
    <g s:x="30" s:y="12.5" s:pid="Y"/>
  </g>
  <g s:type="and" transform="translate(462,603)" s:width="30" s:height="25" id="cell_$auto$simplemap.cc:106:simplemap_bitop$141">
    <s:alias val="$and"/>
    <s:alias val="$logic_and"/>
    <s:alias val="$_AND_"/>
    <path d="M0,0 L0,25 L15,25 A15 12.5 0 0 0 15,0 Z" class="cell_$auto$simplemap.cc:106:simplemap_bitop$141"/>
    <g s:x="0" s:y="5" s:pid="A"/>
    <g s:x="0" s:y="20" s:pid="B"/>
    <g s:x="30" s:y="12.5" s:pid="Y"/>
  </g>
  <g s:type="or" transform="translate(527,550.5)" s:width="30" s:height="25" id="cell_$auto$simplemap.cc:106:simplemap_bitop$149">
    <s:alias val="$or"/>
    <s:alias val="$logic_or"/>
    <s:alias val="$_OR_"/>
    <path d="M0,25 L0,25 L15,25 A15 12.5 0 0 0 15,0 L0,0" class="cell_$auto$simplemap.cc:106:simplemap_bitop$149"/>
    <path d="M0,0 A30 25 0 0 1 0,25" class="cell_$auto$simplemap.cc:106:simplemap_bitop$149"/>
    <g s:x="3" s:y="5" s:pid="A"/>
    <g s:x="3" s:y="20" s:pid="B"/>
    <g s:x="30" s:y="12.5" s:pid="Y"/>
  </g>
  <g s:type="and" transform="translate(592,736)" s:width="30" s:height="25" id="cell_$auto$simplemap.cc:106:simplemap_bitop$157">
    <s:alias val="$and"/>
    <s:alias val="$logic_and"/>
    <s:alias val="$_AND_"/>
    <path d="M0,0 L0,25 L15,25 A15 12.5 0 0 0 15,0 Z" class="cell_$auto$simplemap.cc:106:simplemap_bitop$157"/>
    <g s:x="0" s:y="5" s:pid="A"/>
    <g s:x="0" s:y="20" s:pid="B"/>
    <g s:x="30" s:y="12.5" s:pid="Y"/>
  </g>
  <g s:type="or" transform="translate(657,683.5)" s:width="30" s:height="25" id="cell_$auto$simplemap.cc:106:simplemap_bitop$165">
    <s:alias val="$or"/>
    <s:alias val="$logic_or"/>
    <s:alias val="$_OR_"/>
    <path d="M0,25 L0,25 L15,25 A15 12.5 0 0 0 15,0 L0,0" class="cell_$auto$simplemap.cc:106:simplemap_bitop$165"/>
    <path d="M0,0 A30 25 0 0 1 0,25" class="cell_$auto$simplemap.cc:106:simplemap_bitop$165"/>
    <g s:x="3" s:y="5" s:pid="A"/>
    <g s:x="3" s:y="20" s:pid="B"/>
    <g s:x="30" s:y="12.5" s:pid="Y"/>
  </g>
  <g s:type="and" transform="translate(722,842)" s:width="30" s:height="25" id="cell_$auto$simplemap.cc:106:simplemap_bitop$173">
    <s:alias val="$and"/>
    <s:alias val="$logic_and"/>
    <s:alias val="$_AND_"/>
    <path d="M0,0 L0,25 L15,25 A15 12.5 0 0 0 15,0 Z" class="cell_$auto$simplemap.cc:106:simplemap_bitop$173"/>
    <g s:x="0" s:y="5" s:pid="A"/>
    <g s:x="0" s:y="20" s:pid="B"/>
    <g s:x="30" s:y="12.5" s:pid="Y"/>
  </g>
  <g s:type="or" transform="translate(787,789.5)" s:width="30" s:height="25" id="cell_$auto$simplemap.cc:106:simplemap_bitop$181">
    <s:alias val="$or"/>
    <s:alias val="$logic_or"/>
    <s:alias val="$_OR_"/>
    <path d="M0,25 L0,25 L15,25 A15 12.5 0 0 0 15,0 L0,0" class="cell_$auto$simplemap.cc:106:simplemap_bitop$181"/>
    <path d="M0,0 A30 25 0 0 1 0,25" class="cell_$auto$simplemap.cc:106:simplemap_bitop$181"/>
    <g s:x="3" s:y="5" s:pid="A"/>
    <g s:x="3" s:y="20" s:pid="B"/>
    <g s:x="30" s:y="12.5" s:pid="Y"/>
  </g>
  <g s:type="and" transform="translate(852,959)" s:width="30" s:height="25" id="cell_$auto$simplemap.cc:106:simplemap_bitop$189">
    <s:alias val="$and"/>
    <s:alias val="$logic_and"/>
    <s:alias val="$_AND_"/>
    <path d="M0,0 L0,25 L15,25 A15 12.5 0 0 0 15,0 Z" class="cell_$auto$simplemap.cc:106:simplemap_bitop$189"/>
    <g s:x="0" s:y="5" s:pid="A"/>
    <g s:x="0" s:y="20" s:pid="B"/>
    <g s:x="30" s:y="12.5" s:pid="Y"/>
  </g>
  <g s:type="or" transform="translate(917,906.5)" s:width="30" s:height="25" id="cell_$auto$simplemap.cc:106:simplemap_bitop$197">
    <s:alias val="$or"/>
    <s:alias val="$logic_or"/>
    <s:alias val="$_OR_"/>
    <path d="M0,25 L0,25 L15,25 A15 12.5 0 0 0 15,0 L0,0" class="cell_$auto$simplemap.cc:106:simplemap_bitop$197"/>
    <path d="M0,0 A30 25 0 0 1 0,25" class="cell_$auto$simplemap.cc:106:simplemap_bitop$197"/>
    <g s:x="3" s:y="5" s:pid="A"/>
    <g s:x="3" s:y="20" s:pid="B"/>
    <g s:x="30" s:y="12.5" s:pid="Y"/>
  </g>
  <g s:type="and" transform="translate(982,1080)" s:width="30" s:height="25" id="cell_$auto$simplemap.cc:106:simplemap_bitop$205">
    <s:alias val="$and"/>
    <s:alias val="$logic_and"/>
    <s:alias val="$_AND_"/>
    <path d="M0,0 L0,25 L15,25 A15 12.5 0 0 0 15,0 Z" class="cell_$auto$simplemap.cc:106:simplemap_bitop$205"/>
    <g s:x="0" s:y="5" s:pid="A"/>
    <g s:x="0" s:y="20" s:pid="B"/>
    <g s:x="30" s:y="12.5" s:pid="Y"/>
  </g>
  <g s:type="or" transform="translate(1047,1027.5)" s:width="30" s:height="25" id="cell_$auto$simplemap.cc:106:simplemap_bitop$213">
    <s:alias val="$or"/>
    <s:alias val="$logic_or"/>
    <s:alias val="$_OR_"/>
    <path d="M0,25 L0,25 L15,25 A15 12.5 0 0 0 15,0 L0,0" class="cell_$auto$simplemap.cc:106:simplemap_bitop$213"/>
    <path d="M0,0 A30 25 0 0 1 0,25" class="cell_$auto$simplemap.cc:106:simplemap_bitop$213"/>
    <g s:x="3" s:y="5" s:pid="A"/>
    <g s:x="3" s:y="20" s:pid="B"/>
    <g s:x="30" s:y="12.5" s:pid="Y"/>
  </g>
  <g s:type="and" transform="translate(1112,1230)" s:width="30" s:height="25" id="cell_$auto$simplemap.cc:106:simplemap_bitop$221">
    <s:alias val="$and"/>
    <s:alias val="$logic_and"/>
    <s:alias val="$_AND_"/>
    <path d="M0,0 L0,25 L15,25 A15 12.5 0 0 0 15,0 Z" class="cell_$auto$simplemap.cc:106:simplemap_bitop$221"/>
    <g s:x="0" s:y="5" s:pid="A"/>
    <g s:x="0" s:y="20" s:pid="B"/>
    <g s:x="30" s:y="12.5" s:pid="Y"/>
  </g>
  <g s:type="or" transform="translate(1178,1177.5)" s:width="30" s:height="25" id="cell_$auto$simplemap.cc:106:simplemap_bitop$229">
    <s:alias val="$or"/>
    <s:alias val="$logic_or"/>
    <s:alias val="$_OR_"/>
    <path d="M0,25 L0,25 L15,25 A15 12.5 0 0 0 15,0 L0,0" class="cell_$auto$simplemap.cc:106:simplemap_bitop$229"/>
    <path d="M0,0 A30 25 0 0 1 0,25" class="cell_$auto$simplemap.cc:106:simplemap_bitop$229"/>
    <g s:x="3" s:y="5" s:pid="A"/>
    <g s:x="3" s:y="20" s:pid="B"/>
    <g s:x="30" s:y="12.5" s:pid="Y"/>
  </g>
  <g s:type="and" transform="translate(1251,1170)" s:width="30" s:height="25" id="cell_$auto$simplemap.cc:106:simplemap_bitop$237">
    <s:alias val="$and"/>
    <s:alias val="$logic_and"/>
    <s:alias val="$_AND_"/>
    <path d="M0,0 L0,25 L15,25 A15 12.5 0 0 0 15,0 Z" class="cell_$auto$simplemap.cc:106:simplemap_bitop$237"/>
    <g s:x="0" s:y="5" s:pid="A"/>
    <g s:x="0" s:y="20" s:pid="B"/>
    <g s:x="30" s:y="12.5" s:pid="Y"/>
  </g>
  <g s:type="or" transform="translate(1323,1117.5)" s:width="30" s:height="25" id="cell_$auto$simplemap.cc:106:simplemap_bitop$245">
    <s:alias val="$or"/>
    <s:alias val="$logic_or"/>
    <s:alias val="$_OR_"/>
    <path d="M0,25 L0,25 L15,25 A15 12.5 0 0 0 15,0 L0,0" class="cell_$auto$simplemap.cc:106:simplemap_bitop$245"/>
    <path d="M0,0 A30 25 0 0 1 0,25" class="cell_$auto$simplemap.cc:106:simplemap_bitop$245"/>
    <g s:x="3" s:y="5" s:pid="A"/>
    <g s:x="3" s:y="20" s:pid="B"/>
    <g s:x="30" s:y="12.5" s:pid="Y"/>
  </g>
  <g s:type="inputExt" transform="translate(12,98)" s:width="30" s:height="20" id="cell_a">
    <text x="15" y="-4" class="nodelabel cell_a" s:attribute="ref">a</text>
    <s:alias val="$_inputExt_"/>
    <path d="M0,0 L0,20 L15,20 L30,10 L15,0 Z" class="cell_a"/>
    <g s:x="28" s:y="10" s:pid="Y"/>
  </g>
  <g s:type="inputExt" transform="translate(12,290)" s:width="30" s:height="20" id="cell_b">
    <text x="15" y="-4" class="nodelabel cell_b" s:attribute="ref">b</text>
    <s:alias val="$_inputExt_"/>
    <path d="M0,0 L0,20 L15,20 L30,10 L15,0 Z" class="cell_b"/>
    <g s:x="28" s:y="10" s:pid="Y"/>
  </g>
  <g s:type="inputExt" transform="translate(262,369)" s:width="30" s:height="20" id="cell_cin">
    <text x="15" y="-4" class="nodelabel cell_cin" s:attribute="ref">cin</text>
    <s:alias val="$_inputExt_"/>
    <path d="M0,0 L0,20 L15,20 L30,10 L15,0 Z" class="cell_cin"/>
    <g s:x="28" s:y="10" s:pid="Y"/>
  </g>
  <g s:type="outputExt" transform="translate(1388,328.5)" s:width="30" s:height="20" id="cell_s">
    <text x="15" y="-4" class="nodelabel cell_s" s:attribute="ref">s</text>
    <s:alias val="$_outputExt_"/>
    <path d="M30,0 L30,20 L15,20 L0,10 L15,0 Z" class="cell_s"/>
    <g s:x="0" s:y="10" s:pid="A"/>
  </g>
  <g s:type="outputExt" transform="translate(1388,1120)" s:width="30" s:height="20" id="cell_cout">
    <text x="15" y="-4" class="nodelabel cell_cout" s:attribute="ref">cout</text>
    <s:alias val="$_outputExt_"/>
    <path d="M30,0 L30,20 L15,20 L0,10 L15,0 Z" class="cell_cout"/>
    <g s:x="0" s:y="10" s:pid="A"/>
  </g>
  <g s:type="join" transform="translate(1326.7142857142858,318)" s:width="4" s:height="40" id="cell_$join$,19,20,21,22,23,24,25,26,">
    <rect width="5" height="160" class="splitjoinBody" s:generic="body"/>
    <s:alias val="$_join_"/>
    <g s:x="5" s:y="20" s:pid="out"/>
    <g transform="translate(0,10)" s:x="0" s:y="10" s:pid="in0">
      <text x="-3" y="-4" class="inputPortLabel">0</text>
    </g>
    <g transform="translate(0,30)" s:x="0" s:y="10" s:pid="in0">
      <text x="-3" y="-4" class="inputPortLabel">1</text>
    </g>
    <g transform="translate(0,50)" s:x="0" s:y="10" s:pid="in0">
      <text x="-3" y="-4" class="inputPortLabel">2</text>
    </g>
    <g transform="translate(0,70)" s:x="0" s:y="10" s:pid="in0">
      <text x="-3" y="-4" class="inputPortLabel">3</text>
    </g>
    <g transform="translate(0,90)" s:x="0" s:y="10" s:pid="in0">
      <text x="-3" y="-4" class="inputPortLabel">4</text>
    </g>
    <g transform="translate(0,110)" s:x="0" s:y="10" s:pid="in0">
      <text x="-3" y="-4" class="inputPortLabel">5</text>
    </g>
    <g transform="translate(0,130)" s:x="0" s:y="10" s:pid="in0">
      <text x="-3" y="-4" class="inputPortLabel">6</text>
    </g>
    <g transform="translate(0,150)" s:x="0" s:y="10" s:pid="in0">
      <text x="-3" y="-4" class="inputPortLabel">7</text>
    </g>
  </g>
  <g s:type="split" transform="translate(77,87.5)" s:width="5" s:height="40" id="cell_$split$,2,3,4,5,6,7,8,9,">
    <rect width="5" height="160" class="splitjoinBody" s:generic="body"/>
    <s:alias val="$_split_"/>
    <g s:x="0" s:y="20" s:pid="in"/>
    <g transform="translate(4,10)" s:x="4" s:y="10" s:pid="out0">
      <text x="5" y="-4">0</text>
    </g>
    <g transform="translate(4,30)" s:x="4" s:y="10" s:pid="out0">
      <text x="5" y="-4">1</text>
    </g>
    <g transform="translate(4,50)" s:x="4" s:y="10" s:pid="out0">
      <text x="5" y="-4">2</text>
    </g>
    <g transform="translate(4,70)" s:x="4" s:y="10" s:pid="out0">
      <text x="5" y="-4">3</text>
    </g>
    <g transform="translate(4,90)" s:x="4" s:y="10" s:pid="out0">
      <text x="5" y="-4">4</text>
    </g>
    <g transform="translate(4,110)" s:x="4" s:y="10" s:pid="out0">
      <text x="5" y="-4">5</text>
    </g>
    <g transform="translate(4,130)" s:x="4" s:y="10" s:pid="out0">
      <text x="5" y="-4">6</text>
    </g>
    <g transform="translate(4,150)" s:x="4" s:y="10" s:pid="out0">
      <text x="5" y="-4">7</text>
    </g>
  </g>
  <g s:type="split" transform="translate(77,279.5)" s:width="5" s:height="40" id="cell_$split$,10,11,12,13,14,15,16,17,">
    <rect width="5" height="160" class="splitjoinBody" s:generic="body"/>
    <s:alias val="$_split_"/>
    <g s:x="0" s:y="20" s:pid="in"/>
    <g transform="translate(4,10)" s:x="4" s:y="10" s:pid="out0">
      <text x="5" y="-4">0</text>
    </g>
    <g transform="translate(4,30)" s:x="4" s:y="10" s:pid="out0">
      <text x="5" y="-4">1</text>
    </g>
    <g transform="translate(4,50)" s:x="4" s:y="10" s:pid="out0">
      <text x="5" y="-4">2</text>
    </g>
    <g transform="translate(4,70)" s:x="4" s:y="10" s:pid="out0">
      <text x="5" y="-4">3</text>
    </g>
    <g transform="translate(4,90)" s:x="4" s:y="10" s:pid="out0">
      <text x="5" y="-4">4</text>
    </g>
    <g transform="translate(4,110)" s:x="4" s:y="10" s:pid="out0">
      <text x="5" y="-4">5</text>
    </g>
    <g transform="translate(4,130)" s:x="4" s:y="10" s:pid="out0">
      <text x="5" y="-4">6</text>
    </g>
    <g transform="translate(4,150)" s:x="4" s:y="10" s:pid="out0">
      <text x="5" y="-4">7</text>
    </g>
  </g>
  <line x1="81.5" x2="81.5" y1="97.5" y2="75.5" class="net_2"/>
  <line x1="81.5" x2="249" y1="75.5" y2="75.5" class="net_2"/>
  <line x1="249" x2="249" y1="75.5" y2="839.5" class="net_2"/>
  <line x1="249" x2="262" y1="839.5" y2="839.5" class="net_2"/>
  <line x1="81.5" x2="81.5" y1="97.5" y2="75.5" class="net_2"/>
  <line x1="81.5" x2="249" y1="75.5" y2="75.5" class="net_2"/>
  <line x1="249" x2="249" y1="75.5" y2="415" class="net_2"/>
  <circle cx="249" cy="415" r="2" style="fill:#000" class="net_2"/>
  <line x1="249" x2="332" y1="415" y2="415" class="net_2"/>
  <line x1="81.5" x2="81.5" y1="289.5" y2="267.5" class="net_10"/>
  <line x1="81.5" x2="179" y1="267.5" y2="267.5" class="net_10"/>
  <line x1="179" x2="179" y1="267.5" y2="854.5" class="net_10"/>
  <line x1="179" x2="262" y1="854.5" y2="854.5" class="net_10"/>
  <line x1="81.5" x2="81.5" y1="289.5" y2="267.5" class="net_10"/>
  <line x1="81.5" x2="179" y1="267.5" y2="267.5" class="net_10"/>
  <line x1="179" x2="179" y1="267.5" y2="426" class="net_10"/>
  <line x1="179" x2="322" y1="426" y2="426" class="net_10"/>
  <line x1="322" x2="322" y1="426" y2="430" class="net_10"/>
  <circle cx="179" cy="426" r="2" style="fill:#000" class="net_10"/>
  <line x1="322" x2="332" y1="430" y2="430" class="net_10"/>
  <line x1="82" x2="1180" y1="118" y2="118" class="net_3"/>
  <line x1="82" x2="239" y1="118" y2="118" class="net_3"/>
  <line x1="239" x2="239" y1="118" y2="548" class="net_3"/>
  <circle cx="239" cy="118" r="2" style="fill:#000" class="net_3"/>
  <line x1="239" x2="462" y1="548" y2="548" class="net_3"/>
  <line x1="82" x2="1152" y1="310" y2="310" class="net_11"/>
  <line x1="1152" x2="1152" y1="310" y2="133" class="net_11"/>
  <line x1="1152" x2="1180" y1="133" y2="133" class="net_11"/>
  <line x1="82" x2="219" y1="310" y2="310" class="net_11"/>
  <line x1="219" x2="219" y1="310" y2="559" class="net_11"/>
  <line x1="219" x2="437" y1="559" y2="559" class="net_11"/>
  <line x1="437" x2="437" y1="559" y2="563" class="net_11"/>
  <circle cx="219" cy="310" r="2" style="fill:#000" class="net_11"/>
  <line x1="437" x2="462" y1="563" y2="563" class="net_11"/>
  <line x1="82" x2="229" y1="138" y2="138" class="net_4"/>
  <line x1="229" x2="229" y1="138" y2="337" class="net_4"/>
  <circle cx="229" cy="337" r="2" style="fill:#000" class="net_4"/>
  <line x1="229" x2="1180" y1="337" y2="337" class="net_4"/>
  <line x1="82" x2="229" y1="138" y2="138" class="net_4"/>
  <line x1="229" x2="229" y1="138" y2="681" class="net_4"/>
  <line x1="229" x2="592" y1="681" y2="681" class="net_4"/>
  <line x1="82" x2="199" y1="330" y2="330" class="net_12"/>
  <line x1="199" x2="199" y1="330" y2="348" class="net_12"/>
  <line x1="199" x2="1152" y1="348" y2="348" class="net_12"/>
  <line x1="1152" x2="1152" y1="348" y2="352" class="net_12"/>
  <circle cx="199" cy="348" r="2" style="fill:#000" class="net_12"/>
  <line x1="1152" x2="1180" y1="352" y2="352" class="net_12"/>
  <line x1="82" x2="199" y1="330" y2="330" class="net_12"/>
  <line x1="199" x2="199" y1="330" y2="692" class="net_12"/>
  <line x1="199" x2="567" y1="692" y2="692" class="net_12"/>
  <line x1="567" x2="567" y1="692" y2="696" class="net_12"/>
  <line x1="567" x2="592" y1="696" y2="696" class="net_12"/>
  <line x1="82" x2="209" y1="158" y2="158" class="net_5"/>
  <line x1="209" x2="209" y1="158" y2="399" class="net_5"/>
  <circle cx="209" cy="399" r="2" style="fill:#000" class="net_5"/>
  <line x1="209" x2="1180" y1="399" y2="399" class="net_5"/>
  <line x1="82" x2="209" y1="158" y2="158" class="net_5"/>
  <line x1="209" x2="209" y1="158" y2="787" class="net_5"/>
  <line x1="209" x2="722" y1="787" y2="787" class="net_5"/>
  <line x1="82" x2="169" y1="350" y2="350" class="net_13"/>
  <line x1="169" x2="169" y1="350" y2="505" class="net_13"/>
  <line x1="169" x2="1152" y1="505" y2="505" class="net_13"/>
  <line x1="1152" x2="1152" y1="505" y2="414" class="net_13"/>
  <circle cx="169" cy="505" r="2" style="fill:#000" class="net_13"/>
  <line x1="1152" x2="1180" y1="414" y2="414" class="net_13"/>
  <line x1="82" x2="169" y1="350" y2="350" class="net_13"/>
  <line x1="169" x2="169" y1="350" y2="798" class="net_13"/>
  <line x1="169" x2="697" y1="798" y2="798" class="net_13"/>
  <line x1="697" x2="697" y1="798" y2="802" class="net_13"/>
  <line x1="697" x2="722" y1="802" y2="802" class="net_13"/>
  <line x1="82" x2="189" y1="178" y2="178" class="net_6"/>
  <line x1="189" x2="189" y1="178" y2="532" class="net_6"/>
  <circle cx="189" cy="532" r="2" style="fill:#000" class="net_6"/>
  <line x1="189" x2="1180" y1="532" y2="532" class="net_6"/>
  <line x1="82" x2="189" y1="178" y2="178" class="net_6"/>
  <line x1="189" x2="189" y1="178" y2="904" class="net_6"/>
  <line x1="189" x2="852" y1="904" y2="904" class="net_6"/>
  <line x1="82" x2="149" y1="370" y2="370" class="net_14"/>
  <line x1="149" x2="149" y1="370" y2="638" class="net_14"/>
  <line x1="149" x2="1152" y1="638" y2="638" class="net_14"/>
  <line x1="1152" x2="1152" y1="638" y2="547" class="net_14"/>
  <circle cx="149" cy="638" r="2" style="fill:#000" class="net_14"/>
  <line x1="1152" x2="1180" y1="547" y2="547" class="net_14"/>
  <line x1="82" x2="149" y1="370" y2="370" class="net_14"/>
  <line x1="149" x2="149" y1="370" y2="915" class="net_14"/>
  <line x1="149" x2="827" y1="915" y2="915" class="net_14"/>
  <line x1="827" x2="827" y1="915" y2="919" class="net_14"/>
  <line x1="827" x2="852" y1="919" y2="919" class="net_14"/>
  <line x1="82" x2="159" y1="198" y2="198" class="net_7"/>
  <line x1="159" x2="159" y1="198" y2="665" class="net_7"/>
  <circle cx="159" cy="665" r="2" style="fill:#000" class="net_7"/>
  <line x1="159" x2="1180" y1="665" y2="665" class="net_7"/>
  <line x1="82" x2="159" y1="198" y2="198" class="net_7"/>
  <line x1="159" x2="159" y1="198" y2="1025" class="net_7"/>
  <line x1="159" x2="982" y1="1025" y2="1025" class="net_7"/>
  <line x1="82" x2="119" y1="390" y2="390" class="net_15"/>
  <line x1="119" x2="119" y1="390" y2="771" class="net_15"/>
  <line x1="119" x2="1152" y1="771" y2="771" class="net_15"/>
  <line x1="1152" x2="1152" y1="771" y2="680" class="net_15"/>
  <circle cx="119" cy="771" r="2" style="fill:#000" class="net_15"/>
  <line x1="1152" x2="1180" y1="680" y2="680" class="net_15"/>
  <line x1="82" x2="119" y1="390" y2="390" class="net_15"/>
  <line x1="119" x2="119" y1="390" y2="1036" class="net_15"/>
  <line x1="119" x2="957" y1="1036" y2="1036" class="net_15"/>
  <line x1="957" x2="957" y1="1036" y2="1040" class="net_15"/>
  <line x1="957" x2="982" y1="1040" y2="1040" class="net_15"/>
  <line x1="82" x2="139" y1="218" y2="218" class="net_8"/>
  <line x1="139" x2="139" y1="218" y2="877" class="net_8"/>
  <circle cx="139" cy="877" r="2" style="fill:#000" class="net_8"/>
  <line x1="139" x2="1180" y1="877" y2="877" class="net_8"/>
  <line x1="82" x2="139" y1="218" y2="218" class="net_8"/>
  <line x1="139" x2="139" y1="218" y2="1175" class="net_8"/>
  <line x1="139" x2="1112" y1="1175" y2="1175" class="net_8"/>
  <line x1="82" x2="109" y1="410" y2="410" class="net_16"/>
  <line x1="109" x2="109" y1="410" y2="888" class="net_16"/>
  <line x1="109" x2="1152" y1="888" y2="888" class="net_16"/>
  <line x1="1152" x2="1152" y1="888" y2="892" class="net_16"/>
  <circle cx="109" cy="888" r="2" style="fill:#000" class="net_16"/>
  <line x1="1152" x2="1180" y1="892" y2="892" class="net_16"/>
  <line x1="82" x2="109" y1="410" y2="410" class="net_16"/>
  <line x1="109" x2="109" y1="410" y2="1186" class="net_16"/>
  <line x1="109" x2="1087" y1="1186" y2="1186" class="net_16"/>
  <line x1="1087" x2="1087" y1="1186" y2="1190" class="net_16"/>
  <line x1="1087" x2="1112" y1="1190" y2="1190" class="net_16"/>
  <line x1="81.5" x2="81.5" y1="238.5" y2="257.5" class="net_9"/>
  <line x1="81.5" x2="129" y1="257.5" y2="257.5" class="net_9"/>
  <line x1="129" x2="129" y1="257.5" y2="994" class="net_9"/>
  <circle cx="129" cy="994" r="2" style="fill:#000" class="net_9"/>
  <line x1="129" x2="1180" y1="994" y2="994" class="net_9"/>
  <line x1="81.5" x2="81.5" y1="238.5" y2="257.5" class="net_9"/>
  <line x1="81.5" x2="129" y1="257.5" y2="257.5" class="net_9"/>
  <line x1="129" x2="129" y1="257.5" y2="1115" class="net_9"/>
  <line x1="129" x2="1251" y1="1115" y2="1115" class="net_9"/>
  <line x1="81.5" x2="81.5" y1="430.5" y2="1009" class="net_17"/>
  <line x1="81.5" x2="1180" y1="1009" y2="1009" class="net_17"/>
  <line x1="81.5" x2="81.5" y1="430.5" y2="1009" class="net_17"/>
  <line x1="81.5" x2="99" y1="1009" y2="1009" class="net_17"/>
  <line x1="99" x2="99" y1="1009" y2="1265" class="net_17"/>
  <line x1="99" x2="1230" y1="1265" y2="1265" class="net_17"/>
  <line x1="1230" x2="1230" y1="1265" y2="1130" class="net_17"/>
  <circle cx="99" cy="1009" r="2" style="fill:#000" class="net_17"/>
  <line x1="1230" x2="1251" y1="1130" y2="1130" class="net_17"/>
  <line x1="290" x2="302" y1="379" y2="379" class="net_18"/>
  <line x1="302" x2="302" y1="379" y2="17" class="net_18"/>
  <circle cx="302" cy="379" r="2" style="fill:#000" class="net_18"/>
  <line x1="302" x2="1253" y1="17" y2="17" class="net_18"/>
  <line x1="290" x2="302" y1="379" y2="379" class="net_18"/>
  <line x1="302" x2="302" y1="379" y2="490" class="net_18"/>
  <line x1="302" x2="332" y1="490" y2="490" class="net_18"/>
  <line x1="292" x2="312" y1="847" y2="847" class="net_28"/>
  <line x1="312" x2="312" y1="847" y2="32" class="net_28"/>
  <circle cx="312" cy="847" r="2" style="fill:#000" class="net_28"/>
  <line x1="312" x2="1253" y1="32" y2="32" class="net_28"/>
  <line x1="292" x2="312" y1="847" y2="847" class="net_28"/>
  <line x1="312" x2="312" y1="847" y2="475" class="net_28"/>
  <circle cx="312" cy="475" r="2" style="fill:#000" class="net_28"/>
  <line x1="312" x2="332" y1="475" y2="475" class="net_28"/>
  <line x1="292" x2="312" y1="847" y2="847" class="net_28"/>
  <line x1="312" x2="312" y1="847" y2="608" class="net_28"/>
  <circle cx="312" cy="608" r="2" style="fill:#000" class="net_28"/>
  <line x1="312" x2="462" y1="608" y2="608" class="net_28"/>
  <line x1="292" x2="312" y1="847" y2="847" class="net_28"/>
  <line x1="312" x2="312" y1="847" y2="741" class="net_28"/>
  <circle cx="312" cy="741" r="2" style="fill:#000" class="net_28"/>
  <line x1="312" x2="592" y1="741" y2="741" class="net_28"/>
  <line x1="292" x2="722" y1="847" y2="847" class="net_28"/>
  <line x1="292" x2="312" y1="847" y2="847" class="net_28"/>
  <line x1="312" x2="312" y1="847" y2="964" class="net_28"/>
  <circle cx="312" cy="964" r="2" style="fill:#000" class="net_28"/>
  <line x1="312" x2="852" y1="964" y2="964" class="net_28"/>
  <line x1="292" x2="312" y1="847" y2="847" class="net_28"/>
  <line x1="312" x2="312" y1="847" y2="1085" class="net_28"/>
  <circle cx="312" cy="1085" r="2" style="fill:#000" class="net_28"/>
  <line x1="312" x2="982" y1="1085" y2="1085" class="net_28"/>
  <line x1="292" x2="312" y1="847" y2="847" class="net_28"/>
  <line x1="312" x2="312" y1="847" y2="1235" class="net_28"/>
  <circle cx="312" cy="1235" r="2" style="fill:#000" class="net_28"/>
  <line x1="312" x2="1112" y1="1235" y2="1235" class="net_28"/>
  <line x1="292" x2="312" y1="847" y2="847" class="net_28"/>
  <line x1="312" x2="312" y1="847" y2="1276" class="net_28"/>
  <line x1="312" x2="1240" y1="1276" y2="1276" class="net_28"/>
  <line x1="1240" x2="1240" y1="1276" y2="1175" class="net_28"/>
  <line x1="1240" x2="1251" y1="1175" y2="1175" class="net_28"/>
  <line x1="427" x2="447" y1="430" y2="430" class="net_44"/>
  <line x1="447" x2="447" y1="430" y2="77" class="net_44"/>
  <circle cx="447" cy="430" r="2" style="fill:#000" class="net_44"/>
  <line x1="447" x2="1253" y1="77" y2="77" class="net_44"/>
  <line x1="427" x2="447" y1="430" y2="430" class="net_44"/>
  <line x1="447" x2="447" y1="430" y2="623" class="net_44"/>
  <line x1="447" x2="462" y1="623" y2="623" class="net_44"/>
  <line x1="1210" x2="1220" y1="125.5" y2="125.5" class="net_29"/>
  <line x1="1220" x2="1220" y1="125.5" y2="92" class="net_29"/>
  <line x1="1220" x2="1253" y1="92" y2="92" class="net_29"/>
  <line x1="557" x2="577" y1="563" y2="563" class="net_45"/>
  <line x1="577" x2="577" y1="563" y2="321" class="net_45"/>
  <circle cx="577" cy="563" r="2" style="fill:#000" class="net_45"/>
  <line x1="577" x2="1253" y1="321" y2="321" class="net_45"/>
  <line x1="557" x2="577" y1="563" y2="563" class="net_45"/>
  <line x1="577" x2="577" y1="563" y2="756" class="net_45"/>
  <line x1="577" x2="592" y1="756" y2="756" class="net_45"/>
  <line x1="1210" x2="1220" y1="344.5" y2="344.5" class="net_30"/>
  <line x1="1220" x2="1220" y1="344.5" y2="336" class="net_30"/>
  <line x1="1220" x2="1253" y1="336" y2="336" class="net_30"/>
  <line x1="687" x2="707" y1="696" y2="696" class="net_46"/>
  <line x1="707" x2="707" y1="696" y2="381" class="net_46"/>
  <circle cx="707" cy="696" r="2" style="fill:#000" class="net_46"/>
  <line x1="707" x2="1253" y1="381" y2="381" class="net_46"/>
  <line x1="687" x2="707" y1="696" y2="696" class="net_46"/>
  <line x1="707" x2="707" y1="696" y2="862" class="net_46"/>
  <line x1="707" x2="722" y1="862" y2="862" class="net_46"/>
  <line x1="1210" x2="1220" y1="406.5" y2="406.5" class="net_31"/>
  <line x1="1220" x2="1220" y1="406.5" y2="396" class="net_31"/>
  <line x1="1220" x2="1253" y1="396" y2="396" class="net_31"/>
  <line x1="817" x2="837" y1="802" y2="802" class="net_47"/>
  <line x1="837" x2="837" y1="802" y2="516" class="net_47"/>
  <circle cx="837" cy="802" r="2" style="fill:#000" class="net_47"/>
  <line x1="837" x2="1253" y1="516" y2="516" class="net_47"/>
  <line x1="817" x2="837" y1="802" y2="802" class="net_47"/>
  <line x1="837" x2="837" y1="802" y2="979" class="net_47"/>
  <line x1="837" x2="852" y1="979" y2="979" class="net_47"/>
  <line x1="1210" x2="1220" y1="539.5" y2="539.5" class="net_32"/>
  <line x1="1220" x2="1220" y1="539.5" y2="531" class="net_32"/>
  <line x1="1220" x2="1253" y1="531" y2="531" class="net_32"/>
  <line x1="947" x2="967" y1="919" y2="919" class="net_48"/>
  <line x1="967" x2="967" y1="919" y2="649" class="net_48"/>
  <circle cx="967" cy="919" r="2" style="fill:#000" class="net_48"/>
  <line x1="967" x2="1253" y1="649" y2="649" class="net_48"/>
  <line x1="947" x2="967" y1="919" y2="919" class="net_48"/>
  <line x1="967" x2="967" y1="919" y2="1100" class="net_48"/>
  <line x1="967" x2="982" y1="1100" y2="1100" class="net_48"/>
  <line x1="1210" x2="1220" y1="672.5" y2="672.5" class="net_33"/>
  <line x1="1220" x2="1220" y1="672.5" y2="664" class="net_33"/>
  <line x1="1220" x2="1253" y1="664" y2="664" class="net_33"/>
  <line x1="1077" x2="1097" y1="1040" y2="1040" class="net_49"/>
  <line x1="1097" x2="1097" y1="1040" y2="782" class="net_49"/>
  <circle cx="1097" cy="1040" r="2" style="fill:#000" class="net_49"/>
  <line x1="1097" x2="1253" y1="782" y2="782" class="net_49"/>
  <line x1="1077" x2="1097" y1="1040" y2="1040" class="net_49"/>
  <line x1="1097" x2="1097" y1="1040" y2="1250" class="net_49"/>
  <line x1="1097" x2="1112" y1="1250" y2="1250" class="net_49"/>
  <line x1="1210" x2="1220" y1="884.5" y2="884.5" class="net_34"/>
  <line x1="1220" x2="1220" y1="884.5" y2="797" class="net_34"/>
  <line x1="1220" x2="1253" y1="797" y2="797" class="net_34"/>
  <line x1="1208" x2="1220" y1="1190" y2="1190" class="net_50"/>
  <line x1="1220" x2="1220" y1="1190" y2="986.5" class="net_50"/>
  <circle cx="1220" cy="1190" r="2" style="fill:#000" class="net_50"/>
  <line x1="1220" x2="1253" y1="986.5" y2="986.5" class="net_50"/>
  <line x1="1208" x2="1251" y1="1190" y2="1190" class="net_50"/>
  <line x1="1210" x2="1253" y1="1001.5" y2="1001.5" class="net_35"/>
  <line x1="362" x2="400" y1="422.5" y2="422.5" class="net_36"/>
  <line x1="362" x2="372" y1="482.5" y2="482.5" class="net_51"/>
  <line x1="372" x2="372" y1="482.5" y2="437.5" class="net_51"/>
  <line x1="372" x2="400" y1="437.5" y2="437.5" class="net_51"/>
  <line x1="492" x2="530" y1="555.5" y2="555.5" class="net_37"/>
  <line x1="492" x2="502" y1="615.5" y2="615.5" class="net_52"/>
  <line x1="502" x2="502" y1="615.5" y2="570.5" class="net_52"/>
  <line x1="502" x2="530" y1="570.5" y2="570.5" class="net_52"/>
  <line x1="622" x2="660" y1="688.5" y2="688.5" class="net_38"/>
  <line x1="622" x2="632" y1="748.5" y2="748.5" class="net_53"/>
  <line x1="632" x2="632" y1="748.5" y2="703.5" class="net_53"/>
  <line x1="632" x2="660" y1="703.5" y2="703.5" class="net_53"/>
  <line x1="752" x2="790" y1="794.5" y2="794.5" class="net_39"/>
  <line x1="752" x2="762" y1="854.5" y2="854.5" class="net_54"/>
  <line x1="762" x2="762" y1="854.5" y2="809.5" class="net_54"/>
  <line x1="762" x2="790" y1="809.5" y2="809.5" class="net_54"/>
  <line x1="882" x2="920" y1="911.5" y2="911.5" class="net_40"/>
  <line x1="882" x2="892" y1="971.5" y2="971.5" class="net_55"/>
  <line x1="892" x2="892" y1="971.5" y2="926.5" class="net_55"/>
  <line x1="892" x2="920" y1="926.5" y2="926.5" class="net_55"/>
  <line x1="1012" x2="1050" y1="1032.5" y2="1032.5" class="net_41"/>
  <line x1="1012" x2="1022" y1="1092.5" y2="1092.5" class="net_56"/>
  <line x1="1022" x2="1022" y1="1092.5" y2="1047.5" class="net_56"/>
  <line x1="1022" x2="1050" y1="1047.5" y2="1047.5" class="net_56"/>
  <line x1="1142" x2="1181" y1="1182.5" y2="1182.5" class="net_42"/>
  <line x1="1142" x2="1152" y1="1242.5" y2="1242.5" class="net_57"/>
  <line x1="1152" x2="1152" y1="1242.5" y2="1197.5" class="net_57"/>
  <line x1="1152" x2="1181" y1="1197.5" y2="1197.5" class="net_57"/>
  <line x1="1281" x2="1326" y1="1122.5" y2="1122.5" class="net_43"/>
  <line x1="1281" x2="1293" y1="1182.5" y2="1182.5" class="net_58"/>
  <line x1="1293" x2="1293" y1="1182.5" y2="1137.5" class="net_58"/>
  <line x1="1293" x2="1326" y1="1137.5" y2="1137.5" class="net_58"/>
  <line x1="1332.7142857142858" x2="1388" y1="338.5" y2="338.5" class="net_19,20,21,22,23,24,25,26"/>
  <line x1="1353" x2="1388" y1="1130" y2="1130" class="net_27"/>
  <line x1="1283" x2="1327.2142857142858" y1="24.5" y2="24.5" class="net_19"/>
  <line x1="1327.2142857142858" x2="1327.2142857142858" y1="24.5" y2="328" class="net_19"/>
  <line x1="1283" x2="1303" y1="84.5" y2="84.5" class="net_20"/>
  <line x1="1303" x2="1303" y1="84.5" y2="348.5" class="net_20"/>
  <line x1="1303" x2="1326.7142857142858" y1="348.5" y2="348.5" class="net_20"/>
  <line x1="1283" x2="1293" y1="328.5" y2="328.5" class="net_21"/>
  <line x1="1293" x2="1293" y1="328.5" y2="368.5" class="net_21"/>
  <line x1="1293" x2="1326.7142857142858" y1="368.5" y2="368.5" class="net_21"/>
  <line x1="1283" x2="1326.7142857142858" y1="388.5" y2="388.5" class="net_22"/>
  <line x1="1283" x2="1293" y1="523.5" y2="523.5" class="net_23"/>
  <line x1="1293" x2="1293" y1="523.5" y2="408.5" class="net_23"/>
  <line x1="1293" x2="1326.7142857142858" y1="408.5" y2="408.5" class="net_23"/>
  <line x1="1283" x2="1303" y1="656.5" y2="656.5" class="net_24"/>
  <line x1="1303" x2="1303" y1="656.5" y2="428.5" class="net_24"/>
  <line x1="1303" x2="1326.7142857142858" y1="428.5" y2="428.5" class="net_24"/>
  <line x1="1283" x2="1313" y1="789.5" y2="789.5" class="net_25"/>
  <line x1="1313" x2="1313" y1="789.5" y2="448.5" class="net_25"/>
  <line x1="1313" x2="1326.7142857142858" y1="448.5" y2="448.5" class="net_25"/>
  <line x1="1283" x2="1327.2142857142858" y1="994" y2="994" class="net_26"/>
  <line x1="1327.2142857142858" x2="1327.2142857142858" y1="994" y2="469" class="net_26"/>
  <line x1="40" x2="77" y1="108" y2="108" class="net_2,3,4,5,6,7,8,9"/>
  <line x1="40" x2="77" y1="300" y2="300" class="net_10,11,12,13,14,15,16,17"/>
</svg>
