<?xml version="1.0" encoding="UTF-8" standalone="no"?>
<!DOCTYPE svg PUBLIC "-//W3C//DTD SVG 1.1//EN"
 "http://www.w3.org/Graphics/SVG/1.1/DTD/svg11.dtd">
<!-- Generated by graphviz version 14.1.4 (20260321.0153)
 -->
<!-- Title: addsub1 Pages: 1 -->
<svg width="1293pt" height="300pt"
 viewBox="0.00 0.00 1293.00 300.00" xmlns="http://www.w3.org/2000/svg" xmlns:xlink="http://www.w3.org/1999/xlink">
<g id="graph0" class="graph" transform="scale(1 1) rotate(0) translate(4 295.89)">
<title>addsub1</title>
<polygon fill="white" stroke="none" points="-4,4 -4,-295.89 1289.48,-295.89 1289.48,4 -4,4"/>
<text xml:space="preserve" text-anchor="middle" x="642.74" y="-7.2" font-family="Times,serif" font-size="14.00">addsub1</text>
<!-- n5 -->
<g id="node1" class="node">
<title>n5</title>
<polygon fill="none" stroke="black" points="1039.49,-219.39 1011.74,-201.39 1039.49,-183.39 1067.23,-201.39 1039.49,-219.39"/>
<text xml:space="preserve" text-anchor="middle" x="1039.49" y="-196.34" font-family="Times,serif" font-size="14.00">c2</text>
</g>
<!-- c21 -->
<g id="node21" class="node">
<title>c21</title>
<polygon fill="none" stroke="black" points="1103.23,-126.89 1103.23,-175.89 1195.48,-175.89 1195.48,-126.89 1103.23,-126.89"/>
<text xml:space="preserve" text-anchor="middle" x="1116.11" y="-158.59" font-family="Times,serif" font-size="14.00">A</text>
<polyline fill="none" stroke="black" points="1103.23,-151.39 1128.98,-151.39"/>
<text xml:space="preserve" text-anchor="middle" x="1116.11" y="-134.09" font-family="Times,serif" font-size="14.00">B</text>
<polyline fill="none" stroke="black" points="1128.98,-126.89 1128.98,-175.89"/>
<text xml:space="preserve" text-anchor="middle" x="1149.36" y="-154.59" font-family="Times,serif" font-size="14.00">$25</text>
<text xml:space="preserve" text-anchor="middle" x="1149.36" y="-138.09" font-family="Times,serif" font-size="14.00">$xor</text>
<polyline fill="none" stroke="black" points="1169.73,-126.89 1169.73,-175.89"/>
<text xml:space="preserve" text-anchor="middle" x="1182.61" y="-146.59" font-family="Times,serif" font-size="14.00">Y</text>
</g>
<!-- n5&#45;&gt;c21 -->
<g id="edge17" class="edge">
<title>n5:e&#45;&gt;c21:w</title>
<path fill="none" stroke="#d95f02" d="M1067.23,-201.39C1094.45,-201.39 1078.24,-156.25 1092.57,-142.85"/>
<polygon fill="#d95f02" stroke="#d95f02" points="1093.51,-146.23 1101.8,-139.64 1091.21,-139.61 1093.51,-146.23"/>
</g>
<!-- n6 -->
<g id="node2" class="node">
<title>n6</title>
<polygon fill="none" stroke="black" points="719.75,-127.39 692,-109.39 719.75,-91.39 747.49,-109.39 719.75,-127.39"/>
<text xml:space="preserve" text-anchor="middle" x="719.75" y="-104.34" font-family="Times,serif" font-size="14.00">c1</text>
</g>
<!-- c15 -->
<g id="node8" class="node">
<title>c15</title>
<polygon fill="none" stroke="black" points="783.49,-131.89 783.49,-180.89 877.24,-180.89 877.24,-131.89 783.49,-131.89"/>
<text xml:space="preserve" text-anchor="middle" x="796.37" y="-163.59" font-family="Times,serif" font-size="14.00">A</text>
<polyline fill="none" stroke="black" points="783.49,-156.39 809.24,-156.39"/>
<text xml:space="preserve" text-anchor="middle" x="796.37" y="-139.09" font-family="Times,serif" font-size="14.00">B</text>
<polyline fill="none" stroke="black" points="809.24,-131.89 809.24,-180.89"/>
<text xml:space="preserve" text-anchor="middle" x="830.37" y="-159.59" font-family="Times,serif" font-size="14.00">$31</text>
<text xml:space="preserve" text-anchor="middle" x="830.37" y="-143.09" font-family="Times,serif" font-size="14.00">$add</text>
<polyline fill="none" stroke="black" points="851.49,-131.89 851.49,-180.89"/>
<text xml:space="preserve" text-anchor="middle" x="864.37" y="-151.59" font-family="Times,serif" font-size="14.00">Y</text>
</g>
<!-- n6&#45;&gt;c15 -->
<g id="edge19" class="edge">
<title>n6:e&#45;&gt;c15:w</title>
<path fill="none" stroke="#d95f02" d="M747.49,-109.39C765.04,-109.39 763.46,-131.03 772.94,-140.15"/>
<polygon fill="#d95f02" stroke="#d95f02" points="771.48,-143.34 782.08,-143.6 773.96,-136.8 771.48,-143.34"/>
</g>
<!-- n6&#45;&gt;c21 -->
<g id="edge20" class="edge">
<title>n6:e&#45;&gt;c21:w</title>
<path fill="none" stroke="#d95f02" d="M747.49,-109.39C889.68,-109.39 939.54,-57.84 1067.23,-120.39 1085.31,-129.24 1081.41,-151.85 1092.23,-160.35"/>
<polygon fill="#d95f02" stroke="#d95f02" points="1091.2,-163.69 1101.78,-163.21 1093.21,-156.99 1091.2,-163.69"/>
</g>
<!-- n7 -->
<g id="node3" class="node">
<title>n7</title>
<polygon fill="none" stroke="black" points="1285.48,-143.93 1285.48,-158.85 1269.67,-169.39 1247.3,-169.39 1231.48,-158.85 1231.48,-143.93 1247.3,-133.39 1269.67,-133.39 1285.48,-143.93"/>
<text xml:space="preserve" text-anchor="middle" x="1258.48" y="-146.34" font-family="Times,serif" font-size="14.00">ovf</text>
</g>
<!-- n8 -->
<g id="node4" class="node">
<title>n8</title>
<polygon fill="none" stroke="black" points="1066.49,-139.93 1066.49,-154.85 1050.67,-165.39 1028.3,-165.39 1012.49,-154.85 1012.49,-139.93 1028.3,-129.39 1050.67,-129.39 1066.49,-139.93"/>
<text xml:space="preserve" text-anchor="middle" x="1039.49" y="-142.34" font-family="Times,serif" font-size="14.00">s</text>
</g>
<!-- n9 -->
<g id="node5" class="node">
<title>n9</title>
<polygon fill="none" stroke="black" points="54,-43.93 54,-58.85 38.18,-69.39 15.82,-69.39 0,-58.85 0,-43.93 15.82,-33.39 38.18,-33.39 54,-43.93"/>
<text xml:space="preserve" text-anchor="middle" x="27" y="-46.34" font-family="Times,serif" font-size="14.00">sub</text>
</g>
<!-- c17 -->
<g id="node12" class="node">
<title>c17</title>
<polygon fill="none" stroke="black" points="205.75,-131.89 205.75,-180.89 298,-180.89 298,-131.89 205.75,-131.89"/>
<text xml:space="preserve" text-anchor="middle" x="218.62" y="-163.59" font-family="Times,serif" font-size="14.00">A</text>
<polyline fill="none" stroke="black" points="205.75,-156.39 231.5,-156.39"/>
<text xml:space="preserve" text-anchor="middle" x="218.62" y="-139.09" font-family="Times,serif" font-size="14.00">B</text>
<polyline fill="none" stroke="black" points="231.5,-131.89 231.5,-180.89"/>
<text xml:space="preserve" text-anchor="middle" x="251.88" y="-159.59" font-family="Times,serif" font-size="14.00">$29</text>
<text xml:space="preserve" text-anchor="middle" x="251.88" y="-143.09" font-family="Times,serif" font-size="14.00">$xor</text>
<polyline fill="none" stroke="black" points="272.25,-131.89 272.25,-180.89"/>
<text xml:space="preserve" text-anchor="middle" x="285.12" y="-151.59" font-family="Times,serif" font-size="14.00">Y</text>
</g>
<!-- n9&#45;&gt;c17 -->
<g id="edge24" class="edge">
<title>n9:e&#45;&gt;c17:w</title>
<path fill="none" stroke="#7570b3" d="M54,-51.39C79.96,-51.39 69.26,-81.78 90,-97.39 109.57,-112.12 163.18,-137.28 194.56,-142.97"/>
<polygon fill="#7570b3" stroke="#7570b3" points="193.94,-146.42 204.24,-143.98 194.66,-139.46 193.94,-146.42"/>
</g>
<!-- c18 -->
<g id="node14" class="node">
<title>c18</title>
<polygon fill="none" stroke="black" points="463.75,-51.89 463.75,-100.89 557.5,-100.89 557.5,-51.89 463.75,-51.89"/>
<text xml:space="preserve" text-anchor="middle" x="476.62" y="-83.59" font-family="Times,serif" font-size="14.00">A</text>
<polyline fill="none" stroke="black" points="463.75,-76.39 489.5,-76.39"/>
<text xml:space="preserve" text-anchor="middle" x="476.62" y="-59.09" font-family="Times,serif" font-size="14.00">B</text>
<polyline fill="none" stroke="black" points="489.5,-51.89 489.5,-100.89"/>
<text xml:space="preserve" text-anchor="middle" x="510.62" y="-79.59" font-family="Times,serif" font-size="14.00">$28</text>
<text xml:space="preserve" text-anchor="middle" x="510.62" y="-63.09" font-family="Times,serif" font-size="14.00">$add</text>
<polyline fill="none" stroke="black" points="531.75,-51.89 531.75,-100.89"/>
<text xml:space="preserve" text-anchor="middle" x="544.62" y="-71.59" font-family="Times,serif" font-size="14.00">Y</text>
</g>
<!-- n9&#45;&gt;c18 -->
<g id="edge25" class="edge">
<title>n9:e&#45;&gt;c18:w</title>
<path fill="none" stroke="#7570b3" d="M54,-51.39C72.75,-51.39 71.95,-34.47 90,-29.39 124.12,-19.79 134.35,-27.61 169.75,-29.39 284.85,-35.17 314.15,-35.96 427.75,-55.39 439.42,-57.38 444.4,-61.03 452.4,-62.93"/>
<polygon fill="#7570b3" stroke="#7570b3" points="451.93,-66.4 462.25,-63.98 452.67,-59.43 451.93,-66.4"/>
</g>
<!-- x5 -->
<g id="node19" class="node">
<title>x5</title>
<path fill="none" stroke="#e7298a" d="M102,-38.89C102,-38.89 157.75,-38.89 157.75,-38.89 163.75,-38.89 169.75,-44.89 169.75,-50.89 169.75,-50.89 169.75,-75.89 169.75,-75.89 169.75,-81.89 163.75,-87.89 157.75,-87.89 157.75,-87.89 102,-87.89 102,-87.89 96,-87.89 90,-81.89 90,-75.89 90,-75.89 90,-50.89 90,-50.89 90,-44.89 96,-38.89 102,-38.89"/>
<text xml:space="preserve" text-anchor="middle" x="129.88" y="-70.59" font-family="Times,serif" font-size="14.00" fill="#e7298a">0 &#45;&gt; 7:7</text>
<polyline fill="none" stroke="#e7298a" points="90,-63.39 169.75,-63.39"/>
<text xml:space="preserve" text-anchor="middle" x="129.88" y="-46.09" font-family="Times,serif" font-size="14.00" fill="#e7298a">7x 0:0 &#45; 6:0</text>
</g>
<!-- n9&#45;&gt;x5 -->
<g id="edge26" class="edge">
<title>n9:e&#45;&gt;x5:w</title>
<path fill="none" stroke="#7570b3" stroke-width="3" d="M54,-51.39C65.38,-51.39 70.68,-51.26 78.55,-51.19"/>
<polygon fill="#7570b3" stroke="#7570b3" stroke-width="3" points="75.48,-54.7 85.46,-51.16 75.44,-47.7 75.48,-54.7"/>
</g>
<!-- n10 -->
<g id="node6" class="node">
<title>n10</title>
<polygon fill="none" stroke="black" points="54,-182.93 54,-197.85 38.18,-208.39 15.82,-208.39 0,-197.85 0,-182.93 15.82,-172.39 38.18,-172.39 54,-182.93"/>
<text xml:space="preserve" text-anchor="middle" x="27" y="-185.34" font-family="Times,serif" font-size="14.00">b</text>
</g>
<!-- x2 -->
<g id="node13" class="node">
<title>x2</title>
<path fill="none" stroke="#1b9e77" d="M110.62,-200.39C110.62,-200.39 149.12,-200.39 149.12,-200.39 155.12,-200.39 161.12,-206.39 161.12,-212.39 161.12,-212.39 161.12,-224.39 161.12,-224.39 161.12,-230.39 155.12,-236.39 149.12,-236.39 149.12,-236.39 110.62,-236.39 110.62,-236.39 104.62,-236.39 98.62,-230.39 98.62,-224.39 98.62,-224.39 98.62,-212.39 98.62,-212.39 98.62,-206.39 104.62,-200.39 110.62,-200.39"/>
<text xml:space="preserve" text-anchor="middle" x="129.88" y="-213.59" font-family="Times,serif" font-size="14.00" fill="#1b9e77">7:7 &#45; 0:0</text>
</g>
<!-- n10&#45;&gt;x2 -->
<g id="edge9" class="edge">
<title>n10:e&#45;&gt;x2:w</title>
<path fill="none" stroke="#1b9e77" d="M54,-190.39C72.59,-190.39 74.55,-208.68 86.65,-215.83"/>
<polygon fill="#1b9e77" stroke="#1b9e77" points="85.6,-219.17 96.16,-218.26 87.34,-212.39 85.6,-219.17"/>
</g>
<!-- x6 -->
<g id="node20" class="node">
<title>x6</title>
<path fill="none" stroke="#e7298a" d="M110.62,-145.39C110.62,-145.39 149.12,-145.39 149.12,-145.39 155.12,-145.39 161.12,-151.39 161.12,-157.39 161.12,-157.39 161.12,-169.39 161.12,-169.39 161.12,-175.39 155.12,-181.39 149.12,-181.39 149.12,-181.39 110.62,-181.39 110.62,-181.39 104.62,-181.39 98.62,-175.39 98.62,-169.39 98.62,-169.39 98.62,-157.39 98.62,-157.39 98.62,-151.39 104.62,-145.39 110.62,-145.39"/>
<text xml:space="preserve" text-anchor="middle" x="129.88" y="-158.59" font-family="Times,serif" font-size="14.00" fill="#e7298a">6:0 &#45; 6:0</text>
</g>
<!-- n10&#45;&gt;x6 -->
<g id="edge10" class="edge">
<title>n10:e&#45;&gt;x6:w</title>
<path fill="none" stroke="#1b9e77" stroke-width="3" d="M54,-190.39C72.3,-190.39 74.67,-173.07 86.75,-166.3"/>
<polygon fill="#1b9e77" stroke="#1b9e77" stroke-width="3" points="84.33,-170.5 93.21,-164.72 82.67,-163.7 84.33,-170.5"/>
</g>
<!-- n11 -->
<g id="node7" class="node">
<title>n11</title>
<polygon fill="none" stroke="black" points="156.88,-265.93 156.88,-280.85 141.06,-291.39 118.69,-291.39 102.88,-280.85 102.88,-265.93 118.69,-255.39 141.06,-255.39 156.88,-265.93"/>
<text xml:space="preserve" text-anchor="middle" x="129.88" y="-268.34" font-family="Times,serif" font-size="14.00">a</text>
</g>
<!-- x1 -->
<g id="node11" class="node">
<title>x1</title>
<path fill="none" stroke="#66a61e" d="M232.62,-255.39C232.62,-255.39 271.12,-255.39 271.12,-255.39 277.12,-255.39 283.12,-261.39 283.12,-267.39 283.12,-267.39 283.12,-279.39 283.12,-279.39 283.12,-285.39 277.12,-291.39 271.12,-291.39 271.12,-291.39 232.62,-291.39 232.62,-291.39 226.62,-291.39 220.62,-285.39 220.62,-279.39 220.62,-279.39 220.62,-267.39 220.62,-267.39 220.62,-261.39 226.62,-255.39 232.62,-255.39"/>
<text xml:space="preserve" text-anchor="middle" x="251.88" y="-268.59" font-family="Times,serif" font-size="14.00" fill="#66a61e">7:7 &#45; 0:0</text>
</g>
<!-- n11&#45;&gt;x1 -->
<g id="edge11" class="edge">
<title>n11:e&#45;&gt;x1:w</title>
<path fill="none" stroke="#1b9e77" d="M158.13,-273.39C181.19,-273.39 189.66,-273.57 208.16,-273.62"/>
<polygon fill="#1b9e77" stroke="#1b9e77" points="208.11,-277.12 218.11,-273.64 208.12,-270.12 208.11,-277.12"/>
</g>
<!-- x4 -->
<g id="node17" class="node">
<title>x4</title>
<path fill="none" stroke="#7570b3" d="M232.62,-200.39C232.62,-200.39 271.12,-200.39 271.12,-200.39 277.12,-200.39 283.12,-206.39 283.12,-212.39 283.12,-212.39 283.12,-224.39 283.12,-224.39 283.12,-230.39 277.12,-236.39 271.12,-236.39 271.12,-236.39 232.62,-236.39 232.62,-236.39 226.62,-236.39 220.62,-230.39 220.62,-224.39 220.62,-224.39 220.62,-212.39 220.62,-212.39 220.62,-206.39 226.62,-200.39 232.62,-200.39"/>
<text xml:space="preserve" text-anchor="middle" x="251.88" y="-213.59" font-family="Times,serif" font-size="14.00" fill="#7570b3">6:0 &#45; 6:0</text>
</g>
<!-- n11&#45;&gt;x4 -->
<g id="edge12" class="edge">
<title>n11:e&#45;&gt;x4:w</title>
<path fill="none" stroke="#1b9e77" stroke-width="3" d="M158.13,-273.39C190.43,-273.39 185.11,-230.72 208.59,-220.72"/>
<polygon fill="#1b9e77" stroke="#1b9e77" stroke-width="3" points="205.98,-224.77 215.16,-219.48 204.69,-217.89 205.98,-224.77"/>
</g>
<!-- x0 -->
<g id="node9" class="node">
<title>x0</title>
<path fill="none" stroke="#666666" d="M925.24,-134.89C925.24,-134.89 963.74,-134.89 963.74,-134.89 969.74,-134.89 975.74,-140.89 975.74,-146.89 975.74,-146.89 975.74,-171.89 975.74,-171.89 975.74,-177.89 969.74,-183.89 963.74,-183.89 963.74,-183.89 925.24,-183.89 925.24,-183.89 919.24,-183.89 913.24,-177.89 913.24,-171.89 913.24,-171.89 913.24,-146.89 913.24,-146.89 913.24,-140.89 919.24,-134.89 925.24,-134.89"/>
<text xml:space="preserve" text-anchor="middle" x="944.49" y="-166.59" font-family="Times,serif" font-size="14.00" fill="#666666">1:1 &#45; 0:0</text>
<polyline fill="none" stroke="#666666" points="913.24,-159.39 975.74,-159.39"/>
<text xml:space="preserve" text-anchor="middle" x="944.49" y="-142.09" font-family="Times,serif" font-size="14.00" fill="#666666">0:0 &#45; 7:7</text>
</g>
<!-- c15&#45;&gt;x0 -->
<g id="edge1" class="edge">
<title>c15:e&#45;&gt;x0:w</title>
<path fill="none" stroke="#66a61e" stroke-width="3" d="M889.97,-157.33C893.57,-157.74 896.69,-158.25 900.26,-158.67"/>
<polygon fill="none" stroke="#66a61e" stroke-width="3" points="891.92,-157.44 885.72,-161.11 879.94,-156.79 886.15,-153.12 891.92,-157.44"/>
<polygon fill="none" stroke="#66a61e" stroke-width="3" points="898.56,-158.57 904.77,-154.91 910.54,-159.24 904.33,-162.9 898.56,-158.57"/>
</g>
<!-- x0&#45;&gt;n5 -->
<g id="edge16" class="edge">
<title>x0:e&#45;&gt;n5:w</title>
<path fill="none" stroke="#d95f02" d="M975.74,-171.64C991.8,-171.64 992.13,-189.44 1001.07,-197.5"/>
<polygon fill="#d95f02" stroke="#d95f02" points="999.73,-200.74 1010.32,-200.87 1002.12,-194.16 999.73,-200.74"/>
</g>
<!-- x0&#45;&gt;n8 -->
<g id="edge22" class="edge">
<title>x0:e&#45;&gt;n8:w</title>
<path fill="none" stroke="#1b9e77" d="M975.74,-147.14C987.12,-147.14 992.43,-147.27 1000.3,-147.34"/>
<polygon fill="#1b9e77" stroke="#1b9e77" points="1000.21,-150.84 1010.23,-147.38 1000.24,-143.84 1000.21,-150.84"/>
</g>
<!-- c16 -->
<g id="node10" class="node">
<title>c16</title>
<polygon fill="none" stroke="black" points="334,-143.89 334,-192.89 427.75,-192.89 427.75,-143.89 334,-143.89"/>
<text xml:space="preserve" text-anchor="middle" x="346.87" y="-175.59" font-family="Times,serif" font-size="14.00">A</text>
<polyline fill="none" stroke="black" points="334,-168.39 359.75,-168.39"/>
<text xml:space="preserve" text-anchor="middle" x="346.87" y="-151.09" font-family="Times,serif" font-size="14.00">B</text>
<polyline fill="none" stroke="black" points="359.75,-143.89 359.75,-192.89"/>
<text xml:space="preserve" text-anchor="middle" x="380.87" y="-171.59" font-family="Times,serif" font-size="14.00">$30</text>
<text xml:space="preserve" text-anchor="middle" x="380.87" y="-155.09" font-family="Times,serif" font-size="14.00">$add</text>
<polyline fill="none" stroke="black" points="402,-143.89 402,-192.89"/>
<text xml:space="preserve" text-anchor="middle" x="414.87" y="-163.59" font-family="Times,serif" font-size="14.00">Y</text>
</g>
<!-- c16&#45;&gt;c15 -->
<g id="edge8" class="edge">
<title>c16:e&#45;&gt;c15:w</title>
<path fill="none" stroke="#d95f02" stroke-width="3" d="M427.75,-168.64C582,-168.64 623.38,-168.64 772.12,-168.64"/>
<polygon fill="#d95f02" stroke="#d95f02" stroke-width="3" points="768.95,-172.14 778.95,-168.64 768.95,-165.14 768.95,-172.14"/>
</g>
<!-- x1&#45;&gt;c16 -->
<g id="edge2" class="edge">
<title>x1:e&#45;&gt;c16:w</title>
<path fill="none" stroke="#1b9e77" d="M296.47,-270.3C319.2,-256.22 298.97,-198.13 321.48,-183.83"/>
<polygon fill="none" stroke="#1b9e77" points="296.64,-270.26 291.79,-275.6 285,-273.17 289.85,-267.83 296.64,-270.26"/>
<polygon fill="none" stroke="#1b9e77" points="321.5,-183.83 326.32,-178.47 333.13,-180.86 328.3,-186.22 321.5,-183.83"/>
</g>
<!-- c17&#45;&gt;c16 -->
<g id="edge15" class="edge">
<title>c17:e&#45;&gt;c16:w</title>
<path fill="none" stroke="#d95f02" stroke-width="3" d="M298,-156.64C309.38,-156.64 314.68,-156.39 322.55,-156.24"/>
<polygon fill="#d95f02" stroke="#d95f02" stroke-width="3" points="319.49,-159.77 329.46,-156.18 319.43,-152.77 319.49,-159.77"/>
</g>
<!-- x2&#45;&gt;c17 -->
<g id="edge3" class="edge">
<title>x2:e&#45;&gt;c17:w</title>
<path fill="none" stroke="#1b9e77" d="M174.18,-214.15C184.6,-204.75 183.28,-182.26 193.71,-172.87"/>
<polygon fill="none" stroke="#1b9e77" points="174.29,-214.11 169.96,-219.87 162.98,-218.09 167.31,-212.32 174.29,-214.11"/>
<polygon fill="none" stroke="#1b9e77" points="193.58,-172.92 197.91,-167.15 204.9,-168.94 200.57,-174.7 193.58,-172.92"/>
</g>
<!-- x3 -->
<g id="node15" class="node">
<title>x3</title>
<path fill="none" stroke="#1b9e77" d="M605.5,-51.89C605.5,-51.89 644,-51.89 644,-51.89 650,-51.89 656,-57.89 656,-63.89 656,-63.89 656,-88.89 656,-88.89 656,-94.89 650,-100.89 644,-100.89 644,-100.89 605.5,-100.89 605.5,-100.89 599.5,-100.89 593.5,-94.89 593.5,-88.89 593.5,-88.89 593.5,-63.89 593.5,-63.89 593.5,-57.89 599.5,-51.89 605.5,-51.89"/>
<text xml:space="preserve" text-anchor="middle" x="624.75" y="-83.59" font-family="Times,serif" font-size="14.00" fill="#1b9e77">7:7 &#45; 0:0</text>
<polyline fill="none" stroke="#1b9e77" points="593.5,-76.39 656,-76.39"/>
<text xml:space="preserve" text-anchor="middle" x="624.75" y="-59.09" font-family="Times,serif" font-size="14.00" fill="#1b9e77">6:0 &#45; 6:0</text>
</g>
<!-- c18&#45;&gt;x3 -->
<g id="edge4" class="edge">
<title>c18:e&#45;&gt;x3:w</title>
<path fill="none" stroke="#7570b3" stroke-width="3" d="M570.22,-76.58C573.82,-76.54 576.95,-76.49 580.53,-76.45"/>
<polygon fill="none" stroke="#7570b3" stroke-width="3" points="572.2,-76.57 566.22,-80.6 560.2,-76.63 566.18,-72.6 572.2,-76.57"/>
<polygon fill="none" stroke="#7570b3" stroke-width="3" points="578.8,-76.46 584.78,-72.43 590.8,-76.4 584.82,-80.43 578.8,-76.46"/>
</g>
<!-- x3&#45;&gt;n6 -->
<g id="edge18" class="edge">
<title>x3:e&#45;&gt;n6:w</title>
<path fill="none" stroke="#d95f02" d="M656,-88.64C669.85,-88.64 672.79,-100.31 681.18,-106.15"/>
<polygon fill="#d95f02" stroke="#d95f02" points="679.97,-109.44 690.55,-108.95 681.98,-102.73 679.97,-109.44"/>
</g>
<!-- x3&#45;&gt;n8 -->
<g id="edge23" class="edge">
<title>x3:e&#45;&gt;n8:w</title>
<path fill="none" stroke="#1b9e77" stroke-width="3" d="M656,-64.14C800.69,-64.14 840.79,-73.21 975.74,-125.39 988.86,-130.46 992,-140.3 1000.67,-144.9"/>
<polygon fill="#1b9e77" stroke="#1b9e77" stroke-width="3" points="996.79,-147.62 1007.31,-146.39 998.32,-140.79 996.79,-147.62"/>
</g>
<!-- c19 -->
<g id="node16" class="node">
<title>c19</title>
<polygon fill="none" stroke="black" points="334,-64.89 334,-113.89 427.75,-113.89 427.75,-64.89 334,-64.89"/>
<text xml:space="preserve" text-anchor="middle" x="346.87" y="-96.59" font-family="Times,serif" font-size="14.00">A</text>
<polyline fill="none" stroke="black" points="334,-89.39 359.75,-89.39"/>
<text xml:space="preserve" text-anchor="middle" x="346.87" y="-72.09" font-family="Times,serif" font-size="14.00">B</text>
<polyline fill="none" stroke="black" points="359.75,-64.89 359.75,-113.89"/>
<text xml:space="preserve" text-anchor="middle" x="380.87" y="-92.59" font-family="Times,serif" font-size="14.00">$27</text>
<text xml:space="preserve" text-anchor="middle" x="380.87" y="-76.09" font-family="Times,serif" font-size="14.00">$add</text>
<polyline fill="none" stroke="black" points="402,-64.89 402,-113.89"/>
<text xml:space="preserve" text-anchor="middle" x="414.87" y="-84.59" font-family="Times,serif" font-size="14.00">Y</text>
</g>
<!-- c19&#45;&gt;c18 -->
<g id="edge13" class="edge">
<title>c19:e&#45;&gt;c18:w</title>
<path fill="none" stroke="#e6ab02" stroke-width="3" d="M427.75,-89.64C439.13,-89.64 444.43,-89.13 452.3,-88.84"/>
<polygon fill="#e6ab02" stroke="#e6ab02" stroke-width="3" points="449.27,-92.4 459.21,-88.72 449.15,-85.4 449.27,-92.4"/>
</g>
<!-- x4&#45;&gt;c19 -->
<g id="edge5" class="edge">
<title>x4:e&#45;&gt;c19:w</title>
<path fill="none" stroke="#e7298a" stroke-width="3" d="M296.62,-215.73C326.92,-200.05 291.16,-119.77 321.62,-104.24"/>
<polygon fill="none" stroke="#e7298a" stroke-width="3" points="298.51,-215.33 293.47,-220.49 286.77,-217.83 291.81,-212.67 298.51,-215.33"/>
<polygon fill="none" stroke="#e7298a" stroke-width="3" points="319.61,-104.66 324.66,-99.52 331.35,-102.2 326.3,-107.34 319.61,-104.66"/>
</g>
<!-- c20 -->
<g id="node18" class="node">
<title>c20</title>
<polygon fill="none" stroke="black" points="205.75,-52.89 205.75,-101.89 298,-101.89 298,-52.89 205.75,-52.89"/>
<text xml:space="preserve" text-anchor="middle" x="218.62" y="-84.59" font-family="Times,serif" font-size="14.00">A</text>
<polyline fill="none" stroke="black" points="205.75,-77.39 231.5,-77.39"/>
<text xml:space="preserve" text-anchor="middle" x="218.62" y="-60.09" font-family="Times,serif" font-size="14.00">B</text>
<polyline fill="none" stroke="black" points="231.5,-52.89 231.5,-101.89"/>
<text xml:space="preserve" text-anchor="middle" x="251.88" y="-80.59" font-family="Times,serif" font-size="14.00">$26</text>
<text xml:space="preserve" text-anchor="middle" x="251.88" y="-64.09" font-family="Times,serif" font-size="14.00">$xor</text>
<polyline fill="none" stroke="black" points="272.25,-52.89 272.25,-101.89"/>
<text xml:space="preserve" text-anchor="middle" x="285.12" y="-72.59" font-family="Times,serif" font-size="14.00">Y</text>
</g>
<!-- c20&#45;&gt;c19 -->
<g id="edge14" class="edge">
<title>c20:e&#45;&gt;c19:w</title>
<path fill="none" stroke="#e6ab02" stroke-width="3" d="M298,-77.64C309.38,-77.64 314.68,-77.39 322.55,-77.24"/>
<polygon fill="#e6ab02" stroke="#e6ab02" stroke-width="3" points="319.49,-80.77 329.46,-77.18 319.43,-73.77 319.49,-80.77"/>
</g>
<!-- x5&#45;&gt;c20 -->
<g id="edge6" class="edge">
<title>x5:e&#45;&gt;c20:w</title>
<path fill="none" stroke="#e7298a" stroke-width="3" d="M182.48,-63.83C186.07,-64.09 189.2,-64.42 192.77,-64.68"/>
<polygon fill="none" stroke="#e7298a" stroke-width="3" points="184.45,-63.9 178.31,-67.69 172.45,-63.48 178.59,-59.69 184.45,-63.9"/>
<polygon fill="none" stroke="#e7298a" stroke-width="3" points="191.06,-64.62 197.19,-60.83 203.05,-65.04 196.91,-68.83 191.06,-64.62"/>
</g>
<!-- x6&#45;&gt;c20 -->
<g id="edge7" class="edge">
<title>x6:e&#45;&gt;c20:w</title>
<path fill="none" stroke="#7570b3" stroke-width="3" d="M174.39,-159.42C189.49,-146.62 178.39,-106.46 193.46,-93.62"/>
<polygon fill="none" stroke="#7570b3" stroke-width="3" points="176.12,-158.87 171.64,-164.52 164.7,-162.56 169.18,-156.91 176.12,-158.87"/>
<polygon fill="none" stroke="#7570b3" stroke-width="3" points="191.76,-94.17 196.24,-88.52 203.18,-90.47 198.7,-96.13 191.76,-94.17"/>
</g>
<!-- c21&#45;&gt;n7 -->
<g id="edge21" class="edge">
<title>c21:e&#45;&gt;n7:w</title>
<path fill="none" stroke="#1b9e77" d="M1195.48,-151.64C1206.86,-151.64 1212.17,-151.51 1220.04,-151.44"/>
<polygon fill="#1b9e77" stroke="#1b9e77" points="1219.99,-154.94 1229.97,-151.4 1219.95,-147.94 1219.99,-154.94"/>
</g>
</g>
</svg>
