<?xml version="1.0" encoding="UTF-8" standalone="no"?>
<!DOCTYPE svg PUBLIC "-//W3C//DTD SVG 1.1//EN"
 "http://www.w3.org/Graphics/SVG/1.1/DTD/svg11.dtd">
<!-- Generated by graphviz version 14.1.4 (20260321.0153)
 -->
<!-- Title: addsub Pages: 1 -->
<svg width="1709pt" height="345pt"
 viewBox="0.00 0.00 1709.00 345.00" xmlns="http://www.w3.org/2000/svg" xmlns:xlink="http://www.w3.org/1999/xlink">
<g id="graph0" class="graph" transform="scale(1 1) rotate(0) translate(4 341)">
<title>addsub</title>
<polygon fill="white" stroke="none" points="-4,4 -4,-341 1704.74,-341 1704.74,4 -4,4"/>
<text xml:space="preserve" text-anchor="middle" x="850.37" y="-7.2" font-family="Times,serif" font-size="14.00">addsub</text>
<!-- n3 -->
<g id="node1" class="node">
<title>n3</title>
<polygon fill="none" stroke="black" points="1451.24,-140 1423.5,-122 1451.24,-104 1478.99,-122 1451.24,-140"/>
<text xml:space="preserve" text-anchor="middle" x="1451.24" y="-116.95" font-family="Times,serif" font-size="14.00">c2</text>
</g>
<!-- c19 -->
<g id="node19" class="node">
<title>c19</title>
<polygon fill="none" stroke="black" points="1518.49,-120.5 1518.49,-169.5 1610.74,-169.5 1610.74,-120.5 1518.49,-120.5"/>
<text xml:space="preserve" text-anchor="middle" x="1531.37" y="-152.2" font-family="Times,serif" font-size="14.00">A</text>
<polyline fill="none" stroke="black" points="1518.49,-145 1544.24,-145"/>
<text xml:space="preserve" text-anchor="middle" x="1531.37" y="-127.7" font-family="Times,serif" font-size="14.00">B</text>
<polyline fill="none" stroke="black" points="1544.24,-120.5 1544.24,-169.5"/>
<text xml:space="preserve" text-anchor="middle" x="1564.62" y="-148.2" font-family="Times,serif" font-size="14.00">$22</text>
<text xml:space="preserve" text-anchor="middle" x="1564.62" y="-131.7" font-family="Times,serif" font-size="14.00">$xor</text>
<polyline fill="none" stroke="black" points="1584.99,-120.5 1584.99,-169.5"/>
<text xml:space="preserve" text-anchor="middle" x="1597.87" y="-140.2" font-family="Times,serif" font-size="14.00">Y</text>
</g>
<!-- n3&#45;&gt;c19 -->
<g id="edge11" class="edge">
<title>n3:e&#45;&gt;c19:w</title>
<path fill="none" stroke="#1b9e77" d="M1480.82,-122C1493.61,-122 1498.54,-127.8 1507.15,-130.88"/>
<polygon fill="#1b9e77" stroke="#1b9e77" points="1506.56,-134.33 1517,-132.5 1507.7,-127.42 1506.56,-134.33"/>
</g>
<!-- n4 -->
<g id="node2" class="node">
<title>n4</title>
<polygon fill="none" stroke="black" points="857.5,-186 829.75,-168 857.5,-150 885.24,-168 857.5,-186"/>
<text xml:space="preserve" text-anchor="middle" x="857.5" y="-162.95" font-family="Times,serif" font-size="14.00">c1</text>
</g>
<!-- c16 -->
<g id="node10" class="node">
<title>c16</title>
<polygon fill="none" stroke="black" points="921.24,-196.25 921.24,-269.75 1383.99,-269.75 1383.99,-196.25 921.24,-196.25"/>
<text xml:space="preserve" text-anchor="middle" x="937.49" y="-252.45" font-family="Times,serif" font-size="14.00">a</text>
<polyline fill="none" stroke="black" points="921.24,-245.25 953.74,-245.25"/>
<text xml:space="preserve" text-anchor="middle" x="937.49" y="-227.95" font-family="Times,serif" font-size="14.00">b</text>
<polyline fill="none" stroke="black" points="921.24,-220.75 953.74,-220.75"/>
<text xml:space="preserve" text-anchor="middle" x="937.49" y="-203.45" font-family="Times,serif" font-size="14.00">cin</text>
<polyline fill="none" stroke="black" points="953.74,-196.25 953.74,-269.75"/>
<text xml:space="preserve" text-anchor="middle" x="1149.24" y="-238.07" font-family="Times,serif" font-size="14.00">as</text>
<text xml:space="preserve" text-anchor="middle" x="1149.24" y="-221.57" font-family="Times,serif" font-size="14.00">$paramod╲adder2╲N=s32&#39;00000000000000000000000000000001</text>
<polyline fill="none" stroke="black" points="1344.74,-196.25 1344.74,-269.75"/>
<text xml:space="preserve" text-anchor="middle" x="1364.37" y="-246.45" font-family="Times,serif" font-size="14.00">cout</text>
<polyline fill="none" stroke="black" points="1344.74,-233.25 1383.99,-233.25"/>
<text xml:space="preserve" text-anchor="middle" x="1364.37" y="-209.95" font-family="Times,serif" font-size="14.00">s</text>
</g>
<!-- n4&#45;&gt;c16 -->
<g id="edge13" class="edge">
<title>n4:e&#45;&gt;c16:w</title>
<path fill="none" stroke="#e6ab02" d="M885.24,-168C904.62,-168 900.53,-194.22 910.74,-204.47"/>
<polygon fill="#e6ab02" stroke="#e6ab02" points="909.24,-207.64 919.83,-207.96 911.75,-201.11 909.24,-207.64"/>
</g>
<!-- n4&#45;&gt;c19 -->
<g id="edge14" class="edge">
<title>n4:e&#45;&gt;c19:w</title>
<path fill="none" stroke="#e6ab02" d="M885.24,-168C1162.88,-168 1235.05,-157.54 1507.06,-157.26"/>
<polygon fill="#e6ab02" stroke="#e6ab02" points="1506.98,-160.76 1516.98,-157.25 1506.98,-153.76 1506.98,-160.76"/>
</g>
<!-- n5 -->
<g id="node3" class="node">
<title>n5</title>
<polygon fill="none" stroke="black" points="1700.74,-137.54 1700.74,-152.46 1684.93,-163 1662.56,-163 1646.74,-152.46 1646.74,-137.54 1662.56,-127 1684.93,-127 1700.74,-137.54"/>
<text xml:space="preserve" text-anchor="middle" x="1673.74" y="-139.95" font-family="Times,serif" font-size="14.00">ovf</text>
</g>
<!-- n6 -->
<g id="node4" class="node">
<title>n6</title>
<polygon fill="none" stroke="black" points="1591.62,-36.54 1591.62,-51.46 1575.8,-62 1553.43,-62 1537.62,-51.46 1537.62,-36.54 1553.43,-26 1575.8,-26 1591.62,-36.54"/>
<text xml:space="preserve" text-anchor="middle" x="1564.62" y="-38.95" font-family="Times,serif" font-size="14.00">s</text>
</g>
<!-- n7 -->
<g id="node5" class="node">
<title>n7</title>
<polygon fill="none" stroke="black" points="54,-107.54 54,-122.46 38.18,-133 15.82,-133 0,-122.46 0,-107.54 15.82,-97 38.18,-97 54,-107.54"/>
<text xml:space="preserve" text-anchor="middle" x="27" y="-109.95" font-family="Times,serif" font-size="14.00">sub</text>
</g>
<!-- c13 -->
<g id="node8" class="node">
<title>c13</title>
<polygon fill="none" stroke="black" points="205.75,-185.5 205.75,-234.5 298,-234.5 298,-185.5 205.75,-185.5"/>
<text xml:space="preserve" text-anchor="middle" x="218.62" y="-217.2" font-family="Times,serif" font-size="14.00">A</text>
<polyline fill="none" stroke="black" points="205.75,-210 231.5,-210"/>
<text xml:space="preserve" text-anchor="middle" x="218.62" y="-192.7" font-family="Times,serif" font-size="14.00">B</text>
<polyline fill="none" stroke="black" points="231.5,-185.5 231.5,-234.5"/>
<text xml:space="preserve" text-anchor="middle" x="251.88" y="-213.2" font-family="Times,serif" font-size="14.00">$24</text>
<text xml:space="preserve" text-anchor="middle" x="251.88" y="-196.7" font-family="Times,serif" font-size="14.00">$xor</text>
<polyline fill="none" stroke="black" points="272.25,-185.5 272.25,-234.5"/>
<text xml:space="preserve" text-anchor="middle" x="285.12" y="-205.2" font-family="Times,serif" font-size="14.00">Y</text>
</g>
<!-- n7&#45;&gt;c13 -->
<g id="edge18" class="edge">
<title>n7:e&#45;&gt;c13:w</title>
<path fill="none" stroke="#d95f02" d="M54,-115C74.27,-115 72.73,-132.38 90,-143 92.5,-144.54 167.09,-180.73 195.23,-193.41"/>
<polygon fill="#d95f02" stroke="#d95f02" points="193.77,-196.59 204.35,-197.17 196.44,-190.12 193.77,-196.59"/>
</g>
<!-- x3 -->
<g id="node14" class="node">
<title>x3</title>
<path fill="none" stroke="#1b9e77" d="M102,-97C102,-97 157.75,-97 157.75,-97 163.75,-97 169.75,-103 169.75,-109 169.75,-109 169.75,-121 169.75,-121 169.75,-127 163.75,-133 157.75,-133 157.75,-133 102,-133 102,-133 96,-133 90,-127 90,-121 90,-121 90,-109 90,-109 90,-103 96,-97 102,-97"/>
<text xml:space="preserve" text-anchor="middle" x="129.88" y="-110.2" font-family="Times,serif" font-size="14.00" fill="#1b9e77">7x 0:0 &#45; 6:0</text>
</g>
<!-- n7&#45;&gt;x3 -->
<g id="edge20" class="edge">
<title>n7:e&#45;&gt;x3:w</title>
<path fill="none" stroke="#d95f02" stroke-width="3" d="M54,-115C65.38,-115 70.68,-115.13 78.55,-115.2"/>
<polygon fill="#d95f02" stroke="#d95f02" stroke-width="3" points="75.44,-118.69 85.46,-115.23 75.48,-111.69 75.44,-118.69"/>
</g>
<!-- c18 -->
<g id="node16" class="node">
<title>c18</title>
<polygon fill="none" stroke="black" points="334,-97.25 334,-170.75 793.75,-170.75 793.75,-97.25 334,-97.25"/>
<text xml:space="preserve" text-anchor="middle" x="350.25" y="-153.45" font-family="Times,serif" font-size="14.00">a</text>
<polyline fill="none" stroke="black" points="334,-146.25 366.5,-146.25"/>
<text xml:space="preserve" text-anchor="middle" x="350.25" y="-128.95" font-family="Times,serif" font-size="14.00">b</text>
<polyline fill="none" stroke="black" points="334,-121.75 366.5,-121.75"/>
<text xml:space="preserve" text-anchor="middle" x="350.25" y="-104.45" font-family="Times,serif" font-size="14.00">cin</text>
<polyline fill="none" stroke="black" points="366.5,-97.25 366.5,-170.75"/>
<text xml:space="preserve" text-anchor="middle" x="560.5" y="-139.07" font-family="Times,serif" font-size="14.00">ai</text>
<text xml:space="preserve" text-anchor="middle" x="560.5" y="-122.58" font-family="Times,serif" font-size="14.00">$paramod╲adder1╲n=s32&#39;00000000000000000000000000000111</text>
<polyline fill="none" stroke="black" points="754.5,-97.25 754.5,-170.75"/>
<text xml:space="preserve" text-anchor="middle" x="774.12" y="-147.45" font-family="Times,serif" font-size="14.00">cout</text>
<polyline fill="none" stroke="black" points="754.5,-134.25 793.75,-134.25"/>
<text xml:space="preserve" text-anchor="middle" x="774.12" y="-110.95" font-family="Times,serif" font-size="14.00">s</text>
</g>
<!-- n7&#45;&gt;c18 -->
<g id="edge19" class="edge">
<title>n7:e&#45;&gt;c18:w</title>
<path fill="none" stroke="#d95f02" d="M54,-115C74.27,-115 70.83,-93.58 90,-87 177.61,-56.94 206.86,-83.46 298,-100 309.7,-102.12 314.63,-106.1 322.62,-108.17"/>
<polygon fill="#d95f02" stroke="#d95f02" points="322.16,-111.64 332.5,-109.32 322.97,-104.69 322.16,-111.64"/>
</g>
<!-- n8 -->
<g id="node6" class="node">
<title>n8</title>
<polygon fill="none" stroke="black" points="54,-228.54 54,-243.46 38.18,-254 15.82,-254 0,-243.46 0,-228.54 15.82,-218 38.18,-218 54,-228.54"/>
<text xml:space="preserve" text-anchor="middle" x="27" y="-230.95" font-family="Times,serif" font-size="14.00">b</text>
</g>
<!-- x0 -->
<g id="node9" class="node">
<title>x0</title>
<path fill="none" stroke="#666666" d="M110.62,-246C110.62,-246 149.12,-246 149.12,-246 155.12,-246 161.12,-252 161.12,-258 161.12,-258 161.12,-270 161.12,-270 161.12,-276 155.12,-282 149.12,-282 149.12,-282 110.62,-282 110.62,-282 104.62,-282 98.62,-276 98.62,-270 98.62,-270 98.62,-258 98.62,-258 98.62,-252 104.62,-246 110.62,-246"/>
<text xml:space="preserve" text-anchor="middle" x="129.88" y="-259.2" font-family="Times,serif" font-size="14.00" fill="#666666">7:7 &#45; 0:0</text>
</g>
<!-- n8&#45;&gt;x0 -->
<g id="edge21" class="edge">
<title>n8:e&#45;&gt;x0:w</title>
<path fill="none" stroke="#d95f02" d="M54,-236C72.59,-236 74.55,-254.29 86.65,-261.44"/>
<polygon fill="#d95f02" stroke="#d95f02" points="85.6,-264.78 96.16,-263.87 87.34,-258 85.6,-264.78"/>
</g>
<!-- x4 -->
<g id="node15" class="node">
<title>x4</title>
<path fill="none" stroke="#7570b3" d="M110.62,-191C110.62,-191 149.12,-191 149.12,-191 155.12,-191 161.12,-197 161.12,-203 161.12,-203 161.12,-215 161.12,-215 161.12,-221 155.12,-227 149.12,-227 149.12,-227 110.62,-227 110.62,-227 104.62,-227 98.62,-221 98.62,-215 98.62,-215 98.62,-203 98.62,-203 98.62,-197 104.62,-191 110.62,-191"/>
<text xml:space="preserve" text-anchor="middle" x="129.88" y="-204.2" font-family="Times,serif" font-size="14.00" fill="#7570b3">6:0 &#45; 6:0</text>
</g>
<!-- n8&#45;&gt;x4 -->
<g id="edge22" class="edge">
<title>n8:e&#45;&gt;x4:w</title>
<path fill="none" stroke="#d95f02" stroke-width="3" d="M54,-236C72.3,-236 74.67,-218.68 86.75,-211.91"/>
<polygon fill="#d95f02" stroke="#d95f02" stroke-width="3" points="84.33,-216.11 93.21,-210.33 82.67,-209.31 84.33,-216.11"/>
</g>
<!-- n9 -->
<g id="node7" class="node">
<title>n9</title>
<polygon fill="none" stroke="black" points="156.88,-311.54 156.88,-326.46 141.06,-337 118.69,-337 102.88,-326.46 102.88,-311.54 118.69,-301 141.06,-301 156.88,-311.54"/>
<text xml:space="preserve" text-anchor="middle" x="129.88" y="-313.95" font-family="Times,serif" font-size="14.00">a</text>
</g>
<!-- x2 -->
<g id="node12" class="node">
<title>x2</title>
<path fill="none" stroke="#1b9e77" d="M544.62,-285C544.62,-285 583.12,-285 583.12,-285 589.12,-285 595.12,-291 595.12,-297 595.12,-297 595.12,-309 595.12,-309 595.12,-315 589.12,-321 583.12,-321 583.12,-321 544.62,-321 544.62,-321 538.62,-321 532.62,-315 532.62,-309 532.62,-309 532.62,-297 532.62,-297 532.62,-291 538.62,-285 544.62,-285"/>
<text xml:space="preserve" text-anchor="middle" x="563.88" y="-298.2" font-family="Times,serif" font-size="14.00" fill="#1b9e77">7:7 &#45; 0:0</text>
</g>
<!-- n9&#45;&gt;x2 -->
<g id="edge23" class="edge">
<title>n9:e&#45;&gt;x2:w</title>
<path fill="none" stroke="#1b9e77" d="M158.13,-319C320.38,-319 363.48,-303.98 520.15,-303.28"/>
<polygon fill="#1b9e77" stroke="#1b9e77" points="520.12,-306.78 530.11,-303.25 520.1,-299.78 520.12,-306.78"/>
</g>
<!-- x6 -->
<g id="node18" class="node">
<title>x6</title>
<path fill="none" stroke="#e7298a" d="M232.62,-254C232.62,-254 271.12,-254 271.12,-254 277.12,-254 283.12,-260 283.12,-266 283.12,-266 283.12,-278 283.12,-278 283.12,-284 277.12,-290 271.12,-290 271.12,-290 232.62,-290 232.62,-290 226.62,-290 220.62,-284 220.62,-278 220.62,-278 220.62,-266 220.62,-266 220.62,-260 226.62,-254 232.62,-254"/>
<text xml:space="preserve" text-anchor="middle" x="251.88" y="-267.2" font-family="Times,serif" font-size="14.00" fill="#e7298a">6:0 &#45; 6:0</text>
</g>
<!-- n9&#45;&gt;x6 -->
<g id="edge24" class="edge">
<title>n9:e&#45;&gt;x6:w</title>
<path fill="none" stroke="#1b9e77" stroke-width="3" d="M158.13,-319C188.17,-319 186.44,-283.21 208.53,-274.26"/>
<polygon fill="#1b9e77" stroke="#1b9e77" stroke-width="3" points="205.94,-278.29 215.16,-273.06 204.69,-271.4 205.94,-278.29"/>
</g>
<!-- c13&#45;&gt;c16 -->
<g id="edge9" class="edge">
<title>c13:e&#45;&gt;c16:w</title>
<path fill="none" stroke="#1b9e77" d="M298,-210.25C571.39,-210.25 642.14,-232.38 909.99,-232.99"/>
<polygon fill="#1b9e77" stroke="#1b9e77" points="909.72,-236.49 919.73,-233 909.73,-229.49 909.72,-236.49"/>
</g>
<!-- x0&#45;&gt;c13 -->
<g id="edge1" class="edge">
<title>x0:e&#45;&gt;c13:w</title>
<path fill="none" stroke="#66a61e" d="M174.18,-259.84C183.47,-251.84 184.41,-234.38 193.72,-226.39"/>
<polygon fill="none" stroke="#66a61e" points="174.32,-259.79 169.95,-265.53 162.98,-263.71 167.35,-257.97 174.32,-259.79"/>
<polygon fill="none" stroke="#66a61e" points="193.55,-226.45 197.92,-220.71 204.9,-222.54 200.52,-228.28 193.55,-226.45"/>
</g>
<!-- c16&#45;&gt;n3 -->
<g id="edge10" class="edge">
<title>c16:e&#45;&gt;n3:w</title>
<path fill="none" stroke="#1b9e77" d="M1383.99,-251.5C1439.48,-251.5 1373.14,-140.51 1410.55,-124.03"/>
<polygon fill="#1b9e77" stroke="#1b9e77" points="1410.97,-127.52 1420.17,-122.27 1409.71,-120.63 1410.97,-127.52"/>
</g>
<!-- x1 -->
<g id="node11" class="node">
<title>x1</title>
<path fill="none" stroke="#66a61e" d="M1431.99,-49C1431.99,-49 1470.49,-49 1470.49,-49 1476.49,-49 1482.49,-55 1482.49,-61 1482.49,-61 1482.49,-73 1482.49,-73 1482.49,-79 1476.49,-85 1470.49,-85 1470.49,-85 1431.99,-85 1431.99,-85 1425.99,-85 1419.99,-79 1419.99,-73 1419.99,-73 1419.99,-61 1419.99,-61 1419.99,-55 1425.99,-49 1431.99,-49"/>
<text xml:space="preserve" text-anchor="middle" x="1451.24" y="-62.2" font-family="Times,serif" font-size="14.00" fill="#66a61e">0:0 &#45; 7:7</text>
</g>
<!-- c16&#45;&gt;x1 -->
<g id="edge2" class="edge">
<title>c16:e&#45;&gt;x1:w</title>
<path fill="none" stroke="#1b9e77" d="M1396.7,-212.55C1434.17,-194.89 1369.77,-87 1407.33,-69.42"/>
<polygon fill="none" stroke="#1b9e77" points="1396.66,-212.56 1391.52,-217.62 1384.88,-214.83 1390.01,-209.77 1396.66,-212.56"/>
<polygon fill="none" stroke="#1b9e77" points="1407.32,-69.42 1412.46,-64.37 1419.11,-67.17 1413.96,-72.23 1407.32,-69.42"/>
</g>
<!-- x1&#45;&gt;n6 -->
<g id="edge16" class="edge">
<title>x1:e&#45;&gt;n6:w</title>
<path fill="none" stroke="#d95f02" d="M1482.49,-67.25C1504.29,-67.25 1509.07,-51 1525.28,-45.67"/>
<polygon fill="#d95f02" stroke="#d95f02" points="1525.5,-49.18 1534.87,-44.23 1524.46,-42.26 1525.5,-49.18"/>
</g>
<!-- x2&#45;&gt;c16 -->
<g id="edge3" class="edge">
<title>x2:e&#45;&gt;c16:w</title>
<path fill="none" stroke="#1b9e77" d="M609.07,-302.88C739.93,-300.37 777.43,-260.13 908.28,-257.62"/>
<polygon fill="none" stroke="#1b9e77" points="609.03,-302.88 603.06,-306.93 597.03,-302.99 602.99,-298.93 609.03,-302.88"/>
<polygon fill="none" stroke="#1b9e77" points="908.34,-257.62 914.3,-253.57 920.34,-257.51 914.38,-261.57 908.34,-257.62"/>
</g>
<!-- c17 -->
<g id="node13" class="node">
<title>c17</title>
<polygon fill="none" stroke="black" points="205.75,-109.5 205.75,-158.5 298,-158.5 298,-109.5 205.75,-109.5"/>
<text xml:space="preserve" text-anchor="middle" x="218.62" y="-141.2" font-family="Times,serif" font-size="14.00">A</text>
<polyline fill="none" stroke="black" points="205.75,-134 231.5,-134"/>
<text xml:space="preserve" text-anchor="middle" x="218.62" y="-116.7" font-family="Times,serif" font-size="14.00">B</text>
<polyline fill="none" stroke="black" points="231.5,-109.5 231.5,-158.5"/>
<text xml:space="preserve" text-anchor="middle" x="251.88" y="-137.2" font-family="Times,serif" font-size="14.00">$23</text>
<text xml:space="preserve" text-anchor="middle" x="251.88" y="-120.7" font-family="Times,serif" font-size="14.00">$xor</text>
<polyline fill="none" stroke="black" points="272.25,-109.5 272.25,-158.5"/>
<text xml:space="preserve" text-anchor="middle" x="285.12" y="-129.2" font-family="Times,serif" font-size="14.00">Y</text>
</g>
<!-- c17&#45;&gt;c18 -->
<g id="edge8" class="edge">
<title>c17:e&#45;&gt;c18:w</title>
<path fill="none" stroke="#d95f02" stroke-width="3" d="M298,-134.25C309.38,-134.25 314.68,-134.12 322.55,-134.05"/>
<polygon fill="#d95f02" stroke="#d95f02" stroke-width="3" points="319.48,-137.56 329.46,-134.02 319.44,-130.56 319.48,-137.56"/>
</g>
<!-- x3&#45;&gt;c17 -->
<g id="edge4" class="edge">
<title>x3:e&#45;&gt;c17:w</title>
<path fill="none" stroke="#7570b3" stroke-width="3" d="M182.54,-116.7C186.21,-117.73 189.36,-119.04 193.05,-120.07"/>
<polygon fill="none" stroke="#7570b3" stroke-width="3" points="184.33,-116.94 177.85,-120.11 172.43,-115.36 178.91,-112.18 184.33,-116.94"/>
<polygon fill="none" stroke="#7570b3" stroke-width="3" points="191.17,-119.82 197.65,-116.64 203.07,-121.4 196.6,-124.57 191.17,-119.82"/>
</g>
<!-- x4&#45;&gt;c17 -->
<g id="edge5" class="edge">
<title>x4:e&#45;&gt;c17:w</title>
<path fill="none" stroke="#e7298a" stroke-width="3" d="M174.22,-204.88C186.98,-193.54 180.9,-161.92 193.54,-150.46"/>
<polygon fill="none" stroke="#e7298a" stroke-width="3" points="176.05,-204.26 171.65,-209.98 164.68,-208.13 169.08,-202.41 176.05,-204.26"/>
<polygon fill="none" stroke="#e7298a" stroke-width="3" points="191.85,-151.05 196.22,-145.31 203.19,-147.13 198.83,-152.87 191.85,-151.05"/>
</g>
<!-- c18&#45;&gt;n4 -->
<g id="edge12" class="edge">
<title>c18:e&#45;&gt;n4:w</title>
<path fill="none" stroke="#e6ab02" d="M793.75,-152.5C806.54,-152.5 810.57,-160.86 818.7,-165.3"/>
<polygon fill="#e6ab02" stroke="#e6ab02" points="817.73,-168.67 828.28,-167.64 819.4,-161.87 817.73,-168.67"/>
</g>
<!-- x5 -->
<g id="node17" class="node">
<title>x5</title>
<path fill="none" stroke="#e7298a" d="M1133.37,-25C1133.37,-25 1171.87,-25 1171.87,-25 1177.87,-25 1183.87,-31 1183.87,-37 1183.87,-37 1183.87,-49 1183.87,-49 1183.87,-55 1177.87,-61 1171.87,-61 1171.87,-61 1133.37,-61 1133.37,-61 1127.37,-61 1121.37,-55 1121.37,-49 1121.37,-49 1121.37,-37 1121.37,-37 1121.37,-31 1127.37,-25 1133.37,-25"/>
<text xml:space="preserve" text-anchor="middle" x="1152.62" y="-38.2" font-family="Times,serif" font-size="14.00" fill="#e7298a">6:0 &#45; 6:0</text>
</g>
<!-- c18&#45;&gt;x5 -->
<g id="edge6" class="edge">
<title>c18:e&#45;&gt;x5:w</title>
<path fill="none" stroke="#e7298a" stroke-width="3" d="M806.52,-115.82C940.13,-111.91 973.96,-47.11 1107.56,-43.19"/>
<polygon fill="none" stroke="#e7298a" stroke-width="3" points="808.45,-115.79 802.51,-119.87 796.45,-115.96 802.4,-111.87 808.45,-115.79"/>
<polygon fill="none" stroke="#e7298a" stroke-width="3" points="1105.66,-43.21 1111.61,-39.13 1117.66,-43.04 1111.72,-47.13 1105.66,-43.21"/>
</g>
<!-- x5&#45;&gt;n6 -->
<g id="edge17" class="edge">
<title>x5:e&#45;&gt;n6:w</title>
<path fill="none" stroke="#d95f02" stroke-width="3" d="M1184.87,-43.25C1317.16,-43.25 1350.34,-32.88 1482.49,-39 1502.2,-39.91 1509.64,-42.69 1524.96,-43.66"/>
<polygon fill="#d95f02" stroke="#d95f02" stroke-width="3" points="1521.73,-47.07 1531.83,-43.87 1521.93,-40.07 1521.73,-47.07"/>
</g>
<!-- x6&#45;&gt;c18 -->
<g id="edge7" class="edge">
<title>x6:e&#45;&gt;c18:w</title>
<path fill="none" stroke="#7570b3" stroke-width="3" d="M296.77,-269.19C325.66,-253.49 292.38,-176.65 321.54,-161.21"/>
<polygon fill="none" stroke="#7570b3" stroke-width="3" points="298.48,-268.81 293.49,-274.02 286.76,-271.41 291.76,-266.21 298.48,-268.81"/>
<polygon fill="none" stroke="#7570b3" stroke-width="3" points="319.63,-161.62 324.64,-156.44 331.36,-159.07 326.34,-164.26 319.63,-161.62"/>
</g>
<!-- c19&#45;&gt;n5 -->
<g id="edge15" class="edge">
<title>c19:e&#45;&gt;n5:w</title>
<path fill="none" stroke="#e6ab02" d="M1610.74,-145.25C1622.12,-145.25 1627.43,-145.12 1635.3,-145.05"/>
<polygon fill="#e6ab02" stroke="#e6ab02" points="1635.24,-148.55 1645.23,-145.01 1635.21,-141.55 1635.24,-148.55"/>
</g>
</g>
</svg>
