<svg xmlns="http://www.w3.org/2000/svg" xmlns:xlink="http://www.w3.org/1999/xlink" xmlns:s="https://github.com/nturley/netlistsvg" width="786" height="876.5">
  <style>svg {
    stroke:#000;
    fill:none;
  }
  text {
    fill:#000;
    stroke:none;
    font-size:10px;
    font-weight: bold;
    font-family: "Courier New", monospace;
  }
  .nodelabel {
    text-anchor: middle;
  }
  .inputPortLabel {
    text-anchor: end;
  }
  .splitjoinBody {
    fill:#000;
  }</style>
  <g s:type="and" transform="translate(554,545.5)" s:width="30" s:height="25" id="cell_$auto$simplemap.cc:106:simplemap_bitop$135">
    <s:alias val="$and"/>
    <s:alias val="$logic_and"/>
    <s:alias val="$_AND_"/>
    <path d="M0,0 L0,25 L15,25 A15 12.5 0 0 0 15,0 Z" class="cell_$auto$simplemap.cc:106:simplemap_bitop$135"/>
    <g s:x="0" s:y="5" s:pid="A"/>
    <g s:x="0" s:y="20" s:pid="B"/>
    <g s:x="30" s:y="12.5" s:pid="Y"/>
  </g>
  <g s:type="and" transform="translate(554,606.5)" s:width="30" s:height="25" id="cell_$auto$simplemap.cc:106:simplemap_bitop$145">
    <s:alias val="$and"/>
    <s:alias val="$logic_and"/>
    <s:alias val="$_AND_"/>
    <path d="M0,0 L0,25 L15,25 A15 12.5 0 0 0 15,0 Z" class="cell_$auto$simplemap.cc:106:simplemap_bitop$145"/>
    <g s:x="0" s:y="5" s:pid="A"/>
    <g s:x="0" s:y="20" s:pid="B"/>
    <g s:x="30" s:y="12.5" s:pid="Y"/>
  </g>
  <g s:type="or" transform="translate(399,553)" s:width="30" s:height="25" id="cell_$auto$simplemap.cc:157:simplemap_reduce$133">
    <s:alias val="$or"/>
    <s:alias val="$logic_or"/>
    <s:alias val="$_OR_"/>
    <path d="M0,25 L0,25 L15,25 A15 12.5 0 0 0 15,0 L0,0" class="cell_$auto$simplemap.cc:157:simplemap_reduce$133"/>
    <path d="M0,0 A30 25 0 0 1 0,25" class="cell_$auto$simplemap.cc:157:simplemap_reduce$133"/>
    <g s:x="3" s:y="5" s:pid="A"/>
    <g s:x="3" s:y="20" s:pid="B"/>
    <g s:x="30" s:y="12.5" s:pid="Y"/>
  </g>
  <g s:type="mux" transform="translate(634,636.5)" s:width="20" s:height="40" id="cell_$auto$simplemap.cc:298:simplemap_mux$141">
    <s:alias val="$pmux"/>
    <s:alias val="$mux"/>
    <s:alias val="$_MUX_"/>
    <path d="M0,0 L20,10 L20,30 L0,40 Z" class="cell_$auto$simplemap.cc:298:simplemap_mux$141"/>
    <g s:x="0" s:y="10" s:pid="A"/>
    <g s:x="0" s:y="30" s:pid="B"/>
    <g s:x="10" s:y="35" s:pid="S"/>
    <g s:x="20" s:y="20" s:pid="Y"/>
  </g>
  <g s:type="mux" transform="translate(634,569)" s:width="20" s:height="40" id="cell_$auto$simplemap.cc:298:simplemap_mux$150">
    <s:alias val="$pmux"/>
    <s:alias val="$mux"/>
    <s:alias val="$_MUX_"/>
    <path d="M0,0 L20,10 L20,30 L0,40 Z" class="cell_$auto$simplemap.cc:298:simplemap_mux$150"/>
    <g s:x="0" s:y="10" s:pid="A"/>
    <g s:x="0" s:y="30" s:pid="B"/>
    <g s:x="10" s:y="35" s:pid="S"/>
    <g s:x="20" s:y="20" s:pid="Y"/>
  </g>
  <g s:type="mux" transform="translate(689,718.5)" s:width="20" s:height="40" id="cell_$auto$simplemap.cc:298:simplemap_mux$151">
    <s:alias val="$pmux"/>
    <s:alias val="$mux"/>
    <s:alias val="$_MUX_"/>
    <path d="M0,0 L20,10 L20,30 L0,40 Z" class="cell_$auto$simplemap.cc:298:simplemap_mux$151"/>
    <g s:x="0" s:y="10" s:pid="A"/>
    <g s:x="0" s:y="30" s:pid="B"/>
    <g s:x="10" s:y="35" s:pid="S"/>
    <g s:x="20" s:y="20" s:pid="Y"/>
  </g>
  <g s:type="mux" transform="translate(634,324)" s:width="20" s:height="40" id="cell_$auto$simplemap.cc:298:simplemap_mux$155">
    <s:alias val="$pmux"/>
    <s:alias val="$mux"/>
    <s:alias val="$_MUX_"/>
    <path d="M0,0 L20,10 L20,30 L0,40 Z" class="cell_$auto$simplemap.cc:298:simplemap_mux$155"/>
    <g s:x="0" s:y="10" s:pid="A"/>
    <g s:x="0" s:y="30" s:pid="B"/>
    <g s:x="10" s:y="35" s:pid="S"/>
    <g s:x="20" s:y="20" s:pid="Y"/>
  </g>
  <g s:type="mux" transform="translate(689,579)" s:width="20" s:height="40" id="cell_$auto$simplemap.cc:298:simplemap_mux$156">
    <s:alias val="$pmux"/>
    <s:alias val="$mux"/>
    <s:alias val="$_MUX_"/>
    <path d="M0,0 L20,10 L20,30 L0,40 Z" class="cell_$auto$simplemap.cc:298:simplemap_mux$156"/>
    <g s:x="0" s:y="10" s:pid="A"/>
    <g s:x="0" s:y="30" s:pid="B"/>
    <g s:x="10" s:y="35" s:pid="S"/>
    <g s:x="20" s:y="20" s:pid="Y"/>
  </g>
  <g s:type="mux" transform="translate(744,728.5)" s:width="20" s:height="40" id="cell_$auto$simplemap.cc:298:simplemap_mux$157">
    <s:alias val="$pmux"/>
    <s:alias val="$mux"/>
    <s:alias val="$_MUX_"/>
    <path d="M0,0 L20,10 L20,30 L0,40 Z" class="cell_$auto$simplemap.cc:298:simplemap_mux$157"/>
    <g s:x="0" s:y="10" s:pid="A"/>
    <g s:x="0" s:y="30" s:pid="B"/>
    <g s:x="10" s:y="35" s:pid="S"/>
    <g s:x="20" s:y="20" s:pid="Y"/>
  </g>
  <g s:type="mux" transform="translate(494,244)" s:width="20" s:height="40" id="cell_$auto$simplemap.cc:298:simplemap_mux$160">
    <s:alias val="$pmux"/>
    <s:alias val="$mux"/>
    <s:alias val="$_MUX_"/>
    <path d="M0,0 L20,10 L20,30 L0,40 Z" class="cell_$auto$simplemap.cc:298:simplemap_mux$160"/>
    <g s:x="0" s:y="10" s:pid="A"/>
    <g s:x="0" s:y="30" s:pid="B"/>
    <g s:x="10" s:y="35" s:pid="S"/>
    <g s:x="20" s:y="20" s:pid="Y"/>
  </g>
  <g s:type="mux" transform="translate(689,334)" s:width="20" s:height="40" id="cell_$auto$simplemap.cc:298:simplemap_mux$161">
    <s:alias val="$pmux"/>
    <s:alias val="$mux"/>
    <s:alias val="$_MUX_"/>
    <path d="M0,0 L20,10 L20,30 L0,40 Z" class="cell_$auto$simplemap.cc:298:simplemap_mux$161"/>
    <g s:x="0" s:y="10" s:pid="A"/>
    <g s:x="0" s:y="30" s:pid="B"/>
    <g s:x="10" s:y="35" s:pid="S"/>
    <g s:x="20" s:y="20" s:pid="Y"/>
  </g>
  <g s:type="mux" transform="translate(744,589)" s:width="20" s:height="40" id="cell_$auto$simplemap.cc:298:simplemap_mux$162">
    <s:alias val="$pmux"/>
    <s:alias val="$mux"/>
    <s:alias val="$_MUX_"/>
    <path d="M0,0 L20,10 L20,30 L0,40 Z" class="cell_$auto$simplemap.cc:298:simplemap_mux$162"/>
    <g s:x="0" s:y="10" s:pid="A"/>
    <g s:x="0" s:y="30" s:pid="B"/>
    <g s:x="10" s:y="35" s:pid="S"/>
    <g s:x="20" s:y="20" s:pid="Y"/>
  </g>
  <g s:type="mux" transform="translate(559,194)" s:width="20" s:height="40" id="cell_$auto$simplemap.cc:298:simplemap_mux$164">
    <s:alias val="$pmux"/>
    <s:alias val="$mux"/>
    <s:alias val="$_MUX_"/>
    <path d="M0,0 L20,10 L20,30 L0,40 Z" class="cell_$auto$simplemap.cc:298:simplemap_mux$164"/>
    <g s:x="0" s:y="10" s:pid="A"/>
    <g s:x="0" s:y="30" s:pid="B"/>
    <g s:x="10" s:y="35" s:pid="S"/>
    <g s:x="20" s:y="20" s:pid="Y"/>
  </g>
  <g s:type="mux" transform="translate(559,254)" s:width="20" s:height="40" id="cell_$auto$simplemap.cc:298:simplemap_mux$165">
    <s:alias val="$pmux"/>
    <s:alias val="$mux"/>
    <s:alias val="$_MUX_"/>
    <path d="M0,0 L20,10 L20,30 L0,40 Z" class="cell_$auto$simplemap.cc:298:simplemap_mux$165"/>
    <g s:x="0" s:y="10" s:pid="A"/>
    <g s:x="0" s:y="30" s:pid="B"/>
    <g s:x="10" s:y="35" s:pid="S"/>
    <g s:x="20" s:y="20" s:pid="Y"/>
  </g>
  <g s:type="mux" transform="translate(744,344)" s:width="20" s:height="40" id="cell_$auto$simplemap.cc:298:simplemap_mux$166">
    <s:alias val="$pmux"/>
    <s:alias val="$mux"/>
    <s:alias val="$_MUX_"/>
    <path d="M0,0 L20,10 L20,30 L0,40 Z" class="cell_$auto$simplemap.cc:298:simplemap_mux$166"/>
    <g s:x="0" s:y="10" s:pid="A"/>
    <g s:x="0" s:y="30" s:pid="B"/>
    <g s:x="10" s:y="35" s:pid="S"/>
    <g s:x="20" s:y="20" s:pid="Y"/>
  </g>
  <g s:type="mux" transform="translate(634,144)" s:width="20" s:height="40" id="cell_$auto$simplemap.cc:298:simplemap_mux$170">
    <s:alias val="$pmux"/>
    <s:alias val="$mux"/>
    <s:alias val="$_MUX_"/>
    <path d="M0,0 L20,10 L20,30 L0,40 Z" class="cell_$auto$simplemap.cc:298:simplemap_mux$170"/>
    <g s:x="0" s:y="10" s:pid="A"/>
    <g s:x="0" s:y="30" s:pid="B"/>
    <g s:x="10" s:y="35" s:pid="S"/>
    <g s:x="20" s:y="20" s:pid="Y"/>
  </g>
  <g s:type="mux" transform="translate(634,204)" s:width="20" s:height="40" id="cell_$auto$simplemap.cc:298:simplemap_mux$171">
    <s:alias val="$pmux"/>
    <s:alias val="$mux"/>
    <s:alias val="$_MUX_"/>
    <path d="M0,0 L20,10 L20,30 L0,40 Z" class="cell_$auto$simplemap.cc:298:simplemap_mux$171"/>
    <g s:x="0" s:y="10" s:pid="A"/>
    <g s:x="0" s:y="30" s:pid="B"/>
    <g s:x="10" s:y="35" s:pid="S"/>
    <g s:x="20" s:y="20" s:pid="Y"/>
  </g>
  <g s:type="mux" transform="translate(634,264)" s:width="20" s:height="40" id="cell_$auto$simplemap.cc:298:simplemap_mux$172">
    <s:alias val="$pmux"/>
    <s:alias val="$mux"/>
    <s:alias val="$_MUX_"/>
    <path d="M0,0 L20,10 L20,30 L0,40 Z" class="cell_$auto$simplemap.cc:298:simplemap_mux$172"/>
    <g s:x="0" s:y="10" s:pid="A"/>
    <g s:x="0" s:y="30" s:pid="B"/>
    <g s:x="10" s:y="35" s:pid="S"/>
    <g s:x="20" s:y="20" s:pid="Y"/>
  </g>
  <g s:type="not" transform="translate(489,555.5)" s:width="30" s:height="20" id="cell_$auto$simplemap.cc:46:simplemap_not$134">
    <s:alias val="$_NOT_"/>
    <s:alias val="$not"/>
    <s:alias val="$logic_not"/>
    <path d="M0,0 L0,20 L20,10 Z" class="cell_$auto$simplemap.cc:46:simplemap_not$134"/>
    <circle cx="23" cy="10" r="3" class="cell_$auto$simplemap.cc:46:simplemap_not$134"/>
    <g s:x="0" s:y="10" s:pid="A"/>
    <g s:x="25" s:y="10" s:pid="Y"/>
  </g>
  <g s:type="not" transform="translate(744,844.5)" s:width="30" s:height="20" id="cell_$auto$simplemap.cc:46:simplemap_not$142">
    <s:alias val="$_NOT_"/>
    <s:alias val="$not"/>
    <s:alias val="$logic_not"/>
    <path d="M0,0 L0,20 L20,10 Z" class="cell_$auto$simplemap.cc:46:simplemap_not$142"/>
    <circle cx="23" cy="10" r="3" class="cell_$auto$simplemap.cc:46:simplemap_not$142"/>
    <g s:x="0" s:y="10" s:pid="A"/>
    <g s:x="25" s:y="10" s:pid="Y"/>
  </g>
  <g s:type="not" transform="translate(744,789.5)" s:width="30" s:height="20" id="cell_$auto$simplemap.cc:46:simplemap_not$168">
    <s:alias val="$_NOT_"/>
    <s:alias val="$not"/>
    <s:alias val="$logic_not"/>
    <path d="M0,0 L0,20 L20,10 Z" class="cell_$auto$simplemap.cc:46:simplemap_not$168"/>
    <circle cx="23" cy="10" r="3" class="cell_$auto$simplemap.cc:46:simplemap_not$168"/>
    <g s:x="0" s:y="10" s:pid="A"/>
    <g s:x="25" s:y="10" s:pid="Y"/>
  </g>
  <g s:type="not" transform="translate(489,616.5)" s:width="30" s:height="20" id="cell_$auto$simplemap.cc:46:simplemap_not$169">
    <s:alias val="$_NOT_"/>
    <s:alias val="$not"/>
    <s:alias val="$logic_not"/>
    <path d="M0,0 L0,20 L20,10 Z" class="cell_$auto$simplemap.cc:46:simplemap_not$169"/>
    <circle cx="23" cy="10" r="3" class="cell_$auto$simplemap.cc:46:simplemap_not$169"/>
    <g s:x="0" s:y="10" s:pid="A"/>
    <g s:x="25" s:y="10" s:pid="Y"/>
  </g>
  <g s:type="generic" transform="translate(12,22)" s:width="30" s:height="40" id="cell_sub0">
    <text x="15" y="-4" class="nodelabel cell_sub0" s:attribute="ref">Adder1</text>
    <rect width="30" height="0" s:generic="body" class="cell_sub0"/>
  </g>
  <g s:type="generic" transform="translate(54,22)" s:width="30" s:height="40" id="cell_sub1">
    <text x="15" y="-4" class="nodelabel cell_sub1" s:attribute="ref">Adder1</text>
    <rect width="30" height="0" s:generic="body" class="cell_sub1"/>
  </g>
  <g s:type="generic" transform="translate(96,22)" s:width="30" s:height="40" id="cell_sub2">
    <text x="15" y="-4" class="nodelabel cell_sub2" s:attribute="ref">Adder1</text>
    <rect width="30" height="0" s:generic="body" class="cell_sub2"/>
  </g>
  <g s:type="generic" transform="translate(138,22)" s:width="30" s:height="40" id="cell_sub3">
    <text x="15" y="-4" class="nodelabel cell_sub3" s:attribute="ref">Adder1</text>
    <rect width="30" height="0" s:generic="body" class="cell_sub3"/>
  </g>
  <g s:type="generic" transform="translate(180,22)" s:width="30" s:height="40" id="cell_sub4">
    <text x="15" y="-4" class="nodelabel cell_sub4" s:attribute="ref">Adder1</text>
    <rect width="30" height="0" s:generic="body" class="cell_sub4"/>
  </g>
  <g s:type="generic" transform="translate(222,22)" s:width="30" s:height="40" id="cell_sub5">
    <text x="15" y="-4" class="nodelabel cell_sub5" s:attribute="ref">Adder1</text>
    <rect width="30" height="0" s:generic="body" class="cell_sub5"/>
  </g>
  <g s:type="inputExt" transform="translate(329,34.5)" s:width="30" s:height="20" id="cell_y">
    <text x="15" y="-4" class="nodelabel cell_y" s:attribute="ref">y</text>
    <s:alias val="$_inputExt_"/>
    <path d="M0,0 L0,20 L15,20 L30,10 L15,0 Z" class="cell_y"/>
    <g s:x="28" s:y="10" s:pid="Y"/>
  </g>
  <g s:type="inputExt" transform="translate(264,606.5)" s:width="30" s:height="20" id="cell_x">
    <text x="15" y="-4" class="nodelabel cell_x" s:attribute="ref">x</text>
    <s:alias val="$_inputExt_"/>
    <path d="M0,0 L0,20 L15,20 L30,10 L15,0 Z" class="cell_x"/>
    <g s:x="28" s:y="10" s:pid="Y"/>
  </g>
  <g s:type="outputExt" transform="translate(744,438.5)" s:width="30" s:height="20" id="cell_q">
    <text x="15" y="-4" class="nodelabel cell_q" s:attribute="ref">q</text>
    <s:alias val="$_outputExt_"/>
    <path d="M30,0 L30,20 L15,20 L0,10 L15,0 Z" class="cell_q"/>
    <g s:x="0" s:y="10" s:pid="A"/>
  </g>
  <g s:type="outputExt" transform="translate(744,244)" s:width="30" s:height="20" id="cell_r">
    <text x="15" y="-4" class="nodelabel cell_r" s:attribute="ref">r</text>
    <s:alias val="$_outputExt_"/>
    <path d="M30,0 L30,20 L15,20 L0,10 L15,0 Z" class="cell_r"/>
    <g s:x="0" s:y="10" s:pid="A"/>
  </g>
  <g s:type="join" transform="translate(696.4,428)" s:width="4" s:height="40" id="cell_$join$,11,12,13,14,15,16,">
    <rect width="5" height="120" class="splitjoinBody" s:generic="body"/>
    <s:alias val="$_join_"/>
    <g s:x="5" s:y="20" s:pid="out"/>
    <g transform="translate(0,10)" s:x="0" s:y="10" s:pid="in0">
      <text x="-3" y="-4" class="inputPortLabel">0</text>
    </g>
    <g transform="translate(0,30)" s:x="0" s:y="10" s:pid="in0">
      <text x="-3" y="-4" class="inputPortLabel">1</text>
    </g>
    <g transform="translate(0,50)" s:x="0" s:y="10" s:pid="in0">
      <text x="-3" y="-4" class="inputPortLabel">2</text>
    </g>
    <g transform="translate(0,70)" s:x="0" s:y="10" s:pid="in0">
      <text x="-3" y="-4" class="inputPortLabel">3</text>
    </g>
    <g transform="translate(0,90)" s:x="0" s:y="10" s:pid="in0">
      <text x="-3" y="-4" class="inputPortLabel">4</text>
    </g>
    <g transform="translate(0,110)" s:x="0" s:y="10" s:pid="in0">
      <text x="-3" y="-4" class="inputPortLabel">5</text>
    </g>
  </g>
  <g s:type="join" transform="translate(696.5,233.5)" s:width="4" s:height="40" id="cell_$join$,17,18,19,">
    <rect width="5" height="60" class="splitjoinBody" s:generic="body"/>
    <s:alias val="$_join_"/>
    <g s:x="5" s:y="20" s:pid="out"/>
    <g transform="translate(0,10)" s:x="0" s:y="10" s:pid="in0">
      <text x="-3" y="-4" class="inputPortLabel">0</text>
    </g>
    <g transform="translate(0,30)" s:x="0" s:y="10" s:pid="in0">
      <text x="-3" y="-4" class="inputPortLabel">1</text>
    </g>
    <g transform="translate(0,50)" s:x="0" s:y="10" s:pid="in0">
      <text x="-3" y="-4" class="inputPortLabel">2</text>
    </g>
  </g>
  <g s:type="split" transform="translate(344.25,596)" s:width="5" s:height="40" id="cell_$split$,8,9,10,">
    <rect width="5" height="60" class="splitjoinBody" s:generic="body"/>
    <s:alias val="$_split_"/>
    <g s:x="0" s:y="20" s:pid="in"/>
    <g transform="translate(4,10)" s:x="4" s:y="10" s:pid="out0">
      <text x="5" y="-4">1</text>
    </g>
    <g transform="translate(4,30)" s:x="4" s:y="10" s:pid="out0">
      <text x="5" y="-4">2</text>
    </g>
    <g transform="translate(4,50)" s:x="4" s:y="10" s:pid="out0">
      <text x="5" y="-4">0</text>
    </g>
  </g>
  <g s:type="split" transform="translate(414.8,24)" s:width="5" s:height="40" id="cell_$split$,2,3,4,5,6,7,">
    <rect width="5" height="120" class="splitjoinBody" s:generic="body"/>
    <s:alias val="$_split_"/>
    <g s:x="0" s:y="20" s:pid="in"/>
    <g transform="translate(4,10)" s:x="4" s:y="10" s:pid="out0">
      <text x="5" y="-4">5</text>
    </g>
    <g transform="translate(4,30)" s:x="4" s:y="10" s:pid="out0">
      <text x="5" y="-4">4</text>
    </g>
    <g transform="translate(4,50)" s:x="4" s:y="10" s:pid="out0">
      <text x="5" y="-4">3</text>
    </g>
    <g transform="translate(4,70)" s:x="4" s:y="10" s:pid="out0">
      <text x="5" y="-4">2</text>
    </g>
    <g transform="translate(4,90)" s:x="4" s:y="10" s:pid="out0">
      <text x="5" y="-4">1</text>
    </g>
    <g transform="translate(4,110)" s:x="4" s:y="10" s:pid="out0">
      <text x="5" y="-4">0</text>
    </g>
  </g>
  <line x1="514" x2="554" y1="565.5" y2="565.5" class="net_21"/>
  <line x1="514" x2="554" y1="626.5" y2="626.5" class="net_23"/>
  <line x1="349.25" x2="379" y1="606.5" y2="606.5" class="net_9"/>
  <line x1="379" x2="379" y1="606.5" y2="558" class="net_9"/>
  <circle cx="379" cy="606.5" r="2" style="fill:#000" class="net_9"/>
  <line x1="379" x2="402" y1="558" y2="558" class="net_9"/>
  <line x1="349.25" x2="379" y1="606.5" y2="606.5" class="net_9"/>
  <line x1="379" x2="379" y1="606.5" y2="799.5" class="net_9"/>
  <line x1="379" x2="744" y1="799.5" y2="799.5" class="net_9"/>
  <line x1="349.25" x2="389" y1="626.5" y2="626.5" class="net_10"/>
  <line x1="389" x2="389" y1="626.5" y2="573" class="net_10"/>
  <circle cx="389" cy="626.5" r="2" style="fill:#000" class="net_10"/>
  <line x1="389" x2="402" y1="573" y2="573" class="net_10"/>
  <line x1="349.25" x2="489" y1="626.5" y2="626.5" class="net_10"/>
  <line x1="419.3" x2="419.3" y1="34" y2="12" class="net_7"/>
  <line x1="419.3" x2="479" y1="12" y2="12" class="net_7"/>
  <line x1="479" x2="479" y1="12" y2="646.5" class="net_7"/>
  <line x1="479" x2="634" y1="646.5" y2="646.5" class="net_7"/>
  <line x1="584" x2="614" y1="558" y2="558" class="net_16"/>
  <line x1="614" x2="614" y1="558" y2="686.5" class="net_16"/>
  <line x1="614" x2="644" y1="686.5" y2="686.5" class="net_16"/>
  <circle cx="614" cy="558" r="2" style="fill:#000" class="net_16"/>
  <line x1="644" x2="644" y1="686.5" y2="671.5" class="net_16"/>
  <line x1="584" x2="696.9" y1="558" y2="558" class="net_16"/>
  <line x1="696.9" x2="696.9" y1="558" y2="539" class="net_16"/>
  <line x1="419.8" x2="469" y1="54.5" y2="54.5" class="net_6"/>
  <line x1="469" x2="469" y1="54.5" y2="534.5" class="net_6"/>
  <line x1="469" x2="624" y1="534.5" y2="534.5" class="net_6"/>
  <line x1="624" x2="624" y1="534.5" y2="579" class="net_6"/>
  <line x1="624" x2="634" y1="579" y2="579" class="net_6"/>
  <line x1="584" x2="644" y1="619" y2="619" class="net_15"/>
  <line x1="644" x2="644" y1="619" y2="604" class="net_15"/>
  <line x1="584" x2="604" y1="619" y2="619" class="net_15"/>
  <line x1="604" x2="604" y1="619" y2="768.5" class="net_15"/>
  <line x1="604" x2="699" y1="768.5" y2="768.5" class="net_15"/>
  <circle cx="604" cy="619" r="2" style="fill:#000" class="net_15"/>
  <line x1="699" x2="699" y1="768.5" y2="753.5" class="net_15"/>
  <line x1="584" x2="604" y1="619" y2="619" class="net_15"/>
  <line x1="604" x2="604" y1="619" y2="518.5" class="net_15"/>
  <line x1="604" x2="696.4" y1="518.5" y2="518.5" class="net_15"/>
  <line x1="654" x2="664" y1="656.5" y2="656.5" class="net_26"/>
  <line x1="664" x2="664" y1="656.5" y2="728.5" class="net_26"/>
  <line x1="664" x2="689" y1="728.5" y2="728.5" class="net_26"/>
  <line x1="419.8" x2="459" y1="74.5" y2="74.5" class="net_5"/>
  <line x1="459" x2="459" y1="74.5" y2="334" class="net_5"/>
  <line x1="459" x2="634" y1="334" y2="334" class="net_5"/>
  <line x1="594" x2="594" y1="498.5" y2="384" class="net_14"/>
  <line x1="594" x2="644" y1="384" y2="384" class="net_14"/>
  <circle cx="594" cy="498.5" r="2" style="fill:#000" class="net_14"/>
  <line x1="644" x2="644" y1="384" y2="359" class="net_14"/>
  <line x1="594" x2="594" y1="498.5" y2="696.5" class="net_14"/>
  <line x1="594" x2="699" y1="696.5" y2="696.5" class="net_14"/>
  <circle cx="594" cy="696.5" r="2" style="fill:#000" class="net_14"/>
  <line x1="699" x2="699" y1="696.5" y2="614" class="net_14"/>
  <line x1="594" x2="594" y1="498.5" y2="779.5" class="net_14"/>
  <line x1="594" x2="754" y1="779.5" y2="779.5" class="net_14"/>
  <line x1="754" x2="754" y1="779.5" y2="763.5" class="net_14"/>
  <line x1="594" x2="696.4" y1="498.5" y2="498.5" class="net_14"/>
  <line x1="654" x2="689" y1="589" y2="589" class="net_28"/>
  <line x1="709" x2="744" y1="738.5" y2="738.5" class="net_30"/>
  <line x1="419.8" x2="449" y1="94.5" y2="94.5" class="net_4"/>
  <line x1="449" x2="449" y1="94.5" y2="254" class="net_4"/>
  <line x1="449" x2="494" y1="254" y2="254" class="net_4"/>
  <line x1="439" x2="439" y1="478.5" y2="384" class="net_13"/>
  <line x1="439" x2="504" y1="384" y2="384" class="net_13"/>
  <circle cx="439" cy="478.5" r="2" style="fill:#000" class="net_13"/>
  <line x1="504" x2="504" y1="384" y2="279" class="net_13"/>
  <line x1="439" x2="529" y1="478.5" y2="405" class="net_13"/>
  <line x1="529" x2="699" y1="405" y2="405" class="net_13"/>
  <circle cx="529" cy="478.5" r="2" style="fill:#000" class="net_13"/>
  <line x1="699" x2="699" y1="405" y2="369" class="net_13"/>
  <line x1="439" x2="439" y1="478.5" y2="707.5" class="net_13"/>
  <line x1="439" x2="754" y1="707.5" y2="707.5" class="net_13"/>
  <line x1="754" x2="754" y1="707.5" y2="624" class="net_13"/>
  <line x1="439" x2="696.4" y1="478.5" y2="478.5" class="net_13"/>
  <line x1="654" x2="689" y1="344" y2="344" class="net_32"/>
  <line x1="709" x2="744" y1="599" y2="599" class="net_34"/>
  <line x1="419.8" x2="439" y1="114.5" y2="114.5" class="net_3"/>
  <line x1="439" x2="439" y1="114.5" y2="204" class="net_3"/>
  <line x1="439" x2="559" y1="204" y2="204" class="net_3"/>
  <line x1="539" x2="539" y1="394" y2="244" class="net_12"/>
  <line x1="539" x2="569" y1="244" y2="244" class="net_12"/>
  <circle cx="539" cy="394" r="2" style="fill:#000" class="net_12"/>
  <line x1="569" x2="569" y1="244" y2="229" class="net_12"/>
  <line x1="539" x2="539" y1="394" y2="304" class="net_12"/>
  <line x1="539" x2="569" y1="304" y2="304" class="net_12"/>
  <circle cx="539" cy="304" r="2" style="fill:#000" class="net_12"/>
  <line x1="569" x2="569" y1="304" y2="289" class="net_12"/>
  <line x1="539" x2="754" y1="394" y2="379" class="net_12"/>
  <line x1="539" x2="539" y1="394" y2="458.5" class="net_12"/>
  <line x1="539" x2="696.4" y1="458.5" y2="458.5" class="net_12"/>
  <line x1="514" x2="559" y1="264" y2="264" class="net_38"/>
  <line x1="709" x2="744" y1="354" y2="354" class="net_40"/>
  <line x1="419.3" x2="419.3" y1="135" y2="154" class="net_2"/>
  <line x1="419.3" x2="634" y1="154" y2="154" class="net_2"/>
  <line x1="604" x2="604" y1="314" y2="194" class="net_11"/>
  <line x1="604" x2="644" y1="194" y2="194" class="net_11"/>
  <circle cx="604" cy="314" r="2" style="fill:#000" class="net_11"/>
  <line x1="644" x2="644" y1="194" y2="179" class="net_11"/>
  <line x1="604" x2="604" y1="314" y2="254" class="net_11"/>
  <line x1="604" x2="644" y1="254" y2="254" class="net_11"/>
  <circle cx="604" cy="254" r="2" style="fill:#000" class="net_11"/>
  <line x1="644" x2="644" y1="254" y2="239" class="net_11"/>
  <line x1="604" x2="644" y1="314" y2="299" class="net_11"/>
  <line x1="604" x2="604" y1="314" y2="416" class="net_11"/>
  <line x1="604" x2="696.9" y1="416" y2="416" class="net_11"/>
  <line x1="696.9" x2="696.9" y1="416" y2="438" class="net_11"/>
  <line x1="579" x2="634" y1="214" y2="214" class="net_44"/>
  <line x1="579" x2="634" y1="274" y2="274" class="net_46"/>
  <line x1="429" x2="489" y1="565.5" y2="565.5" class="net_24"/>
  <line x1="349.25" x2="369" y1="646.5" y2="646.5" class="net_8"/>
  <line x1="369" x2="369" y1="646.5" y2="854.5" class="net_8"/>
  <line x1="369" x2="744" y1="854.5" y2="854.5" class="net_8"/>
  <line x1="702.4" x2="744" y1="448.5" y2="448.5" class="net_11,12,13,14,15,16"/>
  <line x1="702.5" x2="744" y1="254" y2="254" class="net_17,18,19"/>
  <line x1="654" x2="674" y1="164" y2="164" class="net_17"/>
  <line x1="674" x2="674" y1="164" y2="244" class="net_17"/>
  <line x1="674" x2="696.5" y1="244" y2="244" class="net_17"/>
  <line x1="654" x2="664" y1="224" y2="224" class="net_18"/>
  <line x1="664" x2="664" y1="224" y2="264" class="net_18"/>
  <line x1="664" x2="696.5" y1="264" y2="264" class="net_18"/>
  <line x1="654" x2="696.5" y1="284" y2="284" class="net_19"/>
  <line x1="292" x2="344.25" y1="616.5" y2="616.5" class="net_8,9,10"/>
  <line x1="357" x2="414.8" y1="44.5" y2="44.5" class="net_2,3,4,5,6,7"/>
</svg>
