<?xml version="1.0" encoding="UTF-8" standalone="no"?>
<!DOCTYPE svg PUBLIC "-//W3C//DTD SVG 1.1//EN"
 "http://www.w3.org/Graphics/SVG/1.1/DTD/svg11.dtd">
<!-- Generated by graphviz version 14.1.4 (20260321.0153)
 -->
<!-- Title: fulladder Pages: 1 -->
<svg width="754pt" height="205pt"
 viewBox="0.00 0.00 754.00 205.00" xmlns="http://www.w3.org/2000/svg" xmlns:xlink="http://www.w3.org/1999/xlink">
<g id="graph0" class="graph" transform="scale(1 1) rotate(0) translate(4 200.5)">
<title>fulladder</title>
<polygon fill="white" stroke="none" points="-4,4 -4,-200.5 750.47,-200.5 750.47,4 -4,4"/>
<text xml:space="preserve" text-anchor="middle" x="373.24" y="-7.2" font-family="Times,serif" font-size="14.00">fulladder</text>
<!-- n1 -->
<g id="node1" class="node">
<title>n1</title>
<polygon fill="none" stroke="black" points="503.25,-196.5 475.5,-178.5 503.25,-160.5 530.99,-178.5 503.25,-196.5"/>
<text xml:space="preserve" text-anchor="middle" x="503.25" y="-173.45" font-family="Times,serif" font-size="14.00">cp</text>
</g>
<!-- c12 -->
<g id="node9" class="node">
<title>c12</title>
<polygon fill="none" stroke="black" points="566.99,-104 566.99,-153 652.49,-153 652.49,-104 566.99,-104"/>
<text xml:space="preserve" text-anchor="middle" x="579.87" y="-135.7" font-family="Times,serif" font-size="14.00">A</text>
<polyline fill="none" stroke="black" points="566.99,-128.5 592.74,-128.5"/>
<text xml:space="preserve" text-anchor="middle" x="579.87" y="-111.2" font-family="Times,serif" font-size="14.00">B</text>
<polyline fill="none" stroke="black" points="592.74,-104 592.74,-153"/>
<text xml:space="preserve" text-anchor="middle" x="609.74" y="-131.7" font-family="Times,serif" font-size="14.00">$3</text>
<text xml:space="preserve" text-anchor="middle" x="609.74" y="-115.2" font-family="Times,serif" font-size="14.00">$or</text>
<polyline fill="none" stroke="black" points="626.74,-104 626.74,-153"/>
<text xml:space="preserve" text-anchor="middle" x="639.62" y="-123.7" font-family="Times,serif" font-size="14.00">Y</text>
</g>
<!-- n1&#45;&gt;c12 -->
<g id="edge2" class="edge">
<title>n1:e&#45;&gt;c12:w</title>
<path fill="none" stroke="#66a61e" d="M530.99,-178.5C549.47,-178.5 546.64,-154.53 556.45,-144.79"/>
<polygon fill="#66a61e" stroke="#66a61e" points="557.49,-148.14 565.58,-141.29 554.99,-141.6 557.49,-148.14"/>
</g>
<!-- n2 -->
<g id="node2" class="node">
<title>n2</title>
<polygon fill="none" stroke="black" points="383.62,-96.5 356.62,-78.5 383.62,-60.5 410.62,-78.5 383.62,-96.5"/>
<text xml:space="preserve" text-anchor="middle" x="383.62" y="-73.45" font-family="Times,serif" font-size="14.00">g</text>
</g>
<!-- n2&#45;&gt;c12 -->
<g id="edge4" class="edge">
<title>n2:e&#45;&gt;c12:w</title>
<path fill="none" stroke="#1b9e77" d="M412.44,-78.5C465.8,-78.5 480.33,-80.74 530.99,-97.5 543.7,-101.71 547.44,-110 555.9,-113.99"/>
<polygon fill="#1b9e77" stroke="#1b9e77" points="555.01,-117.38 565.51,-115.95 556.41,-110.52 555.01,-117.38"/>
</g>
<!-- n3 -->
<g id="node3" class="node">
<title>n3</title>
<polygon fill="none" stroke="black" points="264.75,-64.5 237.75,-46.5 264.75,-28.5 291.75,-46.5 264.75,-64.5"/>
<text xml:space="preserve" text-anchor="middle" x="264.75" y="-41.45" font-family="Times,serif" font-size="14.00">p</text>
</g>
<!-- c14 -->
<g id="node10" class="node">
<title>c14</title>
<polygon fill="none" stroke="black" points="327.75,-115 327.75,-164 439.5,-164 439.5,-115 327.75,-115"/>
<text xml:space="preserve" text-anchor="middle" x="339.12" y="-146.7" font-family="Times,serif" font-size="14.00">a</text>
<polyline fill="none" stroke="black" points="327.75,-139.5 350.5,-139.5"/>
<text xml:space="preserve" text-anchor="middle" x="339.12" y="-122.2" font-family="Times,serif" font-size="14.00">b</text>
<polyline fill="none" stroke="black" points="350.5,-115 350.5,-164"/>
<text xml:space="preserve" text-anchor="middle" x="384" y="-142.7" font-family="Times,serif" font-size="14.00">ha2</text>
<text xml:space="preserve" text-anchor="middle" x="384" y="-126.2" font-family="Times,serif" font-size="14.00">halfadder</text>
<polyline fill="none" stroke="black" points="417.5,-115 417.5,-164"/>
<text xml:space="preserve" text-anchor="middle" x="428.5" y="-146.7" font-family="Times,serif" font-size="14.00">c</text>
<polyline fill="none" stroke="black" points="417.5,-139.5 439.5,-139.5"/>
<text xml:space="preserve" text-anchor="middle" x="428.5" y="-122.2" font-family="Times,serif" font-size="14.00">s</text>
</g>
<!-- n3&#45;&gt;c14 -->
<g id="edge6" class="edge">
<title>n3:e&#45;&gt;c14:w</title>
<path fill="none" stroke="#1b9e77" d="M291.75,-46.5C326.29,-46.5 297.57,-108.88 316.79,-123.98"/>
<polygon fill="#1b9e77" stroke="#1b9e77" points="315.72,-127.32 326.3,-126.82 317.71,-120.61 315.72,-127.32"/>
</g>
<!-- n4 -->
<g id="node4" class="node">
<title>n4</title>
<polygon fill="none" stroke="black" points="746.47,-121.04 746.47,-135.96 729.49,-146.5 705.47,-146.5 688.49,-135.96 688.49,-121.04 705.47,-110.5 729.49,-110.5 746.47,-121.04"/>
<text xml:space="preserve" text-anchor="middle" x="717.48" y="-123.45" font-family="Times,serif" font-size="14.00">cout</text>
</g>
<!-- n5 -->
<g id="node5" class="node">
<title>n5</title>
<polygon fill="none" stroke="black" points="530.25,-117.04 530.25,-131.96 514.43,-142.5 492.06,-142.5 476.25,-131.96 476.25,-117.04 492.06,-106.5 514.43,-106.5 530.25,-117.04"/>
<text xml:space="preserve" text-anchor="middle" x="503.25" y="-119.45" font-family="Times,serif" font-size="14.00">s</text>
</g>
<!-- n6 -->
<g id="node6" class="node">
<title>n6</title>
<polygon fill="none" stroke="black" points="291.75,-144.04 291.75,-158.96 275.93,-169.5 253.57,-169.5 237.75,-158.96 237.75,-144.04 253.57,-133.5 275.93,-133.5 291.75,-144.04"/>
<text xml:space="preserve" text-anchor="middle" x="264.75" y="-146.45" font-family="Times,serif" font-size="14.00">cin</text>
</g>
<!-- n6&#45;&gt;c14 -->
<g id="edge9" class="edge">
<title>n6:e&#45;&gt;c14:w</title>
<path fill="none" stroke="#e7298a" d="M291.75,-151.5C303.13,-151.5 308.43,-151.63 316.3,-151.7"/>
<polygon fill="#e7298a" stroke="#e7298a" points="316.22,-155.2 326.24,-151.74 316.25,-148.2 316.22,-155.2"/>
</g>
<!-- n7 -->
<g id="node7" class="node">
<title>n7</title>
<polygon fill="none" stroke="black" points="54,-35.04 54,-49.96 38.18,-60.5 15.82,-60.5 0,-49.96 0,-35.04 15.82,-24.5 38.18,-24.5 54,-35.04"/>
<text xml:space="preserve" text-anchor="middle" x="27" y="-37.45" font-family="Times,serif" font-size="14.00">b</text>
</g>
<!-- c15 -->
<g id="node11" class="node">
<title>c15</title>
<polygon fill="none" stroke="black" points="90,-45 90,-94 201.75,-94 201.75,-45 90,-45"/>
<text xml:space="preserve" text-anchor="middle" x="101.38" y="-76.7" font-family="Times,serif" font-size="14.00">a</text>
<polyline fill="none" stroke="black" points="90,-69.5 112.75,-69.5"/>
<text xml:space="preserve" text-anchor="middle" x="101.38" y="-52.2" font-family="Times,serif" font-size="14.00">b</text>
<polyline fill="none" stroke="black" points="112.75,-45 112.75,-94"/>
<text xml:space="preserve" text-anchor="middle" x="146.25" y="-72.7" font-family="Times,serif" font-size="14.00">ha1</text>
<text xml:space="preserve" text-anchor="middle" x="146.25" y="-56.2" font-family="Times,serif" font-size="14.00">halfadder</text>
<polyline fill="none" stroke="black" points="179.75,-45 179.75,-94"/>
<text xml:space="preserve" text-anchor="middle" x="190.75" y="-76.7" font-family="Times,serif" font-size="14.00">c</text>
<polyline fill="none" stroke="black" points="179.75,-69.5 201.75,-69.5"/>
<text xml:space="preserve" text-anchor="middle" x="190.75" y="-52.2" font-family="Times,serif" font-size="14.00">s</text>
</g>
<!-- n7&#45;&gt;c15 -->
<g id="edge10" class="edge">
<title>n7:e&#45;&gt;c15:w</title>
<path fill="none" stroke="#7570b3" d="M54,-42.5C66.7,-42.5 70.84,-50.45 78.99,-54.68"/>
<polygon fill="#7570b3" stroke="#7570b3" points="77.99,-58.04 88.53,-56.91 79.58,-51.23 77.99,-58.04"/>
</g>
<!-- n8 -->
<g id="node8" class="node">
<title>n8</title>
<polygon fill="none" stroke="black" points="54,-89.04 54,-103.96 38.18,-114.5 15.82,-114.5 0,-103.96 0,-89.04 15.82,-78.5 38.18,-78.5 54,-89.04"/>
<text xml:space="preserve" text-anchor="middle" x="27" y="-91.45" font-family="Times,serif" font-size="14.00">a</text>
</g>
<!-- n8&#45;&gt;c15 -->
<g id="edge11" class="edge">
<title>n8:e&#45;&gt;c15:w</title>
<path fill="none" stroke="#d95f02" d="M54,-96.5C66.7,-96.5 70.84,-88.55 78.99,-84.32"/>
<polygon fill="#d95f02" stroke="#d95f02" points="79.58,-87.77 88.53,-82.09 77.99,-80.96 79.58,-87.77"/>
</g>
<!-- c12&#45;&gt;n4 -->
<g id="edge7" class="edge">
<title>c12:e&#45;&gt;n4:w</title>
<path fill="none" stroke="#7570b3" d="M652.49,-128.75C663.87,-128.75 669.18,-128.62 677.05,-128.55"/>
<polygon fill="#7570b3" stroke="#7570b3" points="676.99,-132.05 686.98,-128.51 676.96,-125.05 676.99,-132.05"/>
</g>
<!-- c14&#45;&gt;n1 -->
<g id="edge1" class="edge">
<title>c14:e&#45;&gt;n1:w</title>
<path fill="none" stroke="#66a61e" d="M439.5,-151.75C454.76,-151.75 456.07,-167.43 464.79,-174.78"/>
<polygon fill="#66a61e" stroke="#66a61e" points="463.48,-178.03 474.07,-178 465.77,-171.42 463.48,-178.03"/>
</g>
<!-- c14&#45;&gt;n5 -->
<g id="edge8" class="edge">
<title>c14:e&#45;&gt;n5:w</title>
<path fill="none" stroke="#e7298a" d="M439.5,-127.25C450.91,-127.25 456.18,-125.86 464.04,-125.06"/>
<polygon fill="#e7298a" stroke="#e7298a" points="464.17,-128.55 473.99,-124.57 463.83,-121.56 464.17,-128.55"/>
</g>
<!-- c15&#45;&gt;n2 -->
<g id="edge3" class="edge">
<title>c15:e&#45;&gt;n2:w</title>
<path fill="none" stroke="#1b9e77" d="M201.75,-81.75C265.81,-81.75 284.6,-78.87 343.36,-78.53"/>
<polygon fill="#1b9e77" stroke="#1b9e77" points="343.31,-82.03 353.3,-78.5 343.29,-75.03 343.31,-82.03"/>
</g>
<!-- c15&#45;&gt;n3 -->
<g id="edge5" class="edge">
<title>c15:e&#45;&gt;n3:w</title>
<path fill="none" stroke="#1b9e77" d="M201.75,-57.25C213.88,-57.25 218.57,-51.58 226.64,-48.47"/>
<polygon fill="#1b9e77" stroke="#1b9e77" points="227.03,-51.96 236.26,-46.76 225.8,-45.07 227.03,-51.96"/>
</g>
</g>
</svg>
