<svg xmlns="http://www.w3.org/2000/svg" xmlns:xlink="http://www.w3.org/1999/xlink" xmlns:s="https://github.com/nturley/netlistsvg" width="320" height="222">
  <style>svg {
    stroke:#000;
    fill:none;
  }
  text {
    fill:#000;
    stroke:none;
    font-size:10px;
    font-weight: bold;
    font-family: "Courier New", monospace;
  }
  .nodelabel {
    text-anchor: middle;
  }
  .inputPortLabel {
    text-anchor: end;
  }
  .splitjoinBody {
    fill:#000;
  }</style>
  <g s:type="or" transform="translate(211,172.5)" s:width="30" s:height="25" id="cell_$auto$simplemap.cc:106:simplemap_bitop$83">
    <s:alias val="$or"/>
    <s:alias val="$logic_or"/>
    <s:alias val="$_OR_"/>
    <path d="M0,25 L0,25 L15,25 A15 12.5 0 0 0 15,0 L0,0" class="cell_$auto$simplemap.cc:106:simplemap_bitop$83"/>
    <path d="M0,0 A30 25 0 0 1 0,25" class="cell_$auto$simplemap.cc:106:simplemap_bitop$83"/>
    <g s:x="3" s:y="5" s:pid="A"/>
    <g s:x="3" s:y="20" s:pid="B"/>
    <g s:x="30" s:y="12.5" s:pid="Y"/>
  </g>
  <g s:type="and" transform="translate(145,180)" s:width="30" s:height="25" id="cell_$auto$simplemap.cc:106:simplemap_bitop$84">
    <s:alias val="$and"/>
    <s:alias val="$logic_and"/>
    <s:alias val="$_AND_"/>
    <path d="M0,0 L0,25 L15,25 A15 12.5 0 0 0 15,0 Z" class="cell_$auto$simplemap.cc:106:simplemap_bitop$84"/>
    <g s:x="0" s:y="5" s:pid="A"/>
    <g s:x="0" s:y="20" s:pid="B"/>
    <g s:x="30" s:y="12.5" s:pid="Y"/>
  </g>
  <g s:type="reduce_xor" transform="translate(77,100)" s:width="33" s:height="25" id="cell_$auto$simplemap.cc:106:simplemap_bitop$85">
    <s:alias val="$xor"/>
    <s:alias val="$reduce_xor"/>
    <s:alias val="$_XOR_"/>
    <path d="M3,0 A30 25 0 0 1 3,25 A30 25 0 0 0 33,12.5 A30 25 0 0 0 3,0" class="cell_$auto$simplemap.cc:106:simplemap_bitop$85"/>
    <path d="M0,0 A30 25 0 0 1 0,25" class="cell_$auto$simplemap.cc:106:simplemap_bitop$85"/>
    <g s:x="3" s:y="5" s:pid="A"/>
    <g s:x="3" s:y="20" s:pid="B"/>
    <g s:x="33" s:y="12.5" s:pid="Y"/>
  </g>
  <g s:type="and" transform="translate(145,92.5)" s:width="30" s:height="25" id="cell_$auto$simplemap.cc:106:simplemap_bitop$86">
    <s:alias val="$and"/>
    <s:alias val="$logic_and"/>
    <s:alias val="$_AND_"/>
    <path d="M0,0 L0,25 L15,25 A15 12.5 0 0 0 15,0 Z" class="cell_$auto$simplemap.cc:106:simplemap_bitop$86"/>
    <g s:x="0" s:y="5" s:pid="A"/>
    <g s:x="0" s:y="20" s:pid="B"/>
    <g s:x="30" s:y="12.5" s:pid="Y"/>
  </g>
  <g s:type="reduce_xor" transform="translate(210,61.5)" s:width="33" s:height="25" id="cell_$auto$simplemap.cc:106:simplemap_bitop$87">
    <s:alias val="$xor"/>
    <s:alias val="$reduce_xor"/>
    <s:alias val="$_XOR_"/>
    <path d="M3,0 A30 25 0 0 1 3,25 A30 25 0 0 0 33,12.5 A30 25 0 0 0 3,0" class="cell_$auto$simplemap.cc:106:simplemap_bitop$87"/>
    <path d="M0,0 A30 25 0 0 1 0,25" class="cell_$auto$simplemap.cc:106:simplemap_bitop$87"/>
    <g s:x="3" s:y="5" s:pid="A"/>
    <g s:x="3" s:y="20" s:pid="B"/>
    <g s:x="33" s:y="12.5" s:pid="Y"/>
  </g>
  <g s:type="generic" transform="translate(12,22)" s:width="30" s:height="40" id="cell_ha1">
    <text x="15" y="-4" class="nodelabel cell_ha1" s:attribute="ref">$scopeinfo</text>
    <rect width="30" height="0" s:generic="body" class="cell_ha1"/>
  </g>
  <g s:type="generic" transform="translate(54,22)" s:width="30" s:height="40" id="cell_ha2">
    <text x="15" y="-4" class="nodelabel cell_ha2" s:attribute="ref">$scopeinfo</text>
    <rect width="30" height="0" s:generic="body" class="cell_ha2"/>
  </g>
  <g s:type="inputExt" transform="translate(12,125)" s:width="30" s:height="20" id="cell_a">
    <text x="15" y="-4" class="nodelabel cell_a" s:attribute="ref">a</text>
    <s:alias val="$_inputExt_"/>
    <path d="M0,0 L0,20 L15,20 L30,10 L15,0 Z" class="cell_a"/>
    <g s:x="28" s:y="10" s:pid="Y"/>
  </g>
  <g s:type="inputExt" transform="translate(12,190)" s:width="30" s:height="20" id="cell_b">
    <text x="15" y="-4" class="nodelabel cell_b" s:attribute="ref">b</text>
    <s:alias val="$_inputExt_"/>
    <path d="M0,0 L0,20 L15,20 L30,10 L15,0 Z" class="cell_b"/>
    <g s:x="28" s:y="10" s:pid="Y"/>
  </g>
  <g s:type="inputExt" transform="translate(80,45)" s:width="30" s:height="20" id="cell_cin">
    <text x="15" y="-4" class="nodelabel cell_cin" s:attribute="ref">cin</text>
    <s:alias val="$_inputExt_"/>
    <path d="M0,0 L0,20 L15,20 L30,10 L15,0 Z" class="cell_cin"/>
    <g s:x="28" s:y="10" s:pid="Y"/>
  </g>
  <g s:type="outputExt" transform="translate(278,64)" s:width="30" s:height="20" id="cell_s">
    <text x="15" y="-4" class="nodelabel cell_s" s:attribute="ref">s</text>
    <s:alias val="$_outputExt_"/>
    <path d="M30,0 L30,20 L15,20 L0,10 L15,0 Z" class="cell_s"/>
    <g s:x="0" s:y="10" s:pid="A"/>
  </g>
  <g s:type="outputExt" transform="translate(278,175)" s:width="30" s:height="20" id="cell_cout">
    <text x="15" y="-4" class="nodelabel cell_cout" s:attribute="ref">cout</text>
    <s:alias val="$_outputExt_"/>
    <path d="M30,0 L30,20 L15,20 L0,10 L15,0 Z" class="cell_cout"/>
    <g s:x="0" s:y="10" s:pid="A"/>
  </g>
  <line x1="175" x2="185" y1="105" y2="105" class="net_7"/>
  <line x1="185" x2="185" y1="105" y2="177.5" class="net_7"/>
  <line x1="185" x2="214" y1="177.5" y2="177.5" class="net_7"/>
  <line x1="175" x2="214" y1="192.5" y2="192.5" class="net_8"/>
  <line x1="40" x2="120" y1="135" y2="135" class="net_2"/>
  <line x1="120" x2="120" y1="135" y2="185" class="net_2"/>
  <line x1="120" x2="145" y1="185" y2="185" class="net_2"/>
  <line x1="40" x2="52" y1="135" y2="135" class="net_2"/>
  <line x1="52" x2="52" y1="135" y2="105" class="net_2"/>
  <circle cx="52" cy="135" r="2" style="fill:#000" class="net_2"/>
  <line x1="52" x2="80" y1="105" y2="105" class="net_2"/>
  <line x1="40" x2="145" y1="200" y2="200" class="net_3"/>
  <line x1="40" x2="62" y1="200" y2="200" class="net_3"/>
  <line x1="62" x2="62" y1="200" y2="120" class="net_3"/>
  <circle cx="62" cy="200" r="2" style="fill:#000" class="net_3"/>
  <line x1="62" x2="80" y1="120" y2="120" class="net_3"/>
  <line x1="108" x2="130" y1="55" y2="55" class="net_4"/>
  <line x1="130" x2="130" y1="55" y2="97.5" class="net_4"/>
  <circle cx="130" cy="55" r="2" style="fill:#000" class="net_4"/>
  <line x1="130" x2="145" y1="97.5" y2="97.5" class="net_4"/>
  <line x1="108" x2="185" y1="55" y2="55" class="net_4"/>
  <line x1="185" x2="185" y1="55" y2="66.5" class="net_4"/>
  <line x1="185" x2="213" y1="66.5" y2="66.5" class="net_4"/>
  <line x1="110" x2="145" y1="112.5" y2="112.5" class="net_9"/>
  <line x1="110" x2="120" y1="112.5" y2="112.5" class="net_9"/>
  <line x1="120" x2="120" y1="112.5" y2="81.5" class="net_9"/>
  <circle cx="120" cy="112.5" r="2" style="fill:#000" class="net_9"/>
  <line x1="120" x2="213" y1="81.5" y2="81.5" class="net_9"/>
  <line x1="243" x2="278" y1="74" y2="74" class="net_5"/>
  <line x1="241" x2="278" y1="185" y2="185" class="net_6"/>
</svg>
