<?xml version="1.0" encoding="UTF-8" standalone="no"?>
<!DOCTYPE svg PUBLIC "-//W3C//DTD SVG 1.1//EN"
 "http://www.w3.org/Graphics/SVG/1.1/DTD/svg11.dtd">
<!-- Generated by graphviz version 14.1.4 (20260321.0153)
 -->
<!-- Title: fulladder Pages: 1 -->
<svg width="875pt" height="384pt"
 viewBox="0.00 0.00 875.00 384.00" xmlns="http://www.w3.org/2000/svg" xmlns:xlink="http://www.w3.org/1999/xlink">
<g id="graph0" class="graph" transform="scale(1 1) rotate(0) translate(4 379.5)">
<title>fulladder</title>
<polygon fill="white" stroke="none" points="-4,4 -4,-379.5 871.22,-379.5 871.22,4 -4,4"/>
<text xml:space="preserve" text-anchor="middle" x="433.61" y="-7.2" font-family="Times,serif" font-size="14.00">fulladder</text>
<!-- n1 -->
<g id="node1" class="node">
<title>n1</title>
<polygon fill="none" stroke="black" points="823.55,-321.5 780.6,-303.5 823.55,-285.5 866.49,-303.5 823.55,-321.5"/>
<text xml:space="preserve" text-anchor="middle" x="823.55" y="-298.45" font-family="Times,serif" font-size="14.00">ha2.s</text>
</g>
<!-- n2 -->
<g id="node2" class="node">
<title>n2</title>
<polygon fill="none" stroke="black" points="324.89,-252.5 281.22,-234.5 324.89,-216.5 368.56,-234.5 324.89,-252.5"/>
<text xml:space="preserve" text-anchor="middle" x="324.89" y="-229.45" font-family="Times,serif" font-size="14.00">ha1.a</text>
</g>
<!-- n3 -->
<g id="node3" class="node">
<title>n3</title>
<polygon fill="none" stroke="black" points="324.89,-60.5 280.5,-42.5 324.89,-24.5 369.29,-42.5 324.89,-60.5"/>
<text xml:space="preserve" text-anchor="middle" x="324.89" y="-37.45" font-family="Times,serif" font-size="14.00">ha1.b</text>
</g>
<!-- n4 -->
<g id="node4" class="node">
<title>n4</title>
<polygon fill="none" stroke="black" points="578.71,-67.5 535.04,-49.5 578.71,-31.5 622.38,-49.5 578.71,-67.5"/>
<text xml:space="preserve" text-anchor="middle" x="578.71" y="-44.45" font-family="Times,serif" font-size="14.00">ha1.c</text>
</g>
<!-- n5 -->
<g id="node5" class="node">
<title>n5</title>
<polygon fill="none" stroke="black" points="578.71,-159.5 535.76,-141.5 578.71,-123.5 621.65,-141.5 578.71,-159.5"/>
<text xml:space="preserve" text-anchor="middle" x="578.71" y="-136.45" font-family="Times,serif" font-size="14.00">ha1.s</text>
</g>
<!-- n6 -->
<g id="node6" class="node">
<title>n6</title>
<polygon fill="none" stroke="black" points="823.55,-267.5 779.88,-249.5 823.55,-231.5 867.22,-249.5 823.55,-267.5"/>
<text xml:space="preserve" text-anchor="middle" x="823.55" y="-244.45" font-family="Times,serif" font-size="14.00">ha2.c</text>
</g>
<!-- n7 -->
<g id="node7" class="node">
<title>n7</title>
<polygon fill="none" stroke="black" points="324.89,-198.5 280.5,-180.5 324.89,-162.5 369.29,-180.5 324.89,-198.5"/>
<text xml:space="preserve" text-anchor="middle" x="324.89" y="-175.45" font-family="Times,serif" font-size="14.00">ha2.b</text>
</g>
<!-- c21 -->
<g id="node18" class="node">
<title>c21</title>
<polygon fill="none" stroke="black" points="405.29,-211 405.29,-260 499.04,-260 499.04,-211 405.29,-211"/>
<text xml:space="preserve" text-anchor="middle" x="418.16" y="-242.7" font-family="Times,serif" font-size="14.00">A</text>
<polyline fill="none" stroke="black" points="405.29,-235.5 431.04,-235.5"/>
<text xml:space="preserve" text-anchor="middle" x="418.16" y="-218.2" font-family="Times,serif" font-size="14.00">B</text>
<polyline fill="none" stroke="black" points="431.04,-211 431.04,-260"/>
<text xml:space="preserve" text-anchor="middle" x="452.16" y="-238.7" font-family="Times,serif" font-size="14.00">$3</text>
<text xml:space="preserve" text-anchor="middle" x="452.16" y="-222.2" font-family="Times,serif" font-size="14.00">$and</text>
<polyline fill="none" stroke="black" points="473.29,-211 473.29,-260"/>
<text xml:space="preserve" text-anchor="middle" x="486.16" y="-230.7" font-family="Times,serif" font-size="14.00">Y</text>
</g>
<!-- n7&#45;&gt;c21 -->
<g id="edge24" class="edge">
<title>n7:e&#45;&gt;c21:w</title>
<path fill="none" stroke="#d95f02" d="M369.29,-180.5C389.47,-180.5 384.22,-208.72 394.87,-219.3"/>
<polygon fill="#d95f02" stroke="#d95f02" points="393.28,-222.45 403.87,-222.71 395.76,-215.9 393.28,-222.45"/>
</g>
<!-- c25 -->
<g id="node22" class="node">
<title>c25</title>
<polygon fill="none" stroke="black" points="406.04,-279 406.04,-328 498.29,-328 498.29,-279 406.04,-279"/>
<text xml:space="preserve" text-anchor="middle" x="418.91" y="-310.7" font-family="Times,serif" font-size="14.00">A</text>
<polyline fill="none" stroke="black" points="406.04,-303.5 431.79,-303.5"/>
<text xml:space="preserve" text-anchor="middle" x="418.91" y="-286.2" font-family="Times,serif" font-size="14.00">B</text>
<polyline fill="none" stroke="black" points="431.79,-279 431.79,-328"/>
<text xml:space="preserve" text-anchor="middle" x="452.16" y="-306.7" font-family="Times,serif" font-size="14.00">$2</text>
<text xml:space="preserve" text-anchor="middle" x="452.16" y="-290.2" font-family="Times,serif" font-size="14.00">$xor</text>
<polyline fill="none" stroke="black" points="472.54,-279 472.54,-328"/>
<text xml:space="preserve" text-anchor="middle" x="485.41" y="-298.7" font-family="Times,serif" font-size="14.00">Y</text>
</g>
<!-- n7&#45;&gt;c25 -->
<g id="edge25" class="edge">
<title>n7:e&#45;&gt;c25:w</title>
<path fill="none" stroke="#d95f02" d="M369.29,-180.5C416.6,-180.5 364.25,-273.03 394.43,-288.94"/>
<polygon fill="#d95f02" stroke="#d95f02" points="393.3,-292.27 403.81,-290.93 394.76,-285.43 393.3,-292.27"/>
</g>
<!-- x4 -->
<g id="node28" class="node">
<title>x4</title>
<ellipse fill="black" stroke="black" cx="452.16" cy="-151.5" rx="1.8" ry="1.8"/>
</g>
<!-- n7&#45;&gt;x4 -->
<g id="edge26" class="edge">
<title>n7:e&#45;&gt;x4:w</title>
<path fill="none" stroke="#d95f02" d="M369.29,-180.5C402.82,-180.5 409.89,-157.5 437.64,-152.46"/>
<polygon fill="#d95f02" stroke="#d95f02" points="437.71,-155.97 447.38,-151.63 437.11,-149 437.71,-155.97"/>
</g>
<!-- x7 -->
<g id="node31" class="node">
<title>x7</title>
<ellipse fill="black" stroke="black" cx="452.16" cy="-183.5" rx="1.8" ry="1.8"/>
</g>
<!-- n7&#45;&gt;x7 -->
<g id="edge27" class="edge">
<title>n7:e&#45;&gt;x7:w</title>
<path fill="none" stroke="#d95f02" d="M369.29,-180.5C400.54,-180.5 411.06,-182.84 437.45,-183.39"/>
<polygon fill="#d95f02" stroke="#d95f02" points="437.34,-186.89 447.37,-183.48 437.41,-179.89 437.34,-186.89"/>
</g>
<!-- n8 -->
<g id="node8" class="node">
<title>n8</title>
<polygon fill="none" stroke="black" points="578.71,-375.5 535.04,-357.5 578.71,-339.5 622.38,-357.5 578.71,-375.5"/>
<text xml:space="preserve" text-anchor="middle" x="578.71" y="-352.45" font-family="Times,serif" font-size="14.00">ha2.a</text>
</g>
<!-- n9 -->
<g id="node9" class="node">
<title>n9</title>
<polygon fill="none" stroke="black" points="578.71,-267.5 550.96,-249.5 578.71,-231.5 606.45,-249.5 578.71,-267.5"/>
<text xml:space="preserve" text-anchor="middle" x="578.71" y="-244.45" font-family="Times,serif" font-size="14.00">cp</text>
</g>
<!-- c24 -->
<g id="node21" class="node">
<title>c24</title>
<polygon fill="none" stroke="black" points="658.38,-127 658.38,-176 743.88,-176 743.88,-127 658.38,-127"/>
<text xml:space="preserve" text-anchor="middle" x="671.25" y="-158.7" font-family="Times,serif" font-size="14.00">A</text>
<polyline fill="none" stroke="black" points="658.38,-151.5 684.13,-151.5"/>
<text xml:space="preserve" text-anchor="middle" x="671.25" y="-134.2" font-family="Times,serif" font-size="14.00">B</text>
<polyline fill="none" stroke="black" points="684.13,-127 684.13,-176"/>
<text xml:space="preserve" text-anchor="middle" x="701.13" y="-154.7" font-family="Times,serif" font-size="14.00">$1</text>
<text xml:space="preserve" text-anchor="middle" x="701.13" y="-138.2" font-family="Times,serif" font-size="14.00">$or</text>
<polyline fill="none" stroke="black" points="718.13,-127 718.13,-176"/>
<text xml:space="preserve" text-anchor="middle" x="731" y="-146.7" font-family="Times,serif" font-size="14.00">Y</text>
</g>
<!-- n9&#45;&gt;c24 -->
<g id="edge30" class="edge">
<title>n9:e&#45;&gt;c24:w</title>
<path fill="none" stroke="#1b9e77" d="M608.29,-249.5C647.94,-249.5 621.15,-180.28 647.3,-166.22"/>
<polygon fill="#1b9e77" stroke="#1b9e77" points="647.9,-169.68 656.9,-164.08 646.38,-162.84 647.9,-169.68"/>
</g>
<!-- x5 -->
<g id="node29" class="node">
<title>x5</title>
<ellipse fill="black" stroke="black" cx="701.13" cy="-249.5" rx="1.8" ry="1.8"/>
</g>
<!-- n9&#45;&gt;x5 -->
<g id="edge31" class="edge">
<title>n9:e&#45;&gt;x5:w</title>
<path fill="none" stroke="#1b9e77" d="M608.29,-249.5C644.05,-249.5 655.71,-249.5 686.58,-249.5"/>
<polygon fill="#1b9e77" stroke="#1b9e77" points="686.33,-253 696.33,-249.5 686.33,-246 686.33,-253"/>
</g>
<!-- n10 -->
<g id="node10" class="node">
<title>n10</title>
<polygon fill="none" stroke="black" points="324.89,-114.5 297.89,-96.5 324.89,-78.5 351.89,-96.5 324.89,-114.5"/>
<text xml:space="preserve" text-anchor="middle" x="324.89" y="-91.45" font-family="Times,serif" font-size="14.00">g</text>
</g>
<!-- n10&#45;&gt;c24 -->
<g id="edge3" class="edge">
<title>n10:e&#45;&gt;c24:w</title>
<path fill="none" stroke="#1b9e77" d="M353.71,-96.5C473.38,-96.5 509.34,-75.2 622.38,-114.5 636.27,-119.33 638.63,-131.05 647.41,-136.45"/>
<polygon fill="#1b9e77" stroke="#1b9e77" points="646.35,-139.79 656.91,-138.88 648.09,-133.01 646.35,-139.79"/>
</g>
<!-- x3 -->
<g id="node27" class="node">
<title>x3</title>
<ellipse fill="black" stroke="black" cx="452.16" cy="-57.5" rx="1.8" ry="1.8"/>
</g>
<!-- n10&#45;&gt;x3 -->
<g id="edge4" class="edge">
<title>n10:e&#45;&gt;x3:w</title>
<path fill="none" stroke="#1b9e77" d="M353.71,-96.5C395.31,-96.5 402.16,-64.19 437.52,-58.39"/>
<polygon fill="#1b9e77" stroke="#1b9e77" points="437.68,-61.89 447.37,-57.62 437.13,-54.91 437.68,-61.89"/>
</g>
<!-- n11 -->
<g id="node11" class="node">
<title>n11</title>
<polygon fill="none" stroke="black" points="578.71,-213.5 551.71,-195.5 578.71,-177.5 605.71,-195.5 578.71,-213.5"/>
<text xml:space="preserve" text-anchor="middle" x="578.71" y="-190.45" font-family="Times,serif" font-size="14.00">p</text>
</g>
<!-- n12 -->
<g id="node12" class="node">
<title>n12</title>
<polygon fill="none" stroke="black" points="852.54,-144.04 852.54,-158.96 835.55,-169.5 811.54,-169.5 794.55,-158.96 794.55,-144.04 811.54,-133.5 835.55,-133.5 852.54,-144.04"/>
<text xml:space="preserve" text-anchor="middle" x="823.55" y="-146.45" font-family="Times,serif" font-size="14.00">cout</text>
</g>
<!-- n13 -->
<g id="node13" class="node">
<title>n13</title>
<polygon fill="none" stroke="black" points="605.71,-296.04 605.71,-310.96 589.89,-321.5 567.52,-321.5 551.71,-310.96 551.71,-296.04 567.52,-285.5 589.89,-285.5 605.71,-296.04"/>
<text xml:space="preserve" text-anchor="middle" x="578.71" y="-298.45" font-family="Times,serif" font-size="14.00">s</text>
</g>
<!-- x0 -->
<g id="node24" class="node">
<title>x0</title>
<ellipse fill="black" stroke="black" cx="701.13" cy="-303.5" rx="1.8" ry="1.8"/>
</g>
<!-- n13&#45;&gt;x0 -->
<g id="edge8" class="edge">
<title>n13:e&#45;&gt;x0:w</title>
<path fill="none" stroke="#e7298a" d="M606.96,-303.5C643.25,-303.5 655.09,-303.5 686.41,-303.5"/>
<polygon fill="#e7298a" stroke="#e7298a" points="686.33,-307 696.33,-303.5 686.33,-300 686.33,-307"/>
</g>
<!-- n14 -->
<g id="node14" class="node">
<title>n14</title>
<polygon fill="none" stroke="black" points="351.89,-308.04 351.89,-322.96 336.08,-333.5 313.71,-333.5 297.89,-322.96 297.89,-308.04 313.71,-297.5 336.08,-297.5 351.89,-308.04"/>
<text xml:space="preserve" text-anchor="middle" x="324.89" y="-310.45" font-family="Times,serif" font-size="14.00">cin</text>
</g>
<!-- n14&#45;&gt;c21 -->
<g id="edge9" class="edge">
<title>n14:e&#45;&gt;c21:w</title>
<path fill="none" stroke="#e7298a" d="M353.15,-315.5C386.69,-315.5 372.03,-262.7 394.28,-250.32"/>
<polygon fill="#e7298a" stroke="#e7298a" points="394.87,-253.78 403.81,-248.09 393.28,-246.96 394.87,-253.78"/>
</g>
<!-- n14&#45;&gt;c25 -->
<g id="edge10" class="edge">
<title>n14:e&#45;&gt;c25:w</title>
<path fill="none" stroke="#e7298a" d="M353.15,-315.5C371.98,-315.5 379.33,-315.67 393.86,-315.73"/>
<polygon fill="#e7298a" stroke="#e7298a" points="393.77,-319.23 403.77,-315.75 393.78,-312.23 393.77,-319.23"/>
</g>
<!-- x6 -->
<g id="node30" class="node">
<title>x6</title>
<ellipse fill="black" stroke="black" cx="452.16" cy="-352.5" rx="1.8" ry="1.8"/>
</g>
<!-- n14&#45;&gt;x6 -->
<g id="edge11" class="edge">
<title>n14:e&#45;&gt;x6:w</title>
<path fill="none" stroke="#e7298a" d="M353.15,-315.5C378.3,-315.5 381.79,-328.51 405.29,-337.5 420.24,-343.22 425.93,-349.16 437.48,-351.48"/>
<polygon fill="#e7298a" stroke="#e7298a" points="437.1,-354.96 447.38,-352.37 437.73,-347.99 437.1,-354.96"/>
</g>
<!-- n15 -->
<g id="node15" class="node">
<title>n15</title>
<polygon fill="none" stroke="black" points="84.38,-79.04 84.38,-93.96 68.56,-104.5 46.19,-104.5 30.38,-93.96 30.38,-79.04 46.19,-68.5 68.56,-68.5 84.38,-79.04"/>
<text xml:space="preserve" text-anchor="middle" x="57.38" y="-81.45" font-family="Times,serif" font-size="14.00">b</text>
</g>
<!-- c23 -->
<g id="node20" class="node">
<title>c23</title>
<polygon fill="none" stroke="black" points="150.75,-74 150.75,-123 244.5,-123 244.5,-74 150.75,-74"/>
<text xml:space="preserve" text-anchor="middle" x="163.62" y="-105.7" font-family="Times,serif" font-size="14.00">A</text>
<polyline fill="none" stroke="black" points="150.75,-98.5 176.5,-98.5"/>
<text xml:space="preserve" text-anchor="middle" x="163.62" y="-81.2" font-family="Times,serif" font-size="14.00">B</text>
<polyline fill="none" stroke="black" points="176.5,-74 176.5,-123"/>
<text xml:space="preserve" text-anchor="middle" x="197.62" y="-101.7" font-family="Times,serif" font-size="14.00">$3</text>
<text xml:space="preserve" text-anchor="middle" x="197.62" y="-85.2" font-family="Times,serif" font-size="14.00">$and</text>
<polyline fill="none" stroke="black" points="218.75,-74 218.75,-123"/>
<text xml:space="preserve" text-anchor="middle" x="231.62" y="-93.7" font-family="Times,serif" font-size="14.00">Y</text>
</g>
<!-- n15&#45;&gt;c23 -->
<g id="edge12" class="edge">
<title>n15:e&#45;&gt;c23:w</title>
<path fill="none" stroke="#7570b3" d="M85.63,-86.5C110.39,-86.5 119.26,-86.32 139.43,-86.26"/>
<polygon fill="#7570b3" stroke="#7570b3" points="139.24,-89.76 149.24,-86.25 139.23,-82.76 139.24,-89.76"/>
</g>
<!-- c26 -->
<g id="node23" class="node">
<title>c26</title>
<polygon fill="none" stroke="black" points="151.5,-155 151.5,-204 243.75,-204 243.75,-155 151.5,-155"/>
<text xml:space="preserve" text-anchor="middle" x="164.38" y="-186.7" font-family="Times,serif" font-size="14.00">A</text>
<polyline fill="none" stroke="black" points="151.5,-179.5 177.25,-179.5"/>
<text xml:space="preserve" text-anchor="middle" x="164.38" y="-162.2" font-family="Times,serif" font-size="14.00">B</text>
<polyline fill="none" stroke="black" points="177.25,-155 177.25,-204"/>
<text xml:space="preserve" text-anchor="middle" x="197.62" y="-182.7" font-family="Times,serif" font-size="14.00">$2</text>
<text xml:space="preserve" text-anchor="middle" x="197.62" y="-166.2" font-family="Times,serif" font-size="14.00">$xor</text>
<polyline fill="none" stroke="black" points="218,-155 218,-204"/>
<text xml:space="preserve" text-anchor="middle" x="230.88" y="-174.7" font-family="Times,serif" font-size="14.00">Y</text>
</g>
<!-- n15&#45;&gt;c26 -->
<g id="edge13" class="edge">
<title>n15:e&#45;&gt;c26:w</title>
<path fill="none" stroke="#7570b3" d="M85.63,-86.5C127.41,-86.5 109.08,-152.82 139.59,-165.25"/>
<polygon fill="#7570b3" stroke="#7570b3" points="138.8,-168.67 149.26,-166.98 140.03,-161.78 138.8,-168.67"/>
</g>
<!-- x2 -->
<g id="node26" class="node">
<title>x2</title>
<ellipse fill="black" stroke="black" cx="197.62" cy="-49.5" rx="1.8" ry="1.8"/>
</g>
<!-- n15&#45;&gt;x2 -->
<g id="edge14" class="edge">
<title>n15:e&#45;&gt;x2:w</title>
<path fill="none" stroke="#7570b3" d="M85.63,-86.5C132.58,-86.5 141.96,-55.19 182.89,-50.17"/>
<polygon fill="#7570b3" stroke="#7570b3" points="183.06,-53.67 192.84,-49.59 182.65,-46.68 183.06,-53.67"/>
</g>
<!-- n16 -->
<g id="node16" class="node">
<title>n16</title>
<polygon fill="none" stroke="black" points="84.38,-184.04 84.38,-198.96 68.56,-209.5 46.19,-209.5 30.38,-198.96 30.38,-184.04 46.19,-173.5 68.56,-173.5 84.38,-184.04"/>
<text xml:space="preserve" text-anchor="middle" x="57.38" y="-186.45" font-family="Times,serif" font-size="14.00">a</text>
</g>
<!-- n16&#45;&gt;c23 -->
<g id="edge15" class="edge">
<title>n16:e&#45;&gt;c23:w</title>
<path fill="none" stroke="#d95f02" d="M85.63,-191.5C127.41,-191.5 109.08,-125.18 139.59,-112.75"/>
<polygon fill="#d95f02" stroke="#d95f02" points="140.03,-116.22 149.26,-111.02 138.8,-109.33 140.03,-116.22"/>
</g>
<!-- n16&#45;&gt;c26 -->
<g id="edge16" class="edge">
<title>n16:e&#45;&gt;c26:w</title>
<path fill="none" stroke="#d95f02" d="M85.63,-191.5C110.39,-191.5 119.26,-191.68 139.43,-191.74"/>
<polygon fill="#d95f02" stroke="#d95f02" points="139.23,-195.24 149.24,-191.75 139.24,-188.24 139.23,-195.24"/>
</g>
<!-- x1 -->
<g id="node25" class="node">
<title>x1</title>
<ellipse fill="black" stroke="black" cx="197.62" cy="-228.5" rx="1.8" ry="1.8"/>
</g>
<!-- n16&#45;&gt;x1 -->
<g id="edge17" class="edge">
<title>n16:e&#45;&gt;x1:w</title>
<path fill="none" stroke="#d95f02" d="M85.63,-191.5C132.58,-191.5 141.96,-222.81 182.89,-227.83"/>
<polygon fill="#d95f02" stroke="#d95f02" points="182.65,-231.32 192.84,-228.41 183.06,-224.33 182.65,-231.32"/>
</g>
<!-- c17 -->
<g id="node17" class="node">
<title>c17</title>
<polygon fill="none" stroke="black" points="0,-228 0,-269 114.75,-269 114.75,-228 0,-228"/>
<text xml:space="preserve" text-anchor="middle" x="9.88" y="-243.7" font-family="Times,serif" font-size="14.00"> </text>
<polyline fill="none" stroke="black" points="19.75,-228 19.75,-269"/>
<text xml:space="preserve" text-anchor="middle" x="57.38" y="-251.7" font-family="Times,serif" font-size="14.00">ha2</text>
<text xml:space="preserve" text-anchor="middle" x="57.38" y="-235.2" font-family="Times,serif" font-size="14.00">$scopeinfo</text>
<polyline fill="none" stroke="black" points="95,-228 95,-269"/>
<text xml:space="preserve" text-anchor="middle" x="104.88" y="-243.7" font-family="Times,serif" font-size="14.00"> </text>
</g>
<!-- c21&#45;&gt;n9 -->
<g id="edge29" class="edge">
<title>c21:e&#45;&gt;n9:w</title>
<path fill="none" stroke="#1b9e77" d="M499.04,-235.75C517.79,-235.75 523.9,-244.83 537.91,-248.23"/>
<polygon fill="#1b9e77" stroke="#1b9e77" points="537.29,-251.68 547.62,-249.33 538.08,-244.73 537.29,-251.68"/>
</g>
<!-- c22 -->
<g id="node19" class="node">
<title>c22</title>
<polygon fill="none" stroke="black" points="0,-288 0,-329 114.75,-329 114.75,-288 0,-288"/>
<text xml:space="preserve" text-anchor="middle" x="9.88" y="-303.7" font-family="Times,serif" font-size="14.00"> </text>
<polyline fill="none" stroke="black" points="19.75,-288 19.75,-329"/>
<text xml:space="preserve" text-anchor="middle" x="57.38" y="-311.7" font-family="Times,serif" font-size="14.00">ha1</text>
<text xml:space="preserve" text-anchor="middle" x="57.38" y="-295.2" font-family="Times,serif" font-size="14.00">$scopeinfo</text>
<polyline fill="none" stroke="black" points="95,-288 95,-329"/>
<text xml:space="preserve" text-anchor="middle" x="104.88" y="-303.7" font-family="Times,serif" font-size="14.00"> </text>
</g>
<!-- c23&#45;&gt;n10 -->
<g id="edge2" class="edge">
<title>c23:e&#45;&gt;n10:w</title>
<path fill="none" stroke="#1b9e77" d="M244.5,-98.75C263.14,-98.75 270.39,-97.26 284.77,-96.71"/>
<polygon fill="#1b9e77" stroke="#1b9e77" points="284.63,-100.21 294.57,-96.53 284.5,-93.21 284.63,-100.21"/>
</g>
<!-- c24&#45;&gt;n12 -->
<g id="edge6" class="edge">
<title>c24:e&#45;&gt;n12:w</title>
<path fill="none" stroke="#7570b3" d="M743.88,-151.75C761.55,-151.75 768.55,-151.59 782.06,-151.52"/>
<polygon fill="#7570b3" stroke="#7570b3" points="781.78,-155.03 791.77,-151.5 781.76,-148.03 781.78,-155.03"/>
</g>
<!-- c25&#45;&gt;n13 -->
<g id="edge7" class="edge">
<title>c25:e&#45;&gt;n13:w</title>
<path fill="none" stroke="#e7298a" d="M499.04,-303.75C517.6,-303.75 524.86,-303.58 539.18,-303.52"/>
<polygon fill="#e7298a" stroke="#e7298a" points="538.95,-307.02 548.94,-303.5 538.93,-300.02 538.95,-307.02"/>
</g>
<!-- c26&#45;&gt;n7 -->
<g id="edge23" class="edge">
<title>c26:e&#45;&gt;n7:w</title>
<path fill="none" stroke="#d95f02" d="M244.5,-179.75C255.88,-179.75 261.18,-180.13 269.05,-180.35"/>
<polygon fill="#d95f02" stroke="#d95f02" points="268.94,-183.85 278.99,-180.48 269.03,-176.85 268.94,-183.85"/>
</g>
<!-- x0&#45;&gt;n1 -->
<g id="edge1" class="edge">
<title>x0:e&#45;&gt;n1:w</title>
<path fill="none" stroke="#66a61e" d="M704.4,-303.5C733.75,-303.5 743.84,-303.5 768.38,-303.5"/>
<polygon fill="#66a61e" stroke="#66a61e" points="768.36,-307 778.36,-303.5 768.36,-300 768.36,-307"/>
</g>
<!-- x1&#45;&gt;n2 -->
<g id="edge18" class="edge">
<title>x1:e&#45;&gt;n2:w</title>
<path fill="none" stroke="#1b9e77" d="M200.9,-228.5C232.22,-228.5 242.63,-233.18 269.05,-234.27"/>
<polygon fill="#1b9e77" stroke="#1b9e77" points="268.92,-237.77 278.99,-234.47 269.06,-230.77 268.92,-237.77"/>
</g>
<!-- x2&#45;&gt;n3 -->
<g id="edge19" class="edge">
<title>x2:e&#45;&gt;n3:w</title>
<path fill="none" stroke="#1b9e77" d="M200.9,-49.5C232.25,-49.5 242.61,-44.04 269.04,-42.77"/>
<polygon fill="#1b9e77" stroke="#1b9e77" points="269.07,-46.27 278.99,-42.54 268.91,-39.27 269.07,-46.27"/>
</g>
<!-- x3&#45;&gt;n4 -->
<g id="edge20" class="edge">
<title>x3:e&#45;&gt;n4:w</title>
<path fill="none" stroke="#e6ab02" d="M455.44,-57.5C486.83,-57.5 497.12,-51.27 523.57,-49.8"/>
<polygon fill="#e6ab02" stroke="#e6ab02" points="523.62,-53.3 533.52,-49.54 523.43,-46.31 523.62,-53.3"/>
</g>
<!-- x4&#45;&gt;n5 -->
<g id="edge21" class="edge">
<title>x4:e&#45;&gt;n5:w</title>
<path fill="none" stroke="#e6ab02" d="M455.44,-151.5C486.92,-151.5 497.06,-143.71 523.54,-141.88"/>
<polygon fill="#e6ab02" stroke="#e6ab02" points="523.65,-145.38 533.52,-141.55 523.41,-138.38 523.65,-145.38"/>
</g>
<!-- x5&#45;&gt;n6 -->
<g id="edge22" class="edge">
<title>x5:e&#45;&gt;n6:w</title>
<path fill="none" stroke="#d95f02" d="M704.4,-249.5C733.75,-249.5 743.84,-249.5 768.38,-249.5"/>
<polygon fill="#d95f02" stroke="#d95f02" points="768.36,-253 778.36,-249.5 768.36,-246 768.36,-253"/>
</g>
<!-- x6&#45;&gt;n8 -->
<g id="edge28" class="edge">
<title>x6:e&#45;&gt;n8:w</title>
<path fill="none" stroke="#d95f02" d="M455.44,-352.5C486.73,-352.5 497.18,-356.4 523.59,-357.31"/>
<polygon fill="#d95f02" stroke="#d95f02" points="523.47,-360.81 533.52,-357.47 523.58,-353.81 523.47,-360.81"/>
</g>
<!-- x7&#45;&gt;n11 -->
<g id="edge5" class="edge">
<title>x7:e&#45;&gt;n11:w</title>
<path fill="none" stroke="#1b9e77" d="M455.44,-183.5C493.79,-183.5 505.45,-193.36 538.8,-195.2"/>
<polygon fill="#1b9e77" stroke="#1b9e77" points="538.29,-198.69 548.38,-195.46 538.48,-191.69 538.29,-198.69"/>
</g>
</g>
</svg>
