<?xml version="1.0" encoding="UTF-8" standalone="no"?>
<!DOCTYPE svg PUBLIC "-//W3C//DTD SVG 1.1//EN"
 "http://www.w3.org/Graphics/SVG/1.1/DTD/svg11.dtd">
<!-- Generated by graphviz version 14.1.4 (20260321.0153)
 -->
<!-- Title: mul4 Pages: 1 -->
<svg width="2509pt" height="354pt"
 viewBox="0.00 0.00 2509.00 354.00" xmlns="http://www.w3.org/2000/svg" xmlns:xlink="http://www.w3.org/1999/xlink">
<g id="graph0" class="graph" transform="scale(1 1) rotate(0) translate(4 349.61)">
<title>mul4</title>
<polygon fill="white" stroke="none" points="-4,4 -4,-349.61 2504.75,-349.61 2504.75,4 -4,4"/>
<text xml:space="preserve" text-anchor="middle" x="1250.37" y="-7.2" font-family="Times,serif" font-size="14.00">mul4</text>
<!-- n1 -->
<g id="node1" class="node">
<title>n1</title>
<polygon fill="none" stroke="black" points="2277.99,-195.59 2250.96,-177.59 2277.99,-159.59 2305.01,-177.59 2277.99,-195.59"/>
<text xml:space="preserve" text-anchor="middle" x="2277.99" y="-172.54" font-family="Times,serif" font-size="14.00">s3</text>
</g>
<!-- x8 -->
<g id="node29" class="node">
<title>x8</title>
<path fill="none" stroke="#e7298a" d="M2360.25,-70.34C2360.25,-70.34 2398.75,-70.34 2398.75,-70.34 2404.75,-70.34 2410.75,-76.34 2410.75,-82.34 2410.75,-82.34 2410.75,-180.84 2410.75,-180.84 2410.75,-186.84 2404.75,-192.84 2398.75,-192.84 2398.75,-192.84 2360.25,-192.84 2360.25,-192.84 2354.25,-192.84 2348.25,-186.84 2348.25,-180.84 2348.25,-180.84 2348.25,-82.34 2348.25,-82.34 2348.25,-76.34 2354.25,-70.34 2360.25,-70.34"/>
<text xml:space="preserve" text-anchor="middle" x="2379.5" y="-175.54" font-family="Times,serif" font-size="14.00" fill="#e7298a">0:0 &#45; 7:7</text>
<polyline fill="none" stroke="#e7298a" points="2348.25,-168.34 2410.75,-168.34"/>
<text xml:space="preserve" text-anchor="middle" x="2379.5" y="-151.04" font-family="Times,serif" font-size="14.00" fill="#e7298a">3:0 &#45; 6:3</text>
<polyline fill="none" stroke="#e7298a" points="2348.25,-143.84 2410.75,-143.84"/>
<text xml:space="preserve" text-anchor="middle" x="2379.5" y="-126.54" font-family="Times,serif" font-size="14.00" fill="#e7298a">0:0 &#45; 2:2</text>
<polyline fill="none" stroke="#e7298a" points="2348.25,-119.34 2410.75,-119.34"/>
<text xml:space="preserve" text-anchor="middle" x="2379.5" y="-102.04" font-family="Times,serif" font-size="14.00" fill="#e7298a">0:0 &#45; 1:1</text>
<polyline fill="none" stroke="#e7298a" points="2348.25,-94.84 2410.75,-94.84"/>
<text xml:space="preserve" text-anchor="middle" x="2379.5" y="-77.54" font-family="Times,serif" font-size="14.00" fill="#e7298a">0:0 &#45; 0:0</text>
</g>
<!-- n1&#45;&gt;x8 -->
<g id="edge7" class="edge">
<title>n1:e&#45;&gt;x8:w</title>
<path fill="none" stroke="#e7298a" stroke-width="3" d="M2306.82,-177.59C2323.03,-177.59 2326.54,-164.47 2337.19,-158.73"/>
<polygon fill="#e7298a" stroke="#e7298a" stroke-width="3" points="2334.91,-162.87 2343.83,-157.15 2333.29,-156.06 2334.91,-162.87"/>
</g>
<!-- n2 -->
<g id="node2" class="node">
<title>n2</title>
<polygon fill="none" stroke="black" points="1677.72,-153.59 1650.69,-135.59 1677.72,-117.59 1704.74,-135.59 1677.72,-153.59"/>
<text xml:space="preserve" text-anchor="middle" x="1677.72" y="-130.54" font-family="Times,serif" font-size="14.00">s2</text>
</g>
<!-- c17 -->
<g id="node15" class="node">
<title>c17</title>
<polygon fill="none" stroke="black" points="1747.98,-176.84 1747.98,-250.34 2207.73,-250.34 2207.73,-176.84 1747.98,-176.84"/>
<text xml:space="preserve" text-anchor="middle" x="1764.23" y="-233.04" font-family="Times,serif" font-size="14.00">a</text>
<polyline fill="none" stroke="black" points="1747.98,-225.84 1780.48,-225.84"/>
<text xml:space="preserve" text-anchor="middle" x="1764.23" y="-208.54" font-family="Times,serif" font-size="14.00">b</text>
<polyline fill="none" stroke="black" points="1747.98,-201.34 1780.48,-201.34"/>
<text xml:space="preserve" text-anchor="middle" x="1764.23" y="-184.04" font-family="Times,serif" font-size="14.00">cin</text>
<polyline fill="none" stroke="black" points="1780.48,-176.84 1780.48,-250.34"/>
<text xml:space="preserve" text-anchor="middle" x="1974.48" y="-218.67" font-family="Times,serif" font-size="14.00">a3</text>
<text xml:space="preserve" text-anchor="middle" x="1974.48" y="-202.17" font-family="Times,serif" font-size="14.00">$paramod╲adder1╲n=s32&#39;00000000000000000000000000000100</text>
<polyline fill="none" stroke="black" points="2168.48,-176.84 2168.48,-250.34"/>
<text xml:space="preserve" text-anchor="middle" x="2188.1" y="-227.04" font-family="Times,serif" font-size="14.00">cout</text>
<polyline fill="none" stroke="black" points="2168.48,-213.84 2207.73,-213.84"/>
<text xml:space="preserve" text-anchor="middle" x="2188.1" y="-190.54" font-family="Times,serif" font-size="14.00">s</text>
</g>
<!-- n2&#45;&gt;c17 -->
<g id="edge21" class="edge">
<title>n2:e&#45;&gt;c17:w</title>
<path fill="none" stroke="#e6ab02" stroke-width="3" d="M1706.55,-135.59C1741.2,-135.59 1716.37,-196.38 1737.08,-210.63"/>
<polygon fill="#e6ab02" stroke="#e6ab02" stroke-width="3" points="1733.03,-213.16 1743.59,-212.4 1734.86,-206.4 1733.03,-213.16"/>
</g>
<!-- n2&#45;&gt;x8 -->
<g id="edge22" class="edge">
<title>n2:e&#45;&gt;x8:w</title>
<path fill="none" stroke="#e6ab02" d="M1706.55,-135.59C1988,-135.59 2061.13,-131.7 2337.08,-131.6"/>
<polygon fill="#e6ab02" stroke="#e6ab02" points="2336.73,-135.1 2346.73,-131.59 2336.73,-128.1 2336.73,-135.1"/>
</g>
<!-- n3 -->
<g id="node3" class="node">
<title>n3</title>
<polygon fill="none" stroke="black" points="1077.45,-161.59 1050.42,-143.59 1077.45,-125.59 1104.47,-143.59 1077.45,-161.59"/>
<text xml:space="preserve" text-anchor="middle" x="1077.45" y="-138.54" font-family="Times,serif" font-size="14.00">s1</text>
</g>
<!-- c18 -->
<g id="node17" class="node">
<title>c18</title>
<polygon fill="none" stroke="black" points="1147.71,-117.84 1147.71,-191.34 1607.46,-191.34 1607.46,-117.84 1147.71,-117.84"/>
<text xml:space="preserve" text-anchor="middle" x="1163.96" y="-174.04" font-family="Times,serif" font-size="14.00">a</text>
<polyline fill="none" stroke="black" points="1147.71,-166.84 1180.21,-166.84"/>
<text xml:space="preserve" text-anchor="middle" x="1163.96" y="-149.54" font-family="Times,serif" font-size="14.00">b</text>
<polyline fill="none" stroke="black" points="1147.71,-142.34 1180.21,-142.34"/>
<text xml:space="preserve" text-anchor="middle" x="1163.96" y="-125.04" font-family="Times,serif" font-size="14.00">cin</text>
<polyline fill="none" stroke="black" points="1180.21,-117.84 1180.21,-191.34"/>
<text xml:space="preserve" text-anchor="middle" x="1374.21" y="-159.67" font-family="Times,serif" font-size="14.00">a2</text>
<text xml:space="preserve" text-anchor="middle" x="1374.21" y="-143.17" font-family="Times,serif" font-size="14.00">$paramod╲adder1╲n=s32&#39;00000000000000000000000000000100</text>
<polyline fill="none" stroke="black" points="1568.21,-117.84 1568.21,-191.34"/>
<text xml:space="preserve" text-anchor="middle" x="1587.83" y="-168.04" font-family="Times,serif" font-size="14.00">cout</text>
<polyline fill="none" stroke="black" points="1568.21,-154.84 1607.46,-154.84"/>
<text xml:space="preserve" text-anchor="middle" x="1587.83" y="-131.54" font-family="Times,serif" font-size="14.00">s</text>
</g>
<!-- n3&#45;&gt;c18 -->
<g id="edge24" class="edge">
<title>n3:e&#45;&gt;c18:w</title>
<path fill="none" stroke="#e6ab02" stroke-width="3" d="M1106.28,-143.59C1120.87,-143.59 1126.23,-150.04 1136.5,-153.06"/>
<polygon fill="#e6ab02" stroke="#e6ab02" stroke-width="3" points="1132.83,-156.1 1143.21,-153.98 1133.77,-149.16 1132.83,-156.1"/>
</g>
<!-- n3&#45;&gt;x8 -->
<g id="edge25" class="edge">
<title>n3:e&#45;&gt;x8:w</title>
<path fill="none" stroke="#e6ab02" d="M1106.28,-143.59C1130.38,-143.59 1125.22,-117.28 1147.71,-108.59 1367.16,-23.8 1441.45,-89.59 1676.72,-89.59 1676.72,-89.59 1676.72,-89.59 1978.85,-89.59 2139.36,-89.59 2181.91,-106.28 2336.89,-107.07"/>
<polygon fill="#e6ab02" stroke="#e6ab02" points="2336.72,-110.56 2346.73,-107.09 2336.74,-103.56 2336.72,-110.56"/>
</g>
<!-- n4 -->
<g id="node4" class="node">
<title>n4</title>
<polygon fill="none" stroke="black" points="2277.99,-249.59 2243.73,-231.59 2277.99,-213.59 2312.25,-231.59 2277.99,-249.59"/>
<text xml:space="preserve" text-anchor="middle" x="2277.99" y="-226.54" font-family="Times,serif" font-size="14.00">co3</text>
</g>
<!-- n4&#45;&gt;x8 -->
<g id="edge27" class="edge">
<title>n4:e&#45;&gt;x8:w</title>
<path fill="none" stroke="#d95f02" d="M2312.25,-231.59C2335.22,-231.59 2325.81,-196.62 2337.65,-184.6"/>
<polygon fill="#d95f02" stroke="#d95f02" points="2338.71,-187.94 2346.83,-181.13 2336.24,-181.39 2338.71,-187.94"/>
</g>
<!-- n5 -->
<g id="node5" class="node">
<title>n5</title>
<polygon fill="none" stroke="black" points="1677.72,-207.59 1643.46,-189.59 1677.72,-171.59 1711.98,-189.59 1677.72,-207.59"/>
<text xml:space="preserve" text-anchor="middle" x="1677.72" y="-184.54" font-family="Times,serif" font-size="14.00">co2</text>
</g>
<!-- n6 -->
<g id="node6" class="node">
<title>n6</title>
<polygon fill="none" stroke="black" points="1077.45,-215.59 1043.19,-197.59 1077.45,-179.59 1111.71,-197.59 1077.45,-215.59"/>
<text xml:space="preserve" text-anchor="middle" x="1077.45" y="-192.54" font-family="Times,serif" font-size="14.00">co1</text>
</g>
<!-- n7 -->
<g id="node7" class="node">
<title>n7</title>
<polygon fill="none" stroke="black" points="777.31,-317.59 742.33,-299.59 777.31,-281.59 812.29,-299.59 777.31,-317.59"/>
<text xml:space="preserve" text-anchor="middle" x="777.31" y="-294.54" font-family="Times,serif" font-size="14.00">pp3</text>
</g>
<!-- n7&#45;&gt;c17 -->
<g id="edge31" class="edge">
<title>n7:e&#45;&gt;c17:w</title>
<path fill="none" stroke="#1b9e77" stroke-width="3" d="M814.35,-299.59C1213.5,-299.59 1341.79,-419.88 1711.98,-270.59 1727.59,-264.3 1727.63,-248 1737.17,-241.17"/>
<polygon fill="#1b9e77" stroke="#1b9e77" stroke-width="3" points="1734.95,-245.45 1743.61,-239.34 1733.03,-238.71 1734.95,-245.45"/>
</g>
<!-- n8 -->
<g id="node8" class="node">
<title>n8</title>
<polygon fill="none" stroke="black" points="476.45,-266.59 441.47,-248.59 476.45,-230.59 511.44,-248.59 476.45,-266.59"/>
<text xml:space="preserve" text-anchor="middle" x="476.45" y="-243.54" font-family="Times,serif" font-size="14.00">pp2</text>
</g>
<!-- n8&#45;&gt;c18 -->
<g id="edge33" class="edge">
<title>n8:e&#45;&gt;c18:w</title>
<path fill="none" stroke="#1b9e77" stroke-width="3" d="M511.44,-248.59C644.94,-248.59 992.72,-285.14 1111.71,-224.59 1130.38,-215.09 1125.45,-190.99 1136.78,-182.29"/>
<polygon fill="#1b9e77" stroke="#1b9e77" stroke-width="3" points="1134.73,-186.54 1143.35,-180.37 1132.77,-179.82 1134.73,-186.54"/>
</g>
<!-- n9 -->
<g id="node9" class="node">
<title>n9</title>
<polygon fill="none" stroke="black" points="370.48,-209.59 335.5,-191.59 370.48,-173.59 405.47,-191.59 370.48,-209.59"/>
<text xml:space="preserve" text-anchor="middle" x="370.48" y="-186.54" font-family="Times,serif" font-size="14.00">pp1</text>
</g>
<!-- c19 -->
<g id="node19" class="node">
<title>c19</title>
<polygon fill="none" stroke="black" points="547.44,-124.84 547.44,-198.34 1007.19,-198.34 1007.19,-124.84 547.44,-124.84"/>
<text xml:space="preserve" text-anchor="middle" x="563.69" y="-181.04" font-family="Times,serif" font-size="14.00">a</text>
<polyline fill="none" stroke="black" points="547.44,-173.84 579.94,-173.84"/>
<text xml:space="preserve" text-anchor="middle" x="563.69" y="-156.54" font-family="Times,serif" font-size="14.00">b</text>
<polyline fill="none" stroke="black" points="547.44,-149.34 579.94,-149.34"/>
<text xml:space="preserve" text-anchor="middle" x="563.69" y="-132.04" font-family="Times,serif" font-size="14.00">cin</text>
<polyline fill="none" stroke="black" points="579.94,-124.84 579.94,-198.34"/>
<text xml:space="preserve" text-anchor="middle" x="773.94" y="-166.67" font-family="Times,serif" font-size="14.00">a1</text>
<text xml:space="preserve" text-anchor="middle" x="773.94" y="-150.17" font-family="Times,serif" font-size="14.00">$paramod╲adder1╲n=s32&#39;00000000000000000000000000000100</text>
<polyline fill="none" stroke="black" points="967.94,-124.84 967.94,-198.34"/>
<text xml:space="preserve" text-anchor="middle" x="987.56" y="-175.04" font-family="Times,serif" font-size="14.00">cout</text>
<polyline fill="none" stroke="black" points="967.94,-161.84 1007.19,-161.84"/>
<text xml:space="preserve" text-anchor="middle" x="987.56" y="-138.54" font-family="Times,serif" font-size="14.00">s</text>
</g>
<!-- n9&#45;&gt;c19 -->
<g id="edge35" class="edge">
<title>n9:e&#45;&gt;c19:w</title>
<path fill="none" stroke="#7570b3" stroke-width="3" d="M405.47,-191.59C464.67,-191.59 482.15,-186.76 536.13,-186.16"/>
<polygon fill="#7570b3" stroke="#7570b3" stroke-width="3" points="532.91,-189.67 542.9,-186.12 532.88,-182.67 532.91,-189.67"/>
</g>
<!-- n10 -->
<g id="node10" class="node">
<title>n10</title>
<polygon fill="none" stroke="black" points="370.48,-126.59 335.5,-108.59 370.48,-90.59 405.47,-108.59 370.48,-126.59"/>
<text xml:space="preserve" text-anchor="middle" x="370.48" y="-103.54" font-family="Times,serif" font-size="14.00">pp0</text>
</g>
<!-- x3 -->
<g id="node20" class="node">
<title>x3</title>
<path fill="none" stroke="#666666" d="M457.2,-125.09C457.2,-125.09 495.7,-125.09 495.7,-125.09 501.7,-125.09 507.7,-131.09 507.7,-137.09 507.7,-137.09 507.7,-162.09 507.7,-162.09 507.7,-168.09 501.7,-174.09 495.7,-174.09 495.7,-174.09 457.2,-174.09 457.2,-174.09 451.2,-174.09 445.2,-168.09 445.2,-162.09 445.2,-162.09 445.2,-137.09 445.2,-137.09 445.2,-131.09 451.2,-125.09 457.2,-125.09"/>
<text xml:space="preserve" text-anchor="middle" x="476.45" y="-156.79" font-family="Times,serif" font-size="14.00" fill="#666666">0 &#45;&gt; 3:3</text>
<polyline fill="none" stroke="#666666" points="445.2,-149.59 507.7,-149.59"/>
<text xml:space="preserve" text-anchor="middle" x="476.45" y="-132.29" font-family="Times,serif" font-size="14.00" fill="#666666">3:1 &#45; 2:0</text>
</g>
<!-- n10&#45;&gt;x3 -->
<g id="edge9" class="edge">
<title>n10:e&#45;&gt;x3:w</title>
<path fill="none" stroke="#7570b3" stroke-width="3" d="M405.47,-108.59C422.22,-108.59 423.35,-126.14 433.27,-133.82"/>
<polygon fill="#7570b3" stroke="#7570b3" stroke-width="3" points="429.29,-136.21 439.88,-135.95 431.44,-129.55 429.29,-136.21"/>
</g>
<!-- n10&#45;&gt;x8 -->
<g id="edge10" class="edge">
<title>n10:e&#45;&gt;x8:w</title>
<path fill="none" stroke="#7570b3" d="M405.47,-108.59C431.78,-108.59 418.21,-73.91 441.47,-61.59 573.2,8.15 627.25,-42.59 776.31,-42.59 776.31,-42.59 776.31,-42.59 1978.85,-42.59 2140.12,-42.59 2181.21,-80.74 2336.84,-82.53"/>
<polygon fill="#7570b3" stroke="#7570b3" points="2336.71,-86.03 2346.73,-82.59 2336.75,-79.03 2336.71,-86.03"/>
</g>
<!-- n11 -->
<g id="node11" class="node">
<title>n11</title>
<polygon fill="none" stroke="black" points="2500.75,-124.14 2500.75,-139.05 2484.93,-149.59 2462.56,-149.59 2446.75,-139.05 2446.75,-124.14 2462.56,-113.59 2484.93,-113.59 2500.75,-124.14"/>
<text xml:space="preserve" text-anchor="middle" x="2473.75" y="-126.54" font-family="Times,serif" font-size="14.00">p</text>
</g>
<!-- n12 -->
<g id="node12" class="node">
<title>n12</title>
<polygon fill="none" stroke="black" points="54,-191.14 54,-206.05 38.18,-216.59 15.82,-216.59 0,-206.05 0,-191.14 15.82,-180.59 38.18,-180.59 54,-191.14"/>
<text xml:space="preserve" text-anchor="middle" x="27" y="-193.54" font-family="Times,serif" font-size="14.00">b</text>
</g>
<!-- x4 -->
<g id="node22" class="node">
<title>x4</title>
<path fill="none" stroke="#66a61e" d="M102,-290.59C102,-290.59 157.75,-290.59 157.75,-290.59 163.75,-290.59 169.75,-296.59 169.75,-302.59 169.75,-302.59 169.75,-314.59 169.75,-314.59 169.75,-320.59 163.75,-326.59 157.75,-326.59 157.75,-326.59 102,-326.59 102,-326.59 96,-326.59 90,-320.59 90,-314.59 90,-314.59 90,-302.59 90,-302.59 90,-296.59 96,-290.59 102,-290.59"/>
<text xml:space="preserve" text-anchor="middle" x="129.88" y="-303.79" font-family="Times,serif" font-size="14.00" fill="#66a61e">4x 3:3 &#45; 3:0</text>
</g>
<!-- n12&#45;&gt;x4 -->
<g id="edge12" class="edge">
<title>n12:e&#45;&gt;x4:w</title>
<path fill="none" stroke="#1b9e77" stroke-width="3" d="M54,-198.59C100.92,-198.59 49.55,-289.92 78.81,-306.33"/>
<polygon fill="#1b9e77" stroke="#1b9e77" stroke-width="3" points="75.05,-309.08 85.57,-307.85 76.58,-302.25 75.05,-309.08"/>
</g>
<!-- x5 -->
<g id="node24" class="node">
<title>x5</title>
<path fill="none" stroke="#1b9e77" d="M102,-235.59C102,-235.59 157.75,-235.59 157.75,-235.59 163.75,-235.59 169.75,-241.59 169.75,-247.59 169.75,-247.59 169.75,-259.59 169.75,-259.59 169.75,-265.59 163.75,-271.59 157.75,-271.59 157.75,-271.59 102,-271.59 102,-271.59 96,-271.59 90,-265.59 90,-259.59 90,-259.59 90,-247.59 90,-247.59 90,-241.59 96,-235.59 102,-235.59"/>
<text xml:space="preserve" text-anchor="middle" x="129.88" y="-248.79" font-family="Times,serif" font-size="14.00" fill="#1b9e77">4x 2:2 &#45; 3:0</text>
</g>
<!-- n12&#45;&gt;x5 -->
<g id="edge13" class="edge">
<title>n12:e&#45;&gt;x5:w</title>
<path fill="none" stroke="#1b9e77" stroke-width="3" d="M54,-198.59C78.5,-198.59 66.72,-237.2 79.31,-249.87"/>
<polygon fill="#1b9e77" stroke="#1b9e77" stroke-width="3" points="75.15,-252.06 85.74,-252.26 77.59,-245.5 75.15,-252.06"/>
</g>
<!-- x6 -->
<g id="node26" class="node">
<title>x6</title>
<path fill="none" stroke="#1b9e77" d="M102,-125.59C102,-125.59 157.75,-125.59 157.75,-125.59 163.75,-125.59 169.75,-131.59 169.75,-137.59 169.75,-137.59 169.75,-149.59 169.75,-149.59 169.75,-155.59 163.75,-161.59 157.75,-161.59 157.75,-161.59 102,-161.59 102,-161.59 96,-161.59 90,-155.59 90,-149.59 90,-149.59 90,-137.59 90,-137.59 90,-131.59 96,-125.59 102,-125.59"/>
<text xml:space="preserve" text-anchor="middle" x="129.88" y="-138.79" font-family="Times,serif" font-size="14.00" fill="#1b9e77">4x 1:1 &#45; 3:0</text>
</g>
<!-- n12&#45;&gt;x6 -->
<g id="edge14" class="edge">
<title>n12:e&#45;&gt;x6:w</title>
<path fill="none" stroke="#1b9e77" stroke-width="3" d="M54,-198.59C78.34,-198.59 66.79,-160.33 79.36,-147.78"/>
<polygon fill="#1b9e77" stroke="#1b9e77" stroke-width="3" points="77.58,-152.17 85.74,-145.42 75.15,-145.61 77.58,-152.17"/>
</g>
<!-- x7 -->
<g id="node28" class="node">
<title>x7</title>
<path fill="none" stroke="#7570b3" d="M102,-70.59C102,-70.59 157.75,-70.59 157.75,-70.59 163.75,-70.59 169.75,-76.59 169.75,-82.59 169.75,-82.59 169.75,-94.59 169.75,-94.59 169.75,-100.59 163.75,-106.59 157.75,-106.59 157.75,-106.59 102,-106.59 102,-106.59 96,-106.59 90,-100.59 90,-94.59 90,-94.59 90,-82.59 90,-82.59 90,-76.59 96,-70.59 102,-70.59"/>
<text xml:space="preserve" text-anchor="middle" x="129.88" y="-83.79" font-family="Times,serif" font-size="14.00" fill="#7570b3">4x 0:0 &#45; 3:0</text>
</g>
<!-- n12&#45;&gt;x7 -->
<g id="edge15" class="edge">
<title>n12:e&#45;&gt;x7:w</title>
<path fill="none" stroke="#1b9e77" stroke-width="3" d="M54,-198.59C100.72,-198.59 49.69,-107.68 78.85,-91.34"/>
<polygon fill="#1b9e77" stroke="#1b9e77" stroke-width="3" points="76.58,-95.44 85.57,-89.84 75.05,-88.61 76.58,-95.44"/>
</g>
<!-- n13 -->
<g id="node13" class="node">
<title>n13</title>
<polygon fill="none" stroke="black" points="156.88,-191.14 156.88,-206.05 141.06,-216.59 118.69,-216.59 102.88,-206.05 102.88,-191.14 118.69,-180.59 141.06,-180.59 156.88,-191.14"/>
<text xml:space="preserve" text-anchor="middle" x="129.88" y="-193.54" font-family="Times,serif" font-size="14.00">a</text>
</g>
<!-- c23 -->
<g id="node21" class="node">
<title>c23</title>
<polygon fill="none" stroke="black" points="205.75,-292.09 205.75,-341.09 299.5,-341.09 299.5,-292.09 205.75,-292.09"/>
<text xml:space="preserve" text-anchor="middle" x="218.62" y="-323.79" font-family="Times,serif" font-size="14.00">A</text>
<polyline fill="none" stroke="black" points="205.75,-316.59 231.5,-316.59"/>
<text xml:space="preserve" text-anchor="middle" x="218.62" y="-299.29" font-family="Times,serif" font-size="14.00">B</text>
<polyline fill="none" stroke="black" points="231.5,-292.09 231.5,-341.09"/>
<text xml:space="preserve" text-anchor="middle" x="252.62" y="-319.79" font-family="Times,serif" font-size="14.00">$38</text>
<text xml:space="preserve" text-anchor="middle" x="252.62" y="-303.29" font-family="Times,serif" font-size="14.00">$and</text>
<polyline fill="none" stroke="black" points="273.75,-292.09 273.75,-341.09"/>
<text xml:space="preserve" text-anchor="middle" x="286.62" y="-311.79" font-family="Times,serif" font-size="14.00">Y</text>
</g>
<!-- n13&#45;&gt;c23 -->
<g id="edge16" class="edge">
<title>n13:e&#45;&gt;c23:w</title>
<path fill="none" stroke="#1b9e77" stroke-width="3" d="M158.13,-198.59C215.31,-198.59 154.33,-310.7 194.43,-326.9"/>
<polygon fill="#1b9e77" stroke="#1b9e77" stroke-width="3" points="190.83,-329.83 201.27,-328.08 192.01,-322.93 190.83,-329.83"/>
</g>
<!-- c24 -->
<g id="node23" class="node">
<title>c24</title>
<polygon fill="none" stroke="black" points="205.75,-224.09 205.75,-273.09 299.5,-273.09 299.5,-224.09 205.75,-224.09"/>
<text xml:space="preserve" text-anchor="middle" x="218.62" y="-255.79" font-family="Times,serif" font-size="14.00">A</text>
<polyline fill="none" stroke="black" points="205.75,-248.59 231.5,-248.59"/>
<text xml:space="preserve" text-anchor="middle" x="218.62" y="-231.29" font-family="Times,serif" font-size="14.00">B</text>
<polyline fill="none" stroke="black" points="231.5,-224.09 231.5,-273.09"/>
<text xml:space="preserve" text-anchor="middle" x="252.62" y="-251.79" font-family="Times,serif" font-size="14.00">$37</text>
<text xml:space="preserve" text-anchor="middle" x="252.62" y="-235.29" font-family="Times,serif" font-size="14.00">$and</text>
<polyline fill="none" stroke="black" points="273.75,-224.09 273.75,-273.09"/>
<text xml:space="preserve" text-anchor="middle" x="286.62" y="-243.79" font-family="Times,serif" font-size="14.00">Y</text>
</g>
<!-- n13&#45;&gt;c24 -->
<g id="edge17" class="edge">
<title>n13:e&#45;&gt;c24:w</title>
<path fill="none" stroke="#1b9e77" stroke-width="3" d="M158.13,-198.59C188.47,-198.59 175.65,-245.83 194.87,-258.01"/>
<polygon fill="#1b9e77" stroke="#1b9e77" stroke-width="3" points="190.8,-260.56 201.36,-259.7 192.56,-253.79 190.8,-260.56"/>
</g>
<!-- c25 -->
<g id="node25" class="node">
<title>c25</title>
<polygon fill="none" stroke="black" points="205.75,-156.09 205.75,-205.09 299.5,-205.09 299.5,-156.09 205.75,-156.09"/>
<text xml:space="preserve" text-anchor="middle" x="218.62" y="-187.79" font-family="Times,serif" font-size="14.00">A</text>
<polyline fill="none" stroke="black" points="205.75,-180.59 231.5,-180.59"/>
<text xml:space="preserve" text-anchor="middle" x="218.62" y="-163.29" font-family="Times,serif" font-size="14.00">B</text>
<polyline fill="none" stroke="black" points="231.5,-156.09 231.5,-205.09"/>
<text xml:space="preserve" text-anchor="middle" x="252.62" y="-183.79" font-family="Times,serif" font-size="14.00">$36</text>
<text xml:space="preserve" text-anchor="middle" x="252.62" y="-167.29" font-family="Times,serif" font-size="14.00">$and</text>
<polyline fill="none" stroke="black" points="273.75,-156.09 273.75,-205.09"/>
<text xml:space="preserve" text-anchor="middle" x="286.62" y="-175.79" font-family="Times,serif" font-size="14.00">Y</text>
</g>
<!-- n13&#45;&gt;c25 -->
<g id="edge18" class="edge">
<title>n13:e&#45;&gt;c25:w</title>
<path fill="none" stroke="#1b9e77" stroke-width="3" d="M158.13,-198.59C175.12,-198.59 181.73,-194.94 194.51,-193.46"/>
<polygon fill="#1b9e77" stroke="#1b9e77" stroke-width="3" points="191.42,-197.13 201.22,-193.09 191.04,-190.14 191.42,-197.13"/>
</g>
<!-- c26 -->
<g id="node27" class="node">
<title>c26</title>
<polygon fill="none" stroke="black" points="205.75,-84.09 205.75,-133.09 299.5,-133.09 299.5,-84.09 205.75,-84.09"/>
<text xml:space="preserve" text-anchor="middle" x="218.62" y="-115.79" font-family="Times,serif" font-size="14.00">A</text>
<polyline fill="none" stroke="black" points="205.75,-108.59 231.5,-108.59"/>
<text xml:space="preserve" text-anchor="middle" x="218.62" y="-91.29" font-family="Times,serif" font-size="14.00">B</text>
<polyline fill="none" stroke="black" points="231.5,-84.09 231.5,-133.09"/>
<text xml:space="preserve" text-anchor="middle" x="252.62" y="-111.79" font-family="Times,serif" font-size="14.00">$35</text>
<text xml:space="preserve" text-anchor="middle" x="252.62" y="-95.29" font-family="Times,serif" font-size="14.00">$and</text>
<polyline fill="none" stroke="black" points="273.75,-84.09 273.75,-133.09"/>
<text xml:space="preserve" text-anchor="middle" x="286.62" y="-103.79" font-family="Times,serif" font-size="14.00">Y</text>
</g>
<!-- n13&#45;&gt;c26 -->
<g id="edge19" class="edge">
<title>n13:e&#45;&gt;c26:w</title>
<path fill="none" stroke="#1b9e77" stroke-width="3" d="M158.13,-198.59C194.06,-198.59 171.85,-137.46 194.61,-123.61"/>
<polygon fill="#1b9e77" stroke="#1b9e77" stroke-width="3" points="192.48,-127.75 201.34,-121.94 190.79,-120.95 192.48,-127.75"/>
</g>
<!-- v0 -->
<g id="node14" class="node">
<title>v0</title>
<ellipse fill="none" stroke="black" cx="1677.72" cy="-243.59" rx="27" ry="18"/>
<text xml:space="preserve" text-anchor="middle" x="1677.72" y="-238.54" font-family="Times,serif" font-size="14.00">1&#39;0</text>
</g>
<!-- v0&#45;&gt;c17 -->
<g id="edge36" class="edge">
<title>v0:e&#45;&gt;c17:w</title>
<path fill="none" stroke="#666666" d="M1705.97,-243.59C1732.01,-243.59 1721.99,-204.07 1737.32,-192.34"/>
<polygon fill="#666666" stroke="#666666" points="1737.98,-195.8 1746.53,-189.53 1735.94,-189.1 1737.98,-195.8"/>
</g>
<!-- c17&#45;&gt;n1 -->
<g id="edge6" class="edge">
<title>c17:e&#45;&gt;n1:w</title>
<path fill="none" stroke="#e7298a" stroke-width="3" d="M2207.73,-195.59C2223.25,-195.59 2227.53,-184.83 2237.96,-179.95"/>
<polygon fill="#e7298a" stroke="#e7298a" stroke-width="3" points="2235.64,-184.01 2244.71,-178.53 2234.2,-177.16 2235.64,-184.01"/>
</g>
<!-- c17&#45;&gt;n4 -->
<g id="edge26" class="edge">
<title>c17:e&#45;&gt;n4:w</title>
<path fill="none" stroke="#d95f02" d="M2207.73,-232.09C2219.1,-232.09 2224.41,-231.84 2232.28,-231.69"/>
<polygon fill="#d95f02" stroke="#d95f02" points="2232.24,-235.2 2242.21,-231.61 2232.18,-228.2 2232.24,-235.2"/>
</g>
<!-- v1 -->
<g id="node16" class="node">
<title>v1</title>
<ellipse fill="none" stroke="black" cx="1077.45" cy="-89.59" rx="27" ry="18"/>
<text xml:space="preserve" text-anchor="middle" x="1077.45" y="-84.54" font-family="Times,serif" font-size="14.00">1&#39;0</text>
</g>
<!-- v1&#45;&gt;c18 -->
<g id="edge37" class="edge">
<title>v1:e&#45;&gt;c18:w</title>
<path fill="none" stroke="#a6761d" d="M1105.7,-89.59C1126.97,-89.59 1124.16,-116.85 1136.78,-126.64"/>
<polygon fill="#a6761d" stroke="#a6761d" points="1135.67,-129.96 1146.26,-129.64 1137.78,-123.29 1135.67,-129.96"/>
</g>
<!-- c18&#45;&gt;n2 -->
<g id="edge20" class="edge">
<title>c18:e&#45;&gt;n2:w</title>
<path fill="none" stroke="#e6ab02" stroke-width="3" d="M1607.46,-136.59C1621.41,-136.59 1627.43,-136.02 1637.54,-135.74"/>
<polygon fill="#e6ab02" stroke="#e6ab02" stroke-width="3" points="1634.39,-139.28 1644.34,-135.65 1634.3,-132.28 1634.39,-139.28"/>
</g>
<!-- c18&#45;&gt;n5 -->
<g id="edge28" class="edge">
<title>c18:e&#45;&gt;n5:w</title>
<path fill="none" stroke="#d95f02" d="M1607.46,-173.09C1620.38,-173.09 1624.25,-181.99 1632.36,-186.72"/>
<polygon fill="#d95f02" stroke="#d95f02" points="1631.43,-190.1 1641.99,-189.21 1633.19,-183.32 1631.43,-190.1"/>
</g>
<!-- v2 -->
<g id="node18" class="node">
<title>v2</title>
<ellipse fill="none" stroke="black" cx="476.45" cy="-88.59" rx="27" ry="18"/>
<text xml:space="preserve" text-anchor="middle" x="476.45" y="-83.54" font-family="Times,serif" font-size="14.00">1&#39;0</text>
</g>
<!-- v2&#45;&gt;c19 -->
<g id="edge38" class="edge">
<title>v2:e&#45;&gt;c19:w</title>
<path fill="none" stroke="#7570b3" d="M504.7,-88.59C528.94,-88.59 522.25,-123.12 536.82,-133.91"/>
<polygon fill="#7570b3" stroke="#7570b3" points="535.4,-137.14 545.99,-136.66 537.41,-130.43 535.4,-137.14"/>
</g>
<!-- c19&#45;&gt;n3 -->
<g id="edge23" class="edge">
<title>c19:e&#45;&gt;n3:w</title>
<path fill="none" stroke="#e6ab02" stroke-width="3" d="M1007.19,-143.59C1021.14,-143.59 1027.16,-143.59 1037.27,-143.59"/>
<polygon fill="#e6ab02" stroke="#e6ab02" stroke-width="3" points="1034.07,-147.09 1044.07,-143.59 1034.07,-140.09 1034.07,-147.09"/>
</g>
<!-- c19&#45;&gt;n6 -->
<g id="edge29" class="edge">
<title>c19:e&#45;&gt;n6:w</title>
<path fill="none" stroke="#d95f02" d="M1007.19,-180.09C1020.39,-180.09 1024.02,-189.73 1032.29,-194.7"/>
<polygon fill="#d95f02" stroke="#d95f02" points="1031.16,-198.02 1041.72,-197.21 1032.95,-191.26 1031.16,-198.02"/>
</g>
<!-- x3&#45;&gt;c19 -->
<g id="edge1" class="edge">
<title>x3:e&#45;&gt;c19:w</title>
<path fill="none" stroke="#66a61e" stroke-width="3" d="M521.5,-152.14C526.23,-154.18 529.92,-157.02 534.64,-159.05"/>
<polygon fill="none" stroke="#66a61e" stroke-width="3" points="523.12,-152.46 516.46,-155.21 511.35,-150.12 518.02,-147.37 523.12,-152.46"/>
<polygon fill="none" stroke="#66a61e" stroke-width="3" points="533.01,-158.73 539.68,-155.97 544.78,-161.07 538.12,-163.82 533.01,-158.73"/>
</g>
<!-- c23&#45;&gt;n7 -->
<g id="edge30" class="edge">
<title>c23:e&#45;&gt;n7:w</title>
<path fill="none" stroke="#1b9e77" stroke-width="3" d="M299.5,-316.84C491.72,-316.84 542.27,-300.26 728.95,-299.61"/>
<polygon fill="#1b9e77" stroke="#1b9e77" stroke-width="3" points="725.74,-303.12 735.73,-299.6 725.73,-296.12 725.74,-303.12"/>
</g>
<!-- x4&#45;&gt;c23 -->
<g id="edge2" class="edge">
<title>x4:e&#45;&gt;c23:w</title>
<path fill="none" stroke="#1b9e77" stroke-width="3" d="M182.5,-307.52C186.08,-306.89 189.19,-306.1 192.75,-305.46"/>
<polygon fill="none" stroke="#1b9e77" stroke-width="3" points="184.4,-307.36 178.76,-311.85 172.44,-308.37 178.09,-303.88 184.4,-307.36"/>
<polygon fill="none" stroke="#1b9e77" stroke-width="3" points="191.1,-305.6 196.74,-301.1 203.06,-304.58 197.42,-309.07 191.1,-305.6"/>
</g>
<!-- c24&#45;&gt;n8 -->
<g id="edge32" class="edge">
<title>c24:e&#45;&gt;n8:w</title>
<path fill="none" stroke="#1b9e77" stroke-width="3" d="M299.5,-248.84C358.65,-248.84 376.21,-248.62 430.17,-248.6"/>
<polygon fill="#1b9e77" stroke="#1b9e77" stroke-width="3" points="426.93,-252.1 436.93,-248.59 426.93,-245.1 426.93,-252.1"/>
</g>
<!-- x5&#45;&gt;c24 -->
<g id="edge3" class="edge">
<title>x5:e&#45;&gt;c24:w</title>
<path fill="none" stroke="#1b9e77" stroke-width="3" d="M181.9,-249.94C186.19,-247.01 189.32,-242.92 193.61,-240"/>
<polygon fill="none" stroke="#1b9e77" stroke-width="3" points="183.83,-249.35 179.24,-254.91 172.34,-252.81 176.93,-247.25 183.83,-249.35"/>
<polygon fill="none" stroke="#1b9e77" stroke-width="3" points="191.67,-240.58 196.26,-235.02 203.16,-237.12 198.57,-242.68 191.67,-240.58"/>
</g>
<!-- c25&#45;&gt;n9 -->
<g id="edge34" class="edge">
<title>c25:e&#45;&gt;n9:w</title>
<path fill="none" stroke="#7570b3" stroke-width="3" d="M299.5,-180.84C311.63,-180.84 316.32,-186.52 324.39,-189.62"/>
<polygon fill="#7570b3" stroke="#7570b3" stroke-width="3" points="320.57,-192.5 331.03,-190.8 321.79,-185.61 320.57,-192.5"/>
</g>
<!-- x6&#45;&gt;c25 -->
<g id="edge4" class="edge">
<title>x6:e&#45;&gt;c25:w</title>
<path fill="none" stroke="#7570b3" stroke-width="3" d="M181.84,-148.37C186.41,-152.75 189.1,-159.21 193.67,-163.59"/>
<polygon fill="none" stroke="#7570b3" stroke-width="3" points="183.43,-148.99 176.38,-150.51 172.27,-144.59 179.31,-143.07 183.43,-148.99"/>
<polygon fill="none" stroke="#7570b3" stroke-width="3" points="192.07,-162.95 199.12,-161.43 203.23,-167.35 196.19,-168.88 192.07,-162.95"/>
</g>
<!-- c26&#45;&gt;n10 -->
<g id="edge8" class="edge">
<title>c26:e&#45;&gt;n10:w</title>
<path fill="none" stroke="#7570b3" stroke-width="3" d="M299.5,-108.84C310.88,-108.84 316.18,-108.72 324.05,-108.64"/>
<polygon fill="#7570b3" stroke="#7570b3" stroke-width="3" points="320.98,-112.16 330.96,-108.61 320.94,-105.16 320.98,-112.16"/>
</g>
<!-- x7&#45;&gt;c26 -->
<g id="edge5" class="edge">
<title>x7:e&#45;&gt;c26:w</title>
<path fill="none" stroke="#e7298a" stroke-width="3" d="M182.56,-90.55C186.22,-91.73 189.35,-93.24 193.03,-94.42"/>
<polygon fill="none" stroke="#e7298a" stroke-width="3" points="184.29,-90.81 177.75,-93.86 172.42,-89 178.96,-85.95 184.29,-90.81"/>
<polygon fill="none" stroke="#e7298a" stroke-width="3" points="191.21,-94.14 197.74,-91.08 203.08,-95.94 196.54,-98.99 191.21,-94.14"/>
</g>
<!-- x8&#45;&gt;n11 -->
<g id="edge11" class="edge">
<title>x8:e&#45;&gt;n11:w</title>
<path fill="none" stroke="#d95f02" stroke-width="3" d="M2410.75,-131.59C2422.12,-131.59 2427.43,-131.59 2435.3,-131.59"/>
<polygon fill="#d95f02" stroke="#d95f02" stroke-width="3" points="2432.21,-135.09 2442.21,-131.59 2432.21,-128.09 2432.21,-135.09"/>
</g>
</g>
</svg>
