<svg style="background:white" xmlns="http://www.w3.org/2000/svg" xmlns:xlink="http://www.w3.org/1999/xlink" xmlns:s="https://github.com/nturley/netlistsvg" width="734" height="418">
  <style>svg {
    stroke:#000;
    fill:none;
  }
  text {
    fill:#000;
    stroke:none;
    font-size:10px;
    font-weight: bold;
    font-family: "Courier New", monospace;
  }
  .nodelabel {
    text-anchor: middle;
  }
  .inputPortLabel {
    text-anchor: end;
  }
  .splitjoinBody {
    fill:#000;
  }</style>
  <g s:type="add" transform="translate(220.66666666666666,139)" s:width="25" s:height="25" id="cell_$add$.yosys_tmp/counter.sv:23$3">
    <s:alias val="$add"/>
    <circle r="12.5" cx="12.5" cy="12.5" class="cell_$add$.yosys_tmp/counter.sv:23$3"/>
    <line x1="7.5" x2="17.5" y1="12.5" y2="12.5" class="cell_$add$.yosys_tmp/counter.sv:23$3"/>
    <line x1="12.5" x2="12.5" y1="7.5" y2="17.5" class="cell_$add$.yosys_tmp/counter.sv:23$3"/>
    <g s:x="3" s:y="5" s:pid="A"/>
    <g s:x="3" s:y="20" s:pid="B"/>
    <g s:x="25" s:y="12.5" s:pid="Y"/>
  </g>
  <g s:type="generic" transform="translate(114,332)" s:width="30" s:height="40" id="cell_$procdff$22">
    <text x="15" y="-4" class="nodelabel cell_$procdff$22" s:attribute="ref">$adff</text>
    <rect width="30" height="60" s:generic="body" class="cell_$procdff$22"/>
    <g transform="translate(0,10)" s:x="0" s:y="10" s:pid="in0" id="port_$procdff$22~ARST">
      <text x="-3" y="-4" class="inputPortLabel cell_$procdff$22">ARST</text>
    </g>
    <g transform="translate(0,30)" s:x="0" s:y="10" s:pid="in0" id="port_$procdff$22~CLK">
      <text x="-3" y="-4" class="inputPortLabel cell_$procdff$22">CLK</text>
    </g>
    <g transform="translate(0,50)" s:x="0" s:y="10" s:pid="in0" id="port_$procdff$22~D">
      <text x="-3" y="-4" class="inputPortLabel cell_$procdff$22">D</text>
    </g>
    <g transform="translate(30,10)" s:x="30" s:y="10" s:pid="out0" id="port_$procdff$22~Q">
      <text x="5" y="-4" style="fill:#000; stroke:none" class="cell_$procdff$22">Q</text>
    </g>
  </g>
  <g s:type="generic" transform="translate(557,101)" s:width="30" s:height="40" id="cell_$procdff$27">
    <text x="15" y="-4" class="nodelabel cell_$procdff$27" s:attribute="ref">$adff</text>
    <rect width="30" height="60" s:generic="body" class="cell_$procdff$27"/>
    <g transform="translate(0,10)" s:x="0" s:y="10" s:pid="in0" id="port_$procdff$27~ARST">
      <text x="-3" y="-4" class="inputPortLabel cell_$procdff$27">ARST</text>
    </g>
    <g transform="translate(0,30)" s:x="0" s:y="10" s:pid="in0" id="port_$procdff$27~CLK">
      <text x="-3" y="-4" class="inputPortLabel cell_$procdff$27">CLK</text>
    </g>
    <g transform="translate(0,50)" s:x="0" s:y="10" s:pid="in0" id="port_$procdff$27~D">
      <text x="-3" y="-4" class="inputPortLabel cell_$procdff$27">D</text>
    </g>
    <g transform="translate(30,10)" s:x="30" s:y="10" s:pid="out0" id="port_$procdff$27~Q">
      <text x="5" y="-4" style="fill:#000; stroke:none" class="cell_$procdff$27">Q</text>
    </g>
  </g>
  <g s:type="mux" transform="translate(477,131.5)" s:width="20" s:height="40" id="cell_$procmux$10">
    <s:alias val="$pmux"/>
    <s:alias val="$mux"/>
    <s:alias val="$_MUX_"/>
    <path d="M0,0 L20,10 L20,30 L0,40 Z" class="cell_$procmux$10"/>
    <g s:x="0" s:y="10" s:pid="A"/>
    <g s:x="0" s:y="30" s:pid="B"/>
    <g s:x="10" s:y="35" s:pid="S"/>
    <g s:x="20" s:y="20" s:pid="Y"/>
  </g>
  <g s:type="mux" transform="translate(564,212.5)" s:width="20" s:height="40" id="cell_$procmux$13">
    <s:alias val="$pmux"/>
    <s:alias val="$mux"/>
    <s:alias val="$_MUX_"/>
    <path d="M0,0 L20,10 L20,30 L0,40 Z" class="cell_$procmux$13"/>
    <g s:x="0" s:y="10" s:pid="A"/>
    <g s:x="0" s:y="30" s:pid="B"/>
    <g s:x="10" s:y="35" s:pid="S"/>
    <g s:x="20" s:y="20" s:pid="Y"/>
  </g>
  <g s:type="mux" transform="translate(658,262.5)" s:width="20" s:height="40" id="cell_$procmux$16">
    <s:alias val="$pmux"/>
    <s:alias val="$mux"/>
    <s:alias val="$_MUX_"/>
    <path d="M0,0 L20,10 L20,30 L0,40 Z" class="cell_$procmux$16"/>
    <g s:x="0" s:y="10" s:pid="A"/>
    <g s:x="0" s:y="30" s:pid="B"/>
    <g s:x="10" s:y="35" s:pid="S"/>
    <g s:x="20" s:y="20" s:pid="Y"/>
  </g>
  <g s:type="mux" transform="translate(415.3333333333333,121.5)" s:width="20" s:height="40" id="cell_$procmux$7">
    <s:alias val="$pmux"/>
    <s:alias val="$mux"/>
    <s:alias val="$_MUX_"/>
    <path d="M0,0 L20,10 L20,30 L0,40 Z" class="cell_$procmux$7"/>
    <g s:x="0" s:y="10" s:pid="A"/>
    <g s:x="0" s:y="30" s:pid="B"/>
    <g s:x="10" s:y="35" s:pid="S"/>
    <g s:x="20" s:y="20" s:pid="Y"/>
  </g>
  <g s:type="sub" transform="translate(220.66666666666666,79)" s:width="25" s:height="25" id="cell_$sub$.yosys_tmp/counter.sv:23$4">
    <s:alias val="$sub"/>
    <circle r="12.5" cx="12.5" cy="12.5" class="cell_$sub$.yosys_tmp/counter.sv:23$4"/>
    <line x1="7.5" x2="17.5" y1="12.5" y2="12.5" class="cell_$sub$.yosys_tmp/counter.sv:23$4"/>
    <g s:x="3" s:y="5" s:pid="A"/>
    <g s:x="3" s:y="20" s:pid="B"/>
    <g s:x="25" s:y="12.5" s:pid="Y"/>
  </g>
  <g s:type="mux" transform="translate(292,121.5)" s:width="20" s:height="40" id="cell_$ternary$.yosys_tmp/counter.sv:23$5">
    <s:alias val="$pmux"/>
    <s:alias val="$mux"/>
    <s:alias val="$_MUX_"/>
    <path d="M0,0 L20,10 L20,30 L0,40 Z" class="cell_$ternary$.yosys_tmp/counter.sv:23$5"/>
    <g s:x="0" s:y="10" s:pid="A"/>
    <g s:x="0" s:y="30" s:pid="B"/>
    <g s:x="10" s:y="35" s:pid="S"/>
    <g s:x="20" s:y="20" s:pid="Y"/>
  </g>
  <g s:type="inputExt" transform="translate(12,352.5)" s:width="30" s:height="20" id="cell_clk">
    <text x="15" y="-4" class="nodelabel cell_clk" s:attribute="ref">clk</text>
    <s:alias val="$_inputExt_"/>
    <path d="M0,0 L0,20 L15,20 L30,10 L15,0 Z" class="cell_clk"/>
    <g s:x="28" s:y="10" s:pid="Y"/>
  </g>
  <g s:type="inputExt" transform="translate(12,22)" s:width="30" s:height="20" id="cell_reset_n">
    <text x="15" y="-4" class="nodelabel cell_reset_n" s:attribute="ref">reset_n</text>
    <s:alias val="$_inputExt_"/>
    <path d="M0,0 L0,20 L15,20 L30,10 L15,0 Z" class="cell_reset_n"/>
    <g s:x="28" s:y="10" s:pid="Y"/>
  </g>
  <g s:type="inputExt" transform="translate(347,252.5)" s:width="30" s:height="20" id="cell_en">
    <text x="15" y="-4" class="nodelabel cell_en" s:attribute="ref">en</text>
    <s:alias val="$_inputExt_"/>
    <path d="M0,0 L0,20 L15,20 L30,10 L15,0 Z" class="cell_en"/>
    <g s:x="28" s:y="10" s:pid="Y"/>
  </g>
  <g s:type="inputExt" transform="translate(412,212.5)" s:width="30" s:height="20" id="cell_load">
    <text x="15" y="-4" class="nodelabel cell_load" s:attribute="ref">load</text>
    <s:alias val="$_inputExt_"/>
    <path d="M0,0 L0,20 L15,20 L30,10 L15,0 Z" class="cell_load"/>
    <g s:x="28" s:y="10" s:pid="Y"/>
  </g>
  <g s:type="inputExt" transform="translate(215,312.5)" s:width="30" s:height="20" id="cell_up_down">
    <text x="15" y="-4" class="nodelabel cell_up_down" s:attribute="ref">up_down</text>
    <s:alias val="$_inputExt_"/>
    <path d="M0,0 L0,20 L15,20 L30,10 L15,0 Z" class="cell_up_down"/>
    <g s:x="28" s:y="10" s:pid="Y"/>
  </g>
  <g s:type="inputExt" transform="translate(557,282.5)" s:width="30" s:height="20" id="cell_data_in">
    <text x="15" y="-4" class="nodelabel cell_data_in" s:attribute="ref">data_in</text>
    <s:alias val="$_inputExt_"/>
    <path d="M0,0 L0,20 L15,20 L30,10 L15,0 Z" class="cell_data_in"/>
    <g s:x="28" s:y="10" s:pid="Y"/>
  </g>
  <g s:type="outputExt" transform="translate(658,332.5)" s:width="30" s:height="20" id="cell_count_out">
    <text x="15" y="-4" class="nodelabel cell_count_out" s:attribute="ref">count_out</text>
    <s:alias val="$_outputExt_"/>
    <path d="M30,0 L30,20 L15,20 L0,10 L15,0 Z" class="cell_count_out"/>
    <g s:x="0" s:y="10" s:pid="A"/>
  </g>
  <g s:type="outputExt" transform="translate(658,101.5)" s:width="30" s:height="20" id="cell_wrap">
    <text x="15" y="-4" class="nodelabel cell_wrap" s:attribute="ref">wrap</text>
    <s:alias val="$_outputExt_"/>
    <path d="M30,0 L30,20 L15,20 L0,10 L15,0 Z" class="cell_wrap"/>
    <g s:x="0" s:y="10" s:pid="A"/>
  </g>
  <g s:type="constant" transform="translate(114,149)" s:width="30" s:height="20" id="cell_1">
    <text x="15" y="-4" class="nodelabel cell_1" s:attribute="ref">1</text>
    <s:alias val="$_constant_"/>
    <rect width="30" height="20" class="cell_1"/>
    <g s:x="30" s:y="10" s:pid="Y"/>
  </g>
  <g s:type="constant" transform="translate(347,64)" s:width="30" s:height="20" id="cell_0">
    <text x="15" y="-4" class="nodelabel cell_0" s:attribute="ref">0</text>
    <s:alias val="$_constant_"/>
    <rect width="30" height="20" class="cell_0"/>
    <g s:x="30" s:y="10" s:pid="Y"/>
  </g>
  <g s:type="split" transform="translate(353,121)" s:width="5" s:height="40" id="cell_$split$,27,28,29,30,35,">
    <rect width="5" height="40" class="splitjoinBody" s:generic="body"/>
    <s:alias val="$_split_"/>
    <g s:x="0" s:y="20" s:pid="in"/>
    <g transform="translate(4,10)" s:x="4" s:y="10" s:pid="out0">
      <text x="5" y="-4">0:3</text>
    </g>
    <g transform="translate(4,30)" s:x="4" s:y="10" s:pid="out0">
      <text x="5" y="-4">4</text>
    </g>
  </g>
  <line x1="145" x2="190" y1="342.5" y2="342.5" class="net_11,12,13,14"/>
  <line x1="190" x2="190" y1="342.5" y2="144" class="net_11,12,13,14"/>
  <circle cx="190" cy="342.5" r="2" style="fill:#000" class="net_11,12,13,14"/>
  <circle cx="190" cy="144" r="2" style="fill:#000" class="net_11,12,13,14"/>
  <line x1="190" x2="223.66666666666666" y1="144" y2="144" class="net_11,12,13,14"/>
  <line x1="145" x2="322" y1="342.5" y2="342.5" class="net_11,12,13,14"/>
  <line x1="322" x2="322" y1="342.5" y2="191.5" class="net_11,12,13,14"/>
  <line x1="322" x2="507" y1="191.5" y2="191.5" class="net_11,12,13,14"/>
  <line x1="507" x2="507" y1="191.5" y2="222.5" class="net_11,12,13,14"/>
  <circle cx="322" cy="342.5" r="2" style="fill:#000" class="net_11,12,13,14"/>
  <line x1="507" x2="564" y1="222.5" y2="222.5" class="net_11,12,13,14"/>
  <line x1="145" x2="190" y1="342.5" y2="342.5" class="net_11,12,13,14"/>
  <line x1="190" x2="190" y1="342.5" y2="84" class="net_11,12,13,14"/>
  <line x1="190" x2="223.66666666666666" y1="84" y2="84" class="net_11,12,13,14"/>
  <line x1="145" x2="658" y1="342.5" y2="342.5" class="net_11,12,13,14"/>
  <line x1="144" x2="223.66666666666666" y1="159" y2="159" class="net_41"/>
  <line x1="144" x2="200" y1="159" y2="159" class="net_41"/>
  <line x1="200" x2="200" y1="159" y2="99" class="net_41"/>
  <circle cx="200" cy="159" r="2" style="fill:#000" class="net_41"/>
  <line x1="200" x2="223.66666666666666" y1="99" y2="99" class="net_41"/>
  <line x1="40" x2="74" y1="32" y2="32" class="net_3"/>
  <line x1="74" x2="74" y1="32" y2="342.5" class="net_3"/>
  <circle cx="74" cy="32" r="2" style="fill:#000" class="net_3"/>
  <line x1="74" x2="114" y1="342.5" y2="342.5" class="net_3"/>
  <line x1="40" x2="517" y1="32" y2="32" class="net_3"/>
  <line x1="517" x2="517" y1="32" y2="111.5" class="net_3"/>
  <line x1="517" x2="557" y1="111.5" y2="111.5" class="net_3"/>
  <line x1="40" x2="114" y1="362.5" y2="362.5" class="net_2"/>
  <line x1="40" x2="64" y1="362.5" y2="362.5" class="net_2"/>
  <line x1="64" x2="64" y1="362.5" y2="43" class="net_2"/>
  <line x1="64" x2="507" y1="43" y2="43" class="net_2"/>
  <line x1="507" x2="507" y1="43" y2="131.5" class="net_2"/>
  <circle cx="64" cy="362.5" r="2" style="fill:#000" class="net_2"/>
  <line x1="507" x2="557" y1="131.5" y2="131.5" class="net_2"/>
  <line x1="678" x2="722" y1="282.5" y2="282.5" class="net_21,22,23,24"/>
  <line x1="722" x2="722" y1="282.5" y2="405" class="net_21,22,23,24"/>
  <line x1="722" x2="74" y1="405" y2="405" class="net_21,22,23,24"/>
  <line x1="74" x2="74" y1="405" y2="382.5" class="net_21,22,23,24"/>
  <line x1="74" x2="114" y1="382.5" y2="382.5" class="net_21,22,23,24"/>
  <line x1="497" x2="557" y1="151.5" y2="151.5" class="net_25"/>
  <line x1="435.3333333333333" x2="477" y1="141.5" y2="141.5" class="net_26"/>
  <line x1="377" x2="452" y1="74" y2="74" class="net_42"/>
  <line x1="452" x2="452" y1="74" y2="161.5" class="net_42"/>
  <line x1="452" x2="477" y1="161.5" y2="161.5" class="net_42"/>
  <line x1="377" x2="397" y1="74" y2="74" class="net_42"/>
  <line x1="397" x2="397" y1="74" y2="131.5" class="net_42"/>
  <circle cx="397" cy="74" r="2" style="fill:#000" class="net_42"/>
  <line x1="397" x2="415.3333333333333" y1="131.5" y2="131.5" class="net_42"/>
  <line x1="440" x2="452" y1="222.5" y2="222.5" class="net_5"/>
  <line x1="452" x2="452" y1="222.5" y2="181.5" class="net_5"/>
  <line x1="452" x2="487" y1="181.5" y2="181.5" class="net_5"/>
  <circle cx="452" cy="222.5" r="2" style="fill:#000" class="net_5"/>
  <line x1="487" x2="487" y1="181.5" y2="166.5" class="net_5"/>
  <line x1="440" x2="452" y1="222.5" y2="222.5" class="net_5"/>
  <line x1="452" x2="452" y1="222.5" y2="312.5" class="net_5"/>
  <line x1="452" x2="668" y1="312.5" y2="312.5" class="net_5"/>
  <line x1="668" x2="668" y1="312.5" y2="297.5" class="net_5"/>
  <line x1="358" x2="387" y1="131.5" y2="131.5" class="net_27,28,29,30"/>
  <line x1="387" x2="387" y1="131.5" y2="242.5" class="net_27,28,29,30"/>
  <line x1="387" x2="564" y1="242.5" y2="242.5" class="net_27,28,29,30"/>
  <line x1="375" x2="574" y1="262.5" y2="262.5" class="net_4"/>
  <line x1="574" x2="574" y1="262.5" y2="247.5" class="net_4"/>
  <line x1="375" x2="397" y1="262.5" y2="262.5" class="net_4"/>
  <line x1="397" x2="397" y1="262.5" y2="181.5" class="net_4"/>
  <line x1="397" x2="425.3333333333333" y1="181.5" y2="181.5" class="net_4"/>
  <circle cx="397" cy="262.5" r="2" style="fill:#000" class="net_4"/>
  <line x1="425.3333333333333" x2="425.3333333333333" y1="181.5" y2="156.5" class="net_4"/>
  <line x1="584" x2="633" y1="232.5" y2="232.5" class="net_31,32,33,34"/>
  <line x1="633" x2="633" y1="232.5" y2="272.5" class="net_31,32,33,34"/>
  <line x1="633" x2="658" y1="272.5" y2="272.5" class="net_31,32,33,34"/>
  <line x1="585" x2="658" y1="292.5" y2="292.5" class="net_7,8,9,10"/>
  <line x1="358" x2="415.3333333333333" y1="151.5" y2="151.5" class="net_35"/>
  <line x1="245.66666666666666" x2="267" y1="91.5" y2="91.5" class="net_36,37,38,39,40"/>
  <line x1="267" x2="267" y1="91.5" y2="131.5" class="net_36,37,38,39,40"/>
  <line x1="267" x2="292" y1="131.5" y2="131.5" class="net_36,37,38,39,40"/>
  <line x1="245.66666666666666" x2="292" y1="151.5" y2="151.5" class="net_16,17,18,19,20"/>
  <line x1="243" x2="302" y1="322.5" y2="322.5" class="net_6"/>
  <line x1="302" x2="302" y1="322.5" y2="156.5" class="net_6"/>
  <line x1="588" x2="658" y1="111.5" y2="111.5" class="net_15"/>
  <line x1="312" x2="353" y1="141.5" y2="141.5" class="net_27,28,29,30,35"/>
</svg>
