<svg style="background:white" xmlns="http://www.w3.org/2000/svg" xmlns:xlink="http://www.w3.org/1999/xlink" xmlns:s="https://github.com/nturley/netlistsvg" width="396" height="728">
  <style>svg {
    stroke:#000;
    fill:none;
  }
  text {
    fill:#000;
    stroke:none;
    font-size:10px;
    font-weight: bold;
    font-family: "Courier New", monospace;
  }
  .nodelabel {
    text-anchor: middle;
  }
  .inputPortLabel {
    text-anchor: end;
  }
  .splitjoinBody {
    fill:#000;
  }</style>
  <g s:type="generic" transform="translate(102,642)" s:width="30" s:height="40" id="cell_$procdff$121">
    <text x="15" y="-4" class="nodelabel cell_$procdff$121" s:attribute="ref">$adff</text>
    <rect width="30" height="60" s:generic="body" class="cell_$procdff$121"/>
    <g transform="translate(0,10)" s:x="0" s:y="10" s:pid="in0" id="port_$procdff$121~ARST">
      <text x="-3" y="-4" class="inputPortLabel cell_$procdff$121">ARST</text>
    </g>
    <g transform="translate(0,30)" s:x="0" s:y="10" s:pid="in0" id="port_$procdff$121~CLK">
      <text x="-3" y="-4" class="inputPortLabel cell_$procdff$121">CLK</text>
    </g>
    <g transform="translate(0,50)" s:x="0" s:y="10" s:pid="in0" id="port_$procdff$121~D">
      <text x="-3" y="-4" class="inputPortLabel cell_$procdff$121">D</text>
    </g>
    <g transform="translate(30,10)" s:x="30" s:y="10" s:pid="out0" id="port_$procdff$121~Q">
      <text x="5" y="-4" style="fill:#000; stroke:none" class="cell_$procdff$121">Q</text>
    </g>
  </g>
  <g s:type="mux" transform="translate(344,142)" s:width="20" s:height="40" id="cell_$procmux$112">
    <s:alias val="$pmux"/>
    <s:alias val="$mux"/>
    <s:alias val="$_MUX_"/>
    <path d="M0,0 L20,10 L20,30 L0,40 Z" class="cell_$procmux$112"/>
    <g s:x="0" s:y="10" s:pid="A"/>
    <g s:x="0" s:y="30" s:pid="B"/>
    <g s:x="10" s:y="35" s:pid="S"/>
    <g s:x="20" s:y="20" s:pid="Y"/>
  </g>
  <g s:type="eq" transform="translate(225.66666666666666,372)" s:width="25" s:height="25" id="cell_$procmux$113_CMP0">
    <s:alias val="$eq"/>
    <circle r="12.5" cx="12.5" cy="12.5" class="cell_$procmux$113_CMP0"/>
    <line x1="7.5" x2="17.5" y1="10" y2="10" class="cell_$procmux$113_CMP0"/>
    <line x1="7.5" x2="17.5" y1="15" y2="15" class="cell_$procmux$113_CMP0"/>
    <g s:x="3" s:y="5" s:pid="A"/>
    <g s:x="3" s:y="20" s:pid="B"/>
    <g s:x="25" s:y="12.5" s:pid="Y"/>
  </g>
  <g s:type="eq" transform="translate(225.66666666666666,442)" s:width="25" s:height="25" id="cell_$procmux$114_CMP0">
    <s:alias val="$eq"/>
    <circle r="12.5" cx="12.5" cy="12.5" class="cell_$procmux$114_CMP0"/>
    <line x1="7.5" x2="17.5" y1="10" y2="10" class="cell_$procmux$114_CMP0"/>
    <line x1="7.5" x2="17.5" y1="15" y2="15" class="cell_$procmux$114_CMP0"/>
    <g s:x="3" s:y="5" s:pid="A"/>
    <g s:x="3" s:y="20" s:pid="B"/>
    <g s:x="25" s:y="12.5" s:pid="Y"/>
  </g>
  <g s:type="eq" transform="translate(225.66666666666666,502)" s:width="25" s:height="25" id="cell_$procmux$115_CMP0">
    <s:alias val="$eq"/>
    <circle r="12.5" cx="12.5" cy="12.5" class="cell_$procmux$115_CMP0"/>
    <line x1="7.5" x2="17.5" y1="10" y2="10" class="cell_$procmux$115_CMP0"/>
    <line x1="7.5" x2="17.5" y1="15" y2="15" class="cell_$procmux$115_CMP0"/>
    <g s:x="3" s:y="5" s:pid="A"/>
    <g s:x="3" s:y="20" s:pid="B"/>
    <g s:x="25" s:y="12.5" s:pid="Y"/>
  </g>
  <g s:type="not" transform="translate(224,610)" s:width="30" s:height="20" id="cell_$procmux$116_CMP0">
    <s:alias val="$_NOT_"/>
    <s:alias val="$not"/>
    <s:alias val="$logic_not"/>
    <path d="M0,0 L0,20 L20,10 Z" class="cell_$procmux$116_CMP0"/>
    <circle cx="23" cy="10" r="3" class="cell_$procmux$116_CMP0"/>
    <g s:x="0" s:y="10" s:pid="A"/>
    <g s:x="25" s:y="10" s:pid="Y"/>
  </g>
  <g s:type="mux" transform="translate(227.33333333333334,247)" s:width="20" s:height="40" id="cell_$ternary$.yosys_tmp/fsm_cc1_3oe.sv:20$23">
    <s:alias val="$pmux"/>
    <s:alias val="$mux"/>
    <s:alias val="$_MUX_"/>
    <path d="M0,0 L20,10 L20,30 L0,40 Z" class="cell_$ternary$.yosys_tmp/fsm_cc1_3oe.sv:20$23"/>
    <g s:x="0" s:y="10" s:pid="A"/>
    <g s:x="0" s:y="30" s:pid="B"/>
    <g s:x="10" s:y="35" s:pid="S"/>
    <g s:x="20" s:y="20" s:pid="Y"/>
  </g>
  <g s:type="mux" transform="translate(227.33333333333334,77)" s:width="20" s:height="40" id="cell_$ternary$.yosys_tmp/fsm_cc1_3oe.sv:22$25">
    <s:alias val="$pmux"/>
    <s:alias val="$mux"/>
    <s:alias val="$_MUX_"/>
    <path d="M0,0 L20,10 L20,30 L0,40 Z" class="cell_$ternary$.yosys_tmp/fsm_cc1_3oe.sv:22$25"/>
    <g s:x="0" s:y="10" s:pid="A"/>
    <g s:x="0" s:y="30" s:pid="B"/>
    <g s:x="10" s:y="35" s:pid="S"/>
    <g s:x="20" s:y="20" s:pid="Y"/>
  </g>
  <g s:type="inputExt" transform="translate(102,447)" s:width="30" s:height="20" id="cell_go">
    <text x="15" y="-4" class="nodelabel cell_go" s:attribute="ref">go</text>
    <s:alias val="$_inputExt_"/>
    <path d="M0,0 L0,20 L15,20 L30,10 L15,0 Z" class="cell_go"/>
    <g s:x="28" s:y="10" s:pid="Y"/>
  </g>
  <g s:type="inputExt" transform="translate(102,162)" s:width="30" s:height="20" id="cell_ws">
    <text x="15" y="-4" class="nodelabel cell_ws" s:attribute="ref">ws</text>
    <s:alias val="$_inputExt_"/>
    <path d="M0,0 L0,20 L15,20 L30,10 L15,0 Z" class="cell_ws"/>
    <g s:x="28" s:y="10" s:pid="Y"/>
  </g>
  <g s:type="inputExt" transform="translate(12,662.5)" s:width="30" s:height="20" id="cell_clk">
    <text x="15" y="-4" class="nodelabel cell_clk" s:attribute="ref">clk</text>
    <s:alias val="$_inputExt_"/>
    <path d="M0,0 L0,20 L15,20 L30,10 L15,0 Z" class="cell_clk"/>
    <g s:x="28" s:y="10" s:pid="Y"/>
  </g>
  <g s:type="inputExt" transform="translate(12,597.5)" s:width="30" s:height="20" id="cell_rst_n">
    <text x="15" y="-4" class="nodelabel cell_rst_n" s:attribute="ref">rst_n</text>
    <s:alias val="$_inputExt_"/>
    <path d="M0,0 L0,20 L15,20 L30,10 L15,0 Z" class="cell_rst_n"/>
    <g s:x="28" s:y="10" s:pid="Y"/>
  </g>
  <g s:type="outputExt" transform="translate(344,587.5)" s:width="30" s:height="20" id="cell_rd">
    <text x="15" y="-4" class="nodelabel cell_rd" s:attribute="ref">rd</text>
    <s:alias val="$_outputExt_"/>
    <path d="M30,0 L30,20 L15,20 L0,10 L15,0 Z" class="cell_rd"/>
    <g s:x="0" s:y="10" s:pid="A"/>
  </g>
  <g s:type="outputExt" transform="translate(344,652.5)" s:width="30" s:height="20" id="cell_ds">
    <text x="15" y="-4" class="nodelabel cell_ds" s:attribute="ref">ds</text>
    <s:alias val="$_outputExt_"/>
    <path d="M30,0 L30,20 L15,20 L0,10 L15,0 Z" class="cell_ds"/>
    <g s:x="0" s:y="10" s:pid="A"/>
  </g>
  <g s:type="constant" transform="translate(224,22)" s:width="30" s:height="20" id="cell_000">
    <text x="15" y="-4" class="nodelabel cell_000" s:attribute="ref">000</text>
    <s:alias val="$_constant_"/>
    <rect width="30" height="20" class="cell_000"/>
    <g s:x="30" s:y="10" s:pid="Y"/>
  </g>
  <g s:type="constant" transform="translate(224,192)" s:width="30" s:height="20" id="cell_1010">
    <text x="15" y="-4" class="nodelabel cell_1010" s:attribute="ref">0xa</text>
    <s:alias val="$_constant_"/>
    <rect width="30" height="20" class="cell_1010"/>
    <g s:x="30" s:y="10" s:pid="Y"/>
  </g>
  <g s:type="constant" transform="translate(224,317)" s:width="30" s:height="20" id="cell_00">
    <text x="15" y="-4" class="nodelabel cell_00" s:attribute="ref">00</text>
    <s:alias val="$_constant_"/>
    <rect width="30" height="20" class="cell_00"/>
    <g s:x="30" s:y="10" s:pid="Y"/>
  </g>
  <g s:type="constant" transform="translate(102,382)" s:width="30" s:height="20" id="cell_10">
    <text x="15" y="-4" class="nodelabel cell_10" s:attribute="ref">10</text>
    <s:alias val="$_constant_"/>
    <rect width="30" height="20" class="cell_10"/>
    <g s:x="30" s:y="10" s:pid="Y"/>
  </g>
  <g s:type="constant" transform="translate(102,577)" s:width="30" s:height="20" id="cell_101">
    <text x="15" y="-4" class="nodelabel cell_101" s:attribute="ref">101</text>
    <s:alias val="$_constant_"/>
    <rect width="30" height="20" class="cell_101"/>
    <g s:x="30" s:y="10" s:pid="Y"/>
  </g>
  <g s:type="constant" transform="translate(102,512)" s:width="30" s:height="20" id="cell_1">
    <text x="15" y="-4" class="nodelabel cell_1" s:attribute="ref">1</text>
    <s:alias val="$_constant_"/>
    <rect width="30" height="20" class="cell_1"/>
    <g s:x="30" s:y="10" s:pid="Y"/>
  </g>
  <g s:type="constant" transform="translate(102,247)" s:width="30" s:height="20" id="cell_0">
    <text x="15" y="-4" class="nodelabel cell_0" s:attribute="ref">0</text>
    <s:alias val="$_constant_"/>
    <rect width="30" height="20" class="cell_0"/>
    <g s:x="30" s:y="10" s:pid="Y"/>
  </g>
  <g s:type="constant" transform="translate(102,97)" s:width="30" s:height="20" id="cell_01">
    <text x="15" y="-4" class="nodelabel cell_01" s:attribute="ref">01</text>
    <s:alias val="$_constant_"/>
    <rect width="30" height="20" class="cell_01"/>
    <g s:x="30" s:y="10" s:pid="Y"/>
  </g>
  <g s:type="join" transform="translate(289,151.5)" s:width="4" s:height="40" id="cell_$join$,19,20,21,12,13,22,23,24,25,14,26,27,">
    <rect width="5" height="100" class="splitjoinBody" s:generic="body"/>
    <s:alias val="$_join_"/>
    <g s:x="5" s:y="20" s:pid="out"/>
    <g transform="translate(0,10)" s:x="0" s:y="10" s:pid="in0">
      <text x="-3" y="-4" class="inputPortLabel">0:2</text>
    </g>
    <g transform="translate(0,30)" s:x="0" s:y="10" s:pid="in0">
      <text x="-3" y="-4" class="inputPortLabel">3:4</text>
    </g>
    <g transform="translate(0,50)" s:x="0" s:y="10" s:pid="in0">
      <text x="-3" y="-4" class="inputPortLabel">5:8</text>
    </g>
    <g transform="translate(0,70)" s:x="0" s:y="10" s:pid="in0">
      <text x="-3" y="-4" class="inputPortLabel">9</text>
    </g>
    <g transform="translate(0,90)" s:x="0" s:y="10" s:pid="in0">
      <text x="-3" y="-4" class="inputPortLabel">10:11</text>
    </g>
  </g>
  <g s:type="join" transform="translate(296.5,424)" s:width="4" s:height="40" id="cell_$join$,15,16,17,18,">
    <rect width="5" height="80" class="splitjoinBody" s:generic="body"/>
    <s:alias val="$_join_"/>
    <g s:x="5" s:y="20" s:pid="out"/>
    <g transform="translate(0,10)" s:x="0" s:y="10" s:pid="in0">
      <text x="-3" y="-4" class="inputPortLabel">0</text>
    </g>
    <g transform="translate(0,30)" s:x="0" s:y="10" s:pid="in0">
      <text x="-3" y="-4" class="inputPortLabel">1</text>
    </g>
    <g transform="translate(0,50)" s:x="0" s:y="10" s:pid="in0">
      <text x="-3" y="-4" class="inputPortLabel">2</text>
    </g>
    <g transform="translate(0,70)" s:x="0" s:y="10" s:pid="in0">
      <text x="-3" y="-4" class="inputPortLabel">3</text>
    </g>
  </g>
  <g s:type="split" transform="translate(293.6666666666667,632)" s:width="5" s:height="40" id="cell_$split$,6,7,11,">
    <rect width="5" height="40" class="splitjoinBody" s:generic="body"/>
    <s:alias val="$_split_"/>
    <g s:x="0" s:y="20" s:pid="in"/>
    <g transform="translate(4,10)" s:x="4" s:y="10" s:pid="out0">
      <text x="5" y="-4">0</text>
    </g>
    <g transform="translate(4,30)" s:x="4" s:y="10" s:pid="out0">
      <text x="5" y="-4">1</text>
    </g>
  </g>
  <line x1="40" x2="52" y1="607.5" y2="607.5" class="net_5"/>
  <line x1="52" x2="52" y1="607.5" y2="652.5" class="net_5"/>
  <line x1="52" x2="102" y1="652.5" y2="652.5" class="net_5"/>
  <line x1="40" x2="102" y1="672.5" y2="672.5" class="net_4"/>
  <line x1="364" x2="384" y1="162" y2="162" class="net_8,9,10"/>
  <line x1="384" x2="384" y1="162" y2="715" class="net_8,9,10"/>
  <line x1="384" x2="52" y1="715" y2="715" class="net_8,9,10"/>
  <line x1="52" x2="52" y1="715" y2="692.5" class="net_8,9,10"/>
  <line x1="52" x2="102" y1="692.5" y2="692.5" class="net_8,9,10"/>
  <line x1="295" x2="344" y1="172" y2="172" class="net_19,20,21,12,13,22,23,24,25,14,26,27"/>
  <line x1="302.5" x2="354" y1="444.5" y2="444.5" class="net_15,16,17,18"/>
  <line x1="354" x2="354" y1="444.5" y2="177" class="net_15,16,17,18"/>
  <line x1="133" x2="214" y1="652.5" y2="652.5" class="net_6,7,11"/>
  <line x1="214" x2="214" y1="652.5" y2="377" class="net_6,7,11"/>
  <circle cx="214" cy="652.5" r="2" style="fill:#000" class="net_6,7,11"/>
  <line x1="214" x2="228.66666666666666" y1="377" y2="377" class="net_6,7,11"/>
  <line x1="133" x2="214" y1="652.5" y2="652.5" class="net_6,7,11"/>
  <line x1="214" x2="214" y1="652.5" y2="447" class="net_6,7,11"/>
  <circle cx="214" cy="447" r="2" style="fill:#000" class="net_6,7,11"/>
  <line x1="214" x2="228.66666666666666" y1="447" y2="447" class="net_6,7,11"/>
  <line x1="133" x2="214" y1="652.5" y2="652.5" class="net_6,7,11"/>
  <line x1="214" x2="214" y1="652.5" y2="507" class="net_6,7,11"/>
  <circle cx="214" cy="507" r="2" style="fill:#000" class="net_6,7,11"/>
  <line x1="214" x2="228.66666666666666" y1="507" y2="507" class="net_6,7,11"/>
  <line x1="133" x2="214" y1="652.5" y2="652.5" class="net_6,7,11"/>
  <line x1="214" x2="214" y1="652.5" y2="620" class="net_6,7,11"/>
  <circle cx="214" cy="620" r="2" style="fill:#000" class="net_6,7,11"/>
  <line x1="214" x2="224" y1="620" y2="620" class="net_6,7,11"/>
  <line x1="133" x2="293.6666666666667" y1="652.5" y2="652.5" class="net_6,7,11"/>
  <line x1="132" x2="228.66666666666666" y1="392" y2="392" class="net_28,29"/>
  <line x1="132" x2="184" y1="392" y2="392" class="net_28,29"/>
  <line x1="184" x2="184" y1="392" y2="87" class="net_28,29"/>
  <circle cx="184" cy="392" r="2" style="fill:#000" class="net_28,29"/>
  <line x1="184" x2="227.33333333333334" y1="87" y2="87" class="net_28,29"/>
  <line x1="132" x2="204" y1="587" y2="587" class="net_30,31,32"/>
  <line x1="204" x2="204" y1="587" y2="462" class="net_30,31,32"/>
  <line x1="204" x2="228.66666666666666" y1="462" y2="462" class="net_30,31,32"/>
  <line x1="132" x2="228.66666666666666" y1="522" y2="522" class="net_33"/>
  <line x1="132" x2="194" y1="522" y2="522" class="net_33"/>
  <line x1="194" x2="194" y1="522" y2="277" class="net_33"/>
  <circle cx="194" cy="522" r="2" style="fill:#000" class="net_33"/>
  <line x1="194" x2="227.33333333333334" y1="277" y2="277" class="net_33"/>
  <line x1="132" x2="227.33333333333334" y1="257" y2="257" class="net_34"/>
  <line x1="130" x2="204" y1="457" y2="457" class="net_2"/>
  <line x1="204" x2="204" y1="457" y2="297" class="net_2"/>
  <line x1="204" x2="237.33333333333334" y1="297" y2="297" class="net_2"/>
  <line x1="237.33333333333334" x2="237.33333333333334" y1="297" y2="282" class="net_2"/>
  <line x1="132" x2="227.33333333333334" y1="107" y2="107" class="net_38,39"/>
  <line x1="130" x2="237.33333333333334" y1="172" y2="172" class="net_3"/>
  <line x1="237.33333333333334" x2="237.33333333333334" y1="172" y2="112" class="net_3"/>
  <line x1="298.6666666666667" x2="319" y1="642.5" y2="642.5" class="net_6"/>
  <line x1="319" x2="319" y1="642.5" y2="597.5" class="net_6"/>
  <line x1="319" x2="344" y1="597.5" y2="597.5" class="net_6"/>
  <line x1="298.6666666666667" x2="344" y1="662.5" y2="662.5" class="net_7"/>
  <line x1="254" x2="289.5" y1="32" y2="32" class="net_19,20,21"/>
  <line x1="289.5" x2="289.5" y1="32" y2="161.5" class="net_19,20,21"/>
  <line x1="247.33333333333334" x2="264" y1="97" y2="97" class="net_12,13"/>
  <line x1="264" x2="264" y1="97" y2="182" class="net_12,13"/>
  <line x1="264" x2="289" y1="182" y2="182" class="net_12,13"/>
  <line x1="254" x2="289" y1="202" y2="202" class="net_22,23,24,25"/>
  <line x1="247.33333333333334" x2="264" y1="267" y2="267" class="net_14"/>
  <line x1="264" x2="264" y1="267" y2="222" class="net_14"/>
  <line x1="264" x2="289" y1="222" y2="222" class="net_14"/>
  <line x1="254" x2="289.5" y1="327" y2="327" class="net_26,27"/>
  <line x1="289.5" x2="289.5" y1="327" y2="242.5" class="net_26,27"/>
  <line x1="250.66666666666666" x2="264" y1="384.5" y2="384.5" class="net_15"/>
  <line x1="264" x2="264" y1="384.5" y2="434.5" class="net_15"/>
  <line x1="264" x2="296.5" y1="434.5" y2="434.5" class="net_15"/>
  <line x1="250.66666666666666" x2="296.5" y1="454.5" y2="454.5" class="net_16"/>
  <line x1="250.66666666666666" x2="264" y1="514.5" y2="514.5" class="net_17"/>
  <line x1="264" x2="264" y1="514.5" y2="474.5" class="net_17"/>
  <line x1="264" x2="296.5" y1="474.5" y2="474.5" class="net_17"/>
  <line x1="249" x2="297" y1="620" y2="620" class="net_18"/>
  <line x1="297" x2="297" y1="620" y2="495" class="net_18"/>
</svg>
