<svg style="background:white" xmlns="http://www.w3.org/2000/svg" xmlns:xlink="http://www.w3.org/1999/xlink" xmlns:s="https://github.com/nturley/netlistsvg" width="882" height="702">
  <style>svg {
    stroke:#000;
    fill:none;
  }
  text {
    fill:#000;
    stroke:none;
    font-size:10px;
    font-weight: bold;
    font-family: "Courier New", monospace;
  }
  .nodelabel {
    text-anchor: middle;
  }
  .inputPortLabel {
    text-anchor: end;
  }
  .splitjoinBody {
    fill:#000;
  }</style>
  <g s:type="generic" transform="translate(459,35)" s:width="30" s:height="40" id="cell_$auto$opt_reduce.cc:131:opt_pmux$111">
    <text x="15" y="-4" class="nodelabel cell_$auto$opt_reduce.cc:131:opt_pmux$111" s:attribute="ref">$reduce_or</text>
    <rect width="30" height="20" s:generic="body" class="cell_$auto$opt_reduce.cc:131:opt_pmux$111"/>
    <g transform="translate(0,10)" s:x="0" s:y="10" s:pid="in0" id="port_$auto$opt_reduce.cc:131:opt_pmux$111~A">
      <text x="-3" y="-4" class="inputPortLabel cell_$auto$opt_reduce.cc:131:opt_pmux$111">A</text>
    </g>
    <g transform="translate(30,10)" s:x="30" s:y="10" s:pid="out0" id="port_$auto$opt_reduce.cc:131:opt_pmux$111~Y">
      <text x="5" y="-4" style="fill:#000; stroke:none" class="cell_$auto$opt_reduce.cc:131:opt_pmux$111">Y</text>
    </g>
  </g>
  <g s:type="generic" transform="translate(459,103)" s:width="30" s:height="40" id="cell_$auto$opt_reduce.cc:131:opt_pmux$113">
    <text x="15" y="-4" class="nodelabel cell_$auto$opt_reduce.cc:131:opt_pmux$113" s:attribute="ref">$reduce_or</text>
    <rect width="30" height="20" s:generic="body" class="cell_$auto$opt_reduce.cc:131:opt_pmux$113"/>
    <g transform="translate(0,10)" s:x="0" s:y="10" s:pid="in0" id="port_$auto$opt_reduce.cc:131:opt_pmux$113~A">
      <text x="-3" y="-4" class="inputPortLabel cell_$auto$opt_reduce.cc:131:opt_pmux$113">A</text>
    </g>
    <g transform="translate(30,10)" s:x="30" s:y="10" s:pid="out0" id="port_$auto$opt_reduce.cc:131:opt_pmux$113~Y">
      <text x="5" y="-4" style="fill:#000; stroke:none" class="cell_$auto$opt_reduce.cc:131:opt_pmux$113">Y</text>
    </g>
  </g>
  <g s:type="generic" transform="translate(459,222)" s:width="30" s:height="40" id="cell_$auto$opt_reduce.cc:131:opt_pmux$115">
    <text x="15" y="-4" class="nodelabel cell_$auto$opt_reduce.cc:131:opt_pmux$115" s:attribute="ref">$reduce_or</text>
    <rect width="30" height="20" s:generic="body" class="cell_$auto$opt_reduce.cc:131:opt_pmux$115"/>
    <g transform="translate(0,10)" s:x="0" s:y="10" s:pid="in0" id="port_$auto$opt_reduce.cc:131:opt_pmux$115~A">
      <text x="-3" y="-4" class="inputPortLabel cell_$auto$opt_reduce.cc:131:opt_pmux$115">A</text>
    </g>
    <g transform="translate(30,10)" s:x="30" s:y="10" s:pid="out0" id="port_$auto$opt_reduce.cc:131:opt_pmux$115~Y">
      <text x="5" y="-4" style="fill:#000; stroke:none" class="cell_$auto$opt_reduce.cc:131:opt_pmux$115">Y</text>
    </g>
  </g>
  <g s:type="generic" transform="translate(162,212)" s:width="30" s:height="40" id="cell_$procdff$110">
    <text x="15" y="-4" class="nodelabel cell_$procdff$110" s:attribute="ref">$adff</text>
    <rect width="30" height="60" s:generic="body" class="cell_$procdff$110"/>
    <g transform="translate(0,10)" s:x="0" s:y="10" s:pid="in0" id="port_$procdff$110~ARST">
      <text x="-3" y="-4" class="inputPortLabel cell_$procdff$110">ARST</text>
    </g>
    <g transform="translate(0,30)" s:x="0" s:y="10" s:pid="in0" id="port_$procdff$110~CLK">
      <text x="-3" y="-4" class="inputPortLabel cell_$procdff$110">CLK</text>
    </g>
    <g transform="translate(0,50)" s:x="0" s:y="10" s:pid="in0" id="port_$procdff$110~D">
      <text x="-3" y="-4" class="inputPortLabel cell_$procdff$110">D</text>
    </g>
    <g transform="translate(30,10)" s:x="30" s:y="10" s:pid="out0" id="port_$procdff$110~Q">
      <text x="5" y="-4" style="fill:#000; stroke:none" class="cell_$procdff$110">Q</text>
    </g>
  </g>
  <g s:type="not" transform="translate(334,212.5)" s:width="30" s:height="20" id="cell_$procmux$100_CMP0">
    <s:alias val="$_NOT_"/>
    <s:alias val="$not"/>
    <s:alias val="$logic_not"/>
    <path d="M0,0 L0,20 L20,10 Z" class="cell_$procmux$100_CMP0"/>
    <circle cx="23" cy="10" r="3" class="cell_$procmux$100_CMP0"/>
    <g s:x="0" s:y="10" s:pid="A"/>
    <g s:x="25" s:y="10" s:pid="Y"/>
  </g>
  <g s:type="mux" transform="translate(775,36)" s:width="20" s:height="40" id="cell_$procmux$101">
    <s:alias val="$pmux"/>
    <s:alias val="$mux"/>
    <s:alias val="$_MUX_"/>
    <path d="M0,0 L20,10 L20,30 L0,40 Z" class="cell_$procmux$101"/>
    <g s:x="0" s:y="10" s:pid="A"/>
    <g s:x="0" s:y="30" s:pid="B"/>
    <g s:x="10" s:y="35" s:pid="S"/>
    <g s:x="20" s:y="20" s:pid="Y"/>
  </g>
  <g s:type="eq" transform="translate(338,123.5)" s:width="25" s:height="25" id="cell_$procmux$102_CMP0">
    <s:alias val="$eq"/>
    <circle r="12.5" cx="12.5" cy="12.5" class="cell_$procmux$102_CMP0"/>
    <line x1="7.5" x2="17.5" y1="10" y2="10" class="cell_$procmux$102_CMP0"/>
    <line x1="7.5" x2="17.5" y1="15" y2="15" class="cell_$procmux$102_CMP0"/>
    <g s:x="3" s:y="5" s:pid="A"/>
    <g s:x="3" s:y="20" s:pid="B"/>
    <g s:x="25" s:y="12.5" s:pid="Y"/>
  </g>
  <g s:type="eq" transform="translate(270.66666666666663,397)" s:width="25" s:height="25" id="cell_$procmux$103_CMP0">
    <s:alias val="$eq"/>
    <circle r="12.5" cx="12.5" cy="12.5" class="cell_$procmux$103_CMP0"/>
    <line x1="7.5" x2="17.5" y1="10" y2="10" class="cell_$procmux$103_CMP0"/>
    <line x1="7.5" x2="17.5" y1="15" y2="15" class="cell_$procmux$103_CMP0"/>
    <g s:x="3" s:y="5" s:pid="A"/>
    <g s:x="3" s:y="20" s:pid="B"/>
    <g s:x="25" s:y="12.5" s:pid="Y"/>
  </g>
  <g s:type="eq" transform="translate(270.66666666666663,457)" s:width="25" s:height="25" id="cell_$procmux$104_CMP0">
    <s:alias val="$eq"/>
    <circle r="12.5" cx="12.5" cy="12.5" class="cell_$procmux$104_CMP0"/>
    <line x1="7.5" x2="17.5" y1="10" y2="10" class="cell_$procmux$104_CMP0"/>
    <line x1="7.5" x2="17.5" y1="15" y2="15" class="cell_$procmux$104_CMP0"/>
    <g s:x="3" s:y="5" s:pid="A"/>
    <g s:x="3" s:y="20" s:pid="B"/>
    <g s:x="25" s:y="12.5" s:pid="Y"/>
  </g>
  <g s:type="mux" transform="translate(830,464)" s:width="20" s:height="40" id="cell_$procmux$91">
    <s:alias val="$pmux"/>
    <s:alias val="$mux"/>
    <s:alias val="$_MUX_"/>
    <path d="M0,0 L20,10 L20,30 L0,40 Z" class="cell_$procmux$91"/>
    <g s:x="0" s:y="10" s:pid="A"/>
    <g s:x="0" s:y="30" s:pid="B"/>
    <g s:x="10" s:y="35" s:pid="S"/>
    <g s:x="20" s:y="20" s:pid="Y"/>
  </g>
  <g s:type="mux" transform="translate(775,137)" s:width="20" s:height="40" id="cell_$procmux$96">
    <s:alias val="$pmux"/>
    <s:alias val="$mux"/>
    <s:alias val="$_MUX_"/>
    <path d="M0,0 L20,10 L20,30 L0,40 Z" class="cell_$procmux$96"/>
    <g s:x="0" s:y="10" s:pid="A"/>
    <g s:x="0" s:y="30" s:pid="B"/>
    <g s:x="10" s:y="35" s:pid="S"/>
    <g s:x="20" s:y="20" s:pid="Y"/>
  </g>
  <g s:type="mux" transform="translate(715.6666666666666,524)" s:width="20" s:height="40" id="cell_$ternary$.yosys_tmp/fsm_cc1_2.sv:26$9">
    <s:alias val="$pmux"/>
    <s:alias val="$mux"/>
    <s:alias val="$_MUX_"/>
    <path d="M0,0 L20,10 L20,30 L0,40 Z" class="cell_$ternary$.yosys_tmp/fsm_cc1_2.sv:26$9"/>
    <g s:x="0" s:y="10" s:pid="A"/>
    <g s:x="0" s:y="30" s:pid="B"/>
    <g s:x="10" s:y="35" s:pid="S"/>
    <g s:x="20" s:y="20" s:pid="Y"/>
  </g>
  <g s:type="mux" transform="translate(715.6666666666666,342)" s:width="20" s:height="40" id="cell_$ternary$.yosys_tmp/fsm_cc1_2.sv:33$11">
    <s:alias val="$pmux"/>
    <s:alias val="$mux"/>
    <s:alias val="$_MUX_"/>
    <path d="M0,0 L20,10 L20,30 L0,40 Z" class="cell_$ternary$.yosys_tmp/fsm_cc1_2.sv:33$11"/>
    <g s:x="0" s:y="10" s:pid="A"/>
    <g s:x="0" s:y="30" s:pid="B"/>
    <g s:x="10" s:y="35" s:pid="S"/>
    <g s:x="20" s:y="20" s:pid="Y"/>
  </g>
  <g s:type="inputExt" transform="translate(459,589)" s:width="30" s:height="20" id="cell_go">
    <text x="15" y="-4" class="nodelabel cell_go" s:attribute="ref">go</text>
    <s:alias val="$_inputExt_"/>
    <path d="M0,0 L0,20 L15,20 L30,10 L15,0 Z" class="cell_go"/>
    <g s:x="28" s:y="10" s:pid="Y"/>
  </g>
  <g s:type="inputExt" transform="translate(459,462)" s:width="30" s:height="20" id="cell_ws">
    <text x="15" y="-4" class="nodelabel cell_ws" s:attribute="ref">ws</text>
    <s:alias val="$_inputExt_"/>
    <path d="M0,0 L0,20 L15,20 L30,10 L15,0 Z" class="cell_ws"/>
    <g s:x="28" s:y="10" s:pid="Y"/>
  </g>
  <g s:type="inputExt" transform="translate(72,232.5)" s:width="30" s:height="20" id="cell_clk">
    <text x="15" y="-4" class="nodelabel cell_clk" s:attribute="ref">clk</text>
    <s:alias val="$_inputExt_"/>
    <path d="M0,0 L0,20 L15,20 L30,10 L15,0 Z" class="cell_clk"/>
    <g s:x="28" s:y="10" s:pid="Y"/>
  </g>
  <g s:type="inputExt" transform="translate(72,167.5)" s:width="30" s:height="20" id="cell_rst_n">
    <text x="15" y="-4" class="nodelabel cell_rst_n" s:attribute="ref">rst_n</text>
    <s:alias val="$_inputExt_"/>
    <path d="M0,0 L0,20 L15,20 L30,10 L15,0 Z" class="cell_rst_n"/>
    <g s:x="28" s:y="10" s:pid="Y"/>
  </g>
  <g s:type="outputExt" transform="translate(830,46)" s:width="30" s:height="20" id="cell_rd">
    <text x="15" y="-4" class="nodelabel cell_rd" s:attribute="ref">rd</text>
    <s:alias val="$_outputExt_"/>
    <path d="M30,0 L30,20 L15,20 L0,10 L15,0 Z" class="cell_rd"/>
    <g s:x="0" s:y="10" s:pid="A"/>
  </g>
  <g s:type="outputExt" transform="translate(830,147)" s:width="30" s:height="20" id="cell_ds">
    <text x="15" y="-4" class="nodelabel cell_ds" s:attribute="ref">ds</text>
    <s:alias val="$_outputExt_"/>
    <path d="M30,0 L30,20 L15,20 L0,10 L15,0 Z" class="cell_ds"/>
    <g s:x="0" s:y="10" s:pid="A"/>
  </g>
  <g s:type="constant" transform="translate(162,407)" s:width="30" s:height="20" id="cell_10">
    <text x="15" y="-4" class="nodelabel cell_10" s:attribute="ref">10</text>
    <s:alias val="$_constant_"/>
    <rect width="30" height="20" class="cell_10"/>
    <g s:x="30" s:y="10" s:pid="Y"/>
  </g>
  <g s:type="constant" transform="translate(269,342)" s:width="30" s:height="20" id="cell_11">
    <text x="15" y="-4" class="nodelabel cell_11" s:attribute="ref">11</text>
    <s:alias val="$_constant_"/>
    <rect width="30" height="20" class="cell_11"/>
    <g s:x="30" s:y="10" s:pid="Y"/>
  </g>
  <g s:type="constant" transform="translate(162,493)" s:width="30" s:height="20" id="cell_1">
    <text x="15" y="-4" class="nodelabel cell_1" s:attribute="ref">1</text>
    <s:alias val="$_constant_"/>
    <rect width="30" height="20" class="cell_1"/>
    <g s:x="30" s:y="10" s:pid="Y"/>
  </g>
  <g s:type="constant" transform="translate(710,287)" s:width="30" s:height="20" id="cell_00">
    <text x="15" y="-4" class="nodelabel cell_00" s:attribute="ref">00</text>
    <s:alias val="$_constant_"/>
    <rect width="30" height="20" class="cell_00"/>
    <g s:x="30" s:y="10" s:pid="Y"/>
  </g>
  <g s:type="constant" transform="translate(459,524)" s:width="30" s:height="20" id="cell_0">
    <text x="15" y="-4" class="nodelabel cell_0" s:attribute="ref">0</text>
    <s:alias val="$_constant_"/>
    <rect width="30" height="20" class="cell_0"/>
    <g s:x="30" s:y="10" s:pid="Y"/>
  </g>
  <g s:type="constant" transform="translate(459,157)" s:width="30" s:height="20" id="cell_01">
    <text x="15" y="-4" class="nodelabel cell_01" s:attribute="ref">01</text>
    <s:alias val="$_constant_"/>
    <rect width="30" height="20" class="cell_01"/>
    <g s:x="30" s:y="10" s:pid="Y"/>
  </g>
  <g s:type="join" transform="translate(411,25)" s:width="4" s:height="40" id="cell_$join$,8,9,">
    <rect width="5" height="40" class="splitjoinBody" s:generic="body"/>
    <s:alias val="$_join_"/>
    <g s:x="5" s:y="20" s:pid="out"/>
    <g transform="translate(0,10)" s:x="0" s:y="10" s:pid="in0">
      <text x="-3" y="-4" class="inputPortLabel">0</text>
    </g>
    <g transform="translate(0,30)" s:x="0" s:y="10" s:pid="in0">
      <text x="-3" y="-4" class="inputPortLabel">1</text>
    </g>
  </g>
  <g s:type="join" transform="translate(345,439)" s:width="4" s:height="40" id="cell_$join$,11,12,">
    <rect width="5" height="40" class="splitjoinBody" s:generic="body"/>
    <s:alias val="$_join_"/>
    <g s:x="5" s:y="20" s:pid="out"/>
    <g transform="translate(0,10)" s:x="0" s:y="10" s:pid="in0">
      <text x="-3" y="-4" class="inputPortLabel">0</text>
    </g>
    <g transform="translate(0,30)" s:x="0" s:y="10" s:pid="in0">
      <text x="-3" y="-4" class="inputPortLabel">1</text>
    </g>
  </g>
  <g s:type="join" transform="translate(411,212)" s:width="4" s:height="40" id="cell_$join$,8,11,12,">
    <rect width="5" height="40" class="splitjoinBody" s:generic="body"/>
    <s:alias val="$_join_"/>
    <g s:x="5" s:y="20" s:pid="out"/>
    <g transform="translate(0,10)" s:x="0" s:y="10" s:pid="in0">
      <text x="-3" y="-4" class="inputPortLabel">0</text>
    </g>
    <g transform="translate(0,30)" s:x="0" s:y="10" s:pid="in0">
      <text x="-3" y="-4" class="inputPortLabel">1:2</text>
    </g>
  </g>
  <g s:type="join" transform="translate(721,83)" s:width="4" s:height="40" id="cell_$join$,10,13,">
    <rect width="5" height="40" class="splitjoinBody" s:generic="body"/>
    <s:alias val="$_join_"/>
    <g s:x="5" s:y="20" s:pid="out"/>
    <g transform="translate(0,10)" s:x="0" s:y="10" s:pid="in0">
      <text x="-3" y="-4" class="inputPortLabel">0</text>
    </g>
    <g transform="translate(0,30)" s:x="0" s:y="10" s:pid="in0">
      <text x="-3" y="-4" class="inputPortLabel">1</text>
    </g>
  </g>
  <g s:type="join" transform="translate(54,14)" s:width="4" s:height="40" id="cell_$join$,x,x,">
    <rect width="5" height="40" class="splitjoinBody" s:generic="body"/>
    <s:alias val="$_join_"/>
    <g s:x="5" s:y="20" s:pid="out"/>
    <g transform="translate(0,10)" s:x="0" s:y="10" s:pid="in0">
      <text x="-3" y="-4" class="inputPortLabel">0</text>
    </g>
    <g transform="translate(0,30)" s:x="0" s:y="10" s:pid="in0">
      <text x="-3" y="-4" class="inputPortLabel">1</text>
    </g>
  </g>
  <g s:type="join" transform="translate(775,473.5)" s:width="4" s:height="40" id="cell_$join$,29,30,19,20,22,23,21,33,">
    <rect width="5" height="100" class="splitjoinBody" s:generic="body"/>
    <s:alias val="$_join_"/>
    <g s:x="5" s:y="20" s:pid="out"/>
    <g transform="translate(0,10)" s:x="0" s:y="10" s:pid="in0">
      <text x="-3" y="-4" class="inputPortLabel">0:1</text>
    </g>
    <g transform="translate(0,30)" s:x="0" s:y="10" s:pid="in0">
      <text x="-3" y="-4" class="inputPortLabel">2:3</text>
    </g>
    <g transform="translate(0,50)" s:x="0" s:y="10" s:pid="in0">
      <text x="-3" y="-4" class="inputPortLabel">4:5</text>
    </g>
    <g transform="translate(0,70)" s:x="0" s:y="10" s:pid="in0">
      <text x="-3" y="-4" class="inputPortLabel">6</text>
    </g>
    <g transform="translate(0,90)" s:x="0" s:y="10" s:pid="in0">
      <text x="-3" y="-4" class="inputPortLabel">7</text>
    </g>
  </g>
  <g s:type="join" transform="translate(782.5,619)" s:width="4" s:height="40" id="cell_$join$,9,11,12,8,">
    <rect width="5" height="60" class="splitjoinBody" s:generic="body"/>
    <s:alias val="$_join_"/>
    <g s:x="5" s:y="20" s:pid="out"/>
    <g transform="translate(0,10)" s:x="0" s:y="10" s:pid="in0">
      <text x="-3" y="-4" class="inputPortLabel">0</text>
    </g>
    <g transform="translate(0,30)" s:x="0" s:y="10" s:pid="in0">
      <text x="-3" y="-4" class="inputPortLabel">1:2</text>
    </g>
    <g transform="translate(0,50)" s:x="0" s:y="10" s:pid="in0">
      <text x="-3" y="-4" class="inputPortLabel">3</text>
    </g>
  </g>
  <g s:type="join" transform="translate(721,202)" s:width="4" s:height="40" id="cell_$join$,9,14,">
    <rect width="5" height="40" class="splitjoinBody" s:generic="body"/>
    <s:alias val="$_join_"/>
    <g s:x="5" s:y="20" s:pid="out"/>
    <g transform="translate(0,10)" s:x="0" s:y="10" s:pid="in0">
      <text x="-3" y="-4" class="inputPortLabel">0</text>
    </g>
    <g transform="translate(0,30)" s:x="0" s:y="10" s:pid="in0">
      <text x="-3" y="-4" class="inputPortLabel">1</text>
    </g>
  </g>
  <line x1="417" x2="459" y1="45.5" y2="45.5" class="net_8,9"/>
  <line x1="351" x2="384" y1="459.5" y2="459.5" class="net_11,12"/>
  <line x1="384" x2="384" y1="459.5" y2="113.5" class="net_11,12"/>
  <circle cx="384" cy="459.5" r="2" style="fill:#000" class="net_11,12"/>
  <line x1="384" x2="459" y1="113.5" y2="113.5" class="net_11,12"/>
  <line x1="351" x2="384" y1="459.5" y2="459.5" class="net_11,12"/>
  <line x1="384" x2="384" y1="459.5" y2="242.5" class="net_11,12"/>
  <circle cx="384" cy="242.5" r="2" style="fill:#000" class="net_11,12"/>
  <line x1="384" x2="411" y1="242.5" y2="242.5" class="net_11,12"/>
  <line x1="351" x2="384" y1="459.5" y2="459.5" class="net_11,12"/>
  <line x1="384" x2="384" y1="459.5" y2="649.5" class="net_11,12"/>
  <line x1="384" x2="782.5" y1="649.5" y2="649.5" class="net_11,12"/>
  <line x1="417" x2="459" y1="232.5" y2="232.5" class="net_8,11,12"/>
  <line x1="100" x2="112" y1="177.5" y2="177.5" class="net_5"/>
  <line x1="112" x2="112" y1="177.5" y2="222.5" class="net_5"/>
  <line x1="112" x2="162" y1="222.5" y2="222.5" class="net_5"/>
  <line x1="100" x2="162" y1="242.5" y2="242.5" class="net_4"/>
  <line x1="850" x2="870" y1="484" y2="484" class="net_15,16"/>
  <line x1="870" x2="870" y1="484" y2="689" class="net_15,16"/>
  <line x1="870" x2="112" y1="689" y2="689" class="net_15,16"/>
  <line x1="112" x2="112" y1="689" y2="262.5" class="net_15,16"/>
  <line x1="112" x2="162" y1="262.5" y2="262.5" class="net_15,16"/>
  <line x1="193" x2="334" y1="222.5" y2="222.5" class="net_17,18"/>
  <line x1="193" x2="309" y1="222.5" y2="222.5" class="net_17,18"/>
  <line x1="309" x2="309" y1="222.5" y2="128.5" class="net_17,18"/>
  <circle cx="309" cy="222.5" r="2" style="fill:#000" class="net_17,18"/>
  <line x1="309" x2="341" y1="128.5" y2="128.5" class="net_17,18"/>
  <line x1="193" x2="254" y1="222.5" y2="222.5" class="net_17,18"/>
  <line x1="254" x2="254" y1="222.5" y2="402" class="net_17,18"/>
  <circle cx="254" cy="222.5" r="2" style="fill:#000" class="net_17,18"/>
  <circle cx="254" cy="402" r="2" style="fill:#000" class="net_17,18"/>
  <line x1="254" x2="273.66666666666663" y1="402" y2="402" class="net_17,18"/>
  <line x1="193" x2="254" y1="222.5" y2="222.5" class="net_17,18"/>
  <line x1="254" x2="254" y1="222.5" y2="462" class="net_17,18"/>
  <line x1="254" x2="273.66666666666663" y1="462" y2="462" class="net_17,18"/>
  <line x1="750" x2="775" y1="46" y2="46" class="net_x"/>
  <line x1="750" x2="750" y1="46" y2="147" class="net_x"/>
  <line x1="750" x2="775" y1="147" y2="147" class="net_x"/>
  <line x1="192" x2="244" y1="417" y2="417" class="net_22,23"/>
  <line x1="244" x2="244" y1="417" y2="12" class="net_22,23"/>
  <line x1="244" x2="760" y1="12" y2="12" class="net_22,23"/>
  <line x1="760" x2="760" y1="12" y2="66" class="net_22,23"/>
  <circle cx="244" cy="417" r="2" style="fill:#000" class="net_22,23"/>
  <line x1="760" x2="775" y1="66" y2="66" class="net_22,23"/>
  <line x1="192" x2="273.66666666666663" y1="417" y2="417" class="net_22,23"/>
  <line x1="192" x2="244" y1="417" y2="417" class="net_22,23"/>
  <line x1="244" x2="244" y1="417" y2="492" class="net_22,23"/>
  <line x1="244" x2="750" y1="492" y2="492" class="net_22,23"/>
  <line x1="750" x2="750" y1="492" y2="524" class="net_22,23"/>
  <line x1="750" x2="775" y1="524" y2="524" class="net_22,23"/>
  <line x1="727" x2="785" y1="103.5" y2="103.5" class="net_10,13"/>
  <line x1="785" x2="785" y1="103.5" y2="71" class="net_10,13"/>
  <line x1="299" x2="319" y1="352" y2="352" class="net_24,25"/>
  <line x1="319" x2="319" y1="352" y2="143.5" class="net_24,25"/>
  <circle cx="319" cy="352" r="2" style="fill:#000" class="net_24,25"/>
  <line x1="319" x2="341" y1="143.5" y2="143.5" class="net_24,25"/>
  <line x1="299" x2="715.6666666666666" y1="352" y2="352" class="net_24,25"/>
  <line x1="192" x2="254" y1="503" y2="503" class="net_28"/>
  <line x1="254" x2="254" y1="503" y2="477" class="net_28"/>
  <circle cx="254" cy="503" r="2" style="fill:#000" class="net_28"/>
  <line x1="254" x2="273.66666666666663" y1="477" y2="477" class="net_28"/>
  <line x1="192" x2="695" y1="503" y2="503" class="net_28"/>
  <line x1="695" x2="695" y1="503" y2="554" class="net_28"/>
  <line x1="695" x2="715.6666666666666" y1="554" y2="554" class="net_28"/>
  <line x1="781" x2="830" y1="494" y2="494" class="net_29,30,19,20,22,23,21,33"/>
  <line x1="788.5" x2="840" y1="639.5" y2="639.5" class="net_9,11,12,8"/>
  <line x1="840" x2="840" y1="639.5" y2="499" class="net_9,11,12,8"/>
  <line x1="489" x2="775" y1="167" y2="167" class="net_34,35"/>
  <line x1="489" x2="685" y1="167" y2="167" class="net_34,35"/>
  <line x1="685" x2="685" y1="167" y2="372" class="net_34,35"/>
  <circle cx="685" cy="167" r="2" style="fill:#000" class="net_34,35"/>
  <line x1="685" x2="715.6666666666666" y1="372" y2="372" class="net_34,35"/>
  <line x1="727" x2="785" y1="222.5" y2="222.5" class="net_9,14"/>
  <line x1="785" x2="785" y1="222.5" y2="172" class="net_9,14"/>
  <line x1="489" x2="715.6666666666666" y1="534" y2="534" class="net_33"/>
  <line x1="489" x2="685" y1="534" y2="534" class="net_33"/>
  <line x1="685" x2="685" y1="534" y2="609" class="net_33"/>
  <line x1="685" x2="775.5" y1="609" y2="609" class="net_33"/>
  <circle cx="685" cy="534" r="2" style="fill:#000" class="net_33"/>
  <line x1="775.5" x2="775.5" y1="609" y2="564.5" class="net_33"/>
  <line x1="487" x2="725.6666666666666" y1="599" y2="599" class="net_2"/>
  <line x1="725.6666666666666" x2="725.6666666666666" y1="599" y2="559" class="net_2"/>
  <line x1="487" x2="725.6666666666666" y1="472" y2="472" class="net_3"/>
  <line x1="725.6666666666666" x2="725.6666666666666" y1="472" y2="377" class="net_3"/>
  <line x1="795" x2="830" y1="56" y2="56" class="net_6"/>
  <line x1="795" x2="830" y1="157" y2="157" class="net_7"/>
  <line x1="359" x2="374" y1="222.5" y2="222.5" class="net_8"/>
  <line x1="374" x2="374" y1="222.5" y2="35.5" class="net_8"/>
  <circle cx="374" cy="222.5" r="2" style="fill:#000" class="net_8"/>
  <line x1="374" x2="411" y1="35.5" y2="35.5" class="net_8"/>
  <line x1="359" x2="411" y1="222.5" y2="222.5" class="net_8"/>
  <line x1="359" x2="374" y1="222.5" y2="222.5" class="net_8"/>
  <line x1="374" x2="374" y1="222.5" y2="669.5" class="net_8"/>
  <line x1="374" x2="782.5" y1="669.5" y2="669.5" class="net_8"/>
  <line x1="363" x2="394" y1="136" y2="136" class="net_9"/>
  <line x1="394" x2="394" y1="136" y2="55.5" class="net_9"/>
  <circle cx="394" cy="136" r="2" style="fill:#000" class="net_9"/>
  <line x1="394" x2="411" y1="55.5" y2="55.5" class="net_9"/>
  <line x1="363" x2="394" y1="136" y2="136" class="net_9"/>
  <line x1="394" x2="394" y1="136" y2="629.5" class="net_9"/>
  <line x1="394" x2="782.5" y1="629.5" y2="629.5" class="net_9"/>
  <line x1="363" x2="695" y1="136" y2="136" class="net_9"/>
  <line x1="695" x2="695" y1="136" y2="212.5" class="net_9"/>
  <line x1="695" x2="721" y1="212.5" y2="212.5" class="net_9"/>
  <line x1="295.66666666666663" x2="309" y1="409.5" y2="409.5" class="net_11"/>
  <line x1="309" x2="309" y1="409.5" y2="449.5" class="net_11"/>
  <line x1="309" x2="345" y1="449.5" y2="449.5" class="net_11"/>
  <line x1="295.66666666666663" x2="345" y1="469.5" y2="469.5" class="net_12"/>
  <line x1="490" x2="685" y1="45.5" y2="45.5" class="net_10"/>
  <line x1="685" x2="685" y1="45.5" y2="93.5" class="net_10"/>
  <line x1="685" x2="721" y1="93.5" y2="93.5" class="net_10"/>
  <line x1="490" x2="721" y1="113.5" y2="113.5" class="net_13"/>
  <line x1="22" x2="54" y1="24.5" y2="24.5" class="net_NaN"/>
  <line x1="22" x2="22" y1="24.5" y2="44.5" class="net_NaN"/>
  <line x1="22" x2="54" y1="44.5" y2="44.5" class="net_NaN"/>
  <line x1="740" x2="775.5" y1="297" y2="297" class="net_29,30"/>
  <line x1="775.5" x2="775.5" y1="297" y2="483.5" class="net_29,30"/>
  <line x1="735.6666666666666" x2="760" y1="362" y2="362" class="net_19,20"/>
  <line x1="760" x2="760" y1="362" y2="504" class="net_19,20"/>
  <line x1="760" x2="775" y1="504" y2="504" class="net_19,20"/>
  <line x1="735.6666666666666" x2="775" y1="544" y2="544" class="net_21"/>
  <line x1="490" x2="721" y1="232.5" y2="232.5" class="net_14"/>
</svg>
