<svg style="background:white" xmlns="http://www.w3.org/2000/svg" xmlns:xlink="http://www.w3.org/1999/xlink" xmlns:s="https://github.com/nturley/netlistsvg" width="994" height="971">
  <style>svg {
    stroke:#000;
    fill:none;
  }
  text {
    fill:#000;
    stroke:none;
    font-size:10px;
    font-weight: bold;
    font-family: "Courier New", monospace;
  }
  .nodelabel {
    text-anchor: middle;
  }
  .inputPortLabel {
    text-anchor: end;
  }
  .splitjoinBody {
    fill:#000;
  }</style>
  <g s:type="generic" transform="translate(514,883.5)" s:width="30" s:height="40" id="cell_$auto$opt_reduce.cc:131:opt_pmux$125">
    <text x="15" y="-4" class="nodelabel cell_$auto$opt_reduce.cc:131:opt_pmux$125" s:attribute="ref">$reduce_or</text>
    <rect width="30" height="20" s:generic="body" class="cell_$auto$opt_reduce.cc:131:opt_pmux$125"/>
    <g transform="translate(0,10)" s:x="0" s:y="10" s:pid="in0" id="port_$auto$opt_reduce.cc:131:opt_pmux$125~A">
      <text x="-3" y="-4" class="inputPortLabel cell_$auto$opt_reduce.cc:131:opt_pmux$125">A</text>
    </g>
    <g transform="translate(30,10)" s:x="30" s:y="10" s:pid="out0" id="port_$auto$opt_reduce.cc:131:opt_pmux$125~Y">
      <text x="5" y="-4" style="fill:#000; stroke:none" class="cell_$auto$opt_reduce.cc:131:opt_pmux$125">Y</text>
    </g>
  </g>
  <g s:type="generic" transform="translate(845,896)" s:width="30" s:height="40" id="cell_$procdff$114">
    <text x="15" y="-4" class="nodelabel cell_$procdff$114" s:attribute="ref">$adff</text>
    <rect width="30" height="60" s:generic="body" class="cell_$procdff$114"/>
    <g transform="translate(0,10)" s:x="0" s:y="10" s:pid="in0" id="port_$procdff$114~ARST">
      <text x="-3" y="-4" class="inputPortLabel cell_$procdff$114">ARST</text>
    </g>
    <g transform="translate(0,30)" s:x="0" s:y="10" s:pid="in0" id="port_$procdff$114~CLK">
      <text x="-3" y="-4" class="inputPortLabel cell_$procdff$114">CLK</text>
    </g>
    <g transform="translate(0,50)" s:x="0" s:y="10" s:pid="in0" id="port_$procdff$114~D">
      <text x="-3" y="-4" class="inputPortLabel cell_$procdff$114">D</text>
    </g>
    <g transform="translate(30,10)" s:x="30" s:y="10" s:pid="out0" id="port_$procdff$114~Q">
      <text x="5" y="-4" style="fill:#000; stroke:none" class="cell_$procdff$114">Q</text>
    </g>
  </g>
  <g s:type="generic" transform="translate(845,22)" s:width="30" s:height="40" id="cell_$procdff$119">
    <text x="15" y="-4" class="nodelabel cell_$procdff$119" s:attribute="ref">$adff</text>
    <rect width="30" height="60" s:generic="body" class="cell_$procdff$119"/>
    <g transform="translate(0,10)" s:x="0" s:y="10" s:pid="in0" id="port_$procdff$119~ARST">
      <text x="-3" y="-4" class="inputPortLabel cell_$procdff$119">ARST</text>
    </g>
    <g transform="translate(0,30)" s:x="0" s:y="10" s:pid="in0" id="port_$procdff$119~CLK">
      <text x="-3" y="-4" class="inputPortLabel cell_$procdff$119">CLK</text>
    </g>
    <g transform="translate(0,50)" s:x="0" s:y="10" s:pid="in0" id="port_$procdff$119~D">
      <text x="-3" y="-4" class="inputPortLabel cell_$procdff$119">D</text>
    </g>
    <g transform="translate(30,10)" s:x="30" s:y="10" s:pid="out0" id="port_$procdff$119~Q">
      <text x="5" y="-4" style="fill:#000; stroke:none" class="cell_$procdff$119">Q</text>
    </g>
  </g>
  <g s:type="generic" transform="translate(102,655)" s:width="30" s:height="40" id="cell_$procdff$124">
    <text x="15" y="-4" class="nodelabel cell_$procdff$124" s:attribute="ref">$adff</text>
    <rect width="30" height="60" s:generic="body" class="cell_$procdff$124"/>
    <g transform="translate(0,10)" s:x="0" s:y="10" s:pid="in0" id="port_$procdff$124~ARST">
      <text x="-3" y="-4" class="inputPortLabel cell_$procdff$124">ARST</text>
    </g>
    <g transform="translate(0,30)" s:x="0" s:y="10" s:pid="in0" id="port_$procdff$124~CLK">
      <text x="-3" y="-4" class="inputPortLabel cell_$procdff$124">CLK</text>
    </g>
    <g transform="translate(0,50)" s:x="0" s:y="10" s:pid="in0" id="port_$procdff$124~D">
      <text x="-3" y="-4" class="inputPortLabel cell_$procdff$124">D</text>
    </g>
    <g transform="translate(30,10)" s:x="30" s:y="10" s:pid="out0" id="port_$procdff$124~Q">
      <text x="5" y="-4" style="fill:#000; stroke:none" class="cell_$procdff$124">Q</text>
    </g>
  </g>
  <g s:type="eq" transform="translate(575.3333333333334,93.5)" s:width="25" s:height="25" id="cell_$procmux$100_CMP0">
    <s:alias val="$eq"/>
    <circle r="12.5" cx="12.5" cy="12.5" class="cell_$procmux$100_CMP0"/>
    <line x1="7.5" x2="17.5" y1="10" y2="10" class="cell_$procmux$100_CMP0"/>
    <line x1="7.5" x2="17.5" y1="15" y2="15" class="cell_$procmux$100_CMP0"/>
    <g s:x="3" s:y="5" s:pid="A"/>
    <g s:x="3" s:y="20" s:pid="B"/>
    <g s:x="25" s:y="12.5" s:pid="Y"/>
  </g>
  <g s:type="mux" transform="translate(765,790.5)" s:width="20" s:height="40" id="cell_$procmux$102">
    <s:alias val="$pmux"/>
    <s:alias val="$mux"/>
    <s:alias val="$_MUX_"/>
    <path d="M0,0 L20,10 L20,30 L0,40 Z" class="cell_$procmux$102"/>
    <g s:x="0" s:y="10" s:pid="A"/>
    <g s:x="0" s:y="30" s:pid="B"/>
    <g s:x="10" s:y="35" s:pid="S"/>
    <g s:x="20" s:y="20" s:pid="Y"/>
  </g>
  <g s:type="eq" transform="translate(399,831.5)" s:width="25" s:height="25" id="cell_$procmux$103_CMP0">
    <s:alias val="$eq"/>
    <circle r="12.5" cx="12.5" cy="12.5" class="cell_$procmux$103_CMP0"/>
    <line x1="7.5" x2="17.5" y1="10" y2="10" class="cell_$procmux$103_CMP0"/>
    <line x1="7.5" x2="17.5" y1="15" y2="15" class="cell_$procmux$103_CMP0"/>
    <g s:x="3" s:y="5" s:pid="A"/>
    <g s:x="3" s:y="20" s:pid="B"/>
    <g s:x="25" s:y="12.5" s:pid="Y"/>
  </g>
  <g s:type="eq" transform="translate(399,891.5)" s:width="25" s:height="25" id="cell_$procmux$104_CMP0">
    <s:alias val="$eq"/>
    <circle r="12.5" cx="12.5" cy="12.5" class="cell_$procmux$104_CMP0"/>
    <line x1="7.5" x2="17.5" y1="10" y2="10" class="cell_$procmux$104_CMP0"/>
    <line x1="7.5" x2="17.5" y1="15" y2="15" class="cell_$procmux$104_CMP0"/>
    <g s:x="3" s:y="5" s:pid="A"/>
    <g s:x="3" s:y="20" s:pid="B"/>
    <g s:x="25" s:y="12.5" s:pid="Y"/>
  </g>
  <g s:type="mux" transform="translate(344,760.5)" s:width="20" s:height="40" id="cell_$procmux$105">
    <s:alias val="$pmux"/>
    <s:alias val="$mux"/>
    <s:alias val="$_MUX_"/>
    <path d="M0,0 L20,10 L20,30 L0,40 Z" class="cell_$procmux$105"/>
    <g s:x="0" s:y="10" s:pid="A"/>
    <g s:x="0" s:y="30" s:pid="B"/>
    <g s:x="10" s:y="35" s:pid="S"/>
    <g s:x="20" s:y="20" s:pid="Y"/>
  </g>
  <g s:type="eq" transform="translate(225.66666666666666,520)" s:width="25" s:height="25" id="cell_$procmux$106_CMP0">
    <s:alias val="$eq"/>
    <circle r="12.5" cx="12.5" cy="12.5" class="cell_$procmux$106_CMP0"/>
    <line x1="7.5" x2="17.5" y1="10" y2="10" class="cell_$procmux$106_CMP0"/>
    <line x1="7.5" x2="17.5" y1="15" y2="15" class="cell_$procmux$106_CMP0"/>
    <g s:x="3" s:y="5" s:pid="A"/>
    <g s:x="3" s:y="20" s:pid="B"/>
    <g s:x="25" s:y="12.5" s:pid="Y"/>
  </g>
  <g s:type="eq" transform="translate(225.66666666666666,580)" s:width="25" s:height="25" id="cell_$procmux$107_CMP0">
    <s:alias val="$eq"/>
    <circle r="12.5" cx="12.5" cy="12.5" class="cell_$procmux$107_CMP0"/>
    <line x1="7.5" x2="17.5" y1="10" y2="10" class="cell_$procmux$107_CMP0"/>
    <line x1="7.5" x2="17.5" y1="15" y2="15" class="cell_$procmux$107_CMP0"/>
    <g s:x="3" s:y="5" s:pid="A"/>
    <g s:x="3" s:y="20" s:pid="B"/>
    <g s:x="25" s:y="12.5" s:pid="Y"/>
  </g>
  <g s:type="eq" transform="translate(225.66666666666666,660.5)" s:width="25" s:height="25" id="cell_$procmux$108_CMP0">
    <s:alias val="$eq"/>
    <circle r="12.5" cx="12.5" cy="12.5" class="cell_$procmux$108_CMP0"/>
    <line x1="7.5" x2="17.5" y1="10" y2="10" class="cell_$procmux$108_CMP0"/>
    <line x1="7.5" x2="17.5" y1="15" y2="15" class="cell_$procmux$108_CMP0"/>
    <g s:x="3" s:y="5" s:pid="A"/>
    <g s:x="3" s:y="20" s:pid="B"/>
    <g s:x="25" s:y="12.5" s:pid="Y"/>
  </g>
  <g s:type="not" transform="translate(224,720.5)" s:width="30" s:height="20" id="cell_$procmux$109_CMP0">
    <s:alias val="$_NOT_"/>
    <s:alias val="$not"/>
    <s:alias val="$logic_not"/>
    <path d="M0,0 L0,20 L20,10 Z" class="cell_$procmux$109_CMP0"/>
    <circle cx="23" cy="10" r="3" class="cell_$procmux$109_CMP0"/>
    <g s:x="0" s:y="10" s:pid="A"/>
    <g s:x="25" s:y="10" s:pid="Y"/>
  </g>
  <g s:type="mux" transform="translate(765,52.5)" s:width="20" s:height="40" id="cell_$procmux$99">
    <s:alias val="$pmux"/>
    <s:alias val="$mux"/>
    <s:alias val="$_MUX_"/>
    <path d="M0,0 L20,10 L20,30 L0,40 Z" class="cell_$procmux$99"/>
    <g s:x="0" s:y="10" s:pid="A"/>
    <g s:x="0" s:y="30" s:pid="B"/>
    <g s:x="10" s:y="35" s:pid="S"/>
    <g s:x="20" s:y="20" s:pid="Y"/>
  </g>
  <g s:type="mux" transform="translate(227.33333333333334,389.5)" s:width="20" s:height="40" id="cell_$ternary$.yosys_tmp/fsm_cc1_3.sv:22$15">
    <s:alias val="$pmux"/>
    <s:alias val="$mux"/>
    <s:alias val="$_MUX_"/>
    <path d="M0,0 L20,10 L20,30 L0,40 Z" class="cell_$ternary$.yosys_tmp/fsm_cc1_3.sv:22$15"/>
    <g s:x="0" s:y="10" s:pid="A"/>
    <g s:x="0" s:y="30" s:pid="B"/>
    <g s:x="10" s:y="35" s:pid="S"/>
    <g s:x="20" s:y="20" s:pid="Y"/>
  </g>
  <g s:type="mux" transform="translate(227.33333333333334,279.5)" s:width="20" s:height="40" id="cell_$ternary$.yosys_tmp/fsm_cc1_3.sv:24$17">
    <s:alias val="$pmux"/>
    <s:alias val="$mux"/>
    <s:alias val="$_MUX_"/>
    <path d="M0,0 L20,10 L20,30 L0,40 Z" class="cell_$ternary$.yosys_tmp/fsm_cc1_3.sv:24$17"/>
    <g s:x="0" s:y="10" s:pid="A"/>
    <g s:x="0" s:y="30" s:pid="B"/>
    <g s:x="10" s:y="35" s:pid="S"/>
    <g s:x="20" s:y="20" s:pid="Y"/>
  </g>
  <g s:type="inputExt" transform="translate(102,429.5)" s:width="30" s:height="20" id="cell_go">
    <text x="15" y="-4" class="nodelabel cell_go" s:attribute="ref">go</text>
    <s:alias val="$_inputExt_"/>
    <path d="M0,0 L0,20 L15,20 L30,10 L15,0 Z" class="cell_go"/>
    <g s:x="28" s:y="10" s:pid="Y"/>
  </g>
  <g s:type="inputExt" transform="translate(102,364.5)" s:width="30" s:height="20" id="cell_ws">
    <text x="15" y="-4" class="nodelabel cell_ws" s:attribute="ref">ws</text>
    <s:alias val="$_inputExt_"/>
    <path d="M0,0 L0,20 L15,20 L30,10 L15,0 Z" class="cell_ws"/>
    <g s:x="28" s:y="10" s:pid="Y"/>
  </g>
  <g s:type="inputExt" transform="translate(12,675.5)" s:width="30" s:height="20" id="cell_clk">
    <text x="15" y="-4" class="nodelabel cell_clk" s:attribute="ref">clk</text>
    <s:alias val="$_inputExt_"/>
    <path d="M0,0 L0,20 L15,20 L30,10 L15,0 Z" class="cell_clk"/>
    <g s:x="28" s:y="10" s:pid="Y"/>
  </g>
  <g s:type="inputExt" transform="translate(12,118.5)" s:width="30" s:height="20" id="cell_rst_n">
    <text x="15" y="-4" class="nodelabel cell_rst_n" s:attribute="ref">rst_n</text>
    <s:alias val="$_inputExt_"/>
    <path d="M0,0 L0,20 L15,20 L30,10 L15,0 Z" class="cell_rst_n"/>
    <g s:x="28" s:y="10" s:pid="Y"/>
  </g>
  <g s:type="outputExt" transform="translate(952,896.5)" s:width="30" s:height="20" id="cell_rd">
    <text x="15" y="-4" class="nodelabel cell_rd" s:attribute="ref">rd</text>
    <s:alias val="$_outputExt_"/>
    <path d="M30,0 L30,20 L15,20 L0,10 L15,0 Z" class="cell_rd"/>
    <g s:x="0" s:y="10" s:pid="A"/>
  </g>
  <g s:type="outputExt" transform="translate(952,22.5)" s:width="30" s:height="20" id="cell_ds">
    <text x="15" y="-4" class="nodelabel cell_ds" s:attribute="ref">ds</text>
    <s:alias val="$_outputExt_"/>
    <path d="M30,0 L30,20 L15,20 L0,10 L15,0 Z" class="cell_ds"/>
    <g s:x="0" s:y="10" s:pid="A"/>
  </g>
  <g s:type="constant" transform="translate(102,234.5)" s:width="30" s:height="20" id="cell_11">
    <text x="15" y="-4" class="nodelabel cell_11" s:attribute="ref">11</text>
    <s:alias val="$_constant_"/>
    <rect width="30" height="20" class="cell_11"/>
    <g s:x="30" s:y="10" s:pid="Y"/>
  </g>
  <g s:type="constant" transform="translate(102,169.5)" s:width="30" s:height="20" id="cell_0">
    <text x="15" y="-4" class="nodelabel cell_0" s:attribute="ref">0</text>
    <s:alias val="$_constant_"/>
    <rect width="30" height="20" class="cell_0"/>
    <g s:x="30" s:y="10" s:pid="Y"/>
  </g>
  <g s:type="constant" transform="translate(102,525)" s:width="30" s:height="20" id="cell_1">
    <text x="15" y="-4" class="nodelabel cell_1" s:attribute="ref">1</text>
    <s:alias val="$_constant_"/>
    <rect width="30" height="20" class="cell_1"/>
    <g s:x="30" s:y="10" s:pid="Y"/>
  </g>
  <g s:type="constant" transform="translate(102,590)" s:width="30" s:height="20" id="cell_10">
    <text x="15" y="-4" class="nodelabel cell_10" s:attribute="ref">10</text>
    <s:alias val="$_constant_"/>
    <rect width="30" height="20" class="cell_10"/>
    <g s:x="30" s:y="10" s:pid="Y"/>
  </g>
  <g s:type="constant" transform="translate(224,149.5)" s:width="30" s:height="20" id="cell_00">
    <text x="15" y="-4" class="nodelabel cell_00" s:attribute="ref">00</text>
    <s:alias val="$_constant_"/>
    <rect width="30" height="20" class="cell_00"/>
    <g s:x="30" s:y="10" s:pid="Y"/>
  </g>
  <g s:type="constant" transform="translate(102,299.5)" s:width="30" s:height="20" id="cell_01">
    <text x="15" y="-4" class="nodelabel cell_01" s:attribute="ref">01</text>
    <s:alias val="$_constant_"/>
    <rect width="30" height="20" class="cell_01"/>
    <g s:x="30" s:y="10" s:pid="Y"/>
  </g>
  <g s:type="join" transform="translate(466,873.5)" s:width="4" s:height="40" id="cell_$join$,8,9,">
    <rect width="5" height="40" class="splitjoinBody" s:generic="body"/>
    <s:alias val="$_join_"/>
    <g s:x="5" s:y="20" s:pid="out"/>
    <g transform="translate(0,10)" s:x="0" s:y="10" s:pid="in0">
      <text x="-3" y="-4" class="inputPortLabel">0</text>
    </g>
    <g transform="translate(0,30)" s:x="0" s:y="10" s:pid="in0">
      <text x="-3" y="-4" class="inputPortLabel">1</text>
    </g>
  </g>
  <g s:type="join" transform="translate(289,399)" s:width="4" s:height="40" id="cell_$join$,32,33,18,19,29,30,20,27,">
    <rect width="5" height="100" class="splitjoinBody" s:generic="body"/>
    <s:alias val="$_join_"/>
    <g s:x="5" s:y="20" s:pid="out"/>
    <g transform="translate(0,10)" s:x="0" s:y="10" s:pid="in0">
      <text x="-3" y="-4" class="inputPortLabel">0:1</text>
    </g>
    <g transform="translate(0,30)" s:x="0" s:y="10" s:pid="in0">
      <text x="-3" y="-4" class="inputPortLabel">2:3</text>
    </g>
    <g transform="translate(0,50)" s:x="0" s:y="10" s:pid="in0">
      <text x="-3" y="-4" class="inputPortLabel">4:5</text>
    </g>
    <g transform="translate(0,70)" s:x="0" s:y="10" s:pid="in0">
      <text x="-3" y="-4" class="inputPortLabel">6</text>
    </g>
    <g transform="translate(0,90)" s:x="0" s:y="10" s:pid="in0">
      <text x="-3" y="-4" class="inputPortLabel">7</text>
    </g>
  </g>
  <g s:type="join" transform="translate(296.5,622.5)" s:width="4" s:height="40" id="cell_$join$,21,22,23,24,">
    <rect width="5" height="80" class="splitjoinBody" s:generic="body"/>
    <s:alias val="$_join_"/>
    <g s:x="5" s:y="20" s:pid="out"/>
    <g transform="translate(0,10)" s:x="0" s:y="10" s:pid="in0">
      <text x="-3" y="-4" class="inputPortLabel">0</text>
    </g>
    <g transform="translate(0,30)" s:x="0" s:y="10" s:pid="in0">
      <text x="-3" y="-4" class="inputPortLabel">1</text>
    </g>
    <g transform="translate(0,50)" s:x="0" s:y="10" s:pid="in0">
      <text x="-3" y="-4" class="inputPortLabel">2</text>
    </g>
    <g transform="translate(0,70)" s:x="0" s:y="10" s:pid="in0">
      <text x="-3" y="-4" class="inputPortLabel">3</text>
    </g>
  </g>
  <line x1="472" x2="514" y1="894" y2="894" class="net_8,9"/>
  <line x1="40" x2="805" y1="128.5" y2="128.5" class="net_5"/>
  <line x1="805" x2="805" y1="128.5" y2="906.5" class="net_5"/>
  <line x1="805" x2="845" y1="906.5" y2="906.5" class="net_5"/>
  <line x1="40" x2="62" y1="128.5" y2="128.5" class="net_5"/>
  <line x1="62" x2="62" y1="128.5" y2="30.5" class="net_5"/>
  <line x1="62" x2="795" y1="30.5" y2="30.5" class="net_5"/>
  <line x1="795" x2="795" y1="30.5" y2="32.5" class="net_5"/>
  <circle cx="62" cy="128.5" r="2" style="fill:#000" class="net_5"/>
  <line x1="795" x2="845" y1="32.5" y2="32.5" class="net_5"/>
  <line x1="40" x2="62" y1="128.5" y2="128.5" class="net_5"/>
  <line x1="62" x2="62" y1="128.5" y2="665.5" class="net_5"/>
  <line x1="62" x2="102" y1="665.5" y2="665.5" class="net_5"/>
  <line x1="40" x2="52" y1="685.5" y2="685.5" class="net_4"/>
  <line x1="52" x2="52" y1="685.5" y2="926.5" class="net_4"/>
  <circle cx="52" cy="685.5" r="2" style="fill:#000" class="net_4"/>
  <line x1="52" x2="845" y1="926.5" y2="926.5" class="net_4"/>
  <line x1="40" x2="52" y1="685.5" y2="685.5" class="net_4"/>
  <line x1="52" x2="52" y1="685.5" y2="41.5" class="net_4"/>
  <line x1="52" x2="795" y1="41.5" y2="41.5" class="net_4"/>
  <line x1="795" x2="795" y1="41.5" y2="52.5" class="net_4"/>
  <line x1="795" x2="845" y1="52.5" y2="52.5" class="net_4"/>
  <line x1="40" x2="102" y1="685.5" y2="685.5" class="net_4"/>
  <line x1="785" x2="795" y1="810.5" y2="810.5" class="net_11"/>
  <line x1="795" x2="795" y1="810.5" y2="946.5" class="net_11"/>
  <line x1="795" x2="845" y1="946.5" y2="946.5" class="net_11"/>
  <line x1="785" x2="845" y1="72.5" y2="72.5" class="net_12"/>
  <line x1="364" x2="374" y1="780.5" y2="780.5" class="net_13,14"/>
  <line x1="374" x2="374" y1="780.5" y2="750.5" class="net_13,14"/>
  <line x1="374" x2="62" y1="750.5" y2="750.5" class="net_13,14"/>
  <line x1="62" x2="62" y1="750.5" y2="705.5" class="net_13,14"/>
  <circle cx="374" cy="750.5" r="2" style="fill:#000" class="net_13,14"/>
  <circle cx="374" cy="780.5" r="2" style="fill:#000" class="net_13,14"/>
  <line x1="62" x2="102" y1="705.5" y2="705.5" class="net_13,14"/>
  <line x1="364" x2="374" y1="780.5" y2="780.5" class="net_13,14"/>
  <line x1="374" x2="374" y1="780.5" y2="98.5" class="net_13,14"/>
  <line x1="374" x2="578.3333333333334" y1="98.5" y2="98.5" class="net_13,14"/>
  <line x1="364" x2="374" y1="780.5" y2="780.5" class="net_13,14"/>
  <line x1="374" x2="374" y1="780.5" y2="836.5" class="net_13,14"/>
  <circle cx="374" cy="836.5" r="2" style="fill:#000" class="net_13,14"/>
  <line x1="374" x2="402" y1="836.5" y2="836.5" class="net_13,14"/>
  <line x1="364" x2="374" y1="780.5" y2="780.5" class="net_13,14"/>
  <line x1="374" x2="374" y1="780.5" y2="896.5" class="net_13,14"/>
  <line x1="374" x2="402" y1="896.5" y2="896.5" class="net_13,14"/>
  <line x1="132" x2="204" y1="244.5" y2="244.5" class="net_25,26"/>
  <line x1="204" x2="204" y1="244.5" y2="113.5" class="net_25,26"/>
  <circle cx="204" cy="244.5" r="2" style="fill:#000" class="net_25,26"/>
  <line x1="204" x2="578.3333333333334" y1="113.5" y2="113.5" class="net_25,26"/>
  <line x1="132" x2="204" y1="244.5" y2="244.5" class="net_25,26"/>
  <line x1="204" x2="204" y1="244.5" y2="540" class="net_25,26"/>
  <line x1="204" x2="228.66666666666666" y1="540" y2="540" class="net_25,26"/>
  <line x1="132" x2="204" y1="244.5" y2="244.5" class="net_25,26"/>
  <line x1="204" x2="204" y1="244.5" y2="289.5" class="net_25,26"/>
  <circle cx="204" cy="289.5" r="2" style="fill:#000" class="net_25,26"/>
  <line x1="204" x2="227.33333333333334" y1="289.5" y2="289.5" class="net_25,26"/>
  <line x1="132" x2="740" y1="179.5" y2="179.5" class="net_27"/>
  <line x1="740" x2="740" y1="179.5" y2="800.5" class="net_27"/>
  <line x1="740" x2="765" y1="800.5" y2="800.5" class="net_27"/>
  <line x1="132" x2="214" y1="179.5" y2="179.5" class="net_27"/>
  <line x1="214" x2="214" y1="179.5" y2="62.5" class="net_27"/>
  <circle cx="214" cy="179.5" r="2" style="fill:#000" class="net_27"/>
  <line x1="214" x2="765" y1="62.5" y2="62.5" class="net_27"/>
  <line x1="132" x2="214" y1="179.5" y2="179.5" class="net_27"/>
  <line x1="214" x2="214" y1="179.5" y2="399.5" class="net_27"/>
  <circle cx="214" cy="399.5" r="2" style="fill:#000" class="net_27"/>
  <line x1="214" x2="227.33333333333334" y1="399.5" y2="399.5" class="net_27"/>
  <line x1="132" x2="214" y1="179.5" y2="179.5" class="net_27"/>
  <line x1="214" x2="214" y1="179.5" y2="509" class="net_27"/>
  <line x1="214" x2="289.5" y1="509" y2="509" class="net_27"/>
  <line x1="289.5" x2="289.5" y1="509" y2="490" class="net_27"/>
  <line x1="132" x2="184" y1="535" y2="535" class="net_28"/>
  <line x1="184" x2="184" y1="535" y2="820.5" class="net_28"/>
  <circle cx="184" cy="535" r="2" style="fill:#000" class="net_28"/>
  <circle cx="184" cy="820.5" r="2" style="fill:#000" class="net_28"/>
  <line x1="184" x2="765" y1="820.5" y2="820.5" class="net_28"/>
  <line x1="132" x2="184" y1="535" y2="535" class="net_28"/>
  <line x1="184" x2="184" y1="535" y2="911.5" class="net_28"/>
  <line x1="184" x2="402" y1="911.5" y2="911.5" class="net_28"/>
  <line x1="132" x2="184" y1="535" y2="535" class="net_28"/>
  <line x1="184" x2="184" y1="535" y2="680.5" class="net_28"/>
  <circle cx="184" cy="680.5" r="2" style="fill:#000" class="net_28"/>
  <line x1="184" x2="228.66666666666666" y1="680.5" y2="680.5" class="net_28"/>
  <line x1="132" x2="184" y1="535" y2="535" class="net_28"/>
  <line x1="184" x2="184" y1="535" y2="82.5" class="net_28"/>
  <line x1="184" x2="765" y1="82.5" y2="82.5" class="net_28"/>
  <line x1="132" x2="184" y1="535" y2="535" class="net_28"/>
  <line x1="184" x2="184" y1="535" y2="419.5" class="net_28"/>
  <circle cx="184" cy="419.5" r="2" style="fill:#000" class="net_28"/>
  <line x1="184" x2="227.33333333333334" y1="419.5" y2="419.5" class="net_28"/>
  <line x1="545" x2="775" y1="894" y2="894" class="net_10"/>
  <line x1="775" x2="775" y1="894" y2="825.5" class="net_10"/>
  <line x1="132" x2="194" y1="600" y2="600" class="net_29,30"/>
  <line x1="194" x2="194" y1="600" y2="851.5" class="net_29,30"/>
  <circle cx="194" cy="600" r="2" style="fill:#000" class="net_29,30"/>
  <line x1="194" x2="402" y1="851.5" y2="851.5" class="net_29,30"/>
  <line x1="132" x2="228.66666666666666" y1="600" y2="600" class="net_29,30"/>
  <line x1="132" x2="194" y1="600" y2="600" class="net_29,30"/>
  <line x1="194" x2="194" y1="600" y2="449.5" class="net_29,30"/>
  <line x1="194" x2="289" y1="449.5" y2="449.5" class="net_29,30"/>
  <line x1="295" x2="329" y1="419.5" y2="419.5" class="net_32,33,18,19,29,30,20,27"/>
  <line x1="329" x2="329" y1="419.5" y2="790.5" class="net_32,33,18,19,29,30,20,27"/>
  <line x1="329" x2="344" y1="790.5" y2="790.5" class="net_32,33,18,19,29,30,20,27"/>
  <line x1="302.5" x2="319" y1="643" y2="643" class="net_21,22,23,24"/>
  <line x1="319" x2="319" y1="643" y2="810.5" class="net_21,22,23,24"/>
  <line x1="319" x2="354" y1="810.5" y2="810.5" class="net_21,22,23,24"/>
  <line x1="354" x2="354" y1="810.5" y2="795.5" class="net_21,22,23,24"/>
  <line x1="133" x2="214" y1="665.5" y2="665.5" class="net_15,16"/>
  <line x1="214" x2="214" y1="665.5" y2="525" class="net_15,16"/>
  <circle cx="214" cy="665.5" r="2" style="fill:#000" class="net_15,16"/>
  <line x1="214" x2="228.66666666666666" y1="525" y2="525" class="net_15,16"/>
  <line x1="133" x2="214" y1="665.5" y2="665.5" class="net_15,16"/>
  <line x1="214" x2="214" y1="665.5" y2="585" class="net_15,16"/>
  <circle cx="214" cy="585" r="2" style="fill:#000" class="net_15,16"/>
  <line x1="214" x2="228.66666666666666" y1="585" y2="585" class="net_15,16"/>
  <line x1="133" x2="228.66666666666666" y1="665.5" y2="665.5" class="net_15,16"/>
  <line x1="133" x2="214" y1="665.5" y2="665.5" class="net_15,16"/>
  <line x1="214" x2="214" y1="665.5" y2="730.5" class="net_15,16"/>
  <line x1="214" x2="224" y1="730.5" y2="730.5" class="net_15,16"/>
  <line x1="600.3333333333334" x2="775" y1="106" y2="106" class="net_17"/>
  <line x1="775" x2="775" y1="106" y2="87.5" class="net_17"/>
  <line x1="130" x2="237.33333333333334" y1="439.5" y2="439.5" class="net_2"/>
  <line x1="237.33333333333334" x2="237.33333333333334" y1="439.5" y2="424.5" class="net_2"/>
  <line x1="132" x2="227.33333333333334" y1="309.5" y2="309.5" class="net_48,49"/>
  <line x1="130" x2="237.33333333333334" y1="374.5" y2="374.5" class="net_3"/>
  <line x1="237.33333333333334" x2="237.33333333333334" y1="374.5" y2="314.5" class="net_3"/>
  <line x1="876" x2="952" y1="906.5" y2="906.5" class="net_6"/>
  <line x1="876" x2="952" y1="32.5" y2="32.5" class="net_7"/>
  <line x1="424" x2="434" y1="844" y2="844" class="net_8"/>
  <line x1="434" x2="434" y1="844" y2="884" class="net_8"/>
  <line x1="434" x2="466" y1="884" y2="884" class="net_8"/>
  <line x1="424" x2="466" y1="904" y2="904" class="net_9"/>
  <line x1="254" x2="289.5" y1="159.5" y2="159.5" class="net_32,33"/>
  <line x1="289.5" x2="289.5" y1="159.5" y2="409" class="net_32,33"/>
  <line x1="247.33333333333334" x2="274" y1="299.5" y2="299.5" class="net_18,19"/>
  <line x1="274" x2="274" y1="299.5" y2="429.5" class="net_18,19"/>
  <line x1="274" x2="289" y1="429.5" y2="429.5" class="net_18,19"/>
  <line x1="247.33333333333334" x2="264" y1="409.5" y2="409.5" class="net_20"/>
  <line x1="264" x2="264" y1="409.5" y2="469.5" class="net_20"/>
  <line x1="264" x2="289" y1="469.5" y2="469.5" class="net_20"/>
  <line x1="250.66666666666666" x2="274" y1="532.5" y2="532.5" class="net_21"/>
  <line x1="274" x2="274" y1="532.5" y2="633" class="net_21"/>
  <line x1="274" x2="296.5" y1="633" y2="633" class="net_21"/>
  <line x1="250.66666666666666" x2="264" y1="592.5" y2="592.5" class="net_22"/>
  <line x1="264" x2="264" y1="592.5" y2="653" class="net_22"/>
  <line x1="264" x2="296.5" y1="653" y2="653" class="net_22"/>
  <line x1="250.66666666666666" x2="296.5" y1="673" y2="673" class="net_23"/>
  <line x1="249" x2="297" y1="730.5" y2="730.5" class="net_24"/>
  <line x1="297" x2="297" y1="730.5" y2="693.5" class="net_24"/>
</svg>
