<svg style="background:white" xmlns="http://www.w3.org/2000/svg" xmlns:xlink="http://www.w3.org/1999/xlink" xmlns:s="https://github.com/nturley/netlistsvg" width="401" height="622.5">
  <style>svg {
    stroke:#000;
    fill:none;
  }
  text {
    fill:#000;
    stroke:none;
    font-size:10px;
    font-weight: bold;
    font-family: "Courier New", monospace;
  }
  .nodelabel {
    text-anchor: middle;
  }
  .inputPortLabel {
    text-anchor: end;
  }
  .splitjoinBody {
    fill:#000;
  }</style>
  <g s:type="generic" transform="translate(102,471.5)" s:width="30" s:height="40" id="cell_$procdff$121">
    <text x="15" y="-4" class="nodelabel cell_$procdff$121" s:attribute="ref">$adff</text>
    <rect width="30" height="60" s:generic="body" class="cell_$procdff$121"/>
    <g transform="translate(0,10)" s:x="0" s:y="10" s:pid="in0" id="port_$procdff$121~ARST">
      <text x="-3" y="-4" class="inputPortLabel cell_$procdff$121">ARST</text>
    </g>
    <g transform="translate(0,30)" s:x="0" s:y="10" s:pid="in0" id="port_$procdff$121~CLK">
      <text x="-3" y="-4" class="inputPortLabel cell_$procdff$121">CLK</text>
    </g>
    <g transform="translate(0,50)" s:x="0" s:y="10" s:pid="in0" id="port_$procdff$121~D">
      <text x="-3" y="-4" class="inputPortLabel cell_$procdff$121">D</text>
    </g>
    <g transform="translate(30,10)" s:x="30" s:y="10" s:pid="out0" id="port_$procdff$121~Q">
      <text x="5" y="-4" style="fill:#000; stroke:none" class="cell_$procdff$121">Q</text>
    </g>
  </g>
  <g s:type="mux" transform="translate(349,152)" s:width="20" s:height="40" id="cell_$procmux$112">
    <s:alias val="$pmux"/>
    <s:alias val="$mux"/>
    <s:alias val="$_MUX_"/>
    <path d="M0,0 L20,10 L20,30 L0,40 Z" class="cell_$procmux$112"/>
    <g s:x="0" s:y="10" s:pid="A"/>
    <g s:x="0" s:y="30" s:pid="B"/>
    <g s:x="10" s:y="35" s:pid="S"/>
    <g s:x="20" s:y="20" s:pid="Y"/>
  </g>
  <g s:type="eq" transform="translate(225.66666666666666,336.5)" s:width="25" s:height="25" id="cell_$procmux$113_CMP0">
    <s:alias val="$eq"/>
    <circle r="12.5" cx="12.5" cy="12.5" class="cell_$procmux$113_CMP0"/>
    <line x1="7.5" x2="17.5" y1="10" y2="10" class="cell_$procmux$113_CMP0"/>
    <line x1="7.5" x2="17.5" y1="15" y2="15" class="cell_$procmux$113_CMP0"/>
    <g s:x="3" s:y="5" s:pid="A"/>
    <g s:x="3" s:y="20" s:pid="B"/>
    <g s:x="25" s:y="12.5" s:pid="Y"/>
  </g>
  <g s:type="eq" transform="translate(225.66666666666666,396.5)" s:width="25" s:height="25" id="cell_$procmux$114_CMP0">
    <s:alias val="$eq"/>
    <circle r="12.5" cx="12.5" cy="12.5" class="cell_$procmux$114_CMP0"/>
    <line x1="7.5" x2="17.5" y1="10" y2="10" class="cell_$procmux$114_CMP0"/>
    <line x1="7.5" x2="17.5" y1="15" y2="15" class="cell_$procmux$114_CMP0"/>
    <g s:x="3" s:y="5" s:pid="A"/>
    <g s:x="3" s:y="20" s:pid="B"/>
    <g s:x="25" s:y="12.5" s:pid="Y"/>
  </g>
  <g s:type="eq" transform="translate(225.66666666666666,477)" s:width="25" s:height="25" id="cell_$procmux$115_CMP0">
    <s:alias val="$eq"/>
    <circle r="12.5" cx="12.5" cy="12.5" class="cell_$procmux$115_CMP0"/>
    <line x1="7.5" x2="17.5" y1="10" y2="10" class="cell_$procmux$115_CMP0"/>
    <line x1="7.5" x2="17.5" y1="15" y2="15" class="cell_$procmux$115_CMP0"/>
    <g s:x="3" s:y="5" s:pid="A"/>
    <g s:x="3" s:y="20" s:pid="B"/>
    <g s:x="25" s:y="12.5" s:pid="Y"/>
  </g>
  <g s:type="not" transform="translate(224,537)" s:width="30" s:height="20" id="cell_$procmux$116_CMP0">
    <s:alias val="$_NOT_"/>
    <s:alias val="$not"/>
    <s:alias val="$logic_not"/>
    <path d="M0,0 L0,20 L20,10 Z" class="cell_$procmux$116_CMP0"/>
    <circle cx="23" cy="10" r="3" class="cell_$procmux$116_CMP0"/>
    <g s:x="0" s:y="10" s:pid="A"/>
    <g s:x="25" s:y="10" s:pid="Y"/>
  </g>
  <g s:type="mux" transform="translate(227.33333333333334,231.5)" s:width="20" s:height="40" id="cell_$ternary$.yosys_tmp/fsm_cc1_3oe.sv:20$23">
    <s:alias val="$pmux"/>
    <s:alias val="$mux"/>
    <s:alias val="$_MUX_"/>
    <path d="M0,0 L20,10 L20,30 L0,40 Z" class="cell_$ternary$.yosys_tmp/fsm_cc1_3oe.sv:20$23"/>
    <g s:x="0" s:y="10" s:pid="A"/>
    <g s:x="0" s:y="30" s:pid="B"/>
    <g s:x="10" s:y="35" s:pid="S"/>
    <g s:x="20" s:y="20" s:pid="Y"/>
  </g>
  <g s:type="mux" transform="translate(227.33333333333334,152)" s:width="20" s:height="40" id="cell_$ternary$.yosys_tmp/fsm_cc1_3oe.sv:22$25">
    <s:alias val="$pmux"/>
    <s:alias val="$mux"/>
    <s:alias val="$_MUX_"/>
    <path d="M0,0 L20,10 L20,30 L0,40 Z" class="cell_$ternary$.yosys_tmp/fsm_cc1_3oe.sv:22$25"/>
    <g s:x="0" s:y="10" s:pid="A"/>
    <g s:x="0" s:y="30" s:pid="B"/>
    <g s:x="10" s:y="35" s:pid="S"/>
    <g s:x="20" s:y="20" s:pid="Y"/>
  </g>
  <g s:type="inputExt" transform="translate(102,316.5)" s:width="30" s:height="20" id="cell_go">
    <text x="15" y="-4" class="nodelabel cell_go" s:attribute="ref">go</text>
    <s:alias val="$_inputExt_"/>
    <path d="M0,0 L0,20 L15,20 L30,10 L15,0 Z" class="cell_go"/>
    <g s:x="28" s:y="10" s:pid="Y"/>
  </g>
  <g s:type="inputExt" transform="translate(102,87)" s:width="30" s:height="20" id="cell_ws">
    <text x="15" y="-4" class="nodelabel cell_ws" s:attribute="ref">ws</text>
    <s:alias val="$_inputExt_"/>
    <path d="M0,0 L0,20 L15,20 L30,10 L15,0 Z" class="cell_ws"/>
    <g s:x="28" s:y="10" s:pid="Y"/>
  </g>
  <g s:type="inputExt" transform="translate(12,492)" s:width="30" s:height="20" id="cell_clk">
    <text x="15" y="-4" class="nodelabel cell_clk" s:attribute="ref">clk</text>
    <s:alias val="$_inputExt_"/>
    <path d="M0,0 L0,20 L15,20 L30,10 L15,0 Z" class="cell_clk"/>
    <g s:x="28" s:y="10" s:pid="Y"/>
  </g>
  <g s:type="inputExt" transform="translate(12,427)" s:width="30" s:height="20" id="cell_rst_n">
    <text x="15" y="-4" class="nodelabel cell_rst_n" s:attribute="ref">rst_n</text>
    <s:alias val="$_inputExt_"/>
    <path d="M0,0 L0,20 L15,20 L30,10 L15,0 Z" class="cell_rst_n"/>
    <g s:x="28" s:y="10" s:pid="Y"/>
  </g>
  <g s:type="outputExt" transform="translate(349,514.5)" s:width="30" s:height="20" id="cell_rd">
    <text x="15" y="-4" class="nodelabel cell_rd" s:attribute="ref">rd</text>
    <s:alias val="$_outputExt_"/>
    <path d="M30,0 L30,20 L15,20 L0,10 L15,0 Z" class="cell_rd"/>
    <g s:x="0" s:y="10" s:pid="A"/>
  </g>
  <g s:type="outputExt" transform="translate(349,579.5)" s:width="30" s:height="20" id="cell_ds">
    <text x="15" y="-4" class="nodelabel cell_ds" s:attribute="ref">ds</text>
    <s:alias val="$_outputExt_"/>
    <path d="M30,0 L30,20 L15,20 L0,10 L15,0 Z" class="cell_ds"/>
    <g s:x="0" s:y="10" s:pid="A"/>
  </g>
  <g s:type="constant" transform="translate(102,22)" s:width="30" s:height="20" id="cell_000">
    <text x="15" y="-4" class="nodelabel cell_000" s:attribute="ref">000</text>
    <s:alias val="$_constant_"/>
    <rect width="30" height="20" class="cell_000"/>
    <g s:x="30" s:y="10" s:pid="Y"/>
  </g>
  <g s:type="constant" transform="translate(102,406.5)" s:width="30" s:height="20" id="cell_101">
    <text x="15" y="-4" class="nodelabel cell_101" s:attribute="ref">101</text>
    <s:alias val="$_constant_"/>
    <rect width="30" height="20" class="cell_101"/>
    <g s:x="30" s:y="10" s:pid="Y"/>
  </g>
  <g s:type="constant" transform="translate(102,152)" s:width="30" s:height="20" id="cell_010">
    <text x="15" y="-4" class="nodelabel cell_010" s:attribute="ref">010</text>
    <s:alias val="$_constant_"/>
    <rect width="30" height="20" class="cell_010"/>
    <g s:x="30" s:y="10" s:pid="Y"/>
  </g>
  <g s:type="constant" transform="translate(102,251.5)" s:width="30" s:height="20" id="cell_001">
    <text x="15" y="-4" class="nodelabel cell_001" s:attribute="ref">001</text>
    <s:alias val="$_constant_"/>
    <rect width="30" height="20" class="cell_001"/>
    <g s:x="30" s:y="10" s:pid="Y"/>
  </g>
  <g s:type="join" transform="translate(308,161.5)" s:width="4" s:height="40" id="cell_$join$,22,23,24,12,13,14,25,26,27,15,16,17,">
    <rect width="5" height="80" class="splitjoinBody" s:generic="body"/>
    <s:alias val="$_join_"/>
    <g s:x="5" s:y="20" s:pid="out"/>
    <g transform="translate(0,10)" s:x="0" s:y="10" s:pid="in0">
      <text x="-3" y="-4" class="inputPortLabel">0:2</text>
    </g>
    <g transform="translate(0,30)" s:x="0" s:y="10" s:pid="in0">
      <text x="-3" y="-4" class="inputPortLabel">3:5</text>
    </g>
    <g transform="translate(0,50)" s:x="0" s:y="10" s:pid="in0">
      <text x="-3" y="-4" class="inputPortLabel">6:8</text>
    </g>
    <g transform="translate(0,70)" s:x="0" s:y="10" s:pid="in0">
      <text x="-3" y="-4" class="inputPortLabel">9:11</text>
    </g>
  </g>
  <g s:type="join" transform="translate(303.75,439)" s:width="4" s:height="40" id="cell_$join$,18,19,20,21,">
    <rect width="5" height="80" class="splitjoinBody" s:generic="body"/>
    <s:alias val="$_join_"/>
    <g s:x="5" s:y="20" s:pid="out"/>
    <g transform="translate(0,10)" s:x="0" s:y="10" s:pid="in0">
      <text x="-3" y="-4" class="inputPortLabel">0</text>
    </g>
    <g transform="translate(0,30)" s:x="0" s:y="10" s:pid="in0">
      <text x="-3" y="-4" class="inputPortLabel">1</text>
    </g>
    <g transform="translate(0,50)" s:x="0" s:y="10" s:pid="in0">
      <text x="-3" y="-4" class="inputPortLabel">2</text>
    </g>
    <g transform="translate(0,70)" s:x="0" s:y="10" s:pid="in0">
      <text x="-3" y="-4" class="inputPortLabel">3</text>
    </g>
  </g>
  <g s:type="split" transform="translate(300,559)" s:width="5" s:height="40" id="cell_$split$,6,7,11,">
    <rect width="5" height="40" class="splitjoinBody" s:generic="body"/>
    <s:alias val="$_split_"/>
    <g s:x="0" s:y="20" s:pid="in"/>
    <g transform="translate(4,10)" s:x="4" s:y="10" s:pid="out0">
      <text x="5" y="-4">0</text>
    </g>
    <g transform="translate(4,30)" s:x="4" s:y="10" s:pid="out0">
      <text x="5" y="-4">1</text>
    </g>
  </g>
  <line x1="40" x2="52" y1="437" y2="437" class="net_5"/>
  <line x1="52" x2="52" y1="437" y2="482" class="net_5"/>
  <line x1="52" x2="102" y1="482" y2="482" class="net_5"/>
  <line x1="40" x2="102" y1="502" y2="502" class="net_4"/>
  <line x1="369" x2="389" y1="172" y2="172" class="net_8,9,10"/>
  <line x1="389" x2="389" y1="172" y2="609.5" class="net_8,9,10"/>
  <line x1="389" x2="52" y1="609.5" y2="609.5" class="net_8,9,10"/>
  <line x1="52" x2="52" y1="609.5" y2="522" class="net_8,9,10"/>
  <line x1="52" x2="102" y1="522" y2="522" class="net_8,9,10"/>
  <line x1="314" x2="349" y1="182" y2="182" class="net_22,23,24,12,13,14,25,26,27,15,16,17"/>
  <line x1="309.75" x2="359" y1="459.5" y2="459.5" class="net_18,19,20,21"/>
  <line x1="359" x2="359" y1="459.5" y2="187" class="net_18,19,20,21"/>
  <line x1="133" x2="214" y1="482" y2="482" class="net_6,7,11"/>
  <line x1="214" x2="214" y1="482" y2="341.5" class="net_6,7,11"/>
  <circle cx="214" cy="482" r="2" style="fill:#000" class="net_6,7,11"/>
  <line x1="214" x2="228.66666666666666" y1="341.5" y2="341.5" class="net_6,7,11"/>
  <line x1="133" x2="214" y1="482" y2="482" class="net_6,7,11"/>
  <line x1="214" x2="214" y1="482" y2="401.5" class="net_6,7,11"/>
  <circle cx="214" cy="401.5" r="2" style="fill:#000" class="net_6,7,11"/>
  <line x1="214" x2="228.66666666666666" y1="401.5" y2="401.5" class="net_6,7,11"/>
  <line x1="133" x2="228.66666666666666" y1="482" y2="482" class="net_6,7,11"/>
  <line x1="133" x2="214" y1="482" y2="482" class="net_6,7,11"/>
  <line x1="214" x2="214" y1="482" y2="547" class="net_6,7,11"/>
  <circle cx="214" cy="547" r="2" style="fill:#000" class="net_6,7,11"/>
  <line x1="214" x2="224" y1="547" y2="547" class="net_6,7,11"/>
  <line x1="133" x2="214" y1="482" y2="482" class="net_6,7,11"/>
  <line x1="214" x2="214" y1="482" y2="579.5" class="net_6,7,11"/>
  <line x1="214" x2="300" y1="579.5" y2="579.5" class="net_6,7,11"/>
  <line x1="132" x2="184" y1="162" y2="162" class="net_28,29,30"/>
  <line x1="184" x2="184" y1="162" y2="356.5" class="net_28,29,30"/>
  <circle cx="184" cy="162" r="2" style="fill:#000" class="net_28,29,30"/>
  <line x1="184" x2="228.66666666666666" y1="356.5" y2="356.5" class="net_28,29,30"/>
  <line x1="132" x2="227.33333333333334" y1="162" y2="162" class="net_28,29,30"/>
  <line x1="132" x2="228.66666666666666" y1="416.5" y2="416.5" class="net_25,26,27"/>
  <line x1="132" x2="204" y1="416.5" y2="416.5" class="net_25,26,27"/>
  <line x1="204" x2="204" y1="416.5" y2="212" class="net_25,26,27"/>
  <circle cx="204" cy="416.5" r="2" style="fill:#000" class="net_25,26,27"/>
  <line x1="204" x2="308" y1="212" y2="212" class="net_25,26,27"/>
  <line x1="132" x2="194" y1="261.5" y2="261.5" class="net_34,35,36"/>
  <line x1="194" x2="194" y1="261.5" y2="497" class="net_34,35,36"/>
  <circle cx="194" cy="261.5" r="2" style="fill:#000" class="net_34,35,36"/>
  <line x1="194" x2="228.66666666666666" y1="497" y2="497" class="net_34,35,36"/>
  <line x1="132" x2="227.33333333333334" y1="261.5" y2="261.5" class="net_34,35,36"/>
  <line x1="132" x2="194" y1="261.5" y2="261.5" class="net_34,35,36"/>
  <line x1="194" x2="194" y1="261.5" y2="182" class="net_34,35,36"/>
  <line x1="194" x2="227.33333333333334" y1="182" y2="182" class="net_34,35,36"/>
  <line x1="132" x2="214" y1="32" y2="32" class="net_22,23,24"/>
  <line x1="214" x2="214" y1="32" y2="241.5" class="net_22,23,24"/>
  <circle cx="214" cy="32" r="2" style="fill:#000" class="net_22,23,24"/>
  <line x1="214" x2="227.33333333333334" y1="241.5" y2="241.5" class="net_22,23,24"/>
  <line x1="132" x2="274" y1="32" y2="32" class="net_22,23,24"/>
  <line x1="274" x2="274" y1="32" y2="172" class="net_22,23,24"/>
  <line x1="274" x2="308" y1="172" y2="172" class="net_22,23,24"/>
  <line x1="130" x2="237.33333333333334" y1="326.5" y2="326.5" class="net_2"/>
  <line x1="237.33333333333334" x2="237.33333333333334" y1="326.5" y2="266.5" class="net_2"/>
  <line x1="130" x2="204" y1="97" y2="97" class="net_3"/>
  <line x1="204" x2="204" y1="97" y2="202" class="net_3"/>
  <line x1="204" x2="237.33333333333334" y1="202" y2="202" class="net_3"/>
  <line x1="237.33333333333334" x2="237.33333333333334" y1="202" y2="187" class="net_3"/>
  <line x1="305" x2="324" y1="569.5" y2="569.5" class="net_6"/>
  <line x1="324" x2="324" y1="569.5" y2="524.5" class="net_6"/>
  <line x1="324" x2="349" y1="524.5" y2="524.5" class="net_6"/>
  <line x1="305" x2="349" y1="589.5" y2="589.5" class="net_7"/>
  <line x1="247.33333333333334" x2="264" y1="172" y2="172" class="net_12,13,14"/>
  <line x1="264" x2="264" y1="172" y2="192" class="net_12,13,14"/>
  <line x1="264" x2="308" y1="192" y2="192" class="net_12,13,14"/>
  <line x1="247.33333333333334" x2="308.5" y1="251.5" y2="251.5" class="net_15,16,17"/>
  <line x1="308.5" x2="308.5" y1="251.5" y2="232.5" class="net_15,16,17"/>
  <line x1="250.66666666666666" x2="274" y1="349" y2="349" class="net_18"/>
  <line x1="274" x2="274" y1="349" y2="449.5" class="net_18"/>
  <line x1="274" x2="303.75" y1="449.5" y2="449.5" class="net_18"/>
  <line x1="250.66666666666666" x2="264" y1="409" y2="409" class="net_19"/>
  <line x1="264" x2="264" y1="409" y2="469.5" class="net_19"/>
  <line x1="264" x2="303.75" y1="469.5" y2="469.5" class="net_19"/>
  <line x1="250.66666666666666" x2="303.75" y1="489.5" y2="489.5" class="net_20"/>
  <line x1="249" x2="304.25" y1="547" y2="547" class="net_21"/>
  <line x1="304.25" x2="304.25" y1="547" y2="510" class="net_21"/>
</svg>
