<svg style="background:white" xmlns="http://www.w3.org/2000/svg" xmlns:xlink="http://www.w3.org/1999/xlink" xmlns:s="https://github.com/nturley/netlistsvg" width="803" height="917.5">
  <style>svg {
    stroke:#000;
    fill:none;
  }
  text {
    fill:#000;
    stroke:none;
    font-size:10px;
    font-weight: bold;
    font-family: "Courier New", monospace;
  }
  .nodelabel {
    text-anchor: middle;
  }
  .inputPortLabel {
    text-anchor: end;
  }
  .splitjoinBody {
    fill:#000;
  }</style>
  <g s:type="generic" transform="translate(577,825)" s:width="30" s:height="40" id="cell_$procdff$192">
    <text x="15" y="-4" class="nodelabel cell_$procdff$192" s:attribute="ref">$adff</text>
    <rect width="30" height="60" s:generic="body" class="cell_$procdff$192"/>
    <g transform="translate(0,10)" s:x="0" s:y="10" s:pid="in0" id="port_$procdff$192~ARST">
      <text x="-3" y="-4" class="inputPortLabel cell_$procdff$192">ARST</text>
    </g>
    <g transform="translate(0,30)" s:x="0" s:y="10" s:pid="in0" id="port_$procdff$192~CLK">
      <text x="-3" y="-4" class="inputPortLabel cell_$procdff$192">CLK</text>
    </g>
    <g transform="translate(0,50)" s:x="0" s:y="10" s:pid="in0" id="port_$procdff$192~D">
      <text x="-3" y="-4" class="inputPortLabel cell_$procdff$192">D</text>
    </g>
    <g transform="translate(30,10)" s:x="30" s:y="10" s:pid="out0" id="port_$procdff$192~Q">
      <text x="5" y="-4" style="fill:#000; stroke:none" class="cell_$procdff$192">Q</text>
    </g>
  </g>
  <g s:type="generic" transform="translate(577,33)" s:width="30" s:height="40" id="cell_$procdff$197">
    <text x="15" y="-4" class="nodelabel cell_$procdff$197" s:attribute="ref">$adff</text>
    <rect width="30" height="60" s:generic="body" class="cell_$procdff$197"/>
    <g transform="translate(0,10)" s:x="0" s:y="10" s:pid="in0" id="port_$procdff$197~ARST">
      <text x="-3" y="-4" class="inputPortLabel cell_$procdff$197">ARST</text>
    </g>
    <g transform="translate(0,30)" s:x="0" s:y="10" s:pid="in0" id="port_$procdff$197~CLK">
      <text x="-3" y="-4" class="inputPortLabel cell_$procdff$197">CLK</text>
    </g>
    <g transform="translate(0,50)" s:x="0" s:y="10" s:pid="in0" id="port_$procdff$197~D">
      <text x="-3" y="-4" class="inputPortLabel cell_$procdff$197">D</text>
    </g>
    <g transform="translate(30,10)" s:x="30" s:y="10" s:pid="out0" id="port_$procdff$197~Q">
      <text x="5" y="-4" style="fill:#000; stroke:none" class="cell_$procdff$197">Q</text>
    </g>
  </g>
  <g s:type="generic" transform="translate(709,654.5)" s:width="30" s:height="40" id="cell_$procdff$202">
    <text x="15" y="-4" class="nodelabel cell_$procdff$202" s:attribute="ref">$adff</text>
    <rect width="30" height="60" s:generic="body" class="cell_$procdff$202"/>
    <g transform="translate(0,10)" s:x="0" s:y="10" s:pid="in0" id="port_$procdff$202~ARST">
      <text x="-3" y="-4" class="inputPortLabel cell_$procdff$202">ARST</text>
    </g>
    <g transform="translate(0,30)" s:x="0" s:y="10" s:pid="in0" id="port_$procdff$202~CLK">
      <text x="-3" y="-4" class="inputPortLabel cell_$procdff$202">CLK</text>
    </g>
    <g transform="translate(0,50)" s:x="0" s:y="10" s:pid="in0" id="port_$procdff$202~D">
      <text x="-3" y="-4" class="inputPortLabel cell_$procdff$202">D</text>
    </g>
    <g transform="translate(30,10)" s:x="30" s:y="10" s:pid="out0" id="port_$procdff$202~Q">
      <text x="5" y="-4" style="fill:#000; stroke:none" class="cell_$procdff$202">Q</text>
    </g>
  </g>
  <g s:type="mux" transform="translate(362,33.5)" s:width="20" s:height="40" id="cell_$procmux$105">
    <s:alias val="$pmux"/>
    <s:alias val="$mux"/>
    <s:alias val="$_MUX_"/>
    <path d="M0,0 L20,10 L20,30 L0,40 Z" class="cell_$procmux$105"/>
    <g s:x="0" s:y="10" s:pid="A"/>
    <g s:x="0" s:y="30" s:pid="B"/>
    <g s:x="10" s:y="35" s:pid="S"/>
    <g s:x="20" s:y="20" s:pid="Y"/>
  </g>
  <g s:type="mux" transform="translate(422,43.5)" s:width="20" s:height="40" id="cell_$procmux$107">
    <s:alias val="$pmux"/>
    <s:alias val="$mux"/>
    <s:alias val="$_MUX_"/>
    <path d="M0,0 L20,10 L20,30 L0,40 Z" class="cell_$procmux$107"/>
    <g s:x="0" s:y="10" s:pid="A"/>
    <g s:x="0" s:y="30" s:pid="B"/>
    <g s:x="10" s:y="35" s:pid="S"/>
    <g s:x="20" s:y="20" s:pid="Y"/>
  </g>
  <g s:type="mux" transform="translate(485.3333333333333,63.5)" s:width="20" s:height="40" id="cell_$procmux$109">
    <s:alias val="$pmux"/>
    <s:alias val="$mux"/>
    <s:alias val="$_MUX_"/>
    <path d="M0,0 L20,10 L20,30 L0,40 Z" class="cell_$procmux$109"/>
    <g s:x="0" s:y="10" s:pid="A"/>
    <g s:x="0" s:y="30" s:pid="B"/>
    <g s:x="10" s:y="35" s:pid="S"/>
    <g s:x="20" s:y="20" s:pid="Y"/>
  </g>
  <g s:type="mux" transform="translate(422,785.5)" s:width="20" s:height="40" id="cell_$procmux$112">
    <s:alias val="$pmux"/>
    <s:alias val="$mux"/>
    <s:alias val="$_MUX_"/>
    <path d="M0,0 L20,10 L20,30 L0,40 Z" class="cell_$procmux$112"/>
    <g s:x="0" s:y="10" s:pid="A"/>
    <g s:x="0" s:y="30" s:pid="B"/>
    <g s:x="10" s:y="35" s:pid="S"/>
    <g s:x="20" s:y="20" s:pid="Y"/>
  </g>
  <g s:type="mux" transform="translate(485.3333333333333,855.5)" s:width="20" s:height="40" id="cell_$procmux$114">
    <s:alias val="$pmux"/>
    <s:alias val="$mux"/>
    <s:alias val="$_MUX_"/>
    <path d="M0,0 L20,10 L20,30 L0,40 Z" class="cell_$procmux$114"/>
    <g s:x="0" s:y="10" s:pid="A"/>
    <g s:x="0" s:y="30" s:pid="B"/>
    <g s:x="10" s:y="35" s:pid="S"/>
    <g s:x="20" s:y="20" s:pid="Y"/>
  </g>
  <g s:type="mux" transform="translate(182,336.5)" s:width="20" s:height="40" id="cell_$procmux$118">
    <s:alias val="$pmux"/>
    <s:alias val="$mux"/>
    <s:alias val="$_MUX_"/>
    <path d="M0,0 L20,10 L20,30 L0,40 Z" class="cell_$procmux$118"/>
    <g s:x="0" s:y="10" s:pid="A"/>
    <g s:x="0" s:y="30" s:pid="B"/>
    <g s:x="10" s:y="35" s:pid="S"/>
    <g s:x="20" s:y="20" s:pid="Y"/>
  </g>
  <g s:type="mux" transform="translate(237,417.5)" s:width="20" s:height="40" id="cell_$procmux$120">
    <s:alias val="$pmux"/>
    <s:alias val="$mux"/>
    <s:alias val="$_MUX_"/>
    <path d="M0,0 L20,10 L20,30 L0,40 Z" class="cell_$procmux$120"/>
    <g s:x="0" s:y="10" s:pid="A"/>
    <g s:x="0" s:y="30" s:pid="B"/>
    <g s:x="10" s:y="35" s:pid="S"/>
    <g s:x="20" s:y="20" s:pid="Y"/>
  </g>
  <g s:type="mux" transform="translate(295.3333333333333,480)" s:width="20" s:height="40" id="cell_$procmux$122">
    <s:alias val="$pmux"/>
    <s:alias val="$mux"/>
    <s:alias val="$_MUX_"/>
    <path d="M0,0 L20,10 L20,30 L0,40 Z" class="cell_$procmux$122"/>
    <g s:x="0" s:y="10" s:pid="A"/>
    <g s:x="0" s:y="30" s:pid="B"/>
    <g s:x="10" s:y="35" s:pid="S"/>
    <g s:x="20" s:y="20" s:pid="Y"/>
  </g>
  <g s:type="mux" transform="translate(237,250.5)" s:width="20" s:height="40" id="cell_$procmux$127">
    <s:alias val="$pmux"/>
    <s:alias val="$mux"/>
    <s:alias val="$_MUX_"/>
    <path d="M0,0 L20,10 L20,30 L0,40 Z" class="cell_$procmux$127"/>
    <g s:x="0" s:y="10" s:pid="A"/>
    <g s:x="0" s:y="30" s:pid="B"/>
    <g s:x="10" s:y="35" s:pid="S"/>
    <g s:x="20" s:y="20" s:pid="Y"/>
  </g>
  <g s:type="mux" transform="translate(295.3333333333333,104.5)" s:width="20" s:height="40" id="cell_$procmux$136">
    <s:alias val="$pmux"/>
    <s:alias val="$mux"/>
    <s:alias val="$_MUX_"/>
    <path d="M0,0 L20,10 L20,30 L0,40 Z" class="cell_$procmux$136"/>
    <g s:x="0" s:y="10" s:pid="A"/>
    <g s:x="0" s:y="30" s:pid="B"/>
    <g s:x="10" s:y="35" s:pid="S"/>
    <g s:x="20" s:y="20" s:pid="Y"/>
  </g>
  <g s:type="mux" transform="translate(362,114.5)" s:width="20" s:height="40" id="cell_$procmux$138">
    <s:alias val="$pmux"/>
    <s:alias val="$mux"/>
    <s:alias val="$_MUX_"/>
    <path d="M0,0 L20,10 L20,30 L0,40 Z" class="cell_$procmux$138"/>
    <g s:x="0" s:y="10" s:pid="A"/>
    <g s:x="0" s:y="30" s:pid="B"/>
    <g s:x="10" s:y="35" s:pid="S"/>
    <g s:x="20" s:y="20" s:pid="Y"/>
  </g>
  <g s:type="mux" transform="translate(422,134.5)" s:width="20" s:height="40" id="cell_$procmux$140">
    <s:alias val="$pmux"/>
    <s:alias val="$mux"/>
    <s:alias val="$_MUX_"/>
    <path d="M0,0 L20,10 L20,30 L0,40 Z" class="cell_$procmux$140"/>
    <g s:x="0" s:y="10" s:pid="A"/>
    <g s:x="0" s:y="30" s:pid="B"/>
    <g s:x="10" s:y="35" s:pid="S"/>
    <g s:x="20" s:y="20" s:pid="Y"/>
  </g>
  <g s:type="mux" transform="translate(485.3333333333333,604)" s:width="20" s:height="40" id="cell_$procmux$142">
    <s:alias val="$pmux"/>
    <s:alias val="$mux"/>
    <s:alias val="$_MUX_"/>
    <path d="M0,0 L20,10 L20,30 L0,40 Z" class="cell_$procmux$142"/>
    <g s:x="0" s:y="10" s:pid="A"/>
    <g s:x="0" s:y="30" s:pid="B"/>
    <g s:x="10" s:y="35" s:pid="S"/>
    <g s:x="20" s:y="20" s:pid="Y"/>
  </g>
  <g s:type="mux" transform="translate(295.3333333333333,552)" s:width="20" s:height="40" id="cell_$procmux$147">
    <s:alias val="$pmux"/>
    <s:alias val="$mux"/>
    <s:alias val="$_MUX_"/>
    <path d="M0,0 L20,10 L20,30 L0,40 Z" class="cell_$procmux$147"/>
    <g s:x="0" s:y="10" s:pid="A"/>
    <g s:x="0" s:y="30" s:pid="B"/>
    <g s:x="10" s:y="35" s:pid="S"/>
    <g s:x="20" s:y="20" s:pid="Y"/>
  </g>
  <g s:type="mux" transform="translate(362,583)" s:width="20" s:height="40" id="cell_$procmux$149">
    <s:alias val="$pmux"/>
    <s:alias val="$mux"/>
    <s:alias val="$_MUX_"/>
    <path d="M0,0 L20,10 L20,30 L0,40 Z" class="cell_$procmux$149"/>
    <g s:x="0" s:y="10" s:pid="A"/>
    <g s:x="0" s:y="30" s:pid="B"/>
    <g s:x="10" s:y="35" s:pid="S"/>
    <g s:x="20" s:y="20" s:pid="Y"/>
  </g>
  <g s:type="mux" transform="translate(92,346.5)" s:width="20" s:height="40" id="cell_$procmux$154">
    <s:alias val="$pmux"/>
    <s:alias val="$mux"/>
    <s:alias val="$_MUX_"/>
    <path d="M0,0 L20,10 L20,30 L0,40 Z" class="cell_$procmux$154"/>
    <g s:x="0" s:y="10" s:pid="A"/>
    <g s:x="0" s:y="30" s:pid="B"/>
    <g s:x="10" s:y="35" s:pid="S"/>
    <g s:x="20" s:y="20" s:pid="Y"/>
  </g>
  <g s:type="mux" transform="translate(422,614)" s:width="20" s:height="40" id="cell_$procmux$167">
    <s:alias val="$pmux"/>
    <s:alias val="$mux"/>
    <s:alias val="$_MUX_"/>
    <path d="M0,0 L20,10 L20,30 L0,40 Z" class="cell_$procmux$167"/>
    <g s:x="0" s:y="10" s:pid="A"/>
    <g s:x="0" s:y="30" s:pid="B"/>
    <g s:x="10" s:y="35" s:pid="S"/>
    <g s:x="20" s:y="20" s:pid="Y"/>
  </g>
  <g s:type="mux" transform="translate(362,695)" s:width="20" s:height="40" id="cell_$procmux$176">
    <s:alias val="$pmux"/>
    <s:alias val="$mux"/>
    <s:alias val="$_MUX_"/>
    <path d="M0,0 L20,10 L20,30 L0,40 Z" class="cell_$procmux$176"/>
    <g s:x="0" s:y="10" s:pid="A"/>
    <g s:x="0" s:y="30" s:pid="B"/>
    <g s:x="10" s:y="35" s:pid="S"/>
    <g s:x="20" s:y="20" s:pid="Y"/>
  </g>
  <g s:type="mux" transform="translate(295.3333333333333,240.5)" s:width="20" s:height="40" id="cell_$procmux$182">
    <s:alias val="$pmux"/>
    <s:alias val="$mux"/>
    <s:alias val="$_MUX_"/>
    <path d="M0,0 L20,10 L20,30 L0,40 Z" class="cell_$procmux$182"/>
    <g s:x="0" s:y="10" s:pid="A"/>
    <g s:x="0" s:y="30" s:pid="B"/>
    <g s:x="10" s:y="35" s:pid="S"/>
    <g s:x="20" s:y="20" s:pid="Y"/>
  </g>
  <g s:type="mux" transform="translate(362,250.5)" s:width="20" s:height="40" id="cell_$procmux$184">
    <s:alias val="$pmux"/>
    <s:alias val="$mux"/>
    <s:alias val="$_MUX_"/>
    <path d="M0,0 L20,10 L20,30 L0,40 Z" class="cell_$procmux$184"/>
    <g s:x="0" s:y="10" s:pid="A"/>
    <g s:x="0" s:y="30" s:pid="B"/>
    <g s:x="10" s:y="35" s:pid="S"/>
    <g s:x="20" s:y="20" s:pid="Y"/>
  </g>
  <g s:type="mux" transform="translate(422,685)" s:width="20" s:height="40" id="cell_$procmux$186">
    <s:alias val="$pmux"/>
    <s:alias val="$mux"/>
    <s:alias val="$_MUX_"/>
    <path d="M0,0 L20,10 L20,30 L0,40 Z" class="cell_$procmux$186"/>
    <g s:x="0" s:y="10" s:pid="A"/>
    <g s:x="0" s:y="30" s:pid="B"/>
    <g s:x="10" s:y="35" s:pid="S"/>
    <g s:x="20" s:y="20" s:pid="Y"/>
  </g>
  <g s:type="inputExt" transform="translate(292,665)" s:width="30" s:height="20" id="cell_go">
    <text x="15" y="-4" class="nodelabel cell_go" s:attribute="ref">go</text>
    <s:alias val="$_inputExt_"/>
    <path d="M0,0 L0,20 L15,20 L30,10 L15,0 Z" class="cell_go"/>
    <g s:x="28" s:y="10" s:pid="Y"/>
  </g>
  <g s:type="inputExt" transform="translate(12,448.5)" s:width="30" s:height="20" id="cell_ws">
    <text x="15" y="-4" class="nodelabel cell_ws" s:attribute="ref">ws</text>
    <s:alias val="$_inputExt_"/>
    <path d="M0,0 L0,20 L15,20 L30,10 L15,0 Z" class="cell_ws"/>
    <g s:x="28" s:y="10" s:pid="Y"/>
  </g>
  <g s:type="inputExt" transform="translate(482,549)" s:width="30" s:height="20" id="cell_clk">
    <text x="15" y="-4" class="nodelabel cell_clk" s:attribute="ref">clk</text>
    <s:alias val="$_inputExt_"/>
    <path d="M0,0 L0,20 L15,20 L30,10 L15,0 Z" class="cell_clk"/>
    <g s:x="28" s:y="10" s:pid="Y"/>
  </g>
  <g s:type="inputExt" transform="translate(482,484)" s:width="30" s:height="20" id="cell_rst_n">
    <text x="15" y="-4" class="nodelabel cell_rst_n" s:attribute="ref">rst_n</text>
    <s:alias val="$_inputExt_"/>
    <path d="M0,0 L0,20 L15,20 L30,10 L15,0 Z" class="cell_rst_n"/>
    <g s:x="28" s:y="10" s:pid="Y"/>
  </g>
  <g s:type="outputExt" transform="translate(709,825.5)" s:width="30" s:height="20" id="cell_rd">
    <text x="15" y="-4" class="nodelabel cell_rd" s:attribute="ref">rd</text>
    <s:alias val="$_outputExt_"/>
    <path d="M30,0 L30,20 L15,20 L0,10 L15,0 Z" class="cell_rd"/>
    <g s:x="0" s:y="10" s:pid="A"/>
  </g>
  <g s:type="outputExt" transform="translate(709,33.5)" s:width="30" s:height="20" id="cell_ds">
    <text x="15" y="-4" class="nodelabel cell_ds" s:attribute="ref">ds</text>
    <s:alias val="$_outputExt_"/>
    <path d="M30,0 L30,20 L15,20 L0,10 L15,0 Z" class="cell_ds"/>
    <g s:x="0" s:y="10" s:pid="A"/>
  </g>
  <g s:type="constant" transform="translate(12,281.5)" s:width="30" s:height="20" id="cell_0">
    <text x="15" y="-4" class="nodelabel cell_0" s:attribute="ref">0</text>
    <s:alias val="$_constant_"/>
    <rect width="30" height="20" class="cell_0"/>
    <g s:x="30" s:y="10" s:pid="Y"/>
  </g>
  <g s:type="constant" transform="translate(12,346.5)" s:width="30" s:height="20" id="cell_1">
    <text x="15" y="-4" class="nodelabel cell_1" s:attribute="ref">1</text>
    <s:alias val="$_constant_"/>
    <rect width="30" height="20" class="cell_1"/>
    <g s:x="30" s:y="10" s:pid="Y"/>
  </g>
  <g s:type="join" transform="translate(587.75,684.5)" s:width="4" s:height="40" id="cell_$join$,10,11,12,13,">
    <rect width="5" height="80" class="splitjoinBody" s:generic="body"/>
    <s:alias val="$_join_"/>
    <g s:x="5" s:y="20" s:pid="out"/>
    <g transform="translate(0,10)" s:x="0" s:y="10" s:pid="in0">
      <text x="-3" y="-4" class="inputPortLabel">0</text>
    </g>
    <g transform="translate(0,30)" s:x="0" s:y="10" s:pid="in0">
      <text x="-3" y="-4" class="inputPortLabel">1</text>
    </g>
    <g transform="translate(0,50)" s:x="0" s:y="10" s:pid="in0">
      <text x="-3" y="-4" class="inputPortLabel">2</text>
    </g>
    <g transform="translate(0,70)" s:x="0" s:y="10" s:pid="in0">
      <text x="-3" y="-4" class="inputPortLabel">3</text>
    </g>
  </g>
  <g s:type="split" transform="translate(100,468.5)" s:width="5" s:height="40" id="cell_$split$,14,15,16,17,">
    <rect width="5" height="80" class="splitjoinBody" s:generic="body"/>
    <s:alias val="$_split_"/>
    <g s:x="0" s:y="20" s:pid="in"/>
    <g transform="translate(4,10)" s:x="4" s:y="10" s:pid="out0">
      <text x="5" y="-4">2</text>
    </g>
    <g transform="translate(4,30)" s:x="4" s:y="10" s:pid="out0">
      <text x="5" y="-4">1</text>
    </g>
    <g transform="translate(4,50)" s:x="4" s:y="10" s:pid="out0">
      <text x="5" y="-4">0</text>
    </g>
    <g transform="translate(4,70)" s:x="4" s:y="10" s:pid="out0">
      <text x="5" y="-4">3</text>
    </g>
  </g>
  <line x1="510" x2="542" y1="494" y2="494" class="net_5"/>
  <line x1="542" x2="542" y1="494" y2="835.5" class="net_5"/>
  <circle cx="542" cy="494" r="2" style="fill:#000" class="net_5"/>
  <line x1="542" x2="577" y1="835.5" y2="835.5" class="net_5"/>
  <line x1="510" x2="542" y1="494" y2="494" class="net_5"/>
  <line x1="542" x2="542" y1="494" y2="43.5" class="net_5"/>
  <line x1="542" x2="577" y1="43.5" y2="43.5" class="net_5"/>
  <line x1="510" x2="669" y1="494" y2="494" class="net_5"/>
  <line x1="669" x2="669" y1="494" y2="665" class="net_5"/>
  <line x1="669" x2="709" y1="665" y2="665" class="net_5"/>
  <line x1="510" x2="532" y1="559" y2="559" class="net_4"/>
  <line x1="532" x2="532" y1="559" y2="855.5" class="net_4"/>
  <circle cx="532" cy="559" r="2" style="fill:#000" class="net_4"/>
  <line x1="532" x2="577" y1="855.5" y2="855.5" class="net_4"/>
  <line x1="510" x2="532" y1="559" y2="559" class="net_4"/>
  <line x1="532" x2="532" y1="559" y2="63.5" class="net_4"/>
  <line x1="532" x2="577" y1="63.5" y2="63.5" class="net_4"/>
  <line x1="510" x2="659" y1="559" y2="559" class="net_4"/>
  <line x1="659" x2="659" y1="559" y2="685" class="net_4"/>
  <line x1="659" x2="709" y1="685" y2="685" class="net_4"/>
  <line x1="505.3333333333333" x2="577" y1="875.5" y2="875.5" class="net_8"/>
  <line x1="505.3333333333333" x2="577" y1="83.5" y2="83.5" class="net_9"/>
  <line x1="593.75" x2="709" y1="705" y2="705" class="net_10,11,12,13"/>
  <line x1="42" x2="82" y1="291.5" y2="291.5" class="net_33"/>
  <line x1="82" x2="82" y1="291.5" y2="43.5" class="net_33"/>
  <circle cx="82" cy="291.5" r="2" style="fill:#000" class="net_33"/>
  <line x1="82" x2="362" y1="43.5" y2="43.5" class="net_33"/>
  <line x1="42" x2="82" y1="291.5" y2="291.5" class="net_33"/>
  <line x1="82" x2="82" y1="291.5" y2="93.5" class="net_33"/>
  <line x1="82" x2="392" y1="93.5" y2="93.5" class="net_33"/>
  <line x1="392" x2="392" y1="93.5" y2="73.5" class="net_33"/>
  <circle cx="82" cy="93.5" r="2" style="fill:#000" class="net_33"/>
  <circle cx="392" cy="93.5" r="2" style="fill:#000" class="net_33"/>
  <line x1="392" x2="422" y1="73.5" y2="73.5" class="net_33"/>
  <line x1="42" x2="82" y1="291.5" y2="291.5" class="net_33"/>
  <line x1="82" x2="82" y1="291.5" y2="93.5" class="net_33"/>
  <line x1="82" x2="485.3333333333333" y1="93.5" y2="93.5" class="net_33"/>
  <line x1="42" x2="82" y1="291.5" y2="291.5" class="net_33"/>
  <line x1="82" x2="82" y1="291.5" y2="795.5" class="net_33"/>
  <line x1="82" x2="422" y1="795.5" y2="795.5" class="net_33"/>
  <line x1="42" x2="162" y1="291.5" y2="291.5" class="net_33"/>
  <line x1="162" x2="162" y1="291.5" y2="346.5" class="net_33"/>
  <line x1="162" x2="182" y1="346.5" y2="346.5" class="net_33"/>
  <line x1="42" x2="82" y1="291.5" y2="291.5" class="net_33"/>
  <line x1="82" x2="82" y1="291.5" y2="447.5" class="net_33"/>
  <circle cx="82" cy="447.5" r="2" style="fill:#000" class="net_33"/>
  <line x1="82" x2="237" y1="447.5" y2="447.5" class="net_33"/>
  <line x1="42" x2="82" y1="291.5" y2="291.5" class="net_33"/>
  <line x1="82" x2="82" y1="291.5" y2="562" class="net_33"/>
  <line x1="82" x2="172" y1="562" y2="562" class="net_33"/>
  <line x1="172" x2="172" y1="562" y2="510" class="net_33"/>
  <circle cx="82" cy="562" r="2" style="fill:#000" class="net_33"/>
  <circle cx="172" cy="562" r="2" style="fill:#000" class="net_33"/>
  <line x1="172" x2="295.3333333333333" y1="510" y2="510" class="net_33"/>
  <line x1="42" x2="82" y1="291.5" y2="291.5" class="net_33"/>
  <line x1="82" x2="82" y1="291.5" y2="239.5" class="net_33"/>
  <line x1="82" x2="212" y1="239.5" y2="239.5" class="net_33"/>
  <line x1="212" x2="212" y1="239.5" y2="260.5" class="net_33"/>
  <circle cx="82" cy="239.5" r="2" style="fill:#000" class="net_33"/>
  <circle cx="212" cy="239.5" r="2" style="fill:#000" class="net_33"/>
  <line x1="212" x2="237" y1="260.5" y2="260.5" class="net_33"/>
  <line x1="42" x2="82" y1="291.5" y2="291.5" class="net_33"/>
  <line x1="82" x2="82" y1="291.5" y2="93.5" class="net_33"/>
  <line x1="82" x2="267" y1="93.5" y2="93.5" class="net_33"/>
  <line x1="267" x2="267" y1="93.5" y2="114.5" class="net_33"/>
  <circle cx="267" cy="93.5" r="2" style="fill:#000" class="net_33"/>
  <line x1="267" x2="295.3333333333333" y1="114.5" y2="114.5" class="net_33"/>
  <line x1="42" x2="82" y1="291.5" y2="291.5" class="net_33"/>
  <line x1="82" x2="82" y1="291.5" y2="164.5" class="net_33"/>
  <line x1="82" x2="342" y1="164.5" y2="164.5" class="net_33"/>
  <line x1="342" x2="342" y1="164.5" y2="144.5" class="net_33"/>
  <circle cx="82" cy="164.5" r="2" style="fill:#000" class="net_33"/>
  <circle cx="342" cy="164.5" r="2" style="fill:#000" class="net_33"/>
  <line x1="342" x2="362" y1="144.5" y2="144.5" class="net_33"/>
  <line x1="42" x2="82" y1="291.5" y2="291.5" class="net_33"/>
  <line x1="82" x2="82" y1="291.5" y2="164.5" class="net_33"/>
  <line x1="82" x2="422" y1="164.5" y2="164.5" class="net_33"/>
  <line x1="42" x2="82" y1="291.5" y2="291.5" class="net_33"/>
  <line x1="82" x2="82" y1="291.5" y2="562" class="net_33"/>
  <line x1="82" x2="295.3333333333333" y1="562" y2="562" class="net_33"/>
  <line x1="42" x2="82" y1="291.5" y2="291.5" class="net_33"/>
  <line x1="82" x2="82" y1="291.5" y2="644" class="net_33"/>
  <line x1="82" x2="172" y1="644" y2="644" class="net_33"/>
  <line x1="172" x2="172" y1="644" y2="613" class="net_33"/>
  <circle cx="82" cy="644" r="2" style="fill:#000" class="net_33"/>
  <circle cx="172" cy="644" r="2" style="fill:#000" class="net_33"/>
  <line x1="172" x2="362" y1="613" y2="613" class="net_33"/>
  <line x1="42" x2="82" y1="291.5" y2="291.5" class="net_33"/>
  <line x1="82" x2="82" y1="291.5" y2="376.5" class="net_33"/>
  <circle cx="82" cy="376.5" r="2" style="fill:#000" class="net_33"/>
  <line x1="82" x2="92" y1="376.5" y2="376.5" class="net_33"/>
  <line x1="42" x2="82" y1="291.5" y2="291.5" class="net_33"/>
  <line x1="82" x2="82" y1="291.5" y2="644" class="net_33"/>
  <line x1="82" x2="422" y1="644" y2="644" class="net_33"/>
  <line x1="42" x2="82" y1="291.5" y2="291.5" class="net_33"/>
  <line x1="82" x2="82" y1="291.5" y2="644" class="net_33"/>
  <line x1="82" x2="352" y1="644" y2="644" class="net_33"/>
  <line x1="352" x2="352" y1="644" y2="705" class="net_33"/>
  <circle cx="352" cy="644" r="2" style="fill:#000" class="net_33"/>
  <line x1="352" x2="362" y1="705" y2="705" class="net_33"/>
  <line x1="42" x2="82" y1="291.5" y2="291.5" class="net_33"/>
  <line x1="82" x2="82" y1="291.5" y2="239.5" class="net_33"/>
  <line x1="82" x2="267" y1="239.5" y2="239.5" class="net_33"/>
  <line x1="267" x2="267" y1="239.5" y2="250.5" class="net_33"/>
  <line x1="267" x2="295.3333333333333" y1="250.5" y2="250.5" class="net_33"/>
  <line x1="42" x2="82" y1="291.5" y2="291.5" class="net_33"/>
  <line x1="82" x2="82" y1="291.5" y2="239.5" class="net_33"/>
  <line x1="82" x2="142" y1="239.5" y2="239.5" class="net_33"/>
  <line x1="142" x2="142" y1="239.5" y2="217.5" class="net_33"/>
  <line x1="142" x2="342" y1="217.5" y2="217.5" class="net_33"/>
  <line x1="342" x2="342" y1="217.5" y2="280.5" class="net_33"/>
  <circle cx="142" cy="239.5" r="2" style="fill:#000" class="net_33"/>
  <line x1="342" x2="362" y1="280.5" y2="280.5" class="net_33"/>
  <line x1="42" x2="62" y1="356.5" y2="356.5" class="net_34"/>
  <line x1="62" x2="62" y1="356.5" y2="63.5" class="net_34"/>
  <circle cx="62" cy="356.5" r="2" style="fill:#000" class="net_34"/>
  <line x1="62" x2="362" y1="63.5" y2="63.5" class="net_34"/>
  <line x1="42" x2="62" y1="356.5" y2="356.5" class="net_34"/>
  <line x1="62" x2="62" y1="356.5" y2="885.5" class="net_34"/>
  <line x1="62" x2="172" y1="885.5" y2="885.5" class="net_34"/>
  <line x1="172" x2="172" y1="885.5" y2="815.5" class="net_34"/>
  <circle cx="172" cy="885.5" r="2" style="fill:#000" class="net_34"/>
  <line x1="172" x2="422" y1="815.5" y2="815.5" class="net_34"/>
  <line x1="42" x2="62" y1="356.5" y2="356.5" class="net_34"/>
  <line x1="62" x2="62" y1="356.5" y2="885.5" class="net_34"/>
  <line x1="62" x2="485.3333333333333" y1="885.5" y2="885.5" class="net_34"/>
  <line x1="42" x2="62" y1="356.5" y2="356.5" class="net_34"/>
  <line x1="62" x2="62" y1="356.5" y2="280.5" class="net_34"/>
  <circle cx="62" cy="280.5" r="2" style="fill:#000" class="net_34"/>
  <line x1="62" x2="237" y1="280.5" y2="280.5" class="net_34"/>
  <line x1="42" x2="62" y1="356.5" y2="356.5" class="net_34"/>
  <line x1="62" x2="62" y1="356.5" y2="134.5" class="net_34"/>
  <circle cx="62" cy="134.5" r="2" style="fill:#000" class="net_34"/>
  <line x1="62" x2="295.3333333333333" y1="134.5" y2="134.5" class="net_34"/>
  <line x1="42" x2="62" y1="356.5" y2="356.5" class="net_34"/>
  <line x1="62" x2="62" y1="356.5" y2="582" class="net_34"/>
  <circle cx="62" cy="582" r="2" style="fill:#000" class="net_34"/>
  <line x1="62" x2="295.3333333333333" y1="582" y2="582" class="net_34"/>
  <line x1="42" x2="92" y1="356.5" y2="356.5" class="net_34"/>
  <line x1="42" x2="62" y1="356.5" y2="356.5" class="net_34"/>
  <line x1="62" x2="62" y1="356.5" y2="195.5" class="net_34"/>
  <line x1="62" x2="412" y1="195.5" y2="195.5" class="net_34"/>
  <line x1="412" x2="412" y1="195.5" y2="624" class="net_34"/>
  <circle cx="62" cy="195.5" r="2" style="fill:#000" class="net_34"/>
  <line x1="412" x2="422" y1="624" y2="624" class="net_34"/>
  <line x1="42" x2="62" y1="356.5" y2="356.5" class="net_34"/>
  <line x1="62" x2="62" y1="356.5" y2="725" class="net_34"/>
  <circle cx="62" cy="725" r="2" style="fill:#000" class="net_34"/>
  <line x1="62" x2="362" y1="725" y2="725" class="net_34"/>
  <line x1="315.3333333333333" x2="332" y1="500" y2="500" class="net_13"/>
  <line x1="332" x2="332" y1="500" y2="104.5" class="net_13"/>
  <line x1="332" x2="372" y1="104.5" y2="104.5" class="net_13"/>
  <circle cx="332" cy="500" r="2" style="fill:#000" class="net_13"/>
  <line x1="372" x2="372" y1="104.5" y2="68.5" class="net_13"/>
  <line x1="315.3333333333333" x2="332" y1="500" y2="500" class="net_13"/>
  <line x1="332" x2="332" y1="500" y2="774.5" class="net_13"/>
  <line x1="332" x2="588.25" y1="774.5" y2="774.5" class="net_13"/>
  <line x1="588.25" x2="588.25" y1="774.5" y2="755.5" class="net_13"/>
  <line x1="382" x2="422" y1="53.5" y2="53.5" class="net_18"/>
  <line x1="382" x2="392" y1="603" y2="603" class="net_12"/>
  <line x1="392" x2="392" y1="603" y2="124.5" class="net_12"/>
  <line x1="392" x2="432" y1="124.5" y2="124.5" class="net_12"/>
  <circle cx="392" cy="603" r="2" style="fill:#000" class="net_12"/>
  <line x1="432" x2="432" y1="124.5" y2="78.5" class="net_12"/>
  <line x1="382" x2="392" y1="603" y2="603" class="net_12"/>
  <line x1="392" x2="392" y1="603" y2="835.5" class="net_12"/>
  <line x1="392" x2="432" y1="835.5" y2="835.5" class="net_12"/>
  <line x1="432" x2="432" y1="835.5" y2="820.5" class="net_12"/>
  <line x1="382" x2="392" y1="603" y2="603" class="net_12"/>
  <line x1="392" x2="392" y1="603" y2="735" class="net_12"/>
  <circle cx="392" cy="735" r="2" style="fill:#000" class="net_12"/>
  <line x1="392" x2="587.75" y1="735" y2="735" class="net_12"/>
  <line x1="442" x2="452" y1="63.5" y2="63.5" class="net_19"/>
  <line x1="452" x2="452" y1="63.5" y2="73.5" class="net_19"/>
  <line x1="452" x2="485.3333333333333" y1="73.5" y2="73.5" class="net_19"/>
  <line x1="442" x2="462" y1="705" y2="705" class="net_11"/>
  <line x1="462" x2="462" y1="705" y2="464" class="net_11"/>
  <line x1="462" x2="495.3333333333333" y1="464" y2="464" class="net_11"/>
  <circle cx="462" cy="705" r="2" style="fill:#000" class="net_11"/>
  <line x1="495.3333333333333" x2="495.3333333333333" y1="464" y2="98.5" class="net_11"/>
  <line x1="442" x2="462" y1="705" y2="705" class="net_11"/>
  <line x1="462" x2="462" y1="705" y2="905.5" class="net_11"/>
  <line x1="462" x2="495.3333333333333" y1="905.5" y2="905.5" class="net_11"/>
  <line x1="495.3333333333333" x2="495.3333333333333" y1="905.5" y2="890.5" class="net_11"/>
  <line x1="442" x2="522" y1="705" y2="705" class="net_11"/>
  <line x1="522" x2="522" y1="705" y2="715" class="net_11"/>
  <line x1="522" x2="587.75" y1="715" y2="715" class="net_11"/>
  <line x1="442" x2="452" y1="805.5" y2="805.5" class="net_20"/>
  <line x1="452" x2="452" y1="805.5" y2="865.5" class="net_20"/>
  <line x1="452" x2="485.3333333333333" y1="865.5" y2="865.5" class="net_20"/>
  <line x1="112" x2="182" y1="366.5" y2="366.5" class="net_21"/>
  <line x1="105" x2="132" y1="479" y2="479" class="net_16"/>
  <line x1="132" x2="132" y1="479" y2="386.5" class="net_16"/>
  <line x1="132" x2="192" y1="386.5" y2="386.5" class="net_16"/>
  <circle cx="132" cy="386.5" r="2" style="fill:#000" class="net_16"/>
  <line x1="192" x2="192" y1="386.5" y2="371.5" class="net_16"/>
  <line x1="105" x2="132" y1="479" y2="479" class="net_16"/>
  <line x1="132" x2="132" y1="479" y2="206.5" class="net_16"/>
  <line x1="132" x2="372" y1="206.5" y2="206.5" class="net_16"/>
  <line x1="372" x2="372" y1="206.5" y2="149.5" class="net_16"/>
  <line x1="105" x2="132" y1="479" y2="479" class="net_16"/>
  <line x1="132" x2="132" y1="479" y2="396.5" class="net_16"/>
  <line x1="132" x2="305.3333333333333" y1="396.5" y2="396.5" class="net_16"/>
  <circle cx="132" cy="396.5" r="2" style="fill:#000" class="net_16"/>
  <line x1="305.3333333333333" x2="305.3333333333333" y1="396.5" y2="275.5" class="net_16"/>
  <line x1="202" x2="212" y1="356.5" y2="356.5" class="net_22"/>
  <line x1="212" x2="212" y1="356.5" y2="427.5" class="net_22"/>
  <line x1="212" x2="237" y1="427.5" y2="427.5" class="net_22"/>
  <line x1="105" x2="247" y1="499" y2="499" class="net_15"/>
  <line x1="247" x2="247" y1="499" y2="452.5" class="net_15"/>
  <line x1="105" x2="122" y1="499" y2="499" class="net_15"/>
  <line x1="122" x2="122" y1="499" y2="184.5" class="net_15"/>
  <line x1="122" x2="432" y1="184.5" y2="184.5" class="net_15"/>
  <circle cx="122" cy="499" r="2" style="fill:#000" class="net_15"/>
  <line x1="432" x2="432" y1="184.5" y2="169.5" class="net_15"/>
  <line x1="105" x2="122" y1="499" y2="499" class="net_15"/>
  <line x1="122" x2="122" y1="499" y2="602" class="net_15"/>
  <line x1="122" x2="305.3333333333333" y1="602" y2="602" class="net_15"/>
  <line x1="305.3333333333333" x2="305.3333333333333" y1="602" y2="587" class="net_15"/>
  <line x1="105" x2="122" y1="499" y2="499" class="net_15"/>
  <line x1="122" x2="122" y1="499" y2="541" class="net_15"/>
  <line x1="122" x2="372" y1="541" y2="541" class="net_15"/>
  <circle cx="122" cy="541" r="2" style="fill:#000" class="net_15"/>
  <line x1="372" x2="372" y1="541" y2="285.5" class="net_15"/>
  <line x1="257" x2="267" y1="437.5" y2="437.5" class="net_23"/>
  <line x1="267" x2="267" y1="437.5" y2="490" class="net_23"/>
  <line x1="267" x2="295.3333333333333" y1="490" y2="490" class="net_23"/>
  <line x1="105" x2="162" y1="519" y2="519" class="net_14"/>
  <line x1="162" x2="162" y1="519" y2="530" class="net_14"/>
  <line x1="162" x2="305.3333333333333" y1="530" y2="530" class="net_14"/>
  <circle cx="162" cy="530" r="2" style="fill:#000" class="net_14"/>
  <line x1="305.3333333333333" x2="305.3333333333333" y1="530" y2="515" class="net_14"/>
  <line x1="105" x2="162" y1="519" y2="519" class="net_14"/>
  <line x1="162" x2="162" y1="519" y2="845.5" class="net_14"/>
  <line x1="162" x2="495.3333333333333" y1="845.5" y2="845.5" class="net_14"/>
  <line x1="495.3333333333333" x2="495.3333333333333" y1="845.5" y2="639" class="net_14"/>
  <line x1="105" x2="162" y1="519" y2="519" class="net_14"/>
  <line x1="162" x2="162" y1="519" y2="633" class="net_14"/>
  <line x1="162" x2="372" y1="633" y2="633" class="net_14"/>
  <circle cx="162" cy="633" r="2" style="fill:#000" class="net_14"/>
  <line x1="372" x2="372" y1="633" y2="618" class="net_14"/>
  <line x1="105" x2="162" y1="519" y2="519" class="net_14"/>
  <line x1="162" x2="162" y1="519" y2="755" class="net_14"/>
  <line x1="162" x2="432" y1="755" y2="755" class="net_14"/>
  <circle cx="162" cy="755" r="2" style="fill:#000" class="net_14"/>
  <line x1="432" x2="432" y1="755" y2="720" class="net_14"/>
  <line x1="40" x2="72" y1="458.5" y2="458.5" class="net_3"/>
  <line x1="72" x2="72" y1="458.5" y2="407.5" class="net_3"/>
  <line x1="72" x2="247" y1="407.5" y2="407.5" class="net_3"/>
  <circle cx="72" cy="458.5" r="2" style="fill:#000" class="net_3"/>
  <line x1="247" x2="247" y1="407.5" y2="285.5" class="net_3"/>
  <line x1="40" x2="102" y1="458.5" y2="458.5" class="net_3"/>
  <line x1="102" x2="102" y1="458.5" y2="381.5" class="net_3"/>
  <line x1="105" x2="152" y1="539" y2="539" class="net_17"/>
  <line x1="152" x2="152" y1="539" y2="228.5" class="net_17"/>
  <line x1="152" x2="305.3333333333333" y1="228.5" y2="228.5" class="net_17"/>
  <line x1="305.3333333333333" x2="305.3333333333333" y1="228.5" y2="139.5" class="net_17"/>
  <line x1="315.3333333333333" x2="362" y1="124.5" y2="124.5" class="net_25"/>
  <line x1="382" x2="402" y1="134.5" y2="134.5" class="net_26"/>
  <line x1="402" x2="402" y1="134.5" y2="144.5" class="net_26"/>
  <line x1="402" x2="422" y1="144.5" y2="144.5" class="net_26"/>
  <line x1="442" x2="472" y1="154.5" y2="154.5" class="net_27"/>
  <line x1="472" x2="472" y1="154.5" y2="614" class="net_27"/>
  <line x1="472" x2="485.3333333333333" y1="614" y2="614" class="net_27"/>
  <line x1="442" x2="485.3333333333333" y1="634" y2="634" class="net_28"/>
  <line x1="315.3333333333333" x2="342" y1="572" y2="572" class="net_29"/>
  <line x1="342" x2="342" y1="572" y2="593" class="net_29"/>
  <line x1="342" x2="362" y1="593" y2="593" class="net_29"/>
  <line x1="320" x2="432" y1="675" y2="675" class="net_2"/>
  <line x1="432" x2="432" y1="675" y2="649" class="net_2"/>
  <line x1="320" x2="342" y1="675" y2="675" class="net_2"/>
  <line x1="342" x2="342" y1="675" y2="745" class="net_2"/>
  <line x1="342" x2="372" y1="745" y2="745" class="net_2"/>
  <circle cx="342" cy="675" r="2" style="fill:#000" class="net_2"/>
  <line x1="372" x2="372" y1="745" y2="730" class="net_2"/>
  <line x1="257" x2="295.3333333333333" y1="270.5" y2="270.5" class="net_24"/>
  <line x1="315.3333333333333" x2="362" y1="260.5" y2="260.5" class="net_31"/>
  <line x1="382" x2="402" y1="270.5" y2="270.5" class="net_32"/>
  <line x1="402" x2="402" y1="270.5" y2="695" class="net_32"/>
  <line x1="402" x2="422" y1="695" y2="695" class="net_32"/>
  <line x1="382" x2="422" y1="715" y2="715" class="net_30"/>
  <line x1="608" x2="709" y1="835.5" y2="835.5" class="net_6"/>
  <line x1="608" x2="709" y1="43.5" y2="43.5" class="net_7"/>
  <line x1="505.3333333333333" x2="522" y1="624" y2="624" class="net_10"/>
  <line x1="522" x2="522" y1="624" y2="695" class="net_10"/>
  <line x1="522" x2="587.75" y1="695" y2="695" class="net_10"/>
  <line x1="740" x2="791" y1="665" y2="665" class="net_14,15,16,17"/>
  <line x1="791" x2="791" y1="665" y2="12" class="net_14,15,16,17"/>
  <line x1="791" x2="52" y1="12" y2="12" class="net_14,15,16,17"/>
  <line x1="52" x2="52" y1="12" y2="489" class="net_14,15,16,17"/>
  <line x1="52" x2="100" y1="489" y2="489" class="net_14,15,16,17"/>
</svg>
